<?xml version="1.0" encoding="UTF-8" standalone="no"?>
<!DOCTYPE svg PUBLIC "-//W3C//DTD SVG 1.1//EN"
 "http://www.w3.org/Graphics/SVG/1.1/DTD/svg11.dtd">
<!-- Generated by graphviz version 8.0.5 (20230430.1635)
 -->
<!-- Pages: 1 -->
<svg width="486pt" height="658pt"
 viewBox="0.00 0.00 486.00 658.25" xmlns="http://www.w3.org/2000/svg" xmlns:xlink="http://www.w3.org/1999/xlink">
<g id="graph0" class="graph" transform="scale(1 1) rotate(0) translate(4 654.25)">
<polygon fill="white" stroke="none" points="-4,4 -4,-654.25 482,-654.25 482,4 -4,4"/>
<!-- N1 -->
<g id="node1" class="node">
<title>N1</title>
<ellipse fill="none" stroke="black" cx="138" cy="-544.5" rx="27" ry="18"/>
<text text-anchor="middle" x="138" y="-539.08" font-family="Times New Roman,serif" font-size="14.00">N1</text>
</g>
<!-- N2 -->
<g id="node2" class="node">
<title>N2</title>
<ellipse fill="none" stroke="black" cx="138" cy="-456.75" rx="27" ry="18"/>
<text text-anchor="middle" x="138" y="-451.32" font-family="Times New Roman,serif" font-size="14.00">N2</text>
</g>
<!-- N1&#45;&gt;N2 -->
<g id="edge2" class="edge">
<title>N1&#45;&gt;N2</title>
<path fill="none" stroke="black" d="M138,-526.15C138,-514.64 138,-499.28 138,-486.03"/>
<polygon fill="black" stroke="black" points="141.5,-486.08 138,-476.08 134.5,-486.08 141.5,-486.08"/>
<text text-anchor="middle" x="150" y="-495.2" font-family="Times New Roman,serif" font-size="14.00">0.50</text>
</g>
<!-- N3 -->
<g id="node3" class="node">
<title>N3</title>
<ellipse fill="none" stroke="black" cx="66" cy="-456.75" rx="27" ry="18"/>
<text text-anchor="middle" x="66" y="-451.32" font-family="Times New Roman,serif" font-size="14.00">N3</text>
</g>
<!-- N1&#45;&gt;N3 -->
<g id="edge4" class="edge">
<title>N1&#45;&gt;N3</title>
<path fill="none" stroke="black" d="M125.13,-528.17C114.17,-515.12 98.26,-496.17 85.7,-481.22"/>
<polygon fill="black" stroke="black" points="87.87,-479.36 78.76,-473.95 82.51,-483.86 87.87,-479.36"/>
<text text-anchor="middle" x="120" y="-495.2" font-family="Times New Roman,serif" font-size="14.00">1.00</text>
</g>
<!-- N4 -->
<g id="node4" class="node">
<title>N4</title>
<ellipse fill="none" stroke="black" cx="99" cy="-369" rx="27" ry="18"/>
<text text-anchor="middle" x="99" y="-363.57" font-family="Times New Roman,serif" font-size="14.00">N4</text>
</g>
<!-- N2&#45;&gt;N4 -->
<g id="edge5" class="edge">
<title>N2&#45;&gt;N4</title>
<path fill="none" stroke="black" d="M130.48,-439.22C124.92,-427 117.25,-410.12 110.87,-396.09"/>
<polygon fill="black" stroke="black" points="113.82,-395.14 106.5,-387.48 107.45,-398.03 113.82,-395.14"/>
<text text-anchor="middle" x="133" y="-407.45" font-family="Times New Roman,serif" font-size="14.00">0.50</text>
</g>
<!-- N3&#45;&gt;N4 -->
<g id="edge6" class="edge">
<title>N3&#45;&gt;N4</title>
<path fill="none" stroke="black" d="M72.52,-438.81C77.13,-426.83 83.41,-410.52 88.69,-396.79"/>
<polygon fill="black" stroke="black" points="92.17,-398.5 92.49,-387.91 85.64,-395.98 92.17,-398.5"/>
<text text-anchor="middle" x="97" y="-407.45" font-family="Times New Roman,serif" font-size="14.00">0.50</text>
</g>
<!-- N13 -->
<g id="node13" class="node">
<title>N13</title>
<ellipse fill="none" stroke="black" cx="99" cy="-281.25" rx="27" ry="18"/>
<text text-anchor="middle" x="99" y="-275.82" font-family="Times New Roman,serif" font-size="14.00">N13</text>
</g>
<!-- N4&#45;&gt;N13 -->
<g id="edge21" class="edge">
<title>N4&#45;&gt;N13</title>
<path fill="none" stroke="black" d="M99,-350.65C99,-339.14 99,-323.78 99,-310.53"/>
<polygon fill="black" stroke="black" points="102.5,-310.58 99,-300.58 95.5,-310.58 102.5,-310.58"/>
<text text-anchor="middle" x="111" y="-319.7" font-family="Times New Roman,serif" font-size="14.00">1.00</text>
</g>
<!-- N5 -->
<g id="node5" class="node">
<title>N5</title>
<ellipse fill="none" stroke="black" cx="340" cy="-18" rx="27" ry="18"/>
<text text-anchor="middle" x="340" y="-12.57" font-family="Times New Roman,serif" font-size="14.00">N5</text>
</g>
<!-- N6 -->
<g id="node6" class="node">
<title>N6</title>
<ellipse fill="none" stroke="black" cx="171" cy="-281.25" rx="27" ry="18"/>
<text text-anchor="middle" x="171" y="-275.82" font-family="Times New Roman,serif" font-size="14.00">N6</text>
</g>
<!-- N15 -->
<g id="node15" class="node">
<title>N15</title>
<ellipse fill="none" stroke="black" cx="173" cy="-193.5" rx="27" ry="18"/>
<text text-anchor="middle" x="173" y="-188.07" font-family="Times New Roman,serif" font-size="14.00">N15</text>
</g>
<!-- N6&#45;&gt;N15 -->
<g id="edge23" class="edge">
<title>N6&#45;&gt;N15</title>
<path fill="none" stroke="black" d="M171.4,-262.9C171.67,-251.39 172.03,-236.03 172.34,-222.78"/>
<polygon fill="black" stroke="black" points="175.86,-222.91 172.6,-212.83 168.86,-222.74 175.86,-222.91"/>
<text text-anchor="middle" x="184" y="-231.95" font-family="Times New Roman,serif" font-size="14.00">0.33</text>
</g>
<!-- N7 -->
<g id="node7" class="node">
<title>N7</title>
<ellipse fill="none" stroke="black" cx="393" cy="-105.75" rx="27" ry="18"/>
<text text-anchor="middle" x="393" y="-100.33" font-family="Times New Roman,serif" font-size="14.00">N7</text>
</g>
<!-- N7&#45;&gt;N5 -->
<g id="edge7" class="edge">
<title>N7&#45;&gt;N5</title>
<path fill="none" stroke="black" d="M383.03,-88.62C375.33,-76.16 364.53,-58.69 355.68,-44.37"/>
<polygon fill="black" stroke="black" points="358.16,-42.72 349.92,-36.06 352.2,-46.4 358.16,-42.72"/>
<text text-anchor="middle" x="383" y="-56.45" font-family="Times New Roman,serif" font-size="14.00">0.50</text>
</g>
<!-- N8 -->
<g id="node8" class="node">
<title>N8</title>
<ellipse fill="none" stroke="black" cx="127" cy="-18" rx="27" ry="18"/>
<text text-anchor="middle" x="127" y="-12.57" font-family="Times New Roman,serif" font-size="14.00">N8</text>
</g>
<!-- N9 -->
<g id="node9" class="node">
<title>N9</title>
<ellipse fill="none" stroke="black" cx="148" cy="-105.75" rx="27" ry="18"/>
<text text-anchor="middle" x="148" y="-100.33" font-family="Times New Roman,serif" font-size="14.00">N9</text>
</g>
<!-- N10 -->
<g id="node10" class="node">
<title>N10</title>
<ellipse fill="none" stroke="black" cx="243" cy="-281.25" rx="27" ry="18"/>
<text text-anchor="middle" x="243" y="-275.82" font-family="Times New Roman,serif" font-size="14.00">N10</text>
</g>
<!-- N10&#45;&gt;N10 -->
<g id="edge18" class="edge">
<title>N10&#45;&gt;N10</title>
<path fill="none" stroke="black" d="M267.53,-289.35C278.51,-290.12 288,-287.42 288,-281.25 288,-277.3 284.1,-274.77 278.42,-273.67"/>
<polygon fill="black" stroke="black" points="278.69,-270.13 268.53,-273.15 278.36,-277.12 278.69,-270.13"/>
<text text-anchor="middle" x="300" y="-275.82" font-family="Times New Roman,serif" font-size="14.00">1.00</text>
</g>
<!-- N10&#45;&gt;N15 -->
<g id="edge24" class="edge">
<title>N10&#45;&gt;N15</title>
<path fill="none" stroke="black" d="M230.49,-264.92C219.83,-251.87 204.37,-232.92 192.16,-217.97"/>
<polygon fill="black" stroke="black" points="194.44,-216.23 185.41,-210.7 189.02,-220.66 194.44,-216.23"/>
<text text-anchor="middle" x="226" y="-231.95" font-family="Times New Roman,serif" font-size="14.00">0.33</text>
</g>
<!-- N11 -->
<g id="node11" class="node">
<title>N11</title>
<ellipse fill="none" stroke="black" cx="248" cy="-369" rx="27" ry="18"/>
<text text-anchor="middle" x="248" y="-363.57" font-family="Times New Roman,serif" font-size="14.00">N11</text>
</g>
<!-- N11&#45;&gt;N6 -->
<g id="edge9" class="edge">
<title>N11&#45;&gt;N6</title>
<path fill="none" stroke="black" d="M236.26,-352.5C228.3,-342.24 217.38,-328.63 207,-317.25 202.96,-312.82 198.5,-308.25 194.12,-303.93"/>
<polygon fill="black" stroke="black" points="197.08,-301.95 187.47,-297.5 192.21,-306.98 197.08,-301.95"/>
<text text-anchor="middle" x="231" y="-319.7" font-family="Times New Roman,serif" font-size="14.00">1.00</text>
</g>
<!-- N11&#45;&gt;N11 -->
<g id="edge19" class="edge">
<title>N11&#45;&gt;N11</title>
<path fill="none" stroke="black" d="M272.53,-377.1C283.51,-377.87 293,-375.17 293,-369 293,-365.05 289.1,-362.52 283.42,-361.42"/>
<polygon fill="black" stroke="black" points="283.69,-357.88 273.53,-360.9 283.36,-364.87 283.69,-357.88"/>
<text text-anchor="middle" x="305" y="-363.57" font-family="Times New Roman,serif" font-size="14.00">1.00</text>
</g>
<!-- N12 -->
<g id="node12" class="node">
<title>N12</title>
<ellipse fill="none" stroke="black" cx="285" cy="-193.5" rx="27" ry="18"/>
<text text-anchor="middle" x="285" y="-188.07" font-family="Times New Roman,serif" font-size="14.00">N12</text>
</g>
<!-- N12&#45;&gt;N5 -->
<g id="edge8" class="edge">
<title>N12&#45;&gt;N5</title>
<path fill="none" stroke="black" d="M297.91,-177.3C302.32,-171.44 306.92,-164.46 310,-157.5 326.02,-121.32 333.75,-75.93 337.29,-47.19"/>
<polygon fill="black" stroke="black" points="340.87,-47.65 338.52,-37.32 333.91,-46.86 340.87,-47.65"/>
<text text-anchor="middle" x="342" y="-100.33" font-family="Times New Roman,serif" font-size="14.00">0.50</text>
</g>
<!-- N12&#45;&gt;N9 -->
<g id="edge15" class="edge">
<title>N12&#45;&gt;N9</title>
<path fill="none" stroke="black" d="M261.29,-184.61C244.57,-178.49 222.03,-169.11 204,-157.5 191.59,-149.51 179.27,-138.74 169.36,-129.18"/>
<polygon fill="black" stroke="black" points="172.22,-127.09 162.66,-122.52 167.28,-132.05 172.22,-127.09"/>
<text text-anchor="middle" x="216" y="-144.2" font-family="Times New Roman,serif" font-size="14.00">0.33</text>
</g>
<!-- N14 -->
<g id="node14" class="node">
<title>N14</title>
<ellipse fill="none" stroke="black" cx="229" cy="-105.75" rx="27" ry="18"/>
<text text-anchor="middle" x="229" y="-100.33" font-family="Times New Roman,serif" font-size="14.00">N14</text>
</g>
<!-- N12&#45;&gt;N14 -->
<g id="edge22" class="edge">
<title>N12&#45;&gt;N14</title>
<path fill="none" stroke="black" d="M264.3,-181.41C255.18,-175.49 245.16,-167.38 239,-157.5 234.74,-150.66 232.23,-142.38 230.78,-134.52"/>
<polygon fill="black" stroke="black" points="234.15,-134.3 229.35,-124.86 227.21,-135.23 234.15,-134.3"/>
<text text-anchor="middle" x="251" y="-144.2" font-family="Times New Roman,serif" font-size="14.00">1.00</text>
</g>
<!-- N13&#45;&gt;N1 -->
<g id="edge1" class="edge">
<title>N13&#45;&gt;N1</title>
<path fill="none" stroke="black" d="M112.62,-297.19C117.59,-303.14 122.97,-310.23 127,-317.25 155.87,-367.44 163.38,-381.83 174,-438.75 179.73,-469.42 179.68,-480.45 166,-508.5 164,-512.59 161.46,-516.64 158.72,-520.45"/>
<polygon fill="black" stroke="black" points="155.56,-517.8 152.14,-527.83 161.07,-522.13 155.56,-517.8"/>
<text text-anchor="middle" x="182" y="-407.45" font-family="Times New Roman,serif" font-size="14.00">1.00</text>
</g>
<!-- N13&#45;&gt;N8 -->
<g id="edge13" class="edge">
<title>N13&#45;&gt;N8</title>
<path fill="none" stroke="black" d="M99.32,-262.91C100.12,-229.06 102.88,-151.92 112,-87.75 113.93,-74.14 117.07,-59.21 119.97,-46.75"/>
<polygon fill="black" stroke="black" points="123.59,-47.65 122.53,-37.11 116.79,-46.01 123.59,-47.65"/>
<text text-anchor="middle" x="117" y="-144.2" font-family="Times New Roman,serif" font-size="14.00">0.50</text>
</g>
<!-- N13&#45;&gt;N15 -->
<g id="edge25" class="edge">
<title>N13&#45;&gt;N15</title>
<path fill="none" stroke="black" d="M111.89,-265.31C123.28,-252.11 140.07,-232.66 153.17,-217.48"/>
<polygon fill="black" stroke="black" points="156.13,-220.41 160.01,-210.55 150.83,-215.84 156.13,-220.41"/>
<text text-anchor="middle" x="154" y="-231.95" font-family="Times New Roman,serif" font-size="14.00">0.33</text>
</g>
<!-- N14&#45;&gt;N8 -->
<g id="edge14" class="edge">
<title>N14&#45;&gt;N8</title>
<path fill="none" stroke="black" d="M212.61,-90.97C196.11,-77.1 170.44,-55.52 151.51,-39.61"/>
<polygon fill="black" stroke="black" points="154.25,-36.5 144.35,-32.74 149.75,-41.86 154.25,-36.5"/>
<text text-anchor="middle" x="199" y="-56.45" font-family="Times New Roman,serif" font-size="14.00">0.50</text>
</g>
<!-- N15&#45;&gt;N7 -->
<g id="edge10" class="edge">
<title>N15&#45;&gt;N7</title>
<path fill="none" stroke="black" d="M196.25,-183.79C230.46,-170.93 296.35,-145.97 352,-123.75 354.72,-122.66 357.54,-121.52 360.37,-120.37"/>
<polygon fill="black" stroke="black" points="361.57,-123.25 369.49,-116.21 358.91,-116.78 361.57,-123.25"/>
<text text-anchor="middle" x="314" y="-144.2" font-family="Times New Roman,serif" font-size="14.00">0.33</text>
</g>
<!-- N15&#45;&gt;N9 -->
<g id="edge16" class="edge">
<title>N15&#45;&gt;N9</title>
<path fill="none" stroke="black" d="M157.94,-178.21C152.8,-172.34 147.68,-165.14 145,-157.5 142.45,-150.23 141.99,-142.01 142.49,-134.34"/>
<polygon fill="black" stroke="black" points="146.05,-135.01 143.77,-124.66 139.1,-134.17 146.05,-135.01"/>
<text text-anchor="middle" x="157" y="-144.2" font-family="Times New Roman,serif" font-size="14.00">0.33</text>
</g>
<!-- N16 -->
<g id="node16" class="node">
<title>N16</title>
<ellipse fill="none" stroke="black" cx="226" cy="-544.5" rx="27" ry="18"/>
<text text-anchor="middle" x="226" y="-539.08" font-family="Times New Roman,serif" font-size="14.00">N16</text>
</g>
<!-- N16&#45;&gt;N2 -->
<g id="edge3" class="edge">
<title>N16&#45;&gt;N2</title>
<path fill="none" stroke="black" d="M211.47,-529.34C197.67,-515.89 176.71,-495.47 160.7,-479.87"/>
<polygon fill="black" stroke="black" points="163.45,-477.69 153.85,-473.22 158.57,-482.7 163.45,-477.69"/>
<text text-anchor="middle" x="201" y="-495.2" font-family="Times New Roman,serif" font-size="14.00">0.50</text>
</g>
<!-- N16&#45;&gt;N7 -->
<g id="edge11" class="edge">
<title>N16&#45;&gt;N7</title>
<path fill="none" stroke="black" d="M252.15,-539.36C312.04,-529.16 454,-500.46 454,-457.75 454,-457.75 454,-457.75 454,-192.5 454,-166.44 435.06,-142.79 418.28,-126.97"/>
<polygon fill="black" stroke="black" points="421.11,-124.9 411.32,-120.85 416.44,-130.12 421.11,-124.9"/>
<text text-anchor="middle" x="466" y="-319.7" font-family="Times New Roman,serif" font-size="14.00">0.33</text>
</g>
<!-- E1 -->
<g id="node17" class="node">
<title>E1</title>
<ellipse fill="none" stroke="black" cx="27" cy="-632.25" rx="27" ry="18"/>
<text text-anchor="middle" x="27" y="-626.83" font-family="Times New Roman,serif" font-size="14.00">E1</text>
</g>
<!-- E1&#45;&gt;N9 -->
<g id="edge17" class="edge">
<title>E1&#45;&gt;N9</title>
<path fill="none" stroke="black" d="M21.94,-614.34C17.25,-597.17 11,-569.73 11,-545.5 11,-545.5 11,-545.5 11,-192.5 11,-145.08 70.71,-122.9 111.29,-113.3"/>
<polygon fill="black" stroke="black" points="111.89,-116.53 120.91,-110.97 110.39,-109.69 111.89,-116.53"/>
<text text-anchor="middle" x="23" y="-363.57" font-family="Times New Roman,serif" font-size="14.00">0.33</text>
</g>
<!-- E1&#45;&gt;N16 -->
<g id="edge26" class="edge">
<title>E1&#45;&gt;N16</title>
<path fill="none" stroke="black" d="M49.44,-621.58C84.69,-606.39 153.2,-576.87 193.73,-559.4"/>
<polygon fill="black" stroke="black" points="194.84,-562.31 202.64,-555.13 192.07,-555.88 194.84,-562.31"/>
<text text-anchor="middle" x="156" y="-582.95" font-family="Times New Roman,serif" font-size="14.00">1.00</text>
</g>
<!-- E1&#45;&gt;E1 -->
<g id="edge27" class="edge">
<title>E1&#45;&gt;E1</title>
<path fill="none" stroke="black" d="M51.53,-640.35C62.51,-641.12 72,-638.42 72,-632.25 72,-628.3 68.1,-625.77 62.42,-624.67"/>
<polygon fill="black" stroke="black" points="62.69,-621.13 52.53,-624.15 62.36,-628.12 62.69,-621.13"/>
<text text-anchor="middle" x="84" y="-626.83" font-family="Times New Roman,serif" font-size="14.00">1.00</text>
</g>
<!-- E2 -->
<g id="node18" class="node">
<title>E2</title>
<ellipse fill="none" stroke="black" cx="357" cy="-281.25" rx="27" ry="18"/>
<text text-anchor="middle" x="357" y="-275.82" font-family="Times New Roman,serif" font-size="14.00">E2</text>
</g>
<!-- E2&#45;&gt;N7 -->
<g id="edge12" class="edge">
<title>E2&#45;&gt;N7</title>
<path fill="none" stroke="black" d="M360.58,-262.98C366.84,-232.84 379.79,-170.41 387.29,-134.26"/>
<polygon fill="black" stroke="black" points="390.83,-135.45 389.43,-124.95 383.97,-134.03 390.83,-135.45"/>
<text text-anchor="middle" x="390" y="-188.07" font-family="Times New Roman,serif" font-size="14.00">0.33</text>
</g>
<!-- E2&#45;&gt;N12 -->
<g id="edge20" class="edge">
<title>E2&#45;&gt;N12</title>
<path fill="none" stroke="black" d="M344.13,-264.92C333.17,-251.87 317.26,-232.92 304.7,-217.97"/>
<polygon fill="black" stroke="black" points="306.87,-216.11 297.76,-210.7 301.51,-220.61 306.87,-216.11"/>
<text text-anchor="middle" x="339" y="-231.95" font-family="Times New Roman,serif" font-size="14.00">1.00</text>
</g>
<!-- E2&#45;&gt;E2 -->
<g id="edge28" class="edge">
<title>E2&#45;&gt;E2</title>
<path fill="none" stroke="black" d="M381.53,-289.35C392.51,-290.12 402,-287.42 402,-281.25 402,-277.3 398.1,-274.77 392.42,-273.67"/>
<polygon fill="black" stroke="black" points="392.69,-270.13 382.53,-273.15 392.36,-277.12 392.69,-270.13"/>
<text text-anchor="middle" x="414" y="-275.82" font-family="Times New Roman,serif" font-size="14.00">1.00</text>
</g>
</g>
</svg>
