<?xml version="1.0" encoding="UTF-8" standalone="no"?>
<!DOCTYPE svg PUBLIC "-//W3C//DTD SVG 1.1//EN"
 "http://www.w3.org/Graphics/SVG/1.1/DTD/svg11.dtd">
<!-- Generated by graphviz version 8.0.5 (20230430.1635)
 -->
<!-- Pages: 1 -->
<svg width="232pt" height="395pt"
 viewBox="0.00 0.00 232.00 395.00" xmlns="http://www.w3.org/2000/svg" xmlns:xlink="http://www.w3.org/1999/xlink">
<g id="graph0" class="graph" transform="scale(1 1) rotate(0) translate(4 391)">
<polygon fill="white" stroke="none" points="-4,4 -4,-391 228,-391 228,4 -4,4"/>
<!-- N0 -->
<g id="node1" class="node">
<title>N0</title>
<ellipse fill="none" stroke="black" cx="90" cy="-369" rx="27" ry="18"/>
<text text-anchor="middle" x="90" y="-363.57" font-family="Times New Roman,serif" font-size="14.00">N0</text>
</g>
<!-- N1 -->
<g id="node2" class="node">
<title>N1</title>
<ellipse fill="none" stroke="black" cx="27" cy="-281.25" rx="27" ry="18"/>
<text text-anchor="middle" x="27" y="-275.82" font-family="Times New Roman,serif" font-size="14.00">N1</text>
</g>
<!-- N0&#45;&gt;N1 -->
<g id="edge2" class="edge">
<title>N0&#45;&gt;N1</title>
<path fill="none" stroke="black" d="M73.17,-354.87C66.04,-348.75 58.02,-341.04 52,-333 46.54,-325.7 41.75,-317.02 37.87,-308.93"/>
<polygon fill="black" stroke="black" points="40.75,-307.8 33.45,-300.13 34.37,-310.68 40.75,-307.8"/>
<text text-anchor="middle" x="64" y="-319.7" font-family="Times New Roman,serif" font-size="14.00">0.50</text>
</g>
<!-- N4 -->
<g id="node5" class="node">
<title>N4</title>
<ellipse fill="none" stroke="black" cx="125" cy="-105.75" rx="27" ry="18"/>
<text text-anchor="middle" x="125" y="-100.33" font-family="Times New Roman,serif" font-size="14.00">N4</text>
</g>
<!-- N0&#45;&gt;N4 -->
<g id="edge8" class="edge">
<title>N0&#45;&gt;N4</title>
<path fill="none" stroke="black" d="M96.89,-351.37C102.25,-337.64 109.37,-317.52 113,-299.25 124.45,-241.66 125.84,-172.64 125.59,-134.88"/>
<polygon fill="black" stroke="black" points="129.08,-135.16 125.46,-125.21 122.08,-135.25 129.08,-135.16"/>
<text text-anchor="middle" x="134" y="-231.95" font-family="Times New Roman,serif" font-size="14.00">0.50</text>
</g>
<!-- N3 -->
<g id="node4" class="node">
<title>N3</title>
<ellipse fill="none" stroke="black" cx="56" cy="-193.5" rx="27" ry="18"/>
<text text-anchor="middle" x="56" y="-188.07" font-family="Times New Roman,serif" font-size="14.00">N3</text>
</g>
<!-- N1&#45;&gt;N3 -->
<g id="edge6" class="edge">
<title>N1&#45;&gt;N3</title>
<path fill="none" stroke="black" d="M16.11,-264.69C10.34,-254.4 5.48,-240.79 11,-229.5 14.47,-222.41 20.14,-216.34 26.31,-211.34"/>
<polygon fill="black" stroke="black" points="27.79,-213.87 33.87,-205.2 23.71,-208.19 27.79,-213.87"/>
<text text-anchor="middle" x="23" y="-231.95" font-family="Times New Roman,serif" font-size="14.00">0.50</text>
</g>
<!-- N2 -->
<g id="node3" class="node">
<title>N2</title>
<ellipse fill="none" stroke="black" cx="125" cy="-18" rx="27" ry="18"/>
<text text-anchor="middle" x="125" y="-12.57" font-family="Times New Roman,serif" font-size="14.00">N2</text>
</g>
<!-- N2&#45;&gt;N3 -->
<g id="edge7" class="edge">
<title>N2&#45;&gt;N3</title>
<path fill="none" stroke="black" d="M108.28,-32.6C94.06,-45.24 74.48,-65.44 65,-87.75 54.6,-112.24 53.12,-142.81 53.78,-164.6"/>
<polygon fill="black" stroke="black" points="50.33,-164.58 54.31,-174.4 57.32,-164.24 50.33,-164.58"/>
<text text-anchor="middle" x="77" y="-100.33" font-family="Times New Roman,serif" font-size="14.00">0.50</text>
</g>
<!-- N3&#45;&gt;N0 -->
<g id="edge1" class="edge">
<title>N3&#45;&gt;N0</title>
<path fill="none" stroke="black" d="M65.29,-210.78C68.19,-216.53 71.13,-223.15 73,-229.5 83.97,-266.66 87.87,-311.46 89.25,-339.84"/>
<polygon fill="black" stroke="black" points="85.78,-339.72 89.69,-349.57 92.78,-339.44 85.78,-339.72"/>
<text text-anchor="middle" x="97" y="-275.82" font-family="Times New Roman,serif" font-size="14.00">1.00</text>
</g>
<!-- N3&#45;&gt;N1 -->
<g id="edge3" class="edge">
<title>N3&#45;&gt;N1</title>
<path fill="none" stroke="black" d="M50.28,-211.41C46.27,-223.26 40.83,-239.36 36.21,-253.01"/>
<polygon fill="black" stroke="black" points="32.62,-251.71 32.73,-262.31 39.25,-253.96 32.62,-251.71"/>
<text text-anchor="middle" x="57" y="-231.95" font-family="Times New Roman,serif" font-size="14.00">0.50</text>
</g>
<!-- N3&#45;&gt;N4 -->
<g id="edge9" class="edge">
<title>N3&#45;&gt;N4</title>
<path fill="none" stroke="black" d="M68.34,-177.17C78.77,-164.2 93.89,-145.41 105.89,-130.49"/>
<polygon fill="black" stroke="black" points="109,-133.22 112.54,-123.24 103.54,-128.83 109,-133.22"/>
<text text-anchor="middle" x="108" y="-144.2" font-family="Times New Roman,serif" font-size="14.00">0.50</text>
</g>
<!-- N4&#45;&gt;N2 -->
<g id="edge4" class="edge">
<title>N4&#45;&gt;N2</title>
<path fill="none" stroke="black" d="M125,-87.4C125,-75.89 125,-60.53 125,-47.28"/>
<polygon fill="black" stroke="black" points="128.5,-47.33 125,-37.33 121.5,-47.33 128.5,-47.33"/>
<text text-anchor="middle" x="137" y="-56.45" font-family="Times New Roman,serif" font-size="14.00">0.50</text>
</g>
<!-- E0 -->
<g id="node6" class="node">
<title>E0</title>
<ellipse fill="none" stroke="black" cx="197" cy="-105.75" rx="27" ry="18"/>
<text text-anchor="middle" x="197" y="-100.33" font-family="Times New Roman,serif" font-size="14.00">E0</text>
</g>
<!-- E0&#45;&gt;N2 -->
<g id="edge5" class="edge">
<title>E0&#45;&gt;N2</title>
<path fill="none" stroke="black" d="M184.13,-89.42C173.17,-76.37 157.26,-57.42 144.7,-42.47"/>
<polygon fill="black" stroke="black" points="146.87,-40.61 137.76,-35.2 141.51,-45.11 146.87,-40.61"/>
<text text-anchor="middle" x="179" y="-56.45" font-family="Times New Roman,serif" font-size="14.00">0.50</text>
</g>
</g>
</svg>
