<?xml version="1.0" encoding="UTF-8" standalone="no"?>
<!DOCTYPE svg PUBLIC "-//W3C//DTD SVG 1.1//EN"
 "http://www.w3.org/Graphics/SVG/1.1/DTD/svg11.dtd">
<!-- Generated by graphviz version 8.0.5 (20230430.1635)
 -->
<!-- Pages: 1 -->
<svg width="354pt" height="307pt"
 viewBox="0.00 0.00 354.00 307.25" xmlns="http://www.w3.org/2000/svg" xmlns:xlink="http://www.w3.org/1999/xlink">
<g id="graph0" class="graph" transform="scale(1 1) rotate(0) translate(4 303.25)">
<polygon fill="white" stroke="none" points="-4,4 -4,-303.25 350,-303.25 350,4 -4,4"/>
<!-- N0 -->
<g id="node1" class="node">
<title>N0</title>
<ellipse fill="none" stroke="black" cx="103" cy="-18" rx="27" ry="18"/>
<text text-anchor="middle" x="103" y="-12.57" font-family="Times New Roman,serif" font-size="14.00">N0</text>
</g>
<!-- N1 -->
<g id="node2" class="node">
<title>N1</title>
<ellipse fill="none" stroke="black" cx="103" cy="-105.75" rx="27" ry="18"/>
<text text-anchor="middle" x="103" y="-100.33" font-family="Times New Roman,serif" font-size="14.00">N1</text>
</g>
<!-- N1&#45;&gt;N0 -->
<g id="edge1" class="edge">
<title>N1&#45;&gt;N0</title>
<path fill="none" stroke="black" d="M103,-87.4C103,-75.89 103,-60.53 103,-47.28"/>
<polygon fill="black" stroke="black" points="106.5,-47.33 103,-37.33 99.5,-47.33 106.5,-47.33"/>
<text text-anchor="middle" x="115" y="-56.45" font-family="Times New Roman,serif" font-size="14.00">1.00</text>
</g>
<!-- N2 -->
<g id="node3" class="node">
<title>N2</title>
<ellipse fill="none" stroke="black" cx="31" cy="-18" rx="27" ry="18"/>
<text text-anchor="middle" x="31" y="-12.57" font-family="Times New Roman,serif" font-size="14.00">N2</text>
</g>
<!-- N1&#45;&gt;N2 -->
<g id="edge3" class="edge">
<title>N1&#45;&gt;N2</title>
<path fill="none" stroke="black" d="M90.13,-89.42C79.17,-76.37 63.26,-57.42 50.7,-42.47"/>
<polygon fill="black" stroke="black" points="52.87,-40.61 43.76,-35.2 47.51,-45.11 52.87,-40.61"/>
<text text-anchor="middle" x="86" y="-56.45" font-family="Times New Roman,serif" font-size="14.00">1.00</text>
</g>
<!-- N3 -->
<g id="node4" class="node">
<title>N3</title>
<ellipse fill="none" stroke="black" cx="259" cy="-193.5" rx="27" ry="18"/>
<text text-anchor="middle" x="259" y="-188.07" font-family="Times New Roman,serif" font-size="14.00">N3</text>
</g>
<!-- N4 -->
<g id="node5" class="node">
<title>N4</title>
<ellipse fill="none" stroke="black" cx="247" cy="-18" rx="27" ry="18"/>
<text text-anchor="middle" x="247" y="-12.57" font-family="Times New Roman,serif" font-size="14.00">N4</text>
</g>
<!-- N5 -->
<g id="node6" class="node">
<title>N5</title>
<ellipse fill="none" stroke="black" cx="187" cy="-193.5" rx="27" ry="18"/>
<text text-anchor="middle" x="187" y="-188.07" font-family="Times New Roman,serif" font-size="14.00">N5</text>
</g>
<!-- N7 -->
<g id="node8" class="node">
<title>N7</title>
<ellipse fill="none" stroke="black" cx="211" cy="-105.75" rx="27" ry="18"/>
<text text-anchor="middle" x="211" y="-100.33" font-family="Times New Roman,serif" font-size="14.00">N7</text>
</g>
<!-- N5&#45;&gt;N7 -->
<g id="edge9" class="edge">
<title>N5&#45;&gt;N7</title>
<path fill="none" stroke="black" d="M191.74,-175.56C195.04,-163.77 199.51,-147.8 203.31,-134.21"/>
<polygon fill="black" stroke="black" points="206.86,-135.52 206.19,-124.95 200.12,-133.64 206.86,-135.52"/>
<text text-anchor="middle" x="213" y="-144.2" font-family="Times New Roman,serif" font-size="14.00">1.00</text>
</g>
<!-- N6 -->
<g id="node7" class="node">
<title>N6</title>
<ellipse fill="none" stroke="black" cx="99" cy="-193.5" rx="27" ry="18"/>
<text text-anchor="middle" x="99" y="-188.07" font-family="Times New Roman,serif" font-size="14.00">N6</text>
</g>
<!-- N6&#45;&gt;N1 -->
<g id="edge2" class="edge">
<title>N6&#45;&gt;N1</title>
<path fill="none" stroke="black" d="M99.81,-175.15C100.35,-163.64 101.06,-148.28 101.68,-135.03"/>
<polygon fill="black" stroke="black" points="105.22,-135.23 102.19,-125.08 98.23,-134.9 105.22,-135.23"/>
<text text-anchor="middle" x="113" y="-144.2" font-family="Times New Roman,serif" font-size="14.00">1.00</text>
</g>
<!-- N8 -->
<g id="node9" class="node">
<title>N8</title>
<ellipse fill="none" stroke="black" cx="27" cy="-105.75" rx="27" ry="18"/>
<text text-anchor="middle" x="27" y="-100.33" font-family="Times New Roman,serif" font-size="14.00">N8</text>
</g>
<!-- N6&#45;&gt;N8 -->
<g id="edge10" class="edge">
<title>N6&#45;&gt;N8</title>
<path fill="none" stroke="black" d="M86.13,-177.17C75.17,-164.12 59.26,-145.17 46.7,-130.22"/>
<polygon fill="black" stroke="black" points="48.87,-128.36 39.76,-122.95 43.51,-132.86 48.87,-128.36"/>
<text text-anchor="middle" x="82" y="-144.2" font-family="Times New Roman,serif" font-size="14.00">1.00</text>
</g>
<!-- N7&#45;&gt;N4 -->
<g id="edge5" class="edge">
<title>N7&#45;&gt;N4</title>
<path fill="none" stroke="black" d="M217.94,-88.22C222.99,-76.19 229.93,-59.66 235.76,-45.77"/>
<polygon fill="black" stroke="black" points="239.31,-47.35 239.96,-36.78 232.86,-44.64 239.31,-47.35"/>
<text text-anchor="middle" x="244" y="-56.45" font-family="Times New Roman,serif" font-size="14.00">1.00</text>
</g>
<!-- N10 -->
<g id="node11" class="node">
<title>N10</title>
<ellipse fill="none" stroke="black" cx="319" cy="-18" rx="27" ry="18"/>
<text text-anchor="middle" x="319" y="-12.57" font-family="Times New Roman,serif" font-size="14.00">N10</text>
</g>
<!-- N7&#45;&gt;N10 -->
<g id="edge12" class="edge">
<title>N7&#45;&gt;N10</title>
<path fill="none" stroke="black" d="M229.44,-92.17C238.75,-85.67 250.13,-77.49 260,-69.75 271.91,-60.4 284.7,-49.52 295.31,-40.23"/>
<polygon fill="black" stroke="black" points="297.12,-43.42 302.3,-34.18 292.49,-38.17 297.12,-43.42"/>
<text text-anchor="middle" x="290" y="-56.45" font-family="Times New Roman,serif" font-size="14.00">1.00</text>
</g>
<!-- N11 -->
<g id="node12" class="node">
<title>N11</title>
<ellipse fill="none" stroke="black" cx="175" cy="-18" rx="27" ry="18"/>
<text text-anchor="middle" x="175" y="-12.57" font-family="Times New Roman,serif" font-size="14.00">N11</text>
</g>
<!-- N7&#45;&gt;N11 -->
<g id="edge13" class="edge">
<title>N7&#45;&gt;N11</title>
<path fill="none" stroke="black" d="M204.06,-88.22C199.01,-76.19 192.07,-59.66 186.24,-45.77"/>
<polygon fill="black" stroke="black" points="189.14,-44.64 182.04,-36.78 182.69,-47.35 189.14,-44.64"/>
<text text-anchor="middle" x="208" y="-56.45" font-family="Times New Roman,serif" font-size="14.00">1.00</text>
</g>
<!-- N9 -->
<g id="node10" class="node">
<title>N9</title>
<ellipse fill="none" stroke="black" cx="187" cy="-281.25" rx="27" ry="18"/>
<text text-anchor="middle" x="187" y="-275.82" font-family="Times New Roman,serif" font-size="14.00">N9</text>
</g>
<!-- N9&#45;&gt;N3 -->
<g id="edge4" class="edge">
<title>N9&#45;&gt;N3</title>
<path fill="none" stroke="black" d="M199.87,-264.92C210.83,-251.87 226.74,-232.92 239.3,-217.97"/>
<polygon fill="black" stroke="black" points="242.49,-220.61 246.24,-210.7 237.13,-216.11 242.49,-220.61"/>
<text text-anchor="middle" x="241" y="-231.95" font-family="Times New Roman,serif" font-size="14.00">1.00</text>
</g>
<!-- N9&#45;&gt;N5 -->
<g id="edge6" class="edge">
<title>N9&#45;&gt;N5</title>
<path fill="none" stroke="black" d="M187,-262.9C187,-251.39 187,-236.03 187,-222.78"/>
<polygon fill="black" stroke="black" points="190.5,-222.83 187,-212.83 183.5,-222.83 190.5,-222.83"/>
<text text-anchor="middle" x="199" y="-231.95" font-family="Times New Roman,serif" font-size="14.00">1.00</text>
</g>
<!-- N9&#45;&gt;N6 -->
<g id="edge7" class="edge">
<title>N9&#45;&gt;N6</title>
<path fill="none" stroke="black" d="M172.47,-266.09C158.67,-252.64 137.71,-232.22 121.7,-216.62"/>
<polygon fill="black" stroke="black" points="124.45,-214.44 114.85,-209.97 119.57,-219.45 124.45,-214.44"/>
<text text-anchor="middle" x="162" y="-231.95" font-family="Times New Roman,serif" font-size="14.00">1.00</text>
</g>
<!-- E0 -->
<g id="node13" class="node">
<title>E0</title>
<ellipse fill="none" stroke="black" cx="60" cy="-281.25" rx="27" ry="18"/>
<text text-anchor="middle" x="60" y="-275.82" font-family="Times New Roman,serif" font-size="14.00">E0</text>
</g>
<!-- E0&#45;&gt;N6 -->
<g id="edge8" class="edge">
<title>E0&#45;&gt;N6</title>
<path fill="none" stroke="black" d="M67.52,-263.72C73.08,-251.5 80.75,-234.62 87.13,-220.59"/>
<polygon fill="black" stroke="black" points="90.55,-222.53 91.5,-211.98 84.18,-219.64 90.55,-222.53"/>
<text text-anchor="middle" x="94" y="-231.95" font-family="Times New Roman,serif" font-size="14.00">1.00</text>
</g>
<!-- E0&#45;&gt;N8 -->
<g id="edge11" class="edge">
<title>E0&#45;&gt;N8</title>
<path fill="none" stroke="black" d="M53.85,-263.24C49.11,-249.46 42.74,-229.46 39,-211.5 33.65,-185.8 30.53,-156.01 28.82,-134.79"/>
<polygon fill="black" stroke="black" points="32.24,-134.67 28.01,-124.96 25.26,-135.19 32.24,-134.67"/>
<text text-anchor="middle" x="51" y="-188.07" font-family="Times New Roman,serif" font-size="14.00">1.00</text>
</g>
</g>
</svg>
