<?xml version="1.0" encoding="UTF-8" standalone="no"?>
<!DOCTYPE svg PUBLIC "-//W3C//DTD SVG 1.1//EN"
 "http://www.w3.org/Graphics/SVG/1.1/DTD/svg11.dtd">
<!-- Generated by graphviz version 8.0.5 (20230430.1635)
 -->
<!-- Pages: 1 -->
<svg width="172pt" height="307pt"
 viewBox="0.00 0.00 172.00 307.25" xmlns="http://www.w3.org/2000/svg" xmlns:xlink="http://www.w3.org/1999/xlink">
<g id="graph0" class="graph" transform="scale(1 1) rotate(0) translate(4 303.25)">
<polygon fill="white" stroke="none" points="-4,4 -4,-303.25 168,-303.25 168,4 -4,4"/>
<!-- N0 -->
<g id="node1" class="node">
<title>N0</title>
<ellipse fill="none" stroke="black" cx="46" cy="-281.25" rx="27" ry="18"/>
<text text-anchor="middle" x="46" y="-275.82" font-family="Times New Roman,serif" font-size="14.00">N0</text>
</g>
<!-- N1 -->
<g id="node2" class="node">
<title>N1</title>
<ellipse fill="none" stroke="black" cx="27" cy="-193.5" rx="27" ry="18"/>
<text text-anchor="middle" x="27" y="-188.07" font-family="Times New Roman,serif" font-size="14.00">N1</text>
</g>
<!-- N0&#45;&gt;N1 -->
<g id="edge2" class="edge">
<title>N0&#45;&gt;N1</title>
<path fill="none" stroke="black" d="M42.25,-263.31C39.66,-251.64 36.17,-235.87 33.17,-222.37"/>
<polygon fill="black" stroke="black" points="36.39,-221.71 30.81,-212.7 29.56,-223.22 36.39,-221.71"/>
<text text-anchor="middle" x="51" y="-231.95" font-family="Times New Roman,serif" font-size="14.00">1.00</text>
</g>
<!-- N4 -->
<g id="node5" class="node">
<title>N4</title>
<ellipse fill="none" stroke="black" cx="27" cy="-105.75" rx="27" ry="18"/>
<text text-anchor="middle" x="27" y="-100.33" font-family="Times New Roman,serif" font-size="14.00">N4</text>
</g>
<!-- N1&#45;&gt;N4 -->
<g id="edge5" class="edge">
<title>N1&#45;&gt;N4</title>
<path fill="none" stroke="black" d="M27,-175.15C27,-163.64 27,-148.28 27,-135.03"/>
<polygon fill="black" stroke="black" points="30.5,-135.08 27,-125.08 23.5,-135.08 30.5,-135.08"/>
<text text-anchor="middle" x="39" y="-144.2" font-family="Times New Roman,serif" font-size="14.00">1.00</text>
</g>
<!-- N2 -->
<g id="node3" class="node">
<title>N2</title>
<ellipse fill="none" stroke="black" cx="54" cy="-18" rx="27" ry="18"/>
<text text-anchor="middle" x="54" y="-12.57" font-family="Times New Roman,serif" font-size="14.00">N2</text>
</g>
<!-- N2&#45;&gt;N0 -->
<g id="edge1" class="edge">
<title>N2&#45;&gt;N0</title>
<path fill="none" stroke="black" d="M62.03,-35.34C64.45,-41.1 66.79,-47.7 68,-54 69.32,-60.87 68.02,-62.75 68,-69.75 67.78,-147.75 88.04,-170.14 67,-245.25 66.04,-248.66 64.66,-252.08 63.05,-255.36"/>
<polygon fill="black" stroke="black" points="59.65,-253.28 57.76,-263.7 65.74,-256.73 59.65,-253.28"/>
<text text-anchor="middle" x="87" y="-144.2" font-family="Times New Roman,serif" font-size="14.00">1.00</text>
</g>
<!-- N3 -->
<g id="node4" class="node">
<title>N3</title>
<ellipse fill="none" stroke="black" cx="137" cy="-193.5" rx="27" ry="18"/>
<text text-anchor="middle" x="137" y="-188.07" font-family="Times New Roman,serif" font-size="14.00">N3</text>
</g>
<!-- N4&#45;&gt;N2 -->
<g id="edge3" class="edge">
<title>N4&#45;&gt;N2</title>
<path fill="none" stroke="black" d="M32.33,-87.81C36.07,-75.95 41.14,-59.84 45.44,-46.2"/>
<polygon fill="black" stroke="black" points="49.01,-47.5 48.68,-36.91 42.33,-45.39 49.01,-47.5"/>
<text text-anchor="middle" x="55" y="-56.45" font-family="Times New Roman,serif" font-size="14.00">1.00</text>
</g>
<!-- E0 -->
<g id="node6" class="node">
<title>E0</title>
<ellipse fill="none" stroke="black" cx="137" cy="-281.25" rx="27" ry="18"/>
<text text-anchor="middle" x="137" y="-275.82" font-family="Times New Roman,serif" font-size="14.00">E0</text>
</g>
<!-- E0&#45;&gt;N3 -->
<g id="edge4" class="edge">
<title>E0&#45;&gt;N3</title>
<path fill="none" stroke="black" d="M137,-262.9C137,-251.39 137,-236.03 137,-222.78"/>
<polygon fill="black" stroke="black" points="140.5,-222.83 137,-212.83 133.5,-222.83 140.5,-222.83"/>
<text text-anchor="middle" x="149" y="-231.95" font-family="Times New Roman,serif" font-size="14.00">1.00</text>
</g>
</g>
</svg>
