<?xml version="1.0" encoding="UTF-8" standalone="no"?>
<!DOCTYPE svg PUBLIC "-//W3C//DTD SVG 1.1//EN"
 "http://www.w3.org/Graphics/SVG/1.1/DTD/svg11.dtd">
<!-- Generated by graphviz version 8.0.5 (20230430.1635)
 -->
<!-- Pages: 1 -->
<svg width="173pt" height="307pt"
 viewBox="0.00 0.00 173.00 307.25" xmlns="http://www.w3.org/2000/svg" xmlns:xlink="http://www.w3.org/1999/xlink">
<g id="graph0" class="graph" transform="scale(1 1) rotate(0) translate(4 303.25)">
<polygon fill="white" stroke="none" points="-4,4 -4,-303.25 169,-303.25 169,4 -4,4"/>
<!-- N0 -->
<g id="node1" class="node">
<title>N0</title>
<ellipse fill="none" stroke="black" cx="27" cy="-281.25" rx="27" ry="18"/>
<text text-anchor="middle" x="27" y="-275.82" font-family="Times New Roman,serif" font-size="14.00">N0</text>
</g>
<!-- N1 -->
<g id="node2" class="node">
<title>N1</title>
<ellipse fill="none" stroke="black" cx="66" cy="-193.5" rx="27" ry="18"/>
<text text-anchor="middle" x="66" y="-188.07" font-family="Times New Roman,serif" font-size="14.00">N1</text>
</g>
<!-- N0&#45;&gt;N1 -->
<g id="edge2" class="edge">
<title>N0&#45;&gt;N1</title>
<path fill="none" stroke="black" d="M34.52,-263.72C40.08,-251.5 47.75,-234.62 54.13,-220.59"/>
<polygon fill="black" stroke="black" points="57.55,-222.53 58.5,-211.98 51.18,-219.64 57.55,-222.53"/>
<text text-anchor="middle" x="61" y="-231.95" font-family="Times New Roman,serif" font-size="14.00">1.00</text>
</g>
<!-- N4 -->
<g id="node5" class="node">
<title>N4</title>
<ellipse fill="none" stroke="black" cx="66" cy="-105.75" rx="27" ry="18"/>
<text text-anchor="middle" x="66" y="-100.33" font-family="Times New Roman,serif" font-size="14.00">N4</text>
</g>
<!-- N1&#45;&gt;N4 -->
<g id="edge6" class="edge">
<title>N1&#45;&gt;N4</title>
<path fill="none" stroke="black" d="M66,-175.15C66,-163.64 66,-148.28 66,-135.03"/>
<polygon fill="black" stroke="black" points="69.5,-135.08 66,-125.08 62.5,-135.08 69.5,-135.08"/>
<text text-anchor="middle" x="78" y="-144.2" font-family="Times New Roman,serif" font-size="14.00">1.00</text>
</g>
<!-- N2 -->
<g id="node3" class="node">
<title>N2</title>
<ellipse fill="none" stroke="black" cx="29" cy="-18" rx="27" ry="18"/>
<text text-anchor="middle" x="29" y="-12.57" font-family="Times New Roman,serif" font-size="14.00">N2</text>
</g>
<!-- N2&#45;&gt;N0 -->
<g id="edge1" class="edge">
<title>N2&#45;&gt;N0</title>
<path fill="none" stroke="black" d="M28.87,-36.2C28.53,-80.38 27.63,-198.1 27.21,-252.27"/>
<polygon fill="black" stroke="black" points="23.71,-252.08 27.13,-262.11 30.71,-252.14 23.71,-252.08"/>
<text text-anchor="middle" x="40" y="-144.2" font-family="Times New Roman,serif" font-size="14.00">1.00</text>
</g>
<!-- N3 -->
<g id="node4" class="node">
<title>N3</title>
<ellipse fill="none" stroke="black" cx="105" cy="-18" rx="27" ry="18"/>
<text text-anchor="middle" x="105" y="-12.57" font-family="Times New Roman,serif" font-size="14.00">N3</text>
</g>
<!-- N4&#45;&gt;N2 -->
<g id="edge3" class="edge">
<title>N4&#45;&gt;N2</title>
<path fill="none" stroke="black" d="M55.35,-88.8C51.75,-82.97 47.91,-76.21 45,-69.75 41.65,-62.31 38.71,-53.96 36.29,-46.21"/>
<polygon fill="black" stroke="black" points="39.41,-45.43 33.23,-36.82 32.7,-47.4 39.41,-45.43"/>
<text text-anchor="middle" x="57" y="-56.45" font-family="Times New Roman,serif" font-size="14.00">1.00</text>
</g>
<!-- N4&#45;&gt;N3 -->
<g id="edge4" class="edge">
<title>N4&#45;&gt;N3</title>
<path fill="none" stroke="black" d="M73.52,-88.22C79.08,-76 86.75,-59.12 93.13,-45.09"/>
<polygon fill="black" stroke="black" points="96.55,-47.03 97.5,-36.48 90.18,-44.14 96.55,-47.03"/>
<text text-anchor="middle" x="100" y="-56.45" font-family="Times New Roman,serif" font-size="14.00">1.00</text>
</g>
<!-- E0 -->
<g id="node6" class="node">
<title>E0</title>
<ellipse fill="none" stroke="black" cx="138" cy="-105.75" rx="27" ry="18"/>
<text text-anchor="middle" x="138" y="-100.33" font-family="Times New Roman,serif" font-size="14.00">E0</text>
</g>
<!-- E0&#45;&gt;N3 -->
<g id="edge5" class="edge">
<title>E0&#45;&gt;N3</title>
<path fill="none" stroke="black" d="M131.48,-87.81C126.87,-75.83 120.59,-59.52 115.31,-45.79"/>
<polygon fill="black" stroke="black" points="118.36,-44.98 111.51,-36.91 111.83,-47.5 118.36,-44.98"/>
<text text-anchor="middle" x="136" y="-56.45" font-family="Times New Roman,serif" font-size="14.00">1.00</text>
</g>
</g>
</svg>
