<?xml version="1.0" encoding="UTF-8" standalone="no"?>
<!DOCTYPE svg PUBLIC "-//W3C//DTD SVG 1.1//EN"
 "http://www.w3.org/Graphics/SVG/1.1/DTD/svg11.dtd">
<!-- Generated by graphviz version 8.0.5 (20230430.1635)
 -->
<!-- Pages: 1 -->
<svg width="533pt" height="834pt"
 viewBox="0.00 0.00 533.00 833.75" xmlns="http://www.w3.org/2000/svg" xmlns:xlink="http://www.w3.org/1999/xlink">
<g id="graph0" class="graph" transform="scale(1 1) rotate(0) translate(4 829.75)">
<polygon fill="white" stroke="none" points="-4,4 -4,-829.75 529,-829.75 529,4 -4,4"/>
<!-- N0 -->
<g id="node1" class="node">
<title>N0</title>
<ellipse fill="none" stroke="black" cx="87" cy="-281.25" rx="27" ry="18"/>
<text text-anchor="middle" x="87" y="-275.82" font-family="Times New Roman,serif" font-size="14.00">N0</text>
</g>
<!-- N23 -->
<g id="node24" class="node">
<title>N23</title>
<ellipse fill="none" stroke="black" cx="228" cy="-193.5" rx="27" ry="18"/>
<text text-anchor="middle" x="228" y="-188.07" font-family="Times New Roman,serif" font-size="14.00">N23</text>
</g>
<!-- N0&#45;&gt;N23 -->
<g id="edge28" class="edge">
<title>N0&#45;&gt;N23</title>
<path fill="none" stroke="black" d="M95.32,-263.99C101.78,-252.86 111.69,-238.53 124,-229.5 143.89,-214.92 170.25,-206.13 191.46,-201.01"/>
<polygon fill="black" stroke="black" points="192.02,-204.25 201.02,-198.66 190.49,-197.42 192.02,-204.25"/>
<text text-anchor="middle" x="136" y="-231.95" font-family="Times New Roman,serif" font-size="14.00">1.00</text>
</g>
<!-- N1 -->
<g id="node2" class="node">
<title>N1</title>
<ellipse fill="none" stroke="black" cx="35" cy="-632.25" rx="27" ry="18"/>
<text text-anchor="middle" x="35" y="-626.83" font-family="Times New Roman,serif" font-size="14.00">N1</text>
</g>
<!-- N1&#45;&gt;N1 -->
<g id="edge2" class="edge">
<title>N1&#45;&gt;N1</title>
<path fill="none" stroke="black" d="M59.53,-640.35C70.51,-641.12 80,-638.42 80,-632.25 80,-628.3 76.1,-625.77 70.42,-624.67"/>
<polygon fill="black" stroke="black" points="70.69,-621.13 60.53,-624.15 70.36,-628.12 70.69,-621.13"/>
<text text-anchor="middle" x="92" y="-626.83" font-family="Times New Roman,serif" font-size="14.00">1.00</text>
</g>
<!-- N7 -->
<g id="node8" class="node">
<title>N7</title>
<ellipse fill="none" stroke="black" cx="111" cy="-544.5" rx="27" ry="18"/>
<text text-anchor="middle" x="111" y="-539.08" font-family="Times New Roman,serif" font-size="14.00">N7</text>
</g>
<!-- N1&#45;&gt;N7 -->
<g id="edge10" class="edge">
<title>N1&#45;&gt;N7</title>
<path fill="none" stroke="black" d="M48.24,-616.31C59.94,-603.11 77.18,-583.66 90.63,-568.48"/>
<polygon fill="black" stroke="black" points="92.64,-571.36 96.66,-561.55 87.41,-566.72 92.64,-571.36"/>
<text text-anchor="middle" x="92" y="-582.95" font-family="Times New Roman,serif" font-size="14.00">1.00</text>
</g>
<!-- N2 -->
<g id="node3" class="node">
<title>N2</title>
<ellipse fill="none" stroke="black" cx="318" cy="-369" rx="27" ry="18"/>
<text text-anchor="middle" x="318" y="-363.57" font-family="Times New Roman,serif" font-size="14.00">N2</text>
</g>
<!-- N4 -->
<g id="node5" class="node">
<title>N4</title>
<ellipse fill="none" stroke="black" cx="301" cy="-632.25" rx="27" ry="18"/>
<text text-anchor="middle" x="301" y="-626.83" font-family="Times New Roman,serif" font-size="14.00">N4</text>
</g>
<!-- N2&#45;&gt;N4 -->
<g id="edge5" class="edge">
<title>N2&#45;&gt;N4</title>
<path fill="none" stroke="black" d="M325.02,-386.8C327.05,-392.47 328.99,-398.92 330,-405 331.15,-411.9 330.32,-413.76 330,-420.75 326.44,-498.99 331.34,-519.87 314,-596.25 313.4,-598.9 312.64,-601.63 311.8,-604.33"/>
<polygon fill="black" stroke="black" points="308.27,-602.84 308.27,-613.44 314.87,-605.15 308.27,-602.84"/>
<text text-anchor="middle" x="339" y="-495.2" font-family="Times New Roman,serif" font-size="14.00">1.00</text>
</g>
<!-- N13 -->
<g id="node14" class="node">
<title>N13</title>
<ellipse fill="none" stroke="black" cx="382" cy="-807.75" rx="27" ry="18"/>
<text text-anchor="middle" x="382" y="-802.33" font-family="Times New Roman,serif" font-size="14.00">N13</text>
</g>
<!-- N2&#45;&gt;N13 -->
<g id="edge18" class="edge">
<title>N2&#45;&gt;N13</title>
<path fill="none" stroke="black" d="M335.83,-382.64C354.76,-397.69 382,-424.73 382,-455.75 382,-721 382,-721 382,-721 382,-740.23 382,-761.89 382,-778.63"/>
<polygon fill="black" stroke="black" points="378.5,-778.34 382,-788.34 385.5,-778.34 378.5,-778.34"/>
<text text-anchor="middle" x="394" y="-582.95" font-family="Times New Roman,serif" font-size="14.00">1.00</text>
</g>
<!-- N3 -->
<g id="node4" class="node">
<title>N3</title>
<ellipse fill="none" stroke="black" cx="426" cy="-281.25" rx="27" ry="18"/>
<text text-anchor="middle" x="426" y="-275.82" font-family="Times New Roman,serif" font-size="14.00">N3</text>
</g>
<!-- N4&#45;&gt;N7 -->
<g id="edge11" class="edge">
<title>N4&#45;&gt;N7</title>
<path fill="none" stroke="black" d="M278.83,-621.51C262.98,-614.53 241.15,-604.87 222,-596.25 195.14,-584.16 164.73,-570.24 142.54,-560.04"/>
<polygon fill="black" stroke="black" points="144.21,-556.49 133.66,-555.49 141.28,-562.85 144.21,-556.49"/>
<text text-anchor="middle" x="234" y="-582.95" font-family="Times New Roman,serif" font-size="14.00">1.00</text>
</g>
<!-- N21 -->
<g id="node22" class="node">
<title>N21</title>
<ellipse fill="none" stroke="black" cx="254" cy="-544.5" rx="27" ry="18"/>
<text text-anchor="middle" x="254" y="-539.08" font-family="Times New Roman,serif" font-size="14.00">N21</text>
</g>
<!-- N4&#45;&gt;N21 -->
<g id="edge26" class="edge">
<title>N4&#45;&gt;N21</title>
<path fill="none" stroke="black" d="M294.72,-614.37C290.72,-604.28 285.14,-591.37 279,-580.5 277.01,-576.98 274.74,-573.38 272.4,-569.89"/>
<polygon fill="black" stroke="black" points="274.8,-568.23 266.19,-562.06 269.08,-572.25 274.8,-568.23"/>
<text text-anchor="middle" x="298" y="-582.95" font-family="Times New Roman,serif" font-size="14.00">1.00</text>
</g>
<!-- N5 -->
<g id="node6" class="node">
<title>N5</title>
<ellipse fill="none" stroke="black" cx="270" cy="-281.25" rx="27" ry="18"/>
<text text-anchor="middle" x="270" y="-275.82" font-family="Times New Roman,serif" font-size="14.00">N5</text>
</g>
<!-- N5&#45;&gt;N23 -->
<g id="edge29" class="edge">
<title>N5&#45;&gt;N23</title>
<path fill="none" stroke="black" d="M261.9,-263.72C255.92,-251.5 247.65,-234.62 240.78,-220.59"/>
<polygon fill="black" stroke="black" points="243.62,-219.42 236.07,-211.98 237.33,-222.5 243.62,-219.42"/>
<text text-anchor="middle" x="264" y="-231.95" font-family="Times New Roman,serif" font-size="14.00">1.00</text>
</g>
<!-- N6 -->
<g id="node7" class="node">
<title>N6</title>
<ellipse fill="none" stroke="black" cx="228" cy="-105.75" rx="27" ry="18"/>
<text text-anchor="middle" x="228" y="-100.33" font-family="Times New Roman,serif" font-size="14.00">N6</text>
</g>
<!-- N20 -->
<g id="node21" class="node">
<title>N20</title>
<ellipse fill="none" stroke="black" cx="239" cy="-18" rx="27" ry="18"/>
<text text-anchor="middle" x="239" y="-12.57" font-family="Times New Roman,serif" font-size="14.00">N20</text>
</g>
<!-- N6&#45;&gt;N20 -->
<g id="edge25" class="edge">
<title>N6&#45;&gt;N20</title>
<path fill="none" stroke="black" d="M230.23,-87.4C231.72,-75.77 233.71,-60.22 235.42,-46.88"/>
<polygon fill="black" stroke="black" points="238.98,-47.69 236.78,-37.33 232.03,-46.8 238.98,-47.69"/>
<text text-anchor="middle" x="246" y="-56.45" font-family="Times New Roman,serif" font-size="14.00">1.00</text>
</g>
<!-- N22 -->
<g id="node23" class="node">
<title>N22</title>
<ellipse fill="none" stroke="black" cx="163" cy="-18" rx="27" ry="18"/>
<text text-anchor="middle" x="163" y="-12.57" font-family="Times New Roman,serif" font-size="14.00">N22</text>
</g>
<!-- N6&#45;&gt;N22 -->
<g id="edge27" class="edge">
<title>N6&#45;&gt;N22</title>
<path fill="none" stroke="black" d="M216.38,-89.42C206.64,-76.57 192.57,-58.01 181.32,-43.16"/>
<polygon fill="black" stroke="black" points="183.57,-41.34 174.74,-35.49 177.99,-45.57 183.57,-41.34"/>
<text text-anchor="middle" x="213" y="-56.45" font-family="Times New Roman,serif" font-size="14.00">1.00</text>
</g>
<!-- N16 -->
<g id="node17" class="node">
<title>N16</title>
<ellipse fill="none" stroke="black" cx="99" cy="-456.75" rx="27" ry="18"/>
<text text-anchor="middle" x="99" y="-451.32" font-family="Times New Roman,serif" font-size="14.00">N16</text>
</g>
<!-- N7&#45;&gt;N16 -->
<g id="edge21" class="edge">
<title>N7&#45;&gt;N16</title>
<path fill="none" stroke="black" d="M108.57,-526.15C106.95,-514.52 104.77,-498.97 102.9,-485.63"/>
<polygon fill="black" stroke="black" points="106.28,-485.5 101.42,-476.08 99.34,-486.47 106.28,-485.5"/>
<text text-anchor="middle" x="119" y="-495.2" font-family="Times New Roman,serif" font-size="14.00">1.00</text>
</g>
<!-- N8 -->
<g id="node9" class="node">
<title>N8</title>
<ellipse fill="none" stroke="black" cx="462" cy="-369" rx="27" ry="18"/>
<text text-anchor="middle" x="462" y="-363.57" font-family="Times New Roman,serif" font-size="14.00">N8</text>
</g>
<!-- N8&#45;&gt;N3 -->
<g id="edge4" class="edge">
<title>N8&#45;&gt;N3</title>
<path fill="none" stroke="black" d="M455.06,-351.47C450.01,-339.44 443.07,-322.91 437.24,-309.02"/>
<polygon fill="black" stroke="black" points="440.14,-307.89 433.04,-300.03 433.69,-310.6 440.14,-307.89"/>
<text text-anchor="middle" x="459" y="-319.7" font-family="Times New Roman,serif" font-size="14.00">1.00</text>
</g>
<!-- N9 -->
<g id="node10" class="node">
<title>N9</title>
<ellipse fill="none" stroke="black" cx="498" cy="-281.25" rx="27" ry="18"/>
<text text-anchor="middle" x="498" y="-275.82" font-family="Times New Roman,serif" font-size="14.00">N9</text>
</g>
<!-- N8&#45;&gt;N9 -->
<g id="edge14" class="edge">
<title>N8&#45;&gt;N9</title>
<path fill="none" stroke="black" d="M468.94,-351.47C473.99,-339.44 480.93,-322.91 486.76,-309.02"/>
<polygon fill="black" stroke="black" points="490.31,-310.6 490.96,-300.03 483.86,-307.89 490.31,-310.6"/>
<text text-anchor="middle" x="495" y="-319.7" font-family="Times New Roman,serif" font-size="14.00">1.00</text>
</g>
<!-- N8&#45;&gt;N23 -->
<g id="edge30" class="edge">
<title>N8&#45;&gt;N23</title>
<path fill="none" stroke="black" d="M443.72,-355.39C424.23,-341.84 392.57,-319.51 366,-299.25 326.87,-269.41 319.56,-258.77 280,-229.5 272.41,-223.89 264,-218.06 256.19,-212.81"/>
<polygon fill="black" stroke="black" points="258.32,-209.36 248.05,-206.74 254.45,-215.19 258.32,-209.36"/>
<text text-anchor="middle" x="378" y="-275.82" font-family="Times New Roman,serif" font-size="14.00">1.00</text>
</g>
<!-- N10 -->
<g id="node11" class="node">
<title>N10</title>
<ellipse fill="none" stroke="black" cx="27" cy="-369" rx="27" ry="18"/>
<text text-anchor="middle" x="27" y="-363.57" font-family="Times New Roman,serif" font-size="14.00">N10</text>
</g>
<!-- N10&#45;&gt;N0 -->
<g id="edge1" class="edge">
<title>N10&#45;&gt;N0</title>
<path fill="none" stroke="black" d="M38,-352.27C46.89,-339.58 59.54,-321.5 69.76,-306.89"/>
<polygon fill="black" stroke="black" points="73.2,-309.08 76.06,-298.88 67.46,-305.07 73.2,-309.08"/>
<text text-anchor="middle" x="75" y="-319.7" font-family="Times New Roman,serif" font-size="14.00">1.00</text>
</g>
<!-- N11 -->
<g id="node12" class="node">
<title>N11</title>
<ellipse fill="none" stroke="black" cx="437" cy="-456.75" rx="27" ry="18"/>
<text text-anchor="middle" x="437" y="-451.32" font-family="Times New Roman,serif" font-size="14.00">N11</text>
</g>
<!-- N11&#45;&gt;N8 -->
<g id="edge13" class="edge">
<title>N11&#45;&gt;N8</title>
<path fill="none" stroke="black" d="M441.94,-438.81C445.4,-426.95 450.09,-410.84 454.07,-397.2"/>
<polygon fill="black" stroke="black" points="457.63,-398.49 457.07,-387.91 450.91,-396.53 457.63,-398.49"/>
<text text-anchor="middle" x="463" y="-407.45" font-family="Times New Roman,serif" font-size="14.00">1.00</text>
</g>
<!-- N15 -->
<g id="node16" class="node">
<title>N15</title>
<ellipse fill="none" stroke="black" cx="390" cy="-369" rx="27" ry="18"/>
<text text-anchor="middle" x="390" y="-363.57" font-family="Times New Roman,serif" font-size="14.00">N15</text>
</g>
<!-- N11&#45;&gt;N15 -->
<g id="edge20" class="edge">
<title>N11&#45;&gt;N15</title>
<path fill="none" stroke="black" d="M428.16,-439.62C421.38,-427.24 411.88,-409.91 404.05,-395.64"/>
<polygon fill="black" stroke="black" points="406.84,-394.44 398.96,-387.35 400.7,-397.8 406.84,-394.44"/>
<text text-anchor="middle" x="429" y="-407.45" font-family="Times New Roman,serif" font-size="14.00">1.00</text>
</g>
<!-- N12 -->
<g id="node13" class="node">
<title>N12</title>
<ellipse fill="none" stroke="black" cx="99" cy="-369" rx="27" ry="18"/>
<text text-anchor="middle" x="99" y="-363.57" font-family="Times New Roman,serif" font-size="14.00">N12</text>
</g>
<!-- N13&#45;&gt;N11 -->
<g id="edge16" class="edge">
<title>N13&#45;&gt;N11</title>
<path fill="none" stroke="black" d="M396.73,-792.44C411.48,-776.51 432,-749.26 432,-721 432,-721 432,-721 432,-543.5 432,-524.23 433.27,-502.58 434.53,-485.85"/>
<polygon fill="black" stroke="black" points="438.08,-486.39 435.39,-476.14 431.1,-485.83 438.08,-486.39"/>
<text text-anchor="middle" x="444" y="-626.83" font-family="Times New Roman,serif" font-size="14.00">1.00</text>
</g>
<!-- N18 -->
<g id="node19" class="node">
<title>N18</title>
<ellipse fill="none" stroke="black" cx="321" cy="-720" rx="27" ry="18"/>
<text text-anchor="middle" x="321" y="-714.58" font-family="Times New Roman,serif" font-size="14.00">N18</text>
</g>
<!-- N13&#45;&gt;N18 -->
<g id="edge23" class="edge">
<title>N13&#45;&gt;N18</title>
<path fill="none" stroke="black" d="M365.04,-793.71C357.89,-787.61 349.89,-779.89 344,-771.75 338.8,-764.56 334.37,-756 330.83,-747.98"/>
<polygon fill="black" stroke="black" points="333.73,-746.83 326.7,-738.9 327.25,-749.48 333.73,-746.83"/>
<text text-anchor="middle" x="356" y="-758.45" font-family="Times New Roman,serif" font-size="14.00">1.00</text>
</g>
<!-- N14 -->
<g id="node15" class="node">
<title>N14</title>
<ellipse fill="none" stroke="black" cx="300" cy="-105.75" rx="27" ry="18"/>
<text text-anchor="middle" x="300" y="-100.33" font-family="Times New Roman,serif" font-size="14.00">N14</text>
</g>
<!-- N15&#45;&gt;N5 -->
<g id="edge8" class="edge">
<title>N15&#45;&gt;N5</title>
<path fill="none" stroke="black" d="M368.37,-357.59C363.65,-355.38 358.67,-353.08 354,-351 335.07,-342.57 327.57,-345.44 311,-333 301.49,-325.86 292.88,-316.04 286.04,-306.94"/>
<polygon fill="black" stroke="black" points="288.47,-305.32 279.81,-299.2 282.77,-309.38 288.47,-305.32"/>
<text text-anchor="middle" x="323" y="-319.7" font-family="Times New Roman,serif" font-size="14.00">1.00</text>
</g>
<!-- N16&#45;&gt;N10 -->
<g id="edge15" class="edge">
<title>N16&#45;&gt;N10</title>
<path fill="none" stroke="black" d="M86.13,-440.42C75.17,-427.37 59.26,-408.42 46.7,-393.47"/>
<polygon fill="black" stroke="black" points="48.87,-391.61 39.76,-386.2 43.51,-396.11 48.87,-391.61"/>
<text text-anchor="middle" x="82" y="-407.45" font-family="Times New Roman,serif" font-size="14.00">1.00</text>
</g>
<!-- N16&#45;&gt;N12 -->
<g id="edge17" class="edge">
<title>N16&#45;&gt;N12</title>
<path fill="none" stroke="black" d="M99,-438.4C99,-426.89 99,-411.53 99,-398.28"/>
<polygon fill="black" stroke="black" points="102.5,-398.33 99,-388.33 95.5,-398.33 102.5,-398.33"/>
<text text-anchor="middle" x="111" y="-407.45" font-family="Times New Roman,serif" font-size="14.00">1.00</text>
</g>
<!-- N17 -->
<g id="node18" class="node">
<title>N17</title>
<ellipse fill="none" stroke="black" cx="289" cy="-456.75" rx="27" ry="18"/>
<text text-anchor="middle" x="289" y="-451.32" font-family="Times New Roman,serif" font-size="14.00">N17</text>
</g>
<!-- N17&#45;&gt;N2 -->
<g id="edge3" class="edge">
<title>N17&#45;&gt;N2</title>
<path fill="none" stroke="black" d="M294.64,-438.82C297.93,-428.95 302.18,-416.26 306,-405 306.88,-402.39 307.81,-399.68 308.74,-396.96"/>
<polygon fill="black" stroke="black" points="312.31,-398.32 312.24,-387.73 305.69,-396.05 312.31,-398.32"/>
<text text-anchor="middle" x="318" y="-407.45" font-family="Times New Roman,serif" font-size="14.00">1.00</text>
</g>
<!-- N18&#45;&gt;N4 -->
<g id="edge6" class="edge">
<title>N18&#45;&gt;N4</title>
<path fill="none" stroke="black" d="M317.05,-702.06C314.33,-690.39 310.65,-674.62 307.5,-661.12"/>
<polygon fill="black" stroke="black" points="310.69,-660.39 305.01,-651.45 303.87,-661.98 310.69,-660.39"/>
<text text-anchor="middle" x="324" y="-670.7" font-family="Times New Roman,serif" font-size="14.00">1.00</text>
</g>
<!-- N19 -->
<g id="node20" class="node">
<title>N19</title>
<ellipse fill="none" stroke="black" cx="217" cy="-456.75" rx="27" ry="18"/>
<text text-anchor="middle" x="217" y="-451.32" font-family="Times New Roman,serif" font-size="14.00">N19</text>
</g>
<!-- N21&#45;&gt;N4 -->
<g id="edge7" class="edge">
<title>N21&#45;&gt;N4</title>
<path fill="none" stroke="black" d="M250.72,-562.86C249.63,-573.11 249.81,-586.04 255,-596.25 258.69,-603.51 264.66,-609.68 271.09,-614.73"/>
<polygon fill="black" stroke="black" points="268.78,-618.07 278.99,-620.91 272.77,-612.33 268.78,-618.07"/>
<text text-anchor="middle" x="267" y="-582.95" font-family="Times New Roman,serif" font-size="14.00">1.00</text>
</g>
<!-- N21&#45;&gt;N17 -->
<g id="edge22" class="edge">
<title>N21&#45;&gt;N17</title>
<path fill="none" stroke="black" d="M260.75,-526.97C265.66,-514.94 272.4,-498.41 278.07,-484.52"/>
<polygon fill="black" stroke="black" points="281.61,-486.11 282.15,-475.53 275.13,-483.46 281.61,-486.11"/>
<text text-anchor="middle" x="286" y="-495.2" font-family="Times New Roman,serif" font-size="14.00">1.00</text>
</g>
<!-- N21&#45;&gt;N19 -->
<g id="edge24" class="edge">
<title>N21&#45;&gt;N19</title>
<path fill="none" stroke="black" d="M246.87,-526.97C241.68,-514.94 234.54,-498.41 228.55,-484.52"/>
<polygon fill="black" stroke="black" points="231.41,-483.32 224.24,-475.53 224.99,-486.09 231.41,-483.32"/>
<text text-anchor="middle" x="250" y="-495.2" font-family="Times New Roman,serif" font-size="14.00">1.00</text>
</g>
<!-- N21&#45;&gt;N23 -->
<g id="edge31" class="edge">
<title>N21&#45;&gt;N23</title>
<path fill="none" stroke="black" d="M231.26,-534.22C204.01,-521.4 162,-495.52 162,-457.75 162,-457.75 162,-457.75 162,-280.25 162,-253.04 183.12,-229.18 201.47,-213.58"/>
<polygon fill="black" stroke="black" points="203.03,-216.01 208.62,-207.01 198.63,-210.56 203.03,-216.01"/>
<text text-anchor="middle" x="174" y="-363.57" font-family="Times New Roman,serif" font-size="14.00">1.00</text>
</g>
<!-- N22&#45;&gt;N23 -->
<g id="edge32" class="edge">
<title>N22&#45;&gt;N23</title>
<path fill="none" stroke="black" d="M160.49,-36.05C158.07,-57.4 156.31,-94.7 168,-123.75 175.49,-142.37 190.27,-159.4 203.28,-171.85"/>
<polygon fill="black" stroke="black" points="200.33,-173.82 210.07,-177.99 205.06,-168.65 200.33,-173.82"/>
<text text-anchor="middle" x="180" y="-100.33" font-family="Times New Roman,serif" font-size="14.00">1.00</text>
</g>
<!-- N23&#45;&gt;N6 -->
<g id="edge9" class="edge">
<title>N23&#45;&gt;N6</title>
<path fill="none" stroke="black" d="M228,-175.15C228,-163.64 228,-148.28 228,-135.03"/>
<polygon fill="black" stroke="black" points="231.5,-135.08 228,-125.08 224.5,-135.08 231.5,-135.08"/>
<text text-anchor="middle" x="240" y="-144.2" font-family="Times New Roman,serif" font-size="14.00">1.00</text>
</g>
<!-- N23&#45;&gt;N14 -->
<g id="edge19" class="edge">
<title>N23&#45;&gt;N14</title>
<path fill="none" stroke="black" d="M240.87,-177.17C251.83,-164.12 267.74,-145.17 280.3,-130.22"/>
<polygon fill="black" stroke="black" points="283.49,-132.86 287.24,-122.95 278.13,-128.36 283.49,-132.86"/>
<text text-anchor="middle" x="282" y="-144.2" font-family="Times New Roman,serif" font-size="14.00">1.00</text>
</g>
<!-- E0 -->
<g id="node25" class="node">
<title>E0</title>
<ellipse fill="none" stroke="black" cx="149" cy="-632.25" rx="27" ry="18"/>
<text text-anchor="middle" x="149" y="-626.83" font-family="Times New Roman,serif" font-size="14.00">E0</text>
</g>
<!-- E0&#45;&gt;N7 -->
<g id="edge12" class="edge">
<title>E0&#45;&gt;N7</title>
<path fill="none" stroke="black" d="M141.67,-614.72C136.35,-602.69 129.02,-586.16 122.86,-572.27"/>
<polygon fill="black" stroke="black" points="125.69,-571 118.43,-563.28 119.29,-573.84 125.69,-571"/>
<text text-anchor="middle" x="146" y="-582.95" font-family="Times New Roman,serif" font-size="14.00">1.00</text>
</g>
</g>
</svg>
