<?xml version="1.0" encoding="UTF-8" standalone="no"?>
<!DOCTYPE svg PUBLIC "-//W3C//DTD SVG 1.1//EN"
 "http://www.w3.org/Graphics/SVG/1.1/DTD/svg11.dtd">
<!-- Generated by graphviz version 8.0.5 (20230430.1635)
 -->
<!-- Pages: 1 -->
<svg width="226pt" height="395pt"
 viewBox="0.00 0.00 226.00 395.00" xmlns="http://www.w3.org/2000/svg" xmlns:xlink="http://www.w3.org/1999/xlink">
<g id="graph0" class="graph" transform="scale(1 1) rotate(0) translate(4 391)">
<polygon fill="white" stroke="none" points="-4,4 -4,-391 222,-391 222,4 -4,4"/>
<!-- N0 -->
<g id="node1" class="node">
<title>N0</title>
<ellipse fill="none" stroke="black" cx="142" cy="-193.5" rx="27" ry="18"/>
<text text-anchor="middle" x="142" y="-188.07" font-family="Times New Roman,serif" font-size="14.00">N0</text>
</g>
<!-- N2 -->
<g id="node3" class="node">
<title>N2</title>
<ellipse fill="none" stroke="black" cx="165" cy="-105.75" rx="27" ry="18"/>
<text text-anchor="middle" x="165" y="-100.33" font-family="Times New Roman,serif" font-size="14.00">N2</text>
</g>
<!-- N0&#45;&gt;N2 -->
<g id="edge5" class="edge">
<title>N0&#45;&gt;N2</title>
<path fill="none" stroke="black" d="M129.81,-177.14C123.27,-166.94 117.57,-153.34 123,-141.75 126.01,-135.32 130.85,-129.66 136.19,-124.87"/>
<polygon fill="black" stroke="black" points="138.12,-127.01 143.8,-118.06 133.79,-121.51 138.12,-127.01"/>
<text text-anchor="middle" x="135" y="-144.2" font-family="Times New Roman,serif" font-size="14.00">1.00</text>
</g>
<!-- N1 -->
<g id="node2" class="node">
<title>N1</title>
<ellipse fill="none" stroke="black" cx="70" cy="-105.75" rx="27" ry="18"/>
<text text-anchor="middle" x="70" y="-100.33" font-family="Times New Roman,serif" font-size="14.00">N1</text>
</g>
<!-- N7 -->
<g id="node8" class="node">
<title>N7</title>
<ellipse fill="none" stroke="black" cx="82" cy="-18" rx="27" ry="18"/>
<text text-anchor="middle" x="82" y="-12.57" font-family="Times New Roman,serif" font-size="14.00">N7</text>
</g>
<!-- N1&#45;&gt;N7 -->
<g id="edge10" class="edge">
<title>N1&#45;&gt;N7</title>
<path fill="none" stroke="black" d="M69.66,-87.27C69.73,-77.44 70.24,-64.97 72,-54 72.4,-51.47 72.93,-48.87 73.53,-46.28"/>
<polygon fill="black" stroke="black" points="77.1,-47.47 76.29,-36.91 70.34,-45.67 77.1,-47.47"/>
<text text-anchor="middle" x="84" y="-56.45" font-family="Times New Roman,serif" font-size="14.00">1.00</text>
</g>
<!-- N2&#45;&gt;N0 -->
<g id="edge1" class="edge">
<title>N2&#45;&gt;N0</title>
<path fill="none" stroke="black" d="M160.39,-123.95C157.21,-135.8 152.92,-151.78 149.29,-165.33"/>
<polygon fill="black" stroke="black" points="145.75,-163.99 146.54,-174.56 152.52,-165.81 145.75,-163.99"/>
<text text-anchor="middle" x="167" y="-144.2" font-family="Times New Roman,serif" font-size="14.00">1.00</text>
</g>
<!-- N3 -->
<g id="node4" class="node">
<title>N3</title>
<ellipse fill="none" stroke="black" cx="165" cy="-18" rx="27" ry="18"/>
<text text-anchor="middle" x="165" y="-12.57" font-family="Times New Roman,serif" font-size="14.00">N3</text>
</g>
<!-- N2&#45;&gt;N3 -->
<g id="edge7" class="edge">
<title>N2&#45;&gt;N3</title>
<path fill="none" stroke="black" d="M165,-87.4C165,-75.89 165,-60.53 165,-47.28"/>
<polygon fill="black" stroke="black" points="168.5,-47.33 165,-37.33 161.5,-47.33 168.5,-47.33"/>
<text text-anchor="middle" x="177" y="-56.45" font-family="Times New Roman,serif" font-size="14.00">1.00</text>
</g>
<!-- N2&#45;&gt;N7 -->
<g id="edge11" class="edge">
<title>N2&#45;&gt;N7</title>
<path fill="none" stroke="black" d="M150.92,-90.2C137.92,-76.78 118.43,-56.64 103.49,-41.2"/>
<polygon fill="black" stroke="black" points="106.62,-39.37 97.15,-34.62 101.59,-44.24 106.62,-39.37"/>
<text text-anchor="middle" x="142" y="-56.45" font-family="Times New Roman,serif" font-size="14.00">1.00</text>
</g>
<!-- N4 -->
<g id="node5" class="node">
<title>N4</title>
<ellipse fill="none" stroke="black" cx="70" cy="-193.5" rx="27" ry="18"/>
<text text-anchor="middle" x="70" y="-188.07" font-family="Times New Roman,serif" font-size="14.00">N4</text>
</g>
<!-- N4&#45;&gt;N1 -->
<g id="edge3" class="edge">
<title>N4&#45;&gt;N1</title>
<path fill="none" stroke="black" d="M70,-175.15C70,-163.64 70,-148.28 70,-135.03"/>
<polygon fill="black" stroke="black" points="73.5,-135.08 70,-125.08 66.5,-135.08 73.5,-135.08"/>
<text text-anchor="middle" x="82" y="-144.2" font-family="Times New Roman,serif" font-size="14.00">1.00</text>
</g>
<!-- N5 -->
<g id="node6" class="node">
<title>N5</title>
<ellipse fill="none" stroke="black" cx="27" cy="-281.25" rx="27" ry="18"/>
<text text-anchor="middle" x="27" y="-275.82" font-family="Times New Roman,serif" font-size="14.00">N5</text>
</g>
<!-- N5&#45;&gt;N1 -->
<g id="edge4" class="edge">
<title>N5&#45;&gt;N1</title>
<path fill="none" stroke="black" d="M19.27,-263.77C10.51,-242.69 -1.19,-205.34 10,-175.5 17.05,-156.71 31.82,-139.67 44.94,-127.26"/>
<polygon fill="black" stroke="black" points="46.73,-130.46 51.81,-121.16 42.04,-125.26 46.73,-130.46"/>
<text text-anchor="middle" x="22" y="-188.07" font-family="Times New Roman,serif" font-size="14.00">1.00</text>
</g>
<!-- N5&#45;&gt;N4 -->
<g id="edge8" class="edge">
<title>N5&#45;&gt;N4</title>
<path fill="none" stroke="black" d="M35.29,-263.72C41.42,-251.5 49.88,-234.62 56.92,-220.59"/>
<polygon fill="black" stroke="black" points="60.38,-222.49 61.73,-211.98 54.12,-219.35 60.38,-222.49"/>
<text text-anchor="middle" x="65" y="-231.95" font-family="Times New Roman,serif" font-size="14.00">1.00</text>
</g>
<!-- N6 -->
<g id="node7" class="node">
<title>N6</title>
<ellipse fill="none" stroke="black" cx="179" cy="-281.25" rx="27" ry="18"/>
<text text-anchor="middle" x="179" y="-275.82" font-family="Times New Roman,serif" font-size="14.00">N6</text>
</g>
<!-- N6&#45;&gt;N0 -->
<g id="edge2" class="edge">
<title>N6&#45;&gt;N0</title>
<path fill="none" stroke="black" d="M171.87,-263.72C166.68,-251.69 159.54,-235.16 153.55,-221.27"/>
<polygon fill="black" stroke="black" points="156.41,-220.07 149.24,-212.28 149.99,-222.84 156.41,-220.07"/>
<text text-anchor="middle" x="175" y="-231.95" font-family="Times New Roman,serif" font-size="14.00">1.00</text>
</g>
<!-- N6&#45;&gt;N2 -->
<g id="edge6" class="edge">
<title>N6&#45;&gt;N2</title>
<path fill="none" stroke="black" d="M186.02,-263.45C188.05,-257.78 189.99,-251.33 191,-245.25 195.76,-216.68 198.34,-194.51 183,-141.75 182.12,-138.74 180.98,-135.68 179.7,-132.69"/>
<polygon fill="black" stroke="black" points="182.49,-131.41 174.97,-123.94 176.19,-134.47 182.49,-131.41"/>
<text text-anchor="middle" x="206" y="-188.07" font-family="Times New Roman,serif" font-size="14.00">1.00</text>
</g>
<!-- E0 -->
<g id="node9" class="node">
<title>E0</title>
<ellipse fill="none" stroke="black" cx="27" cy="-369" rx="27" ry="18"/>
<text text-anchor="middle" x="27" y="-363.57" font-family="Times New Roman,serif" font-size="14.00">E0</text>
</g>
<!-- E0&#45;&gt;N5 -->
<g id="edge9" class="edge">
<title>E0&#45;&gt;N5</title>
<path fill="none" stroke="black" d="M27,-350.65C27,-339.14 27,-323.78 27,-310.53"/>
<polygon fill="black" stroke="black" points="30.5,-310.58 27,-300.58 23.5,-310.58 30.5,-310.58"/>
<text text-anchor="middle" x="39" y="-319.7" font-family="Times New Roman,serif" font-size="14.00">1.00</text>
</g>
</g>
</svg>
