<?xml version="1.0" encoding="UTF-8" standalone="no"?>
<!DOCTYPE svg PUBLIC "-//W3C//DTD SVG 1.1//EN"
 "http://www.w3.org/Graphics/SVG/1.1/DTD/svg11.dtd">
<!-- Generated by graphviz version 8.0.5 (20230430.1635)
 -->
<!-- Pages: 1 -->
<svg width="496pt" height="922pt"
 viewBox="0.00 0.00 496.00 921.50" xmlns="http://www.w3.org/2000/svg" xmlns:xlink="http://www.w3.org/1999/xlink">
<g id="graph0" class="graph" transform="scale(1 1) rotate(0) translate(4 917.5)">
<polygon fill="white" stroke="none" points="-4,4 -4,-917.5 492,-917.5 492,4 -4,4"/>
<!-- N0 -->
<g id="node1" class="node">
<title>N0</title>
<ellipse fill="none" stroke="black" cx="27" cy="-544.5" rx="27" ry="18"/>
<text text-anchor="middle" x="27" y="-539.08" font-family="Times New Roman,serif" font-size="14.00">N0</text>
</g>
<!-- N1 -->
<g id="node2" class="node">
<title>N1</title>
<ellipse fill="none" stroke="black" cx="138" cy="-895.5" rx="27" ry="18"/>
<text text-anchor="middle" x="138" y="-890.08" font-family="Times New Roman,serif" font-size="14.00">N1</text>
</g>
<!-- N1&#45;&gt;N1 -->
<g id="edge2" class="edge">
<title>N1&#45;&gt;N1</title>
<path fill="none" stroke="black" d="M162.53,-903.6C173.51,-904.37 183,-901.67 183,-895.5 183,-891.55 179.1,-889.02 173.42,-887.92"/>
<polygon fill="black" stroke="black" points="173.69,-884.38 163.53,-887.4 173.36,-891.37 173.69,-884.38"/>
<text text-anchor="middle" x="195" y="-890.08" font-family="Times New Roman,serif" font-size="14.00">1.00</text>
</g>
<!-- N7 -->
<g id="node8" class="node">
<title>N7</title>
<ellipse fill="none" stroke="black" cx="89" cy="-807.75" rx="27" ry="18"/>
<text text-anchor="middle" x="89" y="-802.33" font-family="Times New Roman,serif" font-size="14.00">N7</text>
</g>
<!-- N1&#45;&gt;N7 -->
<g id="edge10" class="edge">
<title>N1&#45;&gt;N7</title>
<path fill="none" stroke="black" d="M128.78,-878.37C121.71,-865.99 111.81,-848.66 103.65,-834.39"/>
<polygon fill="black" stroke="black" points="106.34,-833.04 98.34,-826.1 100.26,-836.52 106.34,-833.04"/>
<text text-anchor="middle" x="129" y="-846.2" font-family="Times New Roman,serif" font-size="14.00">1.00</text>
</g>
<!-- N2 -->
<g id="node3" class="node">
<title>N2</title>
<ellipse fill="none" stroke="black" cx="285" cy="-632.25" rx="27" ry="18"/>
<text text-anchor="middle" x="285" y="-626.83" font-family="Times New Roman,serif" font-size="14.00">N2</text>
</g>
<!-- N4 -->
<g id="node5" class="node">
<title>N4</title>
<ellipse fill="none" stroke="black" cx="272" cy="-895.5" rx="27" ry="18"/>
<text text-anchor="middle" x="272" y="-890.08" font-family="Times New Roman,serif" font-size="14.00">N4</text>
</g>
<!-- N2&#45;&gt;N4 -->
<g id="edge5" class="edge">
<title>N2&#45;&gt;N4</title>
<path fill="none" stroke="black" d="M292.6,-650C294.8,-655.67 296.9,-662.13 298,-668.25 299.24,-675.14 298.26,-677 298,-684 295.11,-762.16 301.67,-783.08 285,-859.5 284.42,-862.16 283.68,-864.89 282.85,-867.59"/>
<polygon fill="black" stroke="black" points="279.31,-866.1 279.33,-876.7 285.92,-868.4 279.31,-866.1"/>
<text text-anchor="middle" x="308" y="-758.45" font-family="Times New Roman,serif" font-size="14.00">1.00</text>
</g>
<!-- N13 -->
<g id="node14" class="node">
<title>N13</title>
<ellipse fill="none" stroke="black" cx="285" cy="-544.5" rx="27" ry="18"/>
<text text-anchor="middle" x="285" y="-539.08" font-family="Times New Roman,serif" font-size="14.00">N13</text>
</g>
<!-- N2&#45;&gt;N13 -->
<g id="edge18" class="edge">
<title>N2&#45;&gt;N13</title>
<path fill="none" stroke="black" d="M285,-613.9C285,-602.39 285,-587.03 285,-573.78"/>
<polygon fill="black" stroke="black" points="288.5,-573.83 285,-563.83 281.5,-573.83 288.5,-573.83"/>
<text text-anchor="middle" x="297" y="-582.95" font-family="Times New Roman,serif" font-size="14.00">1.00</text>
</g>
<!-- N3 -->
<g id="node4" class="node">
<title>N3</title>
<ellipse fill="none" stroke="black" cx="389" cy="-281.25" rx="27" ry="18"/>
<text text-anchor="middle" x="389" y="-275.82" font-family="Times New Roman,serif" font-size="14.00">N3</text>
</g>
<!-- N4&#45;&gt;N7 -->
<g id="edge11" class="edge">
<title>N4&#45;&gt;N7</title>
<path fill="none" stroke="black" d="M249.77,-884.91C233.88,-878 212.04,-868.36 193,-859.5 168.22,-847.97 140.42,-834.37 119.79,-824.15"/>
<polygon fill="black" stroke="black" points="121.52,-820.6 111,-819.28 118.4,-826.87 121.52,-820.6"/>
<text text-anchor="middle" x="205" y="-846.2" font-family="Times New Roman,serif" font-size="14.00">1.00</text>
</g>
<!-- N21 -->
<g id="node22" class="node">
<title>N21</title>
<ellipse fill="none" stroke="black" cx="225" cy="-807.75" rx="27" ry="18"/>
<text text-anchor="middle" x="225" y="-802.33" font-family="Times New Roman,serif" font-size="14.00">N21</text>
</g>
<!-- N4&#45;&gt;N21 -->
<g id="edge26" class="edge">
<title>N4&#45;&gt;N21</title>
<path fill="none" stroke="black" d="M265.72,-877.62C261.72,-867.53 256.14,-854.62 250,-843.75 248.01,-840.23 245.74,-836.63 243.4,-833.14"/>
<polygon fill="black" stroke="black" points="245.8,-831.48 237.19,-825.31 240.08,-835.5 245.8,-831.48"/>
<text text-anchor="middle" x="269" y="-846.2" font-family="Times New Roman,serif" font-size="14.00">1.00</text>
</g>
<!-- N5 -->
<g id="node6" class="node">
<title>N5</title>
<ellipse fill="none" stroke="black" cx="257" cy="-281.25" rx="27" ry="18"/>
<text text-anchor="middle" x="257" y="-275.82" font-family="Times New Roman,serif" font-size="14.00">N5</text>
</g>
<!-- N23 -->
<g id="node24" class="node">
<title>N23</title>
<ellipse fill="none" stroke="black" cx="257" cy="-193.5" rx="27" ry="18"/>
<text text-anchor="middle" x="257" y="-188.07" font-family="Times New Roman,serif" font-size="14.00">N23</text>
</g>
<!-- N5&#45;&gt;N23 -->
<g id="edge28" class="edge">
<title>N5&#45;&gt;N23</title>
<path fill="none" stroke="black" d="M257,-262.9C257,-251.39 257,-236.03 257,-222.78"/>
<polygon fill="black" stroke="black" points="260.5,-222.83 257,-212.83 253.5,-222.83 260.5,-222.83"/>
<text text-anchor="middle" x="269" y="-231.95" font-family="Times New Roman,serif" font-size="14.00">1.00</text>
</g>
<!-- N6 -->
<g id="node7" class="node">
<title>N6</title>
<ellipse fill="none" stroke="black" cx="257" cy="-105.75" rx="27" ry="18"/>
<text text-anchor="middle" x="257" y="-100.33" font-family="Times New Roman,serif" font-size="14.00">N6</text>
</g>
<!-- N20 -->
<g id="node21" class="node">
<title>N20</title>
<ellipse fill="none" stroke="black" cx="268" cy="-18" rx="27" ry="18"/>
<text text-anchor="middle" x="268" y="-12.57" font-family="Times New Roman,serif" font-size="14.00">N20</text>
</g>
<!-- N6&#45;&gt;N20 -->
<g id="edge25" class="edge">
<title>N6&#45;&gt;N20</title>
<path fill="none" stroke="black" d="M259.23,-87.4C260.72,-75.77 262.71,-60.22 264.42,-46.88"/>
<polygon fill="black" stroke="black" points="267.98,-47.69 265.78,-37.33 261.03,-46.8 267.98,-47.69"/>
<text text-anchor="middle" x="275" y="-56.45" font-family="Times New Roman,serif" font-size="14.00">1.00</text>
</g>
<!-- N22 -->
<g id="node23" class="node">
<title>N22</title>
<ellipse fill="none" stroke="black" cx="192" cy="-18" rx="27" ry="18"/>
<text text-anchor="middle" x="192" y="-12.57" font-family="Times New Roman,serif" font-size="14.00">N22</text>
</g>
<!-- N6&#45;&gt;N22 -->
<g id="edge27" class="edge">
<title>N6&#45;&gt;N22</title>
<path fill="none" stroke="black" d="M245.38,-89.42C235.64,-76.57 221.57,-58.01 210.32,-43.16"/>
<polygon fill="black" stroke="black" points="212.57,-41.34 203.74,-35.49 206.99,-45.57 212.57,-41.34"/>
<text text-anchor="middle" x="242" y="-56.45" font-family="Times New Roman,serif" font-size="14.00">1.00</text>
</g>
<!-- N16 -->
<g id="node17" class="node">
<title>N16</title>
<ellipse fill="none" stroke="black" cx="75" cy="-720" rx="27" ry="18"/>
<text text-anchor="middle" x="75" y="-714.58" font-family="Times New Roman,serif" font-size="14.00">N16</text>
</g>
<!-- N7&#45;&gt;N16 -->
<g id="edge21" class="edge">
<title>N7&#45;&gt;N16</title>
<path fill="none" stroke="black" d="M86.17,-789.4C84.27,-777.77 81.73,-762.22 79.55,-748.88"/>
<polygon fill="black" stroke="black" points="82.89,-748.63 77.83,-739.33 75.99,-749.76 82.89,-748.63"/>
<text text-anchor="middle" x="95" y="-758.45" font-family="Times New Roman,serif" font-size="14.00">1.00</text>
</g>
<!-- N8 -->
<g id="node9" class="node">
<title>N8</title>
<ellipse fill="none" stroke="black" cx="362" cy="-369" rx="27" ry="18"/>
<text text-anchor="middle" x="362" y="-363.57" font-family="Times New Roman,serif" font-size="14.00">N8</text>
</g>
<!-- N8&#45;&gt;N3 -->
<g id="edge4" class="edge">
<title>N8&#45;&gt;N3</title>
<path fill="none" stroke="black" d="M367.33,-351.06C371.07,-339.2 376.14,-323.09 380.44,-309.45"/>
<polygon fill="black" stroke="black" points="384.01,-310.75 383.68,-300.16 377.33,-308.64 384.01,-310.75"/>
<text text-anchor="middle" x="389" y="-319.7" font-family="Times New Roman,serif" font-size="14.00">1.00</text>
</g>
<!-- N9 -->
<g id="node10" class="node">
<title>N9</title>
<ellipse fill="none" stroke="black" cx="461" cy="-281.25" rx="27" ry="18"/>
<text text-anchor="middle" x="461" y="-275.82" font-family="Times New Roman,serif" font-size="14.00">N9</text>
</g>
<!-- N8&#45;&gt;N9 -->
<g id="edge14" class="edge">
<title>N8&#45;&gt;N9</title>
<path fill="none" stroke="black" d="M378.92,-354.57C386.91,-348.14 396.53,-340.28 405,-333 416.04,-323.52 428.03,-312.72 438.07,-303.53"/>
<polygon fill="black" stroke="black" points="439.99,-306.6 444.98,-297.26 435.25,-301.45 439.99,-306.6"/>
<text text-anchor="middle" x="434" y="-319.7" font-family="Times New Roman,serif" font-size="14.00">1.00</text>
</g>
<!-- N8&#45;&gt;N23 -->
<g id="edge29" class="edge">
<title>N8&#45;&gt;N23</title>
<path fill="none" stroke="black" d="M354.06,-351.7C340.94,-325.27 313.36,-271.76 285,-229.5 282.46,-225.72 279.62,-221.84 276.75,-218.1"/>
<polygon fill="black" stroke="black" points="279.08,-216.41 270.12,-210.76 273.6,-220.76 279.08,-216.41"/>
<text text-anchor="middle" x="337" y="-275.82" font-family="Times New Roman,serif" font-size="14.00">1.00</text>
</g>
<!-- N10 -->
<g id="node11" class="node">
<title>N10</title>
<ellipse fill="none" stroke="black" cx="27" cy="-632.25" rx="27" ry="18"/>
<text text-anchor="middle" x="27" y="-626.83" font-family="Times New Roman,serif" font-size="14.00">N10</text>
</g>
<!-- N10&#45;&gt;N0 -->
<g id="edge1" class="edge">
<title>N10&#45;&gt;N0</title>
<path fill="none" stroke="black" d="M27,-613.9C27,-602.39 27,-587.03 27,-573.78"/>
<polygon fill="black" stroke="black" points="30.5,-573.83 27,-563.83 23.5,-573.83 30.5,-573.83"/>
<text text-anchor="middle" x="39" y="-582.95" font-family="Times New Roman,serif" font-size="14.00">1.00</text>
</g>
<!-- N11 -->
<g id="node12" class="node">
<title>N11</title>
<ellipse fill="none" stroke="black" cx="265" cy="-456.75" rx="27" ry="18"/>
<text text-anchor="middle" x="265" y="-451.32" font-family="Times New Roman,serif" font-size="14.00">N11</text>
</g>
<!-- N11&#45;&gt;N8 -->
<g id="edge13" class="edge">
<title>N11&#45;&gt;N8</title>
<path fill="none" stroke="black" d="M280.58,-441.97C296.19,-428.18 320.4,-406.77 338.37,-390.89"/>
<polygon fill="black" stroke="black" points="339.96,-394.27 345.13,-385.03 335.32,-389.03 339.96,-394.27"/>
<text text-anchor="middle" x="334" y="-407.45" font-family="Times New Roman,serif" font-size="14.00">1.00</text>
</g>
<!-- N15 -->
<g id="node16" class="node">
<title>N15</title>
<ellipse fill="none" stroke="black" cx="263" cy="-369" rx="27" ry="18"/>
<text text-anchor="middle" x="263" y="-363.57" font-family="Times New Roman,serif" font-size="14.00">N15</text>
</g>
<!-- N11&#45;&gt;N15 -->
<g id="edge20" class="edge">
<title>N11&#45;&gt;N15</title>
<path fill="none" stroke="black" d="M264.6,-438.4C264.33,-426.89 263.97,-411.53 263.66,-398.28"/>
<polygon fill="black" stroke="black" points="267.14,-398.24 263.4,-388.33 260.14,-398.41 267.14,-398.24"/>
<text text-anchor="middle" x="276" y="-407.45" font-family="Times New Roman,serif" font-size="14.00">1.00</text>
</g>
<!-- N12 -->
<g id="node13" class="node">
<title>N12</title>
<ellipse fill="none" stroke="black" cx="99" cy="-632.25" rx="27" ry="18"/>
<text text-anchor="middle" x="99" y="-626.83" font-family="Times New Roman,serif" font-size="14.00">N12</text>
</g>
<!-- N13&#45;&gt;N11 -->
<g id="edge16" class="edge">
<title>N13&#45;&gt;N11</title>
<path fill="none" stroke="black" d="M274.4,-527.8C271.05,-521.99 267.77,-515.18 266,-508.5 264.09,-501.26 263.33,-493.23 263.18,-485.74"/>
<polygon fill="black" stroke="black" points="266.69,-486 263.34,-475.95 259.69,-485.89 266.69,-486"/>
<text text-anchor="middle" x="278" y="-495.2" font-family="Times New Roman,serif" font-size="14.00">1.00</text>
</g>
<!-- N18 -->
<g id="node19" class="node">
<title>N18</title>
<ellipse fill="none" stroke="black" cx="344" cy="-456.75" rx="27" ry="18"/>
<text text-anchor="middle" x="344" y="-451.32" font-family="Times New Roman,serif" font-size="14.00">N18</text>
</g>
<!-- N13&#45;&gt;N18 -->
<g id="edge23" class="edge">
<title>N13&#45;&gt;N18</title>
<path fill="none" stroke="black" d="M292.95,-526.95C298.14,-516.76 305.34,-503.6 313,-492.75 315.87,-488.69 319.14,-484.56 322.46,-480.64"/>
<polygon fill="black" stroke="black" points="324.67,-483.29 328.65,-473.48 319.41,-478.66 324.67,-483.29"/>
<text text-anchor="middle" x="325" y="-495.2" font-family="Times New Roman,serif" font-size="14.00">1.00</text>
</g>
<!-- N14 -->
<g id="node15" class="node">
<title>N14</title>
<ellipse fill="none" stroke="black" cx="329" cy="-105.75" rx="27" ry="18"/>
<text text-anchor="middle" x="329" y="-100.33" font-family="Times New Roman,serif" font-size="14.00">N14</text>
</g>
<!-- N15&#45;&gt;N5 -->
<g id="edge8" class="edge">
<title>N15&#45;&gt;N5</title>
<path fill="none" stroke="black" d="M261.79,-350.65C260.98,-339.14 259.91,-323.78 258.98,-310.53"/>
<polygon fill="black" stroke="black" points="262.4,-310.31 258.21,-300.58 255.42,-310.8 262.4,-310.31"/>
<text text-anchor="middle" x="272" y="-319.7" font-family="Times New Roman,serif" font-size="14.00">1.00</text>
</g>
<!-- N16&#45;&gt;N10 -->
<g id="edge15" class="edge">
<title>N16&#45;&gt;N10</title>
<path fill="none" stroke="black" d="M65.97,-702.87C59.04,-690.49 49.34,-673.16 41.35,-658.89"/>
<polygon fill="black" stroke="black" points="44.09,-657.61 36.15,-650.6 37.98,-661.03 44.09,-657.61"/>
<text text-anchor="middle" x="68" y="-670.7" font-family="Times New Roman,serif" font-size="14.00">1.00</text>
</g>
<!-- N16&#45;&gt;N12 -->
<g id="edge17" class="edge">
<title>N16&#45;&gt;N12</title>
<path fill="none" stroke="black" d="M79.74,-702.06C83.04,-690.27 87.51,-674.3 91.31,-660.71"/>
<polygon fill="black" stroke="black" points="94.86,-662.02 94.19,-651.45 88.12,-660.14 94.86,-662.02"/>
<text text-anchor="middle" x="101" y="-670.7" font-family="Times New Roman,serif" font-size="14.00">1.00</text>
</g>
<!-- N17 -->
<g id="node18" class="node">
<title>N17</title>
<ellipse fill="none" stroke="black" cx="257" cy="-720" rx="27" ry="18"/>
<text text-anchor="middle" x="257" y="-714.58" font-family="Times New Roman,serif" font-size="14.00">N17</text>
</g>
<!-- N17&#45;&gt;N2 -->
<g id="edge3" class="edge">
<title>N17&#45;&gt;N2</title>
<path fill="none" stroke="black" d="M262.53,-702.06C266.41,-690.2 271.66,-674.09 276.12,-660.45"/>
<polygon fill="black" stroke="black" points="279.7,-661.75 279.48,-651.16 273.05,-659.58 279.7,-661.75"/>
<text text-anchor="middle" x="285" y="-670.7" font-family="Times New Roman,serif" font-size="14.00">1.00</text>
</g>
<!-- N18&#45;&gt;N4 -->
<g id="edge6" class="edge">
<title>N18&#45;&gt;N4</title>
<path fill="none" stroke="black" d="M346.25,-475.12C348.3,-492.42 351,-519.75 351,-543.5 351,-808.75 351,-808.75 351,-808.75 351,-838.86 324.33,-862.93 301.98,-877.81"/>
<polygon fill="black" stroke="black" points="300.35,-875.33 293.76,-883.62 304.08,-881.25 300.35,-875.33"/>
<text text-anchor="middle" x="363" y="-670.7" font-family="Times New Roman,serif" font-size="14.00">1.00</text>
</g>
<!-- N19 -->
<g id="node20" class="node">
<title>N19</title>
<ellipse fill="none" stroke="black" cx="147" cy="-720" rx="27" ry="18"/>
<text text-anchor="middle" x="147" y="-714.58" font-family="Times New Roman,serif" font-size="14.00">N19</text>
</g>
<!-- N21&#45;&gt;N4 -->
<g id="edge7" class="edge">
<title>N21&#45;&gt;N4</title>
<path fill="none" stroke="black" d="M221.72,-826.11C220.63,-836.36 220.81,-849.29 226,-859.5 229.69,-866.76 235.66,-872.93 242.09,-877.98"/>
<polygon fill="black" stroke="black" points="239.78,-881.32 249.99,-884.16 243.77,-875.58 239.78,-881.32"/>
<text text-anchor="middle" x="238" y="-846.2" font-family="Times New Roman,serif" font-size="14.00">1.00</text>
</g>
<!-- N21&#45;&gt;N17 -->
<g id="edge22" class="edge">
<title>N21&#45;&gt;N17</title>
<path fill="none" stroke="black" d="M231.32,-789.81C235.75,-777.95 241.76,-761.84 246.85,-748.2"/>
<polygon fill="black" stroke="black" points="250.47,-749.5 250.69,-738.91 243.92,-747.05 250.47,-749.5"/>
<text text-anchor="middle" x="255" y="-758.45" font-family="Times New Roman,serif" font-size="14.00">1.00</text>
</g>
<!-- N21&#45;&gt;N19 -->
<g id="edge24" class="edge">
<title>N21&#45;&gt;N19</title>
<path fill="none" stroke="black" d="M201.63,-798.18C188.92,-792.45 173.83,-783.74 164,-771.75 158.57,-765.13 154.85,-756.7 152.31,-748.62"/>
<polygon fill="black" stroke="black" points="155.45,-747.81 149.53,-739.03 148.68,-749.59 155.45,-747.81"/>
<text text-anchor="middle" x="176" y="-758.45" font-family="Times New Roman,serif" font-size="14.00">1.00</text>
</g>
<!-- N21&#45;&gt;N23 -->
<g id="edge30" class="edge">
<title>N21&#45;&gt;N23</title>
<path fill="none" stroke="black" d="M217.72,-790.02C210.98,-772.99 202,-745.66 202,-721 202,-721 202,-721 202,-280.25 202,-255.4 218.57,-232 233.52,-215.94"/>
<polygon fill="black" stroke="black" points="235.57,-218.82 240.09,-209.24 230.58,-213.91 235.57,-218.82"/>
<text text-anchor="middle" x="214" y="-495.2" font-family="Times New Roman,serif" font-size="14.00">1.00</text>
</g>
<!-- N22&#45;&gt;N23 -->
<g id="edge31" class="edge">
<title>N22&#45;&gt;N23</title>
<path fill="none" stroke="black" d="M189.49,-36.05C187.07,-57.4 185.31,-94.7 197,-123.75 204.49,-142.37 219.27,-159.4 232.28,-171.85"/>
<polygon fill="black" stroke="black" points="229.33,-173.82 239.07,-177.99 234.06,-168.65 229.33,-173.82"/>
<text text-anchor="middle" x="209" y="-100.33" font-family="Times New Roman,serif" font-size="14.00">1.00</text>
</g>
<!-- N23&#45;&gt;N6 -->
<g id="edge9" class="edge">
<title>N23&#45;&gt;N6</title>
<path fill="none" stroke="black" d="M257,-175.15C257,-163.64 257,-148.28 257,-135.03"/>
<polygon fill="black" stroke="black" points="260.5,-135.08 257,-125.08 253.5,-135.08 260.5,-135.08"/>
<text text-anchor="middle" x="269" y="-144.2" font-family="Times New Roman,serif" font-size="14.00">1.00</text>
</g>
<!-- N23&#45;&gt;N14 -->
<g id="edge19" class="edge">
<title>N23&#45;&gt;N14</title>
<path fill="none" stroke="black" d="M269.87,-177.17C280.83,-164.12 296.74,-145.17 309.3,-130.22"/>
<polygon fill="black" stroke="black" points="312.49,-132.86 316.24,-122.95 307.13,-128.36 312.49,-132.86"/>
<text text-anchor="middle" x="311" y="-144.2" font-family="Times New Roman,serif" font-size="14.00">1.00</text>
</g>
<!-- E0 -->
<g id="node25" class="node">
<title>E0</title>
<ellipse fill="none" stroke="black" cx="66" cy="-895.5" rx="27" ry="18"/>
<text text-anchor="middle" x="66" y="-890.08" font-family="Times New Roman,serif" font-size="14.00">E0</text>
</g>
<!-- E0&#45;&gt;N7 -->
<g id="edge12" class="edge">
<title>E0&#45;&gt;N7</title>
<path fill="none" stroke="black" d="M69.18,-877.46C71.15,-867.55 73.9,-854.87 77,-843.75 77.7,-841.24 78.48,-838.65 79.29,-836.07"/>
<polygon fill="black" stroke="black" points="82.9,-837.31 82.74,-826.71 76.26,-835.1 82.9,-837.31"/>
<text text-anchor="middle" x="89" y="-846.2" font-family="Times New Roman,serif" font-size="14.00">1.00</text>
</g>
</g>
</svg>
