<?xml version="1.0" encoding="UTF-8" standalone="no"?>
<!DOCTYPE svg PUBLIC "-//W3C//DTD SVG 1.1//EN"
 "http://www.w3.org/Graphics/SVG/1.1/DTD/svg11.dtd">
<!-- Generated by graphviz version 8.0.5 (20230430.1635)
 -->
<!-- Pages: 1 -->
<svg width="357pt" height="307pt"
 viewBox="0.00 0.00 357.00 307.25" xmlns="http://www.w3.org/2000/svg" xmlns:xlink="http://www.w3.org/1999/xlink">
<g id="graph0" class="graph" transform="scale(1 1) rotate(0) translate(4 303.25)">
<polygon fill="white" stroke="none" points="-4,4 -4,-303.25 353,-303.25 353,4 -4,4"/>
<!-- N0 -->
<g id="node1" class="node">
<title>N0</title>
<ellipse fill="none" stroke="black" cx="248" cy="-18" rx="27" ry="18"/>
<text text-anchor="middle" x="248" y="-12.57" font-family="Times New Roman,serif" font-size="14.00">N0</text>
</g>
<!-- N1 -->
<g id="node2" class="node">
<title>N1</title>
<ellipse fill="none" stroke="black" cx="250" cy="-105.75" rx="27" ry="18"/>
<text text-anchor="middle" x="250" y="-100.33" font-family="Times New Roman,serif" font-size="14.00">N1</text>
</g>
<!-- N1&#45;&gt;N0 -->
<g id="edge1" class="edge">
<title>N1&#45;&gt;N0</title>
<path fill="none" stroke="black" d="M249.6,-87.4C249.33,-75.89 248.97,-60.53 248.66,-47.28"/>
<polygon fill="black" stroke="black" points="252.14,-47.24 248.4,-37.33 245.14,-47.41 252.14,-47.24"/>
<text text-anchor="middle" x="261" y="-56.45" font-family="Times New Roman,serif" font-size="14.00">1.00</text>
</g>
<!-- N2 -->
<g id="node3" class="node">
<title>N2</title>
<ellipse fill="none" stroke="black" cx="320" cy="-18" rx="27" ry="18"/>
<text text-anchor="middle" x="320" y="-12.57" font-family="Times New Roman,serif" font-size="14.00">N2</text>
</g>
<!-- N1&#45;&gt;N2 -->
<g id="edge3" class="edge">
<title>N1&#45;&gt;N2</title>
<path fill="none" stroke="black" d="M262.51,-89.42C273.17,-76.37 288.63,-57.42 300.84,-42.47"/>
<polygon fill="black" stroke="black" points="303.98,-45.16 307.59,-35.2 298.56,-40.73 303.98,-45.16"/>
<text text-anchor="middle" x="303" y="-56.45" font-family="Times New Roman,serif" font-size="14.00">1.00</text>
</g>
<!-- N3 -->
<g id="node4" class="node">
<title>N3</title>
<ellipse fill="none" stroke="black" cx="159" cy="-193.5" rx="27" ry="18"/>
<text text-anchor="middle" x="159" y="-188.07" font-family="Times New Roman,serif" font-size="14.00">N3</text>
</g>
<!-- N4 -->
<g id="node5" class="node">
<title>N4</title>
<ellipse fill="none" stroke="black" cx="27" cy="-18" rx="27" ry="18"/>
<text text-anchor="middle" x="27" y="-12.57" font-family="Times New Roman,serif" font-size="14.00">N4</text>
</g>
<!-- N5 -->
<g id="node6" class="node">
<title>N5</title>
<ellipse fill="none" stroke="black" cx="231" cy="-193.5" rx="27" ry="18"/>
<text text-anchor="middle" x="231" y="-188.07" font-family="Times New Roman,serif" font-size="14.00">N5</text>
</g>
<!-- N7 -->
<g id="node8" class="node">
<title>N7</title>
<ellipse fill="none" stroke="black" cx="99" cy="-105.75" rx="27" ry="18"/>
<text text-anchor="middle" x="99" y="-100.33" font-family="Times New Roman,serif" font-size="14.00">N7</text>
</g>
<!-- N5&#45;&gt;N7 -->
<g id="edge9" class="edge">
<title>N5&#45;&gt;N7</title>
<path fill="none" stroke="black" d="M212.09,-180.21C189.84,-165.76 152.69,-141.63 127.07,-124.99"/>
<polygon fill="black" stroke="black" points="129.17,-121.53 118.88,-119.01 125.36,-127.4 129.17,-121.53"/>
<text text-anchor="middle" x="189" y="-144.2" font-family="Times New Roman,serif" font-size="14.00">1.00</text>
</g>
<!-- N6 -->
<g id="node7" class="node">
<title>N6</title>
<ellipse fill="none" stroke="black" cx="303" cy="-193.5" rx="27" ry="18"/>
<text text-anchor="middle" x="303" y="-188.07" font-family="Times New Roman,serif" font-size="14.00">N6</text>
</g>
<!-- N6&#45;&gt;N1 -->
<g id="edge2" class="edge">
<title>N6&#45;&gt;N1</title>
<path fill="none" stroke="black" d="M293.03,-176.37C285.33,-163.91 274.53,-146.44 265.68,-132.12"/>
<polygon fill="black" stroke="black" points="268.16,-130.47 259.92,-123.81 262.2,-134.15 268.16,-130.47"/>
<text text-anchor="middle" x="293" y="-144.2" font-family="Times New Roman,serif" font-size="14.00">1.00</text>
</g>
<!-- N8 -->
<g id="node9" class="node">
<title>N8</title>
<ellipse fill="none" stroke="black" cx="322" cy="-105.75" rx="27" ry="18"/>
<text text-anchor="middle" x="322" y="-100.33" font-family="Times New Roman,serif" font-size="14.00">N8</text>
</g>
<!-- N6&#45;&gt;N8 -->
<g id="edge10" class="edge">
<title>N6&#45;&gt;N8</title>
<path fill="none" stroke="black" d="M306.75,-175.56C309.34,-163.89 312.83,-148.12 315.83,-134.62"/>
<polygon fill="black" stroke="black" points="319.44,-135.47 318.19,-124.95 312.61,-133.96 319.44,-135.47"/>
<text text-anchor="middle" x="326" y="-144.2" font-family="Times New Roman,serif" font-size="14.00">1.00</text>
</g>
<!-- N7&#45;&gt;N4 -->
<g id="edge5" class="edge">
<title>N7&#45;&gt;N4</title>
<path fill="none" stroke="black" d="M86.13,-89.42C75.17,-76.37 59.26,-57.42 46.7,-42.47"/>
<polygon fill="black" stroke="black" points="48.87,-40.61 39.76,-35.2 43.51,-45.11 48.87,-40.61"/>
<text text-anchor="middle" x="82" y="-56.45" font-family="Times New Roman,serif" font-size="14.00">1.00</text>
</g>
<!-- N9 -->
<g id="node10" class="node">
<title>N9</title>
<ellipse fill="none" stroke="black" cx="183" cy="-281.25" rx="27" ry="18"/>
<text text-anchor="middle" x="183" y="-275.82" font-family="Times New Roman,serif" font-size="14.00">N9</text>
</g>
<!-- N7&#45;&gt;N9 -->
<g id="edge11" class="edge">
<title>N7&#45;&gt;N9</title>
<path fill="none" stroke="black" d="M94.75,-123.68C90.27,-145.23 85.53,-183.07 99,-211.5 109.97,-234.66 133,-252.62 152.17,-264.37"/>
<polygon fill="black" stroke="black" points="150.08,-267.78 160.49,-269.78 153.6,-261.73 150.08,-267.78"/>
<text text-anchor="middle" x="111" y="-188.07" font-family="Times New Roman,serif" font-size="14.00">1.00</text>
</g>
<!-- N10 -->
<g id="node11" class="node">
<title>N10</title>
<ellipse fill="none" stroke="black" cx="99" cy="-18" rx="27" ry="18"/>
<text text-anchor="middle" x="99" y="-12.57" font-family="Times New Roman,serif" font-size="14.00">N10</text>
</g>
<!-- N7&#45;&gt;N10 -->
<g id="edge12" class="edge">
<title>N7&#45;&gt;N10</title>
<path fill="none" stroke="black" d="M99,-87.4C99,-75.89 99,-60.53 99,-47.28"/>
<polygon fill="black" stroke="black" points="102.5,-47.33 99,-37.33 95.5,-47.33 102.5,-47.33"/>
<text text-anchor="middle" x="111" y="-56.45" font-family="Times New Roman,serif" font-size="14.00">1.00</text>
</g>
<!-- N11 -->
<g id="node12" class="node">
<title>N11</title>
<ellipse fill="none" stroke="black" cx="171" cy="-18" rx="27" ry="18"/>
<text text-anchor="middle" x="171" y="-12.57" font-family="Times New Roman,serif" font-size="14.00">N11</text>
</g>
<!-- N7&#45;&gt;N11 -->
<g id="edge13" class="edge">
<title>N7&#45;&gt;N11</title>
<path fill="none" stroke="black" d="M111.87,-89.42C122.83,-76.37 138.74,-57.42 151.3,-42.47"/>
<polygon fill="black" stroke="black" points="154.49,-45.11 158.24,-35.2 149.13,-40.61 154.49,-45.11"/>
<text text-anchor="middle" x="154" y="-56.45" font-family="Times New Roman,serif" font-size="14.00">1.00</text>
</g>
<!-- N9&#45;&gt;N3 -->
<g id="edge4" class="edge">
<title>N9&#45;&gt;N3</title>
<path fill="none" stroke="black" d="M170.81,-264.74C166.94,-258.95 163.12,-252.11 161,-245.25 158.78,-238.09 157.82,-230.09 157.52,-222.6"/>
<polygon fill="black" stroke="black" points="161.02,-222.78 157.5,-212.79 154.02,-222.8 161.02,-222.78"/>
<text text-anchor="middle" x="173" y="-231.95" font-family="Times New Roman,serif" font-size="14.00">1.00</text>
</g>
<!-- N9&#45;&gt;N5 -->
<g id="edge6" class="edge">
<title>N9&#45;&gt;N5</title>
<path fill="none" stroke="black" d="M191.07,-263.6C196.03,-253.6 202.64,-240.69 209,-229.5 210.87,-226.22 212.9,-222.81 214.94,-219.46"/>
<polygon fill="black" stroke="black" points="218.3,-221.69 220.62,-211.35 212.36,-217.98 218.3,-221.69"/>
<text text-anchor="middle" x="221" y="-231.95" font-family="Times New Roman,serif" font-size="14.00">1.00</text>
</g>
<!-- N9&#45;&gt;N6 -->
<g id="edge7" class="edge">
<title>N9&#45;&gt;N6</title>
<path fill="none" stroke="black" d="M201.1,-267.69C210.62,-261.05 222.47,-252.75 233,-245.25 247.5,-234.92 263.59,-223.26 276.69,-213.73"/>
<polygon fill="black" stroke="black" points="278.2,-216.23 284.22,-207.51 274.08,-210.58 278.2,-216.23"/>
<text text-anchor="middle" x="266" y="-231.95" font-family="Times New Roman,serif" font-size="14.00">1.00</text>
</g>
<!-- E0 -->
<g id="node13" class="node">
<title>E0</title>
<ellipse fill="none" stroke="black" cx="303" cy="-281.25" rx="27" ry="18"/>
<text text-anchor="middle" x="303" y="-275.82" font-family="Times New Roman,serif" font-size="14.00">E0</text>
</g>
<!-- E0&#45;&gt;N6 -->
<g id="edge8" class="edge">
<title>E0&#45;&gt;N6</title>
<path fill="none" stroke="black" d="M303,-262.9C303,-251.39 303,-236.03 303,-222.78"/>
<polygon fill="black" stroke="black" points="306.5,-222.83 303,-212.83 299.5,-222.83 306.5,-222.83"/>
<text text-anchor="middle" x="315" y="-231.95" font-family="Times New Roman,serif" font-size="14.00">1.00</text>
</g>
</g>
</svg>
