<?xml version="1.0" encoding="UTF-8" standalone="no"?>
<!DOCTYPE svg PUBLIC "-//W3C//DTD SVG 1.1//EN"
 "http://www.w3.org/Graphics/SVG/1.1/DTD/svg11.dtd">
<!-- Generated by graphviz version 8.0.5 (20230430.1635)
 -->
<!-- Pages: 1 -->
<svg width="221pt" height="483pt"
 viewBox="0.00 0.00 221.00 482.75" xmlns="http://www.w3.org/2000/svg" xmlns:xlink="http://www.w3.org/1999/xlink">
<g id="graph0" class="graph" transform="scale(1 1) rotate(0) translate(4 478.75)">
<polygon fill="white" stroke="none" points="-4,4 -4,-478.75 217,-478.75 217,4 -4,4"/>
<!-- N0 -->
<g id="node1" class="node">
<title>N0</title>
<ellipse fill="none" stroke="black" cx="186" cy="-18" rx="27" ry="18"/>
<text text-anchor="middle" x="186" y="-12.57" font-family="Times New Roman,serif" font-size="14.00">N0</text>
</g>
<!-- N1 -->
<g id="node2" class="node">
<title>N1</title>
<ellipse fill="none" stroke="black" cx="27" cy="-193.5" rx="27" ry="18"/>
<text text-anchor="middle" x="27" y="-188.07" font-family="Times New Roman,serif" font-size="14.00">N1</text>
</g>
<!-- N7 -->
<g id="node8" class="node">
<title>N7</title>
<ellipse fill="none" stroke="black" cx="31" cy="-18" rx="27" ry="18"/>
<text text-anchor="middle" x="31" y="-12.57" font-family="Times New Roman,serif" font-size="14.00">N7</text>
</g>
<!-- N1&#45;&gt;N7 -->
<g id="edge10" class="edge">
<title>N1&#45;&gt;N7</title>
<path fill="none" stroke="black" d="M27.4,-175.23C28.09,-145.3 29.51,-83.52 30.35,-47.26"/>
<polygon fill="black" stroke="black" points="33.87,-47.54 30.6,-37.46 26.87,-47.37 33.87,-47.54"/>
<text text-anchor="middle" x="42" y="-100.33" font-family="Times New Roman,serif" font-size="14.00">1.00</text>
</g>
<!-- N2 -->
<g id="node3" class="node">
<title>N2</title>
<ellipse fill="none" stroke="black" cx="107" cy="-105.75" rx="27" ry="18"/>
<text text-anchor="middle" x="107" y="-100.33" font-family="Times New Roman,serif" font-size="14.00">N2</text>
</g>
<!-- N2&#45;&gt;N0 -->
<g id="edge1" class="edge">
<title>N2&#45;&gt;N0</title>
<path fill="none" stroke="black" d="M120.76,-89.81C133,-76.53 151.06,-56.92 165.09,-41.7"/>
<polygon fill="black" stroke="black" points="167.2,-44.49 171.4,-34.77 162.05,-39.75 167.2,-44.49"/>
<text text-anchor="middle" x="165" y="-56.45" font-family="Times New Roman,serif" font-size="14.00">1.00</text>
</g>
<!-- N3 -->
<g id="node4" class="node">
<title>N3</title>
<ellipse fill="none" stroke="black" cx="107" cy="-18" rx="27" ry="18"/>
<text text-anchor="middle" x="107" y="-12.57" font-family="Times New Roman,serif" font-size="14.00">N3</text>
</g>
<!-- N2&#45;&gt;N3 -->
<g id="edge6" class="edge">
<title>N2&#45;&gt;N3</title>
<path fill="none" stroke="black" d="M107,-87.4C107,-75.89 107,-60.53 107,-47.28"/>
<polygon fill="black" stroke="black" points="110.5,-47.33 107,-37.33 103.5,-47.33 110.5,-47.33"/>
<text text-anchor="middle" x="119" y="-56.45" font-family="Times New Roman,serif" font-size="14.00">1.00</text>
</g>
<!-- N2&#45;&gt;N7 -->
<g id="edge11" class="edge">
<title>N2&#45;&gt;N7</title>
<path fill="none" stroke="black" d="M93.76,-89.81C82.06,-76.61 64.82,-57.16 51.37,-41.98"/>
<polygon fill="black" stroke="black" points="54.59,-40.22 45.34,-35.05 49.36,-44.86 54.59,-40.22"/>
<text text-anchor="middle" x="87" y="-56.45" font-family="Times New Roman,serif" font-size="14.00">1.00</text>
</g>
<!-- N4 -->
<g id="node5" class="node">
<title>N4</title>
<ellipse fill="none" stroke="black" cx="96" cy="-281.25" rx="27" ry="18"/>
<text text-anchor="middle" x="96" y="-275.82" font-family="Times New Roman,serif" font-size="14.00">N4</text>
</g>
<!-- N4&#45;&gt;N1 -->
<g id="edge3" class="edge">
<title>N4&#45;&gt;N1</title>
<path fill="none" stroke="black" d="M83.66,-264.92C73.23,-251.95 58.11,-233.16 46.11,-218.24"/>
<polygon fill="black" stroke="black" points="48.46,-216.58 39.46,-210.99 43,-220.97 48.46,-216.58"/>
<text text-anchor="middle" x="79" y="-231.95" font-family="Times New Roman,serif" font-size="14.00">1.00</text>
</g>
<!-- N6 -->
<g id="node7" class="node">
<title>N6</title>
<ellipse fill="none" stroke="black" cx="107" cy="-193.5" rx="27" ry="18"/>
<text text-anchor="middle" x="107" y="-188.07" font-family="Times New Roman,serif" font-size="14.00">N6</text>
</g>
<!-- N4&#45;&gt;N6 -->
<g id="edge9" class="edge">
<title>N4&#45;&gt;N6</title>
<path fill="none" stroke="black" d="M98.23,-262.9C99.72,-251.27 101.71,-235.72 103.42,-222.38"/>
<polygon fill="black" stroke="black" points="106.98,-223.19 104.78,-212.83 100.03,-222.3 106.98,-223.19"/>
<text text-anchor="middle" x="114" y="-231.95" font-family="Times New Roman,serif" font-size="14.00">1.00</text>
</g>
<!-- N5 -->
<g id="node6" class="node">
<title>N5</title>
<ellipse fill="none" stroke="black" cx="43" cy="-369" rx="27" ry="18"/>
<text text-anchor="middle" x="43" y="-363.57" font-family="Times New Roman,serif" font-size="14.00">N5</text>
</g>
<!-- N5&#45;&gt;N1 -->
<g id="edge4" class="edge">
<title>N5&#45;&gt;N1</title>
<path fill="none" stroke="black" d="M41.17,-350.77C39.71,-336.87 37.65,-316.81 36,-299.25 33.57,-273.34 31.05,-243.79 29.3,-222.7"/>
<polygon fill="black" stroke="black" points="32.72,-222.61 28.41,-212.93 25.75,-223.18 32.72,-222.61"/>
<text text-anchor="middle" x="48" y="-275.82" font-family="Times New Roman,serif" font-size="14.00">1.00</text>
</g>
<!-- N5&#45;&gt;N4 -->
<g id="edge7" class="edge">
<title>N5&#45;&gt;N4</title>
<path fill="none" stroke="black" d="M52.97,-351.87C60.67,-339.41 71.47,-321.94 80.32,-307.62"/>
<polygon fill="black" stroke="black" points="83.8,-309.65 86.08,-299.31 77.84,-305.97 83.8,-309.65"/>
<text text-anchor="middle" x="86" y="-319.7" font-family="Times New Roman,serif" font-size="14.00">1.00</text>
</g>
<!-- N6&#45;&gt;N0 -->
<g id="edge2" class="edge">
<title>N6&#45;&gt;N0</title>
<path fill="none" stroke="black" d="M120.27,-177.34C125.19,-171.37 130.63,-164.31 135,-157.5 158.53,-120.76 166.07,-111.42 179,-69.75 181.24,-62.53 182.77,-54.51 183.8,-47.02"/>
<polygon fill="black" stroke="black" points="187.38,-47.55 185.03,-37.22 180.42,-46.76 187.38,-47.55"/>
<text text-anchor="middle" x="184" y="-100.33" font-family="Times New Roman,serif" font-size="14.00">1.00</text>
</g>
<!-- N6&#45;&gt;N2 -->
<g id="edge5" class="edge">
<title>N6&#45;&gt;N2</title>
<path fill="none" stroke="black" d="M107,-175.15C107,-163.64 107,-148.28 107,-135.03"/>
<polygon fill="black" stroke="black" points="110.5,-135.08 107,-125.08 103.5,-135.08 110.5,-135.08"/>
<text text-anchor="middle" x="119" y="-144.2" font-family="Times New Roman,serif" font-size="14.00">1.00</text>
</g>
<!-- E0 -->
<g id="node9" class="node">
<title>E0</title>
<ellipse fill="none" stroke="black" cx="43" cy="-456.75" rx="27" ry="18"/>
<text text-anchor="middle" x="43" y="-451.32" font-family="Times New Roman,serif" font-size="14.00">E0</text>
</g>
<!-- E0&#45;&gt;N5 -->
<g id="edge8" class="edge">
<title>E0&#45;&gt;N5</title>
<path fill="none" stroke="black" d="M43,-438.4C43,-426.89 43,-411.53 43,-398.28"/>
<polygon fill="black" stroke="black" points="46.5,-398.33 43,-388.33 39.5,-398.33 46.5,-398.33"/>
<text text-anchor="middle" x="55" y="-407.45" font-family="Times New Roman,serif" font-size="14.00">1.00</text>
</g>
</g>
</svg>
