<?xml version="1.0" encoding="UTF-8" standalone="no"?>
<!DOCTYPE svg PUBLIC "-//W3C//DTD SVG 1.1//EN"
 "http://www.w3.org/Graphics/SVG/1.1/DTD/svg11.dtd">
<!-- Generated by graphviz version 8.0.5 (20230430.1635)
 -->
<!-- Pages: 1 -->
<svg width="400pt" height="307pt"
 viewBox="0.00 0.00 400.00 307.25" xmlns="http://www.w3.org/2000/svg" xmlns:xlink="http://www.w3.org/1999/xlink">
<g id="graph0" class="graph" transform="scale(1 1) rotate(0) translate(4 303.25)">
<polygon fill="white" stroke="none" points="-4,4 -4,-303.25 396,-303.25 396,4 -4,4"/>
<!-- N1 -->
<g id="node1" class="node">
<title>N1</title>
<ellipse fill="none" stroke="black" cx="213" cy="-193.5" rx="27" ry="18"/>
<text text-anchor="middle" x="213" y="-188.07" font-family="Times New Roman,serif" font-size="14.00">N1</text>
</g>
<!-- N3 -->
<g id="node3" class="node">
<title>N3</title>
<ellipse fill="none" stroke="black" cx="124" cy="-105.75" rx="27" ry="18"/>
<text text-anchor="middle" x="124" y="-100.33" font-family="Times New Roman,serif" font-size="14.00">N3</text>
</g>
<!-- N1&#45;&gt;N3 -->
<g id="edge3" class="edge">
<title>N1&#45;&gt;N3</title>
<path fill="none" stroke="black" d="M199.22,-178.05C189.31,-167.76 175.53,-153.71 163,-141.75 158.19,-137.16 152.96,-132.34 147.92,-127.8"/>
<polygon fill="black" stroke="black" points="150.55,-125.56 140.76,-121.5 145.88,-130.78 150.55,-125.56"/>
<text text-anchor="middle" x="190" y="-144.2" font-family="Times New Roman,serif" font-size="14.00">0.25</text>
</g>
<!-- N7 -->
<g id="node7" class="node">
<title>N7</title>
<ellipse fill="none" stroke="black" cx="285" cy="-105.75" rx="27" ry="18"/>
<text text-anchor="middle" x="285" y="-100.33" font-family="Times New Roman,serif" font-size="14.00">N7</text>
</g>
<!-- N1&#45;&gt;N7 -->
<g id="edge11" class="edge">
<title>N1&#45;&gt;N7</title>
<path fill="none" stroke="black" d="M225.87,-177.17C236.83,-164.12 252.74,-145.17 265.3,-130.22"/>
<polygon fill="black" stroke="black" points="268.49,-132.86 272.24,-122.95 263.13,-128.36 268.49,-132.86"/>
<text text-anchor="middle" x="267" y="-144.2" font-family="Times New Roman,serif" font-size="14.00">0.33</text>
</g>
<!-- N2 -->
<g id="node2" class="node">
<title>N2</title>
<ellipse fill="none" stroke="black" cx="204" cy="-281.25" rx="27" ry="18"/>
<text text-anchor="middle" x="204" y="-275.82" font-family="Times New Roman,serif" font-size="14.00">N2</text>
</g>
<!-- N2&#45;&gt;N2 -->
<g id="edge2" class="edge">
<title>N2&#45;&gt;N2</title>
<path fill="none" stroke="black" d="M228.53,-289.35C239.51,-290.12 249,-287.42 249,-281.25 249,-277.3 245.1,-274.77 239.42,-273.67"/>
<polygon fill="black" stroke="black" points="239.69,-270.13 229.53,-273.15 239.36,-277.12 239.69,-270.13"/>
<text text-anchor="middle" x="261" y="-275.82" font-family="Times New Roman,serif" font-size="14.00">1.00</text>
</g>
<!-- N6 -->
<g id="node6" class="node">
<title>N6</title>
<ellipse fill="none" stroke="black" cx="141" cy="-193.5" rx="27" ry="18"/>
<text text-anchor="middle" x="141" y="-188.07" font-family="Times New Roman,serif" font-size="14.00">N6</text>
</g>
<!-- N2&#45;&gt;N6 -->
<g id="edge9" class="edge">
<title>N2&#45;&gt;N6</title>
<path fill="none" stroke="black" d="M192.44,-264.52C183.03,-251.71 169.58,-233.4 158.79,-218.72"/>
<polygon fill="black" stroke="black" points="161.22,-217.11 152.48,-211.13 155.58,-221.26 161.22,-217.11"/>
<text text-anchor="middle" x="190" y="-231.95" font-family="Times New Roman,serif" font-size="14.00">0.50</text>
</g>
<!-- N2&#45;&gt;N7 -->
<g id="edge12" class="edge">
<title>N2&#45;&gt;N7</title>
<path fill="none" stroke="black" d="M228.66,-273.43C269.62,-261.51 348.64,-235.85 363,-211.5 382.22,-178.89 343.21,-144.27 313.74,-124.13"/>
<polygon fill="black" stroke="black" points="315.87,-120.68 305.59,-118.11 312.02,-126.53 315.87,-120.68"/>
<text text-anchor="middle" x="380" y="-188.07" font-family="Times New Roman,serif" font-size="14.00">0.33</text>
</g>
<!-- N8 -->
<g id="node8" class="node">
<title>N8</title>
<ellipse fill="none" stroke="black" cx="77" cy="-18" rx="27" ry="18"/>
<text text-anchor="middle" x="77" y="-12.57" font-family="Times New Roman,serif" font-size="14.00">N8</text>
</g>
<!-- N3&#45;&gt;N8 -->
<g id="edge14" class="edge">
<title>N3&#45;&gt;N8</title>
<path fill="none" stroke="black" d="M117.72,-87.87C113.72,-77.78 108.14,-64.87 102,-54 100.01,-50.48 97.74,-46.88 95.4,-43.39"/>
<polygon fill="black" stroke="black" points="97.8,-41.73 89.19,-35.56 92.08,-45.75 97.8,-41.73"/>
<text text-anchor="middle" x="122" y="-56.45" font-family="Times New Roman,serif" font-size="14.00">0.50</text>
</g>
<!-- N4 -->
<g id="node4" class="node">
<title>N4</title>
<ellipse fill="none" stroke="black" cx="27" cy="-193.5" rx="27" ry="18"/>
<text text-anchor="middle" x="27" y="-188.07" font-family="Times New Roman,serif" font-size="14.00">N4</text>
</g>
<!-- N4&#45;&gt;N3 -->
<g id="edge4" class="edge">
<title>N4&#45;&gt;N3</title>
<path fill="none" stroke="black" d="M42.58,-178.72C58.19,-164.93 82.4,-143.52 100.37,-127.64"/>
<polygon fill="black" stroke="black" points="101.96,-131.02 107.13,-121.78 97.32,-125.78 101.96,-131.02"/>
<text text-anchor="middle" x="97" y="-144.2" font-family="Times New Roman,serif" font-size="14.00">0.25</text>
</g>
<!-- N4&#45;&gt;N4 -->
<g id="edge7" class="edge">
<title>N4&#45;&gt;N4</title>
<path fill="none" stroke="black" d="M51.53,-201.6C62.51,-202.37 72,-199.67 72,-193.5 72,-189.55 68.1,-187.02 62.42,-185.92"/>
<polygon fill="black" stroke="black" points="62.69,-182.38 52.53,-185.4 62.36,-189.37 62.69,-182.38"/>
<text text-anchor="middle" x="84" y="-188.07" font-family="Times New Roman,serif" font-size="14.00">1.00</text>
</g>
<!-- N4&#45;&gt;N8 -->
<g id="edge15" class="edge">
<title>N4&#45;&gt;N8</title>
<path fill="none" stroke="black" d="M31.89,-175.55C40.55,-145.49 58.67,-82.61 69.12,-46.35"/>
<polygon fill="black" stroke="black" points="72.69,-47.6 72.09,-37.02 65.96,-45.66 72.69,-47.6"/>
<text text-anchor="middle" x="69" y="-100.33" font-family="Times New Roman,serif" font-size="14.00">0.50</text>
</g>
<!-- N5 -->
<g id="node5" class="node">
<title>N5</title>
<ellipse fill="none" stroke="black" cx="90" cy="-281.25" rx="27" ry="18"/>
<text text-anchor="middle" x="90" y="-275.82" font-family="Times New Roman,serif" font-size="14.00">N5</text>
</g>
<!-- N5&#45;&gt;N5 -->
<g id="edge8" class="edge">
<title>N5&#45;&gt;N5</title>
<path fill="none" stroke="black" d="M114.53,-289.35C125.51,-290.12 135,-287.42 135,-281.25 135,-277.3 131.1,-274.77 125.42,-273.67"/>
<polygon fill="black" stroke="black" points="125.69,-270.13 115.53,-273.15 125.36,-277.12 125.69,-270.13"/>
<text text-anchor="middle" x="147" y="-275.82" font-family="Times New Roman,serif" font-size="14.00">1.00</text>
</g>
<!-- N5&#45;&gt;N6 -->
<g id="edge10" class="edge">
<title>N5&#45;&gt;N6</title>
<path fill="none" stroke="black" d="M99.59,-264.12C107,-251.66 117.39,-234.19 125.91,-219.87"/>
<polygon fill="black" stroke="black" points="129.35,-221.94 131.45,-211.56 123.33,-218.36 129.35,-221.94"/>
<text text-anchor="middle" x="133" y="-231.95" font-family="Times New Roman,serif" font-size="14.00">0.50</text>
</g>
<!-- N6&#45;&gt;N3 -->
<g id="edge5" class="edge">
<title>N6&#45;&gt;N3</title>
<path fill="none" stroke="black" d="M137.56,-175.15C135.26,-163.52 132.17,-147.97 129.53,-134.63"/>
<polygon fill="black" stroke="black" points="132.81,-134.21 127.44,-125.08 125.95,-135.57 132.81,-134.21"/>
<text text-anchor="middle" x="147" y="-144.2" font-family="Times New Roman,serif" font-size="14.00">0.25</text>
</g>
<!-- N8&#45;&gt;N3 -->
<g id="edge6" class="edge">
<title>N8&#45;&gt;N3</title>
<path fill="none" stroke="black" d="M73.72,-36.36C72.63,-46.61 72.81,-59.54 78,-69.75 81.69,-77.01 87.66,-83.18 94.09,-88.23"/>
<polygon fill="black" stroke="black" points="91.78,-91.57 101.99,-94.41 95.77,-85.83 91.78,-91.57"/>
<text text-anchor="middle" x="90" y="-56.45" font-family="Times New Roman,serif" font-size="14.00">0.25</text>
</g>
<!-- E1 -->
<g id="node9" class="node">
<title>E1</title>
<ellipse fill="none" stroke="black" cx="318" cy="-281.25" rx="27" ry="18"/>
<text text-anchor="middle" x="318" y="-275.82" font-family="Times New Roman,serif" font-size="14.00">E1</text>
</g>
<!-- E1&#45;&gt;N1 -->
<g id="edge1" class="edge">
<title>E1&#45;&gt;N1</title>
<path fill="none" stroke="black" d="M301.59,-266.85C284.59,-252.96 257.79,-231.08 238.11,-215.01"/>
<polygon fill="black" stroke="black" points="240.6,-211.7 230.64,-208.09 236.17,-217.12 240.6,-211.7"/>
<text text-anchor="middle" x="286" y="-231.95" font-family="Times New Roman,serif" font-size="14.00">1.00</text>
</g>
<!-- E1&#45;&gt;E1 -->
<g id="edge16" class="edge">
<title>E1&#45;&gt;E1</title>
<path fill="none" stroke="black" d="M342.53,-289.35C353.51,-290.12 363,-287.42 363,-281.25 363,-277.3 359.1,-274.77 353.42,-273.67"/>
<polygon fill="black" stroke="black" points="353.69,-270.13 343.53,-273.15 353.36,-277.12 353.69,-270.13"/>
<text text-anchor="middle" x="375" y="-275.82" font-family="Times New Roman,serif" font-size="14.00">1.00</text>
</g>
<!-- E2 -->
<g id="node10" class="node">
<title>E2</title>
<ellipse fill="none" stroke="black" cx="285" cy="-193.5" rx="27" ry="18"/>
<text text-anchor="middle" x="285" y="-188.07" font-family="Times New Roman,serif" font-size="14.00">E2</text>
</g>
<!-- E2&#45;&gt;N7 -->
<g id="edge13" class="edge">
<title>E2&#45;&gt;N7</title>
<path fill="none" stroke="black" d="M285,-175.15C285,-163.64 285,-148.28 285,-135.03"/>
<polygon fill="black" stroke="black" points="288.5,-135.08 285,-125.08 281.5,-135.08 288.5,-135.08"/>
<text text-anchor="middle" x="297" y="-144.2" font-family="Times New Roman,serif" font-size="14.00">0.33</text>
</g>
<!-- E2&#45;&gt;E2 -->
<g id="edge17" class="edge">
<title>E2&#45;&gt;E2</title>
<path fill="none" stroke="black" d="M309.53,-201.6C320.51,-202.37 330,-199.67 330,-193.5 330,-189.55 326.1,-187.02 320.42,-185.92"/>
<polygon fill="black" stroke="black" points="320.69,-182.38 310.53,-185.4 320.36,-189.37 320.69,-182.38"/>
<text text-anchor="middle" x="342" y="-188.07" font-family="Times New Roman,serif" font-size="14.00">1.00</text>
</g>
</g>
</svg>
