<?xml version="1.0" encoding="UTF-8" standalone="no"?>
<!DOCTYPE svg PUBLIC "-//W3C//DTD SVG 1.1//EN"
 "http://www.w3.org/Graphics/SVG/1.1/DTD/svg11.dtd">
<!-- Generated by graphviz version 8.0.5 (20230430.1635)
 -->
<!-- Pages: 1 -->
<svg width="464pt" height="220pt"
 viewBox="0.00 0.00 464.00 219.50" xmlns="http://www.w3.org/2000/svg" xmlns:xlink="http://www.w3.org/1999/xlink">
<g id="graph0" class="graph" transform="scale(1 1) rotate(0) translate(4 215.5)">
<polygon fill="white" stroke="none" points="-4,4 -4,-215.5 460,-215.5 460,4 -4,4"/>
<!-- N0 -->
<g id="node1" class="node">
<title>N0</title>
<ellipse fill="none" stroke="black" cx="27" cy="-105.75" rx="27" ry="18"/>
<text text-anchor="middle" x="27" y="-100.33" font-family="Times New Roman,serif" font-size="14.00">N0</text>
</g>
<!-- N0&#45;&gt;N0 -->
<g id="edge1" class="edge">
<title>N0&#45;&gt;N0</title>
<path fill="none" stroke="black" d="M51.53,-113.85C62.51,-114.62 72,-111.92 72,-105.75 72,-101.8 68.1,-99.27 62.42,-98.17"/>
<polygon fill="black" stroke="black" points="62.69,-94.63 52.53,-97.65 62.36,-101.62 62.69,-94.63"/>
<text text-anchor="middle" x="84" y="-100.33" font-family="Times New Roman,serif" font-size="14.00">0.50</text>
</g>
<!-- N1 -->
<g id="node2" class="node">
<title>N1</title>
<ellipse fill="none" stroke="black" cx="141" cy="-105.75" rx="27" ry="18"/>
<text text-anchor="middle" x="141" y="-100.33" font-family="Times New Roman,serif" font-size="14.00">N1</text>
</g>
<!-- N1&#45;&gt;N1 -->
<g id="edge3" class="edge">
<title>N1&#45;&gt;N1</title>
<path fill="none" stroke="black" d="M165.53,-113.85C176.51,-114.62 186,-111.92 186,-105.75 186,-101.8 182.1,-99.27 176.42,-98.17"/>
<polygon fill="black" stroke="black" points="176.69,-94.63 166.53,-97.65 176.36,-101.62 176.69,-94.63"/>
<text text-anchor="middle" x="198" y="-100.33" font-family="Times New Roman,serif" font-size="14.00">0.50</text>
</g>
<!-- N4 -->
<g id="node5" class="node">
<title>N4</title>
<ellipse fill="none" stroke="black" cx="333" cy="-18" rx="27" ry="18"/>
<text text-anchor="middle" x="333" y="-12.57" font-family="Times New Roman,serif" font-size="14.00">N4</text>
</g>
<!-- N1&#45;&gt;N4 -->
<g id="edge9" class="edge">
<title>N1&#45;&gt;N4</title>
<path fill="none" stroke="black" d="M163.02,-94.91C196.93,-79.77 262.08,-50.67 301.13,-33.23"/>
<polygon fill="black" stroke="black" points="302.23,-36.13 309.94,-28.85 299.38,-29.74 302.23,-36.13"/>
<text text-anchor="middle" x="266" y="-56.45" font-family="Times New Roman,serif" font-size="14.00">0.33</text>
</g>
<!-- N2 -->
<g id="node3" class="node">
<title>N2</title>
<ellipse fill="none" stroke="black" cx="208" cy="-193.5" rx="27" ry="18"/>
<text text-anchor="middle" x="208" y="-188.07" font-family="Times New Roman,serif" font-size="14.00">N2</text>
</g>
<!-- N2&#45;&gt;N0 -->
<g id="edge2" class="edge">
<title>N2&#45;&gt;N0</title>
<path fill="none" stroke="black" d="M186.53,-182.33C154.77,-167.28 95.1,-139.01 58.42,-121.64"/>
<polygon fill="black" stroke="black" points="60.26,-118.16 49.73,-117.04 57.27,-124.49 60.26,-118.16"/>
<text text-anchor="middle" x="146" y="-144.2" font-family="Times New Roman,serif" font-size="14.00">0.50</text>
</g>
<!-- N2&#45;&gt;N1 -->
<g id="edge4" class="edge">
<title>N2&#45;&gt;N1</title>
<path fill="none" stroke="black" d="M192.59,-178.54C186.19,-172.39 178.9,-164.89 173,-157.5 166.74,-149.66 160.66,-140.54 155.51,-132.21"/>
<polygon fill="black" stroke="black" points="158.08,-130.69 149.94,-123.91 152.08,-134.29 158.08,-130.69"/>
<text text-anchor="middle" x="185" y="-144.2" font-family="Times New Roman,serif" font-size="14.00">0.50</text>
</g>
<!-- N3 -->
<g id="node4" class="node">
<title>N3</title>
<ellipse fill="none" stroke="black" cx="255" cy="-105.75" rx="27" ry="18"/>
<text text-anchor="middle" x="255" y="-100.33" font-family="Times New Roman,serif" font-size="14.00">N3</text>
</g>
<!-- N2&#45;&gt;N3 -->
<g id="edge7" class="edge">
<title>N2&#45;&gt;N3</title>
<path fill="none" stroke="black" d="M202.78,-175.59C200.59,-165.25 199.62,-152.08 205,-141.75 209.22,-133.64 216.27,-127.03 223.77,-121.82"/>
<polygon fill="black" stroke="black" points="224.96,-124.57 231.63,-116.34 221.28,-118.62 224.96,-124.57"/>
<text text-anchor="middle" x="217" y="-144.2" font-family="Times New Roman,serif" font-size="14.00">0.50</text>
</g>
<!-- N3&#45;&gt;N2 -->
<g id="edge5" class="edge">
<title>N3&#45;&gt;N2</title>
<path fill="none" stroke="black" d="M248.72,-123.63C244.72,-133.72 239.14,-146.63 233,-157.5 231.01,-161.02 228.74,-164.62 226.4,-168.11"/>
<polygon fill="black" stroke="black" points="223.08,-165.75 220.19,-175.94 228.8,-169.77 223.08,-165.75"/>
<text text-anchor="middle" x="252" y="-144.2" font-family="Times New Roman,serif" font-size="14.00">0.50</text>
</g>
<!-- N3&#45;&gt;N3 -->
<g id="edge8" class="edge">
<title>N3&#45;&gt;N3</title>
<path fill="none" stroke="black" d="M279.53,-113.85C290.51,-114.62 300,-111.92 300,-105.75 300,-101.8 296.1,-99.27 290.42,-98.17"/>
<polygon fill="black" stroke="black" points="290.69,-94.63 280.53,-97.65 290.36,-101.62 290.69,-94.63"/>
<text text-anchor="middle" x="312" y="-100.33" font-family="Times New Roman,serif" font-size="14.00">0.50</text>
</g>
<!-- N3&#45;&gt;N4 -->
<g id="edge10" class="edge">
<title>N3&#45;&gt;N4</title>
<path fill="none" stroke="black" d="M268.59,-89.81C280.67,-76.53 298.51,-56.92 312.35,-41.7"/>
<polygon fill="black" stroke="black" points="314.43,-44.52 318.57,-34.77 309.25,-39.81 314.43,-44.52"/>
<text text-anchor="middle" x="312" y="-56.45" font-family="Times New Roman,serif" font-size="14.00">0.33</text>
</g>
<!-- N4&#45;&gt;N2 -->
<g id="edge6" class="edge">
<title>N4&#45;&gt;N2</title>
<path fill="none" stroke="black" d="M337.96,-35.97C343.32,-57.91 349.11,-96.51 333,-123.75 313.86,-156.12 273.44,-174.28 243.73,-183.7"/>
<polygon fill="black" stroke="black" points="242.92,-180.58 234.32,-186.78 244.91,-187.29 242.92,-180.58"/>
<text text-anchor="middle" x="355" y="-100.33" font-family="Times New Roman,serif" font-size="14.00">0.50</text>
</g>
<!-- E0 -->
<g id="node6" class="node">
<title>E0</title>
<ellipse fill="none" stroke="black" cx="429" cy="-105.75" rx="27" ry="18"/>
<text text-anchor="middle" x="429" y="-100.33" font-family="Times New Roman,serif" font-size="14.00">E0</text>
</g>
<!-- E0&#45;&gt;N4 -->
<g id="edge11" class="edge">
<title>E0&#45;&gt;N4</title>
<path fill="none" stroke="black" d="M413.74,-90.37C402.78,-80.12 387.6,-66.07 374,-54 368.67,-49.27 362.89,-44.26 357.39,-39.55"/>
<polygon fill="black" stroke="black" points="359.97,-36.3 350.09,-32.49 355.44,-41.63 359.97,-36.3"/>
<text text-anchor="middle" x="402" y="-56.45" font-family="Times New Roman,serif" font-size="14.00">0.33</text>
</g>
</g>
</svg>
