<?xml version="1.0" encoding="UTF-8" standalone="no"?>
<!DOCTYPE svg PUBLIC "-//W3C//DTD SVG 1.1//EN"
 "http://www.w3.org/Graphics/SVG/1.1/DTD/svg11.dtd">
<!-- Generated by graphviz version 8.0.5 (20230430.1635)
 -->
<!-- Pages: 1 -->
<svg width="310pt" height="220pt"
 viewBox="0.00 0.00 310.00 219.50" xmlns="http://www.w3.org/2000/svg" xmlns:xlink="http://www.w3.org/1999/xlink">
<g id="graph0" class="graph" transform="scale(1 1) rotate(0) translate(4 215.5)">
<polygon fill="white" stroke="none" points="-4,4 -4,-215.5 306,-215.5 306,4 -4,4"/>
<!-- N1 -->
<g id="node1" class="node">
<title>N1</title>
<ellipse fill="none" stroke="black" cx="41" cy="-18" rx="27" ry="18"/>
<text text-anchor="middle" x="41" y="-12.57" font-family="Times New Roman,serif" font-size="14.00">N1</text>
</g>
<!-- N2 -->
<g id="node2" class="node">
<title>N2</title>
<ellipse fill="none" stroke="black" cx="196" cy="-105.75" rx="27" ry="18"/>
<text text-anchor="middle" x="196" y="-100.33" font-family="Times New Roman,serif" font-size="14.00">N2</text>
</g>
<!-- N2&#45;&gt;N1 -->
<g id="edge1" class="edge">
<title>N2&#45;&gt;N1</title>
<path fill="none" stroke="black" d="M177.93,-92.11C162.19,-81.36 138.59,-65.83 117,-54 102.99,-46.32 86.99,-38.78 73.3,-32.68"/>
<polygon fill="black" stroke="black" points="74.91,-29.13 64.35,-28.31 72.1,-35.54 74.91,-29.13"/>
<text text-anchor="middle" x="155" y="-56.45" font-family="Times New Roman,serif" font-size="14.00">0.33</text>
</g>
<!-- N3 -->
<g id="node3" class="node">
<title>N3</title>
<ellipse fill="none" stroke="black" cx="64" cy="-105.75" rx="27" ry="18"/>
<text text-anchor="middle" x="64" y="-100.33" font-family="Times New Roman,serif" font-size="14.00">N3</text>
</g>
<!-- N3&#45;&gt;N1 -->
<g id="edge2" class="edge">
<title>N3&#45;&gt;N1</title>
<path fill="none" stroke="black" d="M51.74,-89.26C47.86,-83.47 44.06,-76.63 42,-69.75 39.85,-62.57 39.02,-54.57 38.87,-47.07"/>
<polygon fill="black" stroke="black" points="42.39,-47.33 39.08,-37.27 35.39,-47.2 42.39,-47.33"/>
<text text-anchor="middle" x="54" y="-56.45" font-family="Times New Roman,serif" font-size="14.00">0.33</text>
</g>
<!-- N6 -->
<g id="node6" class="node">
<title>N6</title>
<ellipse fill="none" stroke="black" cx="193" cy="-18" rx="27" ry="18"/>
<text text-anchor="middle" x="193" y="-12.57" font-family="Times New Roman,serif" font-size="14.00">N6</text>
</g>
<!-- N3&#45;&gt;N6 -->
<g id="edge9" class="edge">
<title>N3&#45;&gt;N6</title>
<path fill="none" stroke="black" d="M68.7,-87.55C72.52,-76.57 78.95,-62.8 89,-54 107.56,-37.76 133.94,-29 155.48,-24.3"/>
<polygon fill="black" stroke="black" points="156.1,-27.55 165.24,-22.19 154.76,-20.68 156.1,-27.55"/>
<text text-anchor="middle" x="101" y="-56.45" font-family="Times New Roman,serif" font-size="14.00">0.25</text>
</g>
<!-- N4 -->
<g id="node4" class="node">
<title>N4</title>
<ellipse fill="none" stroke="black" cx="259" cy="-193.5" rx="27" ry="18"/>
<text text-anchor="middle" x="259" y="-188.07" font-family="Times New Roman,serif" font-size="14.00">N4</text>
</g>
<!-- N4&#45;&gt;N2 -->
<g id="edge4" class="edge">
<title>N4&#45;&gt;N2</title>
<path fill="none" stroke="black" d="M242.17,-179.37C235.04,-173.25 227.02,-165.54 221,-157.5 215.54,-150.2 210.75,-141.52 206.87,-133.43"/>
<polygon fill="black" stroke="black" points="209.75,-132.3 202.45,-124.63 203.37,-135.18 209.75,-132.3"/>
<text text-anchor="middle" x="233" y="-144.2" font-family="Times New Roman,serif" font-size="14.00">1.00</text>
</g>
<!-- N4&#45;&gt;N6 -->
<g id="edge10" class="edge">
<title>N4&#45;&gt;N6</title>
<path fill="none" stroke="black" d="M266.36,-175.71C274.58,-154.3 285.14,-116.6 272,-87.75 261.86,-65.49 240.56,-47.64 222.63,-35.71"/>
<polygon fill="black" stroke="black" points="224.96,-32.41 214.63,-30.02 221.21,-38.32 224.96,-32.41"/>
<text text-anchor="middle" x="290" y="-100.33" font-family="Times New Roman,serif" font-size="14.00">0.25</text>
</g>
<!-- N5 -->
<g id="node5" class="node">
<title>N5</title>
<ellipse fill="none" stroke="black" cx="141" cy="-193.5" rx="27" ry="18"/>
<text text-anchor="middle" x="141" y="-188.07" font-family="Times New Roman,serif" font-size="14.00">N5</text>
</g>
<!-- N5&#45;&gt;N3 -->
<g id="edge5" class="edge">
<title>N5&#45;&gt;N3</title>
<path fill="none" stroke="black" d="M127.59,-177.56C115.74,-164.36 98.27,-144.91 84.63,-129.73"/>
<polygon fill="black" stroke="black" points="87.8,-127.91 78.52,-122.8 82.59,-132.58 87.8,-127.91"/>
<text text-anchor="middle" x="121" y="-144.2" font-family="Times New Roman,serif" font-size="14.00">0.50</text>
</g>
<!-- N5&#45;&gt;N5 -->
<g id="edge8" class="edge">
<title>N5&#45;&gt;N5</title>
<path fill="none" stroke="black" d="M165.53,-201.6C176.51,-202.37 186,-199.67 186,-193.5 186,-189.55 182.1,-187.02 176.42,-185.92"/>
<polygon fill="black" stroke="black" points="176.69,-182.38 166.53,-185.4 176.36,-189.37 176.69,-182.38"/>
<text text-anchor="middle" x="198" y="-188.07" font-family="Times New Roman,serif" font-size="14.00">1.00</text>
</g>
<!-- N6&#45;&gt;N4 -->
<g id="edge7" class="edge">
<title>N6&#45;&gt;N4</title>
<path fill="none" stroke="black" d="M203.55,-34.78C212.22,-48.34 224.29,-68.67 232,-87.75 242.2,-112.99 249.51,-143.23 253.92,-164.71"/>
<polygon fill="black" stroke="black" points="250.66,-165.24 256.03,-174.37 257.53,-163.88 250.66,-165.24"/>
<text text-anchor="middle" x="256" y="-100.33" font-family="Times New Roman,serif" font-size="14.00">1.00</text>
</g>
<!-- N6&#45;&gt;N6 -->
<g id="edge11" class="edge">
<title>N6&#45;&gt;N6</title>
<path fill="none" stroke="black" d="M217.53,-26.1C228.51,-26.87 238,-24.17 238,-18 238,-14.05 234.1,-11.52 228.42,-10.42"/>
<polygon fill="black" stroke="black" points="228.69,-6.88 218.53,-9.9 228.36,-13.87 228.69,-6.88"/>
<text text-anchor="middle" x="250" y="-12.57" font-family="Times New Roman,serif" font-size="14.00">0.25</text>
</g>
<!-- E1 -->
<g id="node7" class="node">
<title>E1</title>
<ellipse fill="none" stroke="black" cx="27" cy="-193.5" rx="27" ry="18"/>
<text text-anchor="middle" x="27" y="-188.07" font-family="Times New Roman,serif" font-size="14.00">E1</text>
</g>
<!-- E1&#45;&gt;N1 -->
<g id="edge3" class="edge">
<title>E1&#45;&gt;N1</title>
<path fill="none" stroke="black" d="M18.67,-176.1C9.25,-155.41 -3.83,-118.8 4,-87.75 7.93,-72.14 16.18,-56.23 23.89,-43.64"/>
<polygon fill="black" stroke="black" points="27.15,-46.04 29.6,-35.73 21.26,-42.26 27.15,-46.04"/>
<text text-anchor="middle" x="16" y="-100.33" font-family="Times New Roman,serif" font-size="14.00">0.33</text>
</g>
<!-- E1&#45;&gt;N3 -->
<g id="edge6" class="edge">
<title>E1&#45;&gt;N3</title>
<path fill="none" stroke="black" d="M27.44,-175.4C28.24,-165.24 30.23,-152.32 35,-141.75 36.9,-137.54 39.45,-133.43 42.24,-129.59"/>
<polygon fill="black" stroke="black" points="45.46,-132.18 49.04,-122.2 40.03,-127.77 45.46,-132.18"/>
<text text-anchor="middle" x="47" y="-144.2" font-family="Times New Roman,serif" font-size="14.00">0.50</text>
</g>
<!-- E1&#45;&gt;N6 -->
<g id="edge12" class="edge">
<title>E1&#45;&gt;N6</title>
<path fill="none" stroke="black" d="M53.15,-188.25C72.33,-183.79 97.62,-174.89 113,-157.5 144.57,-121.81 113.26,-92.75 141,-54 146.45,-46.39 154.11,-39.94 161.88,-34.73"/>
<polygon fill="black" stroke="black" points="163.55,-37.2 170.26,-29 159.9,-31.22 163.55,-37.2"/>
<text text-anchor="middle" x="140" y="-100.33" font-family="Times New Roman,serif" font-size="14.00">0.25</text>
</g>
<!-- E1&#45;&gt;E1 -->
<g id="edge13" class="edge">
<title>E1&#45;&gt;E1</title>
<path fill="none" stroke="black" d="M51.53,-201.6C62.51,-202.37 72,-199.67 72,-193.5 72,-189.55 68.1,-187.02 62.42,-185.92"/>
<polygon fill="black" stroke="black" points="62.69,-182.38 52.53,-185.4 62.36,-189.37 62.69,-182.38"/>
<text text-anchor="middle" x="84" y="-188.07" font-family="Times New Roman,serif" font-size="14.00">1.00</text>
</g>
</g>
</svg>
