<?xml version="1.0" encoding="utf-8" standalone="no"?>
<!DOCTYPE svg PUBLIC "-//W3C//DTD SVG 1.1//EN"
  "http://www.w3.org/Graphics/SVG/1.1/DTD/svg11.dtd">
<svg xmlns:xlink="http://www.w3.org/1999/xlink" width="576pt" height="432pt" viewBox="0 0 576 432" xmlns="http://www.w3.org/2000/svg" version="1.1">
 <metadata>
  <rdf:RDF xmlns:dc="http://purl.org/dc/elements/1.1/" xmlns:cc="http://creativecommons.org/ns#" xmlns:rdf="http://www.w3.org/1999/02/22-rdf-syntax-ns#">
   <cc:Work>
    <dc:type rdf:resource="http://purl.org/dc/dcmitype/StillImage"/>
    <dc:date>2023-07-12T16:42:24.115162</dc:date>
    <dc:format>image/svg+xml</dc:format>
    <dc:creator>
     <cc:Agent>
      <dc:title>Matplotlib v3.5.1, https://matplotlib.org/</dc:title>
     </cc:Agent>
    </dc:creator>
   </cc:Work>
  </rdf:RDF>
 </metadata>
 <defs>
  <style type="text/css">*{stroke-linejoin: round; stroke-linecap: butt}</style>
 </defs>
 <g id="figure_1">
  <g id="patch_1">
   <path d="M 0 432 
L 576 432 
L 576 0 
L 0 0 
z
" style="fill: #ffffff"/>
  </g>
  <g id="axes_1">
   <g id="patch_2">
    <path d="M 72 203.04 
L 518.4 203.04 
L 518.4 51.84 
L 72 51.84 
z
" style="fill: #ffffff"/>
   </g>
   <g id="matplotlib.axis_1">
    <g id="xtick_1">
     <g id="line2d_1">
      <defs>
       <path id="m642cd1bc63" d="M 0 0 
L 0 3.5 
" style="stroke: #000000; stroke-width: 0.8"/>
      </defs>
      <g>
       <use xlink:href="#m642cd1bc63" x="92.290909" y="203.04" style="stroke: #000000; stroke-width: 0.8"/>
      </g>
     </g>
    </g>
    <g id="xtick_2">
     <g id="line2d_2">
      <g>
       <use xlink:href="#m642cd1bc63" x="159.927273" y="203.04" style="stroke: #000000; stroke-width: 0.8"/>
      </g>
     </g>
    </g>
    <g id="xtick_3">
     <g id="line2d_3">
      <g>
       <use xlink:href="#m642cd1bc63" x="227.563636" y="203.04" style="stroke: #000000; stroke-width: 0.8"/>
      </g>
     </g>
    </g>
    <g id="xtick_4">
     <g id="line2d_4">
      <g>
       <use xlink:href="#m642cd1bc63" x="295.2" y="203.04" style="stroke: #000000; stroke-width: 0.8"/>
      </g>
     </g>
    </g>
    <g id="xtick_5">
     <g id="line2d_5">
      <g>
       <use xlink:href="#m642cd1bc63" x="362.836364" y="203.04" style="stroke: #000000; stroke-width: 0.8"/>
      </g>
     </g>
    </g>
    <g id="xtick_6">
     <g id="line2d_6">
      <g>
       <use xlink:href="#m642cd1bc63" x="430.472727" y="203.04" style="stroke: #000000; stroke-width: 0.8"/>
      </g>
     </g>
    </g>
    <g id="xtick_7">
     <g id="line2d_7">
      <g>
       <use xlink:href="#m642cd1bc63" x="498.109091" y="203.04" style="stroke: #000000; stroke-width: 0.8"/>
      </g>
     </g>
    </g>
   </g>
   <g id="matplotlib.axis_2">
    <g id="ytick_1">
     <g id="line2d_8">
      <defs>
       <path id="m26ccc839ac" d="M 0 0 
L -3.5 0 
" style="stroke: #000000; stroke-width: 0.8"/>
      </defs>
      <g>
       <use xlink:href="#m26ccc839ac" x="72" y="169.50405" style="stroke: #000000; stroke-width: 0.8"/>
      </g>
     </g>
     <g id="text_1">
      <!-- 0.10 -->
      <g transform="translate(42.734375 173.303269)scale(0.1 -0.1)">
       <defs>
        <path id="DejaVuSans-30" d="M 2034 4250 
Q 1547 4250 1301 3770 
Q 1056 3291 1056 2328 
Q 1056 1369 1301 889 
Q 1547 409 2034 409 
Q 2525 409 2770 889 
Q 3016 1369 3016 2328 
Q 3016 3291 2770 3770 
Q 2525 4250 2034 4250 
z
M 2034 4750 
Q 2819 4750 3233 4129 
Q 3647 3509 3647 2328 
Q 3647 1150 3233 529 
Q 2819 -91 2034 -91 
Q 1250 -91 836 529 
Q 422 1150 422 2328 
Q 422 3509 836 4129 
Q 1250 4750 2034 4750 
z
" transform="scale(0.015625)"/>
        <path id="DejaVuSans-2e" d="M 684 794 
L 1344 794 
L 1344 0 
L 684 0 
L 684 794 
z
" transform="scale(0.015625)"/>
        <path id="DejaVuSans-31" d="M 794 531 
L 1825 531 
L 1825 4091 
L 703 3866 
L 703 4441 
L 1819 4666 
L 2450 4666 
L 2450 531 
L 3481 531 
L 3481 0 
L 794 0 
L 794 531 
z
" transform="scale(0.015625)"/>
       </defs>
       <use xlink:href="#DejaVuSans-30"/>
       <use xlink:href="#DejaVuSans-2e" x="63.623047"/>
       <use xlink:href="#DejaVuSans-31" x="95.410156"/>
       <use xlink:href="#DejaVuSans-30" x="159.033203"/>
      </g>
     </g>
    </g>
    <g id="ytick_2">
     <g id="line2d_9">
      <g>
       <use xlink:href="#m26ccc839ac" x="72" y="133.083892" style="stroke: #000000; stroke-width: 0.8"/>
      </g>
     </g>
     <g id="text_2">
      <!-- 0.12 -->
      <g transform="translate(42.734375 136.883111)scale(0.1 -0.1)">
       <defs>
        <path id="DejaVuSans-32" d="M 1228 531 
L 3431 531 
L 3431 0 
L 469 0 
L 469 531 
Q 828 903 1448 1529 
Q 2069 2156 2228 2338 
Q 2531 2678 2651 2914 
Q 2772 3150 2772 3378 
Q 2772 3750 2511 3984 
Q 2250 4219 1831 4219 
Q 1534 4219 1204 4116 
Q 875 4013 500 3803 
L 500 4441 
Q 881 4594 1212 4672 
Q 1544 4750 1819 4750 
Q 2544 4750 2975 4387 
Q 3406 4025 3406 3419 
Q 3406 3131 3298 2873 
Q 3191 2616 2906 2266 
Q 2828 2175 2409 1742 
Q 1991 1309 1228 531 
z
" transform="scale(0.015625)"/>
       </defs>
       <use xlink:href="#DejaVuSans-30"/>
       <use xlink:href="#DejaVuSans-2e" x="63.623047"/>
       <use xlink:href="#DejaVuSans-31" x="95.410156"/>
       <use xlink:href="#DejaVuSans-32" x="159.033203"/>
      </g>
     </g>
    </g>
    <g id="ytick_3">
     <g id="line2d_10">
      <g>
       <use xlink:href="#m26ccc839ac" x="72" y="96.663734" style="stroke: #000000; stroke-width: 0.8"/>
      </g>
     </g>
     <g id="text_3">
      <!-- 0.14 -->
      <g transform="translate(42.734375 100.462953)scale(0.1 -0.1)">
       <defs>
        <path id="DejaVuSans-34" d="M 2419 4116 
L 825 1625 
L 2419 1625 
L 2419 4116 
z
M 2253 4666 
L 3047 4666 
L 3047 1625 
L 3713 1625 
L 3713 1100 
L 3047 1100 
L 3047 0 
L 2419 0 
L 2419 1100 
L 313 1100 
L 313 1709 
L 2253 4666 
z
" transform="scale(0.015625)"/>
       </defs>
       <use xlink:href="#DejaVuSans-30"/>
       <use xlink:href="#DejaVuSans-2e" x="63.623047"/>
       <use xlink:href="#DejaVuSans-31" x="95.410156"/>
       <use xlink:href="#DejaVuSans-34" x="159.033203"/>
      </g>
     </g>
    </g>
    <g id="ytick_4">
     <g id="line2d_11">
      <g>
       <use xlink:href="#m26ccc839ac" x="72" y="60.243576" style="stroke: #000000; stroke-width: 0.8"/>
      </g>
     </g>
     <g id="text_4">
      <!-- 0.16 -->
      <g transform="translate(42.734375 64.042795)scale(0.1 -0.1)">
       <defs>
        <path id="DejaVuSans-36" d="M 2113 2584 
Q 1688 2584 1439 2293 
Q 1191 2003 1191 1497 
Q 1191 994 1439 701 
Q 1688 409 2113 409 
Q 2538 409 2786 701 
Q 3034 994 3034 1497 
Q 3034 2003 2786 2293 
Q 2538 2584 2113 2584 
z
M 3366 4563 
L 3366 3988 
Q 3128 4100 2886 4159 
Q 2644 4219 2406 4219 
Q 1781 4219 1451 3797 
Q 1122 3375 1075 2522 
Q 1259 2794 1537 2939 
Q 1816 3084 2150 3084 
Q 2853 3084 3261 2657 
Q 3669 2231 3669 1497 
Q 3669 778 3244 343 
Q 2819 -91 2113 -91 
Q 1303 -91 875 529 
Q 447 1150 447 2328 
Q 447 3434 972 4092 
Q 1497 4750 2381 4750 
Q 2619 4750 2861 4703 
Q 3103 4656 3366 4563 
z
" transform="scale(0.015625)"/>
       </defs>
       <use xlink:href="#DejaVuSans-30"/>
       <use xlink:href="#DejaVuSans-2e" x="63.623047"/>
       <use xlink:href="#DejaVuSans-31" x="95.410156"/>
       <use xlink:href="#DejaVuSans-36" x="159.033203"/>
      </g>
     </g>
    </g>
    <g id="text_5">
     <!-- Attention -->
     <g transform="translate(36.654687 150.515781)rotate(-90)scale(0.1 -0.1)">
      <defs>
       <path id="DejaVuSans-41" d="M 2188 4044 
L 1331 1722 
L 3047 1722 
L 2188 4044 
z
M 1831 4666 
L 2547 4666 
L 4325 0 
L 3669 0 
L 3244 1197 
L 1141 1197 
L 716 0 
L 50 0 
L 1831 4666 
z
" transform="scale(0.015625)"/>
       <path id="DejaVuSans-74" d="M 1172 4494 
L 1172 3500 
L 2356 3500 
L 2356 3053 
L 1172 3053 
L 1172 1153 
Q 1172 725 1289 603 
Q 1406 481 1766 481 
L 2356 481 
L 2356 0 
L 1766 0 
Q 1100 0 847 248 
Q 594 497 594 1153 
L 594 3053 
L 172 3053 
L 172 3500 
L 594 3500 
L 594 4494 
L 1172 4494 
z
" transform="scale(0.015625)"/>
       <path id="DejaVuSans-65" d="M 3597 1894 
L 3597 1613 
L 953 1613 
Q 991 1019 1311 708 
Q 1631 397 2203 397 
Q 2534 397 2845 478 
Q 3156 559 3463 722 
L 3463 178 
Q 3153 47 2828 -22 
Q 2503 -91 2169 -91 
Q 1331 -91 842 396 
Q 353 884 353 1716 
Q 353 2575 817 3079 
Q 1281 3584 2069 3584 
Q 2775 3584 3186 3129 
Q 3597 2675 3597 1894 
z
M 3022 2063 
Q 3016 2534 2758 2815 
Q 2500 3097 2075 3097 
Q 1594 3097 1305 2825 
Q 1016 2553 972 2059 
L 3022 2063 
z
" transform="scale(0.015625)"/>
       <path id="DejaVuSans-6e" d="M 3513 2113 
L 3513 0 
L 2938 0 
L 2938 2094 
Q 2938 2591 2744 2837 
Q 2550 3084 2163 3084 
Q 1697 3084 1428 2787 
Q 1159 2491 1159 1978 
L 1159 0 
L 581 0 
L 581 3500 
L 1159 3500 
L 1159 2956 
Q 1366 3272 1645 3428 
Q 1925 3584 2291 3584 
Q 2894 3584 3203 3211 
Q 3513 2838 3513 2113 
z
" transform="scale(0.015625)"/>
       <path id="DejaVuSans-69" d="M 603 3500 
L 1178 3500 
L 1178 0 
L 603 0 
L 603 3500 
z
M 603 4863 
L 1178 4863 
L 1178 4134 
L 603 4134 
L 603 4863 
z
" transform="scale(0.015625)"/>
       <path id="DejaVuSans-6f" d="M 1959 3097 
Q 1497 3097 1228 2736 
Q 959 2375 959 1747 
Q 959 1119 1226 758 
Q 1494 397 1959 397 
Q 2419 397 2687 759 
Q 2956 1122 2956 1747 
Q 2956 2369 2687 2733 
Q 2419 3097 1959 3097 
z
M 1959 3584 
Q 2709 3584 3137 3096 
Q 3566 2609 3566 1747 
Q 3566 888 3137 398 
Q 2709 -91 1959 -91 
Q 1206 -91 779 398 
Q 353 888 353 1747 
Q 353 2609 779 3096 
Q 1206 3584 1959 3584 
z
" transform="scale(0.015625)"/>
      </defs>
      <use xlink:href="#DejaVuSans-41"/>
      <use xlink:href="#DejaVuSans-74" x="66.658203"/>
      <use xlink:href="#DejaVuSans-74" x="105.867188"/>
      <use xlink:href="#DejaVuSans-65" x="145.076172"/>
      <use xlink:href="#DejaVuSans-6e" x="206.599609"/>
      <use xlink:href="#DejaVuSans-74" x="269.978516"/>
      <use xlink:href="#DejaVuSans-69" x="309.1875"/>
      <use xlink:href="#DejaVuSans-6f" x="336.970703"/>
      <use xlink:href="#DejaVuSans-6e" x="398.152344"/>
     </g>
    </g>
   </g>
   <g id="line2d_12">
    <path d="M 92.290909 118.768717 
L 105.818182 118.713416 
L 119.345455 117.785829 
L 132.872727 116.030213 
L 146.4 113.730266 
L 159.927273 109.214275 
L 173.454545 107.504707 
L 186.981818 105.612629 
L 200.509091 102.567958 
L 214.036364 97.120092 
L 227.563636 93.178714 
L 241.090909 87.958674 
L 254.618182 82.34409 
L 268.145455 78.240417 
L 281.672727 78.168861 
L 295.2 75.348734 
L 308.727273 73.194178 
L 322.254545 73.24606 
L 335.781818 72.438057 
L 349.309091 73.612466 
L 362.836364 73.34182 
L 376.363636 74.266015 
L 389.890909 74.624118 
L 403.418182 74.41108 
L 416.945455 74.380363 
L 430.472727 74.367365 
L 444 74.52947 
L 457.527273 74.50182 
L 471.054545 74.434226 
L 484.581818 74.34023 
L 498.109091 74.317111 
" clip-path="url(#p50a822889c)" style="fill: none; stroke: #1f77b4; stroke-linecap: square"/>
   </g>
   <g id="line2d_13">
    <path d="M 92.290909 104.237556 
L 105.818182 103.80011 
L 119.345455 106.895686 
L 132.872727 109.045983 
L 146.4 107.828755 
L 159.927273 105.839153 
L 173.454545 105.368331 
L 186.981818 104.637528 
L 200.509091 102.758148 
L 214.036364 99.476371 
L 227.563636 95.457251 
L 241.090909 92.260298 
L 254.618182 87.533521 
L 268.145455 81.929384 
L 281.672727 73.968614 
L 295.2 68.466261 
L 308.727273 65.772312 
L 322.254545 62.462911 
L 335.781818 62.304632 
L 349.309091 61.329857 
L 362.836364 60.407018 
L 376.363636 60.051222 
L 389.890909 59.622623 
L 403.418182 59.37127 
L 416.945455 59.248945 
L 430.472727 58.966359 
L 444 58.911709 
L 457.527273 58.838499 
L 471.054545 58.718209 
L 484.581818 58.727489 
L 498.109091 58.712727 
" clip-path="url(#p50a822889c)" style="fill: none; stroke: #ff7f0e; stroke-linecap: square"/>
   </g>
   <g id="line2d_14">
    <path d="M 92.290909 104.35193 
L 105.818182 103.201428 
L 119.345455 99.738632 
L 132.872727 97.469158 
L 146.4 103.543493 
L 159.927273 112.981771 
L 173.454545 120.162812 
L 186.981818 126.064676 
L 200.509091 130.396502 
L 214.036364 133.785503 
L 227.563636 134.296824 
L 241.090909 133.452202 
L 254.618182 133.251348 
L 268.145455 131.561494 
L 281.672727 129.268304 
L 295.2 125.889315 
L 308.727273 121.654864 
L 322.254545 121.750299 
L 335.781818 118.154405 
L 349.309091 116.21039 
L 362.836364 116.258663 
L 376.363636 116.138021 
L 389.890909 115.768684 
L 403.418182 115.571005 
L 416.945455 115.313113 
L 430.472727 115.53676 
L 444 115.422413 
L 457.527273 115.359677 
L 471.054545 115.329692 
L 484.581818 115.322854 
L 498.109091 115.26739 
" clip-path="url(#p50a822889c)" style="fill: none; stroke: #2ca02c; stroke-linecap: square"/>
   </g>
   <g id="line2d_15">
    <path d="M 92.290909 121.124861 
L 105.818182 122.088837 
L 119.345455 124.34823 
L 132.872727 128.335208 
L 146.4 131.472586 
L 159.927273 134.192951 
L 173.454545 137.076411 
L 186.981818 138.991487 
L 200.509091 137.776199 
L 214.036364 136.357235 
L 227.563636 135.094271 
L 241.090909 132.96936 
L 254.618182 129.252104 
L 268.145455 126.366649 
L 281.672727 121.036726 
L 295.2 117.025828 
L 308.727273 113.957034 
L 322.254545 109.345961 
L 335.781818 107.879009 
L 349.309091 105.915158 
L 362.836364 105.072205 
L 376.363636 104.020909 
L 389.890909 103.601698 
L 403.418182 103.299684 
L 416.945455 103.090282 
L 430.472727 102.731637 
L 444 102.494802 
L 457.527273 102.491654 
L 471.054545 102.517188 
L 484.581818 102.442757 
L 498.109091 102.425444 
" clip-path="url(#p50a822889c)" style="fill: none; stroke: #d62728; stroke-linecap: square"/>
   </g>
   <g id="line2d_16">
    <path d="M 92.290909 149.481522 
L 105.818182 148.474374 
L 119.345455 145.445157 
L 132.872727 142.783065 
L 146.4 142.66306 
L 159.927273 142.782767 
L 173.454545 142.703424 
L 186.981818 144.096609 
L 200.509091 142.74338 
L 214.036364 143.357028 
L 227.563636 142.791938 
L 241.090909 142.989482 
L 254.618182 144.264399 
L 268.145455 145.397427 
L 281.672727 148.841079 
L 295.2 152.403012 
L 308.727273 154.305172 
L 322.254545 157.623568 
L 335.781818 160.214864 
L 349.309091 161.185366 
L 362.836364 161.41904 
L 376.363636 161.669809 
L 389.890909 162.375906 
L 403.418182 162.651192 
L 416.945455 162.907253 
L 430.472727 163.110196 
L 444 163.154481 
L 457.527273 163.199607 
L 471.054545 163.299477 
L 484.581818 163.383094 
L 498.109091 163.431273 
" clip-path="url(#p50a822889c)" style="fill: none; stroke: #9467bd; stroke-linecap: square"/>
   </g>
   <g id="line2d_17">
    <path d="M 92.290909 139.9248 
L 105.818182 139.503147 
L 119.345455 137.967081 
L 132.872727 134.915139 
L 146.4 131.188454 
L 159.927273 129.123484 
L 173.454545 124.29609 
L 186.981818 120.88884 
L 200.509091 119.080229 
L 214.036364 115.2958 
L 227.563636 113.262863 
L 241.090909 108.139778 
L 254.618182 105.072124 
L 268.145455 102.323335 
L 281.672727 97.833882 
L 295.2 92.560386 
L 308.727273 93.992415 
L 322.254545 90.264808 
L 335.781818 88.468136 
L 349.309091 88.022388 
L 362.836364 87.900008 
L 376.363636 87.270012 
L 389.890909 86.226964 
L 403.418182 86.360252 
L 416.945455 86.307664 
L 430.472727 86.276839 
L 444 86.299849 
L 457.527273 86.266772 
L 471.054545 86.179586 
L 484.581818 86.141326 
L 498.109091 86.128979 
" clip-path="url(#p50a822889c)" style="fill: none; stroke: #8c564b; stroke-linecap: square"/>
   </g>
   <g id="line2d_18">
    <path d="M 92.290909 127.363689 
L 105.818182 128.520433 
L 119.345455 130.475193 
L 132.872727 132.339798 
L 146.4 131.418641 
L 159.927273 129.508219 
L 173.454545 127.941573 
L 186.981818 126.264282 
L 200.509091 128.700854 
L 214.036364 133.634143 
L 227.563636 139.346604 
L 241.090909 147.486832 
L 254.618182 155.48692 
L 268.145455 163.410487 
L 281.672727 171.680801 
L 295.2 180.438814 
L 308.727273 184.855179 
L 322.254545 188.933277 
L 335.781818 191.565344 
L 349.309091 193.154635 
L 362.836364 194.097446 
L 376.363636 194.590111 
L 389.890909 195.193841 
L 403.418182 195.471392 
L 416.945455 195.683304 
L 430.472727 195.813648 
L 444 195.901389 
L 457.527273 195.978968 
L 471.054545 196.068596 
L 484.581818 196.129379 
L 498.109091 196.167273 
" clip-path="url(#p50a822889c)" style="fill: none; stroke: #e377c2; stroke-linecap: square"/>
   </g>
   <g id="line2d_19">
    <path d="M 92.290909 126.577788 
L 105.818182 127.529159 
L 119.345455 129.175081 
L 132.872727 130.912273 
L 146.4 129.985554 
L 159.927273 128.188244 
L 173.454545 126.777448 
L 186.981818 125.274813 
L 200.509091 127.807525 
L 214.036364 132.804677 
L 227.563636 138.402451 
L 241.090909 146.574291 
L 254.618182 154.626357 
L 268.145455 162.601711 
L 281.672727 171.032651 
L 295.2 179.698527 
L 308.727273 184.09971 
L 322.254545 188.203993 
L 335.781818 190.806415 
L 349.309091 192.400604 
L 362.836364 193.334677 
L 376.363636 193.824778 
L 389.890909 194.417043 
L 403.418182 194.695002 
L 416.945455 194.899954 
L 430.472727 195.028031 
L 444 195.116736 
L 457.527273 195.193881 
L 471.054545 195.283834 
L 484.581818 195.343749 
L 498.109091 195.380625 
" clip-path="url(#p50a822889c)" style="fill: none; stroke: #7f7f7f; stroke-linecap: square"/>
   </g>
   <g id="patch_3">
    <path d="M 72 203.04 
L 72 51.84 
" style="fill: none; stroke: #000000; stroke-width: 0.8; stroke-linejoin: miter; stroke-linecap: square"/>
   </g>
   <g id="patch_4">
    <path d="M 518.4 203.04 
L 518.4 51.84 
" style="fill: none; stroke: #000000; stroke-width: 0.8; stroke-linejoin: miter; stroke-linecap: square"/>
   </g>
   <g id="patch_5">
    <path d="M 72 203.04 
L 518.4 203.04 
" style="fill: none; stroke: #000000; stroke-width: 0.8; stroke-linejoin: miter; stroke-linecap: square"/>
   </g>
   <g id="patch_6">
    <path d="M 72 51.84 
L 518.4 51.84 
" style="fill: none; stroke: #000000; stroke-width: 0.8; stroke-linejoin: miter; stroke-linecap: square"/>
   </g>
  </g>
  <g id="axes_2">
   <g id="patch_7">
    <path d="M 72 384.48 
L 518.4 384.48 
L 518.4 233.28 
L 72 233.28 
z
" style="fill: #ffffff"/>
   </g>
   <g id="matplotlib.axis_3">
    <g id="xtick_8">
     <g id="line2d_20">
      <g>
       <use xlink:href="#m642cd1bc63" x="92.290909" y="384.48" style="stroke: #000000; stroke-width: 0.8"/>
      </g>
     </g>
     <g id="text_6">
      <!-- 0 -->
      <g transform="translate(89.109659 399.078438)scale(0.1 -0.1)">
       <use xlink:href="#DejaVuSans-30"/>
      </g>
     </g>
    </g>
    <g id="xtick_9">
     <g id="line2d_21">
      <g>
       <use xlink:href="#m642cd1bc63" x="159.927273" y="384.48" style="stroke: #000000; stroke-width: 0.8"/>
      </g>
     </g>
     <g id="text_7">
      <!-- 5 -->
      <g transform="translate(156.746023 399.078438)scale(0.1 -0.1)">
       <defs>
        <path id="DejaVuSans-35" d="M 691 4666 
L 3169 4666 
L 3169 4134 
L 1269 4134 
L 1269 2991 
Q 1406 3038 1543 3061 
Q 1681 3084 1819 3084 
Q 2600 3084 3056 2656 
Q 3513 2228 3513 1497 
Q 3513 744 3044 326 
Q 2575 -91 1722 -91 
Q 1428 -91 1123 -41 
Q 819 9 494 109 
L 494 744 
Q 775 591 1075 516 
Q 1375 441 1709 441 
Q 2250 441 2565 725 
Q 2881 1009 2881 1497 
Q 2881 1984 2565 2268 
Q 2250 2553 1709 2553 
Q 1456 2553 1204 2497 
Q 953 2441 691 2322 
L 691 4666 
z
" transform="scale(0.015625)"/>
       </defs>
       <use xlink:href="#DejaVuSans-35"/>
      </g>
     </g>
    </g>
    <g id="xtick_10">
     <g id="line2d_22">
      <g>
       <use xlink:href="#m642cd1bc63" x="227.563636" y="384.48" style="stroke: #000000; stroke-width: 0.8"/>
      </g>
     </g>
     <g id="text_8">
      <!-- 10 -->
      <g transform="translate(221.201136 399.078438)scale(0.1 -0.1)">
       <use xlink:href="#DejaVuSans-31"/>
       <use xlink:href="#DejaVuSans-30" x="63.623047"/>
      </g>
     </g>
    </g>
    <g id="xtick_11">
     <g id="line2d_23">
      <g>
       <use xlink:href="#m642cd1bc63" x="295.2" y="384.48" style="stroke: #000000; stroke-width: 0.8"/>
      </g>
     </g>
     <g id="text_9">
      <!-- 15 -->
      <g transform="translate(288.8375 399.078438)scale(0.1 -0.1)">
       <use xlink:href="#DejaVuSans-31"/>
       <use xlink:href="#DejaVuSans-35" x="63.623047"/>
      </g>
     </g>
    </g>
    <g id="xtick_12">
     <g id="line2d_24">
      <g>
       <use xlink:href="#m642cd1bc63" x="362.836364" y="384.48" style="stroke: #000000; stroke-width: 0.8"/>
      </g>
     </g>
     <g id="text_10">
      <!-- 20 -->
      <g transform="translate(356.473864 399.078438)scale(0.1 -0.1)">
       <use xlink:href="#DejaVuSans-32"/>
       <use xlink:href="#DejaVuSans-30" x="63.623047"/>
      </g>
     </g>
    </g>
    <g id="xtick_13">
     <g id="line2d_25">
      <g>
       <use xlink:href="#m642cd1bc63" x="430.472727" y="384.48" style="stroke: #000000; stroke-width: 0.8"/>
      </g>
     </g>
     <g id="text_11">
      <!-- 25 -->
      <g transform="translate(424.110227 399.078438)scale(0.1 -0.1)">
       <use xlink:href="#DejaVuSans-32"/>
       <use xlink:href="#DejaVuSans-35" x="63.623047"/>
      </g>
     </g>
    </g>
    <g id="xtick_14">
     <g id="line2d_26">
      <g>
       <use xlink:href="#m642cd1bc63" x="498.109091" y="384.48" style="stroke: #000000; stroke-width: 0.8"/>
      </g>
     </g>
     <g id="text_12">
      <!-- 30 -->
      <g transform="translate(491.746591 399.078438)scale(0.1 -0.1)">
       <defs>
        <path id="DejaVuSans-33" d="M 2597 2516 
Q 3050 2419 3304 2112 
Q 3559 1806 3559 1356 
Q 3559 666 3084 287 
Q 2609 -91 1734 -91 
Q 1441 -91 1130 -33 
Q 819 25 488 141 
L 488 750 
Q 750 597 1062 519 
Q 1375 441 1716 441 
Q 2309 441 2620 675 
Q 2931 909 2931 1356 
Q 2931 1769 2642 2001 
Q 2353 2234 1838 2234 
L 1294 2234 
L 1294 2753 
L 1863 2753 
Q 2328 2753 2575 2939 
Q 2822 3125 2822 3475 
Q 2822 3834 2567 4026 
Q 2313 4219 1838 4219 
Q 1578 4219 1281 4162 
Q 984 4106 628 3988 
L 628 4550 
Q 988 4650 1302 4700 
Q 1616 4750 1894 4750 
Q 2613 4750 3031 4423 
Q 3450 4097 3450 3541 
Q 3450 3153 3228 2886 
Q 3006 2619 2597 2516 
z
" transform="scale(0.015625)"/>
       </defs>
       <use xlink:href="#DejaVuSans-33"/>
       <use xlink:href="#DejaVuSans-30" x="63.623047"/>
      </g>
     </g>
    </g>
    <g id="text_13">
     <!-- Epochs -->
     <g transform="translate(277.284375 412.756563)scale(0.1 -0.1)">
      <defs>
       <path id="DejaVuSans-45" d="M 628 4666 
L 3578 4666 
L 3578 4134 
L 1259 4134 
L 1259 2753 
L 3481 2753 
L 3481 2222 
L 1259 2222 
L 1259 531 
L 3634 531 
L 3634 0 
L 628 0 
L 628 4666 
z
" transform="scale(0.015625)"/>
       <path id="DejaVuSans-70" d="M 1159 525 
L 1159 -1331 
L 581 -1331 
L 581 3500 
L 1159 3500 
L 1159 2969 
Q 1341 3281 1617 3432 
Q 1894 3584 2278 3584 
Q 2916 3584 3314 3078 
Q 3713 2572 3713 1747 
Q 3713 922 3314 415 
Q 2916 -91 2278 -91 
Q 1894 -91 1617 61 
Q 1341 213 1159 525 
z
M 3116 1747 
Q 3116 2381 2855 2742 
Q 2594 3103 2138 3103 
Q 1681 3103 1420 2742 
Q 1159 2381 1159 1747 
Q 1159 1113 1420 752 
Q 1681 391 2138 391 
Q 2594 391 2855 752 
Q 3116 1113 3116 1747 
z
" transform="scale(0.015625)"/>
       <path id="DejaVuSans-63" d="M 3122 3366 
L 3122 2828 
Q 2878 2963 2633 3030 
Q 2388 3097 2138 3097 
Q 1578 3097 1268 2742 
Q 959 2388 959 1747 
Q 959 1106 1268 751 
Q 1578 397 2138 397 
Q 2388 397 2633 464 
Q 2878 531 3122 666 
L 3122 134 
Q 2881 22 2623 -34 
Q 2366 -91 2075 -91 
Q 1284 -91 818 406 
Q 353 903 353 1747 
Q 353 2603 823 3093 
Q 1294 3584 2113 3584 
Q 2378 3584 2631 3529 
Q 2884 3475 3122 3366 
z
" transform="scale(0.015625)"/>
       <path id="DejaVuSans-68" d="M 3513 2113 
L 3513 0 
L 2938 0 
L 2938 2094 
Q 2938 2591 2744 2837 
Q 2550 3084 2163 3084 
Q 1697 3084 1428 2787 
Q 1159 2491 1159 1978 
L 1159 0 
L 581 0 
L 581 4863 
L 1159 4863 
L 1159 2956 
Q 1366 3272 1645 3428 
Q 1925 3584 2291 3584 
Q 2894 3584 3203 3211 
Q 3513 2838 3513 2113 
z
" transform="scale(0.015625)"/>
       <path id="DejaVuSans-73" d="M 2834 3397 
L 2834 2853 
Q 2591 2978 2328 3040 
Q 2066 3103 1784 3103 
Q 1356 3103 1142 2972 
Q 928 2841 928 2578 
Q 928 2378 1081 2264 
Q 1234 2150 1697 2047 
L 1894 2003 
Q 2506 1872 2764 1633 
Q 3022 1394 3022 966 
Q 3022 478 2636 193 
Q 2250 -91 1575 -91 
Q 1294 -91 989 -36 
Q 684 19 347 128 
L 347 722 
Q 666 556 975 473 
Q 1284 391 1588 391 
Q 1994 391 2212 530 
Q 2431 669 2431 922 
Q 2431 1156 2273 1281 
Q 2116 1406 1581 1522 
L 1381 1569 
Q 847 1681 609 1914 
Q 372 2147 372 2553 
Q 372 3047 722 3315 
Q 1072 3584 1716 3584 
Q 2034 3584 2315 3537 
Q 2597 3491 2834 3397 
z
" transform="scale(0.015625)"/>
      </defs>
      <use xlink:href="#DejaVuSans-45"/>
      <use xlink:href="#DejaVuSans-70" x="63.183594"/>
      <use xlink:href="#DejaVuSans-6f" x="126.660156"/>
      <use xlink:href="#DejaVuSans-63" x="187.841797"/>
      <use xlink:href="#DejaVuSans-68" x="242.822266"/>
      <use xlink:href="#DejaVuSans-73" x="306.201172"/>
     </g>
    </g>
   </g>
   <g id="matplotlib.axis_4">
    <g id="ytick_5">
     <g id="line2d_27">
      <g>
       <use xlink:href="#m26ccc839ac" x="72" y="375.121585" style="stroke: #000000; stroke-width: 0.8"/>
      </g>
     </g>
     <g id="text_14">
      <!-- 0.05 -->
      <g transform="translate(42.734375 378.920804)scale(0.1 -0.1)">
       <use xlink:href="#DejaVuSans-30"/>
       <use xlink:href="#DejaVuSans-2e" x="63.623047"/>
       <use xlink:href="#DejaVuSans-30" x="95.410156"/>
       <use xlink:href="#DejaVuSans-35" x="159.033203"/>
      </g>
     </g>
    </g>
    <g id="ytick_6">
     <g id="line2d_28">
      <g>
       <use xlink:href="#m26ccc839ac" x="72" y="344.71811" style="stroke: #000000; stroke-width: 0.8"/>
      </g>
     </g>
     <g id="text_15">
      <!-- 0.10 -->
      <g transform="translate(42.734375 348.517329)scale(0.1 -0.1)">
       <use xlink:href="#DejaVuSans-30"/>
       <use xlink:href="#DejaVuSans-2e" x="63.623047"/>
       <use xlink:href="#DejaVuSans-31" x="95.410156"/>
       <use xlink:href="#DejaVuSans-30" x="159.033203"/>
      </g>
     </g>
    </g>
    <g id="ytick_7">
     <g id="line2d_29">
      <g>
       <use xlink:href="#m26ccc839ac" x="72" y="314.314635" style="stroke: #000000; stroke-width: 0.8"/>
      </g>
     </g>
     <g id="text_16">
      <!-- 0.15 -->
      <g transform="translate(42.734375 318.113854)scale(0.1 -0.1)">
       <use xlink:href="#DejaVuSans-30"/>
       <use xlink:href="#DejaVuSans-2e" x="63.623047"/>
       <use xlink:href="#DejaVuSans-31" x="95.410156"/>
       <use xlink:href="#DejaVuSans-35" x="159.033203"/>
      </g>
     </g>
    </g>
    <g id="ytick_8">
     <g id="line2d_30">
      <g>
       <use xlink:href="#m26ccc839ac" x="72" y="283.91116" style="stroke: #000000; stroke-width: 0.8"/>
      </g>
     </g>
     <g id="text_17">
      <!-- 0.20 -->
      <g transform="translate(42.734375 287.710379)scale(0.1 -0.1)">
       <use xlink:href="#DejaVuSans-30"/>
       <use xlink:href="#DejaVuSans-2e" x="63.623047"/>
       <use xlink:href="#DejaVuSans-32" x="95.410156"/>
       <use xlink:href="#DejaVuSans-30" x="159.033203"/>
      </g>
     </g>
    </g>
    <g id="ytick_9">
     <g id="line2d_31">
      <g>
       <use xlink:href="#m26ccc839ac" x="72" y="253.507685" style="stroke: #000000; stroke-width: 0.8"/>
      </g>
     </g>
     <g id="text_18">
      <!-- 0.25 -->
      <g transform="translate(42.734375 257.306904)scale(0.1 -0.1)">
       <use xlink:href="#DejaVuSans-30"/>
       <use xlink:href="#DejaVuSans-2e" x="63.623047"/>
       <use xlink:href="#DejaVuSans-32" x="95.410156"/>
       <use xlink:href="#DejaVuSans-35" x="159.033203"/>
      </g>
     </g>
    </g>
    <g id="text_19">
     <!-- Additive -->
     <g transform="translate(36.654687 329.335469)rotate(-90)scale(0.1 -0.1)">
      <defs>
       <path id="DejaVuSans-64" d="M 2906 2969 
L 2906 4863 
L 3481 4863 
L 3481 0 
L 2906 0 
L 2906 525 
Q 2725 213 2448 61 
Q 2172 -91 1784 -91 
Q 1150 -91 751 415 
Q 353 922 353 1747 
Q 353 2572 751 3078 
Q 1150 3584 1784 3584 
Q 2172 3584 2448 3432 
Q 2725 3281 2906 2969 
z
M 947 1747 
Q 947 1113 1208 752 
Q 1469 391 1925 391 
Q 2381 391 2643 752 
Q 2906 1113 2906 1747 
Q 2906 2381 2643 2742 
Q 2381 3103 1925 3103 
Q 1469 3103 1208 2742 
Q 947 2381 947 1747 
z
" transform="scale(0.015625)"/>
       <path id="DejaVuSans-76" d="M 191 3500 
L 800 3500 
L 1894 563 
L 2988 3500 
L 3597 3500 
L 2284 0 
L 1503 0 
L 191 3500 
z
" transform="scale(0.015625)"/>
      </defs>
      <use xlink:href="#DejaVuSans-41"/>
      <use xlink:href="#DejaVuSans-64" x="66.658203"/>
      <use xlink:href="#DejaVuSans-64" x="130.134766"/>
      <use xlink:href="#DejaVuSans-69" x="193.611328"/>
      <use xlink:href="#DejaVuSans-74" x="221.394531"/>
      <use xlink:href="#DejaVuSans-69" x="260.603516"/>
      <use xlink:href="#DejaVuSans-76" x="288.386719"/>
      <use xlink:href="#DejaVuSans-65" x="347.566406"/>
     </g>
    </g>
   </g>
   <g id="line2d_32">
    <path d="M 92.290909 251.772932 
L 105.818182 263.298114 
L 119.345455 304.625767 
L 132.872727 330.034228 
L 146.4 325.744448 
L 159.927273 316.854368 
L 173.454545 308.412416 
L 186.981818 299.743342 
L 200.509091 291.713055 
L 214.036364 283.761816 
L 227.563636 273.876202 
L 241.090909 267.515675 
L 254.618182 262.384155 
L 268.145455 258.315104 
L 281.672727 253.847933 
L 295.2 248.725592 
L 308.727273 245.72488 
L 322.254545 244.489022 
L 335.781818 243.211611 
L 349.309091 242.91858 
L 362.836364 242.07323 
L 376.363636 241.880957 
L 389.890909 241.174729 
L 403.418182 240.901813 
L 416.945455 240.797214 
L 430.472727 240.473412 
L 444 240.438292 
L 457.527273 240.372401 
L 471.054545 240.323816 
L 484.581818 240.209956 
L 498.109091 240.152727 
" clip-path="url(#p5da77b3508)" style="fill: none; stroke: #1f77b4; stroke-linecap: square"/>
   </g>
   <g id="line2d_33">
    <path d="M 92.290909 322.621612 
L 105.818182 325.525191 
L 119.345455 331.204861 
L 132.872727 327.924927 
L 146.4 324.321934 
L 159.927273 321.037433 
L 173.454545 317.749037 
L 186.981818 316.209619 
L 200.509091 314.077289 
L 214.036364 310.290667 
L 227.563636 307.652656 
L 241.090909 306.15789 
L 254.618182 304.020351 
L 268.145455 300.194685 
L 281.672727 298.82603 
L 295.2 298.439608 
L 308.727273 297.13891 
L 322.254545 296.190157 
L 335.781818 296.083437 
L 349.309091 296.064862 
L 362.836364 295.438552 
L 376.363636 295.25408 
L 389.890909 295.029305 
L 403.418182 294.761573 
L 416.945455 294.573902 
L 430.472727 294.568339 
L 444 294.581405 
L 457.527273 294.564796 
L 471.054545 294.441151 
L 484.581818 294.410887 
L 498.109091 294.403602 
" clip-path="url(#p5da77b3508)" style="fill: none; stroke: #ff7f0e; stroke-linecap: square"/>
   </g>
   <g id="line2d_34">
    <path d="M 92.290909 328.596796 
L 105.818182 327.591031 
L 119.345455 330.820333 
L 132.872727 334.935622 
L 146.4 334.441475 
L 159.927273 328.855857 
L 173.454545 322.334571 
L 186.981818 317.246934 
L 200.509091 312.393757 
L 214.036364 307.189143 
L 227.563636 303.06752 
L 241.090909 296.90116 
L 254.618182 291.770719 
L 268.145455 288.284422 
L 281.672727 286.326044 
L 295.2 283.318709 
L 308.727273 280.011112 
L 322.254545 276.248157 
L 335.781818 275.40539 
L 349.309091 273.751179 
L 362.836364 272.661302 
L 376.363636 272.595139 
L 389.890909 272.303974 
L 403.418182 272.058695 
L 416.945455 271.815952 
L 430.472727 271.69295 
L 444 271.67307 
L 457.527273 271.62724 
L 471.054545 271.526301 
L 484.581818 271.492377 
L 498.109091 271.455907 
" clip-path="url(#p5da77b3508)" style="fill: none; stroke: #2ca02c; stroke-linecap: square"/>
   </g>
   <g id="line2d_35">
    <path d="M 92.290909 350.598456 
L 105.818182 352.699082 
L 119.345455 356.410779 
L 132.872727 360.086825 
L 146.4 357.204508 
L 159.927273 348.186592 
L 173.454545 338.499136 
L 186.981818 327.860884 
L 200.509091 318.845673 
L 214.036364 308.430048 
L 227.563636 301.686597 
L 241.090909 297.197054 
L 254.618182 292.838741 
L 268.145455 289.372224 
L 281.672727 286.018398 
L 295.2 283.418769 
L 308.727273 281.269477 
L 322.254545 280.436124 
L 335.781818 279.855309 
L 349.309091 278.515042 
L 362.836364 278.156899 
L 376.363636 277.973007 
L 389.890909 277.634526 
L 403.418182 277.616278 
L 416.945455 277.504937 
L 430.472727 277.302742 
L 444 277.232529 
L 457.527273 277.204983 
L 471.054545 277.194935 
L 484.581818 277.176007 
L 498.109091 277.182974 
" clip-path="url(#p5da77b3508)" style="fill: none; stroke: #d62728; stroke-linecap: square"/>
   </g>
   <g id="line2d_36">
    <path d="M 92.290909 244.545562 
L 105.818182 252.464427 
L 119.345455 291.557578 
L 132.872727 332.135669 
L 146.4 347.458686 
L 159.927273 347.294923 
L 173.454545 342.211232 
L 186.981818 337.400751 
L 200.509091 331.837111 
L 214.036364 325.02201 
L 227.563636 317.864382 
L 241.090909 311.556499 
L 254.618182 304.798015 
L 268.145455 298.708165 
L 281.672727 293.592376 
L 295.2 287.1695 
L 308.727273 282.040382 
L 322.254545 280.347726 
L 335.781818 277.496691 
L 349.309091 275.975097 
L 362.836364 275.220909 
L 376.363636 274.700983 
L 389.890909 274.333707 
L 403.418182 273.886096 
L 416.945455 273.425755 
L 430.472727 273.280028 
L 444 273.216384 
L 457.527273 273.242516 
L 471.054545 273.202675 
L 484.581818 273.161883 
L 498.109091 273.108106 
" clip-path="url(#p5da77b3508)" style="fill: none; stroke: #9467bd; stroke-linecap: square"/>
   </g>
   <g id="line2d_37">
    <path d="M 92.290909 293.834783 
L 105.818182 300.312133 
L 119.345455 322.277559 
L 132.872727 339.880681 
L 146.4 345.564261 
L 159.927273 345.65207 
L 173.454545 343.104057 
L 186.981818 338.924815 
L 200.509091 334.747934 
L 214.036364 330.335618 
L 227.563636 326.230033 
L 241.090909 320.488277 
L 254.618182 316.715763 
L 268.145455 313.033242 
L 281.672727 308.751775 
L 295.2 304.488176 
L 308.727273 302.703651 
L 322.254545 300.913834 
L 335.781818 299.642122 
L 349.309091 298.428608 
L 362.836364 297.386564 
L 376.363636 297.128272 
L 389.890909 296.683398 
L 403.418182 296.393213 
L 416.945455 296.11081 
L 430.472727 296.152835 
L 444 296.131252 
L 457.527273 296.075047 
L 471.054545 296.052186 
L 484.581818 296.042427 
L 498.109091 295.997259 
" clip-path="url(#p5da77b3508)" style="fill: none; stroke: #8c564b; stroke-linecap: square"/>
   </g>
   <g id="line2d_38">
    <path d="M 92.290909 373.095834 
L 105.818182 373.108749 
L 119.345455 373.152712 
L 132.872727 373.244348 
L 146.4 373.362213 
L 159.927273 373.44722 
L 173.454545 373.447988 
L 186.981818 373.379517 
L 200.509091 373.262014 
L 214.036364 373.090006 
L 227.563636 372.860307 
L 241.090909 372.566308 
L 254.618182 372.219168 
L 268.145455 371.836074 
L 281.672727 371.407441 
L 295.2 370.926706 
L 308.727273 370.461554 
L 322.254545 370.123393 
L 335.781818 369.881386 
L 349.309091 369.697227 
L 362.836364 369.560948 
L 376.363636 369.454632 
L 389.890909 369.3776 
L 403.418182 369.320888 
L 416.945455 369.276917 
L 430.472727 369.244565 
L 444 369.221455 
L 457.527273 369.203127 
L 471.054545 369.18959 
L 484.581818 369.179603 
L 498.109091 369.172608 
" clip-path="url(#p5da77b3508)" style="fill: none; stroke: #e377c2; stroke-linecap: square"/>
   </g>
   <g id="line2d_39">
    <path d="M 92.290909 377.366802 
L 105.818182 377.392859 
L 119.345455 377.456118 
L 132.872727 377.53667 
L 146.4 377.607273 
L 159.927273 377.595244 
L 173.454545 377.492867 
L 186.981818 377.354783 
L 200.509091 377.14195 
L 214.036364 376.865154 
L 227.563636 376.523469 
L 241.090909 376.149206 
L 254.618182 375.704332 
L 268.145455 375.224549 
L 281.672727 374.70786 
L 295.2 374.151534 
L 308.727273 373.651107 
L 322.254545 373.271463 
L 335.781818 372.955911 
L 349.309091 372.735963 
L 362.836364 372.5763 
L 376.363636 372.458424 
L 389.890909 372.36591 
L 403.418182 372.300841 
L 416.945455 372.253162 
L 430.472727 372.216987 
L 444 372.190268 
L 457.527273 372.170515 
L 471.054545 372.155651 
L 484.581818 372.144925 
L 498.109091 372.137277 
" clip-path="url(#p5da77b3508)" style="fill: none; stroke: #7f7f7f; stroke-linecap: square"/>
   </g>
   <g id="patch_8">
    <path d="M 72 384.48 
L 72 233.28 
" style="fill: none; stroke: #000000; stroke-width: 0.8; stroke-linejoin: miter; stroke-linecap: square"/>
   </g>
   <g id="patch_9">
    <path d="M 518.4 384.48 
L 518.4 233.28 
" style="fill: none; stroke: #000000; stroke-width: 0.8; stroke-linejoin: miter; stroke-linecap: square"/>
   </g>
   <g id="patch_10">
    <path d="M 72 384.48 
L 518.4 384.48 
" style="fill: none; stroke: #000000; stroke-width: 0.8; stroke-linejoin: miter; stroke-linecap: square"/>
   </g>
   <g id="patch_11">
    <path d="M 72 233.28 
L 518.4 233.28 
" style="fill: none; stroke: #000000; stroke-width: 0.8; stroke-linejoin: miter; stroke-linecap: square"/>
   </g>
  </g>
  <g id="text_20">
   <!-- Variable 2 -->
   <g transform="translate(257.98125 17.758125)scale(0.12 -0.12)">
    <defs>
     <path id="DejaVuSans-56" d="M 1831 0 
L 50 4666 
L 709 4666 
L 2188 738 
L 3669 4666 
L 4325 4666 
L 2547 0 
L 1831 0 
z
" transform="scale(0.015625)"/>
     <path id="DejaVuSans-61" d="M 2194 1759 
Q 1497 1759 1228 1600 
Q 959 1441 959 1056 
Q 959 750 1161 570 
Q 1363 391 1709 391 
Q 2188 391 2477 730 
Q 2766 1069 2766 1631 
L 2766 1759 
L 2194 1759 
z
M 3341 1997 
L 3341 0 
L 2766 0 
L 2766 531 
Q 2569 213 2275 61 
Q 1981 -91 1556 -91 
Q 1019 -91 701 211 
Q 384 513 384 1019 
Q 384 1609 779 1909 
Q 1175 2209 1959 2209 
L 2766 2209 
L 2766 2266 
Q 2766 2663 2505 2880 
Q 2244 3097 1772 3097 
Q 1472 3097 1187 3025 
Q 903 2953 641 2809 
L 641 3341 
Q 956 3463 1253 3523 
Q 1550 3584 1831 3584 
Q 2591 3584 2966 3190 
Q 3341 2797 3341 1997 
z
" transform="scale(0.015625)"/>
     <path id="DejaVuSans-72" d="M 2631 2963 
Q 2534 3019 2420 3045 
Q 2306 3072 2169 3072 
Q 1681 3072 1420 2755 
Q 1159 2438 1159 1844 
L 1159 0 
L 581 0 
L 581 3500 
L 1159 3500 
L 1159 2956 
Q 1341 3275 1631 3429 
Q 1922 3584 2338 3584 
Q 2397 3584 2469 3576 
Q 2541 3569 2628 3553 
L 2631 2963 
z
" transform="scale(0.015625)"/>
     <path id="DejaVuSans-62" d="M 3116 1747 
Q 3116 2381 2855 2742 
Q 2594 3103 2138 3103 
Q 1681 3103 1420 2742 
Q 1159 2381 1159 1747 
Q 1159 1113 1420 752 
Q 1681 391 2138 391 
Q 2594 391 2855 752 
Q 3116 1113 3116 1747 
z
M 1159 2969 
Q 1341 3281 1617 3432 
Q 1894 3584 2278 3584 
Q 2916 3584 3314 3078 
Q 3713 2572 3713 1747 
Q 3713 922 3314 415 
Q 2916 -91 2278 -91 
Q 1894 -91 1617 61 
Q 1341 213 1159 525 
L 1159 0 
L 581 0 
L 581 4863 
L 1159 4863 
L 1159 2969 
z
" transform="scale(0.015625)"/>
     <path id="DejaVuSans-6c" d="M 603 4863 
L 1178 4863 
L 1178 0 
L 603 0 
L 603 4863 
z
" transform="scale(0.015625)"/>
     <path id="DejaVuSans-20" transform="scale(0.015625)"/>
    </defs>
    <use xlink:href="#DejaVuSans-56"/>
    <use xlink:href="#DejaVuSans-61" x="60.658203"/>
    <use xlink:href="#DejaVuSans-72" x="121.9375"/>
    <use xlink:href="#DejaVuSans-69" x="163.050781"/>
    <use xlink:href="#DejaVuSans-61" x="190.833984"/>
    <use xlink:href="#DejaVuSans-62" x="252.113281"/>
    <use xlink:href="#DejaVuSans-6c" x="315.589844"/>
    <use xlink:href="#DejaVuSans-65" x="343.373047"/>
    <use xlink:href="#DejaVuSans-20" x="404.896484"/>
    <use xlink:href="#DejaVuSans-32" x="436.683594"/>
   </g>
  </g>
  <g id="legend_1">
   <g id="patch_12">
    <path d="M 484.645312 125.425 
L 569 125.425 
Q 571 125.425 571 123.425 
L 571 7 
Q 571 5 569 5 
L 484.645312 5 
Q 482.645312 5 482.645312 7 
L 482.645312 123.425 
Q 482.645312 125.425 484.645312 125.425 
z
" style="fill: #ffffff; opacity: 0.8; stroke: #cccccc; stroke-linejoin: miter"/>
   </g>
   <g id="line2d_40">
    <path d="M 486.645312 13.098437 
L 496.645312 13.098437 
L 506.645312 13.098437 
" style="fill: none; stroke: #1f77b4; stroke-linecap: square"/>
   </g>
   <g id="text_21">
    <!-- 0 (correct) -->
    <g transform="translate(514.645313 16.598437)scale(0.1 -0.1)">
     <defs>
      <path id="DejaVuSans-28" d="M 1984 4856 
Q 1566 4138 1362 3434 
Q 1159 2731 1159 2009 
Q 1159 1288 1364 580 
Q 1569 -128 1984 -844 
L 1484 -844 
Q 1016 -109 783 600 
Q 550 1309 550 2009 
Q 550 2706 781 3412 
Q 1013 4119 1484 4856 
L 1984 4856 
z
" transform="scale(0.015625)"/>
      <path id="DejaVuSans-29" d="M 513 4856 
L 1013 4856 
Q 1481 4119 1714 3412 
Q 1947 2706 1947 2009 
Q 1947 1309 1714 600 
Q 1481 -109 1013 -844 
L 513 -844 
Q 928 -128 1133 580 
Q 1338 1288 1338 2009 
Q 1338 2731 1133 3434 
Q 928 4138 513 4856 
z
" transform="scale(0.015625)"/>
     </defs>
     <use xlink:href="#DejaVuSans-30"/>
     <use xlink:href="#DejaVuSans-20" x="63.623047"/>
     <use xlink:href="#DejaVuSans-28" x="95.410156"/>
     <use xlink:href="#DejaVuSans-63" x="134.423828"/>
     <use xlink:href="#DejaVuSans-6f" x="189.404297"/>
     <use xlink:href="#DejaVuSans-72" x="250.585938"/>
     <use xlink:href="#DejaVuSans-72" x="289.949219"/>
     <use xlink:href="#DejaVuSans-65" x="328.8125"/>
     <use xlink:href="#DejaVuSans-63" x="390.335938"/>
     <use xlink:href="#DejaVuSans-74" x="445.316406"/>
     <use xlink:href="#DejaVuSans-29" x="484.525391"/>
    </g>
   </g>
   <g id="line2d_41">
    <path d="M 486.645312 27.776563 
L 496.645312 27.776563 
L 506.645312 27.776563 
" style="fill: none; stroke: #ff7f0e; stroke-linecap: square"/>
   </g>
   <g id="text_22">
    <!-- 1 -->
    <g transform="translate(514.645313 31.276563)scale(0.1 -0.1)">
     <use xlink:href="#DejaVuSans-31"/>
    </g>
   </g>
   <g id="line2d_42">
    <path d="M 486.645312 42.454687 
L 496.645312 42.454687 
L 506.645312 42.454687 
" style="fill: none; stroke: #2ca02c; stroke-linecap: square"/>
   </g>
   <g id="text_23">
    <!-- 2 -->
    <g transform="translate(514.645313 45.954687)scale(0.1 -0.1)">
     <use xlink:href="#DejaVuSans-32"/>
    </g>
   </g>
   <g id="line2d_43">
    <path d="M 486.645312 57.132812 
L 496.645312 57.132812 
L 506.645312 57.132812 
" style="fill: none; stroke: #d62728; stroke-linecap: square"/>
   </g>
   <g id="text_24">
    <!-- 3 -->
    <g transform="translate(514.645313 60.632812)scale(0.1 -0.1)">
     <use xlink:href="#DejaVuSans-33"/>
    </g>
   </g>
   <g id="line2d_44">
    <path d="M 486.645312 71.810938 
L 496.645312 71.810938 
L 506.645312 71.810938 
" style="fill: none; stroke: #9467bd; stroke-linecap: square"/>
   </g>
   <g id="text_25">
    <!-- 4 (correct) -->
    <g transform="translate(514.645313 75.310938)scale(0.1 -0.1)">
     <use xlink:href="#DejaVuSans-34"/>
     <use xlink:href="#DejaVuSans-20" x="63.623047"/>
     <use xlink:href="#DejaVuSans-28" x="95.410156"/>
     <use xlink:href="#DejaVuSans-63" x="134.423828"/>
     <use xlink:href="#DejaVuSans-6f" x="189.404297"/>
     <use xlink:href="#DejaVuSans-72" x="250.585938"/>
     <use xlink:href="#DejaVuSans-72" x="289.949219"/>
     <use xlink:href="#DejaVuSans-65" x="328.8125"/>
     <use xlink:href="#DejaVuSans-63" x="390.335938"/>
     <use xlink:href="#DejaVuSans-74" x="445.316406"/>
     <use xlink:href="#DejaVuSans-29" x="484.525391"/>
    </g>
   </g>
   <g id="line2d_45">
    <path d="M 486.645312 86.489062 
L 496.645312 86.489062 
L 506.645312 86.489062 
" style="fill: none; stroke: #8c564b; stroke-linecap: square"/>
   </g>
   <g id="text_26">
    <!-- 5 -->
    <g transform="translate(514.645313 89.989062)scale(0.1 -0.1)">
     <use xlink:href="#DejaVuSans-35"/>
    </g>
   </g>
   <g id="line2d_46">
    <path d="M 486.645312 101.167187 
L 496.645312 101.167187 
L 506.645312 101.167187 
" style="fill: none; stroke: #e377c2; stroke-linecap: square"/>
   </g>
   <g id="text_27">
    <!-- 6 -->
    <g transform="translate(514.645313 104.667187)scale(0.1 -0.1)">
     <use xlink:href="#DejaVuSans-36"/>
    </g>
   </g>
   <g id="line2d_47">
    <path d="M 486.645312 115.845312 
L 496.645312 115.845312 
L 506.645312 115.845312 
" style="fill: none; stroke: #7f7f7f; stroke-linecap: square"/>
   </g>
   <g id="text_28">
    <!-- 7 -->
    <g transform="translate(514.645313 119.345312)scale(0.1 -0.1)">
     <defs>
      <path id="DejaVuSans-37" d="M 525 4666 
L 3525 4666 
L 3525 4397 
L 1831 0 
L 1172 0 
L 2766 4134 
L 525 4134 
L 525 4666 
z
" transform="scale(0.015625)"/>
     </defs>
     <use xlink:href="#DejaVuSans-37"/>
    </g>
   </g>
  </g>
 </g>
 <defs>
  <clipPath id="p50a822889c">
   <rect x="72" y="51.84" width="446.4" height="151.2"/>
  </clipPath>
  <clipPath id="p5da77b3508">
   <rect x="72" y="233.28" width="446.4" height="151.2"/>
  </clipPath>
 </defs>
</svg>
