<?xml version="1.0" encoding="UTF-8" standalone="no"?>
<!DOCTYPE svg PUBLIC "-//W3C//DTD SVG 1.1//EN"
 "http://www.w3.org/Graphics/SVG/1.1/DTD/svg11.dtd">
<!-- Generated by graphviz version 8.0.5 (20230430.1635)
 -->
<!-- Pages: 1 -->
<svg width="412pt" height="658pt"
 viewBox="0.00 0.00 412.00 658.25" xmlns="http://www.w3.org/2000/svg" xmlns:xlink="http://www.w3.org/1999/xlink">
<g id="graph0" class="graph" transform="scale(1 1) rotate(0) translate(4 654.25)">
<polygon fill="white" stroke="none" points="-4,4 -4,-654.25 408,-654.25 408,4 -4,4"/>
<!-- N1 -->
<g id="node1" class="node">
<title>N1</title>
<ellipse fill="none" stroke="black" cx="27" cy="-632.25" rx="27" ry="18"/>
<text text-anchor="middle" x="27" y="-626.83" font-family="Times New Roman,serif" font-size="14.00">N1</text>
</g>
<!-- N1&#45;&gt;N1 -->
<g id="edge1" class="edge">
<title>N1&#45;&gt;N1</title>
<path fill="none" stroke="black" d="M51.53,-640.35C62.51,-641.12 72,-638.42 72,-632.25 72,-628.3 68.1,-625.77 62.42,-624.67"/>
<polygon fill="black" stroke="black" points="62.69,-621.13 52.53,-624.15 62.36,-628.12 62.69,-621.13"/>
<text text-anchor="middle" x="84" y="-626.83" font-family="Times New Roman,serif" font-size="14.00">1.00</text>
</g>
<!-- N3 -->
<g id="node3" class="node">
<title>N3</title>
<ellipse fill="none" stroke="black" cx="137" cy="-544.5" rx="27" ry="18"/>
<text text-anchor="middle" x="137" y="-539.08" font-family="Times New Roman,serif" font-size="14.00">N3</text>
</g>
<!-- N1&#45;&gt;N3 -->
<g id="edge4" class="edge">
<title>N1&#45;&gt;N3</title>
<path fill="none" stroke="black" d="M44.19,-617.85C62.19,-603.82 90.66,-581.62 111.33,-565.51"/>
<polygon fill="black" stroke="black" points="113.2,-567.71 118.93,-558.8 108.89,-562.19 113.2,-567.71"/>
<text text-anchor="middle" x="103" y="-582.95" font-family="Times New Roman,serif" font-size="14.00">0.25</text>
</g>
<!-- N6 -->
<g id="node6" class="node">
<title>N6</title>
<ellipse fill="none" stroke="black" cx="177" cy="-193.5" rx="27" ry="18"/>
<text text-anchor="middle" x="177" y="-188.07" font-family="Times New Roman,serif" font-size="14.00">N6</text>
</g>
<!-- N1&#45;&gt;N6 -->
<g id="edge11" class="edge">
<title>N1&#45;&gt;N6</title>
<path fill="none" stroke="black" d="M21.94,-614.34C17.25,-597.17 11,-569.73 11,-545.5 11,-545.5 11,-545.5 11,-280.25 11,-222.92 90.12,-203.88 139.11,-197.58"/>
<polygon fill="black" stroke="black" points="139.43,-200.96 148.96,-196.33 138.62,-194 139.43,-200.96"/>
<text text-anchor="middle" x="23" y="-407.45" font-family="Times New Roman,serif" font-size="14.00">0.20</text>
</g>
<!-- N2 -->
<g id="node2" class="node">
<title>N2</title>
<ellipse fill="none" stroke="black" cx="147" cy="-456.75" rx="27" ry="18"/>
<text text-anchor="middle" x="147" y="-451.32" font-family="Times New Roman,serif" font-size="14.00">N2</text>
</g>
<!-- N2&#45;&gt;N3 -->
<g id="edge5" class="edge">
<title>N2&#45;&gt;N3</title>
<path fill="none" stroke="black" d="M129.5,-470.82C123.03,-476.72 116.44,-484.27 113,-492.75 109.33,-501.81 112.21,-511.55 117.08,-520.06"/>
<polygon fill="black" stroke="black" points="114.67,-521.73 123.18,-528.04 120.46,-517.8 114.67,-521.73"/>
<text text-anchor="middle" x="125" y="-495.2" font-family="Times New Roman,serif" font-size="14.00">0.25</text>
</g>
<!-- N2&#45;&gt;N6 -->
<g id="edge12" class="edge">
<title>N2&#45;&gt;N6</title>
<path fill="none" stroke="black" d="M148.97,-438.61C154.03,-394.51 167.55,-276.79 173.78,-222.56"/>
<polygon fill="black" stroke="black" points="177.36,-223.04 175.02,-212.7 170.41,-222.24 177.36,-223.04"/>
<text text-anchor="middle" x="174" y="-319.7" font-family="Times New Roman,serif" font-size="14.00">0.20</text>
</g>
<!-- N8 -->
<g id="node8" class="node">
<title>N8</title>
<ellipse fill="none" stroke="black" cx="248" cy="-369" rx="27" ry="18"/>
<text text-anchor="middle" x="248" y="-363.57" font-family="Times New Roman,serif" font-size="14.00">N8</text>
</g>
<!-- N2&#45;&gt;N8 -->
<g id="edge16" class="edge">
<title>N2&#45;&gt;N8</title>
<path fill="none" stroke="black" d="M155.07,-439.57C161.07,-428.75 170.1,-414.77 181,-405 190.9,-396.12 203.46,-388.79 215.02,-383.17"/>
<polygon fill="black" stroke="black" points="216.2,-386.02 223.83,-378.68 213.28,-379.66 216.2,-386.02"/>
<text text-anchor="middle" x="193" y="-407.45" font-family="Times New Roman,serif" font-size="14.00">0.40</text>
</g>
<!-- N3&#45;&gt;N2 -->
<g id="edge2" class="edge">
<title>N3&#45;&gt;N2</title>
<path fill="none" stroke="black" d="M139.02,-526.15C140.38,-514.52 142.19,-498.97 143.75,-485.63"/>
<polygon fill="black" stroke="black" points="147.3,-486.42 144.98,-476.08 140.34,-485.6 147.3,-486.42"/>
<text text-anchor="middle" x="154" y="-495.2" font-family="Times New Roman,serif" font-size="14.00">0.33</text>
</g>
<!-- N3&#45;&gt;N6 -->
<g id="edge13" class="edge">
<title>N3&#45;&gt;N6</title>
<path fill="none" stroke="black" d="M115.98,-532.69C92.28,-518.82 57,-492.36 57,-457.75 57,-457.75 57,-457.75 57,-280.25 57,-254.05 67.03,-246.46 87,-229.5 102.35,-216.47 123.1,-207.96 140.81,-202.6"/>
<polygon fill="black" stroke="black" points="141.67,-205.72 150.36,-199.66 139.79,-198.97 141.67,-205.72"/>
<text text-anchor="middle" x="69" y="-363.57" font-family="Times New Roman,serif" font-size="14.00">0.20</text>
</g>
<!-- N4 -->
<g id="node4" class="node">
<title>N4</title>
<ellipse fill="none" stroke="black" cx="263" cy="-18" rx="27" ry="18"/>
<text text-anchor="middle" x="263" y="-12.57" font-family="Times New Roman,serif" font-size="14.00">N4</text>
</g>
<!-- N4&#45;&gt;N2 -->
<g id="edge3" class="edge">
<title>N4&#45;&gt;N2</title>
<path fill="none" stroke="black" d="M236.18,-21.76C192.05,-27.94 109,-47.22 109,-104.75 109,-370 109,-370 109,-370 109,-392.05 119.63,-414.77 129.65,-431.28"/>
<polygon fill="black" stroke="black" points="127.05,-432.7 135.39,-439.23 132.94,-428.92 127.05,-432.7"/>
<text text-anchor="middle" x="121" y="-231.95" font-family="Times New Roman,serif" font-size="14.00">0.67</text>
</g>
<!-- N4&#45;&gt;N8 -->
<g id="edge17" class="edge">
<title>N4&#45;&gt;N8</title>
<path fill="none" stroke="black" d="M280.03,-32.16C297.77,-47.49 323,-74.59 323,-104.75 323,-282.25 323,-282.25 323,-282.25 323,-311.37 298.2,-335.35 277.12,-350.48"/>
<polygon fill="black" stroke="black" points="275.41,-348.09 269.1,-356.6 279.34,-353.88 275.41,-348.09"/>
<text text-anchor="middle" x="335" y="-188.07" font-family="Times New Roman,serif" font-size="14.00">0.20</text>
</g>
<!-- N5 -->
<g id="node5" class="node">
<title>N5</title>
<ellipse fill="none" stroke="black" cx="262" cy="-281.25" rx="27" ry="18"/>
<text text-anchor="middle" x="262" y="-275.82" font-family="Times New Roman,serif" font-size="14.00">N5</text>
</g>
<!-- N5&#45;&gt;N6 -->
<g id="edge14" class="edge">
<title>N5&#45;&gt;N6</title>
<path fill="none" stroke="black" d="M246.7,-266.13C239.96,-259.83 232,-252.25 225,-245.25 216.03,-236.28 206.38,-226.17 198.1,-217.35"/>
<polygon fill="black" stroke="black" points="201.03,-215.29 191.65,-210.36 195.91,-220.06 201.03,-215.29"/>
<text text-anchor="middle" x="237" y="-231.95" font-family="Times New Roman,serif" font-size="14.00">0.40</text>
</g>
<!-- N7 -->
<g id="node7" class="node">
<title>N7</title>
<ellipse fill="none" stroke="black" cx="263" cy="-105.75" rx="27" ry="18"/>
<text text-anchor="middle" x="263" y="-100.33" font-family="Times New Roman,serif" font-size="14.00">N7</text>
</g>
<!-- N6&#45;&gt;N7 -->
<g id="edge15" class="edge">
<title>N6&#45;&gt;N7</title>
<path fill="none" stroke="black" d="M190.6,-177.59C200.07,-167.33 213.09,-153.51 225,-141.75 229.58,-137.23 234.58,-132.49 239.4,-128.02"/>
<polygon fill="black" stroke="black" points="241.24,-131.16 246.24,-121.82 236.51,-126 241.24,-131.16"/>
<text text-anchor="middle" x="237" y="-144.2" font-family="Times New Roman,serif" font-size="14.00">1.00</text>
</g>
<!-- N6&#45;&gt;N8 -->
<g id="edge18" class="edge">
<title>N6&#45;&gt;N8</title>
<path fill="none" stroke="black" d="M179.2,-211.79C182.34,-233.06 189.2,-269.95 202,-299.25 208.99,-315.24 219.7,-331.54 229.04,-344.25"/>
<polygon fill="black" stroke="black" points="226.69,-345.95 235.51,-351.82 232.28,-341.73 226.69,-345.95"/>
<text text-anchor="middle" x="214" y="-275.82" font-family="Times New Roman,serif" font-size="14.00">0.20</text>
</g>
<!-- N7&#45;&gt;N3 -->
<g id="edge6" class="edge">
<title>N7&#45;&gt;N3</title>
<path fill="none" stroke="black" d="M288.1,-113.04C322.48,-123.32 380,-147.3 380,-192.5 380,-457.75 380,-457.75 380,-457.75 380,-500.87 242.22,-527.67 174.15,-538.28"/>
<polygon fill="black" stroke="black" points="173.83,-534.94 164.47,-539.9 174.88,-541.86 173.83,-534.94"/>
<text text-anchor="middle" x="392" y="-319.7" font-family="Times New Roman,serif" font-size="14.00">0.25</text>
</g>
<!-- N7&#45;&gt;N4 -->
<g id="edge8" class="edge">
<title>N7&#45;&gt;N4</title>
<path fill="none" stroke="black" d="M263,-87.4C263,-75.89 263,-60.53 263,-47.28"/>
<polygon fill="black" stroke="black" points="266.5,-47.33 263,-37.33 259.5,-47.33 266.5,-47.33"/>
<text text-anchor="middle" x="275" y="-56.45" font-family="Times New Roman,serif" font-size="14.00">1.00</text>
</g>
<!-- N7&#45;&gt;N5 -->
<g id="edge9" class="edge">
<title>N7&#45;&gt;N5</title>
<path fill="none" stroke="black" d="M262.9,-124.21C262.73,-154.27 262.37,-216.06 262.16,-252.22"/>
<polygon fill="black" stroke="black" points="258.66,-251.96 262.1,-261.98 265.66,-252 258.66,-251.96"/>
<text text-anchor="middle" x="274" y="-188.07" font-family="Times New Roman,serif" font-size="14.00">0.50</text>
</g>
<!-- N8&#45;&gt;N3 -->
<g id="edge7" class="edge">
<title>N8&#45;&gt;N3</title>
<path fill="none" stroke="black" d="M240.31,-386.56C227.52,-413.36 200.26,-467.38 170,-508.5 166.83,-512.81 163.17,-517.16 159.48,-521.26"/>
<polygon fill="black" stroke="black" points="157.29,-518.54 152.98,-528.22 162.38,-523.34 157.29,-518.54"/>
<text text-anchor="middle" x="225" y="-451.32" font-family="Times New Roman,serif" font-size="14.00">0.25</text>
</g>
<!-- N8&#45;&gt;N5 -->
<g id="edge10" class="edge">
<title>N8&#45;&gt;N5</title>
<path fill="none" stroke="black" d="M250.83,-350.65C252.73,-339.02 255.27,-323.47 257.45,-310.13"/>
<polygon fill="black" stroke="black" points="261.01,-311.01 259.17,-300.58 254.11,-309.88 261.01,-311.01"/>
<text text-anchor="middle" x="268" y="-319.7" font-family="Times New Roman,serif" font-size="14.00">0.50</text>
</g>
<!-- E1 -->
<g id="node9" class="node">
<title>E1</title>
<ellipse fill="none" stroke="black" cx="283" cy="-456.75" rx="27" ry="18"/>
<text text-anchor="middle" x="283" y="-451.32" font-family="Times New Roman,serif" font-size="14.00">E1</text>
</g>
<!-- E1&#45;&gt;N8 -->
<g id="edge19" class="edge">
<title>E1&#45;&gt;N8</title>
<path fill="none" stroke="black" d="M276.25,-439.22C271.34,-427.19 264.6,-410.66 258.93,-396.77"/>
<polygon fill="black" stroke="black" points="261.87,-395.71 254.85,-387.78 255.39,-398.36 261.87,-395.71"/>
<text text-anchor="middle" x="280" y="-407.45" font-family="Times New Roman,serif" font-size="14.00">0.20</text>
</g>
<!-- E1&#45;&gt;E1 -->
<g id="edge20" class="edge">
<title>E1&#45;&gt;E1</title>
<path fill="none" stroke="black" d="M307.53,-464.85C318.51,-465.62 328,-462.92 328,-456.75 328,-452.8 324.1,-450.27 318.42,-449.17"/>
<polygon fill="black" stroke="black" points="318.69,-445.63 308.53,-448.65 318.36,-452.62 318.69,-445.63"/>
<text text-anchor="middle" x="340" y="-451.32" font-family="Times New Roman,serif" font-size="14.00">1.00</text>
</g>
</g>
</svg>
