<?xml version="1.0" encoding="UTF-8" standalone="no"?>
<!DOCTYPE svg PUBLIC "-//W3C//DTD SVG 1.1//EN"
 "http://www.w3.org/Graphics/SVG/1.1/DTD/svg11.dtd">
<!-- Generated by graphviz version 8.0.5 (20230430.1635)
 -->
<!-- Pages: 1 -->
<svg width="218pt" height="220pt"
 viewBox="0.00 0.00 218.00 219.50" xmlns="http://www.w3.org/2000/svg" xmlns:xlink="http://www.w3.org/1999/xlink">
<g id="graph0" class="graph" transform="scale(1 1) rotate(0) translate(4 215.5)">
<polygon fill="white" stroke="none" points="-4,4 -4,-215.5 214,-215.5 214,4 -4,4"/>
<!-- N1 -->
<g id="node1" class="node">
<title>N1</title>
<ellipse fill="none" stroke="black" cx="101" cy="-105.75" rx="27" ry="18"/>
<text text-anchor="middle" x="101" y="-100.33" font-family="Times New Roman,serif" font-size="14.00">N1</text>
</g>
<!-- N2 -->
<g id="node2" class="node">
<title>N2</title>
<ellipse fill="none" stroke="black" cx="60" cy="-18" rx="27" ry="18"/>
<text text-anchor="middle" x="60" y="-12.57" font-family="Times New Roman,serif" font-size="14.00">N2</text>
</g>
<!-- N1&#45;&gt;N2 -->
<g id="edge4" class="edge">
<title>N1&#45;&gt;N2</title>
<path fill="none" stroke="black" d="M97.08,-87.78C94.4,-77.67 90.36,-64.75 85,-54 83.19,-50.38 81.03,-46.72 78.75,-43.21"/>
<polygon fill="black" stroke="black" points="81.16,-41.55 72.56,-35.36 75.42,-45.56 81.16,-41.55"/>
<text text-anchor="middle" x="103" y="-56.45" font-family="Times New Roman,serif" font-size="14.00">0.50</text>
</g>
<!-- N2&#45;&gt;N1 -->
<g id="edge1" class="edge">
<title>N2&#45;&gt;N1</title>
<path fill="none" stroke="black" d="M56.97,-36.23C55.98,-46.44 56.16,-59.36 61,-69.75 63.8,-75.75 68.17,-81.14 73.01,-85.78"/>
<polygon fill="black" stroke="black" points="70.51,-89.1 80.41,-92.88 75.03,-83.75 70.51,-89.1"/>
<text text-anchor="middle" x="73" y="-56.45" font-family="Times New Roman,serif" font-size="14.00">0.33</text>
</g>
<!-- N2&#45;&gt;N2 -->
<g id="edge5" class="edge">
<title>N2&#45;&gt;N2</title>
<path fill="none" stroke="black" d="M84.53,-26.1C95.51,-26.87 105,-24.17 105,-18 105,-14.05 101.1,-11.52 95.42,-10.42"/>
<polygon fill="black" stroke="black" points="95.69,-6.88 85.53,-9.9 95.36,-13.87 95.69,-6.88"/>
<text text-anchor="middle" x="117" y="-12.57" font-family="Times New Roman,serif" font-size="14.00">0.25</text>
</g>
<!-- N3 -->
<g id="node3" class="node">
<title>N3</title>
<ellipse fill="none" stroke="black" cx="27" cy="-193.5" rx="27" ry="18"/>
<text text-anchor="middle" x="27" y="-188.07" font-family="Times New Roman,serif" font-size="14.00">N3</text>
</g>
<!-- N3&#45;&gt;N1 -->
<g id="edge2" class="edge">
<title>N3&#45;&gt;N1</title>
<path fill="none" stroke="black" d="M39.89,-177.56C51.28,-164.36 68.07,-144.91 81.17,-129.73"/>
<polygon fill="black" stroke="black" points="84.13,-132.66 88.01,-122.8 78.83,-128.09 84.13,-132.66"/>
<text text-anchor="middle" x="82" y="-144.2" font-family="Times New Roman,serif" font-size="14.00">0.33</text>
</g>
<!-- N3&#45;&gt;N2 -->
<g id="edge6" class="edge">
<title>N3&#45;&gt;N2</title>
<path fill="none" stroke="black" d="M28.57,-175.33C30.64,-154.48 34.77,-118.31 41,-87.75 43.81,-73.96 47.88,-58.85 51.52,-46.33"/>
<polygon fill="black" stroke="black" points="55.08,-47.66 54.58,-37.08 48.37,-45.66 55.08,-47.66"/>
<text text-anchor="middle" x="53" y="-100.33" font-family="Times New Roman,serif" font-size="14.00">0.25</text>
</g>
<!-- N3&#45;&gt;N3 -->
<g id="edge7" class="edge">
<title>N3&#45;&gt;N3</title>
<path fill="none" stroke="black" d="M51.53,-201.6C62.51,-202.37 72,-199.67 72,-193.5 72,-189.55 68.1,-187.02 62.42,-185.92"/>
<polygon fill="black" stroke="black" points="62.69,-182.38 52.53,-185.4 62.36,-189.37 62.69,-182.38"/>
<text text-anchor="middle" x="84" y="-188.07" font-family="Times New Roman,serif" font-size="14.00">1.00</text>
</g>
<!-- E1 -->
<g id="node4" class="node">
<title>E1</title>
<ellipse fill="none" stroke="black" cx="141" cy="-193.5" rx="27" ry="18"/>
<text text-anchor="middle" x="141" y="-188.07" font-family="Times New Roman,serif" font-size="14.00">E1</text>
</g>
<!-- E1&#45;&gt;N1 -->
<g id="edge3" class="edge">
<title>E1&#45;&gt;N1</title>
<path fill="none" stroke="black" d="M133.29,-175.97C127.59,-163.75 119.71,-146.87 113.17,-132.84"/>
<polygon fill="black" stroke="black" points="116.09,-131.82 108.69,-124.23 109.74,-134.77 116.09,-131.82"/>
<text text-anchor="middle" x="136" y="-144.2" font-family="Times New Roman,serif" font-size="14.00">0.33</text>
</g>
<!-- E1&#45;&gt;E1 -->
<g id="edge8" class="edge">
<title>E1&#45;&gt;E1</title>
<path fill="none" stroke="black" d="M165.53,-201.6C176.51,-202.37 186,-199.67 186,-193.5 186,-189.55 182.1,-187.02 176.42,-185.92"/>
<polygon fill="black" stroke="black" points="176.69,-182.38 166.53,-185.4 176.36,-189.37 176.69,-182.38"/>
<text text-anchor="middle" x="198" y="-188.07" font-family="Times New Roman,serif" font-size="14.00">1.00</text>
</g>
</g>
</svg>
