<?xml version="1.0" encoding="utf-8" standalone="no"?>
<!DOCTYPE svg PUBLIC "-//W3C//DTD SVG 1.1//EN"
  "http://www.w3.org/Graphics/SVG/1.1/DTD/svg11.dtd">
<svg xmlns:xlink="http://www.w3.org/1999/xlink" width="576pt" height="432pt" viewBox="0 0 576 432" xmlns="http://www.w3.org/2000/svg" version="1.1">
 <metadata>
  <rdf:RDF xmlns:dc="http://purl.org/dc/elements/1.1/" xmlns:cc="http://creativecommons.org/ns#" xmlns:rdf="http://www.w3.org/1999/02/22-rdf-syntax-ns#">
   <cc:Work>
    <dc:type rdf:resource="http://purl.org/dc/dcmitype/StillImage"/>
    <dc:date>2023-06-06T17:51:23.277300</dc:date>
    <dc:format>image/svg+xml</dc:format>
    <dc:creator>
     <cc:Agent>
      <dc:title>Matplotlib v3.5.1, https://matplotlib.org/</dc:title>
     </cc:Agent>
    </dc:creator>
   </cc:Work>
  </rdf:RDF>
 </metadata>
 <defs>
  <style type="text/css">*{stroke-linejoin: round; stroke-linecap: butt}</style>
 </defs>
 <g id="figure_1">
  <g id="patch_1">
   <path d="M 0 432 
L 576 432 
L 576 0 
L 0 0 
z
" style="fill: #ffffff"/>
  </g>
  <g id="axes_1">
   <g id="patch_2">
    <path d="M 72 149.675294 
L 518.4 149.675294 
L 518.4 51.84 
L 72 51.84 
z
" style="fill: #ffffff"/>
   </g>
   <g id="matplotlib.axis_1">
    <g id="xtick_1">
     <g id="line2d_1">
      <defs>
       <path id="m568989d6fe" d="M 0 0 
L 0 3.5 
" style="stroke: #000000; stroke-width: 0.8"/>
      </defs>
      <g>
       <use xlink:href="#m568989d6fe" x="92.290909" y="149.675294" style="stroke: #000000; stroke-width: 0.8"/>
      </g>
     </g>
    </g>
    <g id="xtick_2">
     <g id="line2d_2">
      <g>
       <use xlink:href="#m568989d6fe" x="160.153481" y="149.675294" style="stroke: #000000; stroke-width: 0.8"/>
      </g>
     </g>
    </g>
    <g id="xtick_3">
     <g id="line2d_3">
      <g>
       <use xlink:href="#m568989d6fe" x="228.016054" y="149.675294" style="stroke: #000000; stroke-width: 0.8"/>
      </g>
     </g>
    </g>
    <g id="xtick_4">
     <g id="line2d_4">
      <g>
       <use xlink:href="#m568989d6fe" x="295.878626" y="149.675294" style="stroke: #000000; stroke-width: 0.8"/>
      </g>
     </g>
    </g>
    <g id="xtick_5">
     <g id="line2d_5">
      <g>
       <use xlink:href="#m568989d6fe" x="363.741198" y="149.675294" style="stroke: #000000; stroke-width: 0.8"/>
      </g>
     </g>
    </g>
    <g id="xtick_6">
     <g id="line2d_6">
      <g>
       <use xlink:href="#m568989d6fe" x="431.60377" y="149.675294" style="stroke: #000000; stroke-width: 0.8"/>
      </g>
     </g>
    </g>
    <g id="xtick_7">
     <g id="line2d_7">
      <g>
       <use xlink:href="#m568989d6fe" x="499.466342" y="149.675294" style="stroke: #000000; stroke-width: 0.8"/>
      </g>
     </g>
    </g>
   </g>
   <g id="matplotlib.axis_2">
    <g id="ytick_1">
     <g id="line2d_8">
      <defs>
       <path id="m5ce8300179" d="M 0 0 
L -3.5 0 
" style="stroke: #000000; stroke-width: 0.8"/>
      </defs>
      <g>
       <use xlink:href="#m5ce8300179" x="72" y="149.675294" style="stroke: #000000; stroke-width: 0.8"/>
      </g>
     </g>
     <g id="text_1">
      <!-- −2 -->
      <g transform="translate(50.257812 153.474513)scale(0.1 -0.1)">
       <defs>
        <path id="DejaVuSans-2212" d="M 678 2272 
L 4684 2272 
L 4684 1741 
L 678 1741 
L 678 2272 
z
" transform="scale(0.015625)"/>
        <path id="DejaVuSans-32" d="M 1228 531 
L 3431 531 
L 3431 0 
L 469 0 
L 469 531 
Q 828 903 1448 1529 
Q 2069 2156 2228 2338 
Q 2531 2678 2651 2914 
Q 2772 3150 2772 3378 
Q 2772 3750 2511 3984 
Q 2250 4219 1831 4219 
Q 1534 4219 1204 4116 
Q 875 4013 500 3803 
L 500 4441 
Q 881 4594 1212 4672 
Q 1544 4750 1819 4750 
Q 2544 4750 2975 4387 
Q 3406 4025 3406 3419 
Q 3406 3131 3298 2873 
Q 3191 2616 2906 2266 
Q 2828 2175 2409 1742 
Q 1991 1309 1228 531 
z
" transform="scale(0.015625)"/>
       </defs>
       <use xlink:href="#DejaVuSans-2212"/>
       <use xlink:href="#DejaVuSans-32" x="83.789062"/>
      </g>
     </g>
    </g>
    <g id="ytick_2">
     <g id="line2d_9">
      <g>
       <use xlink:href="#m5ce8300179" x="72" y="125.216471" style="stroke: #000000; stroke-width: 0.8"/>
      </g>
     </g>
     <g id="text_2">
      <!-- −1 -->
      <g transform="translate(50.257812 129.015689)scale(0.1 -0.1)">
       <defs>
        <path id="DejaVuSans-31" d="M 794 531 
L 1825 531 
L 1825 4091 
L 703 3866 
L 703 4441 
L 1819 4666 
L 2450 4666 
L 2450 531 
L 3481 531 
L 3481 0 
L 794 0 
L 794 531 
z
" transform="scale(0.015625)"/>
       </defs>
       <use xlink:href="#DejaVuSans-2212"/>
       <use xlink:href="#DejaVuSans-31" x="83.789062"/>
      </g>
     </g>
    </g>
    <g id="ytick_3">
     <g id="line2d_10">
      <g>
       <use xlink:href="#m5ce8300179" x="72" y="100.757647" style="stroke: #000000; stroke-width: 0.8"/>
      </g>
     </g>
     <g id="text_3">
      <!-- 0 -->
      <g transform="translate(58.6375 104.556866)scale(0.1 -0.1)">
       <defs>
        <path id="DejaVuSans-30" d="M 2034 4250 
Q 1547 4250 1301 3770 
Q 1056 3291 1056 2328 
Q 1056 1369 1301 889 
Q 1547 409 2034 409 
Q 2525 409 2770 889 
Q 3016 1369 3016 2328 
Q 3016 3291 2770 3770 
Q 2525 4250 2034 4250 
z
M 2034 4750 
Q 2819 4750 3233 4129 
Q 3647 3509 3647 2328 
Q 3647 1150 3233 529 
Q 2819 -91 2034 -91 
Q 1250 -91 836 529 
Q 422 1150 422 2328 
Q 422 3509 836 4129 
Q 1250 4750 2034 4750 
z
" transform="scale(0.015625)"/>
       </defs>
       <use xlink:href="#DejaVuSans-30"/>
      </g>
     </g>
    </g>
    <g id="ytick_4">
     <g id="line2d_11">
      <g>
       <use xlink:href="#m5ce8300179" x="72" y="76.298824" style="stroke: #000000; stroke-width: 0.8"/>
      </g>
     </g>
     <g id="text_4">
      <!-- 1 -->
      <g transform="translate(58.6375 80.098042)scale(0.1 -0.1)">
       <use xlink:href="#DejaVuSans-31"/>
      </g>
     </g>
    </g>
    <g id="ytick_5">
     <g id="line2d_12">
      <g>
       <use xlink:href="#m5ce8300179" x="72" y="51.84" style="stroke: #000000; stroke-width: 0.8"/>
      </g>
     </g>
     <g id="text_5">
      <!-- 2 -->
      <g transform="translate(58.6375 55.639219)scale(0.1 -0.1)">
       <use xlink:href="#DejaVuSans-32"/>
      </g>
     </g>
    </g>
    <g id="text_6">
     <!-- N1 -->
     <g transform="translate(44.178125 107.679522)rotate(-90)scale(0.1 -0.1)">
      <defs>
       <path id="DejaVuSans-4e" d="M 628 4666 
L 1478 4666 
L 3547 763 
L 3547 4666 
L 4159 4666 
L 4159 0 
L 3309 0 
L 1241 3903 
L 1241 0 
L 628 0 
L 628 4666 
z
" transform="scale(0.015625)"/>
      </defs>
      <use xlink:href="#DejaVuSans-4e"/>
      <use xlink:href="#DejaVuSans-31" x="74.804688"/>
     </g>
    </g>
   </g>
   <g id="line2d_13">
    <path d="M 92.290909 103.111811 
L 93.648161 69.692638 
L 95.005412 80.197703 
L 96.362663 158.464723 
L 97.719915 96.928591 
L 99.077166 99.465348 
L 100.434418 122.838904 
L 101.791669 87.331366 
L 103.148921 107.535249 
L 104.506172 77.230183 
L 105.863424 75.477678 
L 107.220675 165.28971 
L 108.577926 114.209752 
L 109.935178 143.837783 
L 111.292429 130.567115 
L 112.649681 104.319812 
L 114.006932 103.257341 
L 115.364184 120.174012 
L 116.721435 120.430096 
L 118.078687 86.984547 
L 119.435938 86.157955 
L 120.793189 153.338207 
L 122.150441 112.015022 
L 123.507692 89.454056 
L 124.864944 114.505982 
L 126.222195 39.62747 
L 127.579447 114.195132 
L 128.936698 97.073517 
L 130.29395 106.33391 
L 131.651201 125.549093 
L 133.008452 136.365763 
L 134.365704 112.91883 
L 135.722955 112.562849 
L 137.080207 133.192026 
L 138.437458 105.806814 
L 139.79471 72.225897 
L 141.151961 93.040513 
L 142.509213 85.79941 
L 143.866464 109.935677 
L 145.223715 96.92049 
L 146.580967 72.270615 
L 147.938218 123.371313 
L 149.29547 74.880446 
L 150.652721 96.436342 
L 152.009973 86.437656 
L 153.367224 146.98447 
L 154.724476 121.673615 
L 156.081727 90.798078 
L 157.438978 85.271393 
L 158.79623 93.205877 
L 160.153481 94.148714 
L 161.510733 83.140361 
L 162.867984 155.604041 
L 164.225236 111.063805 
L 165.582487 121.709066 
L 166.939739 118.285066 
L 168.29699 133.711036 
L 169.654241 62.471644 
L 171.011493 99.994391 
L 172.368744 153.640503 
L 173.725996 86.008962 
L 175.083247 42.250947 
L 176.440499 132.392696 
L 177.79775 102.610559 
L 179.155002 86.766367 
L 180.512253 122.36045 
L 181.869504 70.881563 
L 183.226756 88.242782 
L 184.584007 112.573417 
L 185.941259 44.01449 
L 187.29851 110.700353 
L 188.655762 118.656632 
L 190.013013 129.410184 
L 191.370265 102.650645 
L 192.727516 20.685525 
L 194.084767 90.812663 
L 195.442019 110.407933 
L 196.79927 68.234443 
L 198.156522 136.556632 
L 199.513773 115.93788 
L 200.871025 127.930815 
L 202.228276 92.374152 
L 203.585528 75.974843 
L 204.942779 98.400532 
L 206.30003 131.515362 
L 207.657282 113.355862 
L 209.014533 99.390209 
L 210.371785 120.171422 
L 211.729036 98.317768 
L 213.086288 142.521257 
L 214.443539 114.05254 
L 215.800791 44.91364 
L 217.158042 110.58037 
L 218.515293 163.092086 
L 219.872545 99.716097 
L 221.229796 81.127807 
L 222.587048 144.419028 
L 223.944299 149.440319 
L 225.301551 78.772333 
L 226.658802 115.916954 
L 228.016054 74.881288 
L 229.373305 57.541207 
L 230.730556 78.859861 
L 232.087808 55.216889 
L 233.445059 112.417161 
L 234.802311 101.864004 
L 236.159562 75.567331 
L 237.516814 131.236407 
L 238.874065 110.430543 
L 240.231317 43.770824 
L 241.588568 100.633542 
L 242.945819 106.446293 
L 244.303071 65.061643 
L 245.660322 105.356105 
L 247.017574 121.843599 
L 248.374825 135.909024 
L 249.732077 130.908205 
L 251.089328 104.764355 
L 252.44658 119.913195 
L 253.803831 133.340576 
L 255.161082 116.861023 
L 256.518334 120.327686 
L 257.875585 117.079813 
L 259.232837 112.498992 
L 260.590088 132.055415 
L 261.94734 107.381913 
L 263.304591 98.184763 
L 264.661843 115.625031 
L 266.019094 105.303119 
L 267.376345 126.843588 
L 268.733597 120.143545 
L 270.090848 105.947453 
L 271.4481 130.581971 
L 272.805351 54.314098 
L 274.162603 125.396341 
L 275.519854 101.415563 
L 276.877106 90.769372 
L 278.234357 84.456469 
L 280.94886 98.479166 
L 282.306111 95.294744 
L 283.663363 60.080621 
L 285.020614 77.361943 
L 286.377866 115.965225 
L 287.735117 145.408918 
L 289.092369 88.535503 
L 290.44962 103.786176 
L 291.806871 68.337695 
L 293.164123 98.218795 
L 294.521374 69.656667 
L 295.878626 126.113801 
L 297.235877 93.454301 
L 298.593129 75.19611 
L 299.95038 99.334802 
L 301.307631 97.643637 
L 302.664883 98.052939 
L 304.022134 117.345404 
L 305.379386 90.932196 
L 306.736637 125.91042 
L 308.093889 106.308235 
L 309.45114 60.970163 
L 310.808392 81.695398 
L 312.165643 95.376201 
L 313.522894 121.888029 
L 314.880146 100.172196 
L 316.237397 45.793662 
L 317.594649 94.361696 
L 318.9519 179.085428 
L 320.309152 92.086296 
L 321.666403 118.286626 
L 323.023655 76.378386 
L 324.380906 29.080341 
L 325.738157 67.336358 
L 327.095409 116.083173 
L 328.45266 101.485297 
L 329.809912 92.782027 
L 331.167163 99.478868 
L 332.524415 128.316548 
L 333.881666 119.602201 
L 335.238918 118.057316 
L 336.596169 140.793924 
L 337.95342 100.578785 
L 339.310672 109.643724 
L 342.025175 93.481637 
L 343.382426 86.920234 
L 344.739678 141.296906 
L 346.096929 165.521778 
L 347.454181 107.882359 
L 348.811432 68.823118 
L 350.168683 127.7793 
L 351.525935 64.235678 
L 352.883186 137.590292 
L 354.240438 102.756961 
L 355.597689 127.952832 
L 356.954941 134.847994 
L 358.312192 81.471067 
L 359.669444 106.223433 
L 361.026695 73.026535 
L 362.383946 125.264131 
L 363.741198 85.858868 
L 365.098449 143.383082 
L 366.455701 47.806091 
L 367.812952 94.917986 
L 369.170204 136.411193 
L 370.527455 94.601663 
L 371.884707 87.588212 
L 373.241958 57.66607 
L 374.599209 106.179229 
L 375.956461 92.319865 
L 377.313712 98.875649 
L 378.670964 98.820005 
L 380.028215 111.770278 
L 381.385467 120.627279 
L 382.742718 108.994313 
L 384.09997 149.394053 
L 385.457221 98.091099 
L 386.814472 92.60948 
L 388.171724 129.170188 
L 389.528975 75.474766 
L 390.886227 122.9629 
L 392.243478 84.150923 
L 393.60073 104.496909 
L 394.957981 64.938118 
L 396.315233 129.899112 
L 397.672484 101.421054 
L 399.029735 77.830012 
L 400.386987 137.782272 
L 401.744238 130.242826 
L 403.10149 132.604331 
L 404.458741 99.385954 
L 405.815993 103.27827 
L 407.173244 100.608319 
L 408.530496 124.827142 
L 409.887747 89.434611 
L 411.244998 92.339469 
L 412.60225 138.852743 
L 413.959501 112.373844 
L 415.316753 104.659737 
L 416.674004 60.969755 
L 419.388507 120.079226 
L 420.745759 109.778511 
L 422.10301 107.870692 
L 423.460261 142.425385 
L 424.817513 77.607894 
L 426.174764 132.97149 
L 427.532016 60.542424 
L 428.889267 71.663416 
L 430.246519 113.173109 
L 431.60377 102.936083 
L 432.961022 62.867949 
L 434.318273 109.155614 
L 435.675524 85.186476 
L 437.032776 73.41302 
L 438.390027 133.883343 
L 439.747279 122.574702 
L 441.10453 101.149495 
L 442.461782 98.350434 
L 443.819033 94.770131 
L 445.176285 95.964643 
L 446.533536 107.809629 
L 447.890787 118.28414 
L 449.248039 81.395879 
L 450.60529 124.741226 
L 451.962542 129.455457 
L 453.319793 87.423729 
L 454.677045 101.64799 
L 456.034296 101.660862 
L 457.391548 81.236387 
L 458.748799 158.724286 
L 460.10605 134.279225 
L 461.463302 67.55183 
L 462.820553 124.075696 
L 464.177805 94.826295 
L 465.535056 92.275665 
L 466.892308 115.344232 
L 468.249559 92.447618 
L 469.606811 148.006474 
L 470.964062 89.48016 
L 472.321313 142.056698 
L 473.678565 82.657724 
L 475.035816 117.999151 
L 476.393068 68.999452 
L 477.750319 121.350097 
L 479.107571 51.704594 
L 480.464822 98.940755 
L 481.822074 121.410192 
L 483.179325 109.147374 
L 484.536576 43.509488 
L 485.893828 66.689523 
L 487.251079 111.568244 
L 488.608331 128.574099 
L 489.965582 128.410705 
L 491.322834 94.414612 
L 492.680085 128.805493 
L 494.037337 140.566865 
L 495.394588 66.000326 
L 498.109091 47.310477 
L 498.109091 47.310477 
" clip-path="url(#pcbc1dcf364)" style="fill: none; stroke: #1f77b4; stroke-linecap: square"/>
   </g>
   <g id="line2d_14">
    <path d="M 92.290909 93.880157 
L 93.648161 74.51776 
L 95.005412 86.200728 
L 96.362663 118.656081 
L 97.719915 87.828034 
L 99.077166 114.947011 
L 100.434418 99.621134 
L 101.791669 97.322417 
L 103.148921 137.910907 
L 104.506172 96.825215 
L 105.863424 93.47692 
L 107.220675 138.774176 
L 108.577926 104.294733 
L 109.935178 145.123647 
L 111.292429 99.447673 
L 112.649681 102.635245 
L 114.006932 104.555957 
L 115.364184 153.078941 
L 116.721435 123.009048 
L 118.078687 85.290245 
L 120.793189 133.473667 
L 122.150441 101.36259 
L 123.507692 75.668197 
L 124.864944 104.7284 
L 126.222195 55.262707 
L 127.579447 121.337554 
L 128.936698 92.927951 
L 130.29395 103.315653 
L 131.651201 100.091733 
L 133.008452 113.761136 
L 134.365704 94.611179 
L 135.722955 91.289256 
L 137.080207 89.233874 
L 138.437458 99.301384 
L 139.79471 68.244888 
L 141.151961 91.782386 
L 142.509213 85.608204 
L 143.866464 97.060759 
L 145.223715 90.713399 
L 146.580967 87.555993 
L 147.938218 99.291503 
L 149.29547 98.036894 
L 150.652721 98.0376 
L 152.009973 94.867136 
L 153.367224 100.641978 
L 154.724476 111.334758 
L 156.081727 78.719965 
L 157.438978 90.034266 
L 158.79623 82.257358 
L 160.153481 112.816557 
L 161.510733 115.566336 
L 162.867984 111.632038 
L 164.225236 81.007457 
L 165.582487 121.653191 
L 166.939739 114.854838 
L 168.29699 117.039646 
L 169.654241 59.040966 
L 171.011493 101.303656 
L 172.368744 115.744915 
L 173.725996 94.400148 
L 175.083247 89.429147 
L 176.440499 118.055366 
L 177.79775 87.002125 
L 179.155002 124.515863 
L 180.512253 101.93827 
L 181.869504 95.324868 
L 183.226756 100.701617 
L 184.584007 117.399294 
L 185.941259 79.462877 
L 187.29851 106.372769 
L 188.655762 120.682181 
L 190.013013 116.7164 
L 191.370265 120.555233 
L 192.727516 75.173222 
L 194.084767 74.263445 
L 195.442019 121.523855 
L 196.79927 92.910048 
L 198.156522 101.567377 
L 199.513773 103.862539 
L 200.871025 114.323928 
L 202.228276 107.387844 
L 203.585528 94.594837 
L 204.942779 92.09786 
L 206.30003 92.734931 
L 207.657282 116.373936 
L 209.014533 103.116817 
L 210.371785 102.08574 
L 211.729036 111.343112 
L 213.086288 148.419339 
L 214.443539 126.416513 
L 215.800791 89.340258 
L 217.158042 99.927515 
L 218.515293 136.609153 
L 219.872545 102.808672 
L 221.229796 88.314203 
L 222.587048 111.08934 
L 223.944299 104.906701 
L 225.301551 91.855259 
L 226.658802 90.145252 
L 228.016054 90.438412 
L 229.373305 84.976604 
L 230.730556 111.286676 
L 232.087808 94.695955 
L 233.445059 98.376148 
L 234.802311 77.22407 
L 236.159562 99.851018 
L 237.516814 103.029571 
L 238.874065 100.679236 
L 240.231317 47.514111 
L 241.588568 114.043417 
L 242.945819 97.736987 
L 244.303071 84.316554 
L 245.660322 78.60108 
L 247.017574 112.320576 
L 248.374825 105.484831 
L 249.732077 129.926978 
L 251.089328 78.13177 
L 252.44658 81.329773 
L 253.803831 103.439112 
L 255.161082 102.729332 
L 256.518334 109.487841 
L 257.875585 100.196448 
L 259.232837 130.393233 
L 260.590088 106.66899 
L 261.94734 104.979458 
L 263.304591 92.470722 
L 264.661843 95.380314 
L 266.019094 88.921059 
L 268.733597 122.192523 
L 270.090848 117.770837 
L 271.4481 135.125542 
L 272.805351 80.618527 
L 274.162603 87.786501 
L 275.519854 101.681797 
L 276.877106 96.531362 
L 278.234357 89.604006 
L 279.591608 96.921135 
L 280.94886 80.01399 
L 283.663363 99.906097 
L 285.020614 103.147743 
L 286.377866 89.589523 
L 287.735117 109.927311 
L 289.092369 108.955017 
L 290.44962 86.675927 
L 291.806871 76.473991 
L 293.164123 102.22233 
L 294.521374 99.866396 
L 295.878626 112.988431 
L 297.235877 77.259441 
L 298.593129 104.876087 
L 299.95038 92.287325 
L 301.307631 132.261603 
L 302.664883 103.198723 
L 304.022134 111.32561 
L 305.379386 105.356778 
L 306.736637 115.570911 
L 308.093889 100.183201 
L 309.45114 76.100345 
L 310.808392 95.579156 
L 312.165643 69.646547 
L 313.522894 108.79996 
L 314.880146 101.589501 
L 316.237397 82.366823 
L 317.594649 115.782443 
L 318.9519 108.141248 
L 320.309152 96.193804 
L 321.666403 98.445533 
L 323.023655 103.829598 
L 324.380906 76.805822 
L 325.738157 105.768905 
L 327.095409 95.165645 
L 328.45266 88.450623 
L 329.809912 92.356289 
L 331.167163 90.775441 
L 332.524415 101.309642 
L 333.881666 105.510294 
L 335.238918 113.533164 
L 336.596169 94.331048 
L 337.95342 92.633732 
L 339.310672 100.58223 
L 340.667923 107.435329 
L 342.025175 82.82279 
L 343.382426 88.967316 
L 344.739678 123.531509 
L 346.096929 130.452113 
L 347.454181 106.718905 
L 348.811432 86.275963 
L 350.168683 118.325065 
L 351.525935 89.164665 
L 352.883186 96.763458 
L 354.240438 92.147917 
L 355.597689 86.647642 
L 356.954941 103.610395 
L 358.312192 99.608797 
L 359.669444 95.146331 
L 361.026695 87.176441 
L 362.383946 113.657865 
L 363.741198 103.426951 
L 365.098449 97.550564 
L 366.455701 98.709023 
L 367.812952 112.018757 
L 369.170204 105.741718 
L 370.527455 81.824193 
L 371.884707 72.626569 
L 373.241958 80.495855 
L 374.599209 103.556341 
L 375.956461 77.072963 
L 377.313712 107.029805 
L 378.670964 106.960855 
L 380.028215 107.747335 
L 381.385467 112.821049 
L 382.742718 91.433142 
L 384.09997 124.857499 
L 385.457221 77.552941 
L 386.814472 100.925624 
L 388.171724 101.430739 
L 389.528975 85.763884 
L 390.886227 106.232975 
L 392.243478 89.334883 
L 393.60073 98.132108 
L 394.957981 79.994322 
L 396.315233 116.625646 
L 397.672484 95.42053 
L 399.029735 114.972305 
L 400.386987 87.092656 
L 401.744238 113.159395 
L 403.10149 105.163276 
L 404.458741 90.90308 
L 405.815993 87.71553 
L 407.173244 119.240476 
L 408.530496 116.518582 
L 409.887747 100.853729 
L 411.244998 98.312749 
L 412.60225 104.297272 
L 413.959501 75.337141 
L 415.316753 105.633501 
L 416.674004 86.567548 
L 418.031256 101.404693 
L 419.388507 90.294947 
L 420.745759 94.25124 
L 422.10301 100.631296 
L 423.460261 121.491966 
L 424.817513 86.280496 
L 426.174764 117.905867 
L 427.532016 56.939869 
L 430.246519 104.23297 
L 431.60377 93.302088 
L 432.961022 72.272262 
L 434.318273 105.408504 
L 435.675524 90.077564 
L 437.032776 101.777866 
L 438.390027 146.400341 
L 439.747279 115.154447 
L 441.10453 90.542964 
L 442.461782 96.107467 
L 443.819033 77.162951 
L 445.176285 89.836279 
L 446.533536 99.735228 
L 447.890787 113.473491 
L 449.248039 76.290514 
L 450.60529 92.4053 
L 451.962542 124.23664 
L 453.319793 106.724816 
L 454.677045 86.103044 
L 456.034296 89.891982 
L 457.391548 89.735514 
L 458.748799 106.542002 
L 460.10605 102.33183 
L 461.463302 97.537466 
L 462.820553 104.367294 
L 464.177805 108.851524 
L 465.535056 100.153341 
L 466.892308 108.424616 
L 468.249559 101.493188 
L 469.606811 104.042508 
L 470.964062 93.014764 
L 472.321313 119.637048 
L 473.678565 81.322498 
L 475.035816 105.121213 
L 476.393068 64.120276 
L 477.750319 102.887463 
L 479.107571 79.52618 
L 480.464822 94.708184 
L 481.822074 118.296386 
L 483.179325 103.433262 
L 484.536576 68.867679 
L 485.893828 106.921012 
L 487.251079 96.868485 
L 488.608331 118.883006 
L 489.965582 110.408429 
L 491.322834 83.659084 
L 492.680085 103.950335 
L 494.037337 107.389812 
L 495.394588 78.587223 
L 496.751839 83.78261 
L 498.109091 94.1013 
L 498.109091 94.1013 
" clip-path="url(#pcbc1dcf364)" style="fill: none; stroke: #ff7f0e; stroke-linecap: square"/>
   </g>
   <g id="patch_3">
    <path d="M 72 149.675294 
L 72 51.84 
" style="fill: none; stroke: #000000; stroke-width: 0.8; stroke-linejoin: miter; stroke-linecap: square"/>
   </g>
   <g id="patch_4">
    <path d="M 518.4 149.675294 
L 518.4 51.84 
" style="fill: none; stroke: #000000; stroke-width: 0.8; stroke-linejoin: miter; stroke-linecap: square"/>
   </g>
   <g id="patch_5">
    <path d="M 72 149.675294 
L 518.4 149.675294 
" style="fill: none; stroke: #000000; stroke-width: 0.8; stroke-linejoin: miter; stroke-linecap: square"/>
   </g>
   <g id="patch_6">
    <path d="M 72 51.84 
L 518.4 51.84 
" style="fill: none; stroke: #000000; stroke-width: 0.8; stroke-linejoin: miter; stroke-linecap: square"/>
   </g>
  </g>
  <g id="axes_2">
   <g id="patch_7">
    <path d="M 72 267.077647 
L 518.4 267.077647 
L 518.4 169.242353 
L 72 169.242353 
z
" style="fill: #ffffff"/>
   </g>
   <g id="matplotlib.axis_3">
    <g id="xtick_8">
     <g id="line2d_15">
      <g>
       <use xlink:href="#m568989d6fe" x="92.290909" y="267.077647" style="stroke: #000000; stroke-width: 0.8"/>
      </g>
     </g>
    </g>
    <g id="xtick_9">
     <g id="line2d_16">
      <g>
       <use xlink:href="#m568989d6fe" x="160.153481" y="267.077647" style="stroke: #000000; stroke-width: 0.8"/>
      </g>
     </g>
    </g>
    <g id="xtick_10">
     <g id="line2d_17">
      <g>
       <use xlink:href="#m568989d6fe" x="228.016054" y="267.077647" style="stroke: #000000; stroke-width: 0.8"/>
      </g>
     </g>
    </g>
    <g id="xtick_11">
     <g id="line2d_18">
      <g>
       <use xlink:href="#m568989d6fe" x="295.878626" y="267.077647" style="stroke: #000000; stroke-width: 0.8"/>
      </g>
     </g>
    </g>
    <g id="xtick_12">
     <g id="line2d_19">
      <g>
       <use xlink:href="#m568989d6fe" x="363.741198" y="267.077647" style="stroke: #000000; stroke-width: 0.8"/>
      </g>
     </g>
    </g>
    <g id="xtick_13">
     <g id="line2d_20">
      <g>
       <use xlink:href="#m568989d6fe" x="431.60377" y="267.077647" style="stroke: #000000; stroke-width: 0.8"/>
      </g>
     </g>
    </g>
    <g id="xtick_14">
     <g id="line2d_21">
      <g>
       <use xlink:href="#m568989d6fe" x="499.466342" y="267.077647" style="stroke: #000000; stroke-width: 0.8"/>
      </g>
     </g>
    </g>
   </g>
   <g id="matplotlib.axis_4">
    <g id="ytick_6">
     <g id="line2d_22">
      <g>
       <use xlink:href="#m5ce8300179" x="72" y="267.077647" style="stroke: #000000; stroke-width: 0.8"/>
      </g>
     </g>
     <g id="text_7">
      <!-- −2 -->
      <g transform="translate(50.257812 270.876866)scale(0.1 -0.1)">
       <use xlink:href="#DejaVuSans-2212"/>
       <use xlink:href="#DejaVuSans-32" x="83.789062"/>
      </g>
     </g>
    </g>
    <g id="ytick_7">
     <g id="line2d_23">
      <g>
       <use xlink:href="#m5ce8300179" x="72" y="242.618824" style="stroke: #000000; stroke-width: 0.8"/>
      </g>
     </g>
     <g id="text_8">
      <!-- −1 -->
      <g transform="translate(50.257812 246.418042)scale(0.1 -0.1)">
       <use xlink:href="#DejaVuSans-2212"/>
       <use xlink:href="#DejaVuSans-31" x="83.789062"/>
      </g>
     </g>
    </g>
    <g id="ytick_8">
     <g id="line2d_24">
      <g>
       <use xlink:href="#m5ce8300179" x="72" y="218.16" style="stroke: #000000; stroke-width: 0.8"/>
      </g>
     </g>
     <g id="text_9">
      <!-- 0 -->
      <g transform="translate(58.6375 221.959219)scale(0.1 -0.1)">
       <use xlink:href="#DejaVuSans-30"/>
      </g>
     </g>
    </g>
    <g id="ytick_9">
     <g id="line2d_25">
      <g>
       <use xlink:href="#m5ce8300179" x="72" y="193.701176" style="stroke: #000000; stroke-width: 0.8"/>
      </g>
     </g>
     <g id="text_10">
      <!-- 1 -->
      <g transform="translate(58.6375 197.500395)scale(0.1 -0.1)">
       <use xlink:href="#DejaVuSans-31"/>
      </g>
     </g>
    </g>
    <g id="ytick_10">
     <g id="line2d_26">
      <g>
       <use xlink:href="#m5ce8300179" x="72" y="169.242353" style="stroke: #000000; stroke-width: 0.8"/>
      </g>
     </g>
     <g id="text_11">
      <!-- 2 -->
      <g transform="translate(58.6375 173.041572)scale(0.1 -0.1)">
       <use xlink:href="#DejaVuSans-32"/>
      </g>
     </g>
    </g>
    <g id="text_12">
     <!-- N2 -->
     <g transform="translate(44.178125 225.081875)rotate(-90)scale(0.1 -0.1)">
      <use xlink:href="#DejaVuSans-4e"/>
      <use xlink:href="#DejaVuSans-32" x="74.804688"/>
     </g>
    </g>
   </g>
   <g id="line2d_27">
    <path d="M 92.290909 216.608608 
L 93.648161 221.387797 
L 95.005412 218.80008 
L 96.362663 237.753973 
L 97.719915 227.846225 
L 99.077166 231.734364 
L 100.434418 210.612655 
L 101.791669 236.601027 
L 103.148921 195.214665 
L 104.506172 204.490755 
L 105.863424 169.8046 
L 107.220675 233.965592 
L 108.577926 195.147999 
L 109.935178 207.662347 
L 111.292429 230.154837 
L 112.649681 225.183164 
L 114.006932 232.221018 
L 115.364184 232.97208 
L 116.721435 220.550106 
L 118.078687 221.944653 
L 119.435938 203.065461 
L 120.793189 228.201259 
L 122.150441 217.877668 
L 123.507692 230.50105 
L 124.864944 253.045872 
L 126.222195 228.350572 
L 127.579447 185.383199 
L 128.936698 235.05657 
L 130.29395 236.736409 
L 131.651201 251.080447 
L 133.008452 148.53459 
L 134.365704 215.958127 
L 135.722955 227.611233 
L 137.080207 223.623554 
L 138.437458 173.864461 
L 139.79471 235.688495 
L 141.151961 185.699149 
L 142.509213 252.051828 
L 143.866464 221.641615 
L 145.223715 242.739747 
L 146.580967 211.264828 
L 147.938218 245.359541 
L 149.29547 215.469296 
L 150.652721 237.728585 
L 152.009973 196.871661 
L 153.367224 233.253381 
L 154.724476 203.067064 
L 156.081727 210.201885 
L 157.438978 146.510883 
L 158.79623 233.603454 
L 160.153481 205.566867 
L 161.510733 223.707848 
L 162.867984 229.156049 
L 164.225236 225.221625 
L 165.582487 235.299965 
L 166.939739 243.427166 
L 168.29699 230.614577 
L 169.654241 231.221949 
L 171.011493 221.863722 
L 172.368744 214.049131 
L 173.725996 229.212384 
L 175.083247 234.849144 
L 176.440499 255.268318 
L 177.79775 234.897349 
L 179.155002 201.961483 
L 180.512253 217.201495 
L 181.869504 231.033318 
L 183.226756 258.994003 
L 184.584007 185.998389 
L 185.941259 238.245749 
L 187.29851 234.623673 
L 188.655762 227.528 
L 190.013013 180.28428 
L 191.370265 225.458271 
L 192.727516 183.541164 
L 194.084767 235.157747 
L 195.442019 219.266162 
L 196.79927 251.288606 
L 198.156522 190.420103 
L 199.513773 239.06231 
L 200.871025 233.990399 
L 202.228276 203.767841 
L 203.585528 166.814714 
L 204.942779 217.603367 
L 206.30003 225.214693 
L 207.657282 212.246117 
L 209.014533 170.81387 
L 210.371785 253.696555 
L 211.729036 223.097453 
L 213.086288 230.038073 
L 214.443539 195.317798 
L 215.800791 235.608703 
L 217.158042 238.684763 
L 218.515293 236.737562 
L 219.872545 235.344692 
L 221.229796 226.35456 
L 222.587048 236.169844 
L 223.944299 224.05101 
L 225.301551 214.385802 
L 226.658802 199.273712 
L 228.016054 222.511674 
L 229.373305 228.889451 
L 230.730556 220.018809 
L 232.087808 238.523106 
L 233.445059 235.559012 
L 234.802311 232.115936 
L 236.159562 179.754619 
L 237.516814 221.046457 
L 238.874065 211.29463 
L 240.231317 237.438028 
L 241.588568 187.371089 
L 242.945819 233.016753 
L 244.303071 207.622486 
L 245.660322 209.162471 
L 247.017574 220.618616 
L 248.374825 226.162807 
L 249.732077 178.622008 
L 251.089328 238.006576 
L 252.44658 237.205297 
L 253.803831 191.202962 
L 255.161082 170.743158 
L 256.518334 235.055438 
L 257.875585 216.460783 
L 259.232837 221.546387 
L 260.590088 191.179963 
L 261.94734 233.013922 
L 263.304591 220.243266 
L 264.661843 221.401694 
L 266.019094 169.711151 
L 267.376345 228.537424 
L 268.733597 235.923884 
L 270.090848 244.705706 
L 271.4481 238.592082 
L 272.805351 228.383853 
L 274.162603 241.11106 
L 275.519854 202.959646 
L 276.877106 233.726936 
L 278.234357 220.751541 
L 279.591608 210.094852 
L 280.94886 211.243218 
L 282.306111 219.584112 
L 283.663363 222.64051 
L 285.020614 215.383571 
L 286.377866 242.269585 
L 287.735117 189.848934 
L 289.092369 234.971569 
L 290.44962 212.493073 
L 291.806871 226.877714 
L 293.164123 200.200425 
L 294.521374 223.955653 
L 295.878626 205.59951 
L 298.593129 239.461852 
L 299.95038 228.056721 
L 301.307631 201.179924 
L 302.664883 231.245709 
L 304.022134 235.811222 
L 305.379386 181.96448 
L 306.736637 194.264775 
L 308.093889 267.762783 
L 309.45114 222.767261 
L 310.808392 226.170182 
L 312.165643 209.505617 
L 313.522894 243.775959 
L 314.880146 222.159364 
L 316.237397 217.757207 
L 317.594649 187.484616 
L 318.9519 239.820932 
L 320.309152 230.357011 
L 321.666403 240.714998 
L 323.023655 227.965145 
L 324.380906 259.12109 
L 325.738157 231.621688 
L 327.095409 220.327189 
L 328.45266 234.429642 
L 329.809912 252.560294 
L 331.167163 219.460298 
L 332.524415 223.138488 
L 333.881666 239.847151 
L 335.238918 235.971993 
L 336.596169 187.741237 
L 337.95342 212.884705 
L 339.310672 171.295279 
L 340.667923 231.752542 
L 342.025175 227.706708 
L 343.382426 222.542031 
L 344.739678 221.799869 
L 346.096929 235.806401 
L 347.454181 214.426505 
L 348.811432 224.890481 
L 350.168683 242.768365 
L 351.525935 227.618279 
L 352.883186 168.470037 
L 354.240438 243.115368 
L 355.597689 186.595881 
L 356.954941 183.064978 
L 359.669444 252.447846 
L 361.026695 218.806503 
L 362.383946 229.134659 
L 363.741198 237.374165 
L 365.098449 233.100211 
L 366.455701 242.101928 
L 367.812952 190.09012 
L 369.170204 183.470965 
L 370.527455 236.463506 
L 371.884707 237.274341 
L 373.241958 236.108946 
L 374.599209 244.928816 
L 375.956461 203.539253 
L 377.313712 208.59142 
L 378.670964 229.066898 
L 380.028215 220.093812 
L 381.385467 257.304775 
L 382.742718 220.094227 
L 384.09997 229.676661 
L 385.457221 248.875828 
L 386.814472 241.727791 
L 388.171724 186.859401 
L 389.528975 211.639913 
L 390.886227 184.729646 
L 392.243478 213.731416 
L 393.60073 218.866811 
L 394.957981 214.204934 
L 396.315233 201.082961 
L 397.672484 222.145102 
L 399.029735 198.318276 
L 400.386987 233.450121 
L 401.744238 241.479547 
L 403.10149 232.689904 
L 404.458741 192.586981 
L 405.815993 213.764314 
L 407.173244 195.525255 
L 408.530496 200.426612 
L 409.887747 210.587598 
L 411.244998 252.842952 
L 412.60225 190.263541 
L 413.959501 201.338692 
L 415.316753 246.125952 
L 416.674004 245.292459 
L 418.031256 219.20257 
L 419.388507 196.451883 
L 420.745759 179.977631 
L 422.10301 242.217917 
L 423.460261 247.367445 
L 424.817513 229.647535 
L 426.174764 240.614873 
L 427.532016 222.14046 
L 428.889267 215.747398 
L 430.246519 248.254585 
L 431.60377 215.23196 
L 432.961022 228.14673 
L 434.318273 216.130452 
L 435.675524 225.670248 
L 437.032776 233.65891 
L 438.390027 243.88822 
L 439.747279 158.419023 
L 441.10453 216.55512 
L 442.461782 202.837962 
L 443.819033 218.189163 
L 445.176285 247.671001 
L 446.533536 232.683704 
L 447.890787 199.235666 
L 449.248039 223.606124 
L 450.60529 188.188135 
L 451.962542 210.937005 
L 453.319793 238.262678 
L 454.677045 244.387959 
L 456.034296 214.123988 
L 457.391548 238.344162 
L 458.748799 207.058659 
L 460.10605 187.823107 
L 462.820553 222.747779 
L 464.177805 178.975749 
L 465.535056 243.473065 
L 466.892308 240.207375 
L 468.249559 213.401703 
L 469.606811 251.942745 
L 470.964062 218.385654 
L 472.321313 206.930197 
L 473.678565 248.230262 
L 475.035816 221.834811 
L 476.393068 221.605401 
L 477.750319 235.479269 
L 479.107571 209.929624 
L 480.464822 232.774584 
L 481.822074 239.467882 
L 483.179325 208.142222 
L 484.536576 231.271592 
L 485.893828 250.286188 
L 487.251079 218.788952 
L 488.608331 258.072251 
L 489.965582 196.508425 
L 491.322834 181.340044 
L 492.680085 219.39657 
L 494.037337 209.908287 
L 495.394588 220.172628 
L 496.751839 229.005636 
L 498.109091 222.458277 
L 498.109091 222.458277 
" clip-path="url(#p34848fbf1c)" style="fill: none; stroke: #1f77b4; stroke-linecap: square"/>
   </g>
   <g id="line2d_28">
    <path d="M 92.290909 223.978271 
L 93.648161 220.000417 
L 95.005412 235.406083 
L 96.362663 222.377145 
L 97.719915 229.796918 
L 99.077166 229.747273 
L 100.434418 196.198157 
L 101.791669 233.707166 
L 103.148921 202.892187 
L 104.506172 190.782049 
L 105.863424 180.701758 
L 107.220675 226.976089 
L 108.577926 181.438523 
L 109.935178 200.827108 
L 111.292429 231.64609 
L 112.649681 230.573585 
L 114.006932 234.10941 
L 115.364184 234.821507 
L 116.721435 229.359797 
L 118.078687 203.147154 
L 119.435938 202.083325 
L 120.793189 223.798935 
L 123.507692 221.947891 
L 124.864944 240.150116 
L 126.222195 229.231763 
L 127.579447 185.149306 
L 128.936698 237.845292 
L 130.29395 234.489669 
L 131.651201 243.557274 
L 133.008452 175.091548 
L 134.365704 225.354241 
L 135.722955 238.098501 
L 137.080207 230.342259 
L 138.437458 181.17833 
L 139.79471 237.259217 
L 141.151961 177.856897 
L 142.509213 239.085557 
L 143.866464 227.550885 
L 145.223715 228.145378 
L 146.580967 212.728849 
L 147.938218 233.945985 
L 149.29547 217.62562 
L 150.652721 237.611619 
L 152.009973 205.723584 
L 153.367224 226.502553 
L 154.724476 193.004404 
L 156.081727 216.824249 
L 157.438978 170.614027 
L 158.79623 239.245729 
L 160.153481 190.430317 
L 161.510733 223.983496 
L 162.867984 227.829747 
L 164.225236 229.75025 
L 165.582487 237.847598 
L 166.939739 237.090843 
L 168.29699 228.911557 
L 169.654241 226.420969 
L 171.011493 215.813397 
L 172.368744 233.240413 
L 173.725996 223.027217 
L 175.083247 234.297577 
L 176.440499 235.626546 
L 177.79775 231.923097 
L 179.155002 191.384369 
L 180.512253 229.803148 
L 181.869504 230.130234 
L 183.226756 240.782916 
L 184.584007 184.211144 
L 185.941259 224.709927 
L 187.29851 236.047223 
L 188.655762 223.885133 
L 190.013013 177.295093 
L 191.370265 222.741179 
L 192.727516 195.194028 
L 194.084767 240.934216 
L 195.442019 232.218106 
L 196.79927 226.151433 
L 198.156522 195.888361 
L 199.513773 235.879993 
L 200.871025 226.889004 
L 202.228276 225.910919 
L 203.585528 189.882159 
L 204.942779 232.281926 
L 206.30003 216.265935 
L 207.657282 204.452699 
L 209.014533 178.722285 
L 210.371785 231.60502 
L 211.729036 216.762598 
L 213.086288 208.255673 
L 214.443539 216.090464 
L 215.800791 233.830272 
L 217.158042 238.497493 
L 218.515293 236.39371 
L 219.872545 224.226553 
L 221.229796 237.205984 
L 222.587048 232.887342 
L 223.944299 230.012826 
L 225.301551 225.877087 
L 226.658802 223.77638 
L 228.016054 233.565292 
L 229.373305 219.648863 
L 230.730556 223.931544 
L 232.087808 232.534782 
L 233.445059 235.68593 
L 234.802311 228.608564 
L 236.159562 183.604981 
L 237.516814 226.96211 
L 238.874065 228.564242 
L 240.231317 236.071375 
L 241.588568 187.785081 
L 242.945819 234.293161 
L 244.303071 186.183383 
L 245.660322 225.731071 
L 247.017574 229.584203 
L 248.374825 233.788337 
L 249.732077 187.904972 
L 251.089328 235.436959 
L 252.44658 238.382154 
L 253.803831 209.974601 
L 255.161082 189.227886 
L 256.518334 227.400631 
L 257.875585 221.085775 
L 259.232837 225.568632 
L 260.590088 173.94588 
L 261.94734 236.354318 
L 263.304591 230.779222 
L 264.661843 219.250721 
L 266.019094 201.805272 
L 267.376345 237.652608 
L 268.733597 226.868243 
L 270.090848 238.213564 
L 271.4481 238.650763 
L 272.805351 224.538438 
L 274.162603 231.951962 
L 275.519854 222.12977 
L 276.877106 222.970475 
L 278.234357 206.101438 
L 279.591608 202.071101 
L 280.94886 215.557288 
L 282.306111 205.167755 
L 283.663363 236.255876 
L 285.020614 232.505543 
L 286.377866 238.488877 
L 287.735117 182.282953 
L 289.092369 221.551878 
L 290.44962 223.099929 
L 291.806871 232.238728 
L 293.164123 197.628326 
L 294.521374 210.538574 
L 295.878626 214.086523 
L 297.235877 207.742351 
L 298.593129 233.489739 
L 299.95038 224.835261 
L 301.307631 197.407529 
L 302.664883 236.210511 
L 304.022134 208.693109 
L 305.379386 203.694289 
L 306.736637 191.502033 
L 308.093889 239.48784 
L 309.45114 227.257631 
L 310.808392 229.974164 
L 312.165643 187.11539 
L 313.522894 233.168608 
L 314.880146 204.853345 
L 316.237397 225.980378 
L 317.594649 181.9562 
L 318.9519 234.482039 
L 320.309152 240.13799 
L 321.666403 241.601283 
L 323.023655 234.37443 
L 324.380906 237.190507 
L 325.738157 238.83838 
L 327.095409 212.135362 
L 328.45266 236.623282 
L 329.809912 225.573818 
L 331.167163 203.378834 
L 332.524415 201.0539 
L 333.881666 229.161672 
L 335.238918 225.546353 
L 336.596169 204.401695 
L 337.95342 237.123966 
L 339.310672 182.689002 
L 340.667923 238.765568 
L 342.025175 220.649463 
L 343.382426 236.120546 
L 344.739678 217.358352 
L 346.096929 228.337194 
L 347.454181 225.969692 
L 348.811432 221.823326 
L 350.168683 226.951247 
L 351.525935 234.141527 
L 352.883186 191.722062 
L 354.240438 236.671013 
L 355.597689 218.397359 
L 356.954941 188.356643 
L 358.312192 203.820864 
L 359.669444 239.25125 
L 361.026695 211.453133 
L 362.383946 227.666401 
L 363.741198 230.440287 
L 365.098449 236.98558 
L 366.455701 232.370805 
L 367.812952 203.796575 
L 369.170204 193.226897 
L 370.527455 238.844768 
L 371.884707 228.09942 
L 373.241958 236.691479 
L 374.599209 237.07929 
L 375.956461 235.471698 
L 377.313712 220.47693 
L 378.670964 233.339446 
L 380.028215 235.958009 
L 381.385467 242.228346 
L 382.742718 208.061097 
L 384.09997 223.231 
L 385.457221 240.897564 
L 386.814472 240.1151 
L 388.171724 182.63078 
L 389.528975 222.81951 
L 390.886227 187.921157 
L 392.243478 237.818419 
L 393.60073 235.385776 
L 394.957981 229.717976 
L 396.315233 207.657967 
L 397.672484 230.319289 
L 399.029735 190.255558 
L 400.386987 216.759226 
L 401.744238 228.871652 
L 403.10149 226.623234 
L 404.458741 189.661223 
L 405.815993 236.074431 
L 407.173244 192.980055 
L 408.530496 201.627809 
L 409.887747 230.352472 
L 411.244998 238.247809 
L 412.60225 196.880544 
L 413.959501 227.523618 
L 415.316753 234.016094 
L 416.674004 225.334526 
L 418.031256 215.171803 
L 419.388507 191.447066 
L 420.745759 181.904052 
L 422.10301 238.076302 
L 423.460261 237.988724 
L 424.817513 237.666724 
L 426.174764 230.462171 
L 427.532016 219.153305 
L 428.889267 219.077556 
L 430.246519 237.095969 
L 431.60377 204.830712 
L 432.961022 239.317377 
L 434.318273 221.829123 
L 435.675524 236.769455 
L 437.032776 233.548907 
L 438.390027 235.529839 
L 439.747279 178.674713 
L 441.10453 206.09095 
L 442.461782 196.615423 
L 443.819033 229.508889 
L 445.176285 219.032525 
L 446.533536 225.920679 
L 447.890787 216.960348 
L 449.248039 232.642943 
L 450.60529 194.251688 
L 451.962542 229.19651 
L 453.319793 239.439142 
L 454.677045 234.055565 
L 456.034296 211.420602 
L 457.391548 228.728968 
L 458.748799 188.043731 
L 460.10605 187.956528 
L 461.463302 201.008356 
L 462.820553 228.355983 
L 464.177805 183.872918 
L 465.535056 217.198634 
L 466.892308 240.675229 
L 468.249559 233.439089 
L 469.606811 223.610747 
L 472.321313 191.129504 
L 473.678565 237.666389 
L 475.035816 229.180521 
L 476.393068 232.14222 
L 477.750319 232.012015 
L 479.107571 231.76058 
L 480.464822 233.836424 
L 481.822074 231.647607 
L 483.179325 210.894819 
L 484.536576 232.849053 
L 485.893828 228.602077 
L 487.251079 231.595774 
L 488.608331 233.283512 
L 489.965582 221.449238 
L 491.322834 186.951433 
L 492.680085 228.027398 
L 494.037337 216.930951 
L 495.394588 228.773151 
L 496.751839 228.135697 
L 498.109091 235.324676 
L 498.109091 235.324676 
" clip-path="url(#p34848fbf1c)" style="fill: none; stroke: #ff7f0e; stroke-linecap: square"/>
   </g>
   <g id="patch_8">
    <path d="M 72 267.077647 
L 72 169.242353 
" style="fill: none; stroke: #000000; stroke-width: 0.8; stroke-linejoin: miter; stroke-linecap: square"/>
   </g>
   <g id="patch_9">
    <path d="M 518.4 267.077647 
L 518.4 169.242353 
" style="fill: none; stroke: #000000; stroke-width: 0.8; stroke-linejoin: miter; stroke-linecap: square"/>
   </g>
   <g id="patch_10">
    <path d="M 72 267.077647 
L 518.4 267.077647 
" style="fill: none; stroke: #000000; stroke-width: 0.8; stroke-linejoin: miter; stroke-linecap: square"/>
   </g>
   <g id="patch_11">
    <path d="M 72 169.242353 
L 518.4 169.242353 
" style="fill: none; stroke: #000000; stroke-width: 0.8; stroke-linejoin: miter; stroke-linecap: square"/>
   </g>
  </g>
  <g id="axes_3">
   <g id="patch_12">
    <path d="M 72 384.48 
L 518.4 384.48 
L 518.4 286.644706 
L 72 286.644706 
z
" style="fill: #ffffff"/>
   </g>
   <g id="matplotlib.axis_5">
    <g id="xtick_15">
     <g id="line2d_29">
      <g>
       <use xlink:href="#m568989d6fe" x="92.290909" y="384.48" style="stroke: #000000; stroke-width: 0.8"/>
      </g>
     </g>
     <g id="text_13">
      <!-- 0 -->
      <g transform="translate(89.109659 399.078438)scale(0.1 -0.1)">
       <use xlink:href="#DejaVuSans-30"/>
      </g>
     </g>
    </g>
    <g id="xtick_16">
     <g id="line2d_30">
      <g>
       <use xlink:href="#m568989d6fe" x="160.153481" y="384.48" style="stroke: #000000; stroke-width: 0.8"/>
      </g>
     </g>
     <g id="text_14">
      <!-- 50 -->
      <g transform="translate(153.790981 399.078438)scale(0.1 -0.1)">
       <defs>
        <path id="DejaVuSans-35" d="M 691 4666 
L 3169 4666 
L 3169 4134 
L 1269 4134 
L 1269 2991 
Q 1406 3038 1543 3061 
Q 1681 3084 1819 3084 
Q 2600 3084 3056 2656 
Q 3513 2228 3513 1497 
Q 3513 744 3044 326 
Q 2575 -91 1722 -91 
Q 1428 -91 1123 -41 
Q 819 9 494 109 
L 494 744 
Q 775 591 1075 516 
Q 1375 441 1709 441 
Q 2250 441 2565 725 
Q 2881 1009 2881 1497 
Q 2881 1984 2565 2268 
Q 2250 2553 1709 2553 
Q 1456 2553 1204 2497 
Q 953 2441 691 2322 
L 691 4666 
z
" transform="scale(0.015625)"/>
       </defs>
       <use xlink:href="#DejaVuSans-35"/>
       <use xlink:href="#DejaVuSans-30" x="63.623047"/>
      </g>
     </g>
    </g>
    <g id="xtick_17">
     <g id="line2d_31">
      <g>
       <use xlink:href="#m568989d6fe" x="228.016054" y="384.48" style="stroke: #000000; stroke-width: 0.8"/>
      </g>
     </g>
     <g id="text_15">
      <!-- 100 -->
      <g transform="translate(218.472304 399.078438)scale(0.1 -0.1)">
       <use xlink:href="#DejaVuSans-31"/>
       <use xlink:href="#DejaVuSans-30" x="63.623047"/>
       <use xlink:href="#DejaVuSans-30" x="127.246094"/>
      </g>
     </g>
    </g>
    <g id="xtick_18">
     <g id="line2d_32">
      <g>
       <use xlink:href="#m568989d6fe" x="295.878626" y="384.48" style="stroke: #000000; stroke-width: 0.8"/>
      </g>
     </g>
     <g id="text_16">
      <!-- 150 -->
      <g transform="translate(286.334876 399.078438)scale(0.1 -0.1)">
       <use xlink:href="#DejaVuSans-31"/>
       <use xlink:href="#DejaVuSans-35" x="63.623047"/>
       <use xlink:href="#DejaVuSans-30" x="127.246094"/>
      </g>
     </g>
    </g>
    <g id="xtick_19">
     <g id="line2d_33">
      <g>
       <use xlink:href="#m568989d6fe" x="363.741198" y="384.48" style="stroke: #000000; stroke-width: 0.8"/>
      </g>
     </g>
     <g id="text_17">
      <!-- 200 -->
      <g transform="translate(354.197448 399.078438)scale(0.1 -0.1)">
       <use xlink:href="#DejaVuSans-32"/>
       <use xlink:href="#DejaVuSans-30" x="63.623047"/>
       <use xlink:href="#DejaVuSans-30" x="127.246094"/>
      </g>
     </g>
    </g>
    <g id="xtick_20">
     <g id="line2d_34">
      <g>
       <use xlink:href="#m568989d6fe" x="431.60377" y="384.48" style="stroke: #000000; stroke-width: 0.8"/>
      </g>
     </g>
     <g id="text_18">
      <!-- 250 -->
      <g transform="translate(422.06002 399.078438)scale(0.1 -0.1)">
       <use xlink:href="#DejaVuSans-32"/>
       <use xlink:href="#DejaVuSans-35" x="63.623047"/>
       <use xlink:href="#DejaVuSans-30" x="127.246094"/>
      </g>
     </g>
    </g>
    <g id="xtick_21">
     <g id="line2d_35">
      <g>
       <use xlink:href="#m568989d6fe" x="499.466342" y="384.48" style="stroke: #000000; stroke-width: 0.8"/>
      </g>
     </g>
     <g id="text_19">
      <!-- 300 -->
      <g transform="translate(489.922592 399.078438)scale(0.1 -0.1)">
       <defs>
        <path id="DejaVuSans-33" d="M 2597 2516 
Q 3050 2419 3304 2112 
Q 3559 1806 3559 1356 
Q 3559 666 3084 287 
Q 2609 -91 1734 -91 
Q 1441 -91 1130 -33 
Q 819 25 488 141 
L 488 750 
Q 750 597 1062 519 
Q 1375 441 1716 441 
Q 2309 441 2620 675 
Q 2931 909 2931 1356 
Q 2931 1769 2642 2001 
Q 2353 2234 1838 2234 
L 1294 2234 
L 1294 2753 
L 1863 2753 
Q 2328 2753 2575 2939 
Q 2822 3125 2822 3475 
Q 2822 3834 2567 4026 
Q 2313 4219 1838 4219 
Q 1578 4219 1281 4162 
Q 984 4106 628 3988 
L 628 4550 
Q 988 4650 1302 4700 
Q 1616 4750 1894 4750 
Q 2613 4750 3031 4423 
Q 3450 4097 3450 3541 
Q 3450 3153 3228 2886 
Q 3006 2619 2597 2516 
z
" transform="scale(0.015625)"/>
       </defs>
       <use xlink:href="#DejaVuSans-33"/>
       <use xlink:href="#DejaVuSans-30" x="63.623047"/>
       <use xlink:href="#DejaVuSans-30" x="127.246094"/>
      </g>
     </g>
    </g>
    <g id="text_20">
     <!-- Timesteps -->
     <g transform="translate(269.546094 412.756563)scale(0.1 -0.1)">
      <defs>
       <path id="DejaVuSans-54" d="M -19 4666 
L 3928 4666 
L 3928 4134 
L 2272 4134 
L 2272 0 
L 1638 0 
L 1638 4134 
L -19 4134 
L -19 4666 
z
" transform="scale(0.015625)"/>
       <path id="DejaVuSans-69" d="M 603 3500 
L 1178 3500 
L 1178 0 
L 603 0 
L 603 3500 
z
M 603 4863 
L 1178 4863 
L 1178 4134 
L 603 4134 
L 603 4863 
z
" transform="scale(0.015625)"/>
       <path id="DejaVuSans-6d" d="M 3328 2828 
Q 3544 3216 3844 3400 
Q 4144 3584 4550 3584 
Q 5097 3584 5394 3201 
Q 5691 2819 5691 2113 
L 5691 0 
L 5113 0 
L 5113 2094 
Q 5113 2597 4934 2840 
Q 4756 3084 4391 3084 
Q 3944 3084 3684 2787 
Q 3425 2491 3425 1978 
L 3425 0 
L 2847 0 
L 2847 2094 
Q 2847 2600 2669 2842 
Q 2491 3084 2119 3084 
Q 1678 3084 1418 2786 
Q 1159 2488 1159 1978 
L 1159 0 
L 581 0 
L 581 3500 
L 1159 3500 
L 1159 2956 
Q 1356 3278 1631 3431 
Q 1906 3584 2284 3584 
Q 2666 3584 2933 3390 
Q 3200 3197 3328 2828 
z
" transform="scale(0.015625)"/>
       <path id="DejaVuSans-65" d="M 3597 1894 
L 3597 1613 
L 953 1613 
Q 991 1019 1311 708 
Q 1631 397 2203 397 
Q 2534 397 2845 478 
Q 3156 559 3463 722 
L 3463 178 
Q 3153 47 2828 -22 
Q 2503 -91 2169 -91 
Q 1331 -91 842 396 
Q 353 884 353 1716 
Q 353 2575 817 3079 
Q 1281 3584 2069 3584 
Q 2775 3584 3186 3129 
Q 3597 2675 3597 1894 
z
M 3022 2063 
Q 3016 2534 2758 2815 
Q 2500 3097 2075 3097 
Q 1594 3097 1305 2825 
Q 1016 2553 972 2059 
L 3022 2063 
z
" transform="scale(0.015625)"/>
       <path id="DejaVuSans-73" d="M 2834 3397 
L 2834 2853 
Q 2591 2978 2328 3040 
Q 2066 3103 1784 3103 
Q 1356 3103 1142 2972 
Q 928 2841 928 2578 
Q 928 2378 1081 2264 
Q 1234 2150 1697 2047 
L 1894 2003 
Q 2506 1872 2764 1633 
Q 3022 1394 3022 966 
Q 3022 478 2636 193 
Q 2250 -91 1575 -91 
Q 1294 -91 989 -36 
Q 684 19 347 128 
L 347 722 
Q 666 556 975 473 
Q 1284 391 1588 391 
Q 1994 391 2212 530 
Q 2431 669 2431 922 
Q 2431 1156 2273 1281 
Q 2116 1406 1581 1522 
L 1381 1569 
Q 847 1681 609 1914 
Q 372 2147 372 2553 
Q 372 3047 722 3315 
Q 1072 3584 1716 3584 
Q 2034 3584 2315 3537 
Q 2597 3491 2834 3397 
z
" transform="scale(0.015625)"/>
       <path id="DejaVuSans-74" d="M 1172 4494 
L 1172 3500 
L 2356 3500 
L 2356 3053 
L 1172 3053 
L 1172 1153 
Q 1172 725 1289 603 
Q 1406 481 1766 481 
L 2356 481 
L 2356 0 
L 1766 0 
Q 1100 0 847 248 
Q 594 497 594 1153 
L 594 3053 
L 172 3053 
L 172 3500 
L 594 3500 
L 594 4494 
L 1172 4494 
z
" transform="scale(0.015625)"/>
       <path id="DejaVuSans-70" d="M 1159 525 
L 1159 -1331 
L 581 -1331 
L 581 3500 
L 1159 3500 
L 1159 2969 
Q 1341 3281 1617 3432 
Q 1894 3584 2278 3584 
Q 2916 3584 3314 3078 
Q 3713 2572 3713 1747 
Q 3713 922 3314 415 
Q 2916 -91 2278 -91 
Q 1894 -91 1617 61 
Q 1341 213 1159 525 
z
M 3116 1747 
Q 3116 2381 2855 2742 
Q 2594 3103 2138 3103 
Q 1681 3103 1420 2742 
Q 1159 2381 1159 1747 
Q 1159 1113 1420 752 
Q 1681 391 2138 391 
Q 2594 391 2855 752 
Q 3116 1113 3116 1747 
z
" transform="scale(0.015625)"/>
      </defs>
      <use xlink:href="#DejaVuSans-54"/>
      <use xlink:href="#DejaVuSans-69" x="57.958984"/>
      <use xlink:href="#DejaVuSans-6d" x="85.742188"/>
      <use xlink:href="#DejaVuSans-65" x="183.154297"/>
      <use xlink:href="#DejaVuSans-73" x="244.677734"/>
      <use xlink:href="#DejaVuSans-74" x="296.777344"/>
      <use xlink:href="#DejaVuSans-65" x="335.986328"/>
      <use xlink:href="#DejaVuSans-70" x="397.509766"/>
      <use xlink:href="#DejaVuSans-73" x="460.986328"/>
     </g>
    </g>
   </g>
   <g id="matplotlib.axis_6">
    <g id="ytick_11">
     <g id="line2d_36">
      <g>
       <use xlink:href="#m5ce8300179" x="72" y="384.48" style="stroke: #000000; stroke-width: 0.8"/>
      </g>
     </g>
     <g id="text_21">
      <!-- −2 -->
      <g transform="translate(50.257812 388.279219)scale(0.1 -0.1)">
       <use xlink:href="#DejaVuSans-2212"/>
       <use xlink:href="#DejaVuSans-32" x="83.789062"/>
      </g>
     </g>
    </g>
    <g id="ytick_12">
     <g id="line2d_37">
      <g>
       <use xlink:href="#m5ce8300179" x="72" y="360.021176" style="stroke: #000000; stroke-width: 0.8"/>
      </g>
     </g>
     <g id="text_22">
      <!-- −1 -->
      <g transform="translate(50.257812 363.820395)scale(0.1 -0.1)">
       <use xlink:href="#DejaVuSans-2212"/>
       <use xlink:href="#DejaVuSans-31" x="83.789062"/>
      </g>
     </g>
    </g>
    <g id="ytick_13">
     <g id="line2d_38">
      <g>
       <use xlink:href="#m5ce8300179" x="72" y="335.562353" style="stroke: #000000; stroke-width: 0.8"/>
      </g>
     </g>
     <g id="text_23">
      <!-- 0 -->
      <g transform="translate(58.6375 339.361572)scale(0.1 -0.1)">
       <use xlink:href="#DejaVuSans-30"/>
      </g>
     </g>
    </g>
    <g id="ytick_14">
     <g id="line2d_39">
      <g>
       <use xlink:href="#m5ce8300179" x="72" y="311.103529" style="stroke: #000000; stroke-width: 0.8"/>
      </g>
     </g>
     <g id="text_24">
      <!-- 1 -->
      <g transform="translate(58.6375 314.902748)scale(0.1 -0.1)">
       <use xlink:href="#DejaVuSans-31"/>
      </g>
     </g>
    </g>
    <g id="ytick_15">
     <g id="line2d_40">
      <g>
       <use xlink:href="#m5ce8300179" x="72" y="286.644706" style="stroke: #000000; stroke-width: 0.8"/>
      </g>
     </g>
     <g id="text_25">
      <!-- 2 -->
      <g transform="translate(58.6375 290.443925)scale(0.1 -0.1)">
       <use xlink:href="#DejaVuSans-32"/>
      </g>
     </g>
    </g>
    <g id="text_26">
     <!-- N3 -->
     <g transform="translate(44.178125 342.484228)rotate(-90)scale(0.1 -0.1)">
      <use xlink:href="#DejaVuSans-4e"/>
      <use xlink:href="#DejaVuSans-33" x="74.804688"/>
     </g>
    </g>
   </g>
   <g id="line2d_41">
    <path d="M 92.290909 329.921732 
L 93.648161 343.667429 
L 95.005412 298.373798 
L 96.362663 368.516132 
L 97.719915 368.379464 
L 99.077166 380.702733 
L 100.434418 344.662081 
L 101.791669 361.85177 
L 103.148921 351.170173 
L 104.506172 317.214789 
L 105.863424 324.392861 
L 107.220675 353.181639 
L 108.577926 301.598971 
L 109.935178 350.586455 
L 111.292429 314.680563 
L 112.649681 309.407969 
L 114.006932 334.511063 
L 115.364184 331.922741 
L 116.721435 300.161376 
L 118.078687 316.125389 
L 119.435938 306.832304 
L 120.793189 357.609477 
L 122.150441 372.53674 
L 123.507692 339.995214 
L 124.864944 352.767171 
L 126.222195 308.068321 
L 127.579447 326.062733 
L 128.936698 322.861523 
L 130.29395 345.105967 
L 131.651201 339.795439 
L 133.008452 321.013446 
L 134.365704 361.613165 
L 135.722955 329.460692 
L 137.080207 375.01292 
L 138.437458 354.861255 
L 139.79471 308.48184 
L 141.151961 334.132088 
L 142.509213 366.679818 
L 143.866464 356.800861 
L 145.223715 362.177281 
L 146.580967 334.748248 
L 147.938218 352.183924 
L 149.29547 314.087236 
L 150.652721 318.883407 
L 152.009973 368.323456 
L 153.367224 350.463903 
L 154.724476 348.942803 
L 156.081727 315.363874 
L 157.438978 291.442297 
L 158.79623 350.176208 
L 161.510733 332.287058 
L 162.867984 334.365586 
L 164.225236 315.913858 
L 165.582487 366.533741 
L 166.939739 299.175956 
L 168.29699 365.367124 
L 169.654241 333.105619 
L 171.011493 344.188725 
L 172.368744 306.044273 
L 173.725996 313.503743 
L 175.083247 361.371393 
L 176.440499 348.323067 
L 177.79775 351.836914 
L 179.155002 305.085453 
L 180.512253 318.925724 
L 181.869504 360.63327 
L 183.226756 353.050474 
L 184.584007 310.581143 
L 185.941259 300.898577 
L 187.29851 323.092792 
L 188.655762 302.963524 
L 190.013013 368.516013 
L 191.370265 356.267639 
L 192.727516 362.495444 
L 194.084767 340.083782 
L 195.442019 295.509465 
L 196.79927 288.265181 
L 198.156522 345.220043 
L 199.513773 357.089927 
L 200.871025 335.950068 
L 202.228276 321.934656 
L 203.585528 316.189847 
L 204.942779 371.001544 
L 206.30003 354.322153 
L 207.657282 331.017007 
L 209.014533 334.594241 
L 210.371785 356.071584 
L 211.729036 363.079637 
L 213.086288 331.689617 
L 214.443539 354.858854 
L 215.800791 347.195857 
L 217.158042 323.000535 
L 218.515293 359.978422 
L 219.872545 288.448877 
L 221.229796 344.725447 
L 222.587048 370.177833 
L 223.944299 293.926767 
L 225.301551 331.112879 
L 226.658802 295.746423 
L 228.016054 346.579073 
L 229.373305 352.186782 
L 230.730556 369.33179 
L 232.087808 314.040319 
L 233.445059 301.656708 
L 234.802311 301.387934 
L 236.159562 337.048896 
L 237.516814 341.496074 
L 238.874065 294.963057 
L 240.231317 311.776856 
L 241.588568 301.48773 
L 242.945819 348.821917 
L 244.303071 323.791055 
L 245.660322 354.166477 
L 247.017574 294.369618 
L 248.374825 333.136044 
L 249.732077 348.294219 
L 251.089328 333.216189 
L 252.44658 364.208519 
L 253.803831 296.34046 
L 255.161082 334.488445 
L 256.518334 327.875619 
L 257.875585 360.889431 
L 259.232837 354.181732 
L 260.590088 352.227664 
L 261.94734 300.556505 
L 263.304591 286.592509 
L 264.661843 355.582522 
L 266.019094 344.268021 
L 267.376345 361.153336 
L 268.733597 326.88017 
L 270.090848 344.545491 
L 271.4481 313.5182 
L 272.805351 348.174282 
L 274.162603 299.920138 
L 275.519854 326.254539 
L 276.877106 313.44486 
L 278.234357 363.364567 
L 279.591608 358.144346 
L 280.94886 313.978038 
L 282.306111 328.689758 
L 283.663363 351.999017 
L 285.020614 314.321603 
L 286.377866 336.888605 
L 287.735117 356.969652 
L 290.44962 325.654432 
L 291.806871 312.118582 
L 293.164123 345.998576 
L 294.521374 336.937044 
L 295.878626 290.132052 
L 297.235877 370.546283 
L 298.593129 299.874658 
L 299.95038 348.575049 
L 301.307631 343.364517 
L 304.022134 359.201132 
L 305.379386 334.602491 
L 306.736637 362.90763 
L 308.093889 323.636302 
L 309.45114 323.592692 
L 310.808392 362.797728 
L 312.165643 305.108485 
L 313.522894 321.445283 
L 314.880146 299.178848 
L 316.237397 344.719875 
L 317.594649 348.811607 
L 318.9519 292.646923 
L 320.309152 296.935474 
L 321.666403 347.003686 
L 323.023655 361.930054 
L 324.380906 360.720168 
L 325.738157 325.728518 
L 327.095409 305.191825 
L 328.45266 311.448924 
L 329.809912 344.901778 
L 331.167163 315.997794 
L 332.524415 345.007516 
L 333.881666 350.169991 
L 335.238918 333.96255 
L 336.596169 341.239401 
L 337.95342 361.377137 
L 339.310672 360.15285 
L 340.667923 364.823482 
L 342.025175 303.424855 
L 343.382426 313.53968 
L 344.739678 372.180066 
L 346.096929 341.541861 
L 347.454181 297.632925 
L 348.811432 339.699557 
L 350.168683 328.440064 
L 351.525935 344.256599 
L 352.883186 368.075798 
L 354.240438 345.530479 
L 355.597689 299.521483 
L 356.954941 389.663973 
L 358.312192 267.909829 
L 359.669444 323.413818 
L 361.026695 308.119871 
L 362.383946 323.729192 
L 363.741198 347.429049 
L 365.098449 336.897368 
L 366.455701 331.906276 
L 367.812952 360.045706 
L 369.170204 373.331763 
L 370.527455 346.936921 
L 371.884707 283.000979 
L 373.241958 341.607556 
L 374.599209 333.847765 
L 375.956461 322.169714 
L 377.313712 279.890997 
L 378.670964 348.374113 
L 380.028215 287.610494 
L 381.385467 373.534298 
L 382.742718 364.20381 
L 384.09997 356.578172 
L 385.457221 353.352264 
L 386.814472 376.931848 
L 388.171724 341.885518 
L 389.528975 310.643202 
L 390.886227 306.306962 
L 392.243478 332.287142 
L 393.60073 332.770461 
L 394.957981 339.954482 
L 396.315233 329.51323 
L 397.672484 359.884623 
L 399.029735 296.227452 
L 400.386987 309.510815 
L 401.744238 346.80943 
L 403.10149 374.183448 
L 404.458741 317.289952 
L 405.815993 364.227635 
L 407.173244 354.193411 
L 408.530496 347.948184 
L 409.887747 328.258482 
L 411.244998 320.455434 
L 412.60225 362.429313 
L 413.959501 296.17101 
L 415.316753 365.387082 
L 416.674004 344.557122 
L 418.031256 327.282329 
L 419.388507 301.91639 
L 420.745759 309.106311 
L 422.10301 326.376163 
L 423.460261 338.042349 
L 424.817513 365.433302 
L 426.174764 369.498543 
L 427.532016 303.801738 
L 428.889267 350.228313 
L 430.246519 344.079649 
L 431.60377 359.394902 
L 432.961022 317.269045 
L 434.318273 308.967902 
L 435.675524 344.138178 
L 437.032776 348.609394 
L 438.390027 334.874998 
L 439.747279 365.342623 
L 441.10453 350.524909 
L 442.461782 317.556309 
L 443.819033 357.203484 
L 445.176285 355.854231 
L 446.533536 330.008726 
L 447.890787 339.858626 
L 449.248039 300.417026 
L 450.60529 332.200482 
L 451.962542 333.544311 
L 453.319793 358.357292 
L 454.677045 342.093257 
L 456.034296 306.942478 
L 457.391548 336.437628 
L 458.748799 354.659862 
L 460.10605 386.971278 
L 461.463302 294.914694 
L 462.820553 304.133337 
L 464.177805 290.622094 
L 465.535056 343.135768 
L 466.892308 318.131635 
L 468.249559 345.604432 
L 469.606811 312.244654 
L 470.964062 284.476542 
L 472.321313 323.032322 
L 473.678565 288.835073 
L 475.035816 355.89737 
L 476.393068 310.603268 
L 477.750319 296.399357 
L 479.107571 343.544242 
L 480.464822 300.111578 
L 481.822074 368.165039 
L 483.179325 327.254072 
L 484.536576 324.11127 
L 485.893828 356.883446 
L 487.251079 359.591474 
L 488.608331 359.829141 
L 489.965582 368.230138 
L 491.322834 282.4494 
L 492.680085 379.733798 
L 494.037337 306.462824 
L 495.394588 339.996378 
L 496.751839 346.064088 
L 498.109091 357.712678 
L 498.109091 357.712678 
" clip-path="url(#pab538aae11)" style="fill: none; stroke: #1f77b4; stroke-linecap: square"/>
   </g>
   <g id="line2d_42">
    <path d="M 92.290909 321.807694 
L 93.648161 356.995286 
L 95.005412 310.884049 
L 96.362663 358.922975 
L 97.719915 359.182769 
L 99.077166 358.950887 
L 100.434418 343.742931 
L 101.791669 357.733174 
L 103.148921 359.602237 
L 104.506172 298.914535 
L 105.863424 310.455406 
L 107.220675 358.93351 
L 108.577926 326.73903 
L 109.935178 347.752201 
L 111.292429 312.581117 
L 112.649681 311.956131 
L 114.006932 325.498492 
L 115.364184 336.722677 
L 116.721435 298.911284 
L 118.078687 324.919262 
L 119.435938 301.204089 
L 120.793189 358.898919 
L 122.150441 348.908249 
L 123.507692 348.812434 
L 124.864944 352.037165 
L 126.222195 302.811738 
L 127.579447 341.787043 
L 128.936698 318.471634 
L 130.29395 357.115734 
L 131.651201 345.224995 
L 133.008452 323.770919 
L 134.365704 358.906149 
L 135.722955 316.911996 
L 137.080207 358.38788 
L 138.437458 359.097149 
L 139.79471 308.109975 
L 141.151961 316.983543 
L 142.509213 358.890949 
L 143.866464 357.777569 
L 145.223715 359.060981 
L 146.580967 334.200401 
L 147.938218 350.981542 
L 149.29547 298.851113 
L 150.652721 322.695903 
L 152.009973 359.09065 
L 153.367224 339.922513 
L 154.724476 349.178705 
L 156.081727 303.632965 
L 157.438978 298.913171 
L 158.79623 352.811321 
L 160.153481 341.427481 
L 161.510733 326.799308 
L 162.867984 351.662715 
L 164.225236 327.9824 
L 165.582487 359.096412 
L 166.939739 309.269746 
L 168.29699 347.463503 
L 169.654241 332.469789 
L 171.011493 342.264641 
L 172.368744 307.412605 
L 173.725996 321.16562 
L 175.083247 358.567137 
L 176.440499 355.664699 
L 177.79775 348.772808 
L 179.155002 316.584826 
L 180.512253 312.561199 
L 181.869504 358.13262 
L 183.226756 359.234524 
L 184.584007 315.817065 
L 185.941259 298.845243 
L 187.29851 315.615425 
L 188.655762 308.548736 
L 190.013013 357.884284 
L 191.370265 347.333306 
L 192.727516 358.891475 
L 194.084767 346.205457 
L 195.442019 312.668963 
L 196.79927 302.004139 
L 198.156522 359.035822 
L 199.513773 358.710437 
L 200.871025 341.055236 
L 202.228276 310.964872 
L 203.585528 320.247007 
L 204.942779 359.003066 
L 206.30003 355.619938 
L 209.014533 323.432009 
L 210.371785 359.06591 
L 211.729036 358.896559 
L 213.086288 348.638103 
L 214.443539 358.936236 
L 215.800791 348.908249 
L 217.158042 331.282083 
L 218.515293 342.7175 
L 219.872545 298.830458 
L 221.229796 358.978848 
L 222.587048 359.54377 
L 223.944299 303.853209 
L 225.301551 333.098655 
L 226.658802 304.244954 
L 228.016054 351.148954 
L 229.373305 357.743654 
L 230.730556 350.347436 
L 232.087808 326.659465 
L 233.445059 320.505254 
L 234.802311 307.862789 
L 236.159562 330.836144 
L 237.516814 343.513881 
L 238.874065 317.874741 
L 240.231317 327.97653 
L 241.588568 308.176856 
L 242.945819 348.856148 
L 244.303071 338.750163 
L 245.660322 359.52338 
L 247.017574 302.925162 
L 248.374825 349.930637 
L 249.732077 359.059122 
L 251.089328 320.125668 
L 252.44658 358.969205 
L 253.803831 306.736304 
L 255.161082 321.173061 
L 256.518334 349.441824 
L 257.875585 358.579871 
L 259.232837 358.907251 
L 260.590088 358.902955 
L 261.94734 301.935687 
L 263.304591 299.047352 
L 264.661843 359.003798 
L 267.376345 358.904423 
L 268.733597 312.247134 
L 270.090848 346.884375 
L 271.4481 326.271915 
L 272.805351 359.03399 
L 274.162603 312.563296 
L 275.519854 310.891492 
L 276.877106 312.286024 
L 278.234357 344.924767 
L 279.591608 358.947136 
L 280.94886 308.177693 
L 282.306111 333.181521 
L 283.663363 340.288624 
L 285.020614 326.310178 
L 286.377866 321.280931 
L 287.735117 358.893309 
L 289.092369 359.742736 
L 290.44962 329.703578 
L 291.806871 302.134338 
L 293.164123 340.712342 
L 294.521374 336.988995 
L 295.878626 302.605751 
L 297.235877 358.706976 
L 298.593129 310.587491 
L 299.95038 358.890217 
L 301.307631 339.252187 
L 302.664883 358.72312 
L 304.022134 343.885602 
L 305.379386 335.296487 
L 306.736637 358.59633 
L 308.093889 329.933047 
L 309.45114 320.676909 
L 310.808392 358.500622 
L 312.165643 302.235391 
L 313.522894 332.838365 
L 314.880146 298.907928 
L 316.237397 341.309444 
L 317.594649 358.941688 
L 318.9519 305.450688 
L 320.309152 302.143353 
L 321.666403 359.350886 
L 323.023655 350.124048 
L 324.380906 358.89006 
L 325.738157 311.609672 
L 327.095409 300.785092 
L 328.45266 318.13807 
L 329.809912 337.34452 
L 331.167163 307.838574 
L 332.524415 343.284097 
L 333.881666 347.288963 
L 335.238918 347.401496 
L 336.596169 343.135346 
L 337.95342 359.003852 
L 339.310672 352.067355 
L 340.667923 358.891369 
L 342.025175 302.914995 
L 343.382426 312.220403 
L 344.739678 359.142014 
L 346.096929 358.928584 
L 347.454181 307.72033 
L 348.811432 341.903297 
L 350.168683 340.011564 
L 351.525935 341.061945 
L 352.883186 359.006837 
L 354.240438 359.009878 
L 355.597689 303.247614 
L 356.954941 357.842615 
L 358.312192 303.445636 
L 359.669444 315.800292 
L 361.026695 309.805994 
L 362.383946 298.9334 
L 363.741198 341.06404 
L 365.098449 339.053851 
L 366.455701 345.625228 
L 367.812952 358.949182 
L 369.170204 358.702258 
L 370.527455 350.849985 
L 371.884707 299.070832 
L 373.241958 358.911707 
L 374.599209 298.950279 
L 375.956461 330.93856 
L 377.313712 302.115572 
L 378.670964 348.593343 
L 380.028215 304.471275 
L 381.385467 358.890268 
L 382.742718 350.725759 
L 384.09997 363.449386 
L 385.457221 347.854667 
L 386.814472 359.091539 
L 388.171724 347.047228 
L 389.528975 308.738631 
L 390.886227 302.218724 
L 392.243478 317.045915 
L 393.60073 338.867781 
L 394.957981 351.243196 
L 396.315233 307.5634 
L 397.672484 360.249393 
L 399.029735 299.106681 
L 400.386987 310.17499 
L 401.744238 350.678274 
L 403.10149 360.771834 
L 404.458741 311.095068 
L 405.815993 359.618723 
L 407.173244 351.30305 
L 408.530496 344.919315 
L 409.887747 331.978353 
L 411.244998 324.20994 
L 412.60225 351.948373 
L 413.959501 299.280592 
L 415.316753 359.062869 
L 416.674004 359.04447 
L 418.031256 315.615271 
L 419.388507 313.852475 
L 420.745759 298.86191 
L 422.10301 326.584775 
L 423.460261 338.585059 
L 424.817513 358.950914 
L 426.174764 359.096153 
L 427.532016 307.265898 
L 428.889267 351.476961 
L 430.246519 357.06243 
L 431.60377 344.947304 
L 432.961022 326.339214 
L 434.318273 310.018794 
L 437.032776 353.68465 
L 438.390027 342.624726 
L 439.747279 358.953112 
L 441.10453 346.225898 
L 442.461782 302.626295 
L 443.819033 335.477735 
L 445.176285 358.91218 
L 446.533536 359.09893 
L 447.890787 338.821133 
L 449.248039 300.376573 
L 450.60529 346.273596 
L 451.962542 349.543087 
L 453.319793 358.960504 
L 454.677045 315.955857 
L 456.034296 301.828869 
L 457.391548 337.703032 
L 458.748799 357.077261 
L 460.10605 359.099034 
L 461.463302 301.922583 
L 462.820553 311.698042 
L 464.177805 307.049321 
L 465.535056 346.179878 
L 466.892308 316.747625 
L 468.249559 356.865246 
L 469.606811 333.342485 
L 470.964062 330.336321 
L 472.321313 324.5651 
L 473.678565 298.891052 
L 475.035816 358.892471 
L 476.393068 315.937721 
L 477.750319 311.172485 
L 479.107571 335.721775 
L 480.464822 299.433956 
L 481.822074 359.064233 
L 483.179325 303.147398 
L 485.893828 351.268459 
L 487.251079 359.005948 
L 488.608331 358.971039 
L 489.965582 359.305522 
L 491.322834 300.492412 
L 492.680085 356.39158 
L 494.037337 304.62244 
L 495.394588 358.92591 
L 496.751839 360.028337 
L 498.109091 348.781403 
L 498.109091 348.781403 
" clip-path="url(#pab538aae11)" style="fill: none; stroke: #ff7f0e; stroke-linecap: square"/>
   </g>
   <g id="patch_13">
    <path d="M 72 384.48 
L 72 286.644706 
" style="fill: none; stroke: #000000; stroke-width: 0.8; stroke-linejoin: miter; stroke-linecap: square"/>
   </g>
   <g id="patch_14">
    <path d="M 518.4 384.48 
L 518.4 286.644706 
" style="fill: none; stroke: #000000; stroke-width: 0.8; stroke-linejoin: miter; stroke-linecap: square"/>
   </g>
   <g id="patch_15">
    <path d="M 72 384.48 
L 518.4 384.48 
" style="fill: none; stroke: #000000; stroke-width: 0.8; stroke-linejoin: miter; stroke-linecap: square"/>
   </g>
   <g id="patch_16">
    <path d="M 72 286.644706 
L 518.4 286.644706 
" style="fill: none; stroke: #000000; stroke-width: 0.8; stroke-linejoin: miter; stroke-linecap: square"/>
   </g>
  </g>
  <g id="text_27">
   <!-- Toy data -->
   <g transform="translate(262.710938 17.758125)scale(0.12 -0.12)">
    <defs>
     <path id="DejaVuSans-6f" d="M 1959 3097 
Q 1497 3097 1228 2736 
Q 959 2375 959 1747 
Q 959 1119 1226 758 
Q 1494 397 1959 397 
Q 2419 397 2687 759 
Q 2956 1122 2956 1747 
Q 2956 2369 2687 2733 
Q 2419 3097 1959 3097 
z
M 1959 3584 
Q 2709 3584 3137 3096 
Q 3566 2609 3566 1747 
Q 3566 888 3137 398 
Q 2709 -91 1959 -91 
Q 1206 -91 779 398 
Q 353 888 353 1747 
Q 353 2609 779 3096 
Q 1206 3584 1959 3584 
z
" transform="scale(0.015625)"/>
     <path id="DejaVuSans-79" d="M 2059 -325 
Q 1816 -950 1584 -1140 
Q 1353 -1331 966 -1331 
L 506 -1331 
L 506 -850 
L 844 -850 
Q 1081 -850 1212 -737 
Q 1344 -625 1503 -206 
L 1606 56 
L 191 3500 
L 800 3500 
L 1894 763 
L 2988 3500 
L 3597 3500 
L 2059 -325 
z
" transform="scale(0.015625)"/>
     <path id="DejaVuSans-20" transform="scale(0.015625)"/>
     <path id="DejaVuSans-64" d="M 2906 2969 
L 2906 4863 
L 3481 4863 
L 3481 0 
L 2906 0 
L 2906 525 
Q 2725 213 2448 61 
Q 2172 -91 1784 -91 
Q 1150 -91 751 415 
Q 353 922 353 1747 
Q 353 2572 751 3078 
Q 1150 3584 1784 3584 
Q 2172 3584 2448 3432 
Q 2725 3281 2906 2969 
z
M 947 1747 
Q 947 1113 1208 752 
Q 1469 391 1925 391 
Q 2381 391 2643 752 
Q 2906 1113 2906 1747 
Q 2906 2381 2643 2742 
Q 2381 3103 1925 3103 
Q 1469 3103 1208 2742 
Q 947 2381 947 1747 
z
" transform="scale(0.015625)"/>
     <path id="DejaVuSans-61" d="M 2194 1759 
Q 1497 1759 1228 1600 
Q 959 1441 959 1056 
Q 959 750 1161 570 
Q 1363 391 1709 391 
Q 2188 391 2477 730 
Q 2766 1069 2766 1631 
L 2766 1759 
L 2194 1759 
z
M 3341 1997 
L 3341 0 
L 2766 0 
L 2766 531 
Q 2569 213 2275 61 
Q 1981 -91 1556 -91 
Q 1019 -91 701 211 
Q 384 513 384 1019 
Q 384 1609 779 1909 
Q 1175 2209 1959 2209 
L 2766 2209 
L 2766 2266 
Q 2766 2663 2505 2880 
Q 2244 3097 1772 3097 
Q 1472 3097 1187 3025 
Q 903 2953 641 2809 
L 641 3341 
Q 956 3463 1253 3523 
Q 1550 3584 1831 3584 
Q 2591 3584 2966 3190 
Q 3341 2797 3341 1997 
z
" transform="scale(0.015625)"/>
    </defs>
    <use xlink:href="#DejaVuSans-54"/>
    <use xlink:href="#DejaVuSans-6f" x="44.083984"/>
    <use xlink:href="#DejaVuSans-79" x="105.265625"/>
    <use xlink:href="#DejaVuSans-20" x="164.445312"/>
    <use xlink:href="#DejaVuSans-64" x="196.232422"/>
    <use xlink:href="#DejaVuSans-61" x="259.708984"/>
    <use xlink:href="#DejaVuSans-74" x="320.988281"/>
    <use xlink:href="#DejaVuSans-61" x="360.197266"/>
   </g>
  </g>
  <g id="legend_1">
   <g id="patch_17">
    <path d="M 484.228125 37.35625 
L 569 37.35625 
Q 571 37.35625 571 35.35625 
L 571 7 
Q 571 5 569 5 
L 484.228125 5 
Q 482.228125 5 482.228125 7 
L 482.228125 35.35625 
Q 482.228125 37.35625 484.228125 37.35625 
z
" style="fill: #ffffff; opacity: 0.8; stroke: #cccccc; stroke-linejoin: miter"/>
   </g>
   <g id="line2d_43">
    <path d="M 486.228125 13.098437 
L 496.228125 13.098437 
L 506.228125 13.098437 
" style="fill: none; stroke: #1f77b4; stroke-linecap: square"/>
   </g>
   <g id="text_28">
    <!-- Sampled -->
    <g transform="translate(514.228125 16.598437)scale(0.1 -0.1)">
     <defs>
      <path id="DejaVuSans-53" d="M 3425 4513 
L 3425 3897 
Q 3066 4069 2747 4153 
Q 2428 4238 2131 4238 
Q 1616 4238 1336 4038 
Q 1056 3838 1056 3469 
Q 1056 3159 1242 3001 
Q 1428 2844 1947 2747 
L 2328 2669 
Q 3034 2534 3370 2195 
Q 3706 1856 3706 1288 
Q 3706 609 3251 259 
Q 2797 -91 1919 -91 
Q 1588 -91 1214 -16 
Q 841 59 441 206 
L 441 856 
Q 825 641 1194 531 
Q 1563 422 1919 422 
Q 2459 422 2753 634 
Q 3047 847 3047 1241 
Q 3047 1584 2836 1778 
Q 2625 1972 2144 2069 
L 1759 2144 
Q 1053 2284 737 2584 
Q 422 2884 422 3419 
Q 422 4038 858 4394 
Q 1294 4750 2059 4750 
Q 2388 4750 2728 4690 
Q 3069 4631 3425 4513 
z
" transform="scale(0.015625)"/>
      <path id="DejaVuSans-6c" d="M 603 4863 
L 1178 4863 
L 1178 0 
L 603 0 
L 603 4863 
z
" transform="scale(0.015625)"/>
     </defs>
     <use xlink:href="#DejaVuSans-53"/>
     <use xlink:href="#DejaVuSans-61" x="63.476562"/>
     <use xlink:href="#DejaVuSans-6d" x="124.755859"/>
     <use xlink:href="#DejaVuSans-70" x="222.167969"/>
     <use xlink:href="#DejaVuSans-6c" x="285.644531"/>
     <use xlink:href="#DejaVuSans-65" x="313.427734"/>
     <use xlink:href="#DejaVuSans-64" x="374.951172"/>
    </g>
   </g>
   <g id="line2d_44">
    <path d="M 486.228125 27.776563 
L 496.228125 27.776563 
L 506.228125 27.776563 
" style="fill: none; stroke: #ff7f0e; stroke-linecap: square"/>
   </g>
   <g id="text_29">
    <!-- True mean -->
    <g transform="translate(514.228125 31.276563)scale(0.1 -0.1)">
     <defs>
      <path id="DejaVuSans-72" d="M 2631 2963 
Q 2534 3019 2420 3045 
Q 2306 3072 2169 3072 
Q 1681 3072 1420 2755 
Q 1159 2438 1159 1844 
L 1159 0 
L 581 0 
L 581 3500 
L 1159 3500 
L 1159 2956 
Q 1341 3275 1631 3429 
Q 1922 3584 2338 3584 
Q 2397 3584 2469 3576 
Q 2541 3569 2628 3553 
L 2631 2963 
z
" transform="scale(0.015625)"/>
      <path id="DejaVuSans-75" d="M 544 1381 
L 544 3500 
L 1119 3500 
L 1119 1403 
Q 1119 906 1312 657 
Q 1506 409 1894 409 
Q 2359 409 2629 706 
Q 2900 1003 2900 1516 
L 2900 3500 
L 3475 3500 
L 3475 0 
L 2900 0 
L 2900 538 
Q 2691 219 2414 64 
Q 2138 -91 1772 -91 
Q 1169 -91 856 284 
Q 544 659 544 1381 
z
M 1991 3584 
L 1991 3584 
z
" transform="scale(0.015625)"/>
      <path id="DejaVuSans-6e" d="M 3513 2113 
L 3513 0 
L 2938 0 
L 2938 2094 
Q 2938 2591 2744 2837 
Q 2550 3084 2163 3084 
Q 1697 3084 1428 2787 
Q 1159 2491 1159 1978 
L 1159 0 
L 581 0 
L 581 3500 
L 1159 3500 
L 1159 2956 
Q 1366 3272 1645 3428 
Q 1925 3584 2291 3584 
Q 2894 3584 3203 3211 
Q 3513 2838 3513 2113 
z
" transform="scale(0.015625)"/>
     </defs>
     <use xlink:href="#DejaVuSans-54"/>
     <use xlink:href="#DejaVuSans-72" x="46.333984"/>
     <use xlink:href="#DejaVuSans-75" x="87.447266"/>
     <use xlink:href="#DejaVuSans-65" x="150.826172"/>
     <use xlink:href="#DejaVuSans-20" x="212.349609"/>
     <use xlink:href="#DejaVuSans-6d" x="244.136719"/>
     <use xlink:href="#DejaVuSans-65" x="341.548828"/>
     <use xlink:href="#DejaVuSans-61" x="403.072266"/>
     <use xlink:href="#DejaVuSans-6e" x="464.351562"/>
    </g>
   </g>
  </g>
 </g>
 <defs>
  <clipPath id="pcbc1dcf364">
   <rect x="72" y="51.84" width="446.4" height="97.835294"/>
  </clipPath>
  <clipPath id="p34848fbf1c">
   <rect x="72" y="169.242353" width="446.4" height="97.835294"/>
  </clipPath>
  <clipPath id="pab538aae11">
   <rect x="72" y="286.644706" width="446.4" height="97.835294"/>
  </clipPath>
 </defs>
</svg>
