<?xml version="1.0" encoding="utf-8" standalone="no"?>
<!DOCTYPE svg PUBLIC "-//W3C//DTD SVG 1.1//EN"
  "http://www.w3.org/Graphics/SVG/1.1/DTD/svg11.dtd">
<svg xmlns:xlink="http://www.w3.org/1999/xlink" width="576pt" height="432pt" viewBox="0 0 576 432" xmlns="http://www.w3.org/2000/svg" version="1.1">
 <metadata>
  <rdf:RDF xmlns:dc="http://purl.org/dc/elements/1.1/" xmlns:cc="http://creativecommons.org/ns#" xmlns:rdf="http://www.w3.org/1999/02/22-rdf-syntax-ns#">
   <cc:Work>
    <dc:type rdf:resource="http://purl.org/dc/dcmitype/StillImage"/>
    <dc:date>2023-07-12T16:28:23.151655</dc:date>
    <dc:format>image/svg+xml</dc:format>
    <dc:creator>
     <cc:Agent>
      <dc:title>Matplotlib v3.5.1, https://matplotlib.org/</dc:title>
     </cc:Agent>
    </dc:creator>
   </cc:Work>
  </rdf:RDF>
 </metadata>
 <defs>
  <style type="text/css">*{stroke-linejoin: round; stroke-linecap: butt}</style>
 </defs>
 <g id="figure_1">
  <g id="patch_1">
   <path d="M 0 432 
L 576 432 
L 576 0 
L 0 0 
z
" style="fill: #ffffff"/>
  </g>
  <g id="axes_1">
   <g id="patch_2">
    <path d="M 72 203.04 
L 518.4 203.04 
L 518.4 51.84 
L 72 51.84 
z
" style="fill: #ffffff"/>
   </g>
   <g id="matplotlib.axis_1">
    <g id="xtick_1">
     <g id="line2d_1">
      <defs>
       <path id="mef10b22946" d="M 0 0 
L 0 3.5 
" style="stroke: #000000; stroke-width: 0.8"/>
      </defs>
      <g>
       <use xlink:href="#mef10b22946" x="92.290909" y="203.04" style="stroke: #000000; stroke-width: 0.8"/>
      </g>
     </g>
    </g>
    <g id="xtick_2">
     <g id="line2d_2">
      <g>
       <use xlink:href="#mef10b22946" x="172.650945" y="203.04" style="stroke: #000000; stroke-width: 0.8"/>
      </g>
     </g>
    </g>
    <g id="xtick_3">
     <g id="line2d_3">
      <g>
       <use xlink:href="#mef10b22946" x="253.010981" y="203.04" style="stroke: #000000; stroke-width: 0.8"/>
      </g>
     </g>
    </g>
    <g id="xtick_4">
     <g id="line2d_4">
      <g>
       <use xlink:href="#mef10b22946" x="333.371017" y="203.04" style="stroke: #000000; stroke-width: 0.8"/>
      </g>
     </g>
    </g>
    <g id="xtick_5">
     <g id="line2d_5">
      <g>
       <use xlink:href="#mef10b22946" x="413.731053" y="203.04" style="stroke: #000000; stroke-width: 0.8"/>
      </g>
     </g>
    </g>
    <g id="xtick_6">
     <g id="line2d_6">
      <g>
       <use xlink:href="#mef10b22946" x="494.091089" y="203.04" style="stroke: #000000; stroke-width: 0.8"/>
      </g>
     </g>
    </g>
   </g>
   <g id="matplotlib.axis_2">
    <g id="ytick_1">
     <g id="line2d_7">
      <defs>
       <path id="m565c049efe" d="M 0 0 
L -3.5 0 
" style="stroke: #000000; stroke-width: 0.8"/>
      </defs>
      <g>
       <use xlink:href="#m565c049efe" x="72" y="170.021652" style="stroke: #000000; stroke-width: 0.8"/>
      </g>
     </g>
     <g id="text_1">
      <!-- 0.1 -->
      <g transform="translate(49.096875 173.820871)scale(0.1 -0.1)">
       <defs>
        <path id="DejaVuSans-30" d="M 2034 4250 
Q 1547 4250 1301 3770 
Q 1056 3291 1056 2328 
Q 1056 1369 1301 889 
Q 1547 409 2034 409 
Q 2525 409 2770 889 
Q 3016 1369 3016 2328 
Q 3016 3291 2770 3770 
Q 2525 4250 2034 4250 
z
M 2034 4750 
Q 2819 4750 3233 4129 
Q 3647 3509 3647 2328 
Q 3647 1150 3233 529 
Q 2819 -91 2034 -91 
Q 1250 -91 836 529 
Q 422 1150 422 2328 
Q 422 3509 836 4129 
Q 1250 4750 2034 4750 
z
" transform="scale(0.015625)"/>
        <path id="DejaVuSans-2e" d="M 684 794 
L 1344 794 
L 1344 0 
L 684 0 
L 684 794 
z
" transform="scale(0.015625)"/>
        <path id="DejaVuSans-31" d="M 794 531 
L 1825 531 
L 1825 4091 
L 703 3866 
L 703 4441 
L 1819 4666 
L 2450 4666 
L 2450 531 
L 3481 531 
L 3481 0 
L 794 0 
L 794 531 
z
" transform="scale(0.015625)"/>
       </defs>
       <use xlink:href="#DejaVuSans-30"/>
       <use xlink:href="#DejaVuSans-2e" x="63.623047"/>
       <use xlink:href="#DejaVuSans-31" x="95.410156"/>
      </g>
     </g>
    </g>
    <g id="ytick_2">
     <g id="line2d_8">
      <g>
       <use xlink:href="#m565c049efe" x="72" y="136.025604" style="stroke: #000000; stroke-width: 0.8"/>
      </g>
     </g>
     <g id="text_2">
      <!-- 0.2 -->
      <g transform="translate(49.096875 139.824823)scale(0.1 -0.1)">
       <defs>
        <path id="DejaVuSans-32" d="M 1228 531 
L 3431 531 
L 3431 0 
L 469 0 
L 469 531 
Q 828 903 1448 1529 
Q 2069 2156 2228 2338 
Q 2531 2678 2651 2914 
Q 2772 3150 2772 3378 
Q 2772 3750 2511 3984 
Q 2250 4219 1831 4219 
Q 1534 4219 1204 4116 
Q 875 4013 500 3803 
L 500 4441 
Q 881 4594 1212 4672 
Q 1544 4750 1819 4750 
Q 2544 4750 2975 4387 
Q 3406 4025 3406 3419 
Q 3406 3131 3298 2873 
Q 3191 2616 2906 2266 
Q 2828 2175 2409 1742 
Q 1991 1309 1228 531 
z
" transform="scale(0.015625)"/>
       </defs>
       <use xlink:href="#DejaVuSans-30"/>
       <use xlink:href="#DejaVuSans-2e" x="63.623047"/>
       <use xlink:href="#DejaVuSans-32" x="95.410156"/>
      </g>
     </g>
    </g>
    <g id="ytick_3">
     <g id="line2d_9">
      <g>
       <use xlink:href="#m565c049efe" x="72" y="102.029556" style="stroke: #000000; stroke-width: 0.8"/>
      </g>
     </g>
     <g id="text_3">
      <!-- 0.3 -->
      <g transform="translate(49.096875 105.828775)scale(0.1 -0.1)">
       <defs>
        <path id="DejaVuSans-33" d="M 2597 2516 
Q 3050 2419 3304 2112 
Q 3559 1806 3559 1356 
Q 3559 666 3084 287 
Q 2609 -91 1734 -91 
Q 1441 -91 1130 -33 
Q 819 25 488 141 
L 488 750 
Q 750 597 1062 519 
Q 1375 441 1716 441 
Q 2309 441 2620 675 
Q 2931 909 2931 1356 
Q 2931 1769 2642 2001 
Q 2353 2234 1838 2234 
L 1294 2234 
L 1294 2753 
L 1863 2753 
Q 2328 2753 2575 2939 
Q 2822 3125 2822 3475 
Q 2822 3834 2567 4026 
Q 2313 4219 1838 4219 
Q 1578 4219 1281 4162 
Q 984 4106 628 3988 
L 628 4550 
Q 988 4650 1302 4700 
Q 1616 4750 1894 4750 
Q 2613 4750 3031 4423 
Q 3450 4097 3450 3541 
Q 3450 3153 3228 2886 
Q 3006 2619 2597 2516 
z
" transform="scale(0.015625)"/>
       </defs>
       <use xlink:href="#DejaVuSans-30"/>
       <use xlink:href="#DejaVuSans-2e" x="63.623047"/>
       <use xlink:href="#DejaVuSans-33" x="95.410156"/>
      </g>
     </g>
    </g>
    <g id="ytick_4">
     <g id="line2d_10">
      <g>
       <use xlink:href="#m565c049efe" x="72" y="68.033508" style="stroke: #000000; stroke-width: 0.8"/>
      </g>
     </g>
     <g id="text_4">
      <!-- 0.4 -->
      <g transform="translate(49.096875 71.832727)scale(0.1 -0.1)">
       <defs>
        <path id="DejaVuSans-34" d="M 2419 4116 
L 825 1625 
L 2419 1625 
L 2419 4116 
z
M 2253 4666 
L 3047 4666 
L 3047 1625 
L 3713 1625 
L 3713 1100 
L 3047 1100 
L 3047 0 
L 2419 0 
L 2419 1100 
L 313 1100 
L 313 1709 
L 2253 4666 
z
" transform="scale(0.015625)"/>
       </defs>
       <use xlink:href="#DejaVuSans-30"/>
       <use xlink:href="#DejaVuSans-2e" x="63.623047"/>
       <use xlink:href="#DejaVuSans-34" x="95.410156"/>
      </g>
     </g>
    </g>
    <g id="text_5">
     <!-- Attention -->
     <g transform="translate(43.017187 150.515781)rotate(-90)scale(0.1 -0.1)">
      <defs>
       <path id="DejaVuSans-41" d="M 2188 4044 
L 1331 1722 
L 3047 1722 
L 2188 4044 
z
M 1831 4666 
L 2547 4666 
L 4325 0 
L 3669 0 
L 3244 1197 
L 1141 1197 
L 716 0 
L 50 0 
L 1831 4666 
z
" transform="scale(0.015625)"/>
       <path id="DejaVuSans-74" d="M 1172 4494 
L 1172 3500 
L 2356 3500 
L 2356 3053 
L 1172 3053 
L 1172 1153 
Q 1172 725 1289 603 
Q 1406 481 1766 481 
L 2356 481 
L 2356 0 
L 1766 0 
Q 1100 0 847 248 
Q 594 497 594 1153 
L 594 3053 
L 172 3053 
L 172 3500 
L 594 3500 
L 594 4494 
L 1172 4494 
z
" transform="scale(0.015625)"/>
       <path id="DejaVuSans-65" d="M 3597 1894 
L 3597 1613 
L 953 1613 
Q 991 1019 1311 708 
Q 1631 397 2203 397 
Q 2534 397 2845 478 
Q 3156 559 3463 722 
L 3463 178 
Q 3153 47 2828 -22 
Q 2503 -91 2169 -91 
Q 1331 -91 842 396 
Q 353 884 353 1716 
Q 353 2575 817 3079 
Q 1281 3584 2069 3584 
Q 2775 3584 3186 3129 
Q 3597 2675 3597 1894 
z
M 3022 2063 
Q 3016 2534 2758 2815 
Q 2500 3097 2075 3097 
Q 1594 3097 1305 2825 
Q 1016 2553 972 2059 
L 3022 2063 
z
" transform="scale(0.015625)"/>
       <path id="DejaVuSans-6e" d="M 3513 2113 
L 3513 0 
L 2938 0 
L 2938 2094 
Q 2938 2591 2744 2837 
Q 2550 3084 2163 3084 
Q 1697 3084 1428 2787 
Q 1159 2491 1159 1978 
L 1159 0 
L 581 0 
L 581 3500 
L 1159 3500 
L 1159 2956 
Q 1366 3272 1645 3428 
Q 1925 3584 2291 3584 
Q 2894 3584 3203 3211 
Q 3513 2838 3513 2113 
z
" transform="scale(0.015625)"/>
       <path id="DejaVuSans-69" d="M 603 3500 
L 1178 3500 
L 1178 0 
L 603 0 
L 603 3500 
z
M 603 4863 
L 1178 4863 
L 1178 4134 
L 603 4134 
L 603 4863 
z
" transform="scale(0.015625)"/>
       <path id="DejaVuSans-6f" d="M 1959 3097 
Q 1497 3097 1228 2736 
Q 959 2375 959 1747 
Q 959 1119 1226 758 
Q 1494 397 1959 397 
Q 2419 397 2687 759 
Q 2956 1122 2956 1747 
Q 2956 2369 2687 2733 
Q 2419 3097 1959 3097 
z
M 1959 3584 
Q 2709 3584 3137 3096 
Q 3566 2609 3566 1747 
Q 3566 888 3137 398 
Q 2709 -91 1959 -91 
Q 1206 -91 779 398 
Q 353 888 353 1747 
Q 353 2609 779 3096 
Q 1206 3584 1959 3584 
z
" transform="scale(0.015625)"/>
      </defs>
      <use xlink:href="#DejaVuSans-41"/>
      <use xlink:href="#DejaVuSans-74" x="66.658203"/>
      <use xlink:href="#DejaVuSans-74" x="105.867188"/>
      <use xlink:href="#DejaVuSans-65" x="145.076172"/>
      <use xlink:href="#DejaVuSans-6e" x="206.599609"/>
      <use xlink:href="#DejaVuSans-74" x="269.978516"/>
      <use xlink:href="#DejaVuSans-69" x="309.1875"/>
      <use xlink:href="#DejaVuSans-6f" x="336.970703"/>
      <use xlink:href="#DejaVuSans-6e" x="398.152344"/>
     </g>
    </g>
   </g>
   <g id="line2d_11">
    <path d="M 92.290909 158.154087 
L 96.308911 158.30828 
L 100.326913 158.600861 
L 104.344914 159.170581 
L 108.362916 159.648338 
L 112.380918 159.66352 
L 116.39892 159.8968 
L 120.416922 160.070932 
L 124.434923 160.316832 
L 128.452925 160.14888 
L 132.470927 159.783853 
L 136.488929 159.524595 
L 140.506931 159.096666 
L 144.524932 158.900194 
L 148.542934 158.12852 
L 152.560936 158.158849 
L 156.578938 158.137816 
L 160.59694 157.825195 
L 164.614941 157.847884 
L 168.632943 158.319582 
L 172.650945 158.308569 
L 176.668947 158.952423 
L 180.686949 159.410736 
L 184.70495 159.34328 
L 188.722952 159.882236 
L 192.740954 160.340367 
L 196.758956 160.254573 
L 200.776958 160.973476 
L 204.794959 160.87983 
L 208.812961 161.169315 
L 212.830963 162.126135 
L 216.848965 161.984467 
L 220.866967 162.193776 
L 224.884968 163.045287 
L 228.90297 163.586057 
L 232.920972 163.99753 
L 236.938974 164.609203 
L 240.956976 165.042236 
L 244.974977 165.756033 
L 248.992979 166.32524 
L 253.010981 167.036078 
L 257.028983 167.451665 
L 261.046985 168.917914 
L 265.064986 169.220026 
L 269.082988 170.324318 
L 273.10099 171.094177 
L 277.118992 171.437552 
L 281.136994 173.164002 
L 285.154995 173.170306 
L 289.172997 173.924602 
L 293.190999 174.598101 
L 297.209001 175.564231 
L 301.227003 176.441203 
L 305.245005 176.331822 
L 309.263006 177.09589 
L 313.281008 177.591602 
L 317.29901 178.568259 
L 321.317012 178.834731 
L 325.335014 179.652559 
L 329.353015 180.043789 
L 333.371017 180.728856 
L 337.389019 181.364503 
L 341.407021 181.563878 
L 345.425023 182.259269 
L 349.443024 182.533483 
L 353.461026 182.754727 
L 357.479028 183.717039 
L 361.49703 183.737281 
L 365.515032 184.11461 
L 369.533033 184.553714 
L 373.551035 184.758351 
L 377.569037 185.240423 
L 381.587039 185.682289 
L 385.605041 186.01608 
L 389.623042 186.326024 
L 393.641044 186.696205 
L 397.659046 187.263189 
L 401.677048 187.400479 
L 405.69505 187.84205 
L 409.713051 188.375216 
L 413.731053 188.960793 
L 417.749055 189.160645 
L 421.767057 189.347998 
L 425.785059 189.932455 
L 429.80306 190.175316 
L 433.821062 190.118343 
L 437.839064 190.517352 
L 441.857066 190.69329 
L 445.875068 190.923703 
L 449.893069 191.432864 
L 453.911071 191.74809 
L 457.929073 191.978839 
L 461.947075 192.208155 
L 465.965077 192.451351 
L 469.983078 192.720811 
L 474.00108 193.023006 
L 478.019082 193.360022 
L 482.037084 193.666661 
L 486.055086 193.596625 
L 490.073087 194.043351 
L 494.091089 194.153597 
L 498.109091 194.335298 
" clip-path="url(#p0a2a62a118)" style="fill: none; stroke: #1f77b4; stroke-linecap: square"/>
   </g>
   <g id="line2d_12">
    <path d="M 92.290909 162.957368 
L 96.308911 163.203976 
L 100.326913 163.452583 
L 104.344914 163.363802 
L 108.362916 163.650286 
L 112.380918 164.095766 
L 116.39892 164.121247 
L 120.416922 164.011022 
L 124.434923 163.857767 
L 128.452925 163.205352 
L 132.470927 162.670134 
L 136.488929 162.168675 
L 140.506931 161.827835 
L 144.524932 161.200273 
L 148.542934 161.144123 
L 152.560936 160.999606 
L 156.578938 160.54997 
L 160.59694 160.694639 
L 164.614941 160.606018 
L 168.632943 160.449201 
L 172.650945 160.898877 
L 176.668947 160.689989 
L 180.686949 161.001597 
L 184.70495 161.09035 
L 188.722952 161.238205 
L 192.740954 161.676294 
L 196.758956 161.934961 
L 200.776958 162.318114 
L 204.794959 162.575457 
L 208.812961 162.96428 
L 212.830963 163.122571 
L 216.848965 163.819667 
L 220.866967 164.141436 
L 224.884968 164.731833 
L 228.90297 165.344097 
L 232.920972 165.326787 
L 236.938974 166.226056 
L 240.956976 166.755458 
L 244.974977 167.385394 
L 248.992979 168.93319 
L 253.010981 168.825481 
L 257.028983 170.073265 
L 261.046985 170.612325 
L 265.064986 171.881195 
L 269.082988 172.510125 
L 273.10099 173.345742 
L 277.118992 174.229181 
L 281.136994 175.12423 
L 285.154995 175.341847 
L 289.172997 176.624783 
L 293.190999 177.282621 
L 297.209001 178.119264 
L 301.227003 178.596265 
L 305.245005 179.114697 
L 309.263006 179.76826 
L 313.281008 180.711723 
L 317.29901 180.901688 
L 321.317012 181.217012 
L 325.335014 182.195883 
L 329.353015 182.344065 
L 333.371017 182.900171 
L 337.389019 183.35691 
L 341.407021 183.633029 
L 345.425023 184.679171 
L 349.443024 184.267626 
L 353.461026 184.845446 
L 357.479028 185.320332 
L 361.49703 185.608408 
L 365.515032 185.999725 
L 369.533033 186.503814 
L 373.551035 186.567548 
L 377.569037 187.163892 
L 381.587039 187.334843 
L 385.605041 187.862375 
L 389.623042 188.070622 
L 393.641044 188.31426 
L 397.659046 188.700583 
L 401.677048 188.981317 
L 405.69505 189.544575 
L 409.713051 189.710988 
L 413.731053 190.092394 
L 417.749055 190.394663 
L 421.767057 190.659607 
L 425.785059 191.042891 
L 429.80306 191.143008 
L 433.821062 191.306458 
L 437.839064 191.717882 
L 441.857066 191.791677 
L 445.875068 192.268421 
L 449.893069 192.462517 
L 453.911071 192.746872 
L 457.929073 192.919037 
L 461.947075 193.10646 
L 465.965077 193.261467 
L 469.983078 193.636295 
L 474.00108 193.777677 
L 478.019082 193.972553 
L 482.037084 194.327347 
L 486.055086 194.235216 
L 490.073087 194.559226 
L 494.091089 194.838127 
L 498.109091 194.870327 
" clip-path="url(#p0a2a62a118)" style="fill: none; stroke: #ff7f0e; stroke-linecap: square"/>
   </g>
   <g id="line2d_13">
    <path d="M 92.290909 163.503469 
L 96.308911 163.52801 
L 100.326913 164.144281 
L 104.344914 165.005876 
L 108.362916 165.674823 
L 112.380918 165.920084 
L 116.39892 166.248948 
L 120.416922 166.260433 
L 124.434923 166.518102 
L 128.452925 166.60834 
L 132.470927 166.661227 
L 136.488929 166.488863 
L 140.506931 166.316149 
L 144.524932 166.404661 
L 148.542934 166.451398 
L 152.560936 166.594338 
L 156.578938 166.351047 
L 160.59694 166.633192 
L 164.614941 166.589789 
L 168.632943 166.627103 
L 172.650945 166.404846 
L 176.668947 166.60685 
L 180.686949 166.251139 
L 184.70495 166.525919 
L 188.722952 166.781547 
L 192.740954 166.564221 
L 196.758956 166.537532 
L 200.776958 166.532069 
L 204.794959 166.88144 
L 208.812961 167.059184 
L 212.830963 167.000481 
L 216.848965 167.184722 
L 220.866967 168.130265 
L 224.884968 168.124594 
L 228.90297 168.760998 
L 232.920972 169.173114 
L 236.938974 169.611496 
L 240.956976 170.282513 
L 244.974977 170.441255 
L 248.992979 171.194492 
L 253.010981 172.17872 
L 257.028983 172.584582 
L 261.046985 173.909855 
L 265.064986 174.038258 
L 269.082988 174.484938 
L 273.10099 175.565553 
L 277.118992 176.818365 
L 281.136994 177.604829 
L 285.154995 177.825759 
L 289.172997 178.41436 
L 293.190999 179.398048 
L 297.209001 179.549113 
L 301.227003 180.632294 
L 305.245005 181.065088 
L 309.263006 181.549964 
L 313.281008 182.3818 
L 317.29901 182.669457 
L 321.317012 183.040667 
L 325.335014 183.431628 
L 329.353015 183.799594 
L 333.371017 184.672874 
L 337.389019 184.817775 
L 341.407021 184.925364 
L 345.425023 185.636624 
L 349.443024 185.728935 
L 353.461026 186.049009 
L 357.479028 186.74871 
L 361.49703 186.948959 
L 365.515032 187.141295 
L 369.533033 187.690275 
L 373.551035 187.95128 
L 377.569037 188.304363 
L 381.587039 188.634814 
L 385.605041 189.196956 
L 389.623042 189.302136 
L 393.641044 189.642741 
L 397.659046 189.876802 
L 401.677048 190.039873 
L 405.69505 190.520202 
L 409.713051 190.717804 
L 413.731053 191.394302 
L 417.749055 191.653167 
L 421.767057 191.923662 
L 425.785059 192.179717 
L 429.80306 192.253562 
L 433.821062 192.232034 
L 437.839064 192.57789 
L 441.857066 192.682996 
L 445.875068 193.028631 
L 449.893069 193.306466 
L 453.911071 193.607819 
L 457.929073 193.822259 
L 461.947075 193.985828 
L 465.965077 194.166037 
L 469.983078 194.26242 
L 474.00108 194.444989 
L 478.019082 194.69604 
L 482.037084 194.91381 
L 486.055086 195.005938 
L 490.073087 195.399495 
L 494.091089 195.602858 
L 498.109091 195.584818 
" clip-path="url(#p0a2a62a118)" style="fill: none; stroke: #2ca02c; stroke-linecap: square"/>
   </g>
   <g id="line2d_14">
    <path d="M 92.290909 161.466962 
L 96.308911 161.858693 
L 100.326913 162.629922 
L 104.344914 162.858691 
L 108.362916 162.94733 
L 112.380918 163.015181 
L 116.39892 162.61192 
L 120.416922 162.626935 
L 124.434923 161.692466 
L 128.452925 161.048324 
L 132.470927 160.420093 
L 136.488929 159.509028 
L 140.506931 158.826243 
L 144.524932 158.001079 
L 148.542934 156.782034 
L 152.560936 156.538855 
L 156.578938 156.256877 
L 160.59694 156.001059 
L 164.614941 156.343107 
L 168.632943 157.05891 
L 172.650945 157.497604 
L 176.668947 157.711062 
L 180.686949 158.18861 
L 184.70495 158.546256 
L 188.722952 158.973461 
L 192.740954 159.232141 
L 196.758956 160.205272 
L 200.776958 160.753382 
L 204.794959 161.129914 
L 208.812961 161.725921 
L 212.830963 162.396345 
L 216.848965 163.827592 
L 220.866967 164.039391 
L 224.884968 165.061916 
L 228.90297 165.996851 
L 232.920972 166.070571 
L 236.938974 167.102808 
L 240.956976 168.114898 
L 244.974977 168.633535 
L 248.992979 169.890794 
L 253.010981 170.972721 
L 257.028983 171.774532 
L 261.046985 172.933497 
L 265.064986 173.51704 
L 269.082988 174.616573 
L 273.10099 175.182667 
L 277.118992 176.100801 
L 281.136994 176.883689 
L 285.154995 177.907169 
L 289.172997 178.434436 
L 293.190999 179.263804 
L 297.209001 179.531061 
L 301.227003 180.480216 
L 305.245005 180.999134 
L 309.263006 181.042589 
L 313.281008 182.156159 
L 317.29901 182.235599 
L 321.317012 182.966097 
L 325.335014 183.588217 
L 329.353015 183.561366 
L 333.371017 184.446513 
L 337.389019 184.831927 
L 341.407021 185.063463 
L 345.425023 185.209147 
L 349.443024 185.852756 
L 353.461026 186.056723 
L 357.479028 186.660211 
L 361.49703 186.969421 
L 365.515032 187.412072 
L 369.533033 188.004761 
L 373.551035 188.083599 
L 377.569037 188.227462 
L 381.587039 188.595433 
L 385.605041 189.018677 
L 389.623042 189.345609 
L 393.641044 189.86279 
L 397.659046 189.977161 
L 401.677048 190.356841 
L 405.69505 190.763405 
L 409.713051 190.86606 
L 413.731053 191.605175 
L 417.749055 191.853876 
L 421.767057 191.844726 
L 425.785059 192.517813 
L 429.80306 192.434939 
L 433.821062 192.690174 
L 437.839064 192.912047 
L 441.857066 193.239099 
L 445.875068 193.496304 
L 449.893069 194.014196 
L 453.911071 193.999913 
L 457.929073 194.281252 
L 461.947075 194.453709 
L 465.965077 194.703516 
L 469.983078 194.722388 
L 474.00108 195.012456 
L 478.019082 195.26149 
L 482.037084 195.465467 
L 486.055086 195.529588 
L 490.073087 195.877256 
L 494.091089 196.110695 
L 498.109091 196.167273 
" clip-path="url(#p0a2a62a118)" style="fill: none; stroke: #d62728; stroke-linecap: square"/>
   </g>
   <g id="line2d_15">
    <path d="M 92.290909 159.247632 
L 96.308911 158.813457 
L 100.326913 158.093125 
L 104.344914 157.945097 
L 108.362916 158.121792 
L 112.380918 159.662902 
L 116.39892 161.31517 
L 120.416922 161.818144 
L 124.434923 162.109202 
L 128.452925 162.212806 
L 132.470927 162.348359 
L 136.488929 162.333096 
L 140.506931 162.010411 
L 144.524932 162.120507 
L 148.542934 161.929508 
L 152.560936 161.55018 
L 156.578938 161.026125 
L 160.59694 161.000938 
L 164.614941 160.947803 
L 168.632943 160.173358 
L 172.650945 160.142431 
L 176.668947 159.800332 
L 180.686949 159.703216 
L 184.70495 159.83442 
L 188.722952 159.757283 
L 192.740954 159.740333 
L 196.758956 159.692628 
L 200.776958 160.080755 
L 204.794959 159.871041 
L 208.812961 160.754396 
L 212.830963 160.479054 
L 216.848965 160.631935 
L 220.866967 161.436364 
L 224.884968 162.082873 
L 228.90297 162.136484 
L 232.920972 163.167231 
L 236.938974 163.565842 
L 240.956976 164.603099 
L 244.974977 164.819768 
L 248.992979 164.904033 
L 253.010981 166.228409 
L 257.028983 167.293472 
L 261.046985 167.764633 
L 265.064986 168.330898 
L 269.082988 169.328249 
L 273.10099 170.548744 
L 277.118992 171.382297 
L 281.136994 172.162061 
L 285.154995 173.030783 
L 289.172997 173.997035 
L 293.190999 174.425321 
L 297.209001 175.62186 
L 301.227003 176.089859 
L 305.245005 176.761808 
L 309.263006 177.621055 
L 313.281008 178.52657 
L 317.29901 179.369832 
L 321.317012 179.726077 
L 325.335014 180.037472 
L 329.353015 180.938874 
L 333.371017 181.861053 
L 337.389019 181.949033 
L 341.407021 182.60194 
L 345.425023 183.029154 
L 349.443024 183.584477 
L 353.461026 183.821586 
L 357.479028 184.174504 
L 361.49703 184.877956 
L 365.515032 184.976134 
L 369.533033 185.732951 
L 373.551035 186.042315 
L 377.569037 186.396289 
L 381.587039 186.78439 
L 385.605041 187.222522 
L 389.623042 187.715431 
L 393.641044 187.817106 
L 397.659046 188.331764 
L 401.677048 188.468025 
L 405.69505 188.969489 
L 409.713051 189.301187 
L 413.731053 189.793015 
L 417.749055 189.97392 
L 421.767057 190.317232 
L 425.785059 190.677945 
L 429.80306 190.776972 
L 433.821062 190.670379 
L 437.839064 191.151663 
L 441.857066 191.414484 
L 445.875068 191.476111 
L 449.893069 191.992724 
L 453.911071 192.312966 
L 457.929073 192.516491 
L 461.947075 192.763412 
L 465.965077 192.97814 
L 469.983078 193.092703 
L 474.00108 193.368916 
L 478.019082 193.556991 
L 482.037084 193.850056 
L 486.055086 193.954254 
L 490.073087 194.25338 
L 494.091089 194.402971 
L 498.109091 194.486186 
" clip-path="url(#p0a2a62a118)" style="fill: none; stroke: #9467bd; stroke-linecap: square"/>
   </g>
   <g id="line2d_16">
    <path d="M 92.290909 162.414706 
L 96.308911 162.309907 
L 100.326913 161.934523 
L 104.344914 161.592214 
L 108.362916 161.805441 
L 112.380918 161.935448 
L 116.39892 161.690696 
L 120.416922 161.594828 
L 124.434923 161.438188 
L 128.452925 160.940883 
L 132.470927 160.376091 
L 136.488929 159.583571 
L 140.506931 158.76474 
L 144.524932 158.202698 
L 148.542934 158.157309 
L 152.560936 157.447645 
L 156.578938 157.465527 
L 160.59694 156.775534 
L 164.614941 156.649451 
L 168.632943 156.415852 
L 172.650945 156.279379 
L 176.668947 156.47883 
L 180.686949 156.283624 
L 184.70495 156.285205 
L 188.722952 156.358016 
L 192.740954 156.448222 
L 196.758956 157.303295 
L 200.776958 157.430609 
L 204.794959 158.112897 
L 208.812961 158.154583 
L 212.830963 158.889799 
L 216.848965 159.165034 
L 220.866967 160.175024 
L 224.884968 160.085172 
L 228.90297 160.937372 
L 232.920972 161.906588 
L 236.938974 161.552475 
L 240.956976 162.801338 
L 244.974977 163.310672 
L 248.992979 164.176634 
L 253.010981 164.799748 
L 257.028983 165.575561 
L 261.046985 166.590619 
L 265.064986 167.699628 
L 269.082988 168.406718 
L 273.10099 168.83059 
L 277.118992 169.888983 
L 281.136994 170.713258 
L 285.154995 172.106433 
L 289.172997 172.64905 
L 293.190999 173.210688 
L 297.209001 173.34361 
L 301.227003 174.536024 
L 305.245005 174.797192 
L 309.263006 176.220785 
L 313.281008 176.480281 
L 317.29901 176.854993 
L 321.317012 177.982264 
L 325.335014 178.216624 
L 329.353015 178.938245 
L 333.371017 179.453813 
L 337.389019 179.784627 
L 341.407021 180.219426 
L 345.425023 180.598523 
L 349.443024 181.230051 
L 353.461026 181.742982 
L 357.479028 181.89448 
L 361.49703 183.093565 
L 365.515032 182.851024 
L 369.533033 183.451263 
L 373.551035 183.83132 
L 377.569037 184.004755 
L 381.587039 184.759267 
L 385.605041 184.758488 
L 389.623042 185.271779 
L 393.641044 185.3006 
L 397.659046 186.031085 
L 401.677048 186.213719 
L 405.69505 186.808374 
L 409.713051 186.888407 
L 413.731053 187.16778 
L 417.749055 187.953756 
L 421.767057 187.868936 
L 425.785059 188.594578 
L 429.80306 188.651863 
L 433.821062 188.851569 
L 437.839064 189.255725 
L 441.857066 189.485547 
L 445.875068 189.727291 
L 449.893069 189.912383 
L 453.911071 190.269767 
L 457.929073 190.84732 
L 461.947075 191.13142 
L 465.965077 191.289444 
L 469.983078 191.347592 
L 474.00108 191.798883 
L 478.019082 191.97293 
L 482.037084 192.178895 
L 486.055086 192.405099 
L 490.073087 192.858435 
L 494.091089 193.013407 
L 498.109091 193.142272 
" clip-path="url(#p0a2a62a118)" style="fill: none; stroke: #8c564b; stroke-linecap: square"/>
   </g>
   <g id="line2d_17">
    <path d="M 92.290909 162.314294 
L 96.308911 162.176251 
L 100.326913 161.755928 
L 104.344914 161.200186 
L 108.362916 160.229041 
L 112.380918 158.983091 
L 116.39892 158.152162 
L 120.416922 157.895837 
L 124.434923 158.114457 
L 128.452925 158.993521 
L 132.470927 159.92913 
L 136.488929 161.258013 
L 140.506931 162.642647 
L 144.524932 163.648141 
L 148.542934 164.769427 
L 152.560936 165.420155 
L 156.578938 166.167766 
L 160.59694 166.598621 
L 164.614941 166.576526 
L 168.632943 166.534632 
L 172.650945 166.287076 
L 176.668947 165.931859 
L 180.686949 165.626336 
L 184.70495 165.234941 
L 188.722952 164.549619 
L 192.740954 164.040346 
L 196.758956 163.064983 
L 200.776958 161.988325 
L 204.794959 161.296589 
L 208.812961 160.096925 
L 212.830963 159.004474 
L 216.848965 157.693053 
L 220.866967 155.931698 
L 224.884968 154.413192 
L 228.90297 152.578403 
L 232.920972 151.133964 
L 236.938974 149.60714 
L 240.956976 147.121015 
L 244.974977 145.737787 
L 248.992979 143.177518 
L 253.010981 140.821721 
L 257.028983 138.431101 
L 261.046985 135.389034 
L 265.064986 133.371258 
L 269.082988 130.831673 
L 273.10099 128.323025 
L 277.118992 125.600924 
L 281.136994 122.653248 
L 285.154995 120.740253 
L 289.172997 118.356807 
L 293.190999 116.221397 
L 297.209001 114.399136 
L 301.227003 111.77131 
L 305.245005 110.569407 
L 309.263006 108.391982 
L 313.281008 106.023525 
L 317.29901 104.602556 
L 321.317012 102.960009 
L 325.335014 101.219195 
L 329.353015 99.912744 
L 333.371017 97.590336 
L 337.389019 96.508472 
L 341.407021 95.5145 
L 345.425023 93.722846 
L 349.443024 92.796645 
L 353.461026 91.749239 
L 357.479028 90.079772 
L 361.49703 88.64544 
L 365.515032 87.997746 
L 369.533033 86.189902 
L 373.551035 85.502056 
L 377.569037 84.427427 
L 381.587039 83.154288 
L 385.605041 81.962679 
L 389.623042 80.948606 
L 393.641044 80.080783 
L 397.659046 78.778466 
L 401.677048 78.105504 
L 405.69505 76.572935 
L 409.713051 75.83272 
L 413.731053 74.178258 
L 417.749055 73.142959 
L 421.767057 72.620958 
L 425.785059 71.064003 
L 429.80306 70.778079 
L 433.821062 70.573076 
L 437.839064 69.412074 
L 441.857066 68.837439 
L 445.875068 67.972028 
L 449.893069 66.804724 
L 453.911071 65.971835 
L 457.929073 65.08002 
L 461.947075 64.403573 
L 465.965077 63.772596 
L 469.983078 63.302327 
L 474.00108 62.452781 
L 478.019082 61.727155 
L 482.037084 60.897508 
L 486.055086 60.740458 
L 490.073087 59.537714 
L 494.091089 58.954822 
L 498.109091 58.712727 
" clip-path="url(#p0a2a62a118)" style="fill: none; stroke: #e377c2; stroke-linecap: square"/>
   </g>
   <g id="line2d_18">
    <path d="M 92.290909 162.122601 
L 96.308911 161.982552 
L 100.326913 161.569907 
L 104.344914 161.044676 
L 108.362916 160.104068 
L 112.380918 158.905133 
L 116.39892 158.144193 
L 120.416922 157.903005 
L 124.434923 158.134113 
L 128.452925 159.02303 
L 132.470927 159.99226 
L 136.488929 161.315297 
L 140.506931 162.696436 
L 144.524932 163.703574 
L 148.542934 164.818811 
L 152.560936 165.471507 
L 156.578938 166.226013 
L 160.59694 166.651943 
L 164.614941 166.620556 
L 168.632943 166.602489 
L 172.650945 166.362339 
L 176.668947 166.009782 
L 180.686949 165.715884 
L 184.70495 165.320761 
L 188.722952 164.640765 
L 192.740954 164.139218 
L 196.758956 163.187895 
L 200.776958 162.104387 
L 204.794959 161.433963 
L 208.812961 160.256528 
L 212.830963 159.162268 
L 216.848965 157.874657 
L 220.866967 156.13317 
L 224.884968 154.636265 
L 228.90297 152.840872 
L 232.920972 151.40536 
L 236.938974 149.906094 
L 240.956976 147.460566 
L 244.974977 146.096679 
L 248.992979 143.579231 
L 253.010981 141.318256 
L 257.028983 138.996952 
L 261.046985 136.063247 
L 265.064986 134.122821 
L 269.082988 131.678534 
L 273.10099 129.290629 
L 277.118992 126.723016 
L 281.136994 123.875825 
L 285.154995 122.058573 
L 289.172997 119.78005 
L 293.190999 117.781149 
L 297.209001 116.052848 
L 301.227003 113.633946 
L 305.245005 112.541981 
L 309.263006 110.490613 
L 313.281008 108.30947 
L 317.29901 106.978753 
L 321.317012 105.45426 
L 325.335014 103.839554 
L 329.353015 102.642434 
L 333.371017 100.5275 
L 337.389019 99.567874 
L 341.407021 98.659545 
L 345.425023 97.0464 
L 349.443024 96.187158 
L 353.461026 95.161424 
L 357.479028 93.58609 
L 361.49703 92.300094 
L 365.515032 91.68851 
L 369.533033 90.054453 
L 373.551035 89.444652 
L 377.569037 88.416526 
L 381.587039 87.235808 
L 385.605041 86.143357 
L 389.623042 85.200915 
L 393.641044 84.466646 
L 397.659046 83.222069 
L 401.677048 82.615378 
L 405.69505 81.160104 
L 409.713051 80.488732 
L 413.731053 78.989426 
L 417.749055 78.048159 
L 421.767057 77.598011 
L 425.785059 76.171713 
L 429.80306 75.967379 
L 433.821062 75.739104 
L 437.839064 74.636511 
L 441.857066 74.036598 
L 445.875068 73.288642 
L 449.893069 72.255237 
L 453.911071 71.523867 
L 457.929073 70.735891 
L 461.947075 70.128561 
L 465.965077 69.558577 
L 469.983078 69.096596 
L 474.00108 68.30243 
L 478.019082 67.633956 
L 482.037084 66.88139 
L 486.055086 66.713955 
L 490.073087 65.652263 
L 494.091089 65.10465 
L 498.109091 64.88223 
" clip-path="url(#p0a2a62a118)" style="fill: none; stroke: #7f7f7f; stroke-linecap: square"/>
   </g>
   <g id="patch_3">
    <path d="M 72 203.04 
L 72 51.84 
" style="fill: none; stroke: #000000; stroke-width: 0.8; stroke-linejoin: miter; stroke-linecap: square"/>
   </g>
   <g id="patch_4">
    <path d="M 518.4 203.04 
L 518.4 51.84 
" style="fill: none; stroke: #000000; stroke-width: 0.8; stroke-linejoin: miter; stroke-linecap: square"/>
   </g>
   <g id="patch_5">
    <path d="M 72 203.04 
L 518.4 203.04 
" style="fill: none; stroke: #000000; stroke-width: 0.8; stroke-linejoin: miter; stroke-linecap: square"/>
   </g>
   <g id="patch_6">
    <path d="M 72 51.84 
L 518.4 51.84 
" style="fill: none; stroke: #000000; stroke-width: 0.8; stroke-linejoin: miter; stroke-linecap: square"/>
   </g>
  </g>
  <g id="axes_2">
   <g id="patch_7">
    <path d="M 72 384.48 
L 518.4 384.48 
L 518.4 233.28 
L 72 233.28 
z
" style="fill: #ffffff"/>
   </g>
   <g id="matplotlib.axis_3">
    <g id="xtick_7">
     <g id="line2d_19">
      <g>
       <use xlink:href="#mef10b22946" x="92.290909" y="384.48" style="stroke: #000000; stroke-width: 0.8"/>
      </g>
     </g>
     <g id="text_6">
      <!-- 0 -->
      <g transform="translate(89.109659 399.078438)scale(0.1 -0.1)">
       <use xlink:href="#DejaVuSans-30"/>
      </g>
     </g>
    </g>
    <g id="xtick_8">
     <g id="line2d_20">
      <g>
       <use xlink:href="#mef10b22946" x="172.650945" y="384.48" style="stroke: #000000; stroke-width: 0.8"/>
      </g>
     </g>
     <g id="text_7">
      <!-- 20 -->
      <g transform="translate(166.288445 399.078438)scale(0.1 -0.1)">
       <use xlink:href="#DejaVuSans-32"/>
       <use xlink:href="#DejaVuSans-30" x="63.623047"/>
      </g>
     </g>
    </g>
    <g id="xtick_9">
     <g id="line2d_21">
      <g>
       <use xlink:href="#mef10b22946" x="253.010981" y="384.48" style="stroke: #000000; stroke-width: 0.8"/>
      </g>
     </g>
     <g id="text_8">
      <!-- 40 -->
      <g transform="translate(246.648481 399.078438)scale(0.1 -0.1)">
       <use xlink:href="#DejaVuSans-34"/>
       <use xlink:href="#DejaVuSans-30" x="63.623047"/>
      </g>
     </g>
    </g>
    <g id="xtick_10">
     <g id="line2d_22">
      <g>
       <use xlink:href="#mef10b22946" x="333.371017" y="384.48" style="stroke: #000000; stroke-width: 0.8"/>
      </g>
     </g>
     <g id="text_9">
      <!-- 60 -->
      <g transform="translate(327.008517 399.078438)scale(0.1 -0.1)">
       <defs>
        <path id="DejaVuSans-36" d="M 2113 2584 
Q 1688 2584 1439 2293 
Q 1191 2003 1191 1497 
Q 1191 994 1439 701 
Q 1688 409 2113 409 
Q 2538 409 2786 701 
Q 3034 994 3034 1497 
Q 3034 2003 2786 2293 
Q 2538 2584 2113 2584 
z
M 3366 4563 
L 3366 3988 
Q 3128 4100 2886 4159 
Q 2644 4219 2406 4219 
Q 1781 4219 1451 3797 
Q 1122 3375 1075 2522 
Q 1259 2794 1537 2939 
Q 1816 3084 2150 3084 
Q 2853 3084 3261 2657 
Q 3669 2231 3669 1497 
Q 3669 778 3244 343 
Q 2819 -91 2113 -91 
Q 1303 -91 875 529 
Q 447 1150 447 2328 
Q 447 3434 972 4092 
Q 1497 4750 2381 4750 
Q 2619 4750 2861 4703 
Q 3103 4656 3366 4563 
z
" transform="scale(0.015625)"/>
       </defs>
       <use xlink:href="#DejaVuSans-36"/>
       <use xlink:href="#DejaVuSans-30" x="63.623047"/>
      </g>
     </g>
    </g>
    <g id="xtick_11">
     <g id="line2d_23">
      <g>
       <use xlink:href="#mef10b22946" x="413.731053" y="384.48" style="stroke: #000000; stroke-width: 0.8"/>
      </g>
     </g>
     <g id="text_10">
      <!-- 80 -->
      <g transform="translate(407.368553 399.078438)scale(0.1 -0.1)">
       <defs>
        <path id="DejaVuSans-38" d="M 2034 2216 
Q 1584 2216 1326 1975 
Q 1069 1734 1069 1313 
Q 1069 891 1326 650 
Q 1584 409 2034 409 
Q 2484 409 2743 651 
Q 3003 894 3003 1313 
Q 3003 1734 2745 1975 
Q 2488 2216 2034 2216 
z
M 1403 2484 
Q 997 2584 770 2862 
Q 544 3141 544 3541 
Q 544 4100 942 4425 
Q 1341 4750 2034 4750 
Q 2731 4750 3128 4425 
Q 3525 4100 3525 3541 
Q 3525 3141 3298 2862 
Q 3072 2584 2669 2484 
Q 3125 2378 3379 2068 
Q 3634 1759 3634 1313 
Q 3634 634 3220 271 
Q 2806 -91 2034 -91 
Q 1263 -91 848 271 
Q 434 634 434 1313 
Q 434 1759 690 2068 
Q 947 2378 1403 2484 
z
M 1172 3481 
Q 1172 3119 1398 2916 
Q 1625 2713 2034 2713 
Q 2441 2713 2670 2916 
Q 2900 3119 2900 3481 
Q 2900 3844 2670 4047 
Q 2441 4250 2034 4250 
Q 1625 4250 1398 4047 
Q 1172 3844 1172 3481 
z
" transform="scale(0.015625)"/>
       </defs>
       <use xlink:href="#DejaVuSans-38"/>
       <use xlink:href="#DejaVuSans-30" x="63.623047"/>
      </g>
     </g>
    </g>
    <g id="xtick_12">
     <g id="line2d_24">
      <g>
       <use xlink:href="#mef10b22946" x="494.091089" y="384.48" style="stroke: #000000; stroke-width: 0.8"/>
      </g>
     </g>
     <g id="text_11">
      <!-- 100 -->
      <g transform="translate(484.547339 399.078438)scale(0.1 -0.1)">
       <use xlink:href="#DejaVuSans-31"/>
       <use xlink:href="#DejaVuSans-30" x="63.623047"/>
       <use xlink:href="#DejaVuSans-30" x="127.246094"/>
      </g>
     </g>
    </g>
    <g id="text_12">
     <!-- Epochs -->
     <g transform="translate(277.284375 412.756563)scale(0.1 -0.1)">
      <defs>
       <path id="DejaVuSans-45" d="M 628 4666 
L 3578 4666 
L 3578 4134 
L 1259 4134 
L 1259 2753 
L 3481 2753 
L 3481 2222 
L 1259 2222 
L 1259 531 
L 3634 531 
L 3634 0 
L 628 0 
L 628 4666 
z
" transform="scale(0.015625)"/>
       <path id="DejaVuSans-70" d="M 1159 525 
L 1159 -1331 
L 581 -1331 
L 581 3500 
L 1159 3500 
L 1159 2969 
Q 1341 3281 1617 3432 
Q 1894 3584 2278 3584 
Q 2916 3584 3314 3078 
Q 3713 2572 3713 1747 
Q 3713 922 3314 415 
Q 2916 -91 2278 -91 
Q 1894 -91 1617 61 
Q 1341 213 1159 525 
z
M 3116 1747 
Q 3116 2381 2855 2742 
Q 2594 3103 2138 3103 
Q 1681 3103 1420 2742 
Q 1159 2381 1159 1747 
Q 1159 1113 1420 752 
Q 1681 391 2138 391 
Q 2594 391 2855 752 
Q 3116 1113 3116 1747 
z
" transform="scale(0.015625)"/>
       <path id="DejaVuSans-63" d="M 3122 3366 
L 3122 2828 
Q 2878 2963 2633 3030 
Q 2388 3097 2138 3097 
Q 1578 3097 1268 2742 
Q 959 2388 959 1747 
Q 959 1106 1268 751 
Q 1578 397 2138 397 
Q 2388 397 2633 464 
Q 2878 531 3122 666 
L 3122 134 
Q 2881 22 2623 -34 
Q 2366 -91 2075 -91 
Q 1284 -91 818 406 
Q 353 903 353 1747 
Q 353 2603 823 3093 
Q 1294 3584 2113 3584 
Q 2378 3584 2631 3529 
Q 2884 3475 3122 3366 
z
" transform="scale(0.015625)"/>
       <path id="DejaVuSans-68" d="M 3513 2113 
L 3513 0 
L 2938 0 
L 2938 2094 
Q 2938 2591 2744 2837 
Q 2550 3084 2163 3084 
Q 1697 3084 1428 2787 
Q 1159 2491 1159 1978 
L 1159 0 
L 581 0 
L 581 4863 
L 1159 4863 
L 1159 2956 
Q 1366 3272 1645 3428 
Q 1925 3584 2291 3584 
Q 2894 3584 3203 3211 
Q 3513 2838 3513 2113 
z
" transform="scale(0.015625)"/>
       <path id="DejaVuSans-73" d="M 2834 3397 
L 2834 2853 
Q 2591 2978 2328 3040 
Q 2066 3103 1784 3103 
Q 1356 3103 1142 2972 
Q 928 2841 928 2578 
Q 928 2378 1081 2264 
Q 1234 2150 1697 2047 
L 1894 2003 
Q 2506 1872 2764 1633 
Q 3022 1394 3022 966 
Q 3022 478 2636 193 
Q 2250 -91 1575 -91 
Q 1294 -91 989 -36 
Q 684 19 347 128 
L 347 722 
Q 666 556 975 473 
Q 1284 391 1588 391 
Q 1994 391 2212 530 
Q 2431 669 2431 922 
Q 2431 1156 2273 1281 
Q 2116 1406 1581 1522 
L 1381 1569 
Q 847 1681 609 1914 
Q 372 2147 372 2553 
Q 372 3047 722 3315 
Q 1072 3584 1716 3584 
Q 2034 3584 2315 3537 
Q 2597 3491 2834 3397 
z
" transform="scale(0.015625)"/>
      </defs>
      <use xlink:href="#DejaVuSans-45"/>
      <use xlink:href="#DejaVuSans-70" x="63.183594"/>
      <use xlink:href="#DejaVuSans-6f" x="126.660156"/>
      <use xlink:href="#DejaVuSans-63" x="187.841797"/>
      <use xlink:href="#DejaVuSans-68" x="242.822266"/>
      <use xlink:href="#DejaVuSans-73" x="306.201172"/>
     </g>
    </g>
   </g>
   <g id="matplotlib.axis_4">
    <g id="ytick_5">
     <g id="line2d_25">
      <g>
       <use xlink:href="#m565c049efe" x="72" y="377.607273" style="stroke: #000000; stroke-width: 0.8"/>
      </g>
     </g>
     <g id="text_13">
      <!-- 0.0 -->
      <g transform="translate(49.096875 381.406491)scale(0.1 -0.1)">
       <use xlink:href="#DejaVuSans-30"/>
       <use xlink:href="#DejaVuSans-2e" x="63.623047"/>
       <use xlink:href="#DejaVuSans-30" x="95.410156"/>
      </g>
     </g>
    </g>
    <g id="ytick_6">
     <g id="line2d_26">
      <g>
       <use xlink:href="#m565c049efe" x="72" y="353.83551" style="stroke: #000000; stroke-width: 0.8"/>
      </g>
     </g>
     <g id="text_14">
      <!-- 0.1 -->
      <g transform="translate(49.096875 357.634729)scale(0.1 -0.1)">
       <use xlink:href="#DejaVuSans-30"/>
       <use xlink:href="#DejaVuSans-2e" x="63.623047"/>
       <use xlink:href="#DejaVuSans-31" x="95.410156"/>
      </g>
     </g>
    </g>
    <g id="ytick_7">
     <g id="line2d_27">
      <g>
       <use xlink:href="#m565c049efe" x="72" y="330.063748" style="stroke: #000000; stroke-width: 0.8"/>
      </g>
     </g>
     <g id="text_15">
      <!-- 0.2 -->
      <g transform="translate(49.096875 333.862967)scale(0.1 -0.1)">
       <use xlink:href="#DejaVuSans-30"/>
       <use xlink:href="#DejaVuSans-2e" x="63.623047"/>
       <use xlink:href="#DejaVuSans-32" x="95.410156"/>
      </g>
     </g>
    </g>
    <g id="ytick_8">
     <g id="line2d_28">
      <g>
       <use xlink:href="#m565c049efe" x="72" y="306.291986" style="stroke: #000000; stroke-width: 0.8"/>
      </g>
     </g>
     <g id="text_16">
      <!-- 0.3 -->
      <g transform="translate(49.096875 310.091205)scale(0.1 -0.1)">
       <use xlink:href="#DejaVuSans-30"/>
       <use xlink:href="#DejaVuSans-2e" x="63.623047"/>
       <use xlink:href="#DejaVuSans-33" x="95.410156"/>
      </g>
     </g>
    </g>
    <g id="ytick_9">
     <g id="line2d_29">
      <g>
       <use xlink:href="#m565c049efe" x="72" y="282.520224" style="stroke: #000000; stroke-width: 0.8"/>
      </g>
     </g>
     <g id="text_17">
      <!-- 0.4 -->
      <g transform="translate(49.096875 286.319442)scale(0.1 -0.1)">
       <use xlink:href="#DejaVuSans-30"/>
       <use xlink:href="#DejaVuSans-2e" x="63.623047"/>
       <use xlink:href="#DejaVuSans-34" x="95.410156"/>
      </g>
     </g>
    </g>
    <g id="ytick_10">
     <g id="line2d_30">
      <g>
       <use xlink:href="#m565c049efe" x="72" y="258.748461" style="stroke: #000000; stroke-width: 0.8"/>
      </g>
     </g>
     <g id="text_18">
      <!-- 0.5 -->
      <g transform="translate(49.096875 262.54768)scale(0.1 -0.1)">
       <defs>
        <path id="DejaVuSans-35" d="M 691 4666 
L 3169 4666 
L 3169 4134 
L 1269 4134 
L 1269 2991 
Q 1406 3038 1543 3061 
Q 1681 3084 1819 3084 
Q 2600 3084 3056 2656 
Q 3513 2228 3513 1497 
Q 3513 744 3044 326 
Q 2575 -91 1722 -91 
Q 1428 -91 1123 -41 
Q 819 9 494 109 
L 494 744 
Q 775 591 1075 516 
Q 1375 441 1709 441 
Q 2250 441 2565 725 
Q 2881 1009 2881 1497 
Q 2881 1984 2565 2268 
Q 2250 2553 1709 2553 
Q 1456 2553 1204 2497 
Q 953 2441 691 2322 
L 691 4666 
z
" transform="scale(0.015625)"/>
       </defs>
       <use xlink:href="#DejaVuSans-30"/>
       <use xlink:href="#DejaVuSans-2e" x="63.623047"/>
       <use xlink:href="#DejaVuSans-35" x="95.410156"/>
      </g>
     </g>
    </g>
    <g id="ytick_11">
     <g id="line2d_31">
      <g>
       <use xlink:href="#m565c049efe" x="72" y="234.976699" style="stroke: #000000; stroke-width: 0.8"/>
      </g>
     </g>
     <g id="text_19">
      <!-- 0.6 -->
      <g transform="translate(49.096875 238.775918)scale(0.1 -0.1)">
       <use xlink:href="#DejaVuSans-30"/>
       <use xlink:href="#DejaVuSans-2e" x="63.623047"/>
       <use xlink:href="#DejaVuSans-36" x="95.410156"/>
      </g>
     </g>
    </g>
    <g id="text_20">
     <!-- Additive -->
     <g transform="translate(43.017187 329.335469)rotate(-90)scale(0.1 -0.1)">
      <defs>
       <path id="DejaVuSans-64" d="M 2906 2969 
L 2906 4863 
L 3481 4863 
L 3481 0 
L 2906 0 
L 2906 525 
Q 2725 213 2448 61 
Q 2172 -91 1784 -91 
Q 1150 -91 751 415 
Q 353 922 353 1747 
Q 353 2572 751 3078 
Q 1150 3584 1784 3584 
Q 2172 3584 2448 3432 
Q 2725 3281 2906 2969 
z
M 947 1747 
Q 947 1113 1208 752 
Q 1469 391 1925 391 
Q 2381 391 2643 752 
Q 2906 1113 2906 1747 
Q 2906 2381 2643 2742 
Q 2381 3103 1925 3103 
Q 1469 3103 1208 2742 
Q 947 2381 947 1747 
z
" transform="scale(0.015625)"/>
       <path id="DejaVuSans-76" d="M 191 3500 
L 800 3500 
L 1894 563 
L 2988 3500 
L 3597 3500 
L 2284 0 
L 1503 0 
L 191 3500 
z
" transform="scale(0.015625)"/>
      </defs>
      <use xlink:href="#DejaVuSans-41"/>
      <use xlink:href="#DejaVuSans-64" x="66.658203"/>
      <use xlink:href="#DejaVuSans-64" x="130.134766"/>
      <use xlink:href="#DejaVuSans-69" x="193.611328"/>
      <use xlink:href="#DejaVuSans-74" x="221.394531"/>
      <use xlink:href="#DejaVuSans-69" x="260.603516"/>
      <use xlink:href="#DejaVuSans-76" x="288.386719"/>
      <use xlink:href="#DejaVuSans-65" x="347.566406"/>
     </g>
    </g>
   </g>
   <g id="line2d_32">
    <path d="M 92.290909 309.975206 
L 96.308911 354.788566 
L 100.326913 332.859348 
L 104.344914 327.890282 
L 108.362916 337.890057 
L 112.380918 352.567036 
L 116.39892 361.844783 
L 120.416922 368.634397 
L 124.434923 371.923178 
L 128.452925 373.00013 
L 132.470927 373.898196 
L 136.488929 374.56765 
L 140.506931 375.128601 
L 144.524932 375.46293 
L 148.542934 375.920671 
L 152.560936 376.212587 
L 156.578938 376.600562 
L 160.59694 376.909885 
L 164.614941 377.147378 
L 168.632943 377.224425 
L 172.650945 377.343189 
L 176.668947 377.34406 
L 180.686949 377.354376 
L 184.70495 377.343895 
L 188.722952 377.335979 
L 192.740954 377.315137 
L 196.758956 377.310848 
L 200.776958 377.30633 
L 204.794959 377.31376 
L 208.812961 377.324137 
L 212.830963 377.343376 
L 216.848965 377.361529 
L 220.866967 377.370387 
L 224.884968 377.387275 
L 228.90297 377.398965 
L 232.920972 377.410313 
L 236.938974 377.422238 
L 240.956976 377.426977 
L 244.974977 377.430047 
L 248.992979 377.431722 
L 253.010981 377.433775 
L 257.028983 377.43651 
L 261.046985 377.438039 
L 265.064986 377.438847 
L 269.082988 377.439673 
L 273.10099 377.441087 
L 277.118992 377.443059 
L 281.136994 377.444522 
L 285.154995 377.445987 
L 289.172997 377.446911 
L 293.190999 377.448368 
L 297.209001 377.449643 
L 301.227003 377.450809 
L 305.245005 377.451865 
L 309.263006 377.45287 
L 313.281008 377.454247 
L 317.29901 377.455371 
L 321.317012 377.456178 
L 325.335014 377.458194 
L 329.353015 377.459507 
L 333.371017 377.459953 
L 337.389019 377.46133 
L 341.407021 377.462375 
L 345.425023 377.46413 
L 349.443024 377.465934 
L 353.461026 377.468491 
L 357.479028 377.46977 
L 361.49703 377.471253 
L 365.515032 377.473276 
L 369.533033 377.475374 
L 373.551035 377.47717 
L 377.569037 377.480017 
L 381.587039 377.482267 
L 385.605041 377.484003 
L 389.623042 377.485042 
L 393.641044 377.486218 
L 397.659046 377.488087 
L 401.677048 377.489226 
L 405.69505 377.490858 
L 409.713051 377.492912 
L 413.731053 377.494609 
L 417.749055 377.495792 
L 421.767057 377.49703 
L 425.785059 377.498319 
L 429.80306 377.49984 
L 433.821062 377.501688 
L 437.839064 377.504777 
L 441.857066 377.507233 
L 445.875068 377.509023 
L 449.893069 377.511665 
L 453.911071 377.51364 
L 457.929073 377.514783 
L 461.947075 377.5157 
L 465.965077 377.516728 
L 469.983078 377.518231 
L 474.00108 377.519148 
L 478.019082 377.519934 
L 482.037084 377.52091 
L 486.055086 377.521844 
L 490.073087 377.5227 
L 494.091089 377.524612 
L 498.109091 377.524934 
" clip-path="url(#pfd343b2d6e)" style="fill: none; stroke: #1f77b4; stroke-linecap: square"/>
   </g>
   <g id="line2d_33">
    <path d="M 92.290909 318.712845 
L 96.308911 351.969548 
L 100.326913 350.991924 
L 104.344914 347.565512 
L 108.362916 352.937014 
L 112.380918 362.93169 
L 116.39892 369.024209 
L 120.416922 372.947667 
L 124.434923 374.555927 
L 128.452925 376.218444 
L 132.470927 376.502863 
L 136.488929 376.695904 
L 140.506931 377.049464 
L 144.524932 377.272012 
L 148.542934 377.402637 
L 152.560936 377.45497 
L 156.578938 377.457293 
L 160.59694 377.484099 
L 164.614941 377.485639 
L 168.632943 377.498188 
L 172.650945 377.509366 
L 176.668947 377.525143 
L 180.686949 377.530121 
L 184.70495 377.534078 
L 188.722952 377.536637 
L 192.740954 377.536663 
L 196.758956 377.53834 
L 200.776958 377.54364 
L 204.794959 377.548622 
L 208.812961 377.555928 
L 212.830963 377.559309 
L 216.848965 377.563504 
L 220.866967 377.566715 
L 224.884968 377.570632 
L 228.90297 377.574631 
L 232.920972 377.579043 
L 236.938974 377.585887 
L 240.956976 377.590415 
L 244.974977 377.594369 
L 248.992979 377.59935 
L 253.010981 377.605286 
L 257.028983 377.605773 
L 261.046985 377.605202 
L 265.064986 377.60579 
L 269.082988 377.606066 
L 273.10099 377.606438 
L 277.118992 377.606632 
L 281.136994 377.607031 
L 285.154995 377.607273 
L 289.172997 377.607273 
L 293.190999 377.607273 
L 297.209001 377.607273 
L 301.227003 377.607273 
L 305.245005 377.607273 
L 309.263006 377.607273 
L 313.281008 377.607273 
L 317.29901 377.607273 
L 321.317012 377.607273 
L 325.335014 377.607273 
L 329.353015 377.607273 
L 333.371017 377.607273 
L 337.389019 377.607273 
L 341.407021 377.607273 
L 345.425023 377.607273 
L 349.443024 377.607273 
L 353.461026 377.607273 
L 357.479028 377.607273 
L 361.49703 377.607273 
L 365.515032 377.607273 
L 369.533033 377.607273 
L 373.551035 377.607273 
L 377.569037 377.607273 
L 381.587039 377.607273 
L 385.605041 377.607273 
L 389.623042 377.607273 
L 393.641044 377.607273 
L 397.659046 377.607273 
L 401.677048 377.607273 
L 405.69505 377.607273 
L 409.713051 377.607273 
L 413.731053 377.607273 
L 417.749055 377.607273 
L 421.767057 377.607273 
L 425.785059 377.607273 
L 429.80306 377.607273 
L 433.821062 377.607273 
L 437.839064 377.607273 
L 441.857066 377.607273 
L 445.875068 377.607273 
L 449.893069 377.607273 
L 453.911071 377.607273 
L 457.929073 377.607273 
L 461.947075 377.607273 
L 465.965077 377.607273 
L 469.983078 377.607273 
L 474.00108 377.607273 
L 478.019082 377.607273 
L 482.037084 377.607273 
L 486.055086 377.607273 
L 490.073087 377.607273 
L 494.091089 377.607273 
L 498.109091 377.607273 
" clip-path="url(#pfd343b2d6e)" style="fill: none; stroke: #ff7f0e; stroke-linecap: square"/>
   </g>
   <g id="line2d_34">
    <path d="M 92.290909 343.561916 
L 96.308911 353.913206 
L 100.326913 338.167548 
L 104.344914 334.544377 
L 108.362916 344.114825 
L 112.380918 355.662476 
L 116.39892 363.626983 
L 120.416922 370.283313 
L 124.434923 373.07882 
L 128.452925 374.223218 
L 132.470927 375.053851 
L 136.488929 375.285727 
L 140.506931 375.495935 
L 144.524932 375.658568 
L 148.542934 375.862342 
L 152.560936 376.146473 
L 156.578938 376.385524 
L 160.59694 376.508247 
L 164.614941 376.694037 
L 168.632943 376.709163 
L 172.650945 376.94544 
L 176.668947 376.823946 
L 180.686949 376.783692 
L 184.70495 376.830486 
L 188.722952 377.063496 
L 192.740954 377.107992 
L 196.758956 377.138284 
L 200.776958 377.064672 
L 204.794959 377.020862 
L 208.812961 377.20185 
L 212.830963 377.094969 
L 216.848965 377.228295 
L 220.866967 377.229966 
L 224.884968 377.229006 
L 228.90297 377.281104 
L 232.920972 377.28677 
L 236.938974 377.277971 
L 240.956976 377.212033 
L 244.974977 377.189638 
L 248.992979 377.177034 
L 253.010981 377.170723 
L 257.028983 377.203771 
L 261.046985 377.243672 
L 265.064986 377.285713 
L 269.082988 377.306264 
L 273.10099 377.331051 
L 277.118992 377.293386 
L 281.136994 377.269531 
L 285.154995 377.363414 
L 289.172997 377.229424 
L 293.190999 377.330063 
L 297.209001 377.269516 
L 301.227003 377.382781 
L 305.245005 377.28749 
L 309.263006 377.331139 
L 313.281008 377.316731 
L 317.29901 377.267491 
L 321.317012 377.373864 
L 325.335014 377.306101 
L 329.353015 377.355083 
L 333.371017 377.343082 
L 337.389019 377.325341 
L 341.407021 377.350107 
L 345.425023 377.359389 
L 349.443024 377.342216 
L 353.461026 377.406523 
L 357.479028 377.392223 
L 361.49703 377.405344 
L 365.515032 377.405408 
L 369.533033 377.340055 
L 373.551035 377.355694 
L 377.569037 377.460613 
L 381.587039 377.459973 
L 385.605041 377.440162 
L 389.623042 377.323768 
L 393.641044 377.328496 
L 397.659046 376.955126 
L 401.677048 377.422371 
L 405.69505 377.382953 
L 409.713051 377.446368 
L 413.731053 377.40554 
L 417.749055 377.339393 
L 421.767057 377.446458 
L 425.785059 377.380234 
L 429.80306 377.430018 
L 433.821062 377.180461 
L 437.839064 377.377045 
L 441.857066 377.419554 
L 445.875068 377.463074 
L 449.893069 377.439957 
L 453.911071 377.32914 
L 457.929073 377.421199 
L 461.947075 377.44982 
L 465.965077 377.268519 
L 469.983078 377.39246 
L 474.00108 377.463339 
L 478.019082 377.424264 
L 482.037084 377.435504 
L 486.055086 377.354983 
L 490.073087 377.394274 
L 494.091089 377.437157 
L 498.109091 377.468154 
" clip-path="url(#pfd343b2d6e)" style="fill: none; stroke: #2ca02c; stroke-linecap: square"/>
   </g>
   <g id="line2d_35">
    <path d="M 92.290909 346.3952 
L 96.308911 355.697064 
L 100.326913 340.203034 
L 104.344914 338.903528 
L 108.362916 349.154978 
L 112.380918 357.455703 
L 116.39892 364.57361 
L 120.416922 368.186809 
L 124.434923 371.208733 
L 128.452925 372.343448 
L 132.470927 373.404028 
L 136.488929 374.002008 
L 140.506931 374.567801 
L 144.524932 374.9135 
L 148.542934 375.233177 
L 152.560936 375.674941 
L 156.578938 375.848481 
L 160.59694 376.150782 
L 164.614941 376.177995 
L 168.632943 376.361652 
L 172.650945 376.264333 
L 176.668947 376.616488 
L 180.686949 376.417742 
L 184.70495 376.703602 
L 188.722952 376.540669 
L 192.740954 376.340085 
L 196.758956 376.906877 
L 200.776958 376.781657 
L 204.794959 377.052893 
L 208.812961 376.563765 
L 212.830963 377.144059 
L 216.848965 377.050218 
L 220.866967 376.960209 
L 224.884968 377.073642 
L 228.90297 377.008898 
L 232.920972 377.030181 
L 236.938974 377.109727 
L 240.956976 377.197782 
L 244.974977 377.027921 
L 248.992979 377.100292 
L 253.010981 377.107564 
L 257.028983 377.13611 
L 261.046985 377.013399 
L 265.064986 377.157807 
L 269.082988 377.163252 
L 273.10099 377.217143 
L 277.118992 377.072116 
L 281.136994 377.121183 
L 285.154995 377.210427 
L 289.172997 377.28409 
L 293.190999 377.210842 
L 297.209001 377.26813 
L 301.227003 377.228107 
L 305.245005 377.321268 
L 309.263006 377.234433 
L 313.281008 377.312512 
L 317.29901 377.171097 
L 321.317012 377.347074 
L 325.335014 377.249884 
L 329.353015 377.309594 
L 333.371017 377.238459 
L 337.389019 377.388094 
L 341.407021 377.326567 
L 345.425023 377.247713 
L 349.443024 377.347024 
L 353.461026 377.266917 
L 357.479028 377.390426 
L 361.49703 377.270705 
L 365.515032 377.47359 
L 369.533033 377.451525 
L 373.551035 377.281687 
L 377.569037 377.356296 
L 381.587039 377.461207 
L 385.605041 377.332145 
L 389.623042 377.179151 
L 393.641044 377.289599 
L 397.659046 377.523345 
L 401.677048 377.240523 
L 405.69505 377.143424 
L 409.713051 377.438853 
L 413.731053 377.481047 
L 417.749055 377.302074 
L 421.767057 377.427217 
L 425.785059 377.393909 
L 429.80306 377.355478 
L 433.821062 377.32356 
L 437.839064 377.19539 
L 441.857066 377.512058 
L 445.875068 377.232651 
L 449.893069 377.347003 
L 453.911071 377.38923 
L 457.929073 377.503159 
L 461.947075 377.387896 
L 465.965077 377.129407 
L 469.983078 377.399684 
L 474.00108 377.433521 
L 478.019082 377.44822 
L 482.037084 377.330634 
L 486.055086 377.213064 
L 490.073087 377.331835 
L 494.091089 377.33497 
L 498.109091 377.416172 
" clip-path="url(#pfd343b2d6e)" style="fill: none; stroke: #d62728; stroke-linecap: square"/>
   </g>
   <g id="line2d_36">
    <path d="M 92.290909 330.477045 
L 96.308911 351.800126 
L 100.326913 332.742312 
L 104.344914 328.944065 
L 108.362916 338.586531 
L 112.380918 352.340708 
L 116.39892 361.387939 
L 120.416922 368.329244 
L 124.434923 371.523178 
L 128.452925 373.83397 
L 132.470927 374.190357 
L 136.488929 375.151098 
L 140.506931 375.504664 
L 144.524932 375.574669 
L 148.542934 375.907214 
L 152.560936 376.315077 
L 156.578938 376.473837 
L 160.59694 376.570621 
L 164.614941 376.664002 
L 168.632943 376.748516 
L 172.650945 376.773995 
L 176.668947 376.844982 
L 180.686949 376.82785 
L 184.70495 376.548339 
L 188.722952 376.818208 
L 192.740954 376.87349 
L 196.758956 376.83261 
L 200.776958 376.976751 
L 204.794959 376.999552 
L 208.812961 376.778779 
L 212.830963 376.925936 
L 216.848965 377.075576 
L 220.866967 377.022038 
L 224.884968 376.994124 
L 228.90297 377.030431 
L 232.920972 377.081542 
L 236.938974 377.050257 
L 240.956976 377.147536 
L 244.974977 377.193982 
L 248.992979 377.173404 
L 253.010981 377.174385 
L 257.028983 377.287217 
L 261.046985 377.228584 
L 265.064986 377.147279 
L 269.082988 377.170252 
L 273.10099 377.111291 
L 277.118992 377.060062 
L 281.136994 377.126395 
L 285.154995 377.109166 
L 289.172997 377.153932 
L 293.190999 377.181702 
L 297.209001 377.149847 
L 301.227003 377.124981 
L 305.245005 377.122643 
L 309.263006 377.150227 
L 313.281008 377.204512 
L 317.29901 377.226867 
L 321.317012 377.214444 
L 325.335014 377.22179 
L 329.353015 377.208102 
L 333.371017 377.231813 
L 337.389019 377.240903 
L 341.407021 377.256221 
L 345.425023 377.194394 
L 349.443024 377.197294 
L 353.461026 377.270875 
L 357.479028 377.24509 
L 361.49703 377.320533 
L 365.515032 377.227995 
L 369.533033 377.289462 
L 373.551035 377.236562 
L 377.569037 377.301381 
L 381.587039 377.208898 
L 385.605041 377.172614 
L 389.623042 377.369836 
L 393.641044 377.366422 
L 397.659046 377.39285 
L 401.677048 377.341851 
L 405.69505 376.915098 
L 409.713051 377.290178 
L 413.731053 377.352477 
L 417.749055 377.412436 
L 421.767057 377.32428 
L 425.785059 377.35984 
L 429.80306 377.348332 
L 433.821062 377.414789 
L 437.839064 377.359485 
L 441.857066 377.363924 
L 445.875068 377.240433 
L 449.893069 377.272722 
L 453.911071 377.36569 
L 457.929073 377.179593 
L 461.947075 377.2322 
L 465.965077 377.441807 
L 469.983078 377.319026 
L 474.00108 377.126539 
L 478.019082 377.461281 
L 482.037084 377.427634 
L 486.055086 377.423336 
L 490.073087 377.266968 
L 494.091089 377.239165 
L 498.109091 377.412006 
" clip-path="url(#pfd343b2d6e)" style="fill: none; stroke: #9467bd; stroke-linecap: square"/>
   </g>
   <g id="line2d_37">
    <path d="M 92.290909 317.615532 
L 96.308911 356.32887 
L 100.326913 345.827201 
L 104.344914 341.876639 
L 108.362916 350.067567 
L 112.380918 360.64205 
L 116.39892 366.717222 
L 120.416922 370.805544 
L 124.434923 372.85445 
L 128.452925 373.718924 
L 132.470927 374.325021 
L 136.488929 375.247098 
L 140.506931 375.417162 
L 144.524932 375.882591 
L 148.542934 376.246386 
L 152.560936 376.48038 
L 156.578938 376.700532 
L 160.59694 376.828134 
L 164.614941 376.794356 
L 168.632943 376.862078 
L 172.650945 376.975864 
L 176.668947 377.006547 
L 180.686949 376.982357 
L 184.70495 377.01225 
L 188.722952 377.036874 
L 192.740954 376.986607 
L 196.758956 377.059562 
L 200.776958 377.119956 
L 204.794959 377.139992 
L 208.812961 377.108904 
L 212.830963 377.178268 
L 216.848965 377.256874 
L 220.866967 377.192544 
L 224.884968 377.284799 
L 228.90297 377.309875 
L 232.920972 377.322314 
L 236.938974 377.327049 
L 240.956976 377.330181 
L 244.974977 377.307161 
L 248.992979 377.253713 
L 253.010981 377.231789 
L 257.028983 377.2343 
L 261.046985 377.295414 
L 265.064986 377.363288 
L 269.082988 377.307112 
L 273.10099 377.337235 
L 277.118992 377.379806 
L 281.136994 377.358382 
L 285.154995 377.292702 
L 289.172997 377.360949 
L 293.190999 377.372848 
L 297.209001 377.329677 
L 301.227003 377.297593 
L 305.245005 377.376683 
L 309.263006 377.344022 
L 313.281008 377.351662 
L 317.29901 377.161009 
L 321.317012 377.262796 
L 325.335014 377.290592 
L 329.353015 377.317498 
L 333.371017 377.362404 
L 337.389019 377.091925 
L 341.407021 377.242203 
L 345.425023 377.327455 
L 349.443024 377.383298 
L 353.461026 377.371346 
L 357.479028 377.329595 
L 361.49703 377.376789 
L 365.515032 377.199114 
L 369.533033 377.260809 
L 373.551035 377.318073 
L 377.569037 377.272447 
L 381.587039 377.356981 
L 385.605041 377.354791 
L 389.623042 377.346233 
L 393.641044 377.372924 
L 397.659046 377.320782 
L 401.677048 377.377013 
L 405.69505 377.365223 
L 409.713051 377.259907 
L 413.731053 377.378301 
L 417.749055 377.366912 
L 421.767057 377.374679 
L 425.785059 377.373484 
L 429.80306 377.375794 
L 433.821062 377.375674 
L 437.839064 377.373575 
L 441.857066 377.285873 
L 445.875068 377.379342 
L 449.893069 377.345426 
L 453.911071 377.360055 
L 457.929073 377.285099 
L 461.947075 377.376736 
L 465.965077 377.358707 
L 469.983078 377.368705 
L 474.00108 377.380906 
L 478.019082 377.338384 
L 482.037084 377.376336 
L 486.055086 377.358851 
L 490.073087 377.370916 
L 494.091089 377.355491 
L 498.109091 377.365363 
" clip-path="url(#pfd343b2d6e)" style="fill: none; stroke: #8c564b; stroke-linecap: square"/>
   </g>
   <g id="line2d_38">
    <path d="M 92.290909 361.15095 
L 96.308911 360.945435 
L 100.326913 355.64754 
L 104.344914 338.122242 
L 108.362916 313.171083 
L 112.380918 292.211494 
L 116.39892 276.175034 
L 120.416922 261.260121 
L 124.434923 254.52058 
L 128.452925 250.963703 
L 132.470927 249.864423 
L 136.488929 248.951057 
L 140.506931 248.61277 
L 144.524932 248.004251 
L 148.542934 248.136292 
L 152.560936 247.735917 
L 156.578938 247.736696 
L 160.59694 247.613623 
L 164.614941 247.631859 
L 168.632943 247.397942 
L 172.650945 247.49806 
L 176.668947 247.489191 
L 180.686949 247.487349 
L 184.70495 247.346593 
L 188.722952 247.319346 
L 192.740954 247.387443 
L 196.758956 247.338432 
L 200.776958 247.351212 
L 204.794959 247.375427 
L 208.812961 247.348704 
L 212.830963 247.298064 
L 216.848965 247.329619 
L 220.866967 247.301535 
L 224.884968 247.342272 
L 228.90297 247.304525 
L 232.920972 247.313678 
L 236.938974 247.272191 
L 240.956976 247.338318 
L 244.974977 247.300416 
L 248.992979 247.217329 
L 253.010981 247.258589 
L 257.028983 247.28415 
L 261.046985 247.269131 
L 265.064986 247.307161 
L 269.082988 247.240027 
L 273.10099 247.265163 
L 277.118992 247.193 
L 281.136994 247.280891 
L 285.154995 247.28619 
L 289.172997 247.244406 
L 293.190999 247.303661 
L 297.209001 247.25781 
L 301.227003 247.246021 
L 305.245005 247.257002 
L 309.263006 247.245993 
L 313.281008 247.228593 
L 317.29901 247.242918 
L 321.317012 247.275634 
L 325.335014 247.351184 
L 329.353015 247.273835 
L 333.371017 247.243811 
L 337.389019 247.245837 
L 341.407021 247.26274 
L 345.425023 247.256832 
L 349.443024 247.302584 
L 353.461026 247.302825 
L 357.479028 247.278709 
L 361.49703 247.246432 
L 365.515032 247.237151 
L 369.533033 247.295471 
L 373.551035 247.249252 
L 377.569037 247.274132 
L 381.587039 247.238752 
L 385.605041 247.2521 
L 389.623042 247.255613 
L 393.641044 247.261635 
L 397.659046 247.240977 
L 401.677048 247.23385 
L 405.69505 247.227998 
L 409.713051 247.238866 
L 413.731053 247.22838 
L 417.749055 247.240169 
L 421.767057 247.2833 
L 425.785059 247.236159 
L 429.80306 247.265319 
L 433.821062 247.242833 
L 437.839064 247.239957 
L 441.857066 247.243782 
L 445.875068 247.246177 
L 449.893069 247.278525 
L 453.911071 247.266935 
L 457.929073 247.228253 
L 461.947075 247.261026 
L 465.965077 247.251575 
L 469.983078 247.25747 
L 474.00108 247.217782 
L 478.019082 247.216592 
L 482.037084 247.288316 
L 486.055086 247.264979 
L 490.073087 247.260048 
L 494.091089 247.25268 
L 498.109091 247.243244 
" clip-path="url(#pfd343b2d6e)" style="fill: none; stroke: #e377c2; stroke-linecap: square"/>
   </g>
   <g id="line2d_39">
    <path d="M 92.290909 362.644162 
L 96.308911 362.707187 
L 100.326913 356.896106 
L 104.344914 337.262487 
L 108.362916 309.347742 
L 112.380918 286.005382 
L 116.39892 269.680087 
L 120.416922 254.865993 
L 124.434923 247.836616 
L 128.452925 244.456654 
L 132.470927 243.119406 
L 136.488929 242.043392 
L 140.506931 241.857579 
L 144.524932 241.270497 
L 148.542934 241.179603 
L 152.560936 240.83375 
L 156.578938 240.729777 
L 160.59694 240.670154 
L 164.614941 240.662701 
L 168.632943 240.439637 
L 172.650945 240.446126 
L 176.668947 240.477355 
L 180.686949 240.461146 
L 184.70495 240.329883 
L 188.722952 240.289062 
L 192.740954 240.384987 
L 196.758956 240.344704 
L 200.776958 240.32841 
L 204.794959 240.358051 
L 208.812961 240.315998 
L 212.830963 240.271053 
L 216.848965 240.317754 
L 220.866967 240.258443 
L 224.884968 240.339858 
L 228.90297 240.289926 
L 232.920972 240.288099 
L 236.938974 240.221532 
L 240.956976 240.336784 
L 244.974977 240.280447 
L 248.992979 240.197402 
L 253.010981 240.217537 
L 257.028983 240.250423 
L 261.046985 240.255566 
L 265.064986 240.277925 
L 269.082988 240.192245 
L 273.10099 240.237558 
L 277.118992 240.152727 
L 281.136994 240.26931 
L 285.154995 240.267879 
L 289.172997 240.226081 
L 293.190999 240.274326 
L 297.209001 240.267766 
L 301.227003 240.192358 
L 305.245005 240.218415 
L 309.263006 240.237104 
L 313.281008 240.188433 
L 317.29901 240.223162 
L 321.317012 240.280178 
L 325.335014 240.341176 
L 329.353015 240.26139 
L 333.371017 240.210268 
L 337.389019 240.202277 
L 341.407021 240.242035 
L 345.425023 240.243282 
L 349.443024 240.262934 
L 353.461026 240.280391 
L 357.479028 240.25738 
L 361.49703 240.21714 
L 365.515032 240.211146 
L 369.533033 240.268885 
L 373.551035 240.216984 
L 377.569037 240.241326 
L 381.587039 240.201313 
L 385.605041 240.215411 
L 389.623042 240.217027 
L 393.641044 240.223913 
L 397.659046 240.222808 
L 401.677048 240.197119 
L 405.69505 240.193265 
L 409.713051 240.211387 
L 413.731053 240.190545 
L 417.749055 240.225514 
L 421.767057 240.260568 
L 425.785059 240.19838 
L 429.80306 240.237118 
L 433.821062 240.216715 
L 437.839064 240.188703 
L 441.857066 240.212308 
L 445.875068 240.216219 
L 449.893069 240.267553 
L 453.911071 240.240831 
L 457.929073 240.196595 
L 461.947075 240.223799 
L 465.965077 240.222241 
L 469.983078 240.241426 
L 474.00108 240.160747 
L 478.019082 240.190984 
L 482.037084 240.268673 
L 486.055086 240.228178 
L 490.073087 240.2394 
L 494.091089 240.215185 
L 498.109091 240.207958 
" clip-path="url(#pfd343b2d6e)" style="fill: none; stroke: #7f7f7f; stroke-linecap: square"/>
   </g>
   <g id="patch_8">
    <path d="M 72 384.48 
L 72 233.28 
" style="fill: none; stroke: #000000; stroke-width: 0.8; stroke-linejoin: miter; stroke-linecap: square"/>
   </g>
   <g id="patch_9">
    <path d="M 518.4 384.48 
L 518.4 233.28 
" style="fill: none; stroke: #000000; stroke-width: 0.8; stroke-linejoin: miter; stroke-linecap: square"/>
   </g>
   <g id="patch_10">
    <path d="M 72 384.48 
L 518.4 384.48 
" style="fill: none; stroke: #000000; stroke-width: 0.8; stroke-linejoin: miter; stroke-linecap: square"/>
   </g>
   <g id="patch_11">
    <path d="M 72 233.28 
L 518.4 233.28 
" style="fill: none; stroke: #000000; stroke-width: 0.8; stroke-linejoin: miter; stroke-linecap: square"/>
   </g>
  </g>
  <g id="text_21">
   <!-- Variable 2 -->
   <g transform="translate(257.98125 17.758125)scale(0.12 -0.12)">
    <defs>
     <path id="DejaVuSans-56" d="M 1831 0 
L 50 4666 
L 709 4666 
L 2188 738 
L 3669 4666 
L 4325 4666 
L 2547 0 
L 1831 0 
z
" transform="scale(0.015625)"/>
     <path id="DejaVuSans-61" d="M 2194 1759 
Q 1497 1759 1228 1600 
Q 959 1441 959 1056 
Q 959 750 1161 570 
Q 1363 391 1709 391 
Q 2188 391 2477 730 
Q 2766 1069 2766 1631 
L 2766 1759 
L 2194 1759 
z
M 3341 1997 
L 3341 0 
L 2766 0 
L 2766 531 
Q 2569 213 2275 61 
Q 1981 -91 1556 -91 
Q 1019 -91 701 211 
Q 384 513 384 1019 
Q 384 1609 779 1909 
Q 1175 2209 1959 2209 
L 2766 2209 
L 2766 2266 
Q 2766 2663 2505 2880 
Q 2244 3097 1772 3097 
Q 1472 3097 1187 3025 
Q 903 2953 641 2809 
L 641 3341 
Q 956 3463 1253 3523 
Q 1550 3584 1831 3584 
Q 2591 3584 2966 3190 
Q 3341 2797 3341 1997 
z
" transform="scale(0.015625)"/>
     <path id="DejaVuSans-72" d="M 2631 2963 
Q 2534 3019 2420 3045 
Q 2306 3072 2169 3072 
Q 1681 3072 1420 2755 
Q 1159 2438 1159 1844 
L 1159 0 
L 581 0 
L 581 3500 
L 1159 3500 
L 1159 2956 
Q 1341 3275 1631 3429 
Q 1922 3584 2338 3584 
Q 2397 3584 2469 3576 
Q 2541 3569 2628 3553 
L 2631 2963 
z
" transform="scale(0.015625)"/>
     <path id="DejaVuSans-62" d="M 3116 1747 
Q 3116 2381 2855 2742 
Q 2594 3103 2138 3103 
Q 1681 3103 1420 2742 
Q 1159 2381 1159 1747 
Q 1159 1113 1420 752 
Q 1681 391 2138 391 
Q 2594 391 2855 752 
Q 3116 1113 3116 1747 
z
M 1159 2969 
Q 1341 3281 1617 3432 
Q 1894 3584 2278 3584 
Q 2916 3584 3314 3078 
Q 3713 2572 3713 1747 
Q 3713 922 3314 415 
Q 2916 -91 2278 -91 
Q 1894 -91 1617 61 
Q 1341 213 1159 525 
L 1159 0 
L 581 0 
L 581 4863 
L 1159 4863 
L 1159 2969 
z
" transform="scale(0.015625)"/>
     <path id="DejaVuSans-6c" d="M 603 4863 
L 1178 4863 
L 1178 0 
L 603 0 
L 603 4863 
z
" transform="scale(0.015625)"/>
     <path id="DejaVuSans-20" transform="scale(0.015625)"/>
    </defs>
    <use xlink:href="#DejaVuSans-56"/>
    <use xlink:href="#DejaVuSans-61" x="60.658203"/>
    <use xlink:href="#DejaVuSans-72" x="121.9375"/>
    <use xlink:href="#DejaVuSans-69" x="163.050781"/>
    <use xlink:href="#DejaVuSans-61" x="190.833984"/>
    <use xlink:href="#DejaVuSans-62" x="252.113281"/>
    <use xlink:href="#DejaVuSans-6c" x="315.589844"/>
    <use xlink:href="#DejaVuSans-65" x="343.373047"/>
    <use xlink:href="#DejaVuSans-20" x="404.896484"/>
    <use xlink:href="#DejaVuSans-32" x="436.683594"/>
   </g>
  </g>
  <g id="legend_1">
   <g id="patch_12">
    <path d="M 484.645312 125.425 
L 569 125.425 
Q 571 125.425 571 123.425 
L 571 7 
Q 571 5 569 5 
L 484.645312 5 
Q 482.645312 5 482.645312 7 
L 482.645312 123.425 
Q 482.645312 125.425 484.645312 125.425 
z
" style="fill: #ffffff; opacity: 0.8; stroke: #cccccc; stroke-linejoin: miter"/>
   </g>
   <g id="line2d_40">
    <path d="M 486.645312 13.098437 
L 496.645312 13.098437 
L 506.645312 13.098437 
" style="fill: none; stroke: #1f77b4; stroke-linecap: square"/>
   </g>
   <g id="text_22">
    <!-- 0 (correct) -->
    <g transform="translate(514.645313 16.598437)scale(0.1 -0.1)">
     <defs>
      <path id="DejaVuSans-28" d="M 1984 4856 
Q 1566 4138 1362 3434 
Q 1159 2731 1159 2009 
Q 1159 1288 1364 580 
Q 1569 -128 1984 -844 
L 1484 -844 
Q 1016 -109 783 600 
Q 550 1309 550 2009 
Q 550 2706 781 3412 
Q 1013 4119 1484 4856 
L 1984 4856 
z
" transform="scale(0.015625)"/>
      <path id="DejaVuSans-29" d="M 513 4856 
L 1013 4856 
Q 1481 4119 1714 3412 
Q 1947 2706 1947 2009 
Q 1947 1309 1714 600 
Q 1481 -109 1013 -844 
L 513 -844 
Q 928 -128 1133 580 
Q 1338 1288 1338 2009 
Q 1338 2731 1133 3434 
Q 928 4138 513 4856 
z
" transform="scale(0.015625)"/>
     </defs>
     <use xlink:href="#DejaVuSans-30"/>
     <use xlink:href="#DejaVuSans-20" x="63.623047"/>
     <use xlink:href="#DejaVuSans-28" x="95.410156"/>
     <use xlink:href="#DejaVuSans-63" x="134.423828"/>
     <use xlink:href="#DejaVuSans-6f" x="189.404297"/>
     <use xlink:href="#DejaVuSans-72" x="250.585938"/>
     <use xlink:href="#DejaVuSans-72" x="289.949219"/>
     <use xlink:href="#DejaVuSans-65" x="328.8125"/>
     <use xlink:href="#DejaVuSans-63" x="390.335938"/>
     <use xlink:href="#DejaVuSans-74" x="445.316406"/>
     <use xlink:href="#DejaVuSans-29" x="484.525391"/>
    </g>
   </g>
   <g id="line2d_41">
    <path d="M 486.645312 27.776563 
L 496.645312 27.776563 
L 506.645312 27.776563 
" style="fill: none; stroke: #ff7f0e; stroke-linecap: square"/>
   </g>
   <g id="text_23">
    <!-- 1 -->
    <g transform="translate(514.645313 31.276563)scale(0.1 -0.1)">
     <use xlink:href="#DejaVuSans-31"/>
    </g>
   </g>
   <g id="line2d_42">
    <path d="M 486.645312 42.454687 
L 496.645312 42.454687 
L 506.645312 42.454687 
" style="fill: none; stroke: #2ca02c; stroke-linecap: square"/>
   </g>
   <g id="text_24">
    <!-- 2 -->
    <g transform="translate(514.645313 45.954687)scale(0.1 -0.1)">
     <use xlink:href="#DejaVuSans-32"/>
    </g>
   </g>
   <g id="line2d_43">
    <path d="M 486.645312 57.132812 
L 496.645312 57.132812 
L 506.645312 57.132812 
" style="fill: none; stroke: #d62728; stroke-linecap: square"/>
   </g>
   <g id="text_25">
    <!-- 3 -->
    <g transform="translate(514.645313 60.632812)scale(0.1 -0.1)">
     <use xlink:href="#DejaVuSans-33"/>
    </g>
   </g>
   <g id="line2d_44">
    <path d="M 486.645312 71.810938 
L 496.645312 71.810938 
L 506.645312 71.810938 
" style="fill: none; stroke: #9467bd; stroke-linecap: square"/>
   </g>
   <g id="text_26">
    <!-- 4 (correct) -->
    <g transform="translate(514.645313 75.310938)scale(0.1 -0.1)">
     <use xlink:href="#DejaVuSans-34"/>
     <use xlink:href="#DejaVuSans-20" x="63.623047"/>
     <use xlink:href="#DejaVuSans-28" x="95.410156"/>
     <use xlink:href="#DejaVuSans-63" x="134.423828"/>
     <use xlink:href="#DejaVuSans-6f" x="189.404297"/>
     <use xlink:href="#DejaVuSans-72" x="250.585938"/>
     <use xlink:href="#DejaVuSans-72" x="289.949219"/>
     <use xlink:href="#DejaVuSans-65" x="328.8125"/>
     <use xlink:href="#DejaVuSans-63" x="390.335938"/>
     <use xlink:href="#DejaVuSans-74" x="445.316406"/>
     <use xlink:href="#DejaVuSans-29" x="484.525391"/>
    </g>
   </g>
   <g id="line2d_45">
    <path d="M 486.645312 86.489062 
L 496.645312 86.489062 
L 506.645312 86.489062 
" style="fill: none; stroke: #8c564b; stroke-linecap: square"/>
   </g>
   <g id="text_27">
    <!-- 5 -->
    <g transform="translate(514.645313 89.989062)scale(0.1 -0.1)">
     <use xlink:href="#DejaVuSans-35"/>
    </g>
   </g>
   <g id="line2d_46">
    <path d="M 486.645312 101.167187 
L 496.645312 101.167187 
L 506.645312 101.167187 
" style="fill: none; stroke: #e377c2; stroke-linecap: square"/>
   </g>
   <g id="text_28">
    <!-- 6 -->
    <g transform="translate(514.645313 104.667187)scale(0.1 -0.1)">
     <use xlink:href="#DejaVuSans-36"/>
    </g>
   </g>
   <g id="line2d_47">
    <path d="M 486.645312 115.845312 
L 496.645312 115.845312 
L 506.645312 115.845312 
" style="fill: none; stroke: #7f7f7f; stroke-linecap: square"/>
   </g>
   <g id="text_29">
    <!-- 7 -->
    <g transform="translate(514.645313 119.345312)scale(0.1 -0.1)">
     <defs>
      <path id="DejaVuSans-37" d="M 525 4666 
L 3525 4666 
L 3525 4397 
L 1831 0 
L 1172 0 
L 2766 4134 
L 525 4134 
L 525 4666 
z
" transform="scale(0.015625)"/>
     </defs>
     <use xlink:href="#DejaVuSans-37"/>
    </g>
   </g>
  </g>
 </g>
 <defs>
  <clipPath id="p0a2a62a118">
   <rect x="72" y="51.84" width="446.4" height="151.2"/>
  </clipPath>
  <clipPath id="pfd343b2d6e">
   <rect x="72" y="233.28" width="446.4" height="151.2"/>
  </clipPath>
 </defs>
</svg>
