<?xml version="1.0" encoding="utf-8" standalone="no"?>
<!DOCTYPE svg PUBLIC "-//W3C//DTD SVG 1.1//EN"
  "http://www.w3.org/Graphics/SVG/1.1/DTD/svg11.dtd">
<svg xmlns:xlink="http://www.w3.org/1999/xlink" width="576pt" height="432pt" viewBox="0 0 576 432" xmlns="http://www.w3.org/2000/svg" version="1.1">
 <metadata>
  <rdf:RDF xmlns:dc="http://purl.org/dc/elements/1.1/" xmlns:cc="http://creativecommons.org/ns#" xmlns:rdf="http://www.w3.org/1999/02/22-rdf-syntax-ns#">
   <cc:Work>
    <dc:type rdf:resource="http://purl.org/dc/dcmitype/StillImage"/>
    <dc:date>2023-07-12T16:28:13.402759</dc:date>
    <dc:format>image/svg+xml</dc:format>
    <dc:creator>
     <cc:Agent>
      <dc:title>Matplotlib v3.5.1, https://matplotlib.org/</dc:title>
     </cc:Agent>
    </dc:creator>
   </cc:Work>
  </rdf:RDF>
 </metadata>
 <defs>
  <style type="text/css">*{stroke-linejoin: round; stroke-linecap: butt}</style>
 </defs>
 <g id="figure_1">
  <g id="patch_1">
   <path d="M 0 432 
L 576 432 
L 576 0 
L 0 0 
z
" style="fill: #ffffff"/>
  </g>
  <g id="axes_1">
   <g id="patch_2">
    <path d="M 72 384.48 
L 518.4 384.48 
L 518.4 51.84 
L 72 51.84 
z
" style="fill: #ffffff"/>
   </g>
   <g id="matplotlib.axis_1">
    <g id="xtick_1">
     <g id="line2d_1">
      <defs>
       <path id="m5099d45b9f" d="M 0 0 
L 0 3.5 
" style="stroke: #000000; stroke-width: 0.8"/>
      </defs>
      <g>
       <use xlink:href="#m5099d45b9f" x="92.290909" y="384.48" style="stroke: #000000; stroke-width: 0.8"/>
      </g>
     </g>
     <g id="text_1">
      <!-- 0 -->
      <g transform="translate(89.109659 399.078438)scale(0.1 -0.1)">
       <defs>
        <path id="DejaVuSans-30" d="M 2034 4250 
Q 1547 4250 1301 3770 
Q 1056 3291 1056 2328 
Q 1056 1369 1301 889 
Q 1547 409 2034 409 
Q 2525 409 2770 889 
Q 3016 1369 3016 2328 
Q 3016 3291 2770 3770 
Q 2525 4250 2034 4250 
z
M 2034 4750 
Q 2819 4750 3233 4129 
Q 3647 3509 3647 2328 
Q 3647 1150 3233 529 
Q 2819 -91 2034 -91 
Q 1250 -91 836 529 
Q 422 1150 422 2328 
Q 422 3509 836 4129 
Q 1250 4750 2034 4750 
z
" transform="scale(0.015625)"/>
       </defs>
       <use xlink:href="#DejaVuSans-30"/>
      </g>
     </g>
    </g>
    <g id="xtick_2">
     <g id="line2d_2">
      <g>
       <use xlink:href="#m5099d45b9f" x="172.682783" y="384.48" style="stroke: #000000; stroke-width: 0.8"/>
      </g>
     </g>
     <g id="text_2">
      <!-- 500 -->
      <g transform="translate(163.139033 399.078438)scale(0.1 -0.1)">
       <defs>
        <path id="DejaVuSans-35" d="M 691 4666 
L 3169 4666 
L 3169 4134 
L 1269 4134 
L 1269 2991 
Q 1406 3038 1543 3061 
Q 1681 3084 1819 3084 
Q 2600 3084 3056 2656 
Q 3513 2228 3513 1497 
Q 3513 744 3044 326 
Q 2575 -91 1722 -91 
Q 1428 -91 1123 -41 
Q 819 9 494 109 
L 494 744 
Q 775 591 1075 516 
Q 1375 441 1709 441 
Q 2250 441 2565 725 
Q 2881 1009 2881 1497 
Q 2881 1984 2565 2268 
Q 2250 2553 1709 2553 
Q 1456 2553 1204 2497 
Q 953 2441 691 2322 
L 691 4666 
z
" transform="scale(0.015625)"/>
       </defs>
       <use xlink:href="#DejaVuSans-35"/>
       <use xlink:href="#DejaVuSans-30" x="63.623047"/>
       <use xlink:href="#DejaVuSans-30" x="127.246094"/>
      </g>
     </g>
    </g>
    <g id="xtick_3">
     <g id="line2d_3">
      <g>
       <use xlink:href="#m5099d45b9f" x="253.074658" y="384.48" style="stroke: #000000; stroke-width: 0.8"/>
      </g>
     </g>
     <g id="text_3">
      <!-- 1000 -->
      <g transform="translate(240.349658 399.078438)scale(0.1 -0.1)">
       <defs>
        <path id="DejaVuSans-31" d="M 794 531 
L 1825 531 
L 1825 4091 
L 703 3866 
L 703 4441 
L 1819 4666 
L 2450 4666 
L 2450 531 
L 3481 531 
L 3481 0 
L 794 0 
L 794 531 
z
" transform="scale(0.015625)"/>
       </defs>
       <use xlink:href="#DejaVuSans-31"/>
       <use xlink:href="#DejaVuSans-30" x="63.623047"/>
       <use xlink:href="#DejaVuSans-30" x="127.246094"/>
       <use xlink:href="#DejaVuSans-30" x="190.869141"/>
      </g>
     </g>
    </g>
    <g id="xtick_4">
     <g id="line2d_4">
      <g>
       <use xlink:href="#m5099d45b9f" x="333.466532" y="384.48" style="stroke: #000000; stroke-width: 0.8"/>
      </g>
     </g>
     <g id="text_4">
      <!-- 1500 -->
      <g transform="translate(320.741532 399.078438)scale(0.1 -0.1)">
       <use xlink:href="#DejaVuSans-31"/>
       <use xlink:href="#DejaVuSans-35" x="63.623047"/>
       <use xlink:href="#DejaVuSans-30" x="127.246094"/>
       <use xlink:href="#DejaVuSans-30" x="190.869141"/>
      </g>
     </g>
    </g>
    <g id="xtick_5">
     <g id="line2d_5">
      <g>
       <use xlink:href="#m5099d45b9f" x="413.858407" y="384.48" style="stroke: #000000; stroke-width: 0.8"/>
      </g>
     </g>
     <g id="text_5">
      <!-- 2000 -->
      <g transform="translate(401.133407 399.078438)scale(0.1 -0.1)">
       <defs>
        <path id="DejaVuSans-32" d="M 1228 531 
L 3431 531 
L 3431 0 
L 469 0 
L 469 531 
Q 828 903 1448 1529 
Q 2069 2156 2228 2338 
Q 2531 2678 2651 2914 
Q 2772 3150 2772 3378 
Q 2772 3750 2511 3984 
Q 2250 4219 1831 4219 
Q 1534 4219 1204 4116 
Q 875 4013 500 3803 
L 500 4441 
Q 881 4594 1212 4672 
Q 1544 4750 1819 4750 
Q 2544 4750 2975 4387 
Q 3406 4025 3406 3419 
Q 3406 3131 3298 2873 
Q 3191 2616 2906 2266 
Q 2828 2175 2409 1742 
Q 1991 1309 1228 531 
z
" transform="scale(0.015625)"/>
       </defs>
       <use xlink:href="#DejaVuSans-32"/>
       <use xlink:href="#DejaVuSans-30" x="63.623047"/>
       <use xlink:href="#DejaVuSans-30" x="127.246094"/>
       <use xlink:href="#DejaVuSans-30" x="190.869141"/>
      </g>
     </g>
    </g>
    <g id="xtick_6">
     <g id="line2d_6">
      <g>
       <use xlink:href="#m5099d45b9f" x="494.250281" y="384.48" style="stroke: #000000; stroke-width: 0.8"/>
      </g>
     </g>
     <g id="text_6">
      <!-- 2500 -->
      <g transform="translate(481.525281 399.078438)scale(0.1 -0.1)">
       <use xlink:href="#DejaVuSans-32"/>
       <use xlink:href="#DejaVuSans-35" x="63.623047"/>
       <use xlink:href="#DejaVuSans-30" x="127.246094"/>
       <use xlink:href="#DejaVuSans-30" x="190.869141"/>
      </g>
     </g>
    </g>
    <g id="text_7">
     <!-- Epochs -->
     <g transform="translate(277.284375 412.756563)scale(0.1 -0.1)">
      <defs>
       <path id="DejaVuSans-45" d="M 628 4666 
L 3578 4666 
L 3578 4134 
L 1259 4134 
L 1259 2753 
L 3481 2753 
L 3481 2222 
L 1259 2222 
L 1259 531 
L 3634 531 
L 3634 0 
L 628 0 
L 628 4666 
z
" transform="scale(0.015625)"/>
       <path id="DejaVuSans-70" d="M 1159 525 
L 1159 -1331 
L 581 -1331 
L 581 3500 
L 1159 3500 
L 1159 2969 
Q 1341 3281 1617 3432 
Q 1894 3584 2278 3584 
Q 2916 3584 3314 3078 
Q 3713 2572 3713 1747 
Q 3713 922 3314 415 
Q 2916 -91 2278 -91 
Q 1894 -91 1617 61 
Q 1341 213 1159 525 
z
M 3116 1747 
Q 3116 2381 2855 2742 
Q 2594 3103 2138 3103 
Q 1681 3103 1420 2742 
Q 1159 2381 1159 1747 
Q 1159 1113 1420 752 
Q 1681 391 2138 391 
Q 2594 391 2855 752 
Q 3116 1113 3116 1747 
z
" transform="scale(0.015625)"/>
       <path id="DejaVuSans-6f" d="M 1959 3097 
Q 1497 3097 1228 2736 
Q 959 2375 959 1747 
Q 959 1119 1226 758 
Q 1494 397 1959 397 
Q 2419 397 2687 759 
Q 2956 1122 2956 1747 
Q 2956 2369 2687 2733 
Q 2419 3097 1959 3097 
z
M 1959 3584 
Q 2709 3584 3137 3096 
Q 3566 2609 3566 1747 
Q 3566 888 3137 398 
Q 2709 -91 1959 -91 
Q 1206 -91 779 398 
Q 353 888 353 1747 
Q 353 2609 779 3096 
Q 1206 3584 1959 3584 
z
" transform="scale(0.015625)"/>
       <path id="DejaVuSans-63" d="M 3122 3366 
L 3122 2828 
Q 2878 2963 2633 3030 
Q 2388 3097 2138 3097 
Q 1578 3097 1268 2742 
Q 959 2388 959 1747 
Q 959 1106 1268 751 
Q 1578 397 2138 397 
Q 2388 397 2633 464 
Q 2878 531 3122 666 
L 3122 134 
Q 2881 22 2623 -34 
Q 2366 -91 2075 -91 
Q 1284 -91 818 406 
Q 353 903 353 1747 
Q 353 2603 823 3093 
Q 1294 3584 2113 3584 
Q 2378 3584 2631 3529 
Q 2884 3475 3122 3366 
z
" transform="scale(0.015625)"/>
       <path id="DejaVuSans-68" d="M 3513 2113 
L 3513 0 
L 2938 0 
L 2938 2094 
Q 2938 2591 2744 2837 
Q 2550 3084 2163 3084 
Q 1697 3084 1428 2787 
Q 1159 2491 1159 1978 
L 1159 0 
L 581 0 
L 581 4863 
L 1159 4863 
L 1159 2956 
Q 1366 3272 1645 3428 
Q 1925 3584 2291 3584 
Q 2894 3584 3203 3211 
Q 3513 2838 3513 2113 
z
" transform="scale(0.015625)"/>
       <path id="DejaVuSans-73" d="M 2834 3397 
L 2834 2853 
Q 2591 2978 2328 3040 
Q 2066 3103 1784 3103 
Q 1356 3103 1142 2972 
Q 928 2841 928 2578 
Q 928 2378 1081 2264 
Q 1234 2150 1697 2047 
L 1894 2003 
Q 2506 1872 2764 1633 
Q 3022 1394 3022 966 
Q 3022 478 2636 193 
Q 2250 -91 1575 -91 
Q 1294 -91 989 -36 
Q 684 19 347 128 
L 347 722 
Q 666 556 975 473 
Q 1284 391 1588 391 
Q 1994 391 2212 530 
Q 2431 669 2431 922 
Q 2431 1156 2273 1281 
Q 2116 1406 1581 1522 
L 1381 1569 
Q 847 1681 609 1914 
Q 372 2147 372 2553 
Q 372 3047 722 3315 
Q 1072 3584 1716 3584 
Q 2034 3584 2315 3537 
Q 2597 3491 2834 3397 
z
" transform="scale(0.015625)"/>
      </defs>
      <use xlink:href="#DejaVuSans-45"/>
      <use xlink:href="#DejaVuSans-70" x="63.183594"/>
      <use xlink:href="#DejaVuSans-6f" x="126.660156"/>
      <use xlink:href="#DejaVuSans-63" x="187.841797"/>
      <use xlink:href="#DejaVuSans-68" x="242.822266"/>
      <use xlink:href="#DejaVuSans-73" x="306.201172"/>
     </g>
    </g>
   </g>
   <g id="matplotlib.axis_2">
    <g id="ytick_1">
     <g id="line2d_7">
      <defs>
       <path id="mef4f9e19b1" d="M 0 0 
L -3.5 0 
" style="stroke: #000000; stroke-width: 0.8"/>
      </defs>
      <g>
       <use xlink:href="#mef4f9e19b1" x="72" y="384.48" style="stroke: #000000; stroke-width: 0.8"/>
      </g>
     </g>
     <g id="text_8">
      <!-- 0.0 -->
      <g transform="translate(49.096875 388.279219)scale(0.1 -0.1)">
       <defs>
        <path id="DejaVuSans-2e" d="M 684 794 
L 1344 794 
L 1344 0 
L 684 0 
L 684 794 
z
" transform="scale(0.015625)"/>
       </defs>
       <use xlink:href="#DejaVuSans-30"/>
       <use xlink:href="#DejaVuSans-2e" x="63.623047"/>
       <use xlink:href="#DejaVuSans-30" x="95.410156"/>
      </g>
     </g>
    </g>
    <g id="ytick_2">
     <g id="line2d_8">
      <g>
       <use xlink:href="#mef4f9e19b1" x="72" y="317.952" style="stroke: #000000; stroke-width: 0.8"/>
      </g>
     </g>
     <g id="text_9">
      <!-- 0.2 -->
      <g transform="translate(49.096875 321.751219)scale(0.1 -0.1)">
       <use xlink:href="#DejaVuSans-30"/>
       <use xlink:href="#DejaVuSans-2e" x="63.623047"/>
       <use xlink:href="#DejaVuSans-32" x="95.410156"/>
      </g>
     </g>
    </g>
    <g id="ytick_3">
     <g id="line2d_9">
      <g>
       <use xlink:href="#mef4f9e19b1" x="72" y="251.424" style="stroke: #000000; stroke-width: 0.8"/>
      </g>
     </g>
     <g id="text_10">
      <!-- 0.4 -->
      <g transform="translate(49.096875 255.223219)scale(0.1 -0.1)">
       <defs>
        <path id="DejaVuSans-34" d="M 2419 4116 
L 825 1625 
L 2419 1625 
L 2419 4116 
z
M 2253 4666 
L 3047 4666 
L 3047 1625 
L 3713 1625 
L 3713 1100 
L 3047 1100 
L 3047 0 
L 2419 0 
L 2419 1100 
L 313 1100 
L 313 1709 
L 2253 4666 
z
" transform="scale(0.015625)"/>
       </defs>
       <use xlink:href="#DejaVuSans-30"/>
       <use xlink:href="#DejaVuSans-2e" x="63.623047"/>
       <use xlink:href="#DejaVuSans-34" x="95.410156"/>
      </g>
     </g>
    </g>
    <g id="ytick_4">
     <g id="line2d_10">
      <g>
       <use xlink:href="#mef4f9e19b1" x="72" y="184.896" style="stroke: #000000; stroke-width: 0.8"/>
      </g>
     </g>
     <g id="text_11">
      <!-- 0.6 -->
      <g transform="translate(49.096875 188.695219)scale(0.1 -0.1)">
       <defs>
        <path id="DejaVuSans-36" d="M 2113 2584 
Q 1688 2584 1439 2293 
Q 1191 2003 1191 1497 
Q 1191 994 1439 701 
Q 1688 409 2113 409 
Q 2538 409 2786 701 
Q 3034 994 3034 1497 
Q 3034 2003 2786 2293 
Q 2538 2584 2113 2584 
z
M 3366 4563 
L 3366 3988 
Q 3128 4100 2886 4159 
Q 2644 4219 2406 4219 
Q 1781 4219 1451 3797 
Q 1122 3375 1075 2522 
Q 1259 2794 1537 2939 
Q 1816 3084 2150 3084 
Q 2853 3084 3261 2657 
Q 3669 2231 3669 1497 
Q 3669 778 3244 343 
Q 2819 -91 2113 -91 
Q 1303 -91 875 529 
Q 447 1150 447 2328 
Q 447 3434 972 4092 
Q 1497 4750 2381 4750 
Q 2619 4750 2861 4703 
Q 3103 4656 3366 4563 
z
" transform="scale(0.015625)"/>
       </defs>
       <use xlink:href="#DejaVuSans-30"/>
       <use xlink:href="#DejaVuSans-2e" x="63.623047"/>
       <use xlink:href="#DejaVuSans-36" x="95.410156"/>
      </g>
     </g>
    </g>
    <g id="ytick_5">
     <g id="line2d_11">
      <g>
       <use xlink:href="#mef4f9e19b1" x="72" y="118.368" style="stroke: #000000; stroke-width: 0.8"/>
      </g>
     </g>
     <g id="text_12">
      <!-- 0.8 -->
      <g transform="translate(49.096875 122.167219)scale(0.1 -0.1)">
       <defs>
        <path id="DejaVuSans-38" d="M 2034 2216 
Q 1584 2216 1326 1975 
Q 1069 1734 1069 1313 
Q 1069 891 1326 650 
Q 1584 409 2034 409 
Q 2484 409 2743 651 
Q 3003 894 3003 1313 
Q 3003 1734 2745 1975 
Q 2488 2216 2034 2216 
z
M 1403 2484 
Q 997 2584 770 2862 
Q 544 3141 544 3541 
Q 544 4100 942 4425 
Q 1341 4750 2034 4750 
Q 2731 4750 3128 4425 
Q 3525 4100 3525 3541 
Q 3525 3141 3298 2862 
Q 3072 2584 2669 2484 
Q 3125 2378 3379 2068 
Q 3634 1759 3634 1313 
Q 3634 634 3220 271 
Q 2806 -91 2034 -91 
Q 1263 -91 848 271 
Q 434 634 434 1313 
Q 434 1759 690 2068 
Q 947 2378 1403 2484 
z
M 1172 3481 
Q 1172 3119 1398 2916 
Q 1625 2713 2034 2713 
Q 2441 2713 2670 2916 
Q 2900 3119 2900 3481 
Q 2900 3844 2670 4047 
Q 2441 4250 2034 4250 
Q 1625 4250 1398 4047 
Q 1172 3844 1172 3481 
z
" transform="scale(0.015625)"/>
       </defs>
       <use xlink:href="#DejaVuSans-30"/>
       <use xlink:href="#DejaVuSans-2e" x="63.623047"/>
       <use xlink:href="#DejaVuSans-38" x="95.410156"/>
      </g>
     </g>
    </g>
    <g id="ytick_6">
     <g id="line2d_12">
      <g>
       <use xlink:href="#mef4f9e19b1" x="72" y="51.84" style="stroke: #000000; stroke-width: 0.8"/>
      </g>
     </g>
     <g id="text_13">
      <!-- 1.0 -->
      <g transform="translate(49.096875 55.639219)scale(0.1 -0.1)">
       <use xlink:href="#DejaVuSans-31"/>
       <use xlink:href="#DejaVuSans-2e" x="63.623047"/>
       <use xlink:href="#DejaVuSans-30" x="95.410156"/>
      </g>
     </g>
    </g>
    <g id="text_14">
     <!-- AUCROC -->
     <g transform="translate(43.017187 239.632656)rotate(-90)scale(0.1 -0.1)">
      <defs>
       <path id="DejaVuSans-41" d="M 2188 4044 
L 1331 1722 
L 3047 1722 
L 2188 4044 
z
M 1831 4666 
L 2547 4666 
L 4325 0 
L 3669 0 
L 3244 1197 
L 1141 1197 
L 716 0 
L 50 0 
L 1831 4666 
z
" transform="scale(0.015625)"/>
       <path id="DejaVuSans-55" d="M 556 4666 
L 1191 4666 
L 1191 1831 
Q 1191 1081 1462 751 
Q 1734 422 2344 422 
Q 2950 422 3222 751 
Q 3494 1081 3494 1831 
L 3494 4666 
L 4128 4666 
L 4128 1753 
Q 4128 841 3676 375 
Q 3225 -91 2344 -91 
Q 1459 -91 1007 375 
Q 556 841 556 1753 
L 556 4666 
z
" transform="scale(0.015625)"/>
       <path id="DejaVuSans-43" d="M 4122 4306 
L 4122 3641 
Q 3803 3938 3442 4084 
Q 3081 4231 2675 4231 
Q 1875 4231 1450 3742 
Q 1025 3253 1025 2328 
Q 1025 1406 1450 917 
Q 1875 428 2675 428 
Q 3081 428 3442 575 
Q 3803 722 4122 1019 
L 4122 359 
Q 3791 134 3420 21 
Q 3050 -91 2638 -91 
Q 1578 -91 968 557 
Q 359 1206 359 2328 
Q 359 3453 968 4101 
Q 1578 4750 2638 4750 
Q 3056 4750 3426 4639 
Q 3797 4528 4122 4306 
z
" transform="scale(0.015625)"/>
       <path id="DejaVuSans-52" d="M 2841 2188 
Q 3044 2119 3236 1894 
Q 3428 1669 3622 1275 
L 4263 0 
L 3584 0 
L 2988 1197 
Q 2756 1666 2539 1819 
Q 2322 1972 1947 1972 
L 1259 1972 
L 1259 0 
L 628 0 
L 628 4666 
L 2053 4666 
Q 2853 4666 3247 4331 
Q 3641 3997 3641 3322 
Q 3641 2881 3436 2590 
Q 3231 2300 2841 2188 
z
M 1259 4147 
L 1259 2491 
L 2053 2491 
Q 2509 2491 2742 2702 
Q 2975 2913 2975 3322 
Q 2975 3731 2742 3939 
Q 2509 4147 2053 4147 
L 1259 4147 
z
" transform="scale(0.015625)"/>
       <path id="DejaVuSans-4f" d="M 2522 4238 
Q 1834 4238 1429 3725 
Q 1025 3213 1025 2328 
Q 1025 1447 1429 934 
Q 1834 422 2522 422 
Q 3209 422 3611 934 
Q 4013 1447 4013 2328 
Q 4013 3213 3611 3725 
Q 3209 4238 2522 4238 
z
M 2522 4750 
Q 3503 4750 4090 4092 
Q 4678 3434 4678 2328 
Q 4678 1225 4090 567 
Q 3503 -91 2522 -91 
Q 1538 -91 948 565 
Q 359 1222 359 2328 
Q 359 3434 948 4092 
Q 1538 4750 2522 4750 
z
" transform="scale(0.015625)"/>
      </defs>
      <use xlink:href="#DejaVuSans-41"/>
      <use xlink:href="#DejaVuSans-55" x="68.408203"/>
      <use xlink:href="#DejaVuSans-43" x="141.601562"/>
      <use xlink:href="#DejaVuSans-52" x="211.425781"/>
      <use xlink:href="#DejaVuSans-4f" x="280.908203"/>
      <use xlink:href="#DejaVuSans-43" x="359.619141"/>
     </g>
    </g>
   </g>
   <g id="line2d_13">
    <path d="M 92.290909 219.097286 
L 93.094828 218.945897 
L 95.024233 218.244192 
L 95.667368 217.846166 
L 96.149719 217.221183 
L 96.63207 216.130876 
L 97.435989 213.460877 
L 100.49088 202.515174 
L 101.294799 200.724042 
L 103.545772 196.63383 
L 104.34969 195.455975 
L 104.992825 194.847301 
L 106.118311 194.166744 
L 108.2085 193.125328 
L 109.012419 192.966621 
L 112.06731 192.639957 
L 112.549661 192.125426 
L 113.192796 190.961647 
L 114.800634 187.237634 
L 116.086904 184.423311 
L 116.730039 183.487533 
L 117.373174 182.940908 
L 118.981011 182.030178 
L 124.286875 179.035361 
L 125.251578 178.152692 
L 127.50255 175.670206 
L 128.145685 174.713951 
L 128.78882 173.251797 
L 129.753523 170.203551 
L 132.165279 161.606724 
L 132.969198 157.869029 
L 134.737819 148.082961 
L 136.024089 141.463077 
L 136.50644 140.056465 
L 136.828007 139.712835 
L 137.149575 139.796618 
L 137.631926 140.435835 
L 138.918196 142.932446 
L 141.812304 148.957214 
L 144.22406 153.967952 
L 144.867195 154.728272 
L 145.51033 155.060524 
L 146.957384 155.359821 
L 148.404437 155.523928 
L 149.208356 155.390204 
L 152.263247 154.536887 
L 152.745599 154.757222 
L 153.388734 155.418492 
L 154.835787 157.464979 
L 156.122057 159.170876 
L 156.604409 159.528831 
L 157.08676 159.609522 
L 157.729895 159.405103 
L 159.980867 158.197071 
L 164.322029 155.713809 
L 165.125947 154.875328 
L 166.573001 152.845406 
L 169.627892 148.579442 
L 172.200432 145.437244 
L 172.682783 145.104495 
L 173.165135 144.998598 
L 173.80827 145.112681 
L 178.470998 146.470478 
L 180.23962 146.71651 
L 180.882755 146.596774 
L 181.686673 146.161448 
L 184.419997 144.395868 
L 184.902348 144.401165 
L 185.3847 144.626878 
L 186.349402 145.419817 
L 188.278807 147.020908 
L 188.761158 147.146937 
L 189.24351 147.020908 
L 189.886645 146.569226 
L 193.263103 143.825691 
L 194.870941 143.195337 
L 196.800346 142.40071 
L 198.086616 141.555849 
L 200.498372 139.711517 
L 201.302291 138.806788 
L 202.910128 136.528011 
L 205.000317 133.674152 
L 206.286587 132.406093 
L 208.376776 130.382659 
L 209.019911 129.419064 
L 209.823829 127.757521 
L 212.396369 122.141126 
L 212.717937 121.905664 
L 213.039504 121.993393 
L 213.361072 122.404313 
L 213.843423 123.465533 
L 215.290477 127.579157 
L 217.702233 134.293877 
L 221.239476 143.149543 
L 225.419853 152.936501 
L 227.670826 160.194773 
L 228.635528 162.89189 
L 229.117879 163.63985 
L 229.439447 163.844462 
L 229.921798 163.829254 
L 230.725717 163.458823 
L 232.655122 162.522647 
L 233.298257 162.46416 
L 234.102175 162.65119 
L 236.674715 163.623626 
L 237.800202 164.291231 
L 240.694309 166.201816 
L 241.17666 166.236098 
L 241.819795 165.987816 
L 243.266849 164.982682 
L 244.392335 164.287349 
L 244.874687 164.244002 
L 245.357038 164.519034 
L 246.000173 165.317363 
L 248.89428 169.579014 
L 249.376632 169.742628 
L 249.858983 169.614201 
L 250.823685 168.986549 
L 252.592307 167.822289 
L 253.074658 167.721466 
L 253.557009 167.822289 
L 254.360928 168.293578 
L 256.772684 169.90303 
L 257.415819 170.020002 
L 258.219738 169.854053 
L 260.792278 169.089682 
L 261.274629 169.191279 
L 261.917764 169.583984 
L 263.525601 171.004665 
L 264.972655 172.188474 
L 265.776574 172.546298 
L 267.384411 172.875824 
L 268.509898 172.957107 
L 268.992249 172.737266 
L 269.4746 172.199046 
L 270.117735 171.0498 
L 272.690275 165.872555 
L 273.011843 165.641284 
L 273.33341 165.69977 
L 273.654978 166.048014 
L 274.137329 166.9692 
L 275.584383 170.562956 
L 276.709869 173.159974 
L 277.19222 173.825471 
L 277.513788 174.014517 
L 277.996139 173.971663 
L 278.800058 173.487247 
L 280.729463 172.20875 
L 281.211814 172.107927 
L 281.694165 172.20875 
L 282.498084 172.68004 
L 284.90984 174.289491 
L 285.552975 174.406464 
L 286.356894 174.240514 
L 288.929434 173.453229 
L 289.572569 173.570201 
L 290.376488 174.028581 
L 292.788244 175.605485 
L 293.270595 175.612523 
L 293.752946 175.342298 
L 294.396081 174.669989 
L 296.807837 171.846927 
L 297.290189 171.701748 
L 297.611756 171.817146 
L 298.094107 172.262261 
L 299.219594 173.813332 
L 300.827431 176.01595 
L 301.470566 176.525654 
L 301.952917 176.650857 
L 302.756836 176.586719 
L 305.168592 176.085818 
L 306.294079 175.590014 
L 308.866619 174.329404 
L 309.34897 174.347572 
L 309.831321 174.592592 
L 310.63524 175.342115 
L 312.886212 177.592953 
L 313.368564 177.712926 
L 313.850915 177.505224 
L 314.49405 176.859551 
L 317.06659 173.883147 
L 317.548941 173.743994 
L 318.031292 173.89873 
L 318.835211 174.52037 
L 322.533237 177.671126 
L 324.944994 179.306327 
L 325.427345 179.40715 
L 325.909696 179.306327 
L 326.713615 178.835037 
L 329.446938 177.03981 
L 330.250857 176.877354 
L 332.341046 176.855988 
L 334.109667 176.980718 
L 337.807693 177.480916 
L 339.415531 177.234264 
L 341.50572 176.946982 
L 342.631206 177.062524 
L 345.36453 177.622489 
L 346.490016 178.118294 
L 349.866475 179.791119 
L 351.474312 180.129228 
L 353.08215 180.346048 
L 353.725285 180.226312 
L 354.529203 179.790986 
L 357.423311 177.934959 
L 357.905662 177.921091 
L 358.548797 178.135012 
L 362.568391 179.947233 
L 368.838957 181.0944 
L 373.662469 181.878864 
L 374.787956 181.763322 
L 378.325198 181.250207 
L 381.219306 181.286072 
L 382.023224 181.484817 
L 383.309494 182.118564 
L 385.399683 183.16673 
L 386.203602 183.285508 
L 387.329088 183.140536 
L 390.223196 182.717921 
L 395.207492 182.43911 
L 397.619248 182.100688 
L 398.423167 182.234412 
L 400.352572 182.906999 
L 402.281977 183.506423 
L 405.0153 183.995508 
L 405.819219 183.979267 
L 406.623138 183.703077 
L 409.838813 182.250176 
L 410.481948 182.380159 
L 411.607434 182.937283 
L 414.01919 184.127665 
L 415.30546 184.427167 
L 417.878 184.803172 
L 419.003487 184.68763 
L 421.576027 184.337982 
L 422.219162 184.51344 
L 423.183864 185.10548 
L 425.756404 186.806004 
L 426.399539 186.92574 
L 427.364241 186.823684 
L 430.579916 186.367745 
L 433.634808 186.403983 
L 434.59951 186.611282 
L 439.74459 188.141881 
L 442.477914 188.536232 
L 446.015156 188.551385 
L 450.03475 188.458557 
L 451.160236 188.138313 
L 453.732776 187.320776 
L 454.375911 187.379262 
L 455.17983 187.712507 
L 458.556289 189.339886 
L 460.646477 189.750351 
L 466.595476 190.729463 
L 470.61507 190.950378 
L 472.705259 191.678978 
L 473.991529 192.048531 
L 474.795447 192.061022 
L 476.724852 191.740296 
L 478.011122 191.604688 
L 478.815041 191.738412 
L 480.744446 192.410055 
L 482.030716 192.779608 
L 482.834635 192.792099 
L 484.76404 192.470901 
L 486.211094 192.299597 
L 487.33658 192.415139 
L 495.214983 193.665579 
L 498.109091 193.668923 
L 498.109091 193.668923 
" clip-path="url(#pfc157b6f34)" style="fill: none; stroke: #ff0000; stroke-linecap: square"/>
   </g>
   <g id="line2d_14">
    <path d="M 92.290909 196.026382 
L 92.451693 195.72197 
L 92.77326 194.287545 
L 93.255612 190.674883 
L 94.863449 175.470777 
L 95.988935 165.58663 
L 96.63207 161.902002 
L 97.114422 160.288782 
L 97.91834 158.586617 
L 99.365394 155.684547 
L 99.847745 153.886187 
L 100.330097 150.570478 
L 100.812448 145.288723 
L 101.77715 130.993446 
L 103.706555 101.66503 
L 104.188906 97.683016 
L 104.34969 97.189411 
L 104.510474 97.156641 
L 104.671258 97.570527 
L 104.992825 99.559528 
L 105.475176 104.474929 
L 108.369284 137.875233 
L 108.851635 140.176491 
L 109.173203 140.929419 
L 109.655554 141.434284 
L 110.459473 141.790681 
L 112.871229 142.566115 
L 115.765336 143.261108 
L 116.247688 143.727385 
L 116.730039 144.585513 
L 117.373174 146.260908 
L 121.0712 156.882069 
L 124.286875 164.00486 
L 124.93001 166.614539 
L 126.055496 172.471867 
L 128.78882 186.811857 
L 130.718225 195.040906 
L 132.004495 200.045268 
L 132.486846 201.281496 
L 132.969198 201.887582 
L 133.451549 202.007337 
L 134.255468 201.79612 
L 136.024089 201.261216 
L 136.50644 201.30459 
L 137.149575 201.631695 
L 138.275061 202.588691 
L 140.043682 204.044908 
L 140.526034 204.170937 
L 141.008385 204.044908 
L 141.65152 203.593226 
L 144.706411 201.083452 
L 145.51033 200.817609 
L 147.922086 200.394362 
L 148.726005 200.406854 
L 149.690707 200.663521 
L 155.478922 202.780029 
L 156.122057 203.133835 
L 156.604409 203.590649 
L 157.247544 204.545943 
L 158.694597 207.354068 
L 159.980867 209.745834 
L 160.463219 210.26133 
L 160.784786 210.34906 
L 161.106354 210.225043 
L 161.588705 209.747572 
L 162.874975 207.94023 
L 164.322029 206.017359 
L 164.965164 205.54947 
L 165.608299 205.392903 
L 167.216136 205.368985 
L 168.180838 205.457067 
L 168.823973 205.741117 
L 169.627892 206.438967 
L 172.039648 209.089148 
L 173.004351 210.429135 
L 174.451405 212.969721 
L 176.702377 216.877729 
L 177.827863 218.284257 
L 179.757268 220.300129 
L 180.23962 220.484056 
L 180.561187 220.310115 
L 180.882755 219.812982 
L 181.365106 218.481328 
L 182.329808 214.717584 
L 184.259213 207.077112 
L 184.741565 205.934669 
L 185.063132 205.569115 
L 185.3847 205.488502 
L 185.867051 205.709945 
L 186.992537 206.682605 
L 188.600375 208.277249 
L 189.565077 209.6296 
L 192.137617 213.865361 
L 193.10232 215.803533 
L 194.710157 219.782796 
L 196.157211 223.208646 
L 196.639562 223.798056 
L 196.96113 223.827299 
L 197.282697 223.55564 
L 197.765048 222.733992 
L 199.051318 219.783736 
L 200.498372 216.567782 
L 201.141507 215.573517 
L 201.945426 214.798933 
L 204.357182 212.800556 
L 204.839533 211.980713 
L 205.482668 210.310576 
L 206.768938 206.009463 
L 208.215992 201.373415 
L 208.537559 200.768451 
L 208.859127 200.550193 
L 209.180694 200.768451 
L 209.502262 201.373415 
L 210.145397 203.267727 
L 212.717937 211.52279 
L 213.200288 212.322948 
L 213.682639 212.71874 
L 214.486558 212.965386 
L 216.255179 213.223887 
L 216.898314 213.083102 
L 217.541449 212.639025 
L 218.827719 211.302209 
L 221.721827 207.992231 
L 224.455151 204.715084 
L 224.937502 204.507382 
L 225.419853 204.627354 
L 226.062988 205.156055 
L 228.796312 207.815746 
L 229.278663 207.908772 
L 229.921798 207.733993 
L 231.690419 206.797153 
L 233.137473 205.884514 
L 234.74531 204.488732 
L 236.353148 203.16099 
L 236.835499 203.053573 
L 237.157067 203.170545 
L 237.639418 203.628879 
L 238.443337 204.817142 
L 240.372742 208.083886 
L 241.015877 209.578506 
L 241.819795 212.161661 
L 244.713903 222.321021 
L 245.03547 222.70325 
L 245.357038 222.671938 
L 245.678605 222.274273 
L 246.32174 220.830578 
L 249.055064 213.87214 
L 249.698199 212.919054 
L 250.662902 211.948046 
L 253.878577 208.869523 
L 256.772684 205.877473 
L 257.415819 205.585042 
L 258.058954 205.565018 
L 259.827575 205.868065 
L 260.792278 206.153317 
L 261.435413 206.56272 
L 262.400115 207.505677 
L 264.490304 209.628393 
L 264.972655 209.776221 
L 265.294223 209.659249 
L 265.776574 209.160504 
L 266.580493 207.844265 
L 268.831465 203.964015 
L 269.4746 203.320668 
L 270.117735 203.027558 
L 271.725573 202.709281 
L 272.690275 202.665946 
L 273.172626 202.859572 
L 273.654978 203.28005 
L 274.61968 204.551595 
L 277.19222 208.104806 
L 278.156923 208.978921 
L 280.247111 210.447734 
L 280.729463 210.568384 
L 281.05103 210.449406 
L 281.372598 210.113111 
L 281.854949 209.214663 
L 282.819651 206.67783 
L 284.588273 201.979099 
L 285.070624 201.317243 
L 285.392191 201.273378 
L 285.713759 201.558277 
L 286.19611 202.438134 
L 287.48238 205.612443 
L 288.607866 208.240752 
L 289.090218 208.877481 
L 289.411785 208.96521 
L 289.733353 208.774326 
L 290.215704 208.104519 
L 291.501974 205.617595 
L 292.466676 203.864475 
L 292.949028 203.430006 
L 293.270595 203.515141 
L 293.592163 203.956381 
L 294.074514 205.180414 
L 295.2 209.09524 
L 296.647054 213.945963 
L 296.968621 214.542798 
L 297.290189 214.702044 
L 297.611756 214.36734 
L 297.933324 213.595046 
L 298.576459 211.276024 
L 300.827431 202.431177 
L 301.309782 201.507567 
L 301.63135 201.386919 
L 301.952917 201.622449 
L 302.435269 202.403696 
L 305.168592 207.706569 
L 305.49016 207.882027 
L 305.811727 207.856884 
L 306.294079 207.543063 
L 307.419565 206.375447 
L 308.705835 205.134429 
L 309.188186 205.01026 
L 309.509754 205.156476 
L 309.992105 205.71929 
L 310.796024 207.172625 
L 312.725429 210.823266 
L 313.20778 211.291444 
L 313.529347 211.320687 
L 313.850915 211.115895 
L 314.333266 210.486583 
L 315.619536 208.218608 
L 316.905806 206.090039 
L 317.388157 205.650411 
L 317.870509 205.563664 
L 318.35286 205.749261 
L 319.63913 206.637809 
L 321.086184 207.576406 
L 321.729319 207.751864 
L 322.533237 207.71105 
L 325.266561 207.389343 
L 325.909696 207.620524 
L 327.035182 208.364645 
L 328.482236 209.332728 
L 328.964587 209.388431 
L 329.286155 209.169912 
L 329.607722 208.672779 
L 330.090073 207.421946 
L 331.054776 203.971631 
L 332.984181 197.00181 
L 333.466532 195.972302 
L 333.7881 195.653747 
L 334.109667 195.599781 
L 334.592018 195.836738 
L 335.878288 196.960995 
L 337.003775 198.133799 
L 337.64691 199.192077 
L 338.450828 201.086237 
L 341.344936 208.48292 
L 341.827287 209.12476 
L 342.309638 209.452093 
L 343.113557 209.676423 
L 345.203746 209.96801 
L 345.846881 209.851037 
L 346.811583 209.412497 
L 349.705691 207.962182 
L 350.991961 207.662679 
L 353.08215 207.190662 
L 353.725285 206.78964 
L 354.529203 205.945575 
L 357.262527 202.714856 
L 357.744878 202.496545 
L 358.22723 202.52314 
L 359.031148 202.87059 
L 361.603688 204.130296 
L 362.568391 204.259507 
L 365.301714 204.42994 
L 365.944849 204.839343 
L 366.748768 205.715289 
L 368.999741 208.347665 
L 369.321308 208.45064 
L 369.642876 208.319555 
L 369.964443 207.924264 
L 370.446794 206.914232 
L 371.572281 203.771952 
L 373.019334 199.858741 
L 373.501686 199.18851 
L 373.823253 199.159267 
L 374.144821 199.475504 
L 374.627172 200.425377 
L 375.913442 203.826983 
L 376.878144 206.219172 
L 377.199712 206.703668 
L 377.521279 206.820821 
L 377.842847 206.469904 
L 378.164414 205.650917 
L 378.807549 203.052017 
L 381.219306 192.28566 
L 381.540873 191.901038 
L 381.701657 191.980247 
L 382.023224 192.710242 
L 382.505576 195.002119 
L 383.470278 201.468353 
L 385.238899 213.295328 
L 385.721251 215.247465 
L 386.042818 215.884051 
L 386.364386 216.042341 
L 386.685953 215.868103 
L 387.329088 215.079135 
L 391.509465 209.328837 
L 392.795735 207.80132 
L 393.117303 207.598097 
L 393.43887 207.628352 
L 393.760438 207.994431 
L 394.082005 208.739589 
L 394.564357 210.455767 
L 395.850627 216.345837 
L 397.136897 222.045827 
L 397.619248 223.380418 
L 397.940815 223.731334 
L 398.262383 223.636471 
L 398.58395 223.191756 
L 399.227085 221.767267 
L 400.995707 217.143509 
L 401.638842 214.847076 
L 402.281977 211.538328 
L 403.407463 204.118088 
L 405.336868 191.515787 
L 405.819219 189.682641 
L 406.140787 189.139528 
L 406.462354 189.084887 
L 406.783922 189.36985 
L 407.427057 190.38965 
L 409.356462 194.039769 
L 410.16038 196.164407 
L 411.285867 200.034011 
L 413.376055 207.253686 
L 413.858407 208.226727 
L 414.179974 208.521783 
L 414.501542 208.562426 
L 414.983893 208.317711 
L 416.270163 207.195802 
L 417.395649 206.306709 
L 417.878 206.149418 
L 418.360352 206.218979 
L 419.003487 206.567007 
L 421.093675 207.91454 
L 421.415243 207.895973 
L 421.73681 207.641256 
L 422.058378 207.085638 
L 422.540729 205.706665 
L 423.505431 201.924212 
L 425.113269 195.569581 
L 425.434836 194.813594 
L 425.756404 194.608621 
L 425.917188 194.765312 
L 426.238755 195.624293 
L 426.721106 198.055243 
L 427.685809 204.714114 
L 429.615214 218.011596 
L 430.258349 220.818932 
L 430.7407 222.068433 
L 431.544619 223.416672 
L 432.991673 225.395508 
L 433.31324 225.613482 
L 433.634808 225.548452 
L 433.956375 225.076363 
L 434.277943 224.144785 
L 434.760294 222.022033 
L 436.046564 214.768245 
L 437.654401 206.005796 
L 438.297536 203.783323 
L 438.779888 202.811968 
L 439.583806 201.789624 
L 441.03086 200.291686 
L 441.513211 200.072334 
L 441.834779 200.191979 
L 442.156346 200.601382 
L 442.638698 201.740827 
L 443.6034 205.006308 
L 445.372021 211.146345 
L 445.854373 212.191153 
L 446.17594 212.483584 
L 446.497508 212.441679 
L 446.819075 212.137386 
L 447.46221 211.127505 
L 449.873966 207.054457 
L 450.517101 206.51141 
L 451.32102 206.237426 
L 453.732776 205.652691 
L 454.375911 205.184802 
L 455.340614 204.088346 
L 457.913154 200.985109 
L 458.717072 200.428167 
L 460.003342 199.912907 
L 461.128829 199.593196 
L 461.450396 199.644917 
L 461.771964 199.887665 
L 462.093531 200.405178 
L 462.575882 201.754341 
L 463.379801 205.02642 
L 465.46999 213.948305 
L 465.791557 214.637726 
L 465.952341 214.7693 
L 466.113125 214.736912 
L 466.434692 214.169837 
L 466.917044 212.267419 
L 467.881746 206.808171 
L 469.971935 194.83367 
L 470.775854 191.594884 
L 472.062124 187.689945 
L 473.348394 184.171798 
L 473.830745 183.435599 
L 474.152312 183.4163 
L 474.47388 183.845002 
L 474.956231 185.195305 
L 475.920934 189.00834 
L 477.850339 196.709109 
L 478.493474 198.463694 
L 479.136609 199.595634 
L 480.744446 201.693316 
L 482.030716 203.134255 
L 482.673851 203.535277 
L 483.638554 203.798818 
L 485.407175 204.042124 
L 485.889526 203.890249 
L 486.371877 203.423867 
L 487.015012 202.287539 
L 488.62285 198.572847 
L 489.587552 196.535559 
L 490.069903 196.010219 
L 490.391471 196.010219 
L 490.713038 196.299977 
L 491.19539 197.133434 
L 492.48166 200.085679 
L 493.607146 202.528293 
L 494.089497 203.12461 
L 494.411065 203.212339 
L 494.732632 203.043745 
L 495.214983 202.438049 
L 496.501253 200.178568 
L 497.62674 198.37593 
L 498.109091 198.047848 
L 498.109091 198.047848 
" clip-path="url(#pfc157b6f34)" style="fill: none; stroke: #0000ff; stroke-linecap: square"/>
   </g>
   <g id="line2d_15">
    <path d="M 92.290909 197.212158 
L 92.451693 196.729694 
L 92.77326 194.456266 
L 93.255612 188.730538 
L 94.863449 164.636695 
L 95.988935 149.124965 
L 96.471287 144.72416 
L 96.953638 142.160155 
L 97.435989 140.788798 
L 98.239908 139.337216 
L 99.365394 137.258915 
L 99.847745 135.642753 
L 100.330097 132.664867 
L 100.812448 127.92258 
L 101.77715 115.088987 
L 103.706555 88.915048 
L 104.028123 86.399672 
L 104.34969 85.49218 
L 104.510474 85.722598 
L 104.832041 87.483432 
L 105.314393 92.548288 
L 106.600663 110.494905 
L 107.886933 127.816515 
L 108.369284 132.339969 
L 108.851635 134.922582 
L 109.173203 135.759681 
L 109.655554 136.308144 
L 110.459473 136.67313 
L 112.549661 137.559474 
L 113.996715 138.546175 
L 115.765336 139.947517 
L 116.247688 140.582345 
L 116.890823 141.885802 
L 118.016309 144.981833 
L 120.267281 151.263643 
L 121.0712 152.856584 
L 122.518254 155.038977 
L 124.126091 157.538666 
L 124.93001 159.268158 
L 126.537848 163.54838 
L 128.467253 168.48741 
L 129.271171 169.941431 
L 131.200576 172.775986 
L 132.004495 173.746958 
L 132.486846 174.011127 
L 132.808414 173.989203 
L 133.290765 173.702432 
L 134.255468 172.729517 
L 136.50644 170.13522 
L 137.79271 168.166093 
L 140.043682 164.681311 
L 140.526034 164.298151 
L 141.008385 164.242665 
L 141.490736 164.440071 
L 142.777006 165.332248 
L 144.706411 166.611061 
L 146.153465 167.203494 
L 148.243654 167.8726 
L 148.886789 167.8726 
L 149.851491 167.609519 
L 152.745599 166.685579 
L 154.031869 166.620021 
L 156.925976 166.700478 
L 160.624002 167.118084 
L 161.267137 166.834307 
L 162.714191 165.829441 
L 168.502406 161.751514 
L 169.306325 161.539905 
L 170.753378 161.501636 
L 173.165135 161.60442 
L 176.702377 162.046959 
L 177.506296 161.770769 
L 179.757268 160.559073 
L 181.043538 159.701125 
L 182.972943 157.993035 
L 184.259213 156.928712 
L 184.902348 156.675242 
L 185.545483 156.71703 
L 186.992537 157.202452 
L 188.439591 157.637523 
L 189.082726 157.637523 
L 190.047428 157.374442 
L 192.941536 156.450502 
L 194.227806 156.384944 
L 200.659156 156.450502 
L 201.784642 156.741604 
L 204.357182 157.534325 
L 204.839533 157.428428 
L 205.321884 157.095679 
L 206.125803 156.19994 
L 208.376776 153.524547 
L 208.859127 153.285583 
L 209.341478 153.349088 
L 209.984613 153.774135 
L 215.451261 158.25131 
L 216.415963 158.821021 
L 216.898314 158.890582 
L 217.380666 158.733291 
L 218.184584 158.129983 
L 220.435557 156.227939 
L 220.917908 156.070649 
L 221.400259 156.14021 
L 222.043394 156.488238 
L 225.259069 158.566973 
L 226.384556 158.839003 
L 228.635528 159.158163 
L 229.278663 159.041191 
L 230.243366 158.602651 
L 232.815905 157.335809 
L 233.619824 157.270415 
L 235.066878 157.495334 
L 237.478634 158.036765 
L 240.855093 159.083568 
L 241.498228 158.969359 
L 242.46293 158.516385 
L 244.231552 157.640722 
L 244.713903 157.634253 
L 245.03547 157.811287 
L 245.517822 158.395111 
L 246.32174 159.936748 
L 248.572713 164.547357 
L 249.055064 165.006134 
L 249.376632 165.043221 
L 249.858983 164.754293 
L 250.662902 163.836809 
L 252.913874 161.174668 
L 253.557009 160.773646 
L 254.521712 160.510105 
L 256.772684 160.189529 
L 257.415819 160.306501 
L 258.380522 160.745041 
L 265.294223 164.326094 
L 266.258925 164.420343 
L 268.509898 164.358705 
L 269.153033 164.100948 
L 269.796168 163.539899 
L 271.082438 161.969413 
L 272.529491 160.299762 
L 273.011843 160.111523 
L 273.33341 160.228496 
L 273.815761 160.767651 
L 274.61968 162.211866 
L 276.709869 166.127544 
L 277.19222 166.561116 
L 277.513788 166.60969 
L 277.996139 166.374263 
L 278.800058 165.591842 
L 280.568679 163.799808 
L 281.05103 163.604662 
L 281.372598 163.663148 
L 281.854949 164.033753 
L 282.658868 165.0758 
L 285.070624 168.345608 
L 285.713759 168.793971 
L 286.517678 169.039562 
L 290.215704 169.897645 
L 292.788244 170.69371 
L 293.270595 170.587813 
L 293.752946 170.255064 
L 294.556865 169.359325 
L 296.807837 166.714236 
L 297.290189 166.537796 
L 297.611756 166.618207 
L 298.094107 166.992707 
L 299.219594 168.344823 
L 300.827431 170.239911 
L 301.309782 170.541399 
L 301.792134 170.590828 
L 302.435269 170.373091 
L 305.650944 168.881051 
L 306.77643 168.813723 
L 308.866619 168.888069 
L 309.509754 169.124777 
L 310.313672 169.706318 
L 312.886212 171.816915 
L 313.368564 171.817896 
L 313.850915 171.465998 
L 314.49405 170.599698 
L 317.06659 166.712264 
L 317.548941 166.437233 
L 318.031292 166.48058 
L 318.674427 166.836203 
L 321.086184 168.624192 
L 322.21167 169.7012 
L 325.105777 172.664536 
L 325.588129 172.874277 
L 326.231264 172.859939 
L 327.517533 172.438451 
L 329.286155 171.894854 
L 330.090073 171.882362 
L 332.019478 172.203561 
L 333.466532 172.374864 
L 334.592018 172.259322 
L 337.486126 171.875857 
L 338.450828 172.097563 
L 342.631206 173.401636 
L 345.525313 173.837018 
L 346.6508 173.721476 
L 350.188042 173.208361 
L 354.689987 172.992233 
L 357.262527 172.617837 
L 357.905662 172.734809 
L 358.870365 173.173349 
L 362.407607 174.947554 
L 365.462498 175.998089 
L 366.587984 176.11639 
L 369.642876 176.076663 
L 371.572281 175.772193 
L 373.340902 175.565059 
L 373.984037 175.740517 
L 374.948739 176.332557 
L 377.360496 177.921961 
L 377.842847 177.995823 
L 378.485982 177.837062 
L 379.933036 177.088549 
L 381.380089 176.413108 
L 382.023224 176.354622 
L 382.827143 176.541652 
L 387.329088 178.17009 
L 389.740844 178.954557 
L 390.86633 179.043716 
L 394.403573 179.173948 
L 399.548653 180.100117 
L 401.478058 180.359394 
L 402.121193 180.242422 
L 403.085895 179.803882 
L 405.819219 178.45555 
L 406.783922 178.326339 
L 409.195678 178.364266 
L 409.838813 178.548378 
L 410.481948 178.949127 
L 412.089785 180.36296 
L 413.697623 181.692474 
L 414.501542 182.050298 
L 416.109379 182.380402 
L 417.395649 182.508974 
L 417.878 182.377871 
L 418.521135 181.933794 
L 419.807405 180.597152 
L 421.415243 179.009358 
L 421.897594 178.826862 
L 422.379945 178.921628 
L 423.02308 179.359993 
L 426.077971 181.867932 
L 426.88189 182.133776 
L 429.45443 182.584736 
L 430.419133 182.584736 
L 432.348538 182.265001 
L 433.634808 182.121837 
L 434.277943 182.238809 
L 435.242645 182.677349 
L 437.975969 184.025681 
L 438.940671 184.154892 
L 442.31713 184.327724 
L 443.924968 184.866792 
L 445.854373 185.468838 
L 446.658291 185.48133 
L 448.587696 185.160131 
L 450.03475 184.988828 
L 451.160236 185.10437 
L 454.697479 185.617485 
L 457.430802 185.588711 
L 458.234721 185.377101 
L 459.199424 184.800934 
L 461.61118 183.190056 
L 462.093531 183.120495 
L 462.575882 183.277786 
L 463.379801 183.881094 
L 465.791557 185.882407 
L 466.273909 186.004418 
L 466.917044 185.873108 
L 468.203314 185.217637 
L 470.293502 184.202182 
L 471.579772 183.902679 
L 473.991529 183.562842 
L 474.795447 183.696565 
L 476.724852 184.369153 
L 478.654257 184.968577 
L 481.709149 185.524195 
L 483.156202 185.623733 
L 486.854228 185.753641 
L 489.90912 186.345497 
L 491.034606 186.8084 
L 494.089497 188.297401 
L 494.732632 188.300165 
L 495.697335 188.022652 
L 497.948307 187.318534 
L 498.109091 187.307046 
L 498.109091 187.307046 
" clip-path="url(#pfc157b6f34)" style="fill: none; stroke: #008000; stroke-linecap: square"/>
   </g>
   <g id="patch_3">
    <path d="M 72 384.48 
L 72 51.84 
" style="fill: none; stroke: #000000; stroke-width: 0.8; stroke-linejoin: miter; stroke-linecap: square"/>
   </g>
   <g id="patch_4">
    <path d="M 518.4 384.48 
L 518.4 51.84 
" style="fill: none; stroke: #000000; stroke-width: 0.8; stroke-linejoin: miter; stroke-linecap: square"/>
   </g>
   <g id="patch_5">
    <path d="M 72 384.48 
L 518.4 384.48 
" style="fill: none; stroke: #000000; stroke-width: 0.8; stroke-linejoin: miter; stroke-linecap: square"/>
   </g>
   <g id="patch_6">
    <path d="M 72 51.84 
L 518.4 51.84 
" style="fill: none; stroke: #000000; stroke-width: 0.8; stroke-linejoin: miter; stroke-linecap: square"/>
   </g>
  </g>
  <g id="legend_1">
   <g id="patch_7">
    <path d="M 486.192187 52.034375 
L 569 52.034375 
Q 571 52.034375 571 50.034375 
L 571 7 
Q 571 5 569 5 
L 486.192187 5 
Q 484.192187 5 484.192187 7 
L 484.192187 50.034375 
Q 484.192187 52.034375 486.192187 52.034375 
z
" style="fill: #ffffff; opacity: 0.8; stroke: #cccccc; stroke-linejoin: miter"/>
   </g>
   <g id="line2d_16">
    <path d="M 488.192187 13.098437 
L 498.192187 13.098437 
L 508.192187 13.098437 
" style="fill: none; stroke: #ff0000; stroke-linecap: square"/>
   </g>
   <g id="text_15">
    <!-- Attention -->
    <g transform="translate(516.192188 16.598437)scale(0.1 -0.1)">
     <defs>
      <path id="DejaVuSans-74" d="M 1172 4494 
L 1172 3500 
L 2356 3500 
L 2356 3053 
L 1172 3053 
L 1172 1153 
Q 1172 725 1289 603 
Q 1406 481 1766 481 
L 2356 481 
L 2356 0 
L 1766 0 
Q 1100 0 847 248 
Q 594 497 594 1153 
L 594 3053 
L 172 3053 
L 172 3500 
L 594 3500 
L 594 4494 
L 1172 4494 
z
" transform="scale(0.015625)"/>
      <path id="DejaVuSans-65" d="M 3597 1894 
L 3597 1613 
L 953 1613 
Q 991 1019 1311 708 
Q 1631 397 2203 397 
Q 2534 397 2845 478 
Q 3156 559 3463 722 
L 3463 178 
Q 3153 47 2828 -22 
Q 2503 -91 2169 -91 
Q 1331 -91 842 396 
Q 353 884 353 1716 
Q 353 2575 817 3079 
Q 1281 3584 2069 3584 
Q 2775 3584 3186 3129 
Q 3597 2675 3597 1894 
z
M 3022 2063 
Q 3016 2534 2758 2815 
Q 2500 3097 2075 3097 
Q 1594 3097 1305 2825 
Q 1016 2553 972 2059 
L 3022 2063 
z
" transform="scale(0.015625)"/>
      <path id="DejaVuSans-6e" d="M 3513 2113 
L 3513 0 
L 2938 0 
L 2938 2094 
Q 2938 2591 2744 2837 
Q 2550 3084 2163 3084 
Q 1697 3084 1428 2787 
Q 1159 2491 1159 1978 
L 1159 0 
L 581 0 
L 581 3500 
L 1159 3500 
L 1159 2956 
Q 1366 3272 1645 3428 
Q 1925 3584 2291 3584 
Q 2894 3584 3203 3211 
Q 3513 2838 3513 2113 
z
" transform="scale(0.015625)"/>
      <path id="DejaVuSans-69" d="M 603 3500 
L 1178 3500 
L 1178 0 
L 603 0 
L 603 3500 
z
M 603 4863 
L 1178 4863 
L 1178 4134 
L 603 4134 
L 603 4863 
z
" transform="scale(0.015625)"/>
     </defs>
     <use xlink:href="#DejaVuSans-41"/>
     <use xlink:href="#DejaVuSans-74" x="66.658203"/>
     <use xlink:href="#DejaVuSans-74" x="105.867188"/>
     <use xlink:href="#DejaVuSans-65" x="145.076172"/>
     <use xlink:href="#DejaVuSans-6e" x="206.599609"/>
     <use xlink:href="#DejaVuSans-74" x="269.978516"/>
     <use xlink:href="#DejaVuSans-69" x="309.1875"/>
     <use xlink:href="#DejaVuSans-6f" x="336.970703"/>
     <use xlink:href="#DejaVuSans-6e" x="398.152344"/>
    </g>
   </g>
   <g id="line2d_17">
    <path d="M 488.192187 27.776563 
L 498.192187 27.776563 
L 508.192187 27.776563 
" style="fill: none; stroke: #0000ff; stroke-linecap: square"/>
   </g>
   <g id="text_16">
    <!-- Additive -->
    <g transform="translate(516.192188 31.276563)scale(0.1 -0.1)">
     <defs>
      <path id="DejaVuSans-64" d="M 2906 2969 
L 2906 4863 
L 3481 4863 
L 3481 0 
L 2906 0 
L 2906 525 
Q 2725 213 2448 61 
Q 2172 -91 1784 -91 
Q 1150 -91 751 415 
Q 353 922 353 1747 
Q 353 2572 751 3078 
Q 1150 3584 1784 3584 
Q 2172 3584 2448 3432 
Q 2725 3281 2906 2969 
z
M 947 1747 
Q 947 1113 1208 752 
Q 1469 391 1925 391 
Q 2381 391 2643 752 
Q 2906 1113 2906 1747 
Q 2906 2381 2643 2742 
Q 2381 3103 1925 3103 
Q 1469 3103 1208 2742 
Q 947 2381 947 1747 
z
" transform="scale(0.015625)"/>
      <path id="DejaVuSans-76" d="M 191 3500 
L 800 3500 
L 1894 563 
L 2988 3500 
L 3597 3500 
L 2284 0 
L 1503 0 
L 191 3500 
z
" transform="scale(0.015625)"/>
     </defs>
     <use xlink:href="#DejaVuSans-41"/>
     <use xlink:href="#DejaVuSans-64" x="66.658203"/>
     <use xlink:href="#DejaVuSans-64" x="130.134766"/>
     <use xlink:href="#DejaVuSans-69" x="193.611328"/>
     <use xlink:href="#DejaVuSans-74" x="221.394531"/>
     <use xlink:href="#DejaVuSans-69" x="260.603516"/>
     <use xlink:href="#DejaVuSans-76" x="288.386719"/>
     <use xlink:href="#DejaVuSans-65" x="347.566406"/>
    </g>
   </g>
   <g id="line2d_18">
    <path d="M 488.192187 42.454687 
L 498.192187 42.454687 
L 508.192187 42.454687 
" style="fill: none; stroke: #008000; stroke-linecap: square"/>
   </g>
   <g id="text_17">
    <!-- Combined -->
    <g transform="translate(516.192188 45.954687)scale(0.1 -0.1)">
     <defs>
      <path id="DejaVuSans-6d" d="M 3328 2828 
Q 3544 3216 3844 3400 
Q 4144 3584 4550 3584 
Q 5097 3584 5394 3201 
Q 5691 2819 5691 2113 
L 5691 0 
L 5113 0 
L 5113 2094 
Q 5113 2597 4934 2840 
Q 4756 3084 4391 3084 
Q 3944 3084 3684 2787 
Q 3425 2491 3425 1978 
L 3425 0 
L 2847 0 
L 2847 2094 
Q 2847 2600 2669 2842 
Q 2491 3084 2119 3084 
Q 1678 3084 1418 2786 
Q 1159 2488 1159 1978 
L 1159 0 
L 581 0 
L 581 3500 
L 1159 3500 
L 1159 2956 
Q 1356 3278 1631 3431 
Q 1906 3584 2284 3584 
Q 2666 3584 2933 3390 
Q 3200 3197 3328 2828 
z
" transform="scale(0.015625)"/>
      <path id="DejaVuSans-62" d="M 3116 1747 
Q 3116 2381 2855 2742 
Q 2594 3103 2138 3103 
Q 1681 3103 1420 2742 
Q 1159 2381 1159 1747 
Q 1159 1113 1420 752 
Q 1681 391 2138 391 
Q 2594 391 2855 752 
Q 3116 1113 3116 1747 
z
M 1159 2969 
Q 1341 3281 1617 3432 
Q 1894 3584 2278 3584 
Q 2916 3584 3314 3078 
Q 3713 2572 3713 1747 
Q 3713 922 3314 415 
Q 2916 -91 2278 -91 
Q 1894 -91 1617 61 
Q 1341 213 1159 525 
L 1159 0 
L 581 0 
L 581 4863 
L 1159 4863 
L 1159 2969 
z
" transform="scale(0.015625)"/>
     </defs>
     <use xlink:href="#DejaVuSans-43"/>
     <use xlink:href="#DejaVuSans-6f" x="69.824219"/>
     <use xlink:href="#DejaVuSans-6d" x="131.005859"/>
     <use xlink:href="#DejaVuSans-62" x="228.417969"/>
     <use xlink:href="#DejaVuSans-69" x="291.894531"/>
     <use xlink:href="#DejaVuSans-6e" x="319.677734"/>
     <use xlink:href="#DejaVuSans-65" x="383.056641"/>
     <use xlink:href="#DejaVuSans-64" x="444.580078"/>
    </g>
   </g>
  </g>
 </g>
 <defs>
  <clipPath id="pfc157b6f34">
   <rect x="72" y="51.84" width="446.4" height="332.64"/>
  </clipPath>
 </defs>
</svg>
