<?xml version="1.0" encoding="UTF-8" standalone="no"?>
<!DOCTYPE svg PUBLIC "-//W3C//DTD SVG 1.1//EN"
 "http://www.w3.org/Graphics/SVG/1.1/DTD/svg11.dtd">
<!-- Generated by graphviz version 8.0.5 (20230430.1635)
 -->
<!-- Pages: 1 -->
<svg width="236pt" height="220pt"
 viewBox="0.00 0.00 236.00 219.50" xmlns="http://www.w3.org/2000/svg" xmlns:xlink="http://www.w3.org/1999/xlink">
<g id="graph0" class="graph" transform="scale(1 1) rotate(0) translate(4 215.5)">
<polygon fill="white" stroke="none" points="-4,4 -4,-215.5 232,-215.5 232,4 -4,4"/>
<!-- N1 -->
<g id="node1" class="node">
<title>N1</title>
<ellipse fill="none" stroke="black" cx="27" cy="-105.75" rx="27" ry="18"/>
<text text-anchor="middle" x="27" y="-100.33" font-family="Times New Roman,serif" font-size="14.00">N1</text>
</g>
<!-- N1&#45;&gt;N1 -->
<g id="edge1" class="edge">
<title>N1&#45;&gt;N1</title>
<path fill="none" stroke="black" d="M51.53,-113.85C62.51,-114.62 72,-111.92 72,-105.75 72,-101.8 68.1,-99.27 62.42,-98.17"/>
<polygon fill="black" stroke="black" points="62.69,-94.63 52.53,-97.65 62.36,-101.62 62.69,-94.63"/>
<text text-anchor="middle" x="84" y="-100.33" font-family="Times New Roman,serif" font-size="14.00">0.50</text>
</g>
<!-- N3 -->
<g id="node3" class="node">
<title>N3</title>
<ellipse fill="none" stroke="black" cx="132" cy="-18" rx="27" ry="18"/>
<text text-anchor="middle" x="132" y="-12.57" font-family="Times New Roman,serif" font-size="14.00">N3</text>
</g>
<!-- N1&#45;&gt;N3 -->
<g id="edge4" class="edge">
<title>N1&#45;&gt;N3</title>
<path fill="none" stroke="black" d="M43.41,-91.35C60.41,-77.46 87.21,-55.58 106.89,-39.51"/>
<polygon fill="black" stroke="black" points="108.83,-41.62 114.36,-32.59 104.4,-36.2 108.83,-41.62"/>
<text text-anchor="middle" x="101" y="-56.45" font-family="Times New Roman,serif" font-size="14.00">0.25</text>
</g>
<!-- N2 -->
<g id="node2" class="node">
<title>N2</title>
<ellipse fill="none" stroke="black" cx="79" cy="-193.5" rx="27" ry="18"/>
<text text-anchor="middle" x="79" y="-188.07" font-family="Times New Roman,serif" font-size="14.00">N2</text>
</g>
<!-- N2&#45;&gt;N1 -->
<g id="edge2" class="edge">
<title>N2&#45;&gt;N1</title>
<path fill="none" stroke="black" d="M69.22,-176.37C61.67,-163.91 51.07,-146.44 42.38,-132.12"/>
<polygon fill="black" stroke="black" points="44.91,-130.54 36.74,-123.81 38.93,-134.17 44.91,-130.54"/>
<text text-anchor="middle" x="70" y="-144.2" font-family="Times New Roman,serif" font-size="14.00">0.50</text>
</g>
<!-- N2&#45;&gt;N2 -->
<g id="edge3" class="edge">
<title>N2&#45;&gt;N2</title>
<path fill="none" stroke="black" d="M103.53,-201.6C114.51,-202.37 124,-199.67 124,-193.5 124,-189.55 120.1,-187.02 114.42,-185.92"/>
<polygon fill="black" stroke="black" points="114.69,-182.38 104.53,-185.4 114.36,-189.37 114.69,-182.38"/>
<text text-anchor="middle" x="136" y="-188.07" font-family="Times New Roman,serif" font-size="14.00">1.00</text>
</g>
<!-- N2&#45;&gt;N3 -->
<g id="edge5" class="edge">
<title>N2&#45;&gt;N3</title>
<path fill="none" stroke="black" d="M85.93,-175.73C91.5,-161.92 99.29,-141.75 105,-123.75 113.18,-97.95 120.7,-68.01 125.72,-46.76"/>
<polygon fill="black" stroke="black" points="129.32,-47.75 128.17,-37.22 122.5,-46.16 129.32,-47.75"/>
<text text-anchor="middle" x="128" y="-100.33" font-family="Times New Roman,serif" font-size="14.00">0.25</text>
</g>
<!-- E1 -->
<g id="node4" class="node">
<title>E1</title>
<ellipse fill="none" stroke="black" cx="201" cy="-105.75" rx="27" ry="18"/>
<text text-anchor="middle" x="201" y="-100.33" font-family="Times New Roman,serif" font-size="14.00">E1</text>
</g>
<!-- E1&#45;&gt;N3 -->
<g id="edge6" class="edge">
<title>E1&#45;&gt;N3</title>
<path fill="none" stroke="black" d="M188.66,-89.42C178.23,-76.45 163.11,-57.66 151.11,-42.74"/>
<polygon fill="black" stroke="black" points="153.46,-41.08 144.46,-35.49 148,-45.47 153.46,-41.08"/>
<text text-anchor="middle" x="184" y="-56.45" font-family="Times New Roman,serif" font-size="14.00">0.50</text>
</g>
</g>
</svg>
