<?xml version="1.0" encoding="utf-8" standalone="no"?>
<!DOCTYPE svg PUBLIC "-//W3C//DTD SVG 1.1//EN"
  "http://www.w3.org/Graphics/SVG/1.1/DTD/svg11.dtd">
<svg xmlns:xlink="http://www.w3.org/1999/xlink" width="576pt" height="432pt" viewBox="0 0 576 432" xmlns="http://www.w3.org/2000/svg" version="1.1">
 <metadata>
  <rdf:RDF xmlns:dc="http://purl.org/dc/elements/1.1/" xmlns:cc="http://creativecommons.org/ns#" xmlns:rdf="http://www.w3.org/1999/02/22-rdf-syntax-ns#">
   <cc:Work>
    <dc:type rdf:resource="http://purl.org/dc/dcmitype/StillImage"/>
    <dc:date>2023-07-04T16:41:54.133678</dc:date>
    <dc:format>image/svg+xml</dc:format>
    <dc:creator>
     <cc:Agent>
      <dc:title>Matplotlib v3.5.1, https://matplotlib.org/</dc:title>
     </cc:Agent>
    </dc:creator>
   </cc:Work>
  </rdf:RDF>
 </metadata>
 <defs>
  <style type="text/css">*{stroke-linejoin: round; stroke-linecap: butt}</style>
 </defs>
 <g id="figure_1">
  <g id="patch_1">
   <path d="M 0 432 
L 576 432 
L 576 0 
L 0 0 
z
" style="fill: #ffffff"/>
  </g>
  <g id="axes_1">
   <g id="patch_2">
    <path d="M 72 149.675294 
L 518.4 149.675294 
L 518.4 51.84 
L 72 51.84 
z
" style="fill: #ffffff"/>
   </g>
   <g id="matplotlib.axis_1">
    <g id="xtick_1">
     <g id="line2d_1">
      <defs>
       <path id="m6d46b076b9" d="M 0 0 
L 0 3.5 
" style="stroke: #000000; stroke-width: 0.8"/>
      </defs>
      <g>
       <use xlink:href="#m6d46b076b9" x="92.290909" y="149.675294" style="stroke: #000000; stroke-width: 0.8"/>
      </g>
     </g>
    </g>
    <g id="xtick_2">
     <g id="line2d_2">
      <g>
       <use xlink:href="#m6d46b076b9" x="160.153481" y="149.675294" style="stroke: #000000; stroke-width: 0.8"/>
      </g>
     </g>
    </g>
    <g id="xtick_3">
     <g id="line2d_3">
      <g>
       <use xlink:href="#m6d46b076b9" x="228.016054" y="149.675294" style="stroke: #000000; stroke-width: 0.8"/>
      </g>
     </g>
    </g>
    <g id="xtick_4">
     <g id="line2d_4">
      <g>
       <use xlink:href="#m6d46b076b9" x="295.878626" y="149.675294" style="stroke: #000000; stroke-width: 0.8"/>
      </g>
     </g>
    </g>
    <g id="xtick_5">
     <g id="line2d_5">
      <g>
       <use xlink:href="#m6d46b076b9" x="363.741198" y="149.675294" style="stroke: #000000; stroke-width: 0.8"/>
      </g>
     </g>
    </g>
    <g id="xtick_6">
     <g id="line2d_6">
      <g>
       <use xlink:href="#m6d46b076b9" x="431.60377" y="149.675294" style="stroke: #000000; stroke-width: 0.8"/>
      </g>
     </g>
    </g>
    <g id="xtick_7">
     <g id="line2d_7">
      <g>
       <use xlink:href="#m6d46b076b9" x="499.466342" y="149.675294" style="stroke: #000000; stroke-width: 0.8"/>
      </g>
     </g>
    </g>
   </g>
   <g id="matplotlib.axis_2">
    <g id="ytick_1">
     <g id="line2d_8">
      <defs>
       <path id="m9d809a4c66" d="M 0 0 
L -3.5 0 
" style="stroke: #000000; stroke-width: 0.8"/>
      </defs>
      <g>
       <use xlink:href="#m9d809a4c66" x="72" y="149.675294" style="stroke: #000000; stroke-width: 0.8"/>
      </g>
     </g>
     <g id="text_1">
      <!-- −2 -->
      <g transform="translate(50.257812 153.474513)scale(0.1 -0.1)">
       <defs>
        <path id="DejaVuSans-2212" d="M 678 2272 
L 4684 2272 
L 4684 1741 
L 678 1741 
L 678 2272 
z
" transform="scale(0.015625)"/>
        <path id="DejaVuSans-32" d="M 1228 531 
L 3431 531 
L 3431 0 
L 469 0 
L 469 531 
Q 828 903 1448 1529 
Q 2069 2156 2228 2338 
Q 2531 2678 2651 2914 
Q 2772 3150 2772 3378 
Q 2772 3750 2511 3984 
Q 2250 4219 1831 4219 
Q 1534 4219 1204 4116 
Q 875 4013 500 3803 
L 500 4441 
Q 881 4594 1212 4672 
Q 1544 4750 1819 4750 
Q 2544 4750 2975 4387 
Q 3406 4025 3406 3419 
Q 3406 3131 3298 2873 
Q 3191 2616 2906 2266 
Q 2828 2175 2409 1742 
Q 1991 1309 1228 531 
z
" transform="scale(0.015625)"/>
       </defs>
       <use xlink:href="#DejaVuSans-2212"/>
       <use xlink:href="#DejaVuSans-32" x="83.789062"/>
      </g>
     </g>
    </g>
    <g id="ytick_2">
     <g id="line2d_9">
      <g>
       <use xlink:href="#m9d809a4c66" x="72" y="125.216471" style="stroke: #000000; stroke-width: 0.8"/>
      </g>
     </g>
     <g id="text_2">
      <!-- −1 -->
      <g transform="translate(50.257812 129.015689)scale(0.1 -0.1)">
       <defs>
        <path id="DejaVuSans-31" d="M 794 531 
L 1825 531 
L 1825 4091 
L 703 3866 
L 703 4441 
L 1819 4666 
L 2450 4666 
L 2450 531 
L 3481 531 
L 3481 0 
L 794 0 
L 794 531 
z
" transform="scale(0.015625)"/>
       </defs>
       <use xlink:href="#DejaVuSans-2212"/>
       <use xlink:href="#DejaVuSans-31" x="83.789062"/>
      </g>
     </g>
    </g>
    <g id="ytick_3">
     <g id="line2d_10">
      <g>
       <use xlink:href="#m9d809a4c66" x="72" y="100.757647" style="stroke: #000000; stroke-width: 0.8"/>
      </g>
     </g>
     <g id="text_3">
      <!-- 0 -->
      <g transform="translate(58.6375 104.556866)scale(0.1 -0.1)">
       <defs>
        <path id="DejaVuSans-30" d="M 2034 4250 
Q 1547 4250 1301 3770 
Q 1056 3291 1056 2328 
Q 1056 1369 1301 889 
Q 1547 409 2034 409 
Q 2525 409 2770 889 
Q 3016 1369 3016 2328 
Q 3016 3291 2770 3770 
Q 2525 4250 2034 4250 
z
M 2034 4750 
Q 2819 4750 3233 4129 
Q 3647 3509 3647 2328 
Q 3647 1150 3233 529 
Q 2819 -91 2034 -91 
Q 1250 -91 836 529 
Q 422 1150 422 2328 
Q 422 3509 836 4129 
Q 1250 4750 2034 4750 
z
" transform="scale(0.015625)"/>
       </defs>
       <use xlink:href="#DejaVuSans-30"/>
      </g>
     </g>
    </g>
    <g id="ytick_4">
     <g id="line2d_11">
      <g>
       <use xlink:href="#m9d809a4c66" x="72" y="76.298824" style="stroke: #000000; stroke-width: 0.8"/>
      </g>
     </g>
     <g id="text_4">
      <!-- 1 -->
      <g transform="translate(58.6375 80.098042)scale(0.1 -0.1)">
       <use xlink:href="#DejaVuSans-31"/>
      </g>
     </g>
    </g>
    <g id="ytick_5">
     <g id="line2d_12">
      <g>
       <use xlink:href="#m9d809a4c66" x="72" y="51.84" style="stroke: #000000; stroke-width: 0.8"/>
      </g>
     </g>
     <g id="text_5">
      <!-- 2 -->
      <g transform="translate(58.6375 55.639219)scale(0.1 -0.1)">
       <use xlink:href="#DejaVuSans-32"/>
      </g>
     </g>
    </g>
    <g id="text_6">
     <!-- N1 -->
     <g transform="translate(44.178125 107.679522)rotate(-90)scale(0.1 -0.1)">
      <defs>
       <path id="DejaVuSans-4e" d="M 628 4666 
L 1478 4666 
L 3547 763 
L 3547 4666 
L 4159 4666 
L 4159 0 
L 3309 0 
L 1241 3903 
L 1241 0 
L 628 0 
L 628 4666 
z
" transform="scale(0.015625)"/>
      </defs>
      <use xlink:href="#DejaVuSans-4e"/>
      <use xlink:href="#DejaVuSans-31" x="74.804688"/>
     </g>
    </g>
   </g>
   <g id="line2d_13">
    <path d="M 92.290909 118.320999 
L 93.648161 135.801496 
L 95.005412 59.486893 
L 96.362663 105.422495 
L 97.719915 119.489166 
L 99.077166 82.215906 
L 100.434418 88.973026 
L 101.791669 188.30327 
L 103.148921 108.778146 
L 104.506172 78.470193 
L 105.863424 90.463086 
L 107.220675 86.607329 
L 108.577926 94.830263 
L 109.935178 78.216563 
L 111.292429 123.069207 
L 112.649681 90.11525 
L 114.006932 76.722797 
L 115.364184 114.736457 
L 116.721435 105.841114 
L 118.078687 123.023353 
L 119.435938 132.82901 
L 120.793189 113.908919 
L 122.150441 90.947048 
L 123.507692 114.060946 
L 124.864944 100.785386 
L 126.222195 81.438149 
L 127.579447 126.507146 
L 128.936698 131.813186 
L 130.29395 63.237032 
L 131.651201 143.755376 
L 133.008452 85.49859 
L 134.365704 122.051799 
L 135.722955 91.327201 
L 137.080207 124.606453 
L 138.437458 111.905648 
L 139.79471 95.339048 
L 141.151961 65.740582 
L 142.509213 78.512417 
L 143.866464 116.200687 
L 145.223715 104.027155 
L 146.580967 81.5976 
L 147.938218 120.710253 
L 149.29547 128.651056 
L 150.652721 85.065455 
L 152.009973 56.913946 
L 153.367224 138.200298 
L 154.724476 95.962432 
L 156.081727 92.245716 
L 157.438978 91.843344 
L 158.79623 78.557167 
L 160.153481 130.505486 
L 161.510733 82.444983 
L 162.867984 90.025983 
L 164.225236 112.389083 
L 165.582487 124.284072 
L 166.939739 67.322794 
L 168.29699 58.100081 
L 169.654241 114.38298 
L 171.011493 125.947083 
L 172.368744 88.389559 
L 173.725996 59.085016 
L 175.083247 91.938213 
L 176.440499 86.006477 
L 177.79775 160.877376 
L 179.155002 110.737045 
L 180.512253 126.912343 
L 181.869504 85.342124 
L 183.226756 112.932107 
L 184.584007 104.197407 
L 185.941259 70.342841 
L 187.29851 75.391242 
L 188.655762 99.80339 
L 190.013013 98.853023 
L 191.370265 124.906436 
L 192.727516 125.971502 
L 194.084767 109.597729 
L 195.442019 85.740758 
L 196.79927 87.061983 
L 198.156522 111.046745 
L 199.513773 112.911458 
L 200.871025 82.572668 
L 202.228276 87.801001 
L 203.585528 125.387839 
L 204.942779 134.28892 
L 206.30003 84.038808 
L 207.657282 114.711489 
L 209.014533 150.742914 
L 210.371785 134.224491 
L 211.729036 82.355333 
L 213.086288 89.120218 
L 214.443539 110.918729 
L 215.800791 113.346423 
L 217.158042 88.469078 
L 218.515293 24.444773 
L 219.872545 97.03422 
L 221.229796 48.4033 
L 222.587048 80.69831 
L 223.944299 75.847578 
L 225.301551 157.54293 
L 226.658802 135.095265 
L 228.016054 86.204536 
L 229.373305 114.068582 
L 230.730556 117.220514 
L 232.087808 63.649265 
L 233.445059 87.762056 
L 234.802311 85.950419 
L 236.159562 83.223235 
L 237.516814 126.021366 
L 238.874065 116.914155 
L 240.231317 90.646089 
L 241.588568 73.586998 
L 242.945819 115.50437 
L 244.303071 161.78368 
L 245.660322 100.698886 
L 247.017574 127.097036 
L 248.374825 81.674765 
L 249.732077 75.484933 
L 251.089328 79.377435 
L 252.44658 92.538238 
L 253.803831 104.18041 
L 255.161082 95.08793 
L 256.518334 105.494293 
L 257.875585 93.894141 
L 259.232837 88.855403 
L 260.590088 110.485399 
L 261.94734 103.518604 
L 263.304591 151.311164 
L 264.661843 124.643039 
L 266.019094 69.529676 
L 267.376345 124.764977 
L 268.733597 131.208824 
L 270.090848 80.245791 
L 271.4481 56.937108 
L 272.805351 93.88409 
L 274.162603 68.261504 
L 275.519854 113.595762 
L 276.877106 89.534951 
L 278.234357 100.436077 
L 279.591608 141.67285 
L 280.94886 77.442785 
L 282.306111 148.77134 
L 283.663363 102.877792 
L 285.020614 74.929681 
L 286.377866 83.878812 
L 287.735117 135.431902 
L 289.092369 120.404702 
L 290.44962 113.988183 
L 291.806871 75.996924 
L 293.164123 83.059848 
L 294.521374 96.804555 
L 295.878626 129.135541 
L 297.235877 133.692046 
L 298.593129 89.925796 
L 299.95038 71.741301 
L 301.307631 117.935481 
L 302.664883 150.484727 
L 304.022134 66.941526 
L 305.379386 100.336024 
L 306.736637 117.842091 
L 308.093889 106.157389 
L 309.45114 42.670688 
L 310.808392 133.758906 
L 312.165643 96.455789 
L 313.522894 92.148252 
L 314.880146 110.954367 
L 317.594649 71.692101 
L 318.9519 124.950725 
L 320.309152 112.314053 
L 321.666403 63.45672 
L 323.023655 136.918009 
L 324.380906 71.814182 
L 325.738157 87.880523 
L 327.095409 107.655708 
L 328.45266 119.84193 
L 329.809912 117.419506 
L 331.167163 76.085757 
L 332.524415 104.388576 
L 333.881666 95.820833 
L 335.238918 111.600329 
L 336.596169 102.899929 
L 337.95342 61.489677 
L 339.310672 84.525726 
L 340.667923 117.990753 
L 342.025175 109.052184 
L 343.382426 66.780832 
L 344.739678 82.593313 
L 346.096929 101.564964 
L 347.454181 154.917873 
L 348.811432 106.896696 
L 350.168683 91.571617 
L 351.525935 113.709081 
L 352.883186 121.935536 
L 354.240438 117.586002 
L 355.597689 108.442034 
L 356.954941 113.268844 
L 358.312192 115.200588 
L 359.669444 81.92282 
L 361.026695 65.000716 
L 362.383946 83.637309 
L 363.741198 114.721527 
L 365.098449 82.795525 
L 366.455701 47.183346 
L 367.812952 105.77408 
L 369.170204 59.908675 
L 370.527455 85.256019 
L 371.884707 93.367337 
L 373.241958 100.674692 
L 374.599209 145.238258 
L 375.956461 101.898806 
L 377.313712 151.692412 
L 378.670964 79.804876 
L 380.028215 116.804053 
L 381.385467 70.206808 
L 382.742718 110.628741 
L 384.09997 105.118426 
L 385.457221 79.178452 
L 386.814472 82.77986 
L 388.171724 97.196572 
L 389.528975 92.524147 
L 390.886227 84.703679 
L 392.243478 71.862388 
L 393.60073 107.08688 
L 394.957981 88.626026 
L 396.315233 62.305198 
L 397.672484 115.660715 
L 399.029735 115.023996 
L 400.386987 91.968626 
L 401.744238 121.573383 
L 403.10149 73.474206 
L 404.458741 73.471891 
L 405.815993 67.538581 
L 407.173244 142.926542 
L 408.530496 108.168827 
L 409.887747 120.187274 
L 411.244998 94.850569 
L 412.60225 65.938023 
L 415.316753 137.030016 
L 416.674004 116.444555 
L 418.031256 79.712562 
L 419.388507 76.324179 
L 422.10301 132.357545 
L 423.460261 105.949325 
L 424.817513 75.617414 
L 426.174764 68.276094 
L 427.532016 115.370384 
L 428.889267 96.749229 
L 430.246519 87.590127 
L 431.60377 83.26964 
L 432.961022 88.156818 
L 434.318273 132.176537 
L 435.675524 127.203457 
L 437.032776 94.423424 
L 438.390027 108.834023 
L 439.747279 101.429054 
L 441.10453 96.290696 
L 442.461782 82.041702 
L 443.819033 101.27313 
L 445.176285 102.831751 
L 446.533536 113.93797 
L 447.890787 95.338714 
L 449.248039 114.456711 
L 450.60529 108.847718 
L 451.962542 88.459618 
L 453.319793 99.828962 
L 454.677045 99.724289 
L 456.034296 110.818557 
L 457.391548 132.249987 
L 458.748799 98.64764 
L 460.10605 73.397077 
L 461.463302 102.210574 
L 462.820553 55.115571 
L 464.177805 125.641061 
L 465.535056 92.432197 
L 466.892308 76.077322 
L 468.249559 113.362497 
L 469.606811 128.411043 
L 470.964062 65.15552 
L 472.321313 77.008371 
L 473.678565 107.09513 
L 475.035816 115.218336 
L 476.393068 120.147212 
L 477.750319 59.349262 
L 479.107571 91.785836 
L 480.464822 107.315177 
L 481.822074 93.699595 
L 483.179325 116.130001 
L 484.536576 130.753366 
L 485.893828 150.953703 
L 487.251079 107.735925 
L 488.608331 133.373436 
L 489.965582 93.058888 
L 491.322834 130.065722 
L 492.680085 81.412856 
L 494.037337 67.792493 
L 495.394588 144.515988 
L 496.751839 126.170724 
L 498.109091 58.488702 
L 498.109091 58.488702 
" clip-path="url(#pd81c6f8172)" style="fill: none; stroke: #1f77b4; stroke-linecap: square"/>
   </g>
   <g id="line2d_14">
    <path d="M 92.290909 133.281031 
L 93.648161 123.525893 
L 95.005412 77.373861 
L 96.362663 105.868267 
L 97.719915 113.403835 
L 99.077166 88.872921 
L 100.434418 91.383333 
L 101.791669 130.890194 
L 103.148921 103.289957 
L 104.506172 93.882728 
L 105.863424 85.746721 
L 107.220675 104.045552 
L 108.577926 116.511625 
L 109.935178 103.607271 
L 111.292429 121.201345 
L 112.649681 104.193882 
L 114.006932 78.768827 
L 115.364184 97.965257 
L 116.721435 100.695212 
L 118.078687 89.345938 
L 119.435938 119.405736 
L 120.793189 78.583647 
L 122.150441 96.679564 
L 123.507692 81.447467 
L 124.864944 101.483386 
L 126.222195 92.779976 
L 127.579447 96.226961 
L 128.936698 97.847602 
L 130.29395 88.781405 
L 131.651201 99.866885 
L 133.008452 97.604255 
L 134.365704 110.862818 
L 135.722955 108.999766 
L 137.080207 92.309973 
L 138.437458 97.054296 
L 139.79471 94.250378 
L 141.151961 83.482171 
L 142.509213 97.941669 
L 143.866464 123.176483 
L 145.223715 97.489164 
L 146.580967 92.505304 
L 147.938218 91.619731 
L 149.29547 99.393422 
L 150.652721 97.378546 
L 152.009973 74.422264 
L 153.367224 129.053172 
L 154.724476 75.845511 
L 156.081727 101.659215 
L 157.438978 95.084339 
L 158.79623 96.973361 
L 160.153481 122.220677 
L 161.510733 99.018386 
L 162.867984 100.046746 
L 164.225236 124.619349 
L 165.582487 98.81352 
L 166.939739 83.63922 
L 168.29699 80.418057 
L 169.654241 97.159329 
L 171.011493 109.445006 
L 172.368744 85.965581 
L 173.725996 89.545748 
L 175.083247 99.156279 
L 176.440499 87.320138 
L 177.79775 148.528099 
L 179.155002 110.98022 
L 180.512253 123.77995 
L 181.869504 107.48568 
L 183.226756 97.996678 
L 184.584007 103.348813 
L 185.941259 98.826399 
L 187.29851 89.64178 
L 188.655762 110.599783 
L 190.013013 98.343206 
L 191.370265 103.470687 
L 192.727516 110.776021 
L 194.084767 93.400795 
L 195.442019 87.110387 
L 196.79927 114.300331 
L 198.156522 108.641558 
L 199.513773 104.540445 
L 200.871025 91.194103 
L 202.228276 94.098531 
L 203.585528 97.986348 
L 204.942779 105.694601 
L 206.30003 76.335392 
L 207.657282 104.648342 
L 209.014533 160.044075 
L 210.371785 111.130529 
L 211.729036 110.373434 
L 213.086288 85.077807 
L 214.443539 98.063899 
L 215.800791 118.023768 
L 217.158042 107.005778 
L 218.515293 81.620887 
L 219.872545 98.094666 
L 221.229796 43.326497 
L 222.587048 94.512711 
L 223.944299 63.722812 
L 225.301551 109.521343 
L 226.658802 128.006467 
L 228.016054 107.689057 
L 229.373305 104.166617 
L 230.730556 109.772433 
L 232.087808 101.933613 
L 233.445059 98.138314 
L 234.802311 92.353332 
L 236.159562 99.015693 
L 237.516814 129.881073 
L 238.874065 122.750635 
L 240.231317 84.693696 
L 241.588568 82.955455 
L 242.945819 120.665931 
L 244.303071 125.642276 
L 245.660322 91.701038 
L 247.017574 112.484253 
L 248.374825 92.910777 
L 249.732077 94.570725 
L 251.089328 100.076377 
L 252.44658 99.849035 
L 253.803831 116.88378 
L 255.161082 104.256251 
L 256.518334 114.724617 
L 257.875585 102.770417 
L 259.232837 88.573734 
L 260.590088 97.863048 
L 261.94734 102.651977 
L 263.304591 107.971103 
L 264.661843 121.966746 
L 266.019094 115.550539 
L 267.376345 96.732165 
L 268.733597 125.982121 
L 270.090848 96.194663 
L 271.4481 78.33864 
L 272.805351 97.675699 
L 274.162603 79.494615 
L 275.519854 96.588634 
L 276.877106 90.081961 
L 278.234357 81.391586 
L 279.591608 118.395529 
L 280.94886 92.430927 
L 282.306111 111.346686 
L 283.663363 97.637622 
L 285.020614 106.90951 
L 286.377866 91.017031 
L 287.735117 128.623514 
L 289.092369 128.311719 
L 290.44962 92.121768 
L 291.806871 75.979765 
L 293.164123 83.956069 
L 294.521374 97.919583 
L 295.878626 98.021635 
L 297.235877 101.953641 
L 298.593129 92.704621 
L 299.95038 96.843639 
L 301.307631 108.607521 
L 302.664883 96.445704 
L 304.022134 95.935931 
L 305.379386 114.050349 
L 306.736637 104.106237 
L 308.093889 97.100721 
L 309.45114 78.539347 
L 310.808392 116.897853 
L 312.165643 77.343709 
L 313.522894 103.958697 
L 314.880146 96.329974 
L 316.237397 104.063616 
L 317.594649 84.59789 
L 318.9519 98.069545 
L 320.309152 99.61395 
L 321.666403 73.642522 
L 323.023655 86.921257 
L 324.380906 84.384313 
L 325.738157 106.910597 
L 327.095409 110.879576 
L 328.45266 99.710952 
L 331.167163 76.230523 
L 332.524415 100.058209 
L 333.881666 104.362005 
L 335.238918 121.390162 
L 336.596169 96.228992 
L 337.95342 90.095417 
L 339.310672 96.885903 
L 340.667923 115.42576 
L 342.025175 106.242148 
L 343.382426 82.363634 
L 344.739678 107.088638 
L 346.096929 105.195309 
L 347.454181 130.064142 
L 348.811432 101.63687 
L 350.168683 107.473785 
L 351.525935 90.194556 
L 352.883186 128.601594 
L 354.240438 103.633891 
L 355.597689 74.80571 
L 356.954941 85.230535 
L 358.312192 110.543479 
L 359.669444 82.01506 
L 361.026695 80.514861 
L 362.383946 98.742152 
L 363.741198 93.448316 
L 365.098449 119.31734 
L 366.455701 80.463303 
L 367.812952 98.219124 
L 369.170204 61.565707 
L 370.527455 93.024564 
L 371.884707 90.829038 
L 373.241958 103.169763 
L 374.599209 122.965939 
L 375.956461 92.243613 
L 377.313712 113.20139 
L 378.670964 108.554137 
L 380.028215 105.61078 
L 381.385467 97.717701 
L 382.742718 103.334271 
L 384.09997 99.152206 
L 385.457221 91.3334 
L 386.814472 94.092431 
L 388.171724 104.982226 
L 389.528975 98.186637 
L 390.886227 95.942321 
L 392.243478 105.347173 
L 393.60073 100.961768 
L 394.957981 99.580139 
L 396.315233 87.417603 
L 397.672484 126.83256 
L 399.029735 111.037818 
L 400.386987 80.24151 
L 401.744238 96.783161 
L 403.10149 96.937664 
L 404.458741 87.497858 
L 405.815993 95.797661 
L 407.173244 107.105302 
L 408.530496 102.149339 
L 409.887747 102.320122 
L 411.244998 103.379804 
L 412.60225 91.867025 
L 413.959501 95.94295 
L 415.316753 118.11767 
L 416.674004 116.174513 
L 418.031256 98.785307 
L 419.388507 93.930716 
L 420.745759 98.681066 
L 422.10301 99.906369 
L 423.460261 93.246922 
L 424.817513 95.07971 
L 426.174764 88.37203 
L 427.532016 123.938074 
L 428.889267 110.016052 
L 430.246519 94.87705 
L 431.60377 105.291352 
L 432.961022 98.045599 
L 434.318273 112.070809 
L 435.675524 118.376797 
L 437.032776 99.17811 
L 438.390027 97.885319 
L 439.747279 122.585991 
L 441.10453 85.72977 
L 442.461782 91.776898 
L 443.819033 95.176504 
L 445.176285 108.766224 
L 446.533536 99.193816 
L 447.890787 95.184421 
L 449.248039 101.182651 
L 450.60529 107.764413 
L 451.962542 107.076717 
L 453.319793 104.666597 
L 454.677045 108.809299 
L 456.034296 106.50521 
L 457.391548 117.742598 
L 458.748799 84.086885 
L 460.10605 72.31175 
L 461.463302 98.444704 
L 462.820553 97.494558 
L 464.177805 107.205921 
L 465.535056 81.453733 
L 466.892308 74.678815 
L 468.249559 96.817512 
L 469.606811 96.400917 
L 472.321313 75.263248 
L 473.678565 107.315455 
L 475.035816 105.204537 
L 476.393068 95.400622 
L 477.750319 93.676771 
L 479.107571 92.14863 
L 480.464822 116.316214 
L 481.822074 100.592107 
L 483.179325 102.005061 
L 484.536576 115.204282 
L 485.893828 95.814706 
L 487.251079 86.349881 
L 488.608331 107.759058 
L 489.965582 87.399466 
L 491.322834 103.482065 
L 492.680085 96.811258 
L 494.037337 71.963902 
L 495.394588 129.452558 
L 496.751839 96.608234 
L 498.109091 100.923861 
L 498.109091 100.923861 
" clip-path="url(#pd81c6f8172)" style="fill: none; stroke: #ff7f0e; stroke-linecap: square"/>
   </g>
   <g id="patch_3">
    <path d="M 72 149.675294 
L 72 51.84 
" style="fill: none; stroke: #000000; stroke-width: 0.8; stroke-linejoin: miter; stroke-linecap: square"/>
   </g>
   <g id="patch_4">
    <path d="M 518.4 149.675294 
L 518.4 51.84 
" style="fill: none; stroke: #000000; stroke-width: 0.8; stroke-linejoin: miter; stroke-linecap: square"/>
   </g>
   <g id="patch_5">
    <path d="M 72 149.675294 
L 518.4 149.675294 
" style="fill: none; stroke: #000000; stroke-width: 0.8; stroke-linejoin: miter; stroke-linecap: square"/>
   </g>
   <g id="patch_6">
    <path d="M 72 51.84 
L 518.4 51.84 
" style="fill: none; stroke: #000000; stroke-width: 0.8; stroke-linejoin: miter; stroke-linecap: square"/>
   </g>
  </g>
  <g id="axes_2">
   <g id="patch_7">
    <path d="M 72 267.077647 
L 518.4 267.077647 
L 518.4 169.242353 
L 72 169.242353 
z
" style="fill: #ffffff"/>
   </g>
   <g id="matplotlib.axis_3">
    <g id="xtick_8">
     <g id="line2d_15">
      <g>
       <use xlink:href="#m6d46b076b9" x="92.290909" y="267.077647" style="stroke: #000000; stroke-width: 0.8"/>
      </g>
     </g>
    </g>
    <g id="xtick_9">
     <g id="line2d_16">
      <g>
       <use xlink:href="#m6d46b076b9" x="160.153481" y="267.077647" style="stroke: #000000; stroke-width: 0.8"/>
      </g>
     </g>
    </g>
    <g id="xtick_10">
     <g id="line2d_17">
      <g>
       <use xlink:href="#m6d46b076b9" x="228.016054" y="267.077647" style="stroke: #000000; stroke-width: 0.8"/>
      </g>
     </g>
    </g>
    <g id="xtick_11">
     <g id="line2d_18">
      <g>
       <use xlink:href="#m6d46b076b9" x="295.878626" y="267.077647" style="stroke: #000000; stroke-width: 0.8"/>
      </g>
     </g>
    </g>
    <g id="xtick_12">
     <g id="line2d_19">
      <g>
       <use xlink:href="#m6d46b076b9" x="363.741198" y="267.077647" style="stroke: #000000; stroke-width: 0.8"/>
      </g>
     </g>
    </g>
    <g id="xtick_13">
     <g id="line2d_20">
      <g>
       <use xlink:href="#m6d46b076b9" x="431.60377" y="267.077647" style="stroke: #000000; stroke-width: 0.8"/>
      </g>
     </g>
    </g>
    <g id="xtick_14">
     <g id="line2d_21">
      <g>
       <use xlink:href="#m6d46b076b9" x="499.466342" y="267.077647" style="stroke: #000000; stroke-width: 0.8"/>
      </g>
     </g>
    </g>
   </g>
   <g id="matplotlib.axis_4">
    <g id="ytick_6">
     <g id="line2d_22">
      <g>
       <use xlink:href="#m9d809a4c66" x="72" y="267.077647" style="stroke: #000000; stroke-width: 0.8"/>
      </g>
     </g>
     <g id="text_7">
      <!-- −2 -->
      <g transform="translate(50.257812 270.876866)scale(0.1 -0.1)">
       <use xlink:href="#DejaVuSans-2212"/>
       <use xlink:href="#DejaVuSans-32" x="83.789062"/>
      </g>
     </g>
    </g>
    <g id="ytick_7">
     <g id="line2d_23">
      <g>
       <use xlink:href="#m9d809a4c66" x="72" y="242.618824" style="stroke: #000000; stroke-width: 0.8"/>
      </g>
     </g>
     <g id="text_8">
      <!-- −1 -->
      <g transform="translate(50.257812 246.418042)scale(0.1 -0.1)">
       <use xlink:href="#DejaVuSans-2212"/>
       <use xlink:href="#DejaVuSans-31" x="83.789062"/>
      </g>
     </g>
    </g>
    <g id="ytick_8">
     <g id="line2d_24">
      <g>
       <use xlink:href="#m9d809a4c66" x="72" y="218.16" style="stroke: #000000; stroke-width: 0.8"/>
      </g>
     </g>
     <g id="text_9">
      <!-- 0 -->
      <g transform="translate(58.6375 221.959219)scale(0.1 -0.1)">
       <use xlink:href="#DejaVuSans-30"/>
      </g>
     </g>
    </g>
    <g id="ytick_9">
     <g id="line2d_25">
      <g>
       <use xlink:href="#m9d809a4c66" x="72" y="193.701176" style="stroke: #000000; stroke-width: 0.8"/>
      </g>
     </g>
     <g id="text_10">
      <!-- 1 -->
      <g transform="translate(58.6375 197.500395)scale(0.1 -0.1)">
       <use xlink:href="#DejaVuSans-31"/>
      </g>
     </g>
    </g>
    <g id="ytick_10">
     <g id="line2d_26">
      <g>
       <use xlink:href="#m9d809a4c66" x="72" y="169.242353" style="stroke: #000000; stroke-width: 0.8"/>
      </g>
     </g>
     <g id="text_11">
      <!-- 2 -->
      <g transform="translate(58.6375 173.041572)scale(0.1 -0.1)">
       <use xlink:href="#DejaVuSans-32"/>
      </g>
     </g>
    </g>
    <g id="text_12">
     <!-- N2 -->
     <g transform="translate(44.178125 225.081875)rotate(-90)scale(0.1 -0.1)">
      <use xlink:href="#DejaVuSans-4e"/>
      <use xlink:href="#DejaVuSans-32" x="74.804688"/>
     </g>
    </g>
   </g>
   <g id="line2d_27">
    <path d="M 92.290909 218.038064 
L 93.648161 238.405387 
L 96.362663 207.264761 
L 97.719915 170.861688 
L 99.077166 224.506052 
L 100.434418 261.714853 
L 101.791669 221.647759 
L 103.148921 218.800779 
L 104.506172 240.898153 
L 105.863424 222.73542 
L 107.220675 179.754135 
L 108.577926 176.516815 
L 109.935178 246.213389 
L 111.292429 211.045256 
L 112.649681 210.25396 
L 114.006932 207.643612 
L 115.364184 261.384213 
L 116.721435 154.150131 
L 118.078687 196.395337 
L 119.435938 223.357359 
L 120.793189 223.419637 
L 122.150441 203.77217 
L 123.507692 199.132557 
L 124.864944 192.38268 
L 126.222195 216.351569 
L 127.579447 291.046624 
L 128.936698 218.017233 
L 130.29395 234.984148 
L 131.651201 229.942874 
L 133.008452 208.061733 
L 134.365704 207.675879 
L 135.722955 260.539316 
L 137.080207 230.092351 
L 138.437458 196.464813 
L 139.79471 258.823072 
L 141.151961 196.473643 
L 142.509213 204.650048 
L 143.866464 227.532679 
L 145.223715 206.366925 
L 146.580967 190.772226 
L 147.938218 232.770041 
L 149.29547 254.621296 
L 150.652721 183.63836 
L 152.009973 199.900015 
L 153.367224 211.211178 
L 154.724476 210.906463 
L 156.081727 247.756597 
L 157.438978 204.244804 
L 158.79623 204.55547 
L 160.153481 172.454775 
L 161.510733 214.752661 
L 162.867984 232.478656 
L 164.225236 162.313234 
L 165.582487 209.859504 
L 166.939739 235.325097 
L 168.29699 212.021393 
L 169.654241 183.798249 
L 171.011493 213.14756 
L 172.368744 208.60798 
L 173.725996 167.264527 
L 175.083247 178.94055 
L 176.440499 286.257252 
L 177.79775 180.725673 
L 179.155002 202.876406 
L 180.512253 221.093414 
L 181.869504 197.342147 
L 183.226756 218.687223 
L 184.584007 228.816432 
L 185.941259 203.008618 
L 187.29851 191.078645 
L 188.655762 242.997357 
L 190.013013 189.044802 
L 191.370265 217.100266 
L 192.727516 259.55371 
L 194.084767 229.661999 
L 195.442019 224.814752 
L 196.79927 240.945466 
L 198.156522 202.170935 
L 199.513773 196.367317 
L 200.871025 227.262869 
L 202.228276 227.476364 
L 203.585528 212.466368 
L 204.942779 161.770199 
L 206.30003 264.036844 
L 207.657282 210.368901 
L 209.014533 174.801646 
L 210.371785 198.135682 
L 211.729036 241.399756 
L 213.086288 186.461233 
L 214.443539 226.119659 
L 215.800791 207.817739 
L 217.158042 198.732535 
L 218.515293 209.26157 
L 219.872545 192.743272 
L 221.229796 228.146794 
L 222.587048 266.620424 
L 223.944299 207.463748 
L 225.301551 206.931798 
L 228.016054 253.685575 
L 229.373305 198.217917 
L 230.730556 206.095371 
L 232.087808 192.373574 
L 233.445059 262.532863 
L 234.802311 242.956522 
L 236.159562 254.771456 
L 237.516814 241.594384 
L 238.874065 245.104812 
L 240.231317 245.513908 
L 241.588568 205.268261 
L 242.945819 241.140229 
L 244.303071 220.838079 
L 245.660322 211.576319 
L 247.017574 209.135444 
L 248.374825 208.021179 
L 249.732077 235.558165 
L 251.089328 229.864701 
L 252.44658 163.133064 
L 253.803831 189.839286 
L 255.161082 218.74965 
L 256.518334 219.381123 
L 257.875585 186.559053 
L 259.232837 180.91034 
L 260.590088 278.309276 
L 261.94734 226.394135 
L 263.304591 195.705073 
L 264.661843 258.866288 
L 266.019094 205.507258 
L 267.376345 231.58361 
L 268.733597 195.482391 
L 270.090848 197.366337 
L 271.4481 201.282938 
L 272.805351 179.627202 
L 274.162603 227.038723 
L 275.519854 242.038953 
L 276.877106 212.591606 
L 278.234357 228.758561 
L 279.591608 198.501422 
L 280.94886 199.773962 
L 282.306111 211.712017 
L 283.663363 254.351887 
L 285.020614 273.122936 
L 286.377866 188.12994 
L 287.735117 235.293766 
L 289.092369 237.334764 
L 290.44962 200.954328 
L 291.806871 196.476123 
L 293.164123 191.302983 
L 294.521374 217.019973 
L 295.878626 222.896605 
L 297.235877 232.719719 
L 298.593129 200.45979 
L 299.95038 201.433596 
L 301.307631 220.347826 
L 302.664883 223.008758 
L 304.022134 197.80548 
L 305.379386 225.25734 
L 306.736637 257.643139 
L 308.093889 225.722618 
L 309.45114 210.778445 
L 310.808392 220.474534 
L 312.165643 229.17248 
L 313.522894 218.049095 
L 314.880146 215.497333 
L 316.237397 210.092961 
L 317.594649 240.502115 
L 320.309152 182.290216 
L 321.666403 220.460597 
L 323.023655 228.808587 
L 324.380906 190.535852 
L 325.738157 227.12613 
L 327.095409 231.727951 
L 328.45266 193.09243 
L 329.809912 219.257139 
L 331.167163 263.245751 
L 332.524415 218.395243 
L 333.881666 240.696099 
L 335.238918 234.277376 
L 336.596169 166.115641 
L 337.95342 225.587949 
L 339.310672 242.698256 
L 340.667923 188.918902 
L 343.382426 261.395797 
L 344.739678 237.709442 
L 346.096929 198.254608 
L 348.811432 266.370177 
L 350.168683 185.047623 
L 351.525935 233.60652 
L 352.883186 213.066172 
L 354.240438 184.379445 
L 355.597689 222.749684 
L 356.954941 223.602426 
L 358.312192 203.341981 
L 359.669444 205.267164 
L 361.026695 239.549605 
L 362.383946 226.181157 
L 363.741198 199.930534 
L 365.098449 189.907677 
L 366.455701 203.279424 
L 367.812952 213.337114 
L 369.170204 220.645489 
L 370.527455 250.006535 
L 371.884707 213.601622 
L 373.241958 235.336757 
L 374.599209 244.307098 
L 375.956461 159.354876 
L 377.313712 196.649464 
L 378.670964 258.430342 
L 380.028215 210.542037 
L 381.385467 204.981993 
L 382.742718 201.791711 
L 384.09997 220.814678 
L 385.457221 199.586844 
L 386.814472 221.126813 
L 388.171724 231.266909 
L 389.528975 214.562846 
L 390.886227 209.828673 
L 392.243478 223.72541 
L 393.60073 251.86053 
L 394.957981 233.110511 
L 396.315233 233.656823 
L 397.672484 175.700571 
L 399.029735 201.936453 
L 400.386987 212.504357 
L 401.744238 195.429316 
L 403.10149 224.034767 
L 404.458741 219.771904 
L 405.815993 240.871245 
L 407.173244 247.429028 
L 408.530496 207.179342 
L 409.887747 203.5638 
L 411.244998 238.221785 
L 412.60225 183.400583 
L 413.959501 196.785006 
L 415.316753 250.63338 
L 416.674004 184.045861 
L 418.031256 207.890814 
L 419.388507 203.282585 
L 420.745759 221.370955 
L 422.10301 216.302852 
L 423.460261 242.548451 
L 424.817513 228.872567 
L 426.174764 201.928236 
L 427.532016 188.558778 
L 428.889267 205.189531 
L 430.246519 232.179652 
L 431.60377 241.111544 
L 432.961022 200.603761 
L 434.318273 200.83019 
L 435.675524 250.513634 
L 437.032776 220.882451 
L 438.390027 217.016199 
L 439.747279 205.45375 
L 441.10453 227.749374 
L 442.461782 234.643447 
L 443.819033 200.504114 
L 445.176285 194.283169 
L 446.533536 236.750222 
L 447.890787 258.67183 
L 449.248039 249.279279 
L 450.60529 231.789409 
L 451.962542 240.262242 
L 453.319793 250.343205 
L 454.677045 221.274988 
L 456.034296 242.706549 
L 457.391548 195.798041 
L 458.748799 201.839434 
L 460.10605 243.51422 
L 461.463302 210.29752 
L 462.820553 230.414462 
L 464.177805 202.022045 
L 465.535056 193.387772 
L 466.892308 238.386233 
L 468.249559 248.46135 
L 469.606811 227.721624 
L 470.964062 220.84134 
L 472.321313 239.125345 
L 473.678565 248.889482 
L 475.035816 179.908936 
L 476.393068 263.615592 
L 477.750319 222.716645 
L 479.107571 193.940279 
L 480.464822 242.199189 
L 481.822074 251.639043 
L 483.179325 180.283971 
L 484.536576 201.460163 
L 485.893828 227.191563 
L 487.251079 210.32262 
L 488.608331 212.682143 
L 489.965582 242.730067 
L 491.322834 254.446572 
L 492.680085 207.506005 
L 494.037337 201.426176 
L 495.394588 270.980704 
L 496.751839 265.178549 
L 498.109091 219.760622 
L 498.109091 219.760622 
" clip-path="url(#pc3004121ba)" style="fill: none; stroke: #1f77b4; stroke-linecap: square"/>
   </g>
   <g id="line2d_28">
    <path d="M 92.290909 207.504138 
L 93.648161 243.442954 
L 95.005412 212.131353 
L 96.362663 202.965719 
L 97.719915 208.216806 
L 99.077166 223.681523 
L 100.434418 234.027413 
L 101.791669 205.68797 
L 103.148921 214.840101 
L 104.506172 219.508846 
L 105.863424 214.025212 
L 107.220675 203.211997 
L 108.577926 208.545094 
L 109.935178 237.265037 
L 111.292429 224.14193 
L 112.649681 203.854953 
L 114.006932 214.794355 
L 115.364184 221.507302 
L 116.721435 222.79632 
L 118.078687 204.748236 
L 119.435938 246.554336 
L 120.793189 210.152707 
L 122.150441 213.492516 
L 123.507692 209.500579 
L 124.864944 226.209588 
L 126.222195 224.858673 
L 127.579447 225.680257 
L 128.936698 215.562 
L 130.29395 211.814078 
L 131.651201 243.368239 
L 133.008452 203.624825 
L 134.365704 206.754405 
L 135.722955 221.98334 
L 137.080207 222.425959 
L 138.437458 204.508028 
L 139.79471 226.305706 
L 141.151961 231.468065 
L 142.509213 201.080587 
L 143.866464 225.961581 
L 145.223715 220.810111 
L 146.580967 210.996264 
L 147.938218 223.939913 
L 149.29547 228.523527 
L 150.652721 208.826744 
L 152.009973 219.220254 
L 153.367224 240.213998 
L 154.724476 218.394262 
L 156.081727 219.278489 
L 157.438978 221.152622 
L 158.79623 202.158339 
L 160.153481 220.948509 
L 161.510733 222.947715 
L 162.867984 232.83614 
L 164.225236 209.706483 
L 165.582487 205.224264 
L 166.939739 242.659192 
L 168.29699 207.805421 
L 169.654241 204.643644 
L 171.011493 216.554484 
L 172.368744 232.561752 
L 173.725996 214.151274 
L 175.083247 222.621142 
L 176.440499 234.995851 
L 177.79775 219.88811 
L 179.155002 202.808318 
L 180.512253 232.99491 
L 181.869504 216.509358 
L 183.226756 215.043118 
L 184.584007 229.869049 
L 185.941259 215.686086 
L 187.29851 206.658296 
L 188.655762 226.616397 
L 190.013013 227.342583 
L 191.370265 204.537627 
L 192.727516 236.96615 
L 194.084767 214.415692 
L 195.442019 209.297499 
L 196.79927 224.86858 
L 198.156522 207.241979 
L 199.513773 205.588284 
L 200.871025 225.203423 
L 202.228276 225.340788 
L 203.585528 211.643456 
L 204.942779 206.070514 
L 206.30003 218.362801 
L 207.657282 236.568124 
L 209.014533 208.9598 
L 210.371785 216.979915 
L 211.729036 234.308148 
L 213.086288 216.155462 
L 214.443539 203.987992 
L 215.800791 238.712947 
L 217.158042 210.59315 
L 218.515293 222.885838 
L 219.872545 226.152386 
L 221.229796 219.763067 
L 222.587048 228.769513 
L 223.944299 210.972849 
L 225.301551 217.753002 
L 226.658802 218.21262 
L 228.016054 222.659288 
L 229.373305 207.952902 
L 230.730556 217.59176 
L 232.087808 225.64756 
L 233.445059 220.793672 
L 234.802311 227.90813 
L 236.159562 201.263671 
L 237.516814 240.812903 
L 238.874065 228.112404 
L 240.231317 232.024213 
L 241.588568 221.767791 
L 242.945819 225.490737 
L 244.303071 220.526622 
L 245.660322 202.721907 
L 247.017574 209.07434 
L 248.374825 220.458816 
L 249.732077 222.176975 
L 251.089328 222.438357 
L 252.44658 204.927405 
L 253.803831 206.956862 
L 255.161082 241.932984 
L 256.518334 215.271629 
L 257.875585 214.052336 
L 259.232837 214.279863 
L 260.590088 234.051065 
L 261.94734 225.023952 
L 263.304591 202.576081 
L 264.661843 240.303896 
L 266.019094 231.592413 
L 267.376345 201.03629 
L 268.733597 217.840114 
L 270.090848 208.099312 
L 271.4481 232.210528 
L 272.805351 222.932124 
L 274.162603 222.221166 
L 275.519854 230.097401 
L 276.877106 208.250451 
L 278.234357 207.388844 
L 279.591608 214.23793 
L 280.94886 208.303637 
L 282.306111 230.015195 
L 283.663363 223.071719 
L 285.020614 219.049611 
L 286.377866 204.333538 
L 287.735117 232.269909 
L 289.092369 230.319533 
L 290.44962 207.618409 
L 291.806871 210.126771 
L 293.164123 227.285303 
L 294.521374 224.928861 
L 295.878626 225.161047 
L 297.235877 215.047342 
L 298.593129 211.739425 
L 299.95038 204.24516 
L 301.307631 228.398361 
L 302.664883 223.08158 
L 304.022134 215.379509 
L 305.379386 210.69803 
L 306.736637 229.926903 
L 308.093889 212.696702 
L 309.45114 214.301325 
L 310.808392 219.304697 
L 312.165643 220.341271 
L 313.522894 214.980094 
L 314.880146 206.04717 
L 316.237397 212.534494 
L 317.594649 217.692382 
L 318.9519 221.836105 
L 320.309152 202.392385 
L 321.666403 216.020638 
L 323.023655 232.67899 
L 324.380906 211.250797 
L 325.738157 206.275364 
L 327.095409 234.792729 
L 328.45266 211.088494 
L 329.809912 204.786893 
L 331.167163 233.775269 
L 332.524415 214.645632 
L 333.881666 211.689971 
L 335.238918 218.581367 
L 336.596169 203.081413 
L 337.95342 212.043595 
L 339.310672 243.270052 
L 340.667923 203.285597 
L 342.025175 206.845417 
L 343.382426 237.066507 
L 344.739678 211.779047 
L 346.096929 214.728965 
L 347.454181 235.219593 
L 348.811432 229.74704 
L 350.168683 209.18371 
L 351.525935 220.142294 
L 352.883186 235.695711 
L 354.240438 207.755636 
L 355.597689 216.018086 
L 356.954941 232.735351 
L 358.312192 211.15191 
L 359.669444 209.517782 
L 361.026695 226.512089 
L 362.383946 222.443365 
L 363.741198 203.410279 
L 365.098449 207.973853 
L 366.455701 228.931234 
L 367.812952 226.709944 
L 369.170204 219.287972 
L 370.527455 219.000662 
L 371.884707 214.440011 
L 373.241958 207.53429 
L 374.599209 212.883817 
L 375.956461 203.926855 
L 377.313712 215.340122 
L 378.670964 245.381695 
L 380.028215 211.738857 
L 381.385467 201.053668 
L 382.742718 215.284525 
L 384.09997 224.144364 
L 385.457221 224.21258 
L 386.814472 215.1569 
L 388.171724 228.616977 
L 389.528975 214.85281 
L 390.886227 204.834979 
L 392.243478 215.234522 
L 393.60073 221.980482 
L 394.957981 212.769968 
L 396.315233 210.636246 
L 397.672484 220.840729 
L 399.029735 206.886773 
L 400.386987 241.697867 
L 401.744238 215.193455 
L 403.10149 219.149316 
L 404.458741 228.726827 
L 405.815993 213.07835 
L 407.173244 212.460686 
L 408.530496 203.490955 
L 409.887747 222.747635 
L 411.244998 218.049369 
L 412.60225 224.060155 
L 413.959501 204.446111 
L 415.316753 240.024137 
L 416.674004 219.305464 
L 418.031256 201.187041 
L 419.388507 240.336741 
L 420.745759 215.95123 
L 422.10301 224.344637 
L 423.460261 214.893494 
L 424.817513 216.334393 
L 426.174764 202.776897 
L 427.532016 210.090778 
L 428.889267 227.476173 
L 430.246519 227.776767 
L 431.60377 218.249937 
L 432.961022 207.773024 
L 434.318273 210.382165 
L 435.675524 226.791897 
L 437.032776 223.335036 
L 438.390027 200.982835 
L 439.747279 211.807734 
L 441.10453 215.819731 
L 442.461782 224.798346 
L 443.819033 210.718332 
L 445.176285 204.962933 
L 446.533536 228.143997 
L 447.890787 225.510127 
L 449.248039 206.955423 
L 451.962542 240.625275 
L 453.319793 217.20193 
L 454.677045 209.527625 
L 456.034296 223.930248 
L 457.391548 211.799952 
L 458.748799 204.565147 
L 460.10605 231.227009 
L 461.463302 221.562951 
L 462.820553 202.366104 
L 464.177805 216.001453 
L 465.535056 207.71415 
L 466.892308 227.297123 
L 468.249559 226.282633 
L 469.606811 206.256631 
L 470.964062 221.082743 
L 472.321313 213.398255 
L 473.678565 210.471229 
L 475.035816 203.531045 
L 476.393068 222.039088 
L 477.750319 243.024817 
L 479.107571 203.331061 
L 480.464822 221.973403 
L 481.822074 231.892596 
L 483.179325 204.4231 
L 484.536576 226.350742 
L 485.893828 242.865406 
L 487.251079 216.825428 
L 488.608331 211.5841 
L 489.965582 220.454046 
L 491.322834 220.073574 
L 492.680085 202.116901 
L 494.037337 227.827979 
L 495.394588 216.625349 
L 496.751839 225.013943 
L 498.109091 237.645018 
L 498.109091 237.645018 
" clip-path="url(#pc3004121ba)" style="fill: none; stroke: #ff7f0e; stroke-linecap: square"/>
   </g>
   <g id="patch_8">
    <path d="M 72 267.077647 
L 72 169.242353 
" style="fill: none; stroke: #000000; stroke-width: 0.8; stroke-linejoin: miter; stroke-linecap: square"/>
   </g>
   <g id="patch_9">
    <path d="M 518.4 267.077647 
L 518.4 169.242353 
" style="fill: none; stroke: #000000; stroke-width: 0.8; stroke-linejoin: miter; stroke-linecap: square"/>
   </g>
   <g id="patch_10">
    <path d="M 72 267.077647 
L 518.4 267.077647 
" style="fill: none; stroke: #000000; stroke-width: 0.8; stroke-linejoin: miter; stroke-linecap: square"/>
   </g>
   <g id="patch_11">
    <path d="M 72 169.242353 
L 518.4 169.242353 
" style="fill: none; stroke: #000000; stroke-width: 0.8; stroke-linejoin: miter; stroke-linecap: square"/>
   </g>
  </g>
  <g id="axes_3">
   <g id="patch_12">
    <path d="M 72 384.48 
L 518.4 384.48 
L 518.4 286.644706 
L 72 286.644706 
z
" style="fill: #ffffff"/>
   </g>
   <g id="matplotlib.axis_5">
    <g id="xtick_15">
     <g id="line2d_29">
      <g>
       <use xlink:href="#m6d46b076b9" x="92.290909" y="384.48" style="stroke: #000000; stroke-width: 0.8"/>
      </g>
     </g>
     <g id="text_13">
      <!-- 0 -->
      <g transform="translate(89.109659 399.078438)scale(0.1 -0.1)">
       <use xlink:href="#DejaVuSans-30"/>
      </g>
     </g>
    </g>
    <g id="xtick_16">
     <g id="line2d_30">
      <g>
       <use xlink:href="#m6d46b076b9" x="160.153481" y="384.48" style="stroke: #000000; stroke-width: 0.8"/>
      </g>
     </g>
     <g id="text_14">
      <!-- 50 -->
      <g transform="translate(153.790981 399.078438)scale(0.1 -0.1)">
       <defs>
        <path id="DejaVuSans-35" d="M 691 4666 
L 3169 4666 
L 3169 4134 
L 1269 4134 
L 1269 2991 
Q 1406 3038 1543 3061 
Q 1681 3084 1819 3084 
Q 2600 3084 3056 2656 
Q 3513 2228 3513 1497 
Q 3513 744 3044 326 
Q 2575 -91 1722 -91 
Q 1428 -91 1123 -41 
Q 819 9 494 109 
L 494 744 
Q 775 591 1075 516 
Q 1375 441 1709 441 
Q 2250 441 2565 725 
Q 2881 1009 2881 1497 
Q 2881 1984 2565 2268 
Q 2250 2553 1709 2553 
Q 1456 2553 1204 2497 
Q 953 2441 691 2322 
L 691 4666 
z
" transform="scale(0.015625)"/>
       </defs>
       <use xlink:href="#DejaVuSans-35"/>
       <use xlink:href="#DejaVuSans-30" x="63.623047"/>
      </g>
     </g>
    </g>
    <g id="xtick_17">
     <g id="line2d_31">
      <g>
       <use xlink:href="#m6d46b076b9" x="228.016054" y="384.48" style="stroke: #000000; stroke-width: 0.8"/>
      </g>
     </g>
     <g id="text_15">
      <!-- 100 -->
      <g transform="translate(218.472304 399.078438)scale(0.1 -0.1)">
       <use xlink:href="#DejaVuSans-31"/>
       <use xlink:href="#DejaVuSans-30" x="63.623047"/>
       <use xlink:href="#DejaVuSans-30" x="127.246094"/>
      </g>
     </g>
    </g>
    <g id="xtick_18">
     <g id="line2d_32">
      <g>
       <use xlink:href="#m6d46b076b9" x="295.878626" y="384.48" style="stroke: #000000; stroke-width: 0.8"/>
      </g>
     </g>
     <g id="text_16">
      <!-- 150 -->
      <g transform="translate(286.334876 399.078438)scale(0.1 -0.1)">
       <use xlink:href="#DejaVuSans-31"/>
       <use xlink:href="#DejaVuSans-35" x="63.623047"/>
       <use xlink:href="#DejaVuSans-30" x="127.246094"/>
      </g>
     </g>
    </g>
    <g id="xtick_19">
     <g id="line2d_33">
      <g>
       <use xlink:href="#m6d46b076b9" x="363.741198" y="384.48" style="stroke: #000000; stroke-width: 0.8"/>
      </g>
     </g>
     <g id="text_17">
      <!-- 200 -->
      <g transform="translate(354.197448 399.078438)scale(0.1 -0.1)">
       <use xlink:href="#DejaVuSans-32"/>
       <use xlink:href="#DejaVuSans-30" x="63.623047"/>
       <use xlink:href="#DejaVuSans-30" x="127.246094"/>
      </g>
     </g>
    </g>
    <g id="xtick_20">
     <g id="line2d_34">
      <g>
       <use xlink:href="#m6d46b076b9" x="431.60377" y="384.48" style="stroke: #000000; stroke-width: 0.8"/>
      </g>
     </g>
     <g id="text_18">
      <!-- 250 -->
      <g transform="translate(422.06002 399.078438)scale(0.1 -0.1)">
       <use xlink:href="#DejaVuSans-32"/>
       <use xlink:href="#DejaVuSans-35" x="63.623047"/>
       <use xlink:href="#DejaVuSans-30" x="127.246094"/>
      </g>
     </g>
    </g>
    <g id="xtick_21">
     <g id="line2d_35">
      <g>
       <use xlink:href="#m6d46b076b9" x="499.466342" y="384.48" style="stroke: #000000; stroke-width: 0.8"/>
      </g>
     </g>
     <g id="text_19">
      <!-- 300 -->
      <g transform="translate(489.922592 399.078438)scale(0.1 -0.1)">
       <defs>
        <path id="DejaVuSans-33" d="M 2597 2516 
Q 3050 2419 3304 2112 
Q 3559 1806 3559 1356 
Q 3559 666 3084 287 
Q 2609 -91 1734 -91 
Q 1441 -91 1130 -33 
Q 819 25 488 141 
L 488 750 
Q 750 597 1062 519 
Q 1375 441 1716 441 
Q 2309 441 2620 675 
Q 2931 909 2931 1356 
Q 2931 1769 2642 2001 
Q 2353 2234 1838 2234 
L 1294 2234 
L 1294 2753 
L 1863 2753 
Q 2328 2753 2575 2939 
Q 2822 3125 2822 3475 
Q 2822 3834 2567 4026 
Q 2313 4219 1838 4219 
Q 1578 4219 1281 4162 
Q 984 4106 628 3988 
L 628 4550 
Q 988 4650 1302 4700 
Q 1616 4750 1894 4750 
Q 2613 4750 3031 4423 
Q 3450 4097 3450 3541 
Q 3450 3153 3228 2886 
Q 3006 2619 2597 2516 
z
" transform="scale(0.015625)"/>
       </defs>
       <use xlink:href="#DejaVuSans-33"/>
       <use xlink:href="#DejaVuSans-30" x="63.623047"/>
       <use xlink:href="#DejaVuSans-30" x="127.246094"/>
      </g>
     </g>
    </g>
    <g id="text_20">
     <!-- Timesteps -->
     <g transform="translate(269.546094 412.756563)scale(0.1 -0.1)">
      <defs>
       <path id="DejaVuSans-54" d="M -19 4666 
L 3928 4666 
L 3928 4134 
L 2272 4134 
L 2272 0 
L 1638 0 
L 1638 4134 
L -19 4134 
L -19 4666 
z
" transform="scale(0.015625)"/>
       <path id="DejaVuSans-69" d="M 603 3500 
L 1178 3500 
L 1178 0 
L 603 0 
L 603 3500 
z
M 603 4863 
L 1178 4863 
L 1178 4134 
L 603 4134 
L 603 4863 
z
" transform="scale(0.015625)"/>
       <path id="DejaVuSans-6d" d="M 3328 2828 
Q 3544 3216 3844 3400 
Q 4144 3584 4550 3584 
Q 5097 3584 5394 3201 
Q 5691 2819 5691 2113 
L 5691 0 
L 5113 0 
L 5113 2094 
Q 5113 2597 4934 2840 
Q 4756 3084 4391 3084 
Q 3944 3084 3684 2787 
Q 3425 2491 3425 1978 
L 3425 0 
L 2847 0 
L 2847 2094 
Q 2847 2600 2669 2842 
Q 2491 3084 2119 3084 
Q 1678 3084 1418 2786 
Q 1159 2488 1159 1978 
L 1159 0 
L 581 0 
L 581 3500 
L 1159 3500 
L 1159 2956 
Q 1356 3278 1631 3431 
Q 1906 3584 2284 3584 
Q 2666 3584 2933 3390 
Q 3200 3197 3328 2828 
z
" transform="scale(0.015625)"/>
       <path id="DejaVuSans-65" d="M 3597 1894 
L 3597 1613 
L 953 1613 
Q 991 1019 1311 708 
Q 1631 397 2203 397 
Q 2534 397 2845 478 
Q 3156 559 3463 722 
L 3463 178 
Q 3153 47 2828 -22 
Q 2503 -91 2169 -91 
Q 1331 -91 842 396 
Q 353 884 353 1716 
Q 353 2575 817 3079 
Q 1281 3584 2069 3584 
Q 2775 3584 3186 3129 
Q 3597 2675 3597 1894 
z
M 3022 2063 
Q 3016 2534 2758 2815 
Q 2500 3097 2075 3097 
Q 1594 3097 1305 2825 
Q 1016 2553 972 2059 
L 3022 2063 
z
" transform="scale(0.015625)"/>
       <path id="DejaVuSans-73" d="M 2834 3397 
L 2834 2853 
Q 2591 2978 2328 3040 
Q 2066 3103 1784 3103 
Q 1356 3103 1142 2972 
Q 928 2841 928 2578 
Q 928 2378 1081 2264 
Q 1234 2150 1697 2047 
L 1894 2003 
Q 2506 1872 2764 1633 
Q 3022 1394 3022 966 
Q 3022 478 2636 193 
Q 2250 -91 1575 -91 
Q 1294 -91 989 -36 
Q 684 19 347 128 
L 347 722 
Q 666 556 975 473 
Q 1284 391 1588 391 
Q 1994 391 2212 530 
Q 2431 669 2431 922 
Q 2431 1156 2273 1281 
Q 2116 1406 1581 1522 
L 1381 1569 
Q 847 1681 609 1914 
Q 372 2147 372 2553 
Q 372 3047 722 3315 
Q 1072 3584 1716 3584 
Q 2034 3584 2315 3537 
Q 2597 3491 2834 3397 
z
" transform="scale(0.015625)"/>
       <path id="DejaVuSans-74" d="M 1172 4494 
L 1172 3500 
L 2356 3500 
L 2356 3053 
L 1172 3053 
L 1172 1153 
Q 1172 725 1289 603 
Q 1406 481 1766 481 
L 2356 481 
L 2356 0 
L 1766 0 
Q 1100 0 847 248 
Q 594 497 594 1153 
L 594 3053 
L 172 3053 
L 172 3500 
L 594 3500 
L 594 4494 
L 1172 4494 
z
" transform="scale(0.015625)"/>
       <path id="DejaVuSans-70" d="M 1159 525 
L 1159 -1331 
L 581 -1331 
L 581 3500 
L 1159 3500 
L 1159 2969 
Q 1341 3281 1617 3432 
Q 1894 3584 2278 3584 
Q 2916 3584 3314 3078 
Q 3713 2572 3713 1747 
Q 3713 922 3314 415 
Q 2916 -91 2278 -91 
Q 1894 -91 1617 61 
Q 1341 213 1159 525 
z
M 3116 1747 
Q 3116 2381 2855 2742 
Q 2594 3103 2138 3103 
Q 1681 3103 1420 2742 
Q 1159 2381 1159 1747 
Q 1159 1113 1420 752 
Q 1681 391 2138 391 
Q 2594 391 2855 752 
Q 3116 1113 3116 1747 
z
" transform="scale(0.015625)"/>
      </defs>
      <use xlink:href="#DejaVuSans-54"/>
      <use xlink:href="#DejaVuSans-69" x="57.958984"/>
      <use xlink:href="#DejaVuSans-6d" x="85.742188"/>
      <use xlink:href="#DejaVuSans-65" x="183.154297"/>
      <use xlink:href="#DejaVuSans-73" x="244.677734"/>
      <use xlink:href="#DejaVuSans-74" x="296.777344"/>
      <use xlink:href="#DejaVuSans-65" x="335.986328"/>
      <use xlink:href="#DejaVuSans-70" x="397.509766"/>
      <use xlink:href="#DejaVuSans-73" x="460.986328"/>
     </g>
    </g>
   </g>
   <g id="matplotlib.axis_6">
    <g id="ytick_11">
     <g id="line2d_36">
      <g>
       <use xlink:href="#m9d809a4c66" x="72" y="384.48" style="stroke: #000000; stroke-width: 0.8"/>
      </g>
     </g>
     <g id="text_21">
      <!-- −2 -->
      <g transform="translate(50.257812 388.279219)scale(0.1 -0.1)">
       <use xlink:href="#DejaVuSans-2212"/>
       <use xlink:href="#DejaVuSans-32" x="83.789062"/>
      </g>
     </g>
    </g>
    <g id="ytick_12">
     <g id="line2d_37">
      <g>
       <use xlink:href="#m9d809a4c66" x="72" y="360.021176" style="stroke: #000000; stroke-width: 0.8"/>
      </g>
     </g>
     <g id="text_22">
      <!-- −1 -->
      <g transform="translate(50.257812 363.820395)scale(0.1 -0.1)">
       <use xlink:href="#DejaVuSans-2212"/>
       <use xlink:href="#DejaVuSans-31" x="83.789062"/>
      </g>
     </g>
    </g>
    <g id="ytick_13">
     <g id="line2d_38">
      <g>
       <use xlink:href="#m9d809a4c66" x="72" y="335.562353" style="stroke: #000000; stroke-width: 0.8"/>
      </g>
     </g>
     <g id="text_23">
      <!-- 0 -->
      <g transform="translate(58.6375 339.361572)scale(0.1 -0.1)">
       <use xlink:href="#DejaVuSans-30"/>
      </g>
     </g>
    </g>
    <g id="ytick_14">
     <g id="line2d_39">
      <g>
       <use xlink:href="#m9d809a4c66" x="72" y="311.103529" style="stroke: #000000; stroke-width: 0.8"/>
      </g>
     </g>
     <g id="text_24">
      <!-- 1 -->
      <g transform="translate(58.6375 314.902748)scale(0.1 -0.1)">
       <use xlink:href="#DejaVuSans-31"/>
      </g>
     </g>
    </g>
    <g id="ytick_15">
     <g id="line2d_40">
      <g>
       <use xlink:href="#m9d809a4c66" x="72" y="286.644706" style="stroke: #000000; stroke-width: 0.8"/>
      </g>
     </g>
     <g id="text_25">
      <!-- 2 -->
      <g transform="translate(58.6375 290.443925)scale(0.1 -0.1)">
       <use xlink:href="#DejaVuSans-32"/>
      </g>
     </g>
    </g>
    <g id="text_26">
     <!-- N3 -->
     <g transform="translate(44.178125 342.484228)rotate(-90)scale(0.1 -0.1)">
      <use xlink:href="#DejaVuSans-4e"/>
      <use xlink:href="#DejaVuSans-33" x="74.804688"/>
     </g>
    </g>
   </g>
   <g id="line2d_41">
    <path d="M 92.290909 344.338812 
L 93.648161 270.355313 
L 95.005412 266.964664 
L 96.362663 356.564768 
L 97.719915 303.530824 
L 99.077166 337.319493 
L 100.434418 353.457403 
L 101.791669 296.836537 
L 103.148921 349.551706 
L 104.506172 341.51797 
L 105.863424 338.747542 
L 107.220675 295.566768 
L 108.577926 353.719821 
L 109.935178 338.577114 
L 111.292429 333.496123 
L 112.649681 296.849072 
L 114.006932 335.356309 
L 115.364184 340.700564 
L 116.721435 334.096732 
L 118.078687 334.084172 
L 119.435938 348.160571 
L 120.793189 286.354959 
L 122.150441 281.941692 
L 123.507692 317.965433 
L 124.864944 334.270315 
L 126.222195 353.660815 
L 127.579447 349.836338 
L 128.936698 348.779728 
L 130.29395 370.609009 
L 131.651201 349.102816 
L 133.008452 320.170064 
L 134.365704 328.049534 
L 135.722955 329.623134 
L 137.080207 337.920147 
L 138.437458 366.433073 
L 139.79471 296.290085 
L 141.151961 318.561132 
L 142.509213 349.203302 
L 143.866464 362.709058 
L 146.580967 302.780613 
L 147.938218 372.376778 
L 149.29547 353.293514 
L 150.652721 324.087799 
L 152.009973 350.533243 
L 153.367224 325.062517 
L 154.724476 371.316745 
L 156.081727 323.075423 
L 157.438978 337.364212 
L 158.79623 354.858842 
L 160.153481 340.861211 
L 161.510733 329.219607 
L 162.867984 371.876114 
L 164.225236 348.360442 
L 165.582487 312.029435 
L 168.29699 369.935499 
L 169.654241 358.84753 
L 171.011493 319.677921 
L 172.368744 330.751536 
L 173.725996 327.943284 
L 175.083247 323.422185 
L 176.440499 353.452904 
L 177.79775 328.018155 
L 179.155002 300.002346 
L 180.512253 311.77638 
L 181.869504 337.822106 
L 183.226756 368.642485 
L 184.584007 327.620388 
L 185.941259 352.990607 
L 187.29851 352.645744 
L 188.655762 350.00497 
L 190.013013 344.997401 
L 191.370265 377.443877 
L 192.727516 360.737227 
L 194.084767 334.017714 
L 195.442019 333.839659 
L 196.79927 312.912877 
L 198.156522 380.31947 
L 199.513773 328.773794 
L 200.871025 363.16468 
L 203.585528 334.890605 
L 204.942779 344.666121 
L 206.30003 358.08034 
L 207.657282 362.323134 
L 209.014533 286.398718 
L 210.371785 329.697444 
L 211.729036 341.885818 
L 213.086288 369.673594 
L 214.443539 322.520254 
L 215.800791 314.029265 
L 217.158042 342.397701 
L 218.515293 353.338838 
L 219.872545 335.48343 
L 221.229796 320.031825 
L 222.587048 362.351122 
L 223.944299 347.216006 
L 225.301551 293.35947 
L 226.658802 397.047968 
L 228.016054 270.405487 
L 229.373305 372.610557 
L 230.730556 346.148102 
L 232.087808 345.785827 
L 233.445059 388.218652 
L 234.802311 347.9936 
L 236.159562 339.517123 
L 237.516814 299.82217 
L 238.874065 341.82837 
L 240.231317 291.026023 
L 241.588568 304.046434 
L 242.945819 338.425025 
L 245.660322 322.742346 
L 247.017574 344.697104 
L 248.374825 356.98945 
L 249.732077 336.654376 
L 251.089328 346.336916 
L 252.44658 339.482159 
L 253.803831 310.713362 
L 255.161082 308.814075 
L 256.518334 301.210329 
L 257.875585 357.772866 
L 259.232837 320.523579 
L 260.590088 356.926062 
L 261.94734 356.505452 
L 263.304591 372.272742 
L 264.661843 259.896477 
L 266.019094 326.103391 
L 267.376345 296.678196 
L 268.733597 309.738929 
L 270.090848 338.52274 
L 271.4481 316.235237 
L 272.805351 260.758107 
L 274.162603 360.959411 
L 275.519854 332.043067 
L 276.877106 344.277933 
L 278.234357 339.1578 
L 279.591608 355.599427 
L 280.94886 320.336894 
L 282.306111 309.671089 
L 283.663363 342.807891 
L 285.020614 346.86915 
L 286.377866 326.403427 
L 287.735117 338.899389 
L 289.092369 309.230495 
L 290.44962 328.199011 
L 291.806871 323.71138 
L 293.164123 328.571957 
L 294.521374 361.07883 
L 295.878626 382.685681 
L 297.235877 331.693049 
L 298.593129 320.247871 
L 299.95038 359.051295 
L 301.307631 350.618646 
L 302.664883 315.760087 
L 304.022134 357.686815 
L 305.379386 315.182525 
L 306.736637 296.414621 
L 308.093889 336.203938 
L 309.45114 354.139256 
L 310.808392 339.850643 
L 312.165643 344.485454 
L 313.522894 345.995454 
L 314.880146 346.337196 
L 316.237397 340.47944 
L 317.594649 357.376081 
L 318.9519 351.258005 
L 320.309152 343.581875 
L 321.666403 356.32899 
L 323.023655 382.176742 
L 324.380906 312.223482 
L 325.738157 329.790228 
L 327.095409 301.205882 
L 328.45266 346.785103 
L 329.809912 323.770825 
L 331.167163 345.665019 
L 332.524415 335.840553 
L 333.881666 362.186133 
L 335.238918 357.90777 
L 336.596169 309.90202 
L 337.95342 320.483148 
L 339.310672 377.423065 
L 340.667923 319.685556 
L 342.025175 333.970861 
L 343.382426 331.94265 
L 344.739678 351.653684 
L 346.096929 321.588863 
L 347.454181 368.078366 
L 348.811432 312.074287 
L 350.168683 352.450842 
L 351.525935 321.590019 
L 352.883186 354.502831 
L 354.240438 301.531416 
L 355.597689 288.587263 
L 356.954941 305.577 
L 358.312192 383.319698 
L 359.669444 309.521102 
L 361.026695 332.624567 
L 362.383946 330.197028 
L 363.741198 345.309193 
L 365.098449 330.262255 
L 366.455701 349.929294 
L 367.812952 350.372501 
L 369.170204 339.365244 
L 370.527455 305.17857 
L 371.884707 335.28555 
L 373.241958 327.512758 
L 374.599209 371.377284 
L 375.956461 324.339088 
L 377.313712 378.996676 
L 378.670964 323.459133 
L 380.028215 331.584123 
L 381.385467 350.090808 
L 382.742718 341.535751 
L 384.09997 311.085921 
L 385.457221 360.989046 
L 386.814472 354.714291 
L 388.171724 364.469835 
L 389.528975 296.297109 
L 390.886227 318.709293 
L 392.243478 345.927628 
L 393.60073 360.388452 
L 394.957981 338.112749 
L 396.315233 380.048206 
L 397.672484 330.095175 
L 399.029735 312.9974 
L 400.386987 294.219642 
L 401.744238 346.880296 
L 403.10149 296.743683 
L 404.458741 351.387524 
L 405.815993 355.093658 
L 407.173244 335.215103 
L 408.530496 338.230744 
L 409.887747 324.513914 
L 411.244998 324.788753 
L 412.60225 295.456924 
L 413.959501 386.712566 
L 415.316753 331.654394 
L 416.674004 322.287656 
L 418.031256 348.584358 
L 419.388507 368.802025 
L 420.745759 349.922509 
L 422.10301 350.842664 
L 423.460261 358.54155 
L 424.817513 282.556705 
L 426.174764 368.135503 
L 427.532016 297.888992 
L 428.889267 289.156146 
L 430.246519 303.000638 
L 431.60377 350.741256 
L 432.961022 354.028849 
L 434.318273 332.370535 
L 435.675524 317.536272 
L 437.032776 315.466581 
L 438.390027 330.23474 
L 439.747279 373.441385 
L 441.10453 333.623775 
L 442.461782 335.695712 
L 443.819033 345.944254 
L 445.176285 338.846899 
L 446.533536 317.935421 
L 447.890787 364.087155 
L 449.248039 344.079285 
L 450.60529 300.036833 
L 451.962542 344.772471 
L 453.319793 355.770614 
L 454.677045 313.872059 
L 456.034296 315.161754 
L 457.391548 313.986859 
L 458.748799 347.683013 
L 460.10605 345.164473 
L 461.463302 317.522921 
L 462.820553 320.917501 
L 464.177805 300.792865 
L 465.535056 324.975957 
L 466.892308 354.199212 
L 468.249559 353.691215 
L 469.606811 356.519434 
L 470.964062 371.307741 
L 472.321313 320.217296 
L 473.678565 362.634011 
L 475.035816 319.087758 
L 476.393068 319.335286 
L 477.750319 336.548198 
L 479.107571 369.701699 
L 480.464822 321.177582 
L 481.822074 350.240738 
L 483.179325 364.326341 
L 484.536576 320.396592 
L 485.893828 341.802148 
L 487.251079 323.089426 
L 488.608331 327.230832 
L 489.965582 363.991001 
L 491.322834 377.226516 
L 492.680085 321.288672 
L 494.037337 335.559428 
L 495.394588 278.530861 
L 498.109091 343.896091 
L 498.109091 343.896091 
" clip-path="url(#p1d64cb9379)" style="fill: none; stroke: #1f77b4; stroke-linecap: square"/>
   </g>
   <g id="line2d_42">
    <path d="M 92.290909 350.597077 
L 93.648161 293.668002 
L 95.005412 307.487697 
L 96.362663 337.806603 
L 97.719915 312.205264 
L 99.077166 341.802942 
L 100.434418 342.72372 
L 101.791669 312.860638 
L 103.148921 359.444492 
L 104.506172 344.163788 
L 105.863424 332.158148 
L 107.220675 290.79999 
L 108.577926 347.46147 
L 109.935178 344.163762 
L 111.292429 316.461627 
L 112.649681 296.861254 
L 114.006932 332.772444 
L 115.364184 340.108522 
L 116.721435 314.051091 
L 118.078687 349.913834 
L 119.435938 350.473325 
L 120.793189 319.946698 
L 122.150441 321.674572 
L 123.507692 343.086891 
L 124.864944 335.238745 
L 126.222195 343.912003 
L 127.579447 346.852552 
L 128.936698 339.573489 
L 130.29395 349.376932 
L 131.651201 308.777185 
L 133.008452 323.676597 
L 134.365704 340.590332 
L 135.722955 314.612943 
L 137.080207 343.131831 
L 138.437458 331.66115 
L 139.79471 326.913795 
L 141.151961 314.116668 
L 142.509213 358.443313 
L 145.223715 322.525434 
L 146.580967 306.934045 
L 147.938218 344.035155 
L 149.29547 336.430283 
L 150.652721 338.769647 
L 152.009973 348.65017 
L 153.367224 325.897113 
L 154.724476 347.181095 
L 156.081727 327.076751 
L 157.438978 327.810461 
L 158.79623 347.409916 
L 160.153481 320.090127 
L 161.510733 323.165107 
L 162.867984 351.93748 
L 164.225236 337.676422 
L 165.582487 309.972464 
L 166.939739 336.064352 
L 169.654241 358.242031 
L 171.011493 326.152999 
L 172.368744 324.96183 
L 173.725996 327.223886 
L 175.083247 336.934982 
L 176.440499 350.271193 
L 177.79775 344.118876 
L 179.155002 295.770064 
L 180.512253 329.750674 
L 181.869504 306.616789 
L 183.226756 360.323694 
L 184.584007 349.354941 
L 185.941259 331.365357 
L 187.29851 344.942725 
L 188.655762 352.383054 
L 190.013013 324.724417 
L 191.370265 328.97563 
L 192.727516 346.90041 
L 194.084767 333.991002 
L 195.442019 316.80561 
L 196.79927 327.897982 
L 198.156522 349.058095 
L 199.513773 332.43024 
L 200.871025 339.663702 
L 202.228276 344.966763 
L 203.585528 336.001887 
L 204.942779 332.070798 
L 206.30003 331.371561 
L 207.657282 338.872782 
L 209.014533 312.583452 
L 210.371785 354.022981 
L 211.729036 330.493246 
L 213.086288 351.32697 
L 214.443539 314.00033 
L 215.800791 346.771283 
L 217.158042 338.264592 
L 218.515293 336.721237 
L 219.872545 353.909644 
L 221.229796 332.052874 
L 222.587048 342.262922 
L 223.944299 339.758273 
L 225.301551 288.078712 
L 226.658802 354.421747 
L 228.016054 320.297872 
L 229.373305 341.44722 
L 232.087808 334.498922 
L 233.445059 360.113392 
L 234.802311 341.93228 
L 236.159562 329.755221 
L 237.516814 303.740386 
L 238.874065 325.821613 
L 240.231317 336.644355 
L 241.588568 305.399345 
L 242.945819 347.779549 
L 244.303071 336.719134 
L 245.660322 318.069692 
L 247.017574 334.524855 
L 248.374825 325.56301 
L 249.732077 342.85761 
L 251.089328 337.743286 
L 252.44658 344.307693 
L 255.161082 299.9133 
L 256.518334 322.968575 
L 257.875585 355.470105 
L 259.232837 303.40022 
L 260.590088 332.924211 
L 261.94734 326.642735 
L 263.304591 348.993643 
L 264.661843 293.121448 
L 266.019094 306.420549 
L 267.376345 320.929384 
L 268.733597 325.157043 
L 270.090848 323.960766 
L 271.4481 333.082573 
L 272.805351 292.99927 
L 274.162603 348.852758 
L 275.519854 347.185793 
L 276.877106 347.066081 
L 278.234357 337.123773 
L 279.591608 345.413463 
L 280.94886 333.640819 
L 282.306111 314.967426 
L 283.663363 344.107103 
L 285.020614 354.193618 
L 286.377866 353.403583 
L 287.735117 347.66426 
L 289.092369 327.864654 
L 290.44962 339.412747 
L 291.806871 310.258901 
L 293.164123 330.644541 
L 294.521374 337.070926 
L 295.878626 348.053815 
L 297.235877 345.008338 
L 298.593129 313.881561 
L 299.95038 348.833051 
L 301.307631 348.569956 
L 302.664883 327.151545 
L 304.022134 345.236614 
L 305.379386 328.791717 
L 306.736637 300.164764 
L 308.093889 346.686845 
L 309.45114 337.159871 
L 310.808392 356.139128 
L 312.165643 334.039689 
L 313.522894 317.301685 
L 314.880146 342.169897 
L 316.237397 340.360059 
L 317.594649 338.185246 
L 318.9519 346.740407 
L 320.309152 342.902092 
L 321.666403 345.145932 
L 323.023655 338.416319 
L 324.380906 339.700568 
L 325.738157 306.727738 
L 327.095409 305.319489 
L 328.45266 346.173265 
L 329.809912 333.875451 
L 331.167163 336.34386 
L 332.524415 330.738341 
L 333.881666 353.641518 
L 335.238918 346.198354 
L 336.596169 330.246468 
L 337.95342 334.220983 
L 339.310672 348.931795 
L 340.667923 334.893965 
L 342.025175 325.837063 
L 343.382426 336.5003 
L 344.739678 329.110989 
L 346.096929 336.045002 
L 347.454181 337.686104 
L 348.811432 320.312201 
L 350.168683 335.830982 
L 351.525935 322.890943 
L 352.883186 333.26121 
L 354.240438 331.387239 
L 355.597689 327.914589 
L 356.954941 345.38516 
L 358.312192 334.58548 
L 359.669444 334.539257 
L 361.026695 336.833135 
L 362.383946 350.592373 
L 363.741198 343.012891 
L 365.098449 346.262311 
L 366.455701 338.925031 
L 367.812952 335.325685 
L 369.170204 345.458773 
L 370.527455 342.996253 
L 371.884707 344.754387 
L 373.241958 348.628907 
L 374.599209 327.692831 
L 375.956461 327.363599 
L 377.313712 343.246523 
L 378.670964 328.166554 
L 380.028215 346.605937 
L 381.385467 323.595706 
L 382.742718 343.862305 
L 384.09997 335.439343 
L 385.457221 339.951892 
L 386.814472 348.07207 
L 388.171724 349.043253 
L 389.528975 340.443143 
L 390.886227 342.532134 
L 392.243478 348.457474 
L 393.60073 353.704481 
L 394.957981 336.110119 
L 396.315233 345.490079 
L 397.672484 335.075781 
L 399.029735 310.689722 
L 400.386987 320.025853 
L 401.744238 349.625497 
L 403.10149 318.528282 
L 404.458741 349.282101 
L 405.815993 351.822899 
L 407.173244 328.698279 
L 408.530496 332.717358 
L 409.887747 336.307607 
L 411.244998 320.946915 
L 412.60225 301.15118 
L 413.959501 340.918864 
L 415.316753 319.766383 
L 416.674004 330.736943 
L 418.031256 343.979192 
L 419.388507 342.969085 
L 420.745759 343.147074 
L 422.10301 331.628509 
L 423.460261 338.55469 
L 424.817513 309.30491 
L 426.174764 333.095899 
L 427.532016 322.05235 
L 428.889267 349.056257 
L 430.246519 335.503289 
L 431.60377 326.521326 
L 432.961022 338.798619 
L 434.318273 343.097944 
L 435.675524 327.122545 
L 437.032776 338.48094 
L 438.390027 325.50963 
L 439.747279 346.653838 
L 441.10453 336.021724 
L 442.461782 346.761684 
L 443.819033 350.281127 
L 445.176285 320.157849 
L 446.533536 308.346265 
L 447.890787 335.919171 
L 449.248039 340.537206 
L 450.60529 322.889809 
L 451.962542 331.298041 
L 453.319793 356.955801 
L 454.677045 338.047 
L 456.034296 304.946417 
L 457.391548 342.690676 
L 458.748799 325.105908 
L 460.10605 315.112083 
L 461.463302 310.558083 
L 462.820553 311.1766 
L 464.177805 321.196563 
L 465.535056 344.199039 
L 466.892308 350.155214 
L 468.249559 355.603294 
L 469.606811 347.165283 
L 470.964062 341.628418 
L 473.678565 336.464329 
L 475.035816 324.400734 
L 476.393068 342.320335 
L 477.750319 337.378041 
L 479.107571 359.474619 
L 480.464822 349.517551 
L 481.822074 336.770369 
L 483.179325 345.555624 
L 484.536576 334.383401 
L 485.893828 319.636234 
L 487.251079 336.851963 
L 488.608331 329.478259 
L 489.965582 343.327916 
L 491.322834 342.796384 
L 492.680085 338.54257 
L 494.037337 313.594472 
L 495.394588 297.407561 
L 496.751839 318.002246 
L 498.109091 322.190202 
L 498.109091 322.190202 
" clip-path="url(#p1d64cb9379)" style="fill: none; stroke: #ff7f0e; stroke-linecap: square"/>
   </g>
   <g id="patch_13">
    <path d="M 72 384.48 
L 72 286.644706 
" style="fill: none; stroke: #000000; stroke-width: 0.8; stroke-linejoin: miter; stroke-linecap: square"/>
   </g>
   <g id="patch_14">
    <path d="M 518.4 384.48 
L 518.4 286.644706 
" style="fill: none; stroke: #000000; stroke-width: 0.8; stroke-linejoin: miter; stroke-linecap: square"/>
   </g>
   <g id="patch_15">
    <path d="M 72 384.48 
L 518.4 384.48 
" style="fill: none; stroke: #000000; stroke-width: 0.8; stroke-linejoin: miter; stroke-linecap: square"/>
   </g>
   <g id="patch_16">
    <path d="M 72 286.644706 
L 518.4 286.644706 
" style="fill: none; stroke: #000000; stroke-width: 0.8; stroke-linejoin: miter; stroke-linecap: square"/>
   </g>
  </g>
  <g id="legend_1">
   <g id="patch_17">
    <path d="M 484.228125 37.35625 
L 569 37.35625 
Q 571 37.35625 571 35.35625 
L 571 7 
Q 571 5 569 5 
L 484.228125 5 
Q 482.228125 5 482.228125 7 
L 482.228125 35.35625 
Q 482.228125 37.35625 484.228125 37.35625 
z
" style="fill: #ffffff; opacity: 0.8; stroke: #cccccc; stroke-linejoin: miter"/>
   </g>
   <g id="line2d_43">
    <path d="M 486.228125 13.098437 
L 496.228125 13.098437 
L 506.228125 13.098437 
" style="fill: none; stroke: #1f77b4; stroke-linecap: square"/>
   </g>
   <g id="text_27">
    <!-- Sampled -->
    <g transform="translate(514.228125 16.598437)scale(0.1 -0.1)">
     <defs>
      <path id="DejaVuSans-53" d="M 3425 4513 
L 3425 3897 
Q 3066 4069 2747 4153 
Q 2428 4238 2131 4238 
Q 1616 4238 1336 4038 
Q 1056 3838 1056 3469 
Q 1056 3159 1242 3001 
Q 1428 2844 1947 2747 
L 2328 2669 
Q 3034 2534 3370 2195 
Q 3706 1856 3706 1288 
Q 3706 609 3251 259 
Q 2797 -91 1919 -91 
Q 1588 -91 1214 -16 
Q 841 59 441 206 
L 441 856 
Q 825 641 1194 531 
Q 1563 422 1919 422 
Q 2459 422 2753 634 
Q 3047 847 3047 1241 
Q 3047 1584 2836 1778 
Q 2625 1972 2144 2069 
L 1759 2144 
Q 1053 2284 737 2584 
Q 422 2884 422 3419 
Q 422 4038 858 4394 
Q 1294 4750 2059 4750 
Q 2388 4750 2728 4690 
Q 3069 4631 3425 4513 
z
" transform="scale(0.015625)"/>
      <path id="DejaVuSans-61" d="M 2194 1759 
Q 1497 1759 1228 1600 
Q 959 1441 959 1056 
Q 959 750 1161 570 
Q 1363 391 1709 391 
Q 2188 391 2477 730 
Q 2766 1069 2766 1631 
L 2766 1759 
L 2194 1759 
z
M 3341 1997 
L 3341 0 
L 2766 0 
L 2766 531 
Q 2569 213 2275 61 
Q 1981 -91 1556 -91 
Q 1019 -91 701 211 
Q 384 513 384 1019 
Q 384 1609 779 1909 
Q 1175 2209 1959 2209 
L 2766 2209 
L 2766 2266 
Q 2766 2663 2505 2880 
Q 2244 3097 1772 3097 
Q 1472 3097 1187 3025 
Q 903 2953 641 2809 
L 641 3341 
Q 956 3463 1253 3523 
Q 1550 3584 1831 3584 
Q 2591 3584 2966 3190 
Q 3341 2797 3341 1997 
z
" transform="scale(0.015625)"/>
      <path id="DejaVuSans-6c" d="M 603 4863 
L 1178 4863 
L 1178 0 
L 603 0 
L 603 4863 
z
" transform="scale(0.015625)"/>
      <path id="DejaVuSans-64" d="M 2906 2969 
L 2906 4863 
L 3481 4863 
L 3481 0 
L 2906 0 
L 2906 525 
Q 2725 213 2448 61 
Q 2172 -91 1784 -91 
Q 1150 -91 751 415 
Q 353 922 353 1747 
Q 353 2572 751 3078 
Q 1150 3584 1784 3584 
Q 2172 3584 2448 3432 
Q 2725 3281 2906 2969 
z
M 947 1747 
Q 947 1113 1208 752 
Q 1469 391 1925 391 
Q 2381 391 2643 752 
Q 2906 1113 2906 1747 
Q 2906 2381 2643 2742 
Q 2381 3103 1925 3103 
Q 1469 3103 1208 2742 
Q 947 2381 947 1747 
z
" transform="scale(0.015625)"/>
     </defs>
     <use xlink:href="#DejaVuSans-53"/>
     <use xlink:href="#DejaVuSans-61" x="63.476562"/>
     <use xlink:href="#DejaVuSans-6d" x="124.755859"/>
     <use xlink:href="#DejaVuSans-70" x="222.167969"/>
     <use xlink:href="#DejaVuSans-6c" x="285.644531"/>
     <use xlink:href="#DejaVuSans-65" x="313.427734"/>
     <use xlink:href="#DejaVuSans-64" x="374.951172"/>
    </g>
   </g>
   <g id="line2d_44">
    <path d="M 486.228125 27.776563 
L 496.228125 27.776563 
L 506.228125 27.776563 
" style="fill: none; stroke: #ff7f0e; stroke-linecap: square"/>
   </g>
   <g id="text_28">
    <!-- True mean -->
    <g transform="translate(514.228125 31.276563)scale(0.1 -0.1)">
     <defs>
      <path id="DejaVuSans-72" d="M 2631 2963 
Q 2534 3019 2420 3045 
Q 2306 3072 2169 3072 
Q 1681 3072 1420 2755 
Q 1159 2438 1159 1844 
L 1159 0 
L 581 0 
L 581 3500 
L 1159 3500 
L 1159 2956 
Q 1341 3275 1631 3429 
Q 1922 3584 2338 3584 
Q 2397 3584 2469 3576 
Q 2541 3569 2628 3553 
L 2631 2963 
z
" transform="scale(0.015625)"/>
      <path id="DejaVuSans-75" d="M 544 1381 
L 544 3500 
L 1119 3500 
L 1119 1403 
Q 1119 906 1312 657 
Q 1506 409 1894 409 
Q 2359 409 2629 706 
Q 2900 1003 2900 1516 
L 2900 3500 
L 3475 3500 
L 3475 0 
L 2900 0 
L 2900 538 
Q 2691 219 2414 64 
Q 2138 -91 1772 -91 
Q 1169 -91 856 284 
Q 544 659 544 1381 
z
M 1991 3584 
L 1991 3584 
z
" transform="scale(0.015625)"/>
      <path id="DejaVuSans-20" transform="scale(0.015625)"/>
      <path id="DejaVuSans-6e" d="M 3513 2113 
L 3513 0 
L 2938 0 
L 2938 2094 
Q 2938 2591 2744 2837 
Q 2550 3084 2163 3084 
Q 1697 3084 1428 2787 
Q 1159 2491 1159 1978 
L 1159 0 
L 581 0 
L 581 3500 
L 1159 3500 
L 1159 2956 
Q 1366 3272 1645 3428 
Q 1925 3584 2291 3584 
Q 2894 3584 3203 3211 
Q 3513 2838 3513 2113 
z
" transform="scale(0.015625)"/>
     </defs>
     <use xlink:href="#DejaVuSans-54"/>
     <use xlink:href="#DejaVuSans-72" x="46.333984"/>
     <use xlink:href="#DejaVuSans-75" x="87.447266"/>
     <use xlink:href="#DejaVuSans-65" x="150.826172"/>
     <use xlink:href="#DejaVuSans-20" x="212.349609"/>
     <use xlink:href="#DejaVuSans-6d" x="244.136719"/>
     <use xlink:href="#DejaVuSans-65" x="341.548828"/>
     <use xlink:href="#DejaVuSans-61" x="403.072266"/>
     <use xlink:href="#DejaVuSans-6e" x="464.351562"/>
    </g>
   </g>
  </g>
 </g>
 <defs>
  <clipPath id="pd81c6f8172">
   <rect x="72" y="51.84" width="446.4" height="97.835294"/>
  </clipPath>
  <clipPath id="pc3004121ba">
   <rect x="72" y="169.242353" width="446.4" height="97.835294"/>
  </clipPath>
  <clipPath id="p1d64cb9379">
   <rect x="72" y="286.644706" width="446.4" height="97.835294"/>
  </clipPath>
 </defs>
</svg>
