<?xml version="1.0" encoding="utf-8" standalone="no"?>
<!DOCTYPE svg PUBLIC "-//W3C//DTD SVG 1.1//EN"
  "http://www.w3.org/Graphics/SVG/1.1/DTD/svg11.dtd">
<svg xmlns:xlink="http://www.w3.org/1999/xlink" width="576pt" height="432pt" viewBox="0 0 576 432" xmlns="http://www.w3.org/2000/svg" version="1.1">
 <metadata>
  <rdf:RDF xmlns:dc="http://purl.org/dc/elements/1.1/" xmlns:cc="http://creativecommons.org/ns#" xmlns:rdf="http://www.w3.org/1999/02/22-rdf-syntax-ns#">
   <cc:Work>
    <dc:type rdf:resource="http://purl.org/dc/dcmitype/StillImage"/>
    <dc:date>2023-06-20T18:03:47.091735</dc:date>
    <dc:format>image/svg+xml</dc:format>
    <dc:creator>
     <cc:Agent>
      <dc:title>Matplotlib v3.5.1, https://matplotlib.org/</dc:title>
     </cc:Agent>
    </dc:creator>
   </cc:Work>
  </rdf:RDF>
 </metadata>
 <defs>
  <style type="text/css">*{stroke-linejoin: round; stroke-linecap: butt}</style>
 </defs>
 <g id="figure_1">
  <g id="patch_1">
   <path d="M 0 432 
L 576 432 
L 576 0 
L 0 0 
z
" style="fill: #ffffff"/>
  </g>
  <g id="axes_1">
   <g id="patch_2">
    <path d="M 72 384.48 
L 518.4 384.48 
L 518.4 51.84 
L 72 51.84 
z
" style="fill: #ffffff"/>
   </g>
   <g id="matplotlib.axis_1">
    <g id="xtick_1">
     <g id="line2d_1">
      <defs>
       <path id="maa65f2bd6a" d="M 0 0 
L 0 3.5 
" style="stroke: #000000; stroke-width: 0.8"/>
      </defs>
      <g>
       <use xlink:href="#maa65f2bd6a" x="92.290909" y="384.48" style="stroke: #000000; stroke-width: 0.8"/>
      </g>
     </g>
     <g id="text_1">
      <!-- 0 -->
      <g transform="translate(89.109659 399.078438)scale(0.1 -0.1)">
       <defs>
        <path id="DejaVuSans-30" d="M 2034 4250 
Q 1547 4250 1301 3770 
Q 1056 3291 1056 2328 
Q 1056 1369 1301 889 
Q 1547 409 2034 409 
Q 2525 409 2770 889 
Q 3016 1369 3016 2328 
Q 3016 3291 2770 3770 
Q 2525 4250 2034 4250 
z
M 2034 4750 
Q 2819 4750 3233 4129 
Q 3647 3509 3647 2328 
Q 3647 1150 3233 529 
Q 2819 -91 2034 -91 
Q 1250 -91 836 529 
Q 422 1150 422 2328 
Q 422 3509 836 4129 
Q 1250 4750 2034 4750 
z
" transform="scale(0.015625)"/>
       </defs>
       <use xlink:href="#DejaVuSans-30"/>
      </g>
     </g>
    </g>
    <g id="xtick_2">
     <g id="line2d_2">
      <g>
       <use xlink:href="#maa65f2bd6a" x="159.949826" y="384.48" style="stroke: #000000; stroke-width: 0.8"/>
      </g>
     </g>
     <g id="text_2">
      <!-- 500 -->
      <g transform="translate(150.406076 399.078438)scale(0.1 -0.1)">
       <defs>
        <path id="DejaVuSans-35" d="M 691 4666 
L 3169 4666 
L 3169 4134 
L 1269 4134 
L 1269 2991 
Q 1406 3038 1543 3061 
Q 1681 3084 1819 3084 
Q 2600 3084 3056 2656 
Q 3513 2228 3513 1497 
Q 3513 744 3044 326 
Q 2575 -91 1722 -91 
Q 1428 -91 1123 -41 
Q 819 9 494 109 
L 494 744 
Q 775 591 1075 516 
Q 1375 441 1709 441 
Q 2250 441 2565 725 
Q 2881 1009 2881 1497 
Q 2881 1984 2565 2268 
Q 2250 2553 1709 2553 
Q 1456 2553 1204 2497 
Q 953 2441 691 2322 
L 691 4666 
z
" transform="scale(0.015625)"/>
       </defs>
       <use xlink:href="#DejaVuSans-35"/>
       <use xlink:href="#DejaVuSans-30" x="63.623047"/>
       <use xlink:href="#DejaVuSans-30" x="127.246094"/>
      </g>
     </g>
    </g>
    <g id="xtick_3">
     <g id="line2d_3">
      <g>
       <use xlink:href="#maa65f2bd6a" x="227.608742" y="384.48" style="stroke: #000000; stroke-width: 0.8"/>
      </g>
     </g>
     <g id="text_3">
      <!-- 1000 -->
      <g transform="translate(214.883742 399.078438)scale(0.1 -0.1)">
       <defs>
        <path id="DejaVuSans-31" d="M 794 531 
L 1825 531 
L 1825 4091 
L 703 3866 
L 703 4441 
L 1819 4666 
L 2450 4666 
L 2450 531 
L 3481 531 
L 3481 0 
L 794 0 
L 794 531 
z
" transform="scale(0.015625)"/>
       </defs>
       <use xlink:href="#DejaVuSans-31"/>
       <use xlink:href="#DejaVuSans-30" x="63.623047"/>
       <use xlink:href="#DejaVuSans-30" x="127.246094"/>
       <use xlink:href="#DejaVuSans-30" x="190.869141"/>
      </g>
     </g>
    </g>
    <g id="xtick_4">
     <g id="line2d_4">
      <g>
       <use xlink:href="#maa65f2bd6a" x="295.267659" y="384.48" style="stroke: #000000; stroke-width: 0.8"/>
      </g>
     </g>
     <g id="text_4">
      <!-- 1500 -->
      <g transform="translate(282.542659 399.078438)scale(0.1 -0.1)">
       <use xlink:href="#DejaVuSans-31"/>
       <use xlink:href="#DejaVuSans-35" x="63.623047"/>
       <use xlink:href="#DejaVuSans-30" x="127.246094"/>
       <use xlink:href="#DejaVuSans-30" x="190.869141"/>
      </g>
     </g>
    </g>
    <g id="xtick_5">
     <g id="line2d_5">
      <g>
       <use xlink:href="#maa65f2bd6a" x="362.926576" y="384.48" style="stroke: #000000; stroke-width: 0.8"/>
      </g>
     </g>
     <g id="text_5">
      <!-- 2000 -->
      <g transform="translate(350.201576 399.078438)scale(0.1 -0.1)">
       <defs>
        <path id="DejaVuSans-32" d="M 1228 531 
L 3431 531 
L 3431 0 
L 469 0 
L 469 531 
Q 828 903 1448 1529 
Q 2069 2156 2228 2338 
Q 2531 2678 2651 2914 
Q 2772 3150 2772 3378 
Q 2772 3750 2511 3984 
Q 2250 4219 1831 4219 
Q 1534 4219 1204 4116 
Q 875 4013 500 3803 
L 500 4441 
Q 881 4594 1212 4672 
Q 1544 4750 1819 4750 
Q 2544 4750 2975 4387 
Q 3406 4025 3406 3419 
Q 3406 3131 3298 2873 
Q 3191 2616 2906 2266 
Q 2828 2175 2409 1742 
Q 1991 1309 1228 531 
z
" transform="scale(0.015625)"/>
       </defs>
       <use xlink:href="#DejaVuSans-32"/>
       <use xlink:href="#DejaVuSans-30" x="63.623047"/>
       <use xlink:href="#DejaVuSans-30" x="127.246094"/>
       <use xlink:href="#DejaVuSans-30" x="190.869141"/>
      </g>
     </g>
    </g>
    <g id="xtick_6">
     <g id="line2d_6">
      <g>
       <use xlink:href="#maa65f2bd6a" x="430.585492" y="384.48" style="stroke: #000000; stroke-width: 0.8"/>
      </g>
     </g>
     <g id="text_6">
      <!-- 2500 -->
      <g transform="translate(417.860492 399.078438)scale(0.1 -0.1)">
       <use xlink:href="#DejaVuSans-32"/>
       <use xlink:href="#DejaVuSans-35" x="63.623047"/>
       <use xlink:href="#DejaVuSans-30" x="127.246094"/>
       <use xlink:href="#DejaVuSans-30" x="190.869141"/>
      </g>
     </g>
    </g>
    <g id="xtick_7">
     <g id="line2d_7">
      <g>
       <use xlink:href="#maa65f2bd6a" x="498.244409" y="384.48" style="stroke: #000000; stroke-width: 0.8"/>
      </g>
     </g>
     <g id="text_7">
      <!-- 3000 -->
      <g transform="translate(485.519409 399.078438)scale(0.1 -0.1)">
       <defs>
        <path id="DejaVuSans-33" d="M 2597 2516 
Q 3050 2419 3304 2112 
Q 3559 1806 3559 1356 
Q 3559 666 3084 287 
Q 2609 -91 1734 -91 
Q 1441 -91 1130 -33 
Q 819 25 488 141 
L 488 750 
Q 750 597 1062 519 
Q 1375 441 1716 441 
Q 2309 441 2620 675 
Q 2931 909 2931 1356 
Q 2931 1769 2642 2001 
Q 2353 2234 1838 2234 
L 1294 2234 
L 1294 2753 
L 1863 2753 
Q 2328 2753 2575 2939 
Q 2822 3125 2822 3475 
Q 2822 3834 2567 4026 
Q 2313 4219 1838 4219 
Q 1578 4219 1281 4162 
Q 984 4106 628 3988 
L 628 4550 
Q 988 4650 1302 4700 
Q 1616 4750 1894 4750 
Q 2613 4750 3031 4423 
Q 3450 4097 3450 3541 
Q 3450 3153 3228 2886 
Q 3006 2619 2597 2516 
z
" transform="scale(0.015625)"/>
       </defs>
       <use xlink:href="#DejaVuSans-33"/>
       <use xlink:href="#DejaVuSans-30" x="63.623047"/>
       <use xlink:href="#DejaVuSans-30" x="127.246094"/>
       <use xlink:href="#DejaVuSans-30" x="190.869141"/>
      </g>
     </g>
    </g>
    <g id="text_8">
     <!-- Epochs -->
     <g transform="translate(277.284375 412.756563)scale(0.1 -0.1)">
      <defs>
       <path id="DejaVuSans-45" d="M 628 4666 
L 3578 4666 
L 3578 4134 
L 1259 4134 
L 1259 2753 
L 3481 2753 
L 3481 2222 
L 1259 2222 
L 1259 531 
L 3634 531 
L 3634 0 
L 628 0 
L 628 4666 
z
" transform="scale(0.015625)"/>
       <path id="DejaVuSans-70" d="M 1159 525 
L 1159 -1331 
L 581 -1331 
L 581 3500 
L 1159 3500 
L 1159 2969 
Q 1341 3281 1617 3432 
Q 1894 3584 2278 3584 
Q 2916 3584 3314 3078 
Q 3713 2572 3713 1747 
Q 3713 922 3314 415 
Q 2916 -91 2278 -91 
Q 1894 -91 1617 61 
Q 1341 213 1159 525 
z
M 3116 1747 
Q 3116 2381 2855 2742 
Q 2594 3103 2138 3103 
Q 1681 3103 1420 2742 
Q 1159 2381 1159 1747 
Q 1159 1113 1420 752 
Q 1681 391 2138 391 
Q 2594 391 2855 752 
Q 3116 1113 3116 1747 
z
" transform="scale(0.015625)"/>
       <path id="DejaVuSans-6f" d="M 1959 3097 
Q 1497 3097 1228 2736 
Q 959 2375 959 1747 
Q 959 1119 1226 758 
Q 1494 397 1959 397 
Q 2419 397 2687 759 
Q 2956 1122 2956 1747 
Q 2956 2369 2687 2733 
Q 2419 3097 1959 3097 
z
M 1959 3584 
Q 2709 3584 3137 3096 
Q 3566 2609 3566 1747 
Q 3566 888 3137 398 
Q 2709 -91 1959 -91 
Q 1206 -91 779 398 
Q 353 888 353 1747 
Q 353 2609 779 3096 
Q 1206 3584 1959 3584 
z
" transform="scale(0.015625)"/>
       <path id="DejaVuSans-63" d="M 3122 3366 
L 3122 2828 
Q 2878 2963 2633 3030 
Q 2388 3097 2138 3097 
Q 1578 3097 1268 2742 
Q 959 2388 959 1747 
Q 959 1106 1268 751 
Q 1578 397 2138 397 
Q 2388 397 2633 464 
Q 2878 531 3122 666 
L 3122 134 
Q 2881 22 2623 -34 
Q 2366 -91 2075 -91 
Q 1284 -91 818 406 
Q 353 903 353 1747 
Q 353 2603 823 3093 
Q 1294 3584 2113 3584 
Q 2378 3584 2631 3529 
Q 2884 3475 3122 3366 
z
" transform="scale(0.015625)"/>
       <path id="DejaVuSans-68" d="M 3513 2113 
L 3513 0 
L 2938 0 
L 2938 2094 
Q 2938 2591 2744 2837 
Q 2550 3084 2163 3084 
Q 1697 3084 1428 2787 
Q 1159 2491 1159 1978 
L 1159 0 
L 581 0 
L 581 4863 
L 1159 4863 
L 1159 2956 
Q 1366 3272 1645 3428 
Q 1925 3584 2291 3584 
Q 2894 3584 3203 3211 
Q 3513 2838 3513 2113 
z
" transform="scale(0.015625)"/>
       <path id="DejaVuSans-73" d="M 2834 3397 
L 2834 2853 
Q 2591 2978 2328 3040 
Q 2066 3103 1784 3103 
Q 1356 3103 1142 2972 
Q 928 2841 928 2578 
Q 928 2378 1081 2264 
Q 1234 2150 1697 2047 
L 1894 2003 
Q 2506 1872 2764 1633 
Q 3022 1394 3022 966 
Q 3022 478 2636 193 
Q 2250 -91 1575 -91 
Q 1294 -91 989 -36 
Q 684 19 347 128 
L 347 722 
Q 666 556 975 473 
Q 1284 391 1588 391 
Q 1994 391 2212 530 
Q 2431 669 2431 922 
Q 2431 1156 2273 1281 
Q 2116 1406 1581 1522 
L 1381 1569 
Q 847 1681 609 1914 
Q 372 2147 372 2553 
Q 372 3047 722 3315 
Q 1072 3584 1716 3584 
Q 2034 3584 2315 3537 
Q 2597 3491 2834 3397 
z
" transform="scale(0.015625)"/>
      </defs>
      <use xlink:href="#DejaVuSans-45"/>
      <use xlink:href="#DejaVuSans-70" x="63.183594"/>
      <use xlink:href="#DejaVuSans-6f" x="126.660156"/>
      <use xlink:href="#DejaVuSans-63" x="187.841797"/>
      <use xlink:href="#DejaVuSans-68" x="242.822266"/>
      <use xlink:href="#DejaVuSans-73" x="306.201172"/>
     </g>
    </g>
   </g>
   <g id="matplotlib.axis_2">
    <g id="ytick_1">
     <g id="line2d_8">
      <defs>
       <path id="meb65b8ca83" d="M 0 0 
L -3.5 0 
" style="stroke: #000000; stroke-width: 0.8"/>
      </defs>
      <g>
       <use xlink:href="#meb65b8ca83" x="72" y="384.48" style="stroke: #000000; stroke-width: 0.8"/>
      </g>
     </g>
     <g id="text_9">
      <!-- 0.0 -->
      <g transform="translate(49.096875 388.279219)scale(0.1 -0.1)">
       <defs>
        <path id="DejaVuSans-2e" d="M 684 794 
L 1344 794 
L 1344 0 
L 684 0 
L 684 794 
z
" transform="scale(0.015625)"/>
       </defs>
       <use xlink:href="#DejaVuSans-30"/>
       <use xlink:href="#DejaVuSans-2e" x="63.623047"/>
       <use xlink:href="#DejaVuSans-30" x="95.410156"/>
      </g>
     </g>
    </g>
    <g id="ytick_2">
     <g id="line2d_9">
      <g>
       <use xlink:href="#meb65b8ca83" x="72" y="317.952" style="stroke: #000000; stroke-width: 0.8"/>
      </g>
     </g>
     <g id="text_10">
      <!-- 0.2 -->
      <g transform="translate(49.096875 321.751219)scale(0.1 -0.1)">
       <use xlink:href="#DejaVuSans-30"/>
       <use xlink:href="#DejaVuSans-2e" x="63.623047"/>
       <use xlink:href="#DejaVuSans-32" x="95.410156"/>
      </g>
     </g>
    </g>
    <g id="ytick_3">
     <g id="line2d_10">
      <g>
       <use xlink:href="#meb65b8ca83" x="72" y="251.424" style="stroke: #000000; stroke-width: 0.8"/>
      </g>
     </g>
     <g id="text_11">
      <!-- 0.4 -->
      <g transform="translate(49.096875 255.223219)scale(0.1 -0.1)">
       <defs>
        <path id="DejaVuSans-34" d="M 2419 4116 
L 825 1625 
L 2419 1625 
L 2419 4116 
z
M 2253 4666 
L 3047 4666 
L 3047 1625 
L 3713 1625 
L 3713 1100 
L 3047 1100 
L 3047 0 
L 2419 0 
L 2419 1100 
L 313 1100 
L 313 1709 
L 2253 4666 
z
" transform="scale(0.015625)"/>
       </defs>
       <use xlink:href="#DejaVuSans-30"/>
       <use xlink:href="#DejaVuSans-2e" x="63.623047"/>
       <use xlink:href="#DejaVuSans-34" x="95.410156"/>
      </g>
     </g>
    </g>
    <g id="ytick_4">
     <g id="line2d_11">
      <g>
       <use xlink:href="#meb65b8ca83" x="72" y="184.896" style="stroke: #000000; stroke-width: 0.8"/>
      </g>
     </g>
     <g id="text_12">
      <!-- 0.6 -->
      <g transform="translate(49.096875 188.695219)scale(0.1 -0.1)">
       <defs>
        <path id="DejaVuSans-36" d="M 2113 2584 
Q 1688 2584 1439 2293 
Q 1191 2003 1191 1497 
Q 1191 994 1439 701 
Q 1688 409 2113 409 
Q 2538 409 2786 701 
Q 3034 994 3034 1497 
Q 3034 2003 2786 2293 
Q 2538 2584 2113 2584 
z
M 3366 4563 
L 3366 3988 
Q 3128 4100 2886 4159 
Q 2644 4219 2406 4219 
Q 1781 4219 1451 3797 
Q 1122 3375 1075 2522 
Q 1259 2794 1537 2939 
Q 1816 3084 2150 3084 
Q 2853 3084 3261 2657 
Q 3669 2231 3669 1497 
Q 3669 778 3244 343 
Q 2819 -91 2113 -91 
Q 1303 -91 875 529 
Q 447 1150 447 2328 
Q 447 3434 972 4092 
Q 1497 4750 2381 4750 
Q 2619 4750 2861 4703 
Q 3103 4656 3366 4563 
z
" transform="scale(0.015625)"/>
       </defs>
       <use xlink:href="#DejaVuSans-30"/>
       <use xlink:href="#DejaVuSans-2e" x="63.623047"/>
       <use xlink:href="#DejaVuSans-36" x="95.410156"/>
      </g>
     </g>
    </g>
    <g id="ytick_5">
     <g id="line2d_12">
      <g>
       <use xlink:href="#meb65b8ca83" x="72" y="118.368" style="stroke: #000000; stroke-width: 0.8"/>
      </g>
     </g>
     <g id="text_13">
      <!-- 0.8 -->
      <g transform="translate(49.096875 122.167219)scale(0.1 -0.1)">
       <defs>
        <path id="DejaVuSans-38" d="M 2034 2216 
Q 1584 2216 1326 1975 
Q 1069 1734 1069 1313 
Q 1069 891 1326 650 
Q 1584 409 2034 409 
Q 2484 409 2743 651 
Q 3003 894 3003 1313 
Q 3003 1734 2745 1975 
Q 2488 2216 2034 2216 
z
M 1403 2484 
Q 997 2584 770 2862 
Q 544 3141 544 3541 
Q 544 4100 942 4425 
Q 1341 4750 2034 4750 
Q 2731 4750 3128 4425 
Q 3525 4100 3525 3541 
Q 3525 3141 3298 2862 
Q 3072 2584 2669 2484 
Q 3125 2378 3379 2068 
Q 3634 1759 3634 1313 
Q 3634 634 3220 271 
Q 2806 -91 2034 -91 
Q 1263 -91 848 271 
Q 434 634 434 1313 
Q 434 1759 690 2068 
Q 947 2378 1403 2484 
z
M 1172 3481 
Q 1172 3119 1398 2916 
Q 1625 2713 2034 2713 
Q 2441 2713 2670 2916 
Q 2900 3119 2900 3481 
Q 2900 3844 2670 4047 
Q 2441 4250 2034 4250 
Q 1625 4250 1398 4047 
Q 1172 3844 1172 3481 
z
" transform="scale(0.015625)"/>
       </defs>
       <use xlink:href="#DejaVuSans-30"/>
       <use xlink:href="#DejaVuSans-2e" x="63.623047"/>
       <use xlink:href="#DejaVuSans-38" x="95.410156"/>
      </g>
     </g>
    </g>
    <g id="ytick_6">
     <g id="line2d_13">
      <g>
       <use xlink:href="#meb65b8ca83" x="72" y="51.84" style="stroke: #000000; stroke-width: 0.8"/>
      </g>
     </g>
     <g id="text_14">
      <!-- 1.0 -->
      <g transform="translate(49.096875 55.639219)scale(0.1 -0.1)">
       <use xlink:href="#DejaVuSans-31"/>
       <use xlink:href="#DejaVuSans-2e" x="63.623047"/>
       <use xlink:href="#DejaVuSans-30" x="95.410156"/>
      </g>
     </g>
    </g>
    <g id="text_15">
     <!-- AUCROC -->
     <g transform="translate(43.017187 239.632656)rotate(-90)scale(0.1 -0.1)">
      <defs>
       <path id="DejaVuSans-41" d="M 2188 4044 
L 1331 1722 
L 3047 1722 
L 2188 4044 
z
M 1831 4666 
L 2547 4666 
L 4325 0 
L 3669 0 
L 3244 1197 
L 1141 1197 
L 716 0 
L 50 0 
L 1831 4666 
z
" transform="scale(0.015625)"/>
       <path id="DejaVuSans-55" d="M 556 4666 
L 1191 4666 
L 1191 1831 
Q 1191 1081 1462 751 
Q 1734 422 2344 422 
Q 2950 422 3222 751 
Q 3494 1081 3494 1831 
L 3494 4666 
L 4128 4666 
L 4128 1753 
Q 4128 841 3676 375 
Q 3225 -91 2344 -91 
Q 1459 -91 1007 375 
Q 556 841 556 1753 
L 556 4666 
z
" transform="scale(0.015625)"/>
       <path id="DejaVuSans-43" d="M 4122 4306 
L 4122 3641 
Q 3803 3938 3442 4084 
Q 3081 4231 2675 4231 
Q 1875 4231 1450 3742 
Q 1025 3253 1025 2328 
Q 1025 1406 1450 917 
Q 1875 428 2675 428 
Q 3081 428 3442 575 
Q 3803 722 4122 1019 
L 4122 359 
Q 3791 134 3420 21 
Q 3050 -91 2638 -91 
Q 1578 -91 968 557 
Q 359 1206 359 2328 
Q 359 3453 968 4101 
Q 1578 4750 2638 4750 
Q 3056 4750 3426 4639 
Q 3797 4528 4122 4306 
z
" transform="scale(0.015625)"/>
       <path id="DejaVuSans-52" d="M 2841 2188 
Q 3044 2119 3236 1894 
Q 3428 1669 3622 1275 
L 4263 0 
L 3584 0 
L 2988 1197 
Q 2756 1666 2539 1819 
Q 2322 1972 1947 1972 
L 1259 1972 
L 1259 0 
L 628 0 
L 628 4666 
L 2053 4666 
Q 2853 4666 3247 4331 
Q 3641 3997 3641 3322 
Q 3641 2881 3436 2590 
Q 3231 2300 2841 2188 
z
M 1259 4147 
L 1259 2491 
L 2053 2491 
Q 2509 2491 2742 2702 
Q 2975 2913 2975 3322 
Q 2975 3731 2742 3939 
Q 2509 4147 2053 4147 
L 1259 4147 
z
" transform="scale(0.015625)"/>
       <path id="DejaVuSans-4f" d="M 2522 4238 
Q 1834 4238 1429 3725 
Q 1025 3213 1025 2328 
Q 1025 1447 1429 934 
Q 1834 422 2522 422 
Q 3209 422 3611 934 
Q 4013 1447 4013 2328 
Q 4013 3213 3611 3725 
Q 3209 4238 2522 4238 
z
M 2522 4750 
Q 3503 4750 4090 4092 
Q 4678 3434 4678 2328 
Q 4678 1225 4090 567 
Q 3503 -91 2522 -91 
Q 1538 -91 948 565 
Q 359 1222 359 2328 
Q 359 3434 948 4092 
Q 1538 4750 2522 4750 
z
" transform="scale(0.015625)"/>
      </defs>
      <use xlink:href="#DejaVuSans-41"/>
      <use xlink:href="#DejaVuSans-55" x="68.408203"/>
      <use xlink:href="#DejaVuSans-43" x="141.601562"/>
      <use xlink:href="#DejaVuSans-52" x="211.425781"/>
      <use xlink:href="#DejaVuSans-4f" x="280.908203"/>
      <use xlink:href="#DejaVuSans-43" x="359.619141"/>
     </g>
    </g>
   </g>
   <g id="line2d_14">
    <path d="M 92.290909 235.090371 
L 92.561545 234.816987 
L 92.967498 233.865038 
L 93.914723 230.698733 
L 95.403219 225.879826 
L 95.809173 225.129337 
L 96.215126 224.79322 
L 96.756398 224.732689 
L 98.244894 224.97328 
L 98.921483 225.271725 
L 99.462754 225.803085 
L 100.409979 227.167745 
L 101.898475 229.289133 
L 102.304429 229.490858 
L 102.575064 229.383878 
L 102.981018 228.861214 
L 103.657607 227.44674 
L 105.281421 223.509341 
L 105.822692 221.63743 
L 106.499282 218.31138 
L 108.799685 204.789387 
L 112.85922 180.935199 
L 113.671127 178.391321 
L 115.565576 173.430247 
L 116.106848 172.434275 
L 116.648119 171.847214 
L 117.730662 171.149342 
L 119.354476 170.296659 
L 120.301701 170.115767 
L 123.008057 169.770887 
L 124.631871 169.132464 
L 126.796957 168.122689 
L 130.044585 166.427538 
L 133.021577 165.549821 
L 136.539841 164.750925 
L 139.787469 164.176042 
L 140.734693 163.574911 
L 142.899779 162.128126 
L 143.576368 162.008848 
L 144.794228 162.138734 
L 146.55336 162.273528 
L 147.771221 162.04208 
L 150.612895 161.482959 
L 153.319252 161.087628 
L 154.401795 160.575891 
L 156.296244 159.658093 
L 156.972833 159.618833 
L 157.920058 159.877002 
L 159.543872 160.313628 
L 159.949826 160.227017 
L 160.491097 159.837119 
L 161.57364 158.600215 
L 163.062136 156.971366 
L 163.603407 156.74136 
L 164.144679 156.792521 
L 165.90381 157.39083 
L 167.256989 157.748276 
L 169.69271 158.043637 
L 170.369299 157.913065 
L 171.316524 157.427366 
L 173.481609 156.255573 
L 174.428834 156.074682 
L 177.135191 155.707467 
L 178.623687 155.043404 
L 180.112183 154.434562 
L 180.788772 154.386716 
L 182.412586 154.61462 
L 183.765764 154.726476 
L 184.983625 154.540147 
L 187.419346 153.9556 
L 191.478881 152.543714 
L 193.779284 152.01461 
L 194.726509 151.436076 
L 197.16223 149.795399 
L 197.974137 149.589113 
L 200.951129 149.115766 
L 204.198757 147.962178 
L 205.010664 148.154644 
L 207.175749 148.738723 
L 207.717021 148.62765 
L 208.664246 148.147547 
L 211.776556 146.25717 
L 213.941641 144.909119 
L 214.61823 144.753151 
L 216.106726 144.751408 
L 217.459905 144.68098 
L 218.40713 144.362883 
L 221.925393 142.987315 
L 224.225796 142.190095 
L 225.173021 141.513877 
L 227.473424 139.748706 
L 228.150014 139.579634 
L 229.367874 139.635571 
L 231.262324 139.673665 
L 233.021456 139.322204 
L 234.374634 138.935067 
L 235.457177 138.320465 
L 238.434169 136.519736 
L 240.86989 135.49102 
L 241.546479 135.475995 
L 242.629022 135.784646 
L 246.011968 136.803226 
L 247.771099 137.142748 
L 248.447689 137.000826 
L 249.936185 136.327797 
L 251.289363 135.808441 
L 252.10127 135.774442 
L 254.536991 135.860308 
L 255.078262 135.608123 
L 256.160805 134.754213 
L 257.784619 133.481458 
L 258.32589 133.294243 
L 259.00248 133.302898 
L 261.979472 133.57985 
L 264.550511 133.168501 
L 266.039007 132.734985 
L 268.068774 132.144609 
L 268.880681 132.197667 
L 272.128309 132.773116 
L 274.428713 132.425175 
L 277.541023 131.786924 
L 278.894201 131.627962 
L 282.277147 131.499095 
L 285.118821 130.848951 
L 285.795411 131.054001 
L 288.366449 132.193906 
L 288.907721 132.043343 
L 289.719628 131.462012 
L 292.020031 129.709721 
L 293.102574 129.307839 
L 295.267659 128.745449 
L 296.350202 128.752041 
L 298.785923 128.840064 
L 300.003783 128.557456 
L 302.033551 128.102295 
L 302.980775 128.206303 
L 305.281179 128.583639 
L 305.957768 128.397904 
L 307.446264 127.608972 
L 308.799442 126.986861 
L 309.611349 126.900782 
L 312.04707 127.024382 
L 313.400249 127.330742 
L 315.294698 127.766405 
L 315.971287 127.64645 
L 317.05383 127.105218 
L 318.677644 126.315914 
L 319.218915 126.294518 
L 319.895505 126.515204 
L 322.195908 127.457786 
L 322.737179 127.421599 
L 323.684404 127.072549 
L 325.849489 126.246362 
L 327.06735 126.137805 
L 329.097117 126.150554 
L 330.044342 126.435286 
L 332.07411 127.134166 
L 332.615381 127.036384 
L 333.156652 126.660852 
L 334.645148 125.171694 
L 335.727691 124.229984 
L 336.268962 124.036679 
L 337.080869 124.040384 
L 343.30549 124.496943 
L 347.500343 123.593961 
L 350.342017 123.089486 
L 353.183692 122.90175 
L 356.837273 123.235046 
L 360.220219 123.614249 
L 363.197211 124.189512 
L 364.821025 124.064556 
L 366.715475 123.764543 
L 369.286514 122.910383 
L 371.451599 122.016109 
L 372.940095 121.460011 
L 373.752002 121.432835 
L 379.029398 121.900548 
L 380.11194 122.036166 
L 381.871072 122.593257 
L 383.224251 122.954974 
L 384.171475 122.951064 
L 387.148468 122.591109 
L 390.802049 121.949223 
L 393.373088 121.917003 
L 394.455631 122.167265 
L 397.026669 122.80145 
L 398.650483 122.772953 
L 400.815569 122.798529 
L 403.657243 122.999814 
L 404.739786 122.705034 
L 406.769553 122.142631 
L 407.446143 122.248132 
L 408.934639 122.860507 
L 410.152499 123.293384 
L 410.829088 123.314485 
L 412.452902 123.02248 
L 413.806081 122.868478 
L 415.023941 123.048761 
L 416.918391 123.322437 
L 417.59498 123.174534 
L 419.354112 122.406257 
L 420.436655 122.03056 
L 421.248562 122.0005 
L 424.225554 122.107356 
L 426.255321 121.57741 
L 427.202546 121.445778 
L 428.014453 121.608573 
L 430.856128 122.431073 
L 432.073988 122.336743 
L 434.103756 122.199122 
L 435.321616 122.433589 
L 437.351384 122.80427 
L 438.163291 122.682029 
L 441.816872 121.872372 
L 445.0645 121.437311 
L 447.500221 121.02338 
L 448.312128 121.173776 
L 451.695074 122.055436 
L 454.266113 122.227978 
L 455.348656 121.990189 
L 457.919694 121.348822 
L 459.543508 121.347321 
L 461.708594 121.278953 
L 464.41495 121.02338 
L 465.226857 121.237964 
L 468.20385 122.227708 
L 470.098299 122.290519 
L 471.586796 122.217398 
L 474.42847 121.664916 
L 477.946734 120.998967 
L 478.623323 121.195844 
L 481.464997 122.311696 
L 482.141587 122.146058 
L 485.253897 121.027066 
L 487.418982 120.896345 
L 488.230889 120.988201 
L 489.178114 121.357768 
L 491.343199 122.248608 
L 492.019788 122.194044 
L 493.372967 121.697875 
L 494.996781 121.153029 
L 496.349959 121.021252 
L 498.109091 120.938649 
L 498.109091 120.938649 
" clip-path="url(#pbb2e86fced)" style="fill: none; stroke: #ff0000; stroke-linecap: square"/>
   </g>
   <g id="line2d_15">
    <path d="M 92.290909 225.032274 
L 92.696863 224.792229 
L 93.238134 224.097018 
L 94.997266 221.282915 
L 95.673855 219.841673 
L 96.350444 217.806075 
L 98.650847 209.647457 
L 100.680615 201.812327 
L 102.169111 196.299221 
L 102.710382 195.106397 
L 103.251654 194.543532 
L 104.198878 194.058848 
L 105.552057 193.328414 
L 106.228646 192.618602 
L 107.446506 190.817155 
L 109.611592 187.667745 
L 112.317948 184.533427 
L 115.97153 180.406659 
L 116.648119 180.038921 
L 119.354476 178.945275 
L 120.031065 178.136233 
L 122.737422 174.34128 
L 123.278693 174.100592 
L 124.0906 174.079309 
L 126.391003 174.303413 
L 128.420771 174.884571 
L 129.232678 175.229707 
L 129.773949 175.668323 
L 130.721174 176.815928 
L 133.021577 180.008534 
L 134.510073 182.665385 
L 135.863251 184.962899 
L 136.269205 185.317384 
L 136.675158 185.356049 
L 137.21643 185.052208 
L 139.787469 183.159384 
L 140.464058 183.166681 
L 146.012089 184.052785 
L 146.688678 183.872487 
L 147.500585 183.365106 
L 150.34226 181.452837 
L 152.777981 180.366575 
L 153.589888 180.190058 
L 155.078384 180.186432 
L 156.56688 180.313271 
L 157.514105 180.668811 
L 159.67919 181.576694 
L 160.220461 181.539252 
L 160.897051 181.230742 
L 164.821268 179.071026 
L 169.69271 176.961045 
L 170.369299 176.866795 
L 171.316524 177.004997 
L 175.646694 177.815065 
L 176.729237 177.878309 
L 177.405826 177.678059 
L 179.02964 176.812951 
L 180.112183 176.348769 
L 180.653454 176.335797 
L 181.600679 176.592602 
L 183.359811 177.069596 
L 183.901082 176.962616 
L 184.712989 176.477327 
L 186.878075 175.032552 
L 187.554664 174.913274 
L 188.772524 175.043192 
L 190.802292 175.229899 
L 193.373331 175.064981 
L 194.320555 174.815218 
L 197.568183 173.673803 
L 198.921362 173.769925 
L 200.139222 173.804545 
L 200.680493 173.589591 
L 201.357083 172.996945 
L 203.928121 170.416572 
L 204.469393 170.319908 
L 205.416618 170.50248 
L 207.040432 170.8227 
L 207.581703 170.71572 
L 208.39361 170.278552 
L 210.558695 169.028575 
L 211.099967 169.00669 
L 211.911874 169.241765 
L 213.806323 169.846151 
L 214.347595 169.781963 
L 215.159502 169.384922 
L 217.459905 168.111427 
L 218.271812 167.989315 
L 220.842851 168.009549 
L 224.090479 168.188909 
L 224.63175 167.760704 
L 225.443657 166.711391 
L 227.338107 164.199142 
L 227.879378 163.888901 
L 228.420649 163.884741 
L 229.909145 164.270926 
L 231.803595 164.908984 
L 236.810355 166.833455 
L 237.622262 167.001623 
L 238.298851 166.883893 
L 239.652029 166.279396 
L 240.734572 165.85266 
L 241.275843 165.868682 
L 241.817115 166.127736 
L 243.440929 167.33925 
L 244.252836 167.810443 
L 244.658789 167.844632 
L 245.200061 167.631424 
L 246.417921 166.757463 
L 248.447689 165.105804 
L 251.154045 162.707323 
L 251.695317 162.628899 
L 252.371906 162.818834 
L 254.942945 163.931951 
L 257.784619 165.318035 
L 258.190573 165.245867 
L 258.731844 164.874045 
L 260.085022 163.474274 
L 261.302883 162.319481 
L 261.979472 162.007008 
L 263.197332 161.820596 
L 265.091782 161.707492 
L 266.850914 161.988289 
L 268.068774 162.102211 
L 268.745364 161.932402 
L 270.504495 161.097562 
L 271.316402 160.80082 
L 271.857674 160.811518 
L 272.534263 161.072321 
L 274.969984 162.210585 
L 275.646573 162.223953 
L 277.676341 161.878279 
L 279.300155 161.460923 
L 282.006511 160.71793 
L 283.765643 160.651989 
L 285.389457 160.716413 
L 287.419225 161.169528 
L 288.907721 161.410699 
L 291.343442 161.410661 
L 292.290667 161.248553 
L 294.320434 160.51735 
L 295.267659 160.275802 
L 296.079566 160.30993 
L 298.785923 160.622741 
L 299.733147 160.349735 
L 302.304186 159.505806 
L 303.928 159.376061 
L 306.093086 159.344938 
L 308.664124 159.435009 
L 309.340714 159.181269 
L 311.099845 158.105417 
L 311.911752 157.710404 
L 312.453024 157.683659 
L 313.129613 157.930967 
L 315.700652 159.09304 
L 316.512559 159.065229 
L 318.94828 158.821811 
L 319.760187 159.080886 
L 322.331226 160.142098 
L 323.007815 160.125007 
L 325.037582 159.693794 
L 326.120125 159.316378 
L 329.503071 157.824955 
L 330.720931 157.878376 
L 333.021334 157.955966 
L 338.569366 157.644932 
L 339.381273 157.779252 
L 340.328497 158.217798 
L 342.628901 159.369464 
L 343.440808 159.479759 
L 345.741211 159.450599 
L 346.688436 159.238069 
L 351.42456 157.803794 
L 352.913056 157.564669 
L 354.130916 157.696812 
L 356.160684 157.928208 
L 357.107909 157.770449 
L 359.54363 157.271243 
L 360.355537 157.41376 
L 363.332529 158.176947 
L 365.226979 158.126655 
L 367.6627 157.923662 
L 369.963103 157.561609 
L 373.616684 156.599484 
L 375.646452 156.931657 
L 376.728995 157.00286 
L 378.352809 156.78179 
L 380.517894 156.536721 
L 383.765522 156.341493 
L 386.742514 155.827973 
L 387.554421 156.056967 
L 390.12546 156.936449 
L 391.208003 156.941212 
L 394.590948 156.645163 
L 397.161987 156.39313 
L 400.680251 156.436106 
L 403.657243 155.78738 
L 404.46915 156.047276 
L 406.904871 157.003814 
L 407.58146 156.983008 
L 411.640995 156.439643 
L 413.941399 156.589092 
L 415.835848 157.120317 
L 417.053709 157.37633 
L 418.000934 157.291044 
L 420.571972 156.912826 
L 421.654515 157.103624 
L 423.684283 157.465483 
L 424.360872 157.29312 
L 425.849368 156.533769 
L 427.067228 155.998665 
L 427.743818 155.961906 
L 429.232314 156.252229 
L 436.404159 157.707455 
L 437.622019 157.982862 
L 439.245833 158.714925 
L 440.463694 159.179916 
L 441.004965 159.147822 
L 441.681554 158.850757 
L 444.523229 157.37248 
L 446.282361 157.029859 
L 447.770857 156.661463 
L 449.800624 155.769239 
L 451.289121 155.213776 
L 453.454206 154.782827 
L 454.130795 154.783128 
L 454.672066 154.988192 
L 455.619291 155.651408 
L 457.649059 157.074921 
L 458.460966 157.301193 
L 460.490733 157.5169 
L 461.167322 157.403603 
L 461.979229 156.972937 
L 464.550268 155.429107 
L 465.497493 155.28138 
L 469.557028 155.107488 
L 472.263385 154.946596 
L 474.699106 154.761068 
L 475.916966 154.995535 
L 478.217369 155.44399 
L 480.247137 155.431903 
L 481.870951 155.503199 
L 484.983261 155.831073 
L 486.336439 155.527351 
L 488.095571 155.164552 
L 489.042796 155.228704 
L 492.019788 155.568564 
L 495.67337 155.345227 
L 498.109091 155.182113 
L 498.109091 155.182113 
" clip-path="url(#pbb2e86fced)" style="fill: none; stroke: #0000ff; stroke-linecap: square"/>
   </g>
   <g id="line2d_16">
    <path d="M 92.290909 211.793591 
L 92.561545 211.429079 
L 92.967498 210.159813 
L 93.914723 205.937945 
L 95.538537 198.817857 
L 96.215126 196.933546 
L 97.162351 195.175455 
L 98.515529 192.988498 
L 98.921483 192.638829 
L 99.192119 192.604061 
L 99.598072 192.849425 
L 100.274661 193.704703 
L 102.439747 196.669088 
L 103.251654 197.299602 
L 104.875468 198.153917 
L 105.281421 198.131683 
L 105.552057 197.857423 
L 105.822692 197.259274 
L 106.228646 195.686733 
L 106.905235 191.85938 
L 108.935003 179.896802 
L 109.340956 178.788076 
L 109.611592 178.564978 
L 109.882227 178.664243 
L 110.288181 179.151647 
L 111.911995 181.793477 
L 113.129855 184.067442 
L 115.97153 190.183424 
L 118.271933 195.788351 
L 119.354476 198.167662 
L 120.031065 199.1535 
L 121.654879 200.916541 
L 122.466786 201.606347 
L 122.872739 201.721071 
L 123.278693 201.638688 
L 124.0906 201.168522 
L 125.714414 200.177484 
L 126.255685 200.121165 
L 126.796957 200.338738 
L 128.150135 201.288995 
L 129.09736 201.869698 
L 129.503313 201.932119 
L 129.909267 201.80551 
L 130.585856 201.310216 
L 133.021577 199.339657 
L 133.968802 199.01753 
L 135.863251 198.648478 
L 136.404523 198.779887 
L 137.081112 199.257651 
L 139.246197 201.312714 
L 140.599376 202.841519 
L 143.035097 205.675332 
L 143.847004 206.246468 
L 146.012089 207.365435 
L 146.688678 207.520489 
L 147.635903 207.459226 
L 149.259717 207.32288 
L 149.66567 207.480933 
L 150.071624 207.860731 
L 150.748213 208.900131 
L 152.913298 212.485064 
L 153.319252 212.644053 
L 153.725205 212.444666 
L 154.401795 211.668788 
L 156.972833 208.107338 
L 159.67919 204.083689 
L 160.085144 203.85447 
L 160.491097 203.880594 
L 161.167686 204.240175 
L 163.197454 205.444154 
L 163.738725 205.483105 
L 164.68595 205.234484 
L 166.309764 204.612315 
L 166.851035 204.187984 
L 167.662942 203.177459 
L 169.828028 200.29567 
L 170.233981 200.111756 
L 170.639935 200.176465 
L 171.316524 200.592038 
L 173.346291 201.94141 
L 173.887563 201.991312 
L 174.69947 201.777654 
L 176.593919 201.009697 
L 177.270508 200.432569 
L 178.488369 198.955741 
L 179.976865 197.230142 
L 180.518136 196.946646 
L 181.059408 196.930081 
L 182.547904 197.236528 
L 183.359811 197.545592 
L 183.901082 198.016303 
L 184.712989 199.119371 
L 186.472121 201.579359 
L 186.742757 201.697577 
L 187.013392 201.591492 
L 187.284028 201.232215 
L 187.689982 200.293591 
L 188.772524 196.913346 
L 189.855067 193.689534 
L 190.26102 193.079085 
L 190.531656 193.073736 
L 190.802292 193.400662 
L 191.208245 194.348392 
L 192.426106 198.14353 
L 193.373331 200.86364 
L 193.779284 201.508706 
L 194.04992 201.64249 
L 194.320555 201.563141 
L 194.861827 201.027243 
L 198.921362 196.123809 
L 200.27454 194.838567 
L 200.815811 194.667399 
L 201.357083 194.766722 
L 203.116214 195.507469 
L 206.093207 196.673731 
L 207.581703 197.106874 
L 209.205517 197.206611 
L 211.370602 197.181049 
L 214.347595 196.95882 
L 215.971409 197.27573 
L 217.189269 197.421545 
L 217.73054 197.234331 
L 218.542447 196.610644 
L 220.707533 194.790128 
L 221.384122 194.5761 
L 222.601982 194.559269 
L 223.819843 194.68556 
L 224.361114 195.016658 
L 225.037703 195.817186 
L 227.473424 199.082773 
L 227.879378 199.217746 
L 228.420649 199.075838 
L 229.909145 198.200447 
L 230.85637 197.761855 
L 231.397642 197.735894 
L 232.344866 197.9886 
L 233.96868 198.434847 
L 234.509952 198.309301 
L 235.051223 197.909861 
L 236.810355 196.087812 
L 237.486944 195.570061 
L 237.892898 195.520494 
L 238.298851 195.708351 
L 239.110758 196.451933 
L 240.734572 197.996742 
L 241.140526 198.162361 
L 241.546479 198.125118 
L 242.223068 197.757966 
L 244.117518 196.545206 
L 244.523471 196.519399 
L 244.929425 196.705675 
L 245.606014 197.335083 
L 247.771099 199.543966 
L 248.312371 199.767326 
L 249.124278 199.7984 
L 252.236588 199.54085 
L 254.807627 199.282977 
L 256.160805 199.498882 
L 258.731844 200.118106 
L 261.167565 200.854656 
L 261.708836 200.72628 
L 262.385425 200.280313 
L 264.685829 198.587581 
L 265.2271 198.571306 
L 265.903689 198.830701 
L 268.33941 200.13929 
L 271.316402 202.002052 
L 271.722356 201.813865 
L 272.128309 201.325538 
L 272.940216 199.883844 
L 274.699348 196.759192 
L 275.105302 196.404434 
L 275.511255 196.311738 
L 276.187844 196.481602 
L 278.082294 197.305047 
L 278.758883 197.850411 
L 280.112062 199.348738 
L 281.46524 200.742985 
L 282.006511 200.962294 
L 282.547783 200.914671 
L 284.306914 200.346849 
L 288.366449 199.101478 
L 289.448992 199.04441 
L 291.749395 199.217472 
L 292.561302 199.553699 
L 295.673612 201.130196 
L 297.026791 201.247786 
L 299.327194 201.286926 
L 301.898233 201.014393 
L 302.71014 200.68952 
L 305.145861 199.515675 
L 305.551814 199.569744 
L 306.093086 199.90063 
L 307.446264 201.168402 
L 308.393489 201.957374 
L 308.799442 202.081768 
L 309.205396 201.989468 
L 309.881985 201.509754 
L 311.911752 199.86777 
L 312.453024 199.782186 
L 312.994295 199.959975 
L 315.565334 201.130828 
L 316.106605 200.95727 
L 317.189148 200.223393 
L 318.542326 199.353131 
L 318.94828 199.302147 
L 319.354233 199.449413 
L 320.030822 199.993004 
L 322.466543 202.167208 
L 323.413768 202.595756 
L 325.1729 203.151488 
L 325.714171 203.064534 
L 326.255443 202.648683 
L 327.337985 201.330572 
L 328.826482 199.598724 
L 329.232435 199.388503 
L 329.773706 199.39725 
L 330.856249 199.801042 
L 333.697924 200.85983 
L 335.592373 201.369017 
L 336.133645 201.310178 
L 336.945552 200.963267 
L 338.975319 199.992832 
L 339.51659 199.982134 
L 340.19318 200.216193 
L 342.358265 201.105419 
L 342.764218 201.009181 
L 343.30549 200.605264 
L 344.793986 198.975652 
L 345.741211 198.089153 
L 346.147164 197.950359 
L 346.553118 198.008671 
L 347.365025 198.430703 
L 350.612653 200.515209 
L 352.371785 201.601667 
L 352.777738 201.613731 
L 353.183692 201.409103 
L 353.860281 200.742175 
L 355.75473 198.704783 
L 356.160684 198.568773 
L 356.566637 198.704783 
L 357.107909 199.192237 
L 359.408312 201.593428 
L 359.814265 201.688099 
L 360.355537 201.553185 
L 361.979351 200.715633 
L 363.197211 200.182162 
L 364.956343 199.766542 
L 366.444839 199.545444 
L 367.6627 199.659561 
L 370.504374 200.150465 
L 374.022638 200.920385 
L 376.187723 201.090291 
L 376.864312 200.863356 
L 377.946855 200.15098 
L 379.300033 199.284982 
L 379.705987 199.234156 
L 380.11194 199.429713 
L 380.653212 200.024474 
L 383.088933 203.179213 
L 383.494886 203.2313 
L 383.90084 203.030676 
L 384.848065 202.178216 
L 386.336561 200.875335 
L 386.877832 200.704168 
L 387.554421 200.804255 
L 389.854824 201.407978 
L 390.396096 201.258695 
L 391.343321 200.67446 
L 393.779041 199.112896 
L 396.35008 197.988029 
L 397.973894 197.463785 
L 399.733026 197.062601 
L 400.274297 197.181273 
L 400.950887 197.653567 
L 404.063197 200.263142 
L 405.957646 201.025993 
L 406.634236 201.171982 
L 407.175507 201.048955 
L 407.852096 200.5954 
L 409.881864 199.073545 
L 410.287817 199.125952 
L 410.693771 199.498789 
L 411.37036 200.602072 
L 413.400127 204.156176 
L 413.806081 204.434134 
L 414.212034 204.407473 
L 414.753306 204.086968 
L 417.459662 202.194493 
L 419.083476 201.678463 
L 423.413647 200.490939 
L 424.225554 200.482915 
L 425.578732 200.793126 
L 427.202546 201.100037 
L 428.014453 200.993843 
L 431.126763 200.364173 
L 434.509709 200.221976 
L 437.080748 199.589403 
L 437.486702 199.746993 
L 438.027973 200.22263 
L 440.599012 202.959389 
L 441.004965 202.85276 
L 441.410919 202.460546 
L 442.493461 200.908419 
L 443.711322 199.239584 
L 444.117275 198.961457 
L 444.523229 198.950739 
L 445.0645 199.237367 
L 448.582764 201.655646 
L 450.612531 202.529746 
L 451.289121 202.536202 
L 452.236345 202.23922 
L 454.266113 201.588221 
L 455.07802 201.598133 
L 457.378423 201.751269 
L 457.919694 201.424981 
L 458.596284 200.660249 
L 460.626051 198.140244 
L 461.032005 197.997783 
L 461.437958 198.180361 
L 461.979229 198.789572 
L 464.550268 202.121077 
L 465.226857 202.437758 
L 471.045524 203.967318 
L 471.586796 203.73321 
L 472.398703 203.036865 
L 474.563788 201.083036 
L 475.375695 200.696295 
L 477.811416 199.955483 
L 479.029276 199.810106 
L 481.464997 199.761711 
L 482.818176 200.08457 
L 484.44199 200.418494 
L 484.983261 200.274071 
L 485.795168 199.726602 
L 487.824936 198.24587 
L 488.230889 198.192014 
L 488.77216 198.375639 
L 489.990021 199.177874 
L 492.56106 201.085227 
L 494.590827 202.603774 
L 495.132099 202.721451 
L 495.808688 202.583051 
L 498.109091 201.867688 
L 498.109091 201.867688 
" clip-path="url(#pbb2e86fced)" style="fill: none; stroke: #008000; stroke-linecap: square"/>
   </g>
   <g id="line2d_17">
    <path d="M 92.290909 208.872053 
L 92.561545 209.248922 
L 92.967498 210.561213 
L 93.914723 214.925732 
L 95.132584 220.355392 
L 95.538537 221.220397 
L 95.673855 221.265018 
L 95.944491 220.954277 
L 96.350444 219.650603 
L 97.162351 215.72587 
L 98.786165 207.856681 
L 99.327436 206.348268 
L 99.73339 205.804114 
L 100.274661 205.462507 
L 102.169111 204.517053 
L 102.710382 203.912618 
L 103.522289 202.578887 
L 105.95801 198.384754 
L 107.040553 197.152251 
L 108.664367 195.60182 
L 109.07032 195.481041 
L 109.476274 195.667122 
L 110.017545 196.331233 
L 112.723902 200.327294 
L 113.265173 200.507944 
L 114.212398 200.479973 
L 116.106848 200.439091 
L 117.324708 200.742752 
L 119.489794 201.487125 
L 120.842972 202.315105 
L 122.466786 203.256709 
L 123.008057 203.310199 
L 123.684646 203.110597 
L 125.714414 202.367743 
L 126.120367 202.534874 
L 126.526321 202.985551 
L 127.20291 204.163097 
L 129.503313 208.452779 
L 130.179902 209.22986 
L 132.886259 211.838302 
L 133.562848 213.15327 
L 136.539841 219.599315 
L 137.351748 220.443972 
L 140.058104 222.666083 
L 142.493825 224.249553 
L 143.035097 224.360708 
L 143.576368 224.174667 
L 144.523593 223.472263 
L 145.876771 222.471077 
L 146.282725 222.375806 
L 146.688678 222.522438 
L 147.229949 223.045893 
L 149.66567 225.931161 
L 150.071624 226.023964 
L 150.612895 225.841013 
L 152.101391 224.871551 
L 156.025609 222.110879 
L 156.56688 221.477139 
L 157.243469 220.265436 
L 160.220461 214.311906 
L 160.897051 213.729752 
L 162.656182 212.665804 
L 163.062136 212.592188 
L 163.468089 212.758955 
L 163.874043 213.187785 
L 164.821268 214.677441 
L 166.309764 216.960942 
L 166.715717 217.196916 
L 166.986353 217.152412 
L 167.392307 216.826925 
L 168.339531 215.579882 
L 171.181206 211.420917 
L 173.346291 208.241766 
L 173.887563 207.816929 
L 174.69947 207.519706 
L 177.135191 206.972918 
L 180.382819 206.592868 
L 181.194726 206.033827 
L 183.359811 204.387882 
L 183.901082 204.307647 
L 184.577671 204.535676 
L 186.742757 205.492964 
L 187.14871 205.387434 
L 187.689982 204.947601 
L 189.04316 203.338228 
L 190.125703 202.177733 
L 190.666974 201.942378 
L 191.208245 201.99175 
L 192.832059 202.547995 
L 194.04992 203.112248 
L 195.809052 204.325143 
L 196.891594 204.987465 
L 197.432866 205.094445 
L 198.109455 204.980738 
L 200.27454 204.260782 
L 201.221765 203.713288 
L 203.657486 202.129732 
L 204.063439 202.155028 
L 204.604711 202.48788 
L 205.822571 203.691647 
L 206.905114 204.691288 
L 207.446385 204.892544 
L 207.987656 204.777472 
L 209.070199 204.179022 
L 211.235284 203.022661 
L 213.535688 202.203538 
L 214.076959 202.209073 
L 214.61823 202.46029 
L 215.700773 203.326048 
L 217.053951 204.369254 
L 217.595223 204.495877 
L 218.136494 204.325461 
L 219.354354 203.547949 
L 221.654758 202.132876 
L 223.819843 201.100988 
L 224.361114 201.082625 
L 224.902386 201.295721 
L 226.5262 202.34923 
L 227.338107 202.760271 
L 227.879378 202.76562 
L 228.555967 202.453501 
L 231.938913 200.503844 
L 234.374634 199.640724 
L 235.321859 199.617758 
L 237.351626 199.846262 
L 237.892898 200.1142 
L 238.569487 200.720827 
L 240.734572 202.851829 
L 241.005208 202.853428 
L 241.275843 202.671563 
L 241.681797 202.066137 
L 242.493704 200.230614 
L 243.9822 196.802879 
L 244.388154 196.342429 
L 244.658789 196.339755 
L 244.929425 196.588834 
L 245.335378 197.308967 
L 246.688557 200.515421 
L 247.500464 202.251551 
L 247.906417 202.732376 
L 248.177053 202.823938 
L 248.583006 202.667721 
L 249.259596 202.03594 
L 251.018727 200.291936 
L 251.559999 200.045883 
L 252.236588 200.033331 
L 254.131038 200.361947 
L 254.807627 200.686651 
L 255.619534 201.407842 
L 257.919937 203.624508 
L 258.461208 203.803038 
L 259.273115 203.756563 
L 261.302883 203.350066 
L 262.11479 202.906696 
L 265.362418 200.801784 
L 268.204092 199.706551 
L 268.880681 198.974773 
L 271.316402 195.904433 
L 271.722356 195.809746 
L 272.128309 196.004 
L 272.804899 196.685381 
L 274.699348 198.72548 
L 275.24062 198.939439 
L 275.781891 198.87579 
L 278.488248 198.146249 
L 279.164837 198.381485 
L 281.46524 199.622255 
L 282.818418 200.596407 
L 284.848186 202.063746 
L 285.389457 202.14398 
L 286.066046 201.934985 
L 288.637085 200.869833 
L 289.448992 200.916565 
L 291.884713 201.195557 
L 292.561302 200.977879 
L 295.80893 199.616941 
L 297.70338 199.561258 
L 298.785923 199.661913 
L 299.868465 200.045275 
L 302.168868 200.890524 
L 303.386729 200.996061 
L 305.957768 200.993899 
L 308.393489 200.623234 
L 309.205396 200.270201 
L 310.693892 199.223826 
L 311.911752 198.470966 
L 312.453024 198.428175 
L 313.129613 198.688732 
L 318.677644 201.562019 
L 319.218915 201.55667 
L 319.895505 201.297794 
L 322.06059 200.3001 
L 322.466543 200.340473 
L 323.007815 200.632932 
L 324.496311 201.886747 
L 325.443536 202.568865 
L 325.984807 202.670496 
L 326.661396 202.469212 
L 328.961799 201.310677 
L 330.450296 200.314236 
L 332.07411 199.282403 
L 332.480063 199.248019 
L 332.886017 199.418802 
L 333.562606 200.011987 
L 335.457055 201.847332 
L 335.863009 201.980946 
L 336.268962 201.879425 
L 336.945552 201.356609 
L 338.840001 199.692959 
L 339.245955 199.634325 
L 339.651908 199.845405 
L 340.328497 200.602823 
L 342.493583 203.259162 
L 343.034854 203.477165 
L 343.711443 203.420566 
L 347.365025 202.748377 
L 349.800746 202.394622 
L 352.64242 201.678452 
L 353.183692 201.961468 
L 353.995599 202.762086 
L 355.890048 204.673411 
L 356.296002 204.807802 
L 356.837273 204.694585 
L 357.919816 204.077366 
L 360.626172 202.548175 
L 362.926576 201.504379 
L 363.8738 201.358517 
L 366.580157 201.261359 
L 369.827785 201.393289 
L 370.639692 200.949449 
L 372.804777 199.594832 
L 373.346049 199.568087 
L 374.022638 199.843945 
L 376.323041 201.002406 
L 376.864312 200.915778 
L 377.676219 200.45611 
L 379.705987 199.234768 
L 380.247258 199.163975 
L 381.194483 199.325814 
L 383.224251 199.886949 
L 384.306793 200.47123 
L 386.201243 201.511122 
L 386.607196 201.513966 
L 387.01315 201.318559 
L 387.689739 200.694733 
L 389.584189 198.796713 
L 389.990142 198.672784 
L 390.396096 198.804737 
L 390.937367 199.268623 
L 393.914359 202.255596 
L 396.079445 203.597709 
L 397.432623 204.266333 
L 399.597708 205.027847 
L 400.13898 205.008842 
L 400.680251 204.728304 
L 401.762794 203.780427 
L 403.25129 202.513142 
L 403.792561 202.304532 
L 404.46915 202.305475 
L 406.498918 202.654603 
L 407.310825 202.999613 
L 408.934639 204.083856 
L 409.881864 204.628486 
L 410.287817 204.677719 
L 410.693771 204.540227 
L 411.37036 204.030262 
L 416.512437 199.629971 
L 417.189027 199.305404 
L 417.865616 199.264985 
L 420.436655 199.601464 
L 423.8196 200.129984 
L 424.631507 200.577394 
L 427.473182 202.578946 
L 430.314856 204.690975 
L 430.72081 204.712253 
L 431.262081 204.454942 
L 432.479942 203.441081 
L 434.103756 202.148825 
L 435.321616 201.531773 
L 436.94543 200.901274 
L 437.351384 200.939745 
L 437.892655 201.265455 
L 438.975198 202.373955 
L 440.328376 203.704815 
L 440.73433 203.857336 
L 441.140283 203.777026 
L 441.816872 203.293029 
L 443.981958 201.540221 
L 444.523229 201.481154 
L 445.199818 201.687058 
L 447.229586 202.423285 
L 447.770857 202.300259 
L 448.447446 201.82767 
L 450.612531 200.07674 
L 451.018485 199.998029 
L 451.559756 200.155237 
L 452.777617 200.908677 
L 453.995477 201.811487 
L 454.672066 202.633083 
L 456.025245 204.833965 
L 457.243105 206.708491 
L 457.649059 207.035956 
L 458.055012 207.077571 
L 458.596284 206.811385 
L 461.573276 204.826852 
L 463.603043 204.246031 
L 465.09154 203.956533 
L 468.339168 203.480342 
L 471.180842 202.654829 
L 471.857431 202.810103 
L 474.022517 203.764673 
L 475.511013 204.279212 
L 477.946734 204.869796 
L 479.029276 204.82457 
L 481.194362 204.493541 
L 482.006269 204.125712 
L 484.847943 202.620784 
L 485.65985 202.637102 
L 488.366207 203.103146 
L 491.478517 203.760738 
L 492.155106 203.513342 
L 494.726145 202.232588 
L 495.132099 202.375786 
L 495.67337 202.836967 
L 497.973773 205.14887 
L 498.109091 205.179337 
L 498.109091 205.179337 
" clip-path="url(#pbb2e86fced)" style="fill: none; stroke: #ff8c00; stroke-linecap: square"/>
   </g>
   <g id="patch_3">
    <path d="M 72 384.48 
L 72 51.84 
" style="fill: none; stroke: #000000; stroke-width: 0.8; stroke-linejoin: miter; stroke-linecap: square"/>
   </g>
   <g id="patch_4">
    <path d="M 518.4 384.48 
L 518.4 51.84 
" style="fill: none; stroke: #000000; stroke-width: 0.8; stroke-linejoin: miter; stroke-linecap: square"/>
   </g>
   <g id="patch_5">
    <path d="M 72 384.48 
L 518.4 384.48 
" style="fill: none; stroke: #000000; stroke-width: 0.8; stroke-linejoin: miter; stroke-linecap: square"/>
   </g>
   <g id="patch_6">
    <path d="M 72 51.84 
L 518.4 51.84 
" style="fill: none; stroke: #000000; stroke-width: 0.8; stroke-linejoin: miter; stroke-linecap: square"/>
   </g>
  </g>
  <g id="legend_1">
   <g id="patch_7">
    <path d="M 476.326563 66.7125 
L 569 66.7125 
Q 571 66.7125 571 64.7125 
L 571 7 
Q 571 5 569 5 
L 476.326563 5 
Q 474.326563 5 474.326563 7 
L 474.326563 64.7125 
Q 474.326563 66.7125 476.326563 66.7125 
z
" style="fill: #ffffff; opacity: 0.8; stroke: #cccccc; stroke-linejoin: miter"/>
   </g>
   <g id="line2d_18">
    <path d="M 478.326563 13.098437 
L 488.326563 13.098437 
L 498.326563 13.098437 
" style="fill: none; stroke: #ff0000; stroke-linecap: square"/>
   </g>
   <g id="text_16">
    <!-- TCN -->
    <g transform="translate(506.326563 16.598437)scale(0.1 -0.1)">
     <defs>
      <path id="DejaVuSans-54" d="M -19 4666 
L 3928 4666 
L 3928 4134 
L 2272 4134 
L 2272 0 
L 1638 0 
L 1638 4134 
L -19 4134 
L -19 4666 
z
" transform="scale(0.015625)"/>
      <path id="DejaVuSans-4e" d="M 628 4666 
L 1478 4666 
L 3547 763 
L 3547 4666 
L 4159 4666 
L 4159 0 
L 3309 0 
L 1241 3903 
L 1241 0 
L 628 0 
L 628 4666 
z
" transform="scale(0.015625)"/>
     </defs>
     <use xlink:href="#DejaVuSans-54"/>
     <use xlink:href="#DejaVuSans-43" x="55.208984"/>
     <use xlink:href="#DejaVuSans-4e" x="125.033203"/>
    </g>
   </g>
   <g id="line2d_19">
    <path d="M 478.326563 27.776563 
L 488.326563 27.776563 
L 498.326563 27.776563 
" style="fill: none; stroke: #0000ff; stroke-linecap: square"/>
   </g>
   <g id="text_17">
    <!-- Rec-TCN -->
    <g transform="translate(506.326563 31.276563)scale(0.1 -0.1)">
     <defs>
      <path id="DejaVuSans-65" d="M 3597 1894 
L 3597 1613 
L 953 1613 
Q 991 1019 1311 708 
Q 1631 397 2203 397 
Q 2534 397 2845 478 
Q 3156 559 3463 722 
L 3463 178 
Q 3153 47 2828 -22 
Q 2503 -91 2169 -91 
Q 1331 -91 842 396 
Q 353 884 353 1716 
Q 353 2575 817 3079 
Q 1281 3584 2069 3584 
Q 2775 3584 3186 3129 
Q 3597 2675 3597 1894 
z
M 3022 2063 
Q 3016 2534 2758 2815 
Q 2500 3097 2075 3097 
Q 1594 3097 1305 2825 
Q 1016 2553 972 2059 
L 3022 2063 
z
" transform="scale(0.015625)"/>
      <path id="DejaVuSans-2d" d="M 313 2009 
L 1997 2009 
L 1997 1497 
L 313 1497 
L 313 2009 
z
" transform="scale(0.015625)"/>
     </defs>
     <use xlink:href="#DejaVuSans-52"/>
     <use xlink:href="#DejaVuSans-65" x="64.982422"/>
     <use xlink:href="#DejaVuSans-63" x="126.505859"/>
     <use xlink:href="#DejaVuSans-2d" x="181.486328"/>
     <use xlink:href="#DejaVuSans-54" x="208.445312"/>
     <use xlink:href="#DejaVuSans-43" x="263.654297"/>
     <use xlink:href="#DejaVuSans-4e" x="333.478516"/>
    </g>
   </g>
   <g id="line2d_20">
    <path d="M 478.326563 42.454687 
L 488.326563 42.454687 
L 498.326563 42.454687 
" style="fill: none; stroke: #008000; stroke-linecap: square"/>
   </g>
   <g id="text_18">
    <!-- WS-TCN -->
    <g transform="translate(506.326563 45.954687)scale(0.1 -0.1)">
     <defs>
      <path id="DejaVuSans-57" d="M 213 4666 
L 850 4666 
L 1831 722 
L 2809 4666 
L 3519 4666 
L 4500 722 
L 5478 4666 
L 6119 4666 
L 4947 0 
L 4153 0 
L 3169 4050 
L 2175 0 
L 1381 0 
L 213 4666 
z
" transform="scale(0.015625)"/>
      <path id="DejaVuSans-53" d="M 3425 4513 
L 3425 3897 
Q 3066 4069 2747 4153 
Q 2428 4238 2131 4238 
Q 1616 4238 1336 4038 
Q 1056 3838 1056 3469 
Q 1056 3159 1242 3001 
Q 1428 2844 1947 2747 
L 2328 2669 
Q 3034 2534 3370 2195 
Q 3706 1856 3706 1288 
Q 3706 609 3251 259 
Q 2797 -91 1919 -91 
Q 1588 -91 1214 -16 
Q 841 59 441 206 
L 441 856 
Q 825 641 1194 531 
Q 1563 422 1919 422 
Q 2459 422 2753 634 
Q 3047 847 3047 1241 
Q 3047 1584 2836 1778 
Q 2625 1972 2144 2069 
L 1759 2144 
Q 1053 2284 737 2584 
Q 422 2884 422 3419 
Q 422 4038 858 4394 
Q 1294 4750 2059 4750 
Q 2388 4750 2728 4690 
Q 3069 4631 3425 4513 
z
" transform="scale(0.015625)"/>
     </defs>
     <use xlink:href="#DejaVuSans-57"/>
     <use xlink:href="#DejaVuSans-53" x="98.876953"/>
     <use xlink:href="#DejaVuSans-2d" x="162.353516"/>
     <use xlink:href="#DejaVuSans-54" x="189.3125"/>
     <use xlink:href="#DejaVuSans-43" x="244.521484"/>
     <use xlink:href="#DejaVuSans-4e" x="314.345703"/>
    </g>
   </g>
   <g id="line2d_21">
    <path d="M 478.326563 57.132812 
L 488.326563 57.132812 
L 498.326563 57.132812 
" style="fill: none; stroke: #ff8c00; stroke-linecap: square"/>
   </g>
   <g id="text_19">
    <!-- WS-Rec-TCN -->
    <g transform="translate(506.326563 60.632812)scale(0.1 -0.1)">
     <use xlink:href="#DejaVuSans-57"/>
     <use xlink:href="#DejaVuSans-53" x="98.876953"/>
     <use xlink:href="#DejaVuSans-2d" x="162.353516"/>
     <use xlink:href="#DejaVuSans-52" x="198.4375"/>
     <use xlink:href="#DejaVuSans-65" x="263.419922"/>
     <use xlink:href="#DejaVuSans-63" x="324.943359"/>
     <use xlink:href="#DejaVuSans-2d" x="379.923828"/>
     <use xlink:href="#DejaVuSans-54" x="406.882812"/>
     <use xlink:href="#DejaVuSans-43" x="462.091797"/>
     <use xlink:href="#DejaVuSans-4e" x="531.916016"/>
    </g>
   </g>
  </g>
 </g>
 <defs>
  <clipPath id="pbb2e86fced">
   <rect x="72" y="51.84" width="446.4" height="332.64"/>
  </clipPath>
 </defs>
</svg>
