<?xml version="1.0" encoding="UTF-8" standalone="no"?>
<!DOCTYPE svg PUBLIC "-//W3C//DTD SVG 1.1//EN"
 "http://www.w3.org/Graphics/SVG/1.1/DTD/svg11.dtd">
<!-- Generated by graphviz version 8.0.5 (20230430.1635)
 -->
<!-- Pages: 1 -->
<svg width="432pt" height="922pt"
 viewBox="0.00 0.00 432.00 921.50" xmlns="http://www.w3.org/2000/svg" xmlns:xlink="http://www.w3.org/1999/xlink">
<g id="graph0" class="graph" transform="scale(1 1) rotate(0) translate(4 917.5)">
<polygon fill="white" stroke="none" points="-4,4 -4,-917.5 428,-917.5 428,4 -4,4"/>
<!-- N1 -->
<g id="node1" class="node">
<title>N1</title>
<ellipse fill="none" stroke="black" cx="312" cy="-632.25" rx="27" ry="18"/>
<text text-anchor="middle" x="312" y="-626.83" font-family="Times New Roman,serif" font-size="14.00">N1</text>
</g>
<!-- N14 -->
<g id="node14" class="node">
<title>N14</title>
<ellipse fill="none" stroke="black" cx="302" cy="-544.5" rx="27" ry="18"/>
<text text-anchor="middle" x="302" y="-539.08" font-family="Times New Roman,serif" font-size="14.00">N14</text>
</g>
<!-- N1&#45;&gt;N14 -->
<g id="edge23" class="edge">
<title>N1&#45;&gt;N14</title>
<path fill="none" stroke="black" d="M309.98,-613.9C308.62,-602.27 306.81,-586.72 305.25,-573.38"/>
<polygon fill="black" stroke="black" points="308.66,-573.35 304.02,-563.83 301.7,-574.17 308.66,-573.35"/>
<text text-anchor="middle" x="319" y="-582.95" font-family="Times New Roman,serif" font-size="14.00">0.33</text>
</g>
<!-- N2 -->
<g id="node2" class="node">
<title>N2</title>
<ellipse fill="none" stroke="black" cx="191" cy="-18" rx="27" ry="18"/>
<text text-anchor="middle" x="191" y="-12.57" font-family="Times New Roman,serif" font-size="14.00">N2</text>
</g>
<!-- N5 -->
<g id="node5" class="node">
<title>N5</title>
<ellipse fill="none" stroke="black" cx="191" cy="-193.5" rx="27" ry="18"/>
<text text-anchor="middle" x="191" y="-188.07" font-family="Times New Roman,serif" font-size="14.00">N5</text>
</g>
<!-- N2&#45;&gt;N5 -->
<g id="edge8" class="edge">
<title>N2&#45;&gt;N5</title>
<path fill="none" stroke="black" d="M191,-36.46C191,-66.52 191,-128.31 191,-164.47"/>
<polygon fill="black" stroke="black" points="187.5,-164.23 191,-174.23 194.5,-164.23 187.5,-164.23"/>
<text text-anchor="middle" x="203" y="-100.33" font-family="Times New Roman,serif" font-size="14.00">0.25</text>
</g>
<!-- N2&#45;&gt;N14 -->
<g id="edge24" class="edge">
<title>N2&#45;&gt;N14</title>
<path fill="none" stroke="black" d="M218.32,-18.25C274.98,-18.27 400,-27.09 400,-104.75 400,-370 400,-370 400,-370 400,-431.29 353.06,-490.85 324.16,-521.71"/>
<polygon fill="black" stroke="black" points="322.29,-518.64 317.88,-528.28 327.34,-523.49 322.29,-518.64"/>
<text text-anchor="middle" x="412" y="-275.82" font-family="Times New Roman,serif" font-size="14.00">0.33</text>
</g>
<!-- N3 -->
<g id="node3" class="node">
<title>N3</title>
<ellipse fill="none" stroke="black" cx="198" cy="-632.25" rx="27" ry="18"/>
<text text-anchor="middle" x="198" y="-626.83" font-family="Times New Roman,serif" font-size="14.00">N3</text>
</g>
<!-- N3&#45;&gt;N3 -->
<g id="edge3" class="edge">
<title>N3&#45;&gt;N3</title>
<path fill="none" stroke="black" d="M222.53,-640.35C233.51,-641.12 243,-638.42 243,-632.25 243,-628.3 239.1,-625.77 233.42,-624.67"/>
<polygon fill="black" stroke="black" points="233.69,-621.13 223.53,-624.15 233.36,-628.12 233.69,-621.13"/>
<text text-anchor="middle" x="255" y="-626.83" font-family="Times New Roman,serif" font-size="14.00">1.00</text>
</g>
<!-- N3&#45;&gt;N14 -->
<g id="edge25" class="edge">
<title>N3&#45;&gt;N14</title>
<path fill="none" stroke="black" d="M214.25,-617.85C231.09,-603.96 257.64,-582.08 277.12,-566.01"/>
<polygon fill="black" stroke="black" points="279.03,-568.15 284.52,-559.09 274.58,-562.75 279.03,-568.15"/>
<text text-anchor="middle" x="271" y="-582.95" font-family="Times New Roman,serif" font-size="14.00">0.33</text>
</g>
<!-- N4 -->
<g id="node4" class="node">
<title>N4</title>
<ellipse fill="none" stroke="black" cx="143" cy="-456.75" rx="27" ry="18"/>
<text text-anchor="middle" x="143" y="-451.32" font-family="Times New Roman,serif" font-size="14.00">N4</text>
</g>
<!-- N6 -->
<g id="node6" class="node">
<title>N6</title>
<ellipse fill="none" stroke="black" cx="337" cy="-369" rx="27" ry="18"/>
<text text-anchor="middle" x="337" y="-363.57" font-family="Times New Roman,serif" font-size="14.00">N6</text>
</g>
<!-- N4&#45;&gt;N6 -->
<g id="edge12" class="edge">
<title>N4&#45;&gt;N6</title>
<path fill="none" stroke="black" d="M165.25,-445.91C199.61,-430.73 265.69,-401.52 305.12,-384.09"/>
<polygon fill="black" stroke="black" points="306.27,-386.97 314.01,-379.72 303.44,-380.56 306.27,-386.97"/>
<text text-anchor="middle" x="269" y="-407.45" font-family="Times New Roman,serif" font-size="14.00">0.50</text>
</g>
<!-- N5&#45;&gt;N4 -->
<g id="edge4" class="edge">
<title>N5&#45;&gt;N4</title>
<path fill="none" stroke="black" d="M170.07,-205.24C137.65,-222.07 78.46,-253.74 73,-263.25 40.19,-320.34 91.46,-395.55 122.35,-432.8"/>
<polygon fill="black" stroke="black" points="120.18,-434.65 129.33,-440 125.51,-430.12 120.18,-434.65"/>
<text text-anchor="middle" x="78" y="-319.7" font-family="Times New Roman,serif" font-size="14.00">0.25</text>
</g>
<!-- N9 -->
<g id="node9" class="node">
<title>N9</title>
<ellipse fill="none" stroke="black" cx="117" cy="-105.75" rx="27" ry="18"/>
<text text-anchor="middle" x="117" y="-100.33" font-family="Times New Roman,serif" font-size="14.00">N9</text>
</g>
<!-- N5&#45;&gt;N9 -->
<g id="edge16" class="edge">
<title>N5&#45;&gt;N9</title>
<path fill="none" stroke="black" d="M174.76,-178.89C167.74,-172.68 159.64,-165.04 153,-157.5 145.95,-149.49 138.98,-140.1 133.07,-131.59"/>
<polygon fill="black" stroke="black" points="135.42,-129.81 126.92,-123.48 129.62,-133.72 135.42,-129.81"/>
<text text-anchor="middle" x="165" y="-144.2" font-family="Times New Roman,serif" font-size="14.00">0.33</text>
</g>
<!-- N13 -->
<g id="node13" class="node">
<title>N13</title>
<ellipse fill="none" stroke="black" cx="337" cy="-281.25" rx="27" ry="18"/>
<text text-anchor="middle" x="337" y="-275.82" font-family="Times New Roman,serif" font-size="14.00">N13</text>
</g>
<!-- N6&#45;&gt;N13 -->
<g id="edge22" class="edge">
<title>N6&#45;&gt;N13</title>
<path fill="none" stroke="black" d="M337,-350.65C337,-339.14 337,-323.78 337,-310.53"/>
<polygon fill="black" stroke="black" points="340.5,-310.58 337,-300.58 333.5,-310.58 340.5,-310.58"/>
<text text-anchor="middle" x="349" y="-319.7" font-family="Times New Roman,serif" font-size="14.00">1.00</text>
</g>
<!-- N7 -->
<g id="node7" class="node">
<title>N7</title>
<ellipse fill="none" stroke="black" cx="312" cy="-807.75" rx="27" ry="18"/>
<text text-anchor="middle" x="312" y="-802.33" font-family="Times New Roman,serif" font-size="14.00">N7</text>
</g>
<!-- N12 -->
<g id="node12" class="node">
<title>N12</title>
<ellipse fill="none" stroke="black" cx="312" cy="-720" rx="27" ry="18"/>
<text text-anchor="middle" x="312" y="-714.58" font-family="Times New Roman,serif" font-size="14.00">N12</text>
</g>
<!-- N7&#45;&gt;N12 -->
<g id="edge21" class="edge">
<title>N7&#45;&gt;N12</title>
<path fill="none" stroke="black" d="M312,-789.4C312,-777.89 312,-762.53 312,-749.28"/>
<polygon fill="black" stroke="black" points="315.5,-749.33 312,-739.33 308.5,-749.33 315.5,-749.33"/>
<text text-anchor="middle" x="324" y="-758.45" font-family="Times New Roman,serif" font-size="14.00">1.00</text>
</g>
<!-- N8 -->
<g id="node8" class="node">
<title>N8</title>
<ellipse fill="none" stroke="black" cx="109" cy="-281.25" rx="27" ry="18"/>
<text text-anchor="middle" x="109" y="-275.82" font-family="Times New Roman,serif" font-size="14.00">N8</text>
</g>
<!-- N8&#45;&gt;N5 -->
<g id="edge9" class="edge">
<title>N8&#45;&gt;N5</title>
<path fill="none" stroke="black" d="M122.91,-265.7C135.75,-252.28 155.01,-232.14 169.77,-216.7"/>
<polygon fill="black" stroke="black" points="171.64,-219.76 176.02,-210.12 166.58,-214.93 171.64,-219.76"/>
<text text-anchor="middle" x="169" y="-231.95" font-family="Times New Roman,serif" font-size="14.00">0.25</text>
</g>
<!-- N8&#45;&gt;N8 -->
<g id="edge15" class="edge">
<title>N8&#45;&gt;N8</title>
<path fill="none" stroke="black" d="M133.53,-289.35C144.51,-290.12 154,-287.42 154,-281.25 154,-277.3 150.1,-274.77 144.42,-273.67"/>
<polygon fill="black" stroke="black" points="144.69,-270.13 134.53,-273.15 144.36,-277.12 144.69,-270.13"/>
<text text-anchor="middle" x="166" y="-275.82" font-family="Times New Roman,serif" font-size="14.00">1.00</text>
</g>
<!-- N9&#45;&gt;N2 -->
<g id="edge2" class="edge">
<title>N9&#45;&gt;N2</title>
<path fill="none" stroke="black" d="M126.92,-89.02C133.74,-78.66 143.29,-65.03 153,-54 157.25,-49.17 162.11,-44.3 166.89,-39.79"/>
<polygon fill="black" stroke="black" points="168.73,-42.93 173.76,-33.61 164.01,-37.76 168.73,-42.93"/>
<text text-anchor="middle" x="165" y="-56.45" font-family="Times New Roman,serif" font-size="14.00">1.00</text>
</g>
<!-- N10 -->
<g id="node10" class="node">
<title>N10</title>
<ellipse fill="none" stroke="black" cx="312" cy="-895.5" rx="27" ry="18"/>
<text text-anchor="middle" x="312" y="-890.08" font-family="Times New Roman,serif" font-size="14.00">N10</text>
</g>
<!-- N10&#45;&gt;N4 -->
<g id="edge5" class="edge">
<title>N10&#45;&gt;N4</title>
<path fill="none" stroke="black" d="M284.85,-892.88C237.07,-888.39 143,-871.59 143,-808.75 143,-808.75 143,-808.75 143,-543.5 143,-524.27 143,-502.61 143,-485.87"/>
<polygon fill="black" stroke="black" points="146.5,-486.16 143,-476.16 139.5,-486.16 146.5,-486.16"/>
<text text-anchor="middle" x="155" y="-670.7" font-family="Times New Roman,serif" font-size="14.00">0.25</text>
</g>
<!-- N10&#45;&gt;N6 -->
<g id="edge13" class="edge">
<title>N10&#45;&gt;N6</title>
<path fill="none" stroke="black" d="M329.88,-881.53C348.51,-866.37 375,-839.42 375,-808.75 375,-808.75 375,-808.75 375,-455.75 375,-433.7 364.37,-410.98 354.35,-394.47"/>
<polygon fill="black" stroke="black" points="356.95,-393.05 348.61,-386.52 351.06,-396.83 356.95,-393.05"/>
<text text-anchor="middle" x="387" y="-626.83" font-family="Times New Roman,serif" font-size="14.00">0.50</text>
</g>
<!-- N10&#45;&gt;N7 -->
<g id="edge14" class="edge">
<title>N10&#45;&gt;N7</title>
<path fill="none" stroke="black" d="M312,-877.15C312,-865.64 312,-850.28 312,-837.03"/>
<polygon fill="black" stroke="black" points="315.5,-837.08 312,-827.08 308.5,-837.08 315.5,-837.08"/>
<text text-anchor="middle" x="324" y="-846.2" font-family="Times New Roman,serif" font-size="14.00">1.00</text>
</g>
<!-- N10&#45;&gt;N10 -->
<g id="edge19" class="edge">
<title>N10&#45;&gt;N10</title>
<path fill="none" stroke="black" d="M336.53,-903.6C347.51,-904.37 357,-901.67 357,-895.5 357,-891.55 353.1,-889.02 347.42,-887.92"/>
<polygon fill="black" stroke="black" points="347.69,-884.38 337.53,-887.4 347.36,-891.37 347.69,-884.38"/>
<text text-anchor="middle" x="369" y="-890.08" font-family="Times New Roman,serif" font-size="14.00">1.00</text>
</g>
<!-- N11 -->
<g id="node11" class="node">
<title>N11</title>
<ellipse fill="none" stroke="black" cx="27" cy="-544.5" rx="27" ry="18"/>
<text text-anchor="middle" x="27" y="-539.08" font-family="Times New Roman,serif" font-size="14.00">N11</text>
</g>
<!-- N11&#45;&gt;N4 -->
<g id="edge6" class="edge">
<title>N11&#45;&gt;N4</title>
<path fill="none" stroke="black" d="M44.62,-530.48C63.89,-516.23 94.98,-493.25 117.04,-476.94"/>
<polygon fill="black" stroke="black" points="118.64,-479.37 124.6,-470.62 114.47,-473.75 118.64,-479.37"/>
<text text-anchor="middle" x="107" y="-495.2" font-family="Times New Roman,serif" font-size="14.00">0.25</text>
</g>
<!-- N11&#45;&gt;N9 -->
<g id="edge17" class="edge">
<title>N11&#45;&gt;N9</title>
<path fill="none" stroke="black" d="M20.67,-526.69C14.81,-509.59 7,-482.21 7,-457.75 7,-457.75 7,-457.75 7,-192.5 7,-153.72 50.06,-129.9 82.3,-117.5"/>
<polygon fill="black" stroke="black" points="83.1,-120.57 91.31,-113.87 80.72,-113.98 83.1,-120.57"/>
<text text-anchor="middle" x="19" y="-319.7" font-family="Times New Roman,serif" font-size="14.00">0.33</text>
</g>
<!-- N11&#45;&gt;N11 -->
<g id="edge20" class="edge">
<title>N11&#45;&gt;N11</title>
<path fill="none" stroke="black" d="M51.53,-552.6C62.51,-553.37 72,-550.67 72,-544.5 72,-540.55 68.1,-538.02 62.42,-536.92"/>
<polygon fill="black" stroke="black" points="62.69,-533.38 52.53,-536.4 62.36,-540.37 62.69,-533.38"/>
<text text-anchor="middle" x="84" y="-539.08" font-family="Times New Roman,serif" font-size="14.00">1.00</text>
</g>
<!-- N12&#45;&gt;N1 -->
<g id="edge1" class="edge">
<title>N12&#45;&gt;N1</title>
<path fill="none" stroke="black" d="M312,-701.65C312,-690.14 312,-674.78 312,-661.53"/>
<polygon fill="black" stroke="black" points="315.5,-661.58 312,-651.58 308.5,-661.58 315.5,-661.58"/>
<text text-anchor="middle" x="324" y="-670.7" font-family="Times New Roman,serif" font-size="14.00">1.00</text>
</g>
<!-- N13&#45;&gt;N5 -->
<g id="edge10" class="edge">
<title>N13&#45;&gt;N5</title>
<path fill="none" stroke="black" d="M317.31,-268.69C292.27,-253.98 248.85,-228.48 220.02,-211.54"/>
<polygon fill="black" stroke="black" points="222.24,-208.2 211.84,-206.16 218.69,-214.24 222.24,-208.2"/>
<text text-anchor="middle" x="289" y="-231.95" font-family="Times New Roman,serif" font-size="14.00">0.25</text>
</g>
<!-- N14&#45;&gt;N4 -->
<g id="edge7" class="edge">
<title>N14&#45;&gt;N4</title>
<path fill="none" stroke="black" d="M281.54,-532.47C254.07,-517.65 205.04,-491.21 173.29,-474.08"/>
<polygon fill="black" stroke="black" points="175.1,-470.54 164.63,-468.88 171.77,-476.71 175.1,-470.54"/>
<text text-anchor="middle" x="248" y="-495.2" font-family="Times New Roman,serif" font-size="14.00">0.25</text>
</g>
<!-- E1 -->
<g id="node15" class="node">
<title>E1</title>
<ellipse fill="none" stroke="black" cx="223" cy="-281.25" rx="27" ry="18"/>
<text text-anchor="middle" x="223" y="-275.82" font-family="Times New Roman,serif" font-size="14.00">E1</text>
</g>
<!-- E1&#45;&gt;N5 -->
<g id="edge11" class="edge">
<title>E1&#45;&gt;N5</title>
<path fill="none" stroke="black" d="M216.68,-263.31C212.25,-251.45 206.24,-235.34 201.15,-221.7"/>
<polygon fill="black" stroke="black" points="204.08,-220.55 197.31,-212.41 197.53,-223 204.08,-220.55"/>
<text text-anchor="middle" x="221" y="-231.95" font-family="Times New Roman,serif" font-size="14.00">0.25</text>
</g>
<!-- E1&#45;&gt;E1 -->
<g id="edge26" class="edge">
<title>E1&#45;&gt;E1</title>
<path fill="none" stroke="black" d="M247.53,-289.35C258.51,-290.12 268,-287.42 268,-281.25 268,-277.3 264.1,-274.77 258.42,-273.67"/>
<polygon fill="black" stroke="black" points="258.69,-270.13 248.53,-273.15 258.36,-277.12 258.69,-270.13"/>
<text text-anchor="middle" x="280" y="-275.82" font-family="Times New Roman,serif" font-size="14.00">1.00</text>
</g>
<!-- E2 -->
<g id="node16" class="node">
<title>E2</title>
<ellipse fill="none" stroke="black" cx="77" cy="-193.5" rx="27" ry="18"/>
<text text-anchor="middle" x="77" y="-188.07" font-family="Times New Roman,serif" font-size="14.00">E2</text>
</g>
<!-- E2&#45;&gt;N9 -->
<g id="edge18" class="edge">
<title>E2&#45;&gt;N9</title>
<path fill="none" stroke="black" d="M83.86,-175.92C88.07,-165.94 93.66,-153.03 99,-141.75 100.42,-138.76 101.94,-135.65 103.48,-132.57"/>
<polygon fill="black" stroke="black" points="106.92,-134.52 108.35,-124.02 100.69,-131.34 106.92,-134.52"/>
<text text-anchor="middle" x="111" y="-144.2" font-family="Times New Roman,serif" font-size="14.00">0.33</text>
</g>
<!-- E2&#45;&gt;E2 -->
<g id="edge27" class="edge">
<title>E2&#45;&gt;E2</title>
<path fill="none" stroke="black" d="M101.53,-201.6C112.51,-202.37 122,-199.67 122,-193.5 122,-189.55 118.1,-187.02 112.42,-185.92"/>
<polygon fill="black" stroke="black" points="112.69,-182.38 102.53,-185.4 112.36,-189.37 112.69,-182.38"/>
<text text-anchor="middle" x="134" y="-188.07" font-family="Times New Roman,serif" font-size="14.00">1.00</text>
</g>
</g>
</svg>
