<?xml version="1.0" encoding="utf-8" standalone="no"?>
<!DOCTYPE svg PUBLIC "-//W3C//DTD SVG 1.1//EN"
  "http://www.w3.org/Graphics/SVG/1.1/DTD/svg11.dtd">
<svg xmlns:xlink="http://www.w3.org/1999/xlink" width="576pt" height="432pt" viewBox="0 0 576 432" xmlns="http://www.w3.org/2000/svg" version="1.1">
 <metadata>
  <rdf:RDF xmlns:dc="http://purl.org/dc/elements/1.1/" xmlns:cc="http://creativecommons.org/ns#" xmlns:rdf="http://www.w3.org/1999/02/22-rdf-syntax-ns#">
   <cc:Work>
    <dc:type rdf:resource="http://purl.org/dc/dcmitype/StillImage"/>
    <dc:date>2023-06-20T18:03:41.586035</dc:date>
    <dc:format>image/svg+xml</dc:format>
    <dc:creator>
     <cc:Agent>
      <dc:title>Matplotlib v3.5.1, https://matplotlib.org/</dc:title>
     </cc:Agent>
    </dc:creator>
   </cc:Work>
  </rdf:RDF>
 </metadata>
 <defs>
  <style type="text/css">*{stroke-linejoin: round; stroke-linecap: butt}</style>
 </defs>
 <g id="figure_1">
  <g id="patch_1">
   <path d="M 0 432 
L 576 432 
L 576 0 
L 0 0 
z
" style="fill: #ffffff"/>
  </g>
  <g id="axes_1">
   <g id="patch_2">
    <path d="M 72 384.48 
L 518.4 384.48 
L 518.4 51.84 
L 72 51.84 
z
" style="fill: #ffffff"/>
   </g>
   <g id="matplotlib.axis_1">
    <g id="xtick_1">
     <g id="line2d_1">
      <defs>
       <path id="m5d53564860" d="M 0 0 
L 0 3.5 
" style="stroke: #000000; stroke-width: 0.8"/>
      </defs>
      <g>
       <use xlink:href="#m5d53564860" x="92.290909" y="384.48" style="stroke: #000000; stroke-width: 0.8"/>
      </g>
     </g>
     <g id="text_1">
      <!-- 0 -->
      <g transform="translate(89.109659 399.078438)scale(0.1 -0.1)">
       <defs>
        <path id="DejaVuSans-30" d="M 2034 4250 
Q 1547 4250 1301 3770 
Q 1056 3291 1056 2328 
Q 1056 1369 1301 889 
Q 1547 409 2034 409 
Q 2525 409 2770 889 
Q 3016 1369 3016 2328 
Q 3016 3291 2770 3770 
Q 2525 4250 2034 4250 
z
M 2034 4750 
Q 2819 4750 3233 4129 
Q 3647 3509 3647 2328 
Q 3647 1150 3233 529 
Q 2819 -91 2034 -91 
Q 1250 -91 836 529 
Q 422 1150 422 2328 
Q 422 3509 836 4129 
Q 1250 4750 2034 4750 
z
" transform="scale(0.015625)"/>
       </defs>
       <use xlink:href="#DejaVuSans-30"/>
      </g>
     </g>
    </g>
    <g id="xtick_2">
     <g id="line2d_2">
      <g>
       <use xlink:href="#m5d53564860" x="159.949826" y="384.48" style="stroke: #000000; stroke-width: 0.8"/>
      </g>
     </g>
     <g id="text_2">
      <!-- 500 -->
      <g transform="translate(150.406076 399.078438)scale(0.1 -0.1)">
       <defs>
        <path id="DejaVuSans-35" d="M 691 4666 
L 3169 4666 
L 3169 4134 
L 1269 4134 
L 1269 2991 
Q 1406 3038 1543 3061 
Q 1681 3084 1819 3084 
Q 2600 3084 3056 2656 
Q 3513 2228 3513 1497 
Q 3513 744 3044 326 
Q 2575 -91 1722 -91 
Q 1428 -91 1123 -41 
Q 819 9 494 109 
L 494 744 
Q 775 591 1075 516 
Q 1375 441 1709 441 
Q 2250 441 2565 725 
Q 2881 1009 2881 1497 
Q 2881 1984 2565 2268 
Q 2250 2553 1709 2553 
Q 1456 2553 1204 2497 
Q 953 2441 691 2322 
L 691 4666 
z
" transform="scale(0.015625)"/>
       </defs>
       <use xlink:href="#DejaVuSans-35"/>
       <use xlink:href="#DejaVuSans-30" x="63.623047"/>
       <use xlink:href="#DejaVuSans-30" x="127.246094"/>
      </g>
     </g>
    </g>
    <g id="xtick_3">
     <g id="line2d_3">
      <g>
       <use xlink:href="#m5d53564860" x="227.608742" y="384.48" style="stroke: #000000; stroke-width: 0.8"/>
      </g>
     </g>
     <g id="text_3">
      <!-- 1000 -->
      <g transform="translate(214.883742 399.078438)scale(0.1 -0.1)">
       <defs>
        <path id="DejaVuSans-31" d="M 794 531 
L 1825 531 
L 1825 4091 
L 703 3866 
L 703 4441 
L 1819 4666 
L 2450 4666 
L 2450 531 
L 3481 531 
L 3481 0 
L 794 0 
L 794 531 
z
" transform="scale(0.015625)"/>
       </defs>
       <use xlink:href="#DejaVuSans-31"/>
       <use xlink:href="#DejaVuSans-30" x="63.623047"/>
       <use xlink:href="#DejaVuSans-30" x="127.246094"/>
       <use xlink:href="#DejaVuSans-30" x="190.869141"/>
      </g>
     </g>
    </g>
    <g id="xtick_4">
     <g id="line2d_4">
      <g>
       <use xlink:href="#m5d53564860" x="295.267659" y="384.48" style="stroke: #000000; stroke-width: 0.8"/>
      </g>
     </g>
     <g id="text_4">
      <!-- 1500 -->
      <g transform="translate(282.542659 399.078438)scale(0.1 -0.1)">
       <use xlink:href="#DejaVuSans-31"/>
       <use xlink:href="#DejaVuSans-35" x="63.623047"/>
       <use xlink:href="#DejaVuSans-30" x="127.246094"/>
       <use xlink:href="#DejaVuSans-30" x="190.869141"/>
      </g>
     </g>
    </g>
    <g id="xtick_5">
     <g id="line2d_5">
      <g>
       <use xlink:href="#m5d53564860" x="362.926576" y="384.48" style="stroke: #000000; stroke-width: 0.8"/>
      </g>
     </g>
     <g id="text_5">
      <!-- 2000 -->
      <g transform="translate(350.201576 399.078438)scale(0.1 -0.1)">
       <defs>
        <path id="DejaVuSans-32" d="M 1228 531 
L 3431 531 
L 3431 0 
L 469 0 
L 469 531 
Q 828 903 1448 1529 
Q 2069 2156 2228 2338 
Q 2531 2678 2651 2914 
Q 2772 3150 2772 3378 
Q 2772 3750 2511 3984 
Q 2250 4219 1831 4219 
Q 1534 4219 1204 4116 
Q 875 4013 500 3803 
L 500 4441 
Q 881 4594 1212 4672 
Q 1544 4750 1819 4750 
Q 2544 4750 2975 4387 
Q 3406 4025 3406 3419 
Q 3406 3131 3298 2873 
Q 3191 2616 2906 2266 
Q 2828 2175 2409 1742 
Q 1991 1309 1228 531 
z
" transform="scale(0.015625)"/>
       </defs>
       <use xlink:href="#DejaVuSans-32"/>
       <use xlink:href="#DejaVuSans-30" x="63.623047"/>
       <use xlink:href="#DejaVuSans-30" x="127.246094"/>
       <use xlink:href="#DejaVuSans-30" x="190.869141"/>
      </g>
     </g>
    </g>
    <g id="xtick_6">
     <g id="line2d_6">
      <g>
       <use xlink:href="#m5d53564860" x="430.585492" y="384.48" style="stroke: #000000; stroke-width: 0.8"/>
      </g>
     </g>
     <g id="text_6">
      <!-- 2500 -->
      <g transform="translate(417.860492 399.078438)scale(0.1 -0.1)">
       <use xlink:href="#DejaVuSans-32"/>
       <use xlink:href="#DejaVuSans-35" x="63.623047"/>
       <use xlink:href="#DejaVuSans-30" x="127.246094"/>
       <use xlink:href="#DejaVuSans-30" x="190.869141"/>
      </g>
     </g>
    </g>
    <g id="xtick_7">
     <g id="line2d_7">
      <g>
       <use xlink:href="#m5d53564860" x="498.244409" y="384.48" style="stroke: #000000; stroke-width: 0.8"/>
      </g>
     </g>
     <g id="text_7">
      <!-- 3000 -->
      <g transform="translate(485.519409 399.078438)scale(0.1 -0.1)">
       <defs>
        <path id="DejaVuSans-33" d="M 2597 2516 
Q 3050 2419 3304 2112 
Q 3559 1806 3559 1356 
Q 3559 666 3084 287 
Q 2609 -91 1734 -91 
Q 1441 -91 1130 -33 
Q 819 25 488 141 
L 488 750 
Q 750 597 1062 519 
Q 1375 441 1716 441 
Q 2309 441 2620 675 
Q 2931 909 2931 1356 
Q 2931 1769 2642 2001 
Q 2353 2234 1838 2234 
L 1294 2234 
L 1294 2753 
L 1863 2753 
Q 2328 2753 2575 2939 
Q 2822 3125 2822 3475 
Q 2822 3834 2567 4026 
Q 2313 4219 1838 4219 
Q 1578 4219 1281 4162 
Q 984 4106 628 3988 
L 628 4550 
Q 988 4650 1302 4700 
Q 1616 4750 1894 4750 
Q 2613 4750 3031 4423 
Q 3450 4097 3450 3541 
Q 3450 3153 3228 2886 
Q 3006 2619 2597 2516 
z
" transform="scale(0.015625)"/>
       </defs>
       <use xlink:href="#DejaVuSans-33"/>
       <use xlink:href="#DejaVuSans-30" x="63.623047"/>
       <use xlink:href="#DejaVuSans-30" x="127.246094"/>
       <use xlink:href="#DejaVuSans-30" x="190.869141"/>
      </g>
     </g>
    </g>
    <g id="text_8">
     <!-- Epochs -->
     <g transform="translate(277.284375 412.756563)scale(0.1 -0.1)">
      <defs>
       <path id="DejaVuSans-45" d="M 628 4666 
L 3578 4666 
L 3578 4134 
L 1259 4134 
L 1259 2753 
L 3481 2753 
L 3481 2222 
L 1259 2222 
L 1259 531 
L 3634 531 
L 3634 0 
L 628 0 
L 628 4666 
z
" transform="scale(0.015625)"/>
       <path id="DejaVuSans-70" d="M 1159 525 
L 1159 -1331 
L 581 -1331 
L 581 3500 
L 1159 3500 
L 1159 2969 
Q 1341 3281 1617 3432 
Q 1894 3584 2278 3584 
Q 2916 3584 3314 3078 
Q 3713 2572 3713 1747 
Q 3713 922 3314 415 
Q 2916 -91 2278 -91 
Q 1894 -91 1617 61 
Q 1341 213 1159 525 
z
M 3116 1747 
Q 3116 2381 2855 2742 
Q 2594 3103 2138 3103 
Q 1681 3103 1420 2742 
Q 1159 2381 1159 1747 
Q 1159 1113 1420 752 
Q 1681 391 2138 391 
Q 2594 391 2855 752 
Q 3116 1113 3116 1747 
z
" transform="scale(0.015625)"/>
       <path id="DejaVuSans-6f" d="M 1959 3097 
Q 1497 3097 1228 2736 
Q 959 2375 959 1747 
Q 959 1119 1226 758 
Q 1494 397 1959 397 
Q 2419 397 2687 759 
Q 2956 1122 2956 1747 
Q 2956 2369 2687 2733 
Q 2419 3097 1959 3097 
z
M 1959 3584 
Q 2709 3584 3137 3096 
Q 3566 2609 3566 1747 
Q 3566 888 3137 398 
Q 2709 -91 1959 -91 
Q 1206 -91 779 398 
Q 353 888 353 1747 
Q 353 2609 779 3096 
Q 1206 3584 1959 3584 
z
" transform="scale(0.015625)"/>
       <path id="DejaVuSans-63" d="M 3122 3366 
L 3122 2828 
Q 2878 2963 2633 3030 
Q 2388 3097 2138 3097 
Q 1578 3097 1268 2742 
Q 959 2388 959 1747 
Q 959 1106 1268 751 
Q 1578 397 2138 397 
Q 2388 397 2633 464 
Q 2878 531 3122 666 
L 3122 134 
Q 2881 22 2623 -34 
Q 2366 -91 2075 -91 
Q 1284 -91 818 406 
Q 353 903 353 1747 
Q 353 2603 823 3093 
Q 1294 3584 2113 3584 
Q 2378 3584 2631 3529 
Q 2884 3475 3122 3366 
z
" transform="scale(0.015625)"/>
       <path id="DejaVuSans-68" d="M 3513 2113 
L 3513 0 
L 2938 0 
L 2938 2094 
Q 2938 2591 2744 2837 
Q 2550 3084 2163 3084 
Q 1697 3084 1428 2787 
Q 1159 2491 1159 1978 
L 1159 0 
L 581 0 
L 581 4863 
L 1159 4863 
L 1159 2956 
Q 1366 3272 1645 3428 
Q 1925 3584 2291 3584 
Q 2894 3584 3203 3211 
Q 3513 2838 3513 2113 
z
" transform="scale(0.015625)"/>
       <path id="DejaVuSans-73" d="M 2834 3397 
L 2834 2853 
Q 2591 2978 2328 3040 
Q 2066 3103 1784 3103 
Q 1356 3103 1142 2972 
Q 928 2841 928 2578 
Q 928 2378 1081 2264 
Q 1234 2150 1697 2047 
L 1894 2003 
Q 2506 1872 2764 1633 
Q 3022 1394 3022 966 
Q 3022 478 2636 193 
Q 2250 -91 1575 -91 
Q 1294 -91 989 -36 
Q 684 19 347 128 
L 347 722 
Q 666 556 975 473 
Q 1284 391 1588 391 
Q 1994 391 2212 530 
Q 2431 669 2431 922 
Q 2431 1156 2273 1281 
Q 2116 1406 1581 1522 
L 1381 1569 
Q 847 1681 609 1914 
Q 372 2147 372 2553 
Q 372 3047 722 3315 
Q 1072 3584 1716 3584 
Q 2034 3584 2315 3537 
Q 2597 3491 2834 3397 
z
" transform="scale(0.015625)"/>
      </defs>
      <use xlink:href="#DejaVuSans-45"/>
      <use xlink:href="#DejaVuSans-70" x="63.183594"/>
      <use xlink:href="#DejaVuSans-6f" x="126.660156"/>
      <use xlink:href="#DejaVuSans-63" x="187.841797"/>
      <use xlink:href="#DejaVuSans-68" x="242.822266"/>
      <use xlink:href="#DejaVuSans-73" x="306.201172"/>
     </g>
    </g>
   </g>
   <g id="matplotlib.axis_2">
    <g id="ytick_1">
     <g id="line2d_8">
      <defs>
       <path id="m37a8cc1448" d="M 0 0 
L -3.5 0 
" style="stroke: #000000; stroke-width: 0.8"/>
      </defs>
      <g>
       <use xlink:href="#m37a8cc1448" x="72" y="384.48" style="stroke: #000000; stroke-width: 0.8"/>
      </g>
     </g>
     <g id="text_9">
      <!-- 0.0 -->
      <g transform="translate(49.096875 388.279219)scale(0.1 -0.1)">
       <defs>
        <path id="DejaVuSans-2e" d="M 684 794 
L 1344 794 
L 1344 0 
L 684 0 
L 684 794 
z
" transform="scale(0.015625)"/>
       </defs>
       <use xlink:href="#DejaVuSans-30"/>
       <use xlink:href="#DejaVuSans-2e" x="63.623047"/>
       <use xlink:href="#DejaVuSans-30" x="95.410156"/>
      </g>
     </g>
    </g>
    <g id="ytick_2">
     <g id="line2d_9">
      <g>
       <use xlink:href="#m37a8cc1448" x="72" y="331.2576" style="stroke: #000000; stroke-width: 0.8"/>
      </g>
     </g>
     <g id="text_10">
      <!-- 0.2 -->
      <g transform="translate(49.096875 335.056819)scale(0.1 -0.1)">
       <use xlink:href="#DejaVuSans-30"/>
       <use xlink:href="#DejaVuSans-2e" x="63.623047"/>
       <use xlink:href="#DejaVuSans-32" x="95.410156"/>
      </g>
     </g>
    </g>
    <g id="ytick_3">
     <g id="line2d_10">
      <g>
       <use xlink:href="#m37a8cc1448" x="72" y="278.0352" style="stroke: #000000; stroke-width: 0.8"/>
      </g>
     </g>
     <g id="text_11">
      <!-- 0.4 -->
      <g transform="translate(49.096875 281.834419)scale(0.1 -0.1)">
       <defs>
        <path id="DejaVuSans-34" d="M 2419 4116 
L 825 1625 
L 2419 1625 
L 2419 4116 
z
M 2253 4666 
L 3047 4666 
L 3047 1625 
L 3713 1625 
L 3713 1100 
L 3047 1100 
L 3047 0 
L 2419 0 
L 2419 1100 
L 313 1100 
L 313 1709 
L 2253 4666 
z
" transform="scale(0.015625)"/>
       </defs>
       <use xlink:href="#DejaVuSans-30"/>
       <use xlink:href="#DejaVuSans-2e" x="63.623047"/>
       <use xlink:href="#DejaVuSans-34" x="95.410156"/>
      </g>
     </g>
    </g>
    <g id="ytick_4">
     <g id="line2d_11">
      <g>
       <use xlink:href="#m37a8cc1448" x="72" y="224.8128" style="stroke: #000000; stroke-width: 0.8"/>
      </g>
     </g>
     <g id="text_12">
      <!-- 0.6 -->
      <g transform="translate(49.096875 228.612019)scale(0.1 -0.1)">
       <defs>
        <path id="DejaVuSans-36" d="M 2113 2584 
Q 1688 2584 1439 2293 
Q 1191 2003 1191 1497 
Q 1191 994 1439 701 
Q 1688 409 2113 409 
Q 2538 409 2786 701 
Q 3034 994 3034 1497 
Q 3034 2003 2786 2293 
Q 2538 2584 2113 2584 
z
M 3366 4563 
L 3366 3988 
Q 3128 4100 2886 4159 
Q 2644 4219 2406 4219 
Q 1781 4219 1451 3797 
Q 1122 3375 1075 2522 
Q 1259 2794 1537 2939 
Q 1816 3084 2150 3084 
Q 2853 3084 3261 2657 
Q 3669 2231 3669 1497 
Q 3669 778 3244 343 
Q 2819 -91 2113 -91 
Q 1303 -91 875 529 
Q 447 1150 447 2328 
Q 447 3434 972 4092 
Q 1497 4750 2381 4750 
Q 2619 4750 2861 4703 
Q 3103 4656 3366 4563 
z
" transform="scale(0.015625)"/>
       </defs>
       <use xlink:href="#DejaVuSans-30"/>
       <use xlink:href="#DejaVuSans-2e" x="63.623047"/>
       <use xlink:href="#DejaVuSans-36" x="95.410156"/>
      </g>
     </g>
    </g>
    <g id="ytick_5">
     <g id="line2d_12">
      <g>
       <use xlink:href="#m37a8cc1448" x="72" y="171.5904" style="stroke: #000000; stroke-width: 0.8"/>
      </g>
     </g>
     <g id="text_13">
      <!-- 0.8 -->
      <g transform="translate(49.096875 175.389619)scale(0.1 -0.1)">
       <defs>
        <path id="DejaVuSans-38" d="M 2034 2216 
Q 1584 2216 1326 1975 
Q 1069 1734 1069 1313 
Q 1069 891 1326 650 
Q 1584 409 2034 409 
Q 2484 409 2743 651 
Q 3003 894 3003 1313 
Q 3003 1734 2745 1975 
Q 2488 2216 2034 2216 
z
M 1403 2484 
Q 997 2584 770 2862 
Q 544 3141 544 3541 
Q 544 4100 942 4425 
Q 1341 4750 2034 4750 
Q 2731 4750 3128 4425 
Q 3525 4100 3525 3541 
Q 3525 3141 3298 2862 
Q 3072 2584 2669 2484 
Q 3125 2378 3379 2068 
Q 3634 1759 3634 1313 
Q 3634 634 3220 271 
Q 2806 -91 2034 -91 
Q 1263 -91 848 271 
Q 434 634 434 1313 
Q 434 1759 690 2068 
Q 947 2378 1403 2484 
z
M 1172 3481 
Q 1172 3119 1398 2916 
Q 1625 2713 2034 2713 
Q 2441 2713 2670 2916 
Q 2900 3119 2900 3481 
Q 2900 3844 2670 4047 
Q 2441 4250 2034 4250 
Q 1625 4250 1398 4047 
Q 1172 3844 1172 3481 
z
" transform="scale(0.015625)"/>
       </defs>
       <use xlink:href="#DejaVuSans-30"/>
       <use xlink:href="#DejaVuSans-2e" x="63.623047"/>
       <use xlink:href="#DejaVuSans-38" x="95.410156"/>
      </g>
     </g>
    </g>
    <g id="ytick_6">
     <g id="line2d_13">
      <g>
       <use xlink:href="#m37a8cc1448" x="72" y="118.368" style="stroke: #000000; stroke-width: 0.8"/>
      </g>
     </g>
     <g id="text_14">
      <!-- 1.0 -->
      <g transform="translate(49.096875 122.167219)scale(0.1 -0.1)">
       <use xlink:href="#DejaVuSans-31"/>
       <use xlink:href="#DejaVuSans-2e" x="63.623047"/>
       <use xlink:href="#DejaVuSans-30" x="95.410156"/>
      </g>
     </g>
    </g>
    <g id="ytick_7">
     <g id="line2d_14">
      <g>
       <use xlink:href="#m37a8cc1448" x="72" y="65.1456" style="stroke: #000000; stroke-width: 0.8"/>
      </g>
     </g>
     <g id="text_15">
      <!-- 1.2 -->
      <g transform="translate(49.096875 68.944819)scale(0.1 -0.1)">
       <use xlink:href="#DejaVuSans-31"/>
       <use xlink:href="#DejaVuSans-2e" x="63.623047"/>
       <use xlink:href="#DejaVuSans-32" x="95.410156"/>
      </g>
     </g>
    </g>
    <g id="text_16">
     <!-- Train loss -->
     <g transform="translate(43.017187 241.400625)rotate(-90)scale(0.1 -0.1)">
      <defs>
       <path id="DejaVuSans-54" d="M -19 4666 
L 3928 4666 
L 3928 4134 
L 2272 4134 
L 2272 0 
L 1638 0 
L 1638 4134 
L -19 4134 
L -19 4666 
z
" transform="scale(0.015625)"/>
       <path id="DejaVuSans-72" d="M 2631 2963 
Q 2534 3019 2420 3045 
Q 2306 3072 2169 3072 
Q 1681 3072 1420 2755 
Q 1159 2438 1159 1844 
L 1159 0 
L 581 0 
L 581 3500 
L 1159 3500 
L 1159 2956 
Q 1341 3275 1631 3429 
Q 1922 3584 2338 3584 
Q 2397 3584 2469 3576 
Q 2541 3569 2628 3553 
L 2631 2963 
z
" transform="scale(0.015625)"/>
       <path id="DejaVuSans-61" d="M 2194 1759 
Q 1497 1759 1228 1600 
Q 959 1441 959 1056 
Q 959 750 1161 570 
Q 1363 391 1709 391 
Q 2188 391 2477 730 
Q 2766 1069 2766 1631 
L 2766 1759 
L 2194 1759 
z
M 3341 1997 
L 3341 0 
L 2766 0 
L 2766 531 
Q 2569 213 2275 61 
Q 1981 -91 1556 -91 
Q 1019 -91 701 211 
Q 384 513 384 1019 
Q 384 1609 779 1909 
Q 1175 2209 1959 2209 
L 2766 2209 
L 2766 2266 
Q 2766 2663 2505 2880 
Q 2244 3097 1772 3097 
Q 1472 3097 1187 3025 
Q 903 2953 641 2809 
L 641 3341 
Q 956 3463 1253 3523 
Q 1550 3584 1831 3584 
Q 2591 3584 2966 3190 
Q 3341 2797 3341 1997 
z
" transform="scale(0.015625)"/>
       <path id="DejaVuSans-69" d="M 603 3500 
L 1178 3500 
L 1178 0 
L 603 0 
L 603 3500 
z
M 603 4863 
L 1178 4863 
L 1178 4134 
L 603 4134 
L 603 4863 
z
" transform="scale(0.015625)"/>
       <path id="DejaVuSans-6e" d="M 3513 2113 
L 3513 0 
L 2938 0 
L 2938 2094 
Q 2938 2591 2744 2837 
Q 2550 3084 2163 3084 
Q 1697 3084 1428 2787 
Q 1159 2491 1159 1978 
L 1159 0 
L 581 0 
L 581 3500 
L 1159 3500 
L 1159 2956 
Q 1366 3272 1645 3428 
Q 1925 3584 2291 3584 
Q 2894 3584 3203 3211 
Q 3513 2838 3513 2113 
z
" transform="scale(0.015625)"/>
       <path id="DejaVuSans-20" transform="scale(0.015625)"/>
       <path id="DejaVuSans-6c" d="M 603 4863 
L 1178 4863 
L 1178 0 
L 603 0 
L 603 4863 
z
" transform="scale(0.015625)"/>
      </defs>
      <use xlink:href="#DejaVuSans-54"/>
      <use xlink:href="#DejaVuSans-72" x="46.333984"/>
      <use xlink:href="#DejaVuSans-61" x="87.447266"/>
      <use xlink:href="#DejaVuSans-69" x="148.726562"/>
      <use xlink:href="#DejaVuSans-6e" x="176.509766"/>
      <use xlink:href="#DejaVuSans-20" x="239.888672"/>
      <use xlink:href="#DejaVuSans-6c" x="271.675781"/>
      <use xlink:href="#DejaVuSans-6f" x="299.458984"/>
      <use xlink:href="#DejaVuSans-73" x="360.640625"/>
      <use xlink:href="#DejaVuSans-73" x="412.740234"/>
     </g>
    </g>
   </g>
   <g id="line2d_15">
    <path d="M 92.290909 111.089555 
L 92.561545 111.595965 
L 93.238134 114.242525 
L 93.779405 115.823745 
L 94.320677 116.719379 
L 95.267901 117.725018 
L 96.215126 118.443499 
L 98.921483 120.220493 
L 100.139343 121.821141 
L 100.95125 123.034068 
L 101.492522 124.287476 
L 102.439747 127.188263 
L 103.386971 130.775203 
L 109.882227 158.503455 
L 111.370724 164.76797 
L 112.453266 169.675398 
L 113.400491 173.638522 
L 114.753669 178.576621 
L 117.324708 188.338132 
L 118.407251 192.566686 
L 120.437018 200.640806 
L 124.225918 213.190706 
L 127.067592 221.315842 
L 128.420771 223.858633 
L 129.232678 225.551432 
L 130.179902 227.56394 
L 131.127127 229.238042 
L 132.615623 232.352983 
L 137.21643 239.63209 
L 138.028337 240.862304 
L 138.704926 241.40141 
L 139.516833 242.151636 
L 140.464058 243.223238 
L 141.952554 245.066118 
L 142.629143 245.976358 
L 144.388275 248.03298 
L 145.3355 249.244743 
L 145.741453 249.498538 
L 146.282725 249.556283 
L 146.823996 249.587455 
L 147.229949 249.851687 
L 148.041856 250.897479 
L 149.800988 252.936459 
L 152.372027 254.472514 
L 154.266477 256.804349 
L 155.213702 257.588236 
L 155.754973 257.673154 
L 156.296244 257.806346 
L 157.108151 258.283348 
L 157.920058 259.096056 
L 158.596647 259.60557 
L 159.408554 260.097652 
L 160.085144 260.898396 
L 160.626415 261.428501 
L 162.250229 262.521284 
L 162.7915 263.063789 
L 163.197454 263.205052 
L 163.738725 263.29808 
L 164.144679 263.627691 
L 165.091903 264.645286 
L 166.174446 265.160876 
L 166.715717 265.521328 
L 168.880803 267.545438 
L 169.69271 268.061925 
L 170.775252 268.716924 
L 172.669702 270.077594 
L 174.02288 270.406369 
L 176.729237 272.284472 
L 177.541144 272.427983 
L 178.082415 272.892522 
L 179.976865 274.71655 
L 181.194726 275.422776 
L 182.277268 275.742045 
L 185.118943 277.494306 
L 185.660214 277.564349 
L 186.201485 277.620747 
L 186.742757 277.968359 
L 188.501889 279.368752 
L 190.666974 280.526778 
L 191.208245 280.776163 
L 192.426106 281.59438 
L 192.967377 281.813714 
L 193.779284 282.551056 
L 194.455873 282.962062 
L 196.215005 283.635696 
L 197.16223 284.241936 
L 197.838819 284.560985 
L 199.462633 285.708175 
L 200.409858 286.171832 
L 201.086447 286.199622 
L 201.627718 286.298995 
L 203.928121 287.497327 
L 205.2813 288.39969 
L 206.228525 289.249615 
L 207.581703 289.958536 
L 208.258292 290.493487 
L 208.664246 290.58714 
L 210.423377 290.621603 
L 210.964649 291.022539 
L 212.047191 291.916883 
L 213.535688 292.634814 
L 214.212277 292.820001 
L 215.159502 293.314237 
L 216.242044 293.336905 
L 216.647998 293.757256 
L 217.865858 295.364593 
L 218.271812 295.55831 
L 218.948401 295.541401 
L 220.166261 295.514685 
L 220.707533 295.884798 
L 222.196029 297.075472 
L 222.7373 297.187976 
L 223.549207 297.341747 
L 224.090479 297.643044 
L 225.173021 298.421106 
L 226.120246 298.745199 
L 227.338107 299.707734 
L 228.150014 299.766064 
L 228.826603 300.207254 
L 229.773828 300.767409 
L 230.315099 300.834485 
L 230.991688 300.905622 
L 233.698045 301.809029 
L 234.103998 302.103711 
L 235.051223 303.042099 
L 235.86313 303.291795 
L 236.539719 303.325589 
L 237.080991 303.426955 
L 237.75758 303.923523 
L 238.569487 304.505455 
L 239.110758 304.621377 
L 240.057983 304.741041 
L 241.005208 305.177418 
L 243.034975 306.150525 
L 243.711564 306.055411 
L 244.252836 306.046244 
L 244.658789 306.328964 
L 245.606014 307.183012 
L 246.282603 307.443783 
L 248.447689 308.169735 
L 252.236588 309.37256 
L 252.642541 309.460429 
L 253.183813 309.883906 
L 253.725084 310.24446 
L 254.401673 310.247855 
L 255.078262 310.396652 
L 255.890169 310.618468 
L 256.702076 310.724196 
L 258.731844 311.63449 
L 260.085022 311.950663 
L 261.032247 312.371655 
L 261.844154 312.397744 
L 263.467968 312.348149 
L 263.873922 312.501387 
L 264.415193 313.021196 
L 265.2271 313.851872 
L 265.768371 314.114455 
L 266.174325 314.08302 
L 267.12155 313.76414 
L 267.527503 314.018683 
L 268.204092 314.606768 
L 268.745364 314.69769 
L 270.23386 314.799549 
L 271.45172 315.157153 
L 272.669581 315.907107 
L 273.887441 316.02894 
L 274.699348 316.108873 
L 275.24062 316.259515 
L 276.999751 317.001268 
L 278.217612 317.081857 
L 280.382697 317.938168 
L 280.923969 317.980869 
L 282.006511 317.895934 
L 282.6831 318.122305 
L 283.765643 318.527601 
L 284.712868 318.823906 
L 286.066046 319.512526 
L 287.148589 319.696028 
L 289.043039 320.146249 
L 289.58431 319.989165 
L 290.125581 319.863459 
L 290.531535 320.035598 
L 291.47876 320.574752 
L 292.69662 320.8091 
L 293.508527 320.886175 
L 294.861705 321.335484 
L 295.673612 321.334758 
L 296.350202 321.643706 
L 297.297426 322.115087 
L 297.974016 322.175049 
L 298.92124 322.257118 
L 301.627597 323.168614 
L 304.333954 323.42678 
L 305.010543 323.525219 
L 306.093086 323.898153 
L 306.634357 324.00137 
L 307.7169 324.363352 
L 311.370481 324.679251 
L 314.347473 325.591422 
L 315.971287 325.839946 
L 316.512559 325.908958 
L 317.865737 326.293221 
L 318.94828 326.175926 
L 319.624869 326.602551 
L 320.16614 326.843055 
L 321.113365 326.892869 
L 322.06059 326.960039 
L 323.143133 327.433471 
L 324.496311 327.345276 
L 326.390761 327.801468 
L 327.06735 327.856547 
L 328.961799 328.33431 
L 330.17966 328.691103 
L 330.991567 328.979718 
L 331.532838 328.875604 
L 332.209427 328.761758 
L 332.886017 328.986202 
L 333.833241 329.251642 
L 334.780466 329.461786 
L 335.457055 329.571899 
L 335.998327 329.65431 
L 337.080869 330.01624 
L 338.163412 329.984906 
L 339.922544 330.57792 
L 342.628901 330.738493 
L 343.846761 331.042037 
L 344.929304 331.244698 
L 346.553118 331.401523 
L 347.500343 331.606085 
L 348.988839 331.760235 
L 349.800746 332.093624 
L 350.747971 332.492375 
L 351.289242 332.444574 
L 351.830513 332.419001 
L 353.319009 332.804546 
L 354.266234 332.822793 
L 354.942823 332.792045 
L 355.75473 332.733616 
L 357.243227 332.913226 
L 358.325769 333.426023 
L 360.084901 333.498116 
L 360.896808 333.668796 
L 362.926576 334.222027 
L 363.467847 334.102387 
L 364.009118 333.947565 
L 364.415072 334.086768 
L 365.226979 334.50525 
L 366.715475 334.641067 
L 367.527382 334.440967 
L 368.203971 334.320916 
L 368.745242 334.450028 
L 370.233739 335.109346 
L 372.128188 335.363965 
L 373.481367 335.632676 
L 375.105181 335.9155 
L 376.052405 335.966789 
L 377.405584 336.191592 
L 379.300033 336.439865 
L 380.11194 336.292164 
L 381.735754 336.436581 
L 382.277026 336.42326 
L 384.036158 336.846302 
L 385.1187 337.296982 
L 386.065925 337.181935 
L 386.877832 337.220626 
L 390.531414 337.880891 
L 391.478638 337.595315 
L 392.155228 337.749303 
L 394.320313 338.366402 
L 395.13222 338.332142 
L 396.214762 338.650806 
L 397.973894 338.34792 
L 398.650483 338.498458 
L 399.46239 338.721383 
L 400.274297 338.907896 
L 401.086204 339.099254 
L 401.898111 339.281216 
L 402.574701 339.408774 
L 404.063197 339.367664 
L 405.145739 339.71975 
L 405.957646 339.748817 
L 407.446143 339.649188 
L 409.205274 340.089159 
L 411.235042 340.071556 
L 412.452902 340.011881 
L 412.994174 340.073866 
L 414.212034 340.553797 
L 415.429895 340.55614 
L 417.189027 340.687831 
L 417.865616 340.938885 
L 418.542205 341.130205 
L 419.354112 341.075311 
L 420.166019 341.02858 
L 421.383879 341.157639 
L 422.060469 341.130712 
L 424.631507 341.749965 
L 425.849368 341.654687 
L 427.067228 341.861917 
L 428.285089 341.794604 
L 429.773585 342.337747 
L 430.991446 342.212704 
L 431.93867 342.490639 
L 432.61526 342.358107 
L 433.291849 342.282565 
L 434.103756 342.452552 
L 434.645027 342.760881 
L 435.321616 343.146842 
L 435.862888 343.130972 
L 438.163291 342.786462 
L 438.83988 342.898182 
L 439.651787 342.958077 
L 440.73433 343.277033 
L 441.681554 343.354321 
L 442.628779 343.551024 
L 443.981958 343.489116 
L 446.823632 343.935784 
L 447.500221 343.924021 
L 448.718082 343.736207 
L 449.394671 343.85925 
L 450.477214 344.123774 
L 453.454206 344.339465 
L 454.672066 344.657443 
L 456.160563 344.654367 
L 459.949462 345.125292 
L 461.708594 345.195387 
L 465.497493 345.274078 
L 466.3094 345.194871 
L 466.850671 345.367654 
L 467.662578 345.661424 
L 468.609803 345.672706 
L 469.557028 345.655852 
L 470.910206 345.788758 
L 473.345927 345.906395 
L 474.834424 346.063511 
L 478.217369 346.595666 
L 480.788408 346.695868 
L 481.600315 346.83358 
L 483.088811 346.827898 
L 484.171354 347.106674 
L 484.847943 347.198728 
L 486.201122 347.240181 
L 487.013029 347.299436 
L 488.366207 347.121506 
L 490.395974 347.53262 
L 492.425742 347.583924 
L 493.914238 347.691711 
L 495.132099 348.00334 
L 496.349959 348.074125 
L 497.026548 348.205999 
L 498.109091 348.169464 
L 498.109091 348.169464 
" clip-path="url(#p05d960914c)" style="fill: none; stroke: #ff0000; stroke-linecap: square"/>
   </g>
   <g id="line2d_16">
    <path d="M 92.290909 104.865512 
L 92.426227 105.236512 
L 92.696863 106.885353 
L 93.644087 113.739758 
L 94.050041 115.147454 
L 94.591312 116.21582 
L 95.132584 116.819013 
L 95.944491 117.33902 
L 98.786165 118.988078 
L 99.73339 119.745062 
L 100.545297 120.664839 
L 101.62784 122.321048 
L 102.304429 123.906083 
L 103.928243 127.883054 
L 105.281421 130.794493 
L 106.228646 133.006338 
L 107.581824 136.055432 
L 109.74691 140.825766 
L 110.558817 143.251373 
L 111.506041 146.073738 
L 112.723902 149.189589 
L 113.671127 152.480397 
L 116.242166 162.47848 
L 118.542569 170.345275 
L 119.354476 173.154044 
L 120.707654 178.141574 
L 121.790197 181.114174 
L 123.278693 184.672404 
L 124.496553 187.826616 
L 126.932274 193.967923 
L 128.014817 196.753503 
L 130.450538 202.661651 
L 131.397763 205.316758 
L 133.698166 210.640689 
L 135.186662 214.119502 
L 140.193422 224.276751 
L 141.952554 226.640367 
L 143.305732 228.499759 
L 144.252957 230.36929 
L 144.929546 231.643772 
L 145.606135 232.429227 
L 146.823996 233.821658 
L 148.853763 236.580086 
L 150.34226 238.487846 
L 151.018849 239.295058 
L 151.966074 240.535796 
L 152.507345 240.83767 
L 153.183934 241.243669 
L 154.943066 242.740645 
L 155.619655 243.259196 
L 156.56688 243.940956 
L 157.108151 244.470143 
L 158.867283 246.49014 
L 159.814508 247.019398 
L 161.032368 247.56168 
L 161.438322 248.089783 
L 162.250229 249.280671 
L 162.656182 249.376924 
L 163.197454 249.443715 
L 163.874043 249.852504 
L 164.821268 250.710617 
L 165.633175 251.238594 
L 166.445082 251.467769 
L 167.121671 251.757362 
L 168.068896 252.397165 
L 168.880803 253.333652 
L 169.557392 253.994435 
L 171.316524 254.860308 
L 171.993113 255.220948 
L 173.210973 255.509742 
L 173.887563 256.089744 
L 175.782012 257.890262 
L 176.458601 257.978745 
L 176.999873 258.432392 
L 177.541144 258.829357 
L 178.488369 259.217643 
L 179.570912 260.178366 
L 179.976865 260.211421 
L 180.653454 260.093187 
L 181.059408 260.339286 
L 182.547904 261.795886 
L 183.630447 262.127599 
L 184.577671 262.606861 
L 185.524896 263.125399 
L 187.284028 264.10594 
L 187.960617 264.120435 
L 188.501889 264.243633 
L 189.04316 264.6624 
L 190.26102 265.920232 
L 191.614199 266.212881 
L 192.290788 266.604732 
L 192.967377 266.608753 
L 193.508648 266.711785 
L 194.185238 267.194438 
L 194.726509 267.445956 
L 195.673734 267.560132 
L 197.026912 268.407036 
L 197.974137 269.137672 
L 198.515408 269.610824 
L 198.921362 269.659957 
L 199.462633 269.668209 
L 200.003904 270.035191 
L 200.545176 270.363634 
L 201.221765 270.668937 
L 202.16899 271.294339 
L 202.710261 271.347521 
L 203.792804 271.369714 
L 204.469393 271.696357 
L 205.551935 272.569324 
L 206.363842 273.119463 
L 207.446385 273.519103 
L 208.528928 273.80383 
L 210.829331 274.866169 
L 212.317827 275.468203 
L 212.994416 275.802568 
L 215.565455 276.505766 
L 216.242044 276.49752 
L 216.783316 276.591177 
L 217.324587 276.941645 
L 218.40713 277.722382 
L 218.948401 277.793745 
L 219.62499 277.836755 
L 220.166261 278.156653 
L 220.978168 278.77572 
L 222.466665 279.461747 
L 223.007936 279.745278 
L 223.819843 280.03084 
L 224.496432 280.283809 
L 226.120246 280.522043 
L 228.285331 281.395399 
L 228.961921 281.593096 
L 230.991688 282.818577 
L 231.668277 283.077791 
L 232.480184 283.11932 
L 233.021456 283.217523 
L 234.239316 283.533104 
L 234.780587 283.584881 
L 235.321859 283.609221 
L 235.727812 283.955465 
L 236.539719 284.830781 
L 236.945673 284.891624 
L 237.892898 284.789965 
L 239.652029 285.391749 
L 240.463936 285.85526 
L 241.681797 286.173678 
L 242.358386 286.199612 
L 242.76434 286.518593 
L 243.576247 287.294169 
L 243.9822 287.360054 
L 244.794107 287.178319 
L 245.335378 287.134191 
L 246.011968 287.421337 
L 246.823875 287.671943 
L 247.365146 287.972774 
L 248.177053 288.54315 
L 248.583006 288.513699 
L 249.530231 288.341866 
L 250.071503 288.367004 
L 250.477456 288.609224 
L 251.289363 289.186209 
L 253.454448 289.767918 
L 255.078262 290.146591 
L 256.566759 291.062618 
L 257.513983 291.88724 
L 257.919937 291.860915 
L 258.867162 291.430883 
L 259.543751 291.51703 
L 260.22034 291.812513 
L 261.167565 292.286765 
L 263.197332 292.646005 
L 263.873922 292.590775 
L 264.279875 292.771294 
L 265.497736 293.596612 
L 266.174325 293.721395 
L 266.986232 293.769815 
L 267.798139 294.227743 
L 269.151317 294.841037 
L 270.23386 295.03898 
L 271.722356 295.165488 
L 272.804899 295.599706 
L 274.022759 295.798188 
L 274.699348 296.220431 
L 275.917209 296.522283 
L 276.593798 296.919876 
L 276.999751 296.904446 
L 277.946976 296.639121 
L 279.841426 297.262295 
L 280.518015 297.77932 
L 281.059286 298.155097 
L 281.46524 298.219272 
L 282.412465 297.981653 
L 282.953736 297.972866 
L 284.442232 298.352976 
L 285.254139 298.798858 
L 286.066046 299.236112 
L 287.283907 299.45294 
L 288.772403 299.604283 
L 289.448992 299.762871 
L 290.531535 299.743761 
L 291.072806 300.170259 
L 291.47876 300.384613 
L 291.749395 300.307593 
L 292.561302 299.885034 
L 292.967256 300.121036 
L 293.779163 300.757981 
L 294.997023 301.277087 
L 295.538295 301.64461 
L 295.944248 301.603988 
L 296.756155 301.284398 
L 297.432744 301.449244 
L 297.974016 301.793726 
L 298.650605 302.296513 
L 299.191876 302.334783 
L 299.868465 302.459882 
L 301.898233 302.885527 
L 302.980775 302.659553 
L 303.522047 302.955804 
L 304.198636 303.315618 
L 304.875225 303.285155 
L 305.551814 303.348439 
L 306.499039 303.648796 
L 307.7169 304.197332 
L 308.258171 304.133784 
L 308.93476 304.054211 
L 309.611349 304.254186 
L 311.641117 304.922746 
L 312.182388 304.916909 
L 312.858977 305.187843 
L 313.400249 305.30407 
L 314.347473 305.092589 
L 315.294698 305.510982 
L 315.971287 305.517051 
L 316.647877 305.921371 
L 317.595101 306.35654 
L 318.271691 306.44725 
L 318.812962 306.528664 
L 319.624869 306.799791 
L 320.436776 306.859655 
L 321.113365 306.976666 
L 321.789954 307.022707 
L 322.601861 307.287154 
L 323.413768 307.241955 
L 323.819722 307.569528 
L 324.360993 308.025673 
L 324.631629 308.038322 
L 325.1729 307.720642 
L 325.578854 307.56354 
L 327.06735 307.513541 
L 327.608621 307.825211 
L 328.28521 308.246802 
L 328.826482 308.301481 
L 329.503071 308.350609 
L 330.585613 308.768083 
L 331.532838 309.100856 
L 333.562606 309.152834 
L 334.239195 309.181654 
L 334.915784 309.238946 
L 335.863009 309.501527 
L 336.674916 309.518451 
L 337.216187 309.811347 
L 337.892776 310.170912 
L 338.29873 310.129254 
L 338.840001 310.028446 
L 339.381273 310.202571 
L 340.463815 310.589641 
L 341.681676 310.758093 
L 342.764218 310.909151 
L 344.388032 311.650127 
L 346.553118 311.696465 
L 347.906296 312.190569 
L 348.447567 312.31743 
L 349.665428 312.937187 
L 350.071381 312.717061 
L 351.018606 312.029676 
L 351.42456 311.963581 
L 351.830513 312.101406 
L 353.048374 312.804596 
L 354.401552 312.925542 
L 355.75473 313.778281 
L 356.296002 313.764977 
L 357.243227 313.652452 
L 358.867041 313.992144 
L 360.490855 313.880715 
L 361.708715 314.652098 
L 363.197211 314.603759 
L 364.144436 314.710948 
L 365.226979 314.713216 
L 366.580157 314.942947 
L 367.527382 315.070945 
L 369.015878 315.712844 
L 370.098421 315.578559 
L 371.316281 315.605288 
L 372.128188 315.873243 
L 372.66946 315.967659 
L 373.346049 315.821693 
L 374.022638 315.699812 
L 374.834545 315.916132 
L 375.646452 316.271329 
L 376.458359 316.690076 
L 376.864312 316.645955 
L 378.082173 316.280153 
L 378.488126 316.459536 
L 379.164716 317.154694 
L 379.705987 317.560739 
L 380.11194 317.51334 
L 381.059165 317.073559 
L 381.871072 317.123613 
L 382.412344 317.35716 
L 383.088933 317.614682 
L 384.442111 317.614352 
L 385.1187 317.590137 
L 385.795289 317.914333 
L 386.471879 318.15081 
L 389.854824 318.528949 
L 391.613956 318.81952 
L 392.425863 319.01109 
L 394.590948 319.146325 
L 395.267538 319.44806 
L 396.079445 319.444517 
L 396.891352 319.316901 
L 397.567941 319.201832 
L 398.109212 319.338493 
L 398.785801 319.534047 
L 399.868344 319.59478 
L 400.680251 319.916567 
L 401.221522 319.807791 
L 402.033429 319.647881 
L 402.710018 319.747236 
L 403.386608 320.115732 
L 404.333832 320.649988 
L 405.145739 320.783109 
L 406.769553 320.98461 
L 407.716778 321.313359 
L 408.664003 321.246489 
L 409.611228 321.182245 
L 410.829088 321.497918 
L 412.723538 321.807275 
L 413.129492 321.728441 
L 414.212034 321.232329 
L 414.617988 321.439885 
L 415.70053 322.20705 
L 416.512437 322.346664 
L 417.459662 322.581947 
L 418.136251 322.708553 
L 418.542205 322.510331 
L 419.354112 321.908429 
L 419.760065 321.992571 
L 420.571972 322.368151 
L 423.548965 322.899399 
L 424.225554 323.066687 
L 425.849368 323.152501 
L 426.931911 323.327763 
L 429.096996 323.504298 
L 429.773585 323.844554 
L 430.314856 324.033791 
L 431.126763 323.982702 
L 432.61526 323.876403 
L 434.780345 324.10581 
L 435.456934 324.125641 
L 437.486702 324.653591 
L 438.163291 324.910065 
L 439.516469 324.948576 
L 439.922423 325.036679 
L 440.463694 324.870679 
L 441.004965 324.782704 
L 441.546237 324.988882 
L 442.358144 325.361491 
L 442.899415 325.309379 
L 443.711322 325.190433 
L 444.793865 325.384617 
L 446.147043 325.580939 
L 447.229586 325.473421 
L 447.906175 325.395426 
L 448.447446 325.593407 
L 449.124035 325.84224 
L 451.424438 325.963906 
L 452.912935 326.238701 
L 453.589524 326.605889 
L 454.401431 326.66695 
L 455.754609 326.794026 
L 456.431198 326.889054 
L 457.107787 326.70886 
L 457.784377 326.570621 
L 459.002237 326.804199 
L 460.220098 327.042615 
L 460.896687 327.082294 
L 462.385183 327.470063 
L 463.332408 327.394554 
L 464.820904 327.711156 
L 466.174082 327.561756 
L 466.850671 327.303782 
L 467.256625 327.408153 
L 468.20385 327.818159 
L 469.42171 327.95235 
L 470.504253 328.22526 
L 471.722113 328.160366 
L 472.804656 328.096349 
L 474.022517 328.399624 
L 475.375695 328.320482 
L 476.593555 328.623877 
L 477.270145 328.683152 
L 478.082052 328.744913 
L 478.758641 328.815404 
L 479.841183 328.713616 
L 481.059044 328.956635 
L 481.870951 328.774472 
L 482.412222 329.030633 
L 483.088811 329.317984 
L 484.171354 329.456153 
L 485.524532 329.483163 
L 486.336439 329.780827 
L 486.877711 329.680331 
L 487.960253 329.453007 
L 488.636843 329.524653 
L 489.313432 329.919212 
L 489.854703 330.136689 
L 490.531292 330.045792 
L 491.749153 329.929332 
L 494.049556 330.178784 
L 494.726145 330.312927 
L 495.808688 330.321251 
L 496.89123 330.203167 
L 498.109091 330.505003 
L 498.109091 330.505003 
" clip-path="url(#p05d960914c)" style="fill: none; stroke: #0000ff; stroke-linecap: square"/>
   </g>
   <g id="line2d_17">
    <path d="M 92.290909 93.247627 
L 92.426227 93.783917 
L 92.696863 96.203433 
L 93.779405 108.651985 
L 94.320677 111.784484 
L 94.861948 113.594906 
L 95.403219 114.723841 
L 96.079808 115.627873 
L 96.891715 116.363524 
L 97.83894 116.89551 
L 99.598072 117.653588 
L 106.905235 119.404534 
L 107.987778 119.595059 
L 109.882227 120.101446 
L 110.829452 120.422577 
L 112.453266 120.858888 
L 114.483034 121.509796 
L 115.565576 121.968312 
L 118.001297 123.227129 
L 119.354476 123.709838 
L 122.331468 125.775561 
L 123.278693 126.602352 
L 124.361236 127.200712 
L 127.067592 128.733544 
L 128.150135 129.558899 
L 129.232678 130.25721 
L 130.179902 131.194684 
L 131.939034 133.045439 
L 133.42753 134.522548 
L 135.051344 136.530008 
L 136.539841 137.928823 
L 138.298972 140.295837 
L 139.381515 141.982224 
L 140.058104 142.948076 
L 141.952554 146.396799 
L 142.899779 148.096148 
L 143.576368 149.358883 
L 144.388275 151.627222 
L 145.470818 154.447147 
L 146.282725 156.10667 
L 146.959314 156.98917 
L 147.500585 157.767053 
L 148.041856 159.083458 
L 149.124399 161.938654 
L 151.154167 165.658304 
L 153.183934 168.984137 
L 154.537112 171.928002 
L 155.213702 172.909295 
L 156.431562 174.185723 
L 156.972833 174.7119 
L 157.649423 175.958868 
L 159.137919 178.420433 
L 159.949826 179.574242 
L 161.708958 181.66253 
L 162.520865 182.682406 
L 163.197454 183.254945 
L 163.738725 183.780792 
L 164.415314 184.977435 
L 165.091903 186.011804 
L 165.497857 186.280265 
L 166.039128 186.468109 
L 166.309764 186.757953 
L 166.715717 187.559636 
L 167.662942 189.595158 
L 168.204214 190.348637 
L 168.880803 190.84288 
L 169.422074 191.316615 
L 171.181206 193.216387 
L 171.587159 193.657551 
L 172.399066 195.089215 
L 172.940338 195.833617 
L 173.481609 196.225663 
L 175.376059 197.211966 
L 175.91733 198.130159 
L 176.593919 199.239449 
L 176.999873 199.502045 
L 177.947098 199.897363 
L 178.623687 200.472586 
L 179.706229 201.500968 
L 180.247501 202.050313 
L 181.330043 203.272923 
L 182.006633 203.636951 
L 183.089175 204.168322 
L 184.848307 205.233098 
L 185.389578 205.846664 
L 186.472121 207.327342 
L 187.013392 207.567685 
L 188.501889 208.031849 
L 189.584431 208.670279 
L 190.26102 208.873321 
L 191.614199 209.715282 
L 192.426106 210.689324 
L 192.696741 210.75271 
L 193.643966 210.644297 
L 194.591191 211.280851 
L 195.132462 211.785308 
L 196.350323 213.133155 
L 196.891594 213.303787 
L 198.244772 213.370501 
L 198.786044 213.892698 
L 199.462633 214.48069 
L 200.003904 214.713902 
L 200.409858 214.687562 
L 200.951129 214.634617 
L 201.357083 214.954342 
L 201.898354 215.382416 
L 202.304307 215.385528 
L 202.980897 215.358184 
L 203.38685 215.598086 
L 203.928121 216.314293 
L 204.604711 217.224697 
L 205.010664 217.476643 
L 205.687253 217.593097 
L 206.49916 217.772637 
L 207.717021 218.415171 
L 208.258292 218.662889 
L 208.799563 218.60347 
L 209.205517 218.609776 
L 209.61147 218.895913 
L 210.423377 219.644263 
L 211.235284 220.161225 
L 212.047191 220.753986 
L 212.723781 220.860859 
L 213.806323 221.028226 
L 214.753548 221.328458 
L 215.565455 221.603623 
L 216.377362 221.774261 
L 217.459905 222.519678 
L 218.001176 222.426533 
L 218.542447 222.36771 
L 218.948401 222.586417 
L 220.301579 223.708206 
L 221.654758 223.935318 
L 222.466665 224.548388 
L 222.872618 224.483343 
L 223.549207 224.219185 
L 223.955161 224.360827 
L 224.496432 224.911933 
L 225.037703 225.427781 
L 225.443657 225.541714 
L 226.255564 225.641877 
L 227.202789 225.888966 
L 227.74406 226.10435 
L 228.555967 226.48538 
L 228.961921 226.459586 
L 229.63851 226.308565 
L 230.179781 226.503235 
L 231.397642 227.25703 
L 231.938913 227.600098 
L 232.480184 227.640029 
L 233.427409 227.657167 
L 233.833363 227.945221 
L 234.64527 228.730014 
L 235.051223 228.754065 
L 235.998448 228.674438 
L 236.539719 228.796957 
L 237.892898 229.390034 
L 238.704805 229.306497 
L 239.381394 229.636799 
L 241.140526 230.728753 
L 243.305611 231.138948 
L 243.9822 231.278911 
L 244.929425 231.688157 
L 246.688557 231.748914 
L 247.635782 231.889797 
L 248.041735 232.191001 
L 248.583006 232.652009 
L 248.98896 232.655792 
L 249.665549 232.433572 
L 250.071503 232.552771 
L 251.424681 233.270441 
L 252.236588 233.347944 
L 253.454448 234.0448 
L 254.131038 233.969708 
L 254.536991 234.207565 
L 255.21358 234.678381 
L 255.619534 234.707408 
L 256.566759 234.572789 
L 258.596526 235.156364 
L 259.814387 235.979357 
L 260.490976 235.972251 
L 261.438201 235.916829 
L 263.197332 236.307387 
L 264.415193 236.840113 
L 265.091782 236.973778 
L 265.903689 237.251938 
L 266.309643 237.1085 
L 266.850914 236.881104 
L 267.527503 236.925689 
L 268.33941 237.165278 
L 269.286635 237.454199 
L 271.587038 238.066386 
L 272.128309 238.14159 
L 272.669581 238.52555 
L 273.210852 238.847438 
L 273.752123 238.879559 
L 274.699348 238.664914 
L 275.105302 238.908766 
L 276.187844 239.955445 
L 276.45848 239.944767 
L 277.541023 239.560333 
L 278.488248 239.933466 
L 279.029519 240.069596 
L 279.841426 240.619598 
L 280.112062 240.535675 
L 280.923969 240.084694 
L 281.735876 240.212501 
L 282.277147 240.43387 
L 282.818418 241.011449 
L 283.35969 241.513028 
L 284.036279 241.705654 
L 284.848186 241.838633 
L 286.066046 241.773403 
L 287.419225 241.812931 
L 288.366449 241.563415 
L 290.531535 242.076537 
L 292.425984 243.263391 
L 293.102574 243.423317 
L 294.320434 243.403999 
L 294.861705 243.38503 
L 295.944248 243.632709 
L 296.756155 243.446872 
L 297.162109 243.656525 
L 298.109333 244.369606 
L 298.650605 244.395261 
L 300.003783 244.119446 
L 301.762915 244.718892 
L 302.439504 244.717193 
L 302.980775 245.090927 
L 303.386729 245.311362 
L 303.792682 245.26144 
L 304.469272 245.079937 
L 305.010543 245.253511 
L 305.551814 245.386068 
L 306.363721 245.319031 
L 306.904993 245.652819 
L 307.581582 246.02961 
L 308.393489 246.047247 
L 309.070078 246.186007 
L 310.152621 246.416247 
L 312.182388 246.77888 
L 313.129613 246.596787 
L 314.076838 246.839575 
L 315.700652 247.436613 
L 316.241923 247.524083 
L 317.189148 247.864968 
L 318.001055 247.947228 
L 318.677644 248.173152 
L 320.572094 248.120128 
L 321.519319 248.676503 
L 322.466543 249.201963 
L 323.007815 249.150317 
L 324.902264 248.700632 
L 325.443536 248.853019 
L 327.06735 249.680883 
L 327.608621 250.013766 
L 328.149892 250.047906 
L 329.909024 249.830113 
L 330.450296 250.312017 
L 330.991567 250.714279 
L 331.39752 250.717048 
L 332.209427 250.610787 
L 332.750699 250.891747 
L 333.29197 251.113043 
L 333.968559 251.028585 
L 335.18642 250.913814 
L 335.592373 251.059026 
L 336.674916 251.74853 
L 337.080869 251.673292 
L 337.892776 251.406198 
L 338.29873 251.483369 
L 339.110637 251.784412 
L 339.51659 251.661752 
L 340.328497 251.346895 
L 340.734451 251.447578 
L 341.41104 251.899462 
L 342.222947 252.365982 
L 342.899536 252.517835 
L 343.982079 252.671428 
L 345.199939 253.112911 
L 345.876529 252.919233 
L 346.688436 252.722718 
L 347.229707 252.861794 
L 347.906296 253.066353 
L 349.53011 253.132449 
L 350.747971 253.780238 
L 351.42456 253.785437 
L 351.965831 254.110365 
L 352.507102 254.438171 
L 352.913056 254.442359 
L 354.130916 254.011505 
L 354.942823 254.100818 
L 355.75473 254.087707 
L 357.243227 254.528334 
L 357.784498 254.591295 
L 358.867041 254.549079 
L 360.896808 255.116371 
L 362.385304 255.887297 
L 362.926576 255.831699 
L 363.8738 255.643404 
L 364.956343 255.825399 
L 365.903568 256.246242 
L 366.715475 256.49667 
L 367.256746 256.433336 
L 368.203971 256.15503 
L 368.609925 256.3004 
L 369.692467 256.90392 
L 370.639692 257.072678 
L 372.128188 257.157137 
L 372.940095 257.547015 
L 373.346049 257.44014 
L 374.157956 257.14548 
L 374.699227 257.165437 
L 375.240498 257.436806 
L 375.917088 257.858607 
L 377.270266 258.217711 
L 378.082173 257.908374 
L 378.488126 258.174991 
L 379.435351 259.026291 
L 379.841305 259.081923 
L 380.78853 258.864425 
L 381.465119 258.739024 
L 382.412344 258.967582 
L 383.088933 259.078954 
L 384.306793 258.968967 
L 386.877832 259.450615 
L 388.772282 259.532951 
L 390.260778 259.947568 
L 391.343321 260.483195 
L 392.290545 260.417088 
L 392.831817 260.268971 
L 393.373088 260.078811 
L 393.779041 260.214225 
L 394.590948 260.633918 
L 395.402855 260.575882 
L 396.079445 260.647892 
L 397.838576 261.032137 
L 398.379848 260.846431 
L 399.056437 260.545289 
L 399.46239 260.63733 
L 401.492158 261.740829 
L 402.033429 261.850948 
L 403.115972 261.922469 
L 403.792561 261.967588 
L 404.46915 262.022961 
L 405.687011 262.424811 
L 406.498918 262.334716 
L 406.904871 262.627688 
L 407.446143 263.098783 
L 407.716778 263.120574 
L 408.799321 262.849732 
L 410.287817 263.050742 
L 412.046949 263.213235 
L 416.647755 263.73108 
L 417.59498 264.423797 
L 418.000934 264.322684 
L 418.542205 264.112487 
L 418.948158 264.234463 
L 419.48943 264.4359 
L 420.030701 264.278372 
L 420.436655 264.221179 
L 421.383879 264.327129 
L 422.060469 264.225644 
L 422.466422 264.466834 
L 423.143011 264.921213 
L 423.548965 264.912475 
L 424.49619 264.704257 
L 427.473182 265.412417 
L 429.096996 266.054942 
L 429.502949 265.954404 
L 430.450174 265.484513 
L 430.991446 265.592929 
L 431.803353 266.044094 
L 432.344624 266.245831 
L 433.021213 266.182815 
L 433.968438 266.109104 
L 436.539477 266.316961 
L 437.216066 266.425171 
L 438.433926 266.273602 
L 438.975198 266.637315 
L 439.651787 267.07543 
L 440.328376 267.236317 
L 441.004965 267.215412 
L 442.358144 267.013149 
L 443.711322 267.328356 
L 444.252593 267.338544 
L 445.0645 267.728258 
L 445.876407 267.973143 
L 446.823632 268.180896 
L 448.312128 268.820664 
L 448.8534 268.700746 
L 449.394671 268.606929 
L 450.07126 268.594179 
L 450.747849 268.341795 
L 451.153803 268.537602 
L 451.830392 268.973749 
L 453.454206 269.257642 
L 454.401431 269.246928 
L 455.07802 269.315972 
L 456.160563 269.123449 
L 458.731601 269.530999 
L 459.408191 269.45822 
L 460.355415 269.076764 
L 460.626051 269.272773 
L 461.708594 270.436618 
L 462.114547 270.449417 
L 463.467726 270.128378 
L 464.685586 270.151808 
L 465.226857 270.448766 
L 465.903447 270.80138 
L 466.444718 270.717968 
L 466.985989 270.646608 
L 468.068532 270.812709 
L 468.745121 270.614568 
L 470.233617 270.915358 
L 470.910206 271.205799 
L 471.180842 271.144725 
L 471.586796 270.803937 
L 472.128067 270.312552 
L 472.398703 270.252353 
L 472.669338 270.362081 
L 473.21061 270.928984 
L 473.887199 271.567235 
L 474.293152 271.671427 
L 475.511013 271.593198 
L 476.32292 272.034276 
L 476.864191 271.93745 
L 477.405462 271.870104 
L 478.623323 272.096693 
L 480.111819 272.467435 
L 481.735633 272.268025 
L 482.953494 272.70812 
L 484.036036 272.551778 
L 484.847943 272.987639 
L 485.253897 272.906938 
L 486.471757 272.461132 
L 486.877711 272.621331 
L 487.418982 273.243888 
L 487.960253 273.778213 
L 488.366207 273.811221 
L 489.719385 273.622478 
L 490.260657 273.763626 
L 490.937246 274.094903 
L 491.207881 274.049506 
L 492.425742 273.414256 
L 492.967013 273.664344 
L 493.643602 273.924754 
L 494.184874 273.86239 
L 495.267416 273.606769 
L 495.67337 273.86468 
L 496.349959 274.312373 
L 496.89123 274.30895 
L 497.432502 274.344062 
L 498.109091 274.516817 
L 498.109091 274.516817 
" clip-path="url(#p05d960914c)" style="fill: none; stroke: #008000; stroke-linecap: square"/>
   </g>
   <g id="line2d_18">
    <path d="M 92.290909 108.4649 
L 92.561545 108.964035 
L 92.967498 110.583429 
L 93.644087 113.406824 
L 94.185359 114.768651 
L 94.861948 115.808397 
L 95.673855 116.603063 
L 96.62108 117.277526 
L 97.703622 117.642171 
L 99.056801 118.08 
L 100.409979 118.617717 
L 101.221886 118.850471 
L 103.386971 119.189948 
L 105.822692 119.97814 
L 106.905235 120.502859 
L 108.258413 120.782431 
L 109.611592 121.245237 
L 112.317948 122.177664 
L 113.671127 122.789317 
L 114.483034 123.125675 
L 115.430259 123.540247 
L 116.377483 123.866431 
L 117.324708 124.195494 
L 118.001297 124.457563 
L 119.489794 125.308519 
L 120.707654 125.902236 
L 121.384243 126.167503 
L 122.331468 126.421709 
L 123.008057 126.988151 
L 123.549329 127.358259 
L 124.0906 127.443449 
L 124.631871 127.528808 
L 125.173143 127.869935 
L 125.98505 128.443553 
L 127.338228 128.906119 
L 128.014817 129.262745 
L 129.232678 130.225427 
L 131.397763 131.258836 
L 132.480306 132.077363 
L 135.186662 133.556122 
L 135.863251 133.892794 
L 140.058104 137.439577 
L 140.599376 137.765009 
L 141.5466 138.160679 
L 143.305732 139.659948 
L 144.252957 140.381023 
L 145.606135 141.706003 
L 146.418042 142.587776 
L 147.635903 143.325073 
L 148.853763 144.819621 
L 149.530353 145.248776 
L 150.477577 145.783867 
L 152.101391 147.340939 
L 152.642663 148.191792 
L 153.183934 149.013868 
L 153.860523 149.55143 
L 154.943066 150.298143 
L 155.484337 150.586123 
L 155.890291 151.052787 
L 157.378787 153.091601 
L 158.326012 154.065294 
L 159.814508 155.969577 
L 160.491097 156.344473 
L 161.167686 156.725154 
L 161.979593 157.588306 
L 163.738725 159.383355 
L 164.279996 159.689543 
L 164.68595 159.925021 
L 165.091903 160.425984 
L 165.768493 161.342351 
L 166.445082 161.782891 
L 166.986353 162.268365 
L 168.610167 164.116657 
L 169.69271 164.713356 
L 172.263749 167.154445 
L 173.075656 167.815015 
L 173.887563 168.580055 
L 175.646694 170.809565 
L 176.458601 171.51737 
L 176.999873 171.904305 
L 178.082415 172.108669 
L 178.759005 172.94158 
L 179.706229 173.931813 
L 181.600679 175.529157 
L 182.006633 175.665785 
L 182.81854 175.775425 
L 183.224493 176.138622 
L 184.848307 178.226483 
L 185.660214 178.895525 
L 186.742757 179.363931 
L 188.637206 180.576339 
L 189.04316 180.79279 
L 189.449113 181.351093 
L 190.125703 182.353012 
L 190.531656 182.550197 
L 191.343563 182.544598 
L 192.15547 182.517322 
L 192.832059 182.858142 
L 194.04992 183.698019 
L 196.891594 186.157023 
L 197.838819 186.702737 
L 199.056679 187.72782 
L 200.003904 187.75204 
L 200.545176 188.150321 
L 201.357083 188.848526 
L 202.574943 189.425097 
L 203.251532 189.788265 
L 204.063439 190.25103 
L 205.957889 191.635377 
L 207.311067 192.574213 
L 208.122974 192.65369 
L 208.528928 193.043681 
L 209.476153 194.040331 
L 210.28806 194.659916 
L 210.694013 194.691861 
L 211.370602 194.575015 
L 211.776556 194.855007 
L 212.994416 196.054672 
L 213.671005 196.228389 
L 214.347595 196.313225 
L 215.159502 196.196766 
L 215.565455 196.427467 
L 217.189269 197.666355 
L 219.760308 199.083729 
L 220.436897 199.442512 
L 221.654758 199.993985 
L 222.331347 200.192304 
L 222.872618 200.416064 
L 224.63175 201.756687 
L 225.037703 202.034379 
L 225.578975 202.077997 
L 226.796835 202.056685 
L 227.338107 202.216834 
L 228.691285 202.829491 
L 229.097238 202.859625 
L 229.773828 202.583631 
L 230.179781 202.512101 
L 230.585735 202.661647 
L 231.127006 203.204432 
L 231.938913 204.118172 
L 232.615502 204.428394 
L 233.292091 204.790784 
L 233.96868 205.217788 
L 234.915905 205.472482 
L 235.86313 206.366814 
L 236.269084 206.254178 
L 236.810355 206.061022 
L 237.216308 206.293848 
L 237.75758 206.722935 
L 238.163533 206.752012 
L 238.704805 206.713197 
L 239.110758 206.935373 
L 239.787347 207.391443 
L 240.193301 207.379449 
L 240.734572 207.375558 
L 241.140526 207.697069 
L 241.817115 208.285979 
L 242.493704 208.455887 
L 243.711564 208.745861 
L 244.794107 209.39563 
L 245.470696 209.542449 
L 246.553239 210.064302 
L 247.771099 209.993113 
L 249.124278 209.946459 
L 249.530231 210.310118 
L 250.20682 210.95505 
L 250.612774 210.988355 
L 251.559999 210.777372 
L 252.10127 210.990151 
L 252.642541 211.502301 
L 253.319131 212.121359 
L 253.725084 212.196488 
L 254.401673 212.245557 
L 255.348898 212.48775 
L 256.160805 212.477277 
L 259.137797 213.365445 
L 259.814387 213.907311 
L 261.032247 215.070199 
L 261.438201 215.085411 
L 262.791379 214.68446 
L 264.009239 215.288804 
L 264.685829 215.005978 
L 265.362418 214.836926 
L 265.903689 214.868185 
L 266.309643 215.093416 
L 266.986232 215.837431 
L 267.933457 216.818329 
L 268.474728 217.023667 
L 269.151317 216.960131 
L 269.827906 216.953091 
L 270.910449 217.179541 
L 271.992992 216.977013 
L 272.534263 216.952156 
L 273.210852 216.885877 
L 273.752123 217.215935 
L 275.105302 218.197833 
L 275.646573 218.255113 
L 276.187844 218.338786 
L 277.135069 218.679557 
L 278.758883 218.714889 
L 279.976744 219.214985 
L 280.653333 218.986061 
L 280.923969 219.183706 
L 282.006511 220.435419 
L 283.495007 220.967554 
L 283.900961 220.922336 
L 284.848186 220.594785 
L 285.524775 220.576111 
L 286.472 220.169179 
L 286.742635 220.329363 
L 287.148589 220.884091 
L 287.960496 222.150374 
L 288.231132 222.249584 
L 288.637085 222.075437 
L 289.043039 221.926646 
L 289.448992 222.029772 
L 291.208124 222.672433 
L 293.102574 222.706682 
L 293.779163 222.661291 
L 294.997023 222.948815 
L 295.538295 222.997137 
L 295.944248 223.286987 
L 296.756155 223.964506 
L 297.432744 224.035144 
L 298.109333 223.976535 
L 299.056558 223.515331 
L 299.327194 223.671432 
L 300.274419 224.595235 
L 300.81569 224.451291 
L 301.221644 224.506322 
L 302.168868 225.086015 
L 302.71014 224.920047 
L 303.251411 224.806137 
L 303.657365 224.943715 
L 304.469272 225.371406 
L 305.551814 225.520871 
L 306.363721 225.870739 
L 307.310946 225.95919 
L 308.528807 226.728881 
L 311.099845 226.575095 
L 311.911752 226.95473 
L 312.588342 227.282101 
L 312.994295 227.280103 
L 314.618109 226.933511 
L 315.024063 227.134602 
L 316.377241 228.173327 
L 317.865737 228.50539 
L 318.812962 228.881933 
L 319.489551 228.78606 
L 320.436776 228.671613 
L 320.842729 228.880107 
L 321.654636 229.395762 
L 322.06059 229.392936 
L 322.872497 229.306561 
L 323.684404 229.408026 
L 325.037582 229.215472 
L 325.984807 229.527277 
L 327.06735 229.361512 
L 327.473303 229.659809 
L 328.555846 230.80593 
L 328.961799 230.751583 
L 329.909024 230.433382 
L 330.450296 230.487732 
L 332.480063 231.125506 
L 333.156652 231.42043 
L 333.562606 231.310087 
L 334.374513 230.91068 
L 334.780466 230.946859 
L 335.18642 231.178247 
L 336.539598 232.218328 
L 337.080869 232.280621 
L 340.057862 232.272063 
L 342.358265 233.322642 
L 343.576125 233.197185 
L 344.793986 233.448006 
L 345.605893 233.549975 
L 346.4178 234.004713 
L 346.823753 234.111842 
L 347.229707 233.979503 
L 348.041614 233.629779 
L 348.718203 233.600395 
L 349.259474 233.842295 
L 350.206699 234.31961 
L 351.559878 234.957882 
L 352.64242 235.585962 
L 353.454327 235.962779 
L 353.860281 235.808756 
L 354.401552 235.554742 
L 354.672188 235.624445 
L 355.619413 236.143904 
L 356.160684 235.894198 
L 356.837273 235.425709 
L 357.513862 234.901467 
L 357.784498 234.93106 
L 358.325769 235.326645 
L 359.408312 236.286082 
L 360.490855 236.639264 
L 361.302762 236.669222 
L 361.979351 236.526475 
L 363.197211 235.874888 
L 363.603165 236.116316 
L 365.497614 237.690924 
L 366.038886 237.756522 
L 366.715475 237.829575 
L 367.256746 237.91022 
L 368.203971 237.810446 
L 368.88056 237.889768 
L 369.827785 237.777071 
L 371.180963 238.275762 
L 373.346049 238.441754 
L 374.428591 238.658723 
L 375.511134 238.662972 
L 376.864312 239.048074 
L 377.540902 239.003541 
L 378.217491 239.343238 
L 378.89408 239.564964 
L 379.841305 239.615332 
L 380.923847 239.587196 
L 381.735754 239.902059 
L 382.412344 240.131087 
L 383.765522 240.146407 
L 384.442111 240.309835 
L 384.983382 240.106269 
L 385.659972 239.803767 
L 386.065925 239.82127 
L 386.471879 240.067363 
L 387.283786 240.637259 
L 387.960375 240.83366 
L 389.719507 240.803999 
L 390.260778 240.839432 
L 390.802049 241.180713 
L 391.478638 241.62559 
L 391.884592 241.563316 
L 392.561181 241.222943 
L 392.967134 241.424025 
L 393.508406 241.766166 
L 394.049677 241.806576 
L 394.455631 241.66329 
L 395.538173 240.931056 
L 395.808809 241.122861 
L 396.891352 242.249165 
L 397.432623 242.278131 
L 398.921119 242.137776 
L 401.492158 243.203054 
L 402.439383 243.175869 
L 405.010422 242.951498 
L 405.416375 243.098321 
L 406.092964 243.442274 
L 407.716778 243.575728 
L 408.528685 243.4643 
L 409.205274 243.713843 
L 410.423135 244.169357 
L 411.099724 244.066805 
L 411.776313 244.024501 
L 412.858856 244.142337 
L 414.617988 243.714028 
L 415.294577 243.97538 
L 415.835848 244.362465 
L 416.918391 245.274063 
L 417.459662 245.391375 
L 418.406887 245.384541 
L 419.083476 245.558426 
L 420.301337 245.379741 
L 420.842608 245.618198 
L 421.248562 245.509378 
L 421.789833 245.280952 
L 422.195786 245.439776 
L 423.143011 246.049713 
L 423.684283 246.072153 
L 425.172779 245.867032 
L 426.255321 246.189538 
L 427.067228 246.044417 
L 427.743818 246.353025 
L 429.502949 247.01535 
L 429.908903 246.97903 
L 430.72081 246.760761 
L 431.803353 246.854051 
L 432.479942 246.847854 
L 433.427167 246.877858 
L 433.968438 246.979271 
L 434.509709 247.327994 
L 435.186298 247.748901 
L 435.592252 247.710734 
L 436.268841 247.529913 
L 436.810112 247.693818 
L 437.622019 247.992418 
L 438.027973 247.852245 
L 438.569244 247.55004 
L 438.975198 247.664456 
L 439.516469 247.874177 
L 439.922423 247.683728 
L 440.463694 247.418224 
L 440.869647 247.536858 
L 441.681554 247.972806 
L 442.628779 248.294311 
L 443.440686 248.654929 
L 444.117275 248.620686 
L 444.929182 248.41584 
L 445.470454 248.301412 
L 446.011725 248.463158 
L 447.094268 249.176171 
L 447.635539 249.481017 
L 448.041493 249.493303 
L 448.988717 249.398162 
L 450.206578 249.56712 
L 451.153803 249.740978 
L 452.236345 249.966207 
L 452.912935 250.117658 
L 453.318888 249.925613 
L 453.995477 249.567056 
L 454.401431 249.603963 
L 454.942702 249.881976 
L 455.889927 250.461547 
L 456.29588 250.338538 
L 457.243105 249.807827 
L 457.919694 249.736689 
L 458.325648 249.843796 
L 458.866919 250.270149 
L 459.543508 250.794314 
L 460.08478 250.887096 
L 460.761369 250.79605 
L 462.114547 250.345202 
L 464.41495 251.115198 
L 464.956222 251.321066 
L 466.580036 251.324424 
L 467.391943 251.00066 
L 467.797896 251.139268 
L 469.015757 251.702982 
L 469.557028 251.63833 
L 470.233617 251.510013 
L 471.180842 251.574939 
L 472.263385 251.214997 
L 472.804656 251.334511 
L 473.21061 251.630825 
L 474.157834 252.561613 
L 474.563788 252.571242 
L 475.240377 252.544868 
L 476.32292 252.777516 
L 479.029276 252.696072 
L 480.111819 253.089762 
L 481.464997 253.044752 
L 482.276904 253.209986 
L 483.088811 253.185107 
L 484.171354 252.838248 
L 485.253897 253.401776 
L 486.201122 253.215719 
L 486.607075 253.620284 
L 487.148346 254.26727 
L 487.418982 254.357301 
L 487.689618 254.224904 
L 488.77216 253.259258 
L 489.178114 253.52662 
L 489.990021 254.19998 
L 490.801928 254.378646 
L 491.613835 254.416442 
L 493.102331 254.32552 
L 496.079323 254.884866 
L 498.109091 254.663946 
L 498.109091 254.663946 
" clip-path="url(#p05d960914c)" style="fill: none; stroke: #ff8c00; stroke-linecap: square"/>
   </g>
   <g id="patch_3">
    <path d="M 72 384.48 
L 72 51.84 
" style="fill: none; stroke: #000000; stroke-width: 0.8; stroke-linejoin: miter; stroke-linecap: square"/>
   </g>
   <g id="patch_4">
    <path d="M 518.4 384.48 
L 518.4 51.84 
" style="fill: none; stroke: #000000; stroke-width: 0.8; stroke-linejoin: miter; stroke-linecap: square"/>
   </g>
   <g id="patch_5">
    <path d="M 72 384.48 
L 518.4 384.48 
" style="fill: none; stroke: #000000; stroke-width: 0.8; stroke-linejoin: miter; stroke-linecap: square"/>
   </g>
   <g id="patch_6">
    <path d="M 72 51.84 
L 518.4 51.84 
" style="fill: none; stroke: #000000; stroke-width: 0.8; stroke-linejoin: miter; stroke-linecap: square"/>
   </g>
  </g>
  <g id="legend_1">
   <g id="patch_7">
    <path d="M 439.246875 67.825 
L 569 67.825 
Q 571 67.825 571 65.825 
L 571 7 
Q 571 5 569 5 
L 439.246875 5 
Q 437.246875 5 437.246875 7 
L 437.246875 65.825 
Q 437.246875 67.825 439.246875 67.825 
z
" style="fill: #ffffff; opacity: 0.8; stroke: #cccccc; stroke-linejoin: miter"/>
   </g>
   <g id="line2d_19">
    <path d="M 441.246875 13.098437 
L 451.246875 13.098437 
L 461.246875 13.098437 
" style="fill: none; stroke: #ff0000; stroke-linecap: square"/>
   </g>
   <g id="text_17">
    <!-- TCN_causal -->
    <g transform="translate(469.246875 16.598437)scale(0.1 -0.1)">
     <defs>
      <path id="DejaVuSans-43" d="M 4122 4306 
L 4122 3641 
Q 3803 3938 3442 4084 
Q 3081 4231 2675 4231 
Q 1875 4231 1450 3742 
Q 1025 3253 1025 2328 
Q 1025 1406 1450 917 
Q 1875 428 2675 428 
Q 3081 428 3442 575 
Q 3803 722 4122 1019 
L 4122 359 
Q 3791 134 3420 21 
Q 3050 -91 2638 -91 
Q 1578 -91 968 557 
Q 359 1206 359 2328 
Q 359 3453 968 4101 
Q 1578 4750 2638 4750 
Q 3056 4750 3426 4639 
Q 3797 4528 4122 4306 
z
" transform="scale(0.015625)"/>
      <path id="DejaVuSans-4e" d="M 628 4666 
L 1478 4666 
L 3547 763 
L 3547 4666 
L 4159 4666 
L 4159 0 
L 3309 0 
L 1241 3903 
L 1241 0 
L 628 0 
L 628 4666 
z
" transform="scale(0.015625)"/>
      <path id="DejaVuSans-5f" d="M 3263 -1063 
L 3263 -1509 
L -63 -1509 
L -63 -1063 
L 3263 -1063 
z
" transform="scale(0.015625)"/>
      <path id="DejaVuSans-75" d="M 544 1381 
L 544 3500 
L 1119 3500 
L 1119 1403 
Q 1119 906 1312 657 
Q 1506 409 1894 409 
Q 2359 409 2629 706 
Q 2900 1003 2900 1516 
L 2900 3500 
L 3475 3500 
L 3475 0 
L 2900 0 
L 2900 538 
Q 2691 219 2414 64 
Q 2138 -91 1772 -91 
Q 1169 -91 856 284 
Q 544 659 544 1381 
z
M 1991 3584 
L 1991 3584 
z
" transform="scale(0.015625)"/>
     </defs>
     <use xlink:href="#DejaVuSans-54"/>
     <use xlink:href="#DejaVuSans-43" x="55.208984"/>
     <use xlink:href="#DejaVuSans-4e" x="125.033203"/>
     <use xlink:href="#DejaVuSans-5f" x="199.837891"/>
     <use xlink:href="#DejaVuSans-63" x="249.837891"/>
     <use xlink:href="#DejaVuSans-61" x="304.818359"/>
     <use xlink:href="#DejaVuSans-75" x="366.097656"/>
     <use xlink:href="#DejaVuSans-73" x="429.476562"/>
     <use xlink:href="#DejaVuSans-61" x="481.576172"/>
     <use xlink:href="#DejaVuSans-6c" x="542.855469"/>
    </g>
   </g>
   <g id="line2d_20">
    <path d="M 441.246875 28.054688 
L 451.246875 28.054688 
L 461.246875 28.054688 
" style="fill: none; stroke: #0000ff; stroke-linecap: square"/>
   </g>
   <g id="text_18">
    <!-- Rec-TCN_causal -->
    <g transform="translate(469.246875 31.554688)scale(0.1 -0.1)">
     <defs>
      <path id="DejaVuSans-52" d="M 2841 2188 
Q 3044 2119 3236 1894 
Q 3428 1669 3622 1275 
L 4263 0 
L 3584 0 
L 2988 1197 
Q 2756 1666 2539 1819 
Q 2322 1972 1947 1972 
L 1259 1972 
L 1259 0 
L 628 0 
L 628 4666 
L 2053 4666 
Q 2853 4666 3247 4331 
Q 3641 3997 3641 3322 
Q 3641 2881 3436 2590 
Q 3231 2300 2841 2188 
z
M 1259 4147 
L 1259 2491 
L 2053 2491 
Q 2509 2491 2742 2702 
Q 2975 2913 2975 3322 
Q 2975 3731 2742 3939 
Q 2509 4147 2053 4147 
L 1259 4147 
z
" transform="scale(0.015625)"/>
      <path id="DejaVuSans-65" d="M 3597 1894 
L 3597 1613 
L 953 1613 
Q 991 1019 1311 708 
Q 1631 397 2203 397 
Q 2534 397 2845 478 
Q 3156 559 3463 722 
L 3463 178 
Q 3153 47 2828 -22 
Q 2503 -91 2169 -91 
Q 1331 -91 842 396 
Q 353 884 353 1716 
Q 353 2575 817 3079 
Q 1281 3584 2069 3584 
Q 2775 3584 3186 3129 
Q 3597 2675 3597 1894 
z
M 3022 2063 
Q 3016 2534 2758 2815 
Q 2500 3097 2075 3097 
Q 1594 3097 1305 2825 
Q 1016 2553 972 2059 
L 3022 2063 
z
" transform="scale(0.015625)"/>
      <path id="DejaVuSans-2d" d="M 313 2009 
L 1997 2009 
L 1997 1497 
L 313 1497 
L 313 2009 
z
" transform="scale(0.015625)"/>
     </defs>
     <use xlink:href="#DejaVuSans-52"/>
     <use xlink:href="#DejaVuSans-65" x="64.982422"/>
     <use xlink:href="#DejaVuSans-63" x="126.505859"/>
     <use xlink:href="#DejaVuSans-2d" x="181.486328"/>
     <use xlink:href="#DejaVuSans-54" x="208.445312"/>
     <use xlink:href="#DejaVuSans-43" x="263.654297"/>
     <use xlink:href="#DejaVuSans-4e" x="333.478516"/>
     <use xlink:href="#DejaVuSans-5f" x="408.283203"/>
     <use xlink:href="#DejaVuSans-63" x="458.283203"/>
     <use xlink:href="#DejaVuSans-61" x="513.263672"/>
     <use xlink:href="#DejaVuSans-75" x="574.542969"/>
     <use xlink:href="#DejaVuSans-73" x="637.921875"/>
     <use xlink:href="#DejaVuSans-61" x="690.021484"/>
     <use xlink:href="#DejaVuSans-6c" x="751.300781"/>
    </g>
   </g>
   <g id="line2d_21">
    <path d="M 441.246875 43.010938 
L 451.246875 43.010938 
L 461.246875 43.010938 
" style="fill: none; stroke: #008000; stroke-linecap: square"/>
   </g>
   <g id="text_19">
    <!-- WS-TCN_causal -->
    <g transform="translate(469.246875 46.510938)scale(0.1 -0.1)">
     <defs>
      <path id="DejaVuSans-57" d="M 213 4666 
L 850 4666 
L 1831 722 
L 2809 4666 
L 3519 4666 
L 4500 722 
L 5478 4666 
L 6119 4666 
L 4947 0 
L 4153 0 
L 3169 4050 
L 2175 0 
L 1381 0 
L 213 4666 
z
" transform="scale(0.015625)"/>
      <path id="DejaVuSans-53" d="M 3425 4513 
L 3425 3897 
Q 3066 4069 2747 4153 
Q 2428 4238 2131 4238 
Q 1616 4238 1336 4038 
Q 1056 3838 1056 3469 
Q 1056 3159 1242 3001 
Q 1428 2844 1947 2747 
L 2328 2669 
Q 3034 2534 3370 2195 
Q 3706 1856 3706 1288 
Q 3706 609 3251 259 
Q 2797 -91 1919 -91 
Q 1588 -91 1214 -16 
Q 841 59 441 206 
L 441 856 
Q 825 641 1194 531 
Q 1563 422 1919 422 
Q 2459 422 2753 634 
Q 3047 847 3047 1241 
Q 3047 1584 2836 1778 
Q 2625 1972 2144 2069 
L 1759 2144 
Q 1053 2284 737 2584 
Q 422 2884 422 3419 
Q 422 4038 858 4394 
Q 1294 4750 2059 4750 
Q 2388 4750 2728 4690 
Q 3069 4631 3425 4513 
z
" transform="scale(0.015625)"/>
     </defs>
     <use xlink:href="#DejaVuSans-57"/>
     <use xlink:href="#DejaVuSans-53" x="98.876953"/>
     <use xlink:href="#DejaVuSans-2d" x="162.353516"/>
     <use xlink:href="#DejaVuSans-54" x="189.3125"/>
     <use xlink:href="#DejaVuSans-43" x="244.521484"/>
     <use xlink:href="#DejaVuSans-4e" x="314.345703"/>
     <use xlink:href="#DejaVuSans-5f" x="389.150391"/>
     <use xlink:href="#DejaVuSans-63" x="439.150391"/>
     <use xlink:href="#DejaVuSans-61" x="494.130859"/>
     <use xlink:href="#DejaVuSans-75" x="555.410156"/>
     <use xlink:href="#DejaVuSans-73" x="618.789062"/>
     <use xlink:href="#DejaVuSans-61" x="670.888672"/>
     <use xlink:href="#DejaVuSans-6c" x="732.167969"/>
    </g>
   </g>
   <g id="line2d_22">
    <path d="M 441.246875 57.967188 
L 451.246875 57.967188 
L 461.246875 57.967188 
" style="fill: none; stroke: #ff8c00; stroke-linecap: square"/>
   </g>
   <g id="text_20">
    <!-- WS-Rec-TCN_causal -->
    <g transform="translate(469.246875 61.467188)scale(0.1 -0.1)">
     <use xlink:href="#DejaVuSans-57"/>
     <use xlink:href="#DejaVuSans-53" x="98.876953"/>
     <use xlink:href="#DejaVuSans-2d" x="162.353516"/>
     <use xlink:href="#DejaVuSans-52" x="198.4375"/>
     <use xlink:href="#DejaVuSans-65" x="263.419922"/>
     <use xlink:href="#DejaVuSans-63" x="324.943359"/>
     <use xlink:href="#DejaVuSans-2d" x="379.923828"/>
     <use xlink:href="#DejaVuSans-54" x="406.882812"/>
     <use xlink:href="#DejaVuSans-43" x="462.091797"/>
     <use xlink:href="#DejaVuSans-4e" x="531.916016"/>
     <use xlink:href="#DejaVuSans-5f" x="606.720703"/>
     <use xlink:href="#DejaVuSans-63" x="656.720703"/>
     <use xlink:href="#DejaVuSans-61" x="711.701172"/>
     <use xlink:href="#DejaVuSans-75" x="772.980469"/>
     <use xlink:href="#DejaVuSans-73" x="836.359375"/>
     <use xlink:href="#DejaVuSans-61" x="888.458984"/>
     <use xlink:href="#DejaVuSans-6c" x="949.738281"/>
    </g>
   </g>
  </g>
 </g>
 <defs>
  <clipPath id="p05d960914c">
   <rect x="72" y="51.84" width="446.4" height="332.64"/>
  </clipPath>
 </defs>
</svg>
