<?xml version="1.0" encoding="utf-8" standalone="no"?>
<!DOCTYPE svg PUBLIC "-//W3C//DTD SVG 1.1//EN"
  "http://www.w3.org/Graphics/SVG/1.1/DTD/svg11.dtd">
<svg xmlns:xlink="http://www.w3.org/1999/xlink" width="576pt" height="432pt" viewBox="0 0 576 432" xmlns="http://www.w3.org/2000/svg" version="1.1">
 <metadata>
  <rdf:RDF xmlns:dc="http://purl.org/dc/elements/1.1/" xmlns:cc="http://creativecommons.org/ns#" xmlns:rdf="http://www.w3.org/1999/02/22-rdf-syntax-ns#">
   <cc:Work>
    <dc:type rdf:resource="http://purl.org/dc/dcmitype/StillImage"/>
    <dc:date>2023-07-12T09:24:51.365296</dc:date>
    <dc:format>image/svg+xml</dc:format>
    <dc:creator>
     <cc:Agent>
      <dc:title>Matplotlib v3.5.1, https://matplotlib.org/</dc:title>
     </cc:Agent>
    </dc:creator>
   </cc:Work>
  </rdf:RDF>
 </metadata>
 <defs>
  <style type="text/css">*{stroke-linejoin: round; stroke-linecap: butt}</style>
 </defs>
 <g id="figure_1">
  <g id="patch_1">
   <path d="M 0 432 
L 576 432 
L 576 0 
L 0 0 
z
" style="fill: #ffffff"/>
  </g>
  <g id="axes_1">
   <g id="patch_2">
    <path d="M 72 203.04 
L 518.4 203.04 
L 518.4 51.84 
L 72 51.84 
z
" style="fill: #ffffff"/>
   </g>
   <g id="matplotlib.axis_1">
    <g id="xtick_1">
     <g id="line2d_1">
      <defs>
       <path id="m40a7566371" d="M 0 0 
L 0 3.5 
" style="stroke: #000000; stroke-width: 0.8"/>
      </defs>
      <g>
       <use xlink:href="#m40a7566371" x="92.290909" y="203.04" style="stroke: #000000; stroke-width: 0.8"/>
      </g>
     </g>
    </g>
    <g id="xtick_2">
     <g id="line2d_2">
      <g>
       <use xlink:href="#m40a7566371" x="159.927273" y="203.04" style="stroke: #000000; stroke-width: 0.8"/>
      </g>
     </g>
    </g>
    <g id="xtick_3">
     <g id="line2d_3">
      <g>
       <use xlink:href="#m40a7566371" x="227.563636" y="203.04" style="stroke: #000000; stroke-width: 0.8"/>
      </g>
     </g>
    </g>
    <g id="xtick_4">
     <g id="line2d_4">
      <g>
       <use xlink:href="#m40a7566371" x="295.2" y="203.04" style="stroke: #000000; stroke-width: 0.8"/>
      </g>
     </g>
    </g>
    <g id="xtick_5">
     <g id="line2d_5">
      <g>
       <use xlink:href="#m40a7566371" x="362.836364" y="203.04" style="stroke: #000000; stroke-width: 0.8"/>
      </g>
     </g>
    </g>
    <g id="xtick_6">
     <g id="line2d_6">
      <g>
       <use xlink:href="#m40a7566371" x="430.472727" y="203.04" style="stroke: #000000; stroke-width: 0.8"/>
      </g>
     </g>
    </g>
    <g id="xtick_7">
     <g id="line2d_7">
      <g>
       <use xlink:href="#m40a7566371" x="498.109091" y="203.04" style="stroke: #000000; stroke-width: 0.8"/>
      </g>
     </g>
    </g>
   </g>
   <g id="matplotlib.axis_2">
    <g id="ytick_1">
     <g id="line2d_8">
      <defs>
       <path id="ma6b492a4a8" d="M 0 0 
L -3.5 0 
" style="stroke: #000000; stroke-width: 0.8"/>
      </defs>
      <g>
       <use xlink:href="#ma6b492a4a8" x="72" y="182.868068" style="stroke: #000000; stroke-width: 0.8"/>
      </g>
     </g>
     <g id="text_1">
      <!-- 0.100 -->
      <g transform="translate(36.371875 186.667287)scale(0.1 -0.1)">
       <defs>
        <path id="DejaVuSans-30" d="M 2034 4250 
Q 1547 4250 1301 3770 
Q 1056 3291 1056 2328 
Q 1056 1369 1301 889 
Q 1547 409 2034 409 
Q 2525 409 2770 889 
Q 3016 1369 3016 2328 
Q 3016 3291 2770 3770 
Q 2525 4250 2034 4250 
z
M 2034 4750 
Q 2819 4750 3233 4129 
Q 3647 3509 3647 2328 
Q 3647 1150 3233 529 
Q 2819 -91 2034 -91 
Q 1250 -91 836 529 
Q 422 1150 422 2328 
Q 422 3509 836 4129 
Q 1250 4750 2034 4750 
z
" transform="scale(0.015625)"/>
        <path id="DejaVuSans-2e" d="M 684 794 
L 1344 794 
L 1344 0 
L 684 0 
L 684 794 
z
" transform="scale(0.015625)"/>
        <path id="DejaVuSans-31" d="M 794 531 
L 1825 531 
L 1825 4091 
L 703 3866 
L 703 4441 
L 1819 4666 
L 2450 4666 
L 2450 531 
L 3481 531 
L 3481 0 
L 794 0 
L 794 531 
z
" transform="scale(0.015625)"/>
       </defs>
       <use xlink:href="#DejaVuSans-30"/>
       <use xlink:href="#DejaVuSans-2e" x="63.623047"/>
       <use xlink:href="#DejaVuSans-31" x="95.410156"/>
       <use xlink:href="#DejaVuSans-30" x="159.033203"/>
       <use xlink:href="#DejaVuSans-30" x="222.65625"/>
      </g>
     </g>
    </g>
    <g id="ytick_2">
     <g id="line2d_9">
      <g>
       <use xlink:href="#ma6b492a4a8" x="72" y="160.907522" style="stroke: #000000; stroke-width: 0.8"/>
      </g>
     </g>
     <g id="text_2">
      <!-- 0.125 -->
      <g transform="translate(36.371875 164.706741)scale(0.1 -0.1)">
       <defs>
        <path id="DejaVuSans-32" d="M 1228 531 
L 3431 531 
L 3431 0 
L 469 0 
L 469 531 
Q 828 903 1448 1529 
Q 2069 2156 2228 2338 
Q 2531 2678 2651 2914 
Q 2772 3150 2772 3378 
Q 2772 3750 2511 3984 
Q 2250 4219 1831 4219 
Q 1534 4219 1204 4116 
Q 875 4013 500 3803 
L 500 4441 
Q 881 4594 1212 4672 
Q 1544 4750 1819 4750 
Q 2544 4750 2975 4387 
Q 3406 4025 3406 3419 
Q 3406 3131 3298 2873 
Q 3191 2616 2906 2266 
Q 2828 2175 2409 1742 
Q 1991 1309 1228 531 
z
" transform="scale(0.015625)"/>
        <path id="DejaVuSans-35" d="M 691 4666 
L 3169 4666 
L 3169 4134 
L 1269 4134 
L 1269 2991 
Q 1406 3038 1543 3061 
Q 1681 3084 1819 3084 
Q 2600 3084 3056 2656 
Q 3513 2228 3513 1497 
Q 3513 744 3044 326 
Q 2575 -91 1722 -91 
Q 1428 -91 1123 -41 
Q 819 9 494 109 
L 494 744 
Q 775 591 1075 516 
Q 1375 441 1709 441 
Q 2250 441 2565 725 
Q 2881 1009 2881 1497 
Q 2881 1984 2565 2268 
Q 2250 2553 1709 2553 
Q 1456 2553 1204 2497 
Q 953 2441 691 2322 
L 691 4666 
z
" transform="scale(0.015625)"/>
       </defs>
       <use xlink:href="#DejaVuSans-30"/>
       <use xlink:href="#DejaVuSans-2e" x="63.623047"/>
       <use xlink:href="#DejaVuSans-31" x="95.410156"/>
       <use xlink:href="#DejaVuSans-32" x="159.033203"/>
       <use xlink:href="#DejaVuSans-35" x="222.65625"/>
      </g>
     </g>
    </g>
    <g id="ytick_3">
     <g id="line2d_10">
      <g>
       <use xlink:href="#ma6b492a4a8" x="72" y="138.946976" style="stroke: #000000; stroke-width: 0.8"/>
      </g>
     </g>
     <g id="text_3">
      <!-- 0.150 -->
      <g transform="translate(36.371875 142.746195)scale(0.1 -0.1)">
       <use xlink:href="#DejaVuSans-30"/>
       <use xlink:href="#DejaVuSans-2e" x="63.623047"/>
       <use xlink:href="#DejaVuSans-31" x="95.410156"/>
       <use xlink:href="#DejaVuSans-35" x="159.033203"/>
       <use xlink:href="#DejaVuSans-30" x="222.65625"/>
      </g>
     </g>
    </g>
    <g id="ytick_4">
     <g id="line2d_11">
      <g>
       <use xlink:href="#ma6b492a4a8" x="72" y="116.98643" style="stroke: #000000; stroke-width: 0.8"/>
      </g>
     </g>
     <g id="text_4">
      <!-- 0.175 -->
      <g transform="translate(36.371875 120.785649)scale(0.1 -0.1)">
       <defs>
        <path id="DejaVuSans-37" d="M 525 4666 
L 3525 4666 
L 3525 4397 
L 1831 0 
L 1172 0 
L 2766 4134 
L 525 4134 
L 525 4666 
z
" transform="scale(0.015625)"/>
       </defs>
       <use xlink:href="#DejaVuSans-30"/>
       <use xlink:href="#DejaVuSans-2e" x="63.623047"/>
       <use xlink:href="#DejaVuSans-31" x="95.410156"/>
       <use xlink:href="#DejaVuSans-37" x="159.033203"/>
       <use xlink:href="#DejaVuSans-35" x="222.65625"/>
      </g>
     </g>
    </g>
    <g id="ytick_5">
     <g id="line2d_12">
      <g>
       <use xlink:href="#ma6b492a4a8" x="72" y="95.025884" style="stroke: #000000; stroke-width: 0.8"/>
      </g>
     </g>
     <g id="text_5">
      <!-- 0.200 -->
      <g transform="translate(36.371875 98.825103)scale(0.1 -0.1)">
       <use xlink:href="#DejaVuSans-30"/>
       <use xlink:href="#DejaVuSans-2e" x="63.623047"/>
       <use xlink:href="#DejaVuSans-32" x="95.410156"/>
       <use xlink:href="#DejaVuSans-30" x="159.033203"/>
       <use xlink:href="#DejaVuSans-30" x="222.65625"/>
      </g>
     </g>
    </g>
    <g id="ytick_6">
     <g id="line2d_13">
      <g>
       <use xlink:href="#ma6b492a4a8" x="72" y="73.065339" style="stroke: #000000; stroke-width: 0.8"/>
      </g>
     </g>
     <g id="text_6">
      <!-- 0.225 -->
      <g transform="translate(36.371875 76.864557)scale(0.1 -0.1)">
       <use xlink:href="#DejaVuSans-30"/>
       <use xlink:href="#DejaVuSans-2e" x="63.623047"/>
       <use xlink:href="#DejaVuSans-32" x="95.410156"/>
       <use xlink:href="#DejaVuSans-32" x="159.033203"/>
       <use xlink:href="#DejaVuSans-35" x="222.65625"/>
      </g>
     </g>
    </g>
    <g id="text_7">
     <!-- Attention -->
     <g transform="translate(30.292188 150.515781)rotate(-90)scale(0.1 -0.1)">
      <defs>
       <path id="DejaVuSans-41" d="M 2188 4044 
L 1331 1722 
L 3047 1722 
L 2188 4044 
z
M 1831 4666 
L 2547 4666 
L 4325 0 
L 3669 0 
L 3244 1197 
L 1141 1197 
L 716 0 
L 50 0 
L 1831 4666 
z
" transform="scale(0.015625)"/>
       <path id="DejaVuSans-74" d="M 1172 4494 
L 1172 3500 
L 2356 3500 
L 2356 3053 
L 1172 3053 
L 1172 1153 
Q 1172 725 1289 603 
Q 1406 481 1766 481 
L 2356 481 
L 2356 0 
L 1766 0 
Q 1100 0 847 248 
Q 594 497 594 1153 
L 594 3053 
L 172 3053 
L 172 3500 
L 594 3500 
L 594 4494 
L 1172 4494 
z
" transform="scale(0.015625)"/>
       <path id="DejaVuSans-65" d="M 3597 1894 
L 3597 1613 
L 953 1613 
Q 991 1019 1311 708 
Q 1631 397 2203 397 
Q 2534 397 2845 478 
Q 3156 559 3463 722 
L 3463 178 
Q 3153 47 2828 -22 
Q 2503 -91 2169 -91 
Q 1331 -91 842 396 
Q 353 884 353 1716 
Q 353 2575 817 3079 
Q 1281 3584 2069 3584 
Q 2775 3584 3186 3129 
Q 3597 2675 3597 1894 
z
M 3022 2063 
Q 3016 2534 2758 2815 
Q 2500 3097 2075 3097 
Q 1594 3097 1305 2825 
Q 1016 2553 972 2059 
L 3022 2063 
z
" transform="scale(0.015625)"/>
       <path id="DejaVuSans-6e" d="M 3513 2113 
L 3513 0 
L 2938 0 
L 2938 2094 
Q 2938 2591 2744 2837 
Q 2550 3084 2163 3084 
Q 1697 3084 1428 2787 
Q 1159 2491 1159 1978 
L 1159 0 
L 581 0 
L 581 3500 
L 1159 3500 
L 1159 2956 
Q 1366 3272 1645 3428 
Q 1925 3584 2291 3584 
Q 2894 3584 3203 3211 
Q 3513 2838 3513 2113 
z
" transform="scale(0.015625)"/>
       <path id="DejaVuSans-69" d="M 603 3500 
L 1178 3500 
L 1178 0 
L 603 0 
L 603 3500 
z
M 603 4863 
L 1178 4863 
L 1178 4134 
L 603 4134 
L 603 4863 
z
" transform="scale(0.015625)"/>
       <path id="DejaVuSans-6f" d="M 1959 3097 
Q 1497 3097 1228 2736 
Q 959 2375 959 1747 
Q 959 1119 1226 758 
Q 1494 397 1959 397 
Q 2419 397 2687 759 
Q 2956 1122 2956 1747 
Q 2956 2369 2687 2733 
Q 2419 3097 1959 3097 
z
M 1959 3584 
Q 2709 3584 3137 3096 
Q 3566 2609 3566 1747 
Q 3566 888 3137 398 
Q 2709 -91 1959 -91 
Q 1206 -91 779 398 
Q 353 888 353 1747 
Q 353 2609 779 3096 
Q 1206 3584 1959 3584 
z
" transform="scale(0.015625)"/>
      </defs>
      <use xlink:href="#DejaVuSans-41"/>
      <use xlink:href="#DejaVuSans-74" x="66.658203"/>
      <use xlink:href="#DejaVuSans-74" x="105.867188"/>
      <use xlink:href="#DejaVuSans-65" x="145.076172"/>
      <use xlink:href="#DejaVuSans-6e" x="206.599609"/>
      <use xlink:href="#DejaVuSans-74" x="269.978516"/>
      <use xlink:href="#DejaVuSans-69" x="309.1875"/>
      <use xlink:href="#DejaVuSans-6f" x="336.970703"/>
      <use xlink:href="#DejaVuSans-6e" x="398.152344"/>
     </g>
    </g>
   </g>
   <g id="line2d_14">
    <path d="M 92.290909 112.39292 
L 95.672727 111.724242 
L 99.054545 111.847532 
L 102.436364 114.196601 
L 105.818182 116.455143 
L 109.2 118.863691 
L 112.581818 121.579135 
L 115.963636 123.477349 
L 119.345455 130.721762 
L 122.727273 140.274011 
L 126.109091 143.046499 
L 129.490909 142.430062 
L 132.872727 139.040443 
L 136.254545 140.910266 
L 139.636364 135.424638 
L 143.018182 141.094331 
L 146.4 138.931211 
L 149.781818 140.289221 
L 153.163636 139.935242 
L 156.545455 143.816503 
L 159.927273 143.05061 
L 163.309091 144.744549 
L 166.690909 141.768964 
L 170.072727 140.796872 
L 173.454545 139.914063 
L 176.836364 142.206585 
L 180.218182 141.839411 
L 183.6 140.225777 
L 186.981818 137.677211 
L 190.363636 129.403308 
L 193.745455 134.928964 
L 197.127273 133.717439 
L 200.509091 138.439674 
L 203.890909 131.426788 
L 207.272727 132.78684 
L 210.654545 134.185428 
L 214.036364 131.344508 
L 217.418182 135.15324 
L 220.8 131.272306 
L 224.181818 130.697428 
L 227.563636 127.587139 
L 230.945455 127.555541 
L 234.327273 128.800824 
L 237.709091 127.821677 
L 241.090909 130.796476 
L 244.472727 126.240137 
L 247.854545 127.970256 
L 251.236364 126.638071 
L 254.618182 129.645281 
L 258 126.193068 
L 261.381818 124.618243 
L 264.763636 127.542897 
L 268.145455 129.724603 
L 271.527273 124.955677 
L 274.909091 121.633954 
L 278.290909 128.692181 
L 281.672727 127.35391 
L 285.054545 124.790174 
L 288.436364 123.259055 
L 291.818182 124.707212 
L 295.2 124.455619 
L 298.581818 124.325182 
L 301.963636 124.594315 
L 305.345455 128.320112 
L 308.727273 130.444002 
L 312.109091 124.927718 
L 315.490909 127.631002 
L 318.872727 127.28667 
L 322.254545 124.872821 
L 325.636364 125.008978 
L 329.018182 122.29068 
L 332.4 126.413351 
L 335.781818 126.788496 
L 339.163636 126.969589 
L 342.545455 124.642694 
L 345.927273 126.095341 
L 349.309091 123.578347 
L 352.690909 126.671122 
L 356.072727 124.538593 
L 359.454545 125.485462 
L 362.836364 124.686897 
L 366.218182 124.234655 
L 369.6 124.506864 
L 372.981818 125.906067 
L 376.363636 124.762293 
L 379.745455 125.697329 
L 383.127273 123.864719 
L 386.509091 124.619539 
L 389.890909 122.102296 
L 393.272727 123.82498 
L 396.654545 125.615493 
L 400.036364 124.679999 
L 403.418182 125.990219 
L 406.8 126.431611 
L 410.181818 126.127293 
L 413.563636 127.974968 
L 416.945455 125.535438 
L 420.327273 126.230072 
L 423.709091 123.221946 
L 427.090909 124.87824 
L 430.472727 128.55215 
L 433.854545 124.195386 
L 437.236364 123.892338 
L 440.618182 124.000588 
L 444 123.555951 
L 447.381818 123.740997 
L 450.763636 123.595337 
L 454.145455 122.34885 
L 457.527273 128.37751 
L 460.909091 125.049621 
L 464.290909 125.171576 
L 467.672727 126.131547 
L 471.054545 123.819796 
L 474.436364 124.704477 
L 477.818182 125.272705 
L 481.2 126.61849 
L 484.581818 124.634657 
L 487.963636 124.064753 
L 491.345455 123.402503 
L 494.727273 125.418876 
L 498.109091 123.197744 
" clip-path="url(#p4b4bcbd6a1)" style="fill: none; stroke: #1f77b4; stroke-linecap: square"/>
   </g>
   <g id="line2d_15">
    <path d="M 92.290909 118.656183 
L 95.672727 116.735337 
L 99.054545 113.620401 
L 102.436364 110.413184 
L 105.818182 108.19145 
L 109.2 105.538967 
L 112.581818 106.004534 
L 115.963636 108.235928 
L 119.345455 106.718541 
L 122.727273 116.149909 
L 126.109091 113.126927 
L 129.490909 113.076113 
L 132.872727 118.811306 
L 136.254545 112.187847 
L 139.636364 112.800409 
L 143.018182 113.845933 
L 146.4 116.476715 
L 149.781818 113.387879 
L 153.163636 120.437128 
L 156.545455 119.48361 
L 159.927273 121.103986 
L 163.309091 114.05814 
L 166.690909 118.245866 
L 170.072727 116.338856 
L 173.454545 123.131262 
L 176.836364 123.797178 
L 180.218182 123.788172 
L 183.6 123.312539 
L 186.981818 122.316689 
L 190.363636 121.658667 
L 193.745455 127.71251 
L 197.127273 124.100278 
L 200.509091 122.637578 
L 203.890909 121.917302 
L 207.272727 126.620191 
L 210.654545 126.998295 
L 214.036364 127.726123 
L 217.418182 127.830892 
L 220.8 128.547804 
L 224.181818 125.956409 
L 227.563636 127.64078 
L 230.945455 128.881547 
L 234.327273 127.206352 
L 237.709091 123.436994 
L 241.090909 128.486349 
L 244.472727 127.205397 
L 247.854545 127.215842 
L 251.236364 132.898284 
L 254.618182 129.923249 
L 258 129.055101 
L 261.381818 127.512162 
L 264.763636 128.068257 
L 268.145455 128.866979 
L 271.527273 131.030883 
L 274.909091 129.990058 
L 278.290909 127.986683 
L 281.672727 127.033126 
L 285.054545 128.782159 
L 288.436364 131.943091 
L 291.818182 129.389538 
L 295.2 127.006332 
L 298.581818 128.026606 
L 301.963636 132.12349 
L 305.345455 126.939654 
L 308.727273 127.775209 
L 312.109091 128.436687 
L 315.490909 127.816389 
L 318.872727 131.30825 
L 322.254545 132.18975 
L 325.636364 131.833335 
L 329.018182 130.656393 
L 332.4 129.880276 
L 335.781818 131.091841 
L 339.163636 132.497353 
L 342.545455 131.948445 
L 345.927273 129.423361 
L 349.309091 130.683802 
L 352.690909 130.138192 
L 356.072727 131.881466 
L 359.454545 129.991184 
L 362.836364 134.187444 
L 366.218182 132.127548 
L 369.6 130.738909 
L 372.981818 128.17025 
L 376.363636 129.196756 
L 379.745455 131.549385 
L 383.127273 129.863064 
L 386.509091 129.259428 
L 389.890909 129.57321 
L 393.272727 131.832563 
L 396.654545 130.579164 
L 400.036364 132.547407 
L 403.418182 130.560499 
L 406.8 131.720216 
L 410.181818 131.459735 
L 413.563636 129.391933 
L 416.945455 129.805025 
L 420.327273 132.243233 
L 423.709091 130.797707 
L 427.090909 130.654076 
L 430.472727 132.916191 
L 433.854545 130.51212 
L 437.236364 131.272882 
L 440.618182 130.54148 
L 444 130.683828 
L 447.381818 130.776711 
L 450.763636 133.264476 
L 454.145455 130.239924 
L 457.527273 129.110365 
L 460.909091 132.215628 
L 464.290909 133.154237 
L 467.672727 131.07044 
L 471.054545 131.574909 
L 474.436364 131.909529 
L 477.818182 130.036683 
L 481.2 130.844751 
L 484.581818 131.890131 
L 487.963636 132.580812 
L 491.345455 129.344117 
L 494.727273 131.055832 
L 498.109091 131.593287 
" clip-path="url(#p4b4bcbd6a1)" style="fill: none; stroke: #ff7f0e; stroke-linecap: square"/>
   </g>
   <g id="line2d_16">
    <path d="M 92.290909 104.575998 
L 95.672727 105.202632 
L 99.054545 106.007807 
L 102.436364 106.609989 
L 105.818182 107.109393 
L 109.2 107.132653 
L 112.581818 105.682231 
L 115.963636 106.502001 
L 119.345455 107.803255 
L 122.727273 112.798747 
L 126.109091 117.789369 
L 129.490909 123.439559 
L 132.872727 127.290793 
L 136.254545 129.32875 
L 139.636364 131.763032 
L 143.018182 126.080105 
L 146.4 128.225318 
L 149.781818 115.141585 
L 153.163636 123.948715 
L 156.545455 117.230827 
L 159.927273 114.336423 
L 163.309091 118.022899 
L 166.690909 119.867551 
L 170.072727 114.811703 
L 173.454545 112.485921 
L 176.836364 115.668254 
L 180.218182 110.986767 
L 183.6 114.142673 
L 186.981818 113.856798 
L 190.363636 113.647051 
L 193.745455 113.163996 
L 197.127273 112.32992 
L 200.509091 116.925213 
L 203.890909 114.900948 
L 207.272727 113.801639 
L 210.654545 114.244169 
L 214.036364 113.55049 
L 217.418182 116.430967 
L 220.8 117.137159 
L 224.181818 112.753379 
L 227.563636 115.313869 
L 230.945455 116.453494 
L 234.327273 115.167005 
L 237.709091 116.889086 
L 241.090909 116.874374 
L 244.472727 117.336839 
L 247.854545 119.185012 
L 251.236364 115.362326 
L 254.618182 117.03404 
L 258 118.155876 
L 261.381818 114.871247 
L 264.763636 117.231272 
L 268.145455 116.757668 
L 271.527273 115.606995 
L 274.909091 115.947545 
L 278.290909 116.374643 
L 281.672727 115.930175 
L 285.054545 119.114433 
L 288.436364 117.818009 
L 291.818182 117.249742 
L 295.2 114.869062 
L 298.581818 114.465538 
L 301.963636 117.72205 
L 305.345455 117.213641 
L 308.727273 117.051959 
L 312.109091 112.988898 
L 315.490909 115.626944 
L 318.872727 116.195264 
L 322.254545 117.323684 
L 325.636364 116.862776 
L 329.018182 116.798468 
L 332.4 114.554625 
L 335.781818 115.293737 
L 339.163636 116.550984 
L 342.545455 119.89339 
L 345.927273 115.573892 
L 349.309091 113.399817 
L 352.690909 114.573317 
L 356.072727 114.614314 
L 359.454545 118.278812 
L 362.836364 113.833708 
L 366.218182 117.061737 
L 369.6 118.887959 
L 372.981818 117.281929 
L 376.363636 114.922179 
L 379.745455 113.99713 
L 383.127273 117.272661 
L 386.509091 117.51093 
L 389.890909 115.668673 
L 393.272727 116.630464 
L 396.654545 117.620894 
L 400.036364 115.891535 
L 403.418182 116.43475 
L 406.8 116.679419 
L 410.181818 116.7037 
L 413.563636 116.185002 
L 416.945455 116.609796 
L 420.327273 115.151808 
L 423.709091 117.964127 
L 427.090909 114.803823 
L 430.472727 114.606381 
L 433.854545 118.394039 
L 437.236364 116.677521 
L 440.618182 115.534401 
L 444 115.950006 
L 447.381818 118.851949 
L 450.763636 112.876656 
L 454.145455 117.169725 
L 457.527273 116.964416 
L 460.909091 114.865972 
L 464.290909 115.221091 
L 467.672727 115.993267 
L 471.054545 116.488731 
L 474.436364 111.423825 
L 477.818182 116.917412 
L 481.2 112.943936 
L 484.581818 115.080248 
L 487.963636 117.62185 
L 491.345455 117.347612 
L 494.727273 115.522175 
L 498.109091 117.156282 
" clip-path="url(#p4b4bcbd6a1)" style="fill: none; stroke: #2ca02c; stroke-linecap: square"/>
   </g>
   <g id="line2d_17">
    <path d="M 92.290909 114.213971 
L 95.672727 114.590255 
L 99.054545 113.902087 
L 102.436364 112.393391 
L 105.818182 112.603373 
L 109.2 110.807624 
L 112.581818 103.625975 
L 115.963636 90.864453 
L 119.345455 73.012619 
L 122.727273 58.712727 
L 126.109091 61.234931 
L 129.490909 60.383707 
L 132.872727 64.075733 
L 136.254545 68.105691 
L 139.636364 75.760355 
L 143.018182 82.970146 
L 146.4 78.061111 
L 149.781818 89.704435 
L 153.163636 82.539475 
L 156.545455 91.185356 
L 159.927273 96.393565 
L 163.309091 95.219227 
L 166.690909 90.493156 
L 170.072727 94.533821 
L 173.454545 95.249241 
L 176.836364 92.417052 
L 180.218182 96.122272 
L 183.6 97.336795 
L 186.981818 104.179242 
L 190.363636 108.806919 
L 193.745455 101.194324 
L 197.127273 106.520065 
L 200.509091 103.464359 
L 203.890909 103.14076 
L 207.272727 105.967177 
L 210.654545 106.725701 
L 214.036364 105.69002 
L 217.418182 108.026313 
L 220.8 103.838588 
L 224.181818 111.344241 
L 227.563636 108.62199 
L 230.945455 111.466261 
L 234.327273 107.535221 
L 237.709091 112.928045 
L 241.090909 108.311442 
L 244.472727 110.484967 
L 247.854545 110.332187 
L 251.236364 111.607864 
L 254.618182 112.35763 
L 258 111.193607 
L 261.381818 119.795271 
L 264.763636 114.784582 
L 268.145455 109.723551 
L 271.527273 109.213688 
L 274.909091 117.535446 
L 278.290909 112.633112 
L 281.672727 117.298984 
L 285.054545 112.040066 
L 288.436364 112.646568 
L 291.818182 111.448617 
L 295.2 116.553053 
L 298.581818 117.838403 
L 301.963636 114.804059 
L 305.345455 113.606173 
L 308.727273 112.801142 
L 312.109091 119.836293 
L 315.490909 115.631538 
L 318.872727 116.442577 
L 322.254545 112.75364 
L 325.636364 118.86551 
L 329.018182 116.521638 
L 332.4 115.39916 
L 335.781818 115.236746 
L 339.163636 112.258229 
L 342.545455 116.44475 
L 345.927273 115.690402 
L 349.309091 118.752953 
L 352.690909 113.410943 
L 356.072727 116.420927 
L 359.454545 115.567596 
L 362.836364 115.663699 
L 366.218182 115.398977 
L 369.6 114.944431 
L 372.981818 116.4553 
L 376.363636 117.767248 
L 379.745455 116.820026 
L 383.127273 116.121505 
L 386.509091 114.770851 
L 389.890909 117.398033 
L 393.272727 114.239587 
L 396.654545 116.15148 
L 400.036364 115.03895 
L 403.418182 115.187176 
L 406.8 114.144597 
L 410.181818 116.245161 
L 413.563636 117.639691 
L 416.945455 117.064525 
L 420.327273 112.570675 
L 423.709091 115.053781 
L 427.090909 116.979221 
L 430.472727 113.305887 
L 433.854545 117.014562 
L 437.236364 113.115055 
L 440.618182 117.198117 
L 444 117.60859 
L 447.381818 115.67938 
L 450.763636 113.726976 
L 454.145455 115.24672 
L 457.527273 117.00375 
L 460.909091 115.467278 
L 464.290909 115.221326 
L 467.672727 117.709772 
L 471.054545 118.270082 
L 474.436364 118.492669 
L 477.818182 114.28328 
L 481.2 115.563591 
L 484.581818 116.115929 
L 487.963636 115.434999 
L 491.345455 115.256511 
L 494.727273 117.147918 
L 498.109091 116.194426 
" clip-path="url(#p4b4bcbd6a1)" style="fill: none; stroke: #d62728; stroke-linecap: square"/>
   </g>
   <g id="line2d_18">
    <path d="M 92.290909 105.141648 
L 95.672727 105.237044 
L 99.054545 105.506557 
L 102.436364 106.142943 
L 105.818182 105.313003 
L 109.2 109.166527 
L 112.581818 117.674116 
L 115.963636 131.540392 
L 119.345455 144.25741 
L 122.727273 145.091578 
L 126.109091 143.34621 
L 129.490909 139.617285 
L 132.872727 137.125985 
L 136.254545 138.214849 
L 139.636364 136.071652 
L 143.018182 130.506204 
L 146.4 134.814562 
L 149.781818 140.512764 
L 153.163636 135.657317 
L 156.545455 131.820809 
L 159.927273 130.57796 
L 163.309091 135.898674 
L 166.690909 138.397827 
L 170.072727 145.692726 
L 173.454545 139.43055 
L 176.836364 139.739593 
L 180.218182 134.241137 
L 183.6 141.907673 
L 186.981818 141.469306 
L 190.363636 142.316118 
L 193.745455 139.891706 
L 197.127273 139.850461 
L 200.509091 138.359593 
L 203.890909 144.973235 
L 207.272727 144.068973 
L 210.654545 138.349016 
L 214.036364 140.749763 
L 217.418182 138.45885 
L 220.8 137.608805 
L 224.181818 139.240595 
L 227.563636 140.32904 
L 230.945455 135.984908 
L 234.327273 143.335908 
L 237.709091 138.763679 
L 241.090909 140.719604 
L 244.472727 138.03475 
L 247.854545 136.857415 
L 251.236364 139.918631 
L 254.618182 140.483208 
L 258 138.794714 
L 261.381818 139.120538 
L 264.763636 136.804559 
L 268.145455 139.387747 
L 271.527273 141.794567 
L 274.909091 137.911801 
L 278.290909 139.897138 
L 281.672727 136.506682 
L 285.054545 137.958007 
L 288.436364 137.975468 
L 291.818182 138.51884 
L 295.2 141.243918 
L 298.581818 139.325441 
L 301.963636 134.040867 
L 305.345455 140.382929 
L 308.727273 137.652707 
L 312.109091 137.393037 
L 315.490909 136.563922 
L 318.872727 137.160097 
L 322.254545 141.240985 
L 325.636364 135.778525 
L 329.018182 136.633898 
L 332.4 139.348204 
L 335.781818 135.462309 
L 339.163636 137.990599 
L 342.545455 135.622826 
L 345.927273 137.761363 
L 349.309091 137.663833 
L 352.690909 137.785382 
L 356.072727 138.968543 
L 359.454545 137.941723 
L 362.836364 137.21057 
L 366.218182 136.900034 
L 369.6 137.044608 
L 372.981818 135.122034 
L 376.363636 137.448197 
L 379.745455 136.998022 
L 383.127273 137.571709 
L 386.509091 138.257115 
L 389.890909 137.747318 
L 393.272727 140.430405 
L 396.654545 136.102019 
L 400.036364 140.567989 
L 403.418182 137.870831 
L 406.8 136.848213 
L 410.181818 135.660851 
L 413.563636 136.335824 
L 416.945455 138.002354 
L 420.327273 138.239955 
L 423.709091 135.955653 
L 427.090909 135.853109 
L 430.472727 136.800842 
L 433.854545 135.805176 
L 437.236364 137.715065 
L 440.618182 137.52388 
L 444 137.488434 
L 447.381818 136.427516 
L 450.763636 137.57934 
L 454.145455 137.093955 
L 457.527273 136.766757 
L 460.909091 135.374505 
L 464.290909 134.780686 
L 467.672727 136.559157 
L 471.054545 136.591685 
L 474.436364 137.782817 
L 477.818182 136.981582 
L 481.2 137.661163 
L 484.581818 139.086531 
L 487.963636 134.209094 
L 491.345455 135.085436 
L 494.727273 136.189628 
L 498.109091 137.475842 
" clip-path="url(#p4b4bcbd6a1)" style="fill: none; stroke: #9467bd; stroke-linecap: square"/>
   </g>
   <g id="line2d_19">
    <path d="M 92.290909 190.858909 
L 95.672727 192.350131 
L 99.054545 194.955257 
L 102.436364 196.083552 
L 105.818182 196.167273 
L 109.2 194.330213 
L 112.581818 191.27363 
L 115.963636 185.219511 
L 119.345455 183.326088 
L 122.727273 172.812722 
L 126.109091 167.295718 
L 129.490909 166.892915 
L 132.872727 159.495387 
L 136.254545 157.092272 
L 139.636364 154.01955 
L 143.018182 151.342916 
L 146.4 149.330719 
L 149.781818 146.80375 
L 153.163636 143.321746 
L 156.545455 142.302531 
L 159.927273 140.377078 
L 163.309091 137.896159 
L 166.690909 137.066297 
L 170.072727 133.665696 
L 173.454545 135.628611 
L 176.836364 132.010973 
L 180.218182 138.861902 
L 183.6 128.914192 
L 186.981818 126.340416 
L 190.363636 130.007572 
L 193.745455 128.948147 
L 197.127273 129.321499 
L 200.509091 126.013257 
L 203.890909 129.480628 
L 207.272727 122.594841 
L 210.654545 125.337066 
L 214.036364 126.778744 
L 217.418182 119.939386 
L 220.8 127.434987 
L 224.181818 125.847583 
L 227.563636 126.346856 
L 230.945455 125.497949 
L 234.327273 123.79435 
L 237.709091 126.000181 
L 241.090909 120.651416 
L 244.472727 126.537583 
L 247.854545 124.27895 
L 251.236364 119.41451 
L 254.618182 116.39628 
L 258 122.447283 
L 261.381818 119.922187 
L 264.763636 121.408029 
L 268.145455 121.379088 
L 271.527273 123.237889 
L 274.909091 122.820831 
L 278.290909 120.255903 
L 281.672727 121.716784 
L 285.054545 123.154797 
L 288.436364 122.197444 
L 291.818182 124.525687 
L 295.2 121.711666 
L 298.581818 121.858478 
L 301.963636 122.554866 
L 305.345455 119.377153 
L 308.727273 120.114655 
L 312.109091 122.257027 
L 315.490909 122.569853 
L 318.872727 117.446804 
L 322.254545 117.458807 
L 325.636364 117.490536 
L 329.018182 122.938571 
L 332.4 120.244031 
L 335.781818 121.966506 
L 339.163636 119.572919 
L 342.545455 117.287557 
L 345.927273 121.295302 
L 349.309091 121.760869 
L 352.690909 123.260691 
L 356.072727 119.415793 
L 359.454545 118.574845 
L 362.836364 120.25733 
L 366.218182 120.116684 
L 369.6 119.716904 
L 372.981818 122.904081 
L 376.363636 121.743015 
L 379.745455 120.777743 
L 383.127273 121.145964 
L 386.509091 121.421799 
L 389.890909 123.350092 
L 393.272727 118.881649 
L 396.654545 119.77061 
L 400.036364 117.113794 
L 403.418182 119.796187 
L 406.8 120.015606 
L 410.181818 119.642922 
L 413.563636 118.312243 
L 416.945455 118.822524 
L 420.327273 121.403892 
L 423.709091 122.846448 
L 427.090909 122.671179 
L 430.472727 119.658197 
L 433.854545 119.918378 
L 437.236364 123.166787 
L 440.618182 121.041195 
L 444 120.552839 
L 447.381818 120.363107 
L 450.763636 124.796875 
L 454.145455 123.7405 
L 457.527273 117.616863 
L 460.909091 122.866658 
L 464.290909 122.290733 
L 467.672727 118.375439 
L 471.054545 119.094459 
L 474.436364 121.526319 
L 477.818182 122.348012 
L 481.2 122.207758 
L 484.581818 119.032139 
L 487.963636 121.928179 
L 491.345455 125.403469 
L 494.727273 120.505259 
L 498.109091 120.222093 
" clip-path="url(#p4b4bcbd6a1)" style="fill: none; stroke: #8c564b; stroke-linecap: square"/>
   </g>
   <g id="patch_3">
    <path d="M 72 203.04 
L 72 51.84 
" style="fill: none; stroke: #000000; stroke-width: 0.8; stroke-linejoin: miter; stroke-linecap: square"/>
   </g>
   <g id="patch_4">
    <path d="M 518.4 203.04 
L 518.4 51.84 
" style="fill: none; stroke: #000000; stroke-width: 0.8; stroke-linejoin: miter; stroke-linecap: square"/>
   </g>
   <g id="patch_5">
    <path d="M 72 203.04 
L 518.4 203.04 
" style="fill: none; stroke: #000000; stroke-width: 0.8; stroke-linejoin: miter; stroke-linecap: square"/>
   </g>
   <g id="patch_6">
    <path d="M 72 51.84 
L 518.4 51.84 
" style="fill: none; stroke: #000000; stroke-width: 0.8; stroke-linejoin: miter; stroke-linecap: square"/>
   </g>
  </g>
  <g id="axes_2">
   <g id="patch_7">
    <path d="M 72 384.48 
L 518.4 384.48 
L 518.4 233.28 
L 72 233.28 
z
" style="fill: #ffffff"/>
   </g>
   <g id="matplotlib.axis_3">
    <g id="xtick_8">
     <g id="line2d_20">
      <g>
       <use xlink:href="#m40a7566371" x="92.290909" y="384.48" style="stroke: #000000; stroke-width: 0.8"/>
      </g>
     </g>
     <g id="text_8">
      <!-- 0 -->
      <g transform="translate(89.109659 399.078438)scale(0.1 -0.1)">
       <use xlink:href="#DejaVuSans-30"/>
      </g>
     </g>
    </g>
    <g id="xtick_9">
     <g id="line2d_21">
      <g>
       <use xlink:href="#m40a7566371" x="159.927273" y="384.48" style="stroke: #000000; stroke-width: 0.8"/>
      </g>
     </g>
     <g id="text_9">
      <!-- 20 -->
      <g transform="translate(153.564773 399.078438)scale(0.1 -0.1)">
       <use xlink:href="#DejaVuSans-32"/>
       <use xlink:href="#DejaVuSans-30" x="63.623047"/>
      </g>
     </g>
    </g>
    <g id="xtick_10">
     <g id="line2d_22">
      <g>
       <use xlink:href="#m40a7566371" x="227.563636" y="384.48" style="stroke: #000000; stroke-width: 0.8"/>
      </g>
     </g>
     <g id="text_10">
      <!-- 40 -->
      <g transform="translate(221.201136 399.078438)scale(0.1 -0.1)">
       <defs>
        <path id="DejaVuSans-34" d="M 2419 4116 
L 825 1625 
L 2419 1625 
L 2419 4116 
z
M 2253 4666 
L 3047 4666 
L 3047 1625 
L 3713 1625 
L 3713 1100 
L 3047 1100 
L 3047 0 
L 2419 0 
L 2419 1100 
L 313 1100 
L 313 1709 
L 2253 4666 
z
" transform="scale(0.015625)"/>
       </defs>
       <use xlink:href="#DejaVuSans-34"/>
       <use xlink:href="#DejaVuSans-30" x="63.623047"/>
      </g>
     </g>
    </g>
    <g id="xtick_11">
     <g id="line2d_23">
      <g>
       <use xlink:href="#m40a7566371" x="295.2" y="384.48" style="stroke: #000000; stroke-width: 0.8"/>
      </g>
     </g>
     <g id="text_11">
      <!-- 60 -->
      <g transform="translate(288.8375 399.078438)scale(0.1 -0.1)">
       <defs>
        <path id="DejaVuSans-36" d="M 2113 2584 
Q 1688 2584 1439 2293 
Q 1191 2003 1191 1497 
Q 1191 994 1439 701 
Q 1688 409 2113 409 
Q 2538 409 2786 701 
Q 3034 994 3034 1497 
Q 3034 2003 2786 2293 
Q 2538 2584 2113 2584 
z
M 3366 4563 
L 3366 3988 
Q 3128 4100 2886 4159 
Q 2644 4219 2406 4219 
Q 1781 4219 1451 3797 
Q 1122 3375 1075 2522 
Q 1259 2794 1537 2939 
Q 1816 3084 2150 3084 
Q 2853 3084 3261 2657 
Q 3669 2231 3669 1497 
Q 3669 778 3244 343 
Q 2819 -91 2113 -91 
Q 1303 -91 875 529 
Q 447 1150 447 2328 
Q 447 3434 972 4092 
Q 1497 4750 2381 4750 
Q 2619 4750 2861 4703 
Q 3103 4656 3366 4563 
z
" transform="scale(0.015625)"/>
       </defs>
       <use xlink:href="#DejaVuSans-36"/>
       <use xlink:href="#DejaVuSans-30" x="63.623047"/>
      </g>
     </g>
    </g>
    <g id="xtick_12">
     <g id="line2d_24">
      <g>
       <use xlink:href="#m40a7566371" x="362.836364" y="384.48" style="stroke: #000000; stroke-width: 0.8"/>
      </g>
     </g>
     <g id="text_12">
      <!-- 80 -->
      <g transform="translate(356.473864 399.078438)scale(0.1 -0.1)">
       <defs>
        <path id="DejaVuSans-38" d="M 2034 2216 
Q 1584 2216 1326 1975 
Q 1069 1734 1069 1313 
Q 1069 891 1326 650 
Q 1584 409 2034 409 
Q 2484 409 2743 651 
Q 3003 894 3003 1313 
Q 3003 1734 2745 1975 
Q 2488 2216 2034 2216 
z
M 1403 2484 
Q 997 2584 770 2862 
Q 544 3141 544 3541 
Q 544 4100 942 4425 
Q 1341 4750 2034 4750 
Q 2731 4750 3128 4425 
Q 3525 4100 3525 3541 
Q 3525 3141 3298 2862 
Q 3072 2584 2669 2484 
Q 3125 2378 3379 2068 
Q 3634 1759 3634 1313 
Q 3634 634 3220 271 
Q 2806 -91 2034 -91 
Q 1263 -91 848 271 
Q 434 634 434 1313 
Q 434 1759 690 2068 
Q 947 2378 1403 2484 
z
M 1172 3481 
Q 1172 3119 1398 2916 
Q 1625 2713 2034 2713 
Q 2441 2713 2670 2916 
Q 2900 3119 2900 3481 
Q 2900 3844 2670 4047 
Q 2441 4250 2034 4250 
Q 1625 4250 1398 4047 
Q 1172 3844 1172 3481 
z
" transform="scale(0.015625)"/>
       </defs>
       <use xlink:href="#DejaVuSans-38"/>
       <use xlink:href="#DejaVuSans-30" x="63.623047"/>
      </g>
     </g>
    </g>
    <g id="xtick_13">
     <g id="line2d_25">
      <g>
       <use xlink:href="#m40a7566371" x="430.472727" y="384.48" style="stroke: #000000; stroke-width: 0.8"/>
      </g>
     </g>
     <g id="text_13">
      <!-- 100 -->
      <g transform="translate(420.928977 399.078438)scale(0.1 -0.1)">
       <use xlink:href="#DejaVuSans-31"/>
       <use xlink:href="#DejaVuSans-30" x="63.623047"/>
       <use xlink:href="#DejaVuSans-30" x="127.246094"/>
      </g>
     </g>
    </g>
    <g id="xtick_14">
     <g id="line2d_26">
      <g>
       <use xlink:href="#m40a7566371" x="498.109091" y="384.48" style="stroke: #000000; stroke-width: 0.8"/>
      </g>
     </g>
     <g id="text_14">
      <!-- 120 -->
      <g transform="translate(488.565341 399.078438)scale(0.1 -0.1)">
       <use xlink:href="#DejaVuSans-31"/>
       <use xlink:href="#DejaVuSans-32" x="63.623047"/>
       <use xlink:href="#DejaVuSans-30" x="127.246094"/>
      </g>
     </g>
    </g>
    <g id="text_15">
     <!-- Epochs -->
     <g transform="translate(277.284375 412.756563)scale(0.1 -0.1)">
      <defs>
       <path id="DejaVuSans-45" d="M 628 4666 
L 3578 4666 
L 3578 4134 
L 1259 4134 
L 1259 2753 
L 3481 2753 
L 3481 2222 
L 1259 2222 
L 1259 531 
L 3634 531 
L 3634 0 
L 628 0 
L 628 4666 
z
" transform="scale(0.015625)"/>
       <path id="DejaVuSans-70" d="M 1159 525 
L 1159 -1331 
L 581 -1331 
L 581 3500 
L 1159 3500 
L 1159 2969 
Q 1341 3281 1617 3432 
Q 1894 3584 2278 3584 
Q 2916 3584 3314 3078 
Q 3713 2572 3713 1747 
Q 3713 922 3314 415 
Q 2916 -91 2278 -91 
Q 1894 -91 1617 61 
Q 1341 213 1159 525 
z
M 3116 1747 
Q 3116 2381 2855 2742 
Q 2594 3103 2138 3103 
Q 1681 3103 1420 2742 
Q 1159 2381 1159 1747 
Q 1159 1113 1420 752 
Q 1681 391 2138 391 
Q 2594 391 2855 752 
Q 3116 1113 3116 1747 
z
" transform="scale(0.015625)"/>
       <path id="DejaVuSans-63" d="M 3122 3366 
L 3122 2828 
Q 2878 2963 2633 3030 
Q 2388 3097 2138 3097 
Q 1578 3097 1268 2742 
Q 959 2388 959 1747 
Q 959 1106 1268 751 
Q 1578 397 2138 397 
Q 2388 397 2633 464 
Q 2878 531 3122 666 
L 3122 134 
Q 2881 22 2623 -34 
Q 2366 -91 2075 -91 
Q 1284 -91 818 406 
Q 353 903 353 1747 
Q 353 2603 823 3093 
Q 1294 3584 2113 3584 
Q 2378 3584 2631 3529 
Q 2884 3475 3122 3366 
z
" transform="scale(0.015625)"/>
       <path id="DejaVuSans-68" d="M 3513 2113 
L 3513 0 
L 2938 0 
L 2938 2094 
Q 2938 2591 2744 2837 
Q 2550 3084 2163 3084 
Q 1697 3084 1428 2787 
Q 1159 2491 1159 1978 
L 1159 0 
L 581 0 
L 581 4863 
L 1159 4863 
L 1159 2956 
Q 1366 3272 1645 3428 
Q 1925 3584 2291 3584 
Q 2894 3584 3203 3211 
Q 3513 2838 3513 2113 
z
" transform="scale(0.015625)"/>
       <path id="DejaVuSans-73" d="M 2834 3397 
L 2834 2853 
Q 2591 2978 2328 3040 
Q 2066 3103 1784 3103 
Q 1356 3103 1142 2972 
Q 928 2841 928 2578 
Q 928 2378 1081 2264 
Q 1234 2150 1697 2047 
L 1894 2003 
Q 2506 1872 2764 1633 
Q 3022 1394 3022 966 
Q 3022 478 2636 193 
Q 2250 -91 1575 -91 
Q 1294 -91 989 -36 
Q 684 19 347 128 
L 347 722 
Q 666 556 975 473 
Q 1284 391 1588 391 
Q 1994 391 2212 530 
Q 2431 669 2431 922 
Q 2431 1156 2273 1281 
Q 2116 1406 1581 1522 
L 1381 1569 
Q 847 1681 609 1914 
Q 372 2147 372 2553 
Q 372 3047 722 3315 
Q 1072 3584 1716 3584 
Q 2034 3584 2315 3537 
Q 2597 3491 2834 3397 
z
" transform="scale(0.015625)"/>
      </defs>
      <use xlink:href="#DejaVuSans-45"/>
      <use xlink:href="#DejaVuSans-70" x="63.183594"/>
      <use xlink:href="#DejaVuSans-6f" x="126.660156"/>
      <use xlink:href="#DejaVuSans-63" x="187.841797"/>
      <use xlink:href="#DejaVuSans-68" x="242.822266"/>
      <use xlink:href="#DejaVuSans-73" x="306.201172"/>
     </g>
    </g>
   </g>
   <g id="matplotlib.axis_4">
    <g id="ytick_7">
     <g id="line2d_27">
      <g>
       <use xlink:href="#ma6b492a4a8" x="72" y="358.01554" style="stroke: #000000; stroke-width: 0.8"/>
      </g>
     </g>
     <g id="text_16">
      <!-- 0.15 -->
      <g transform="translate(42.734375 361.814758)scale(0.1 -0.1)">
       <use xlink:href="#DejaVuSans-30"/>
       <use xlink:href="#DejaVuSans-2e" x="63.623047"/>
       <use xlink:href="#DejaVuSans-31" x="95.410156"/>
       <use xlink:href="#DejaVuSans-35" x="159.033203"/>
      </g>
     </g>
    </g>
    <g id="ytick_8">
     <g id="line2d_28">
      <g>
       <use xlink:href="#ma6b492a4a8" x="72" y="330.287369" style="stroke: #000000; stroke-width: 0.8"/>
      </g>
     </g>
     <g id="text_17">
      <!-- 0.20 -->
      <g transform="translate(42.734375 334.086588)scale(0.1 -0.1)">
       <use xlink:href="#DejaVuSans-30"/>
       <use xlink:href="#DejaVuSans-2e" x="63.623047"/>
       <use xlink:href="#DejaVuSans-32" x="95.410156"/>
       <use xlink:href="#DejaVuSans-30" x="159.033203"/>
      </g>
     </g>
    </g>
    <g id="ytick_9">
     <g id="line2d_29">
      <g>
       <use xlink:href="#ma6b492a4a8" x="72" y="302.559198" style="stroke: #000000; stroke-width: 0.8"/>
      </g>
     </g>
     <g id="text_18">
      <!-- 0.25 -->
      <g transform="translate(42.734375 306.358417)scale(0.1 -0.1)">
       <use xlink:href="#DejaVuSans-30"/>
       <use xlink:href="#DejaVuSans-2e" x="63.623047"/>
       <use xlink:href="#DejaVuSans-32" x="95.410156"/>
       <use xlink:href="#DejaVuSans-35" x="159.033203"/>
      </g>
     </g>
    </g>
    <g id="ytick_10">
     <g id="line2d_30">
      <g>
       <use xlink:href="#ma6b492a4a8" x="72" y="274.831028" style="stroke: #000000; stroke-width: 0.8"/>
      </g>
     </g>
     <g id="text_19">
      <!-- 0.30 -->
      <g transform="translate(42.734375 278.630247)scale(0.1 -0.1)">
       <defs>
        <path id="DejaVuSans-33" d="M 2597 2516 
Q 3050 2419 3304 2112 
Q 3559 1806 3559 1356 
Q 3559 666 3084 287 
Q 2609 -91 1734 -91 
Q 1441 -91 1130 -33 
Q 819 25 488 141 
L 488 750 
Q 750 597 1062 519 
Q 1375 441 1716 441 
Q 2309 441 2620 675 
Q 2931 909 2931 1356 
Q 2931 1769 2642 2001 
Q 2353 2234 1838 2234 
L 1294 2234 
L 1294 2753 
L 1863 2753 
Q 2328 2753 2575 2939 
Q 2822 3125 2822 3475 
Q 2822 3834 2567 4026 
Q 2313 4219 1838 4219 
Q 1578 4219 1281 4162 
Q 984 4106 628 3988 
L 628 4550 
Q 988 4650 1302 4700 
Q 1616 4750 1894 4750 
Q 2613 4750 3031 4423 
Q 3450 4097 3450 3541 
Q 3450 3153 3228 2886 
Q 3006 2619 2597 2516 
z
" transform="scale(0.015625)"/>
       </defs>
       <use xlink:href="#DejaVuSans-30"/>
       <use xlink:href="#DejaVuSans-2e" x="63.623047"/>
       <use xlink:href="#DejaVuSans-33" x="95.410156"/>
       <use xlink:href="#DejaVuSans-30" x="159.033203"/>
      </g>
     </g>
    </g>
    <g id="ytick_11">
     <g id="line2d_31">
      <g>
       <use xlink:href="#ma6b492a4a8" x="72" y="247.102857" style="stroke: #000000; stroke-width: 0.8"/>
      </g>
     </g>
     <g id="text_20">
      <!-- 0.35 -->
      <g transform="translate(42.734375 250.902076)scale(0.1 -0.1)">
       <use xlink:href="#DejaVuSans-30"/>
       <use xlink:href="#DejaVuSans-2e" x="63.623047"/>
       <use xlink:href="#DejaVuSans-33" x="95.410156"/>
       <use xlink:href="#DejaVuSans-35" x="159.033203"/>
      </g>
     </g>
    </g>
    <g id="text_21">
     <!-- Additive -->
     <g transform="translate(36.654687 329.335469)rotate(-90)scale(0.1 -0.1)">
      <defs>
       <path id="DejaVuSans-64" d="M 2906 2969 
L 2906 4863 
L 3481 4863 
L 3481 0 
L 2906 0 
L 2906 525 
Q 2725 213 2448 61 
Q 2172 -91 1784 -91 
Q 1150 -91 751 415 
Q 353 922 353 1747 
Q 353 2572 751 3078 
Q 1150 3584 1784 3584 
Q 2172 3584 2448 3432 
Q 2725 3281 2906 2969 
z
M 947 1747 
Q 947 1113 1208 752 
Q 1469 391 1925 391 
Q 2381 391 2643 752 
Q 2906 1113 2906 1747 
Q 2906 2381 2643 2742 
Q 2381 3103 1925 3103 
Q 1469 3103 1208 2742 
Q 947 2381 947 1747 
z
" transform="scale(0.015625)"/>
       <path id="DejaVuSans-76" d="M 191 3500 
L 800 3500 
L 1894 563 
L 2988 3500 
L 3597 3500 
L 2284 0 
L 1503 0 
L 191 3500 
z
" transform="scale(0.015625)"/>
      </defs>
      <use xlink:href="#DejaVuSans-41"/>
      <use xlink:href="#DejaVuSans-64" x="66.658203"/>
      <use xlink:href="#DejaVuSans-64" x="130.134766"/>
      <use xlink:href="#DejaVuSans-69" x="193.611328"/>
      <use xlink:href="#DejaVuSans-74" x="221.394531"/>
      <use xlink:href="#DejaVuSans-69" x="260.603516"/>
      <use xlink:href="#DejaVuSans-76" x="288.386719"/>
      <use xlink:href="#DejaVuSans-65" x="347.566406"/>
     </g>
    </g>
   </g>
   <g id="line2d_32">
    <path d="M 92.290909 342.842496 
L 95.672727 343.803697 
L 99.054545 351.5499 
L 102.436364 366.332542 
L 105.818182 371.945044 
L 109.2 375.468618 
L 112.581818 368.797395 
L 115.963636 374.697993 
L 119.345455 373.345929 
L 122.727273 371.514364 
L 126.109091 370.679158 
L 129.490909 373.697539 
L 132.872727 370.869478 
L 136.254545 371.408383 
L 139.636364 370.019529 
L 143.018182 365.57327 
L 146.4 369.931439 
L 149.781818 365.917699 
L 153.163636 363.360408 
L 156.545455 362.648884 
L 159.927273 359.144903 
L 163.309091 357.550128 
L 166.690909 357.108932 
L 170.072727 354.913581 
L 173.454545 349.104888 
L 176.836364 348.959208 
L 180.218182 343.095165 
L 183.6 344.757453 
L 186.981818 345.890993 
L 190.363636 344.090404 
L 193.745455 340.60105 
L 197.127273 337.378123 
L 200.509091 341.85828 
L 203.890909 338.82864 
L 207.272727 333.033507 
L 210.654545 333.739858 
L 214.036364 332.704242 
L 217.418182 330.951698 
L 220.8 330.708119 
L 224.181818 327.168149 
L 227.563636 328.858518 
L 230.945455 321.272068 
L 234.327273 324.389947 
L 237.709091 326.691908 
L 241.090909 320.166054 
L 244.472727 330.249396 
L 247.854545 329.55306 
L 251.236364 323.598886 
L 254.618182 322.954363 
L 258 324.122875 
L 261.381818 322.139643 
L 264.763636 324.828548 
L 268.145455 319.02887 
L 271.527273 320.414121 
L 274.909091 321.338243 
L 278.290909 315.47777 
L 281.672727 318.180376 
L 285.054545 326.995026 
L 288.436364 320.479899 
L 291.818182 319.761756 
L 295.2 322.165756 
L 298.581818 315.507362 
L 301.963636 320.195911 
L 305.345455 321.103531 
L 308.727273 319.799207 
L 312.109091 315.680031 
L 315.490909 319.467876 
L 318.872727 320.49555 
L 322.254545 324.849563 
L 325.636364 317.403082 
L 329.018182 319.916187 
L 332.4 321.66388 
L 335.781818 320.657633 
L 339.163636 321.486228 
L 342.545455 319.379513 
L 345.927273 318.087212 
L 349.309091 320.834508 
L 352.690909 319.818849 
L 356.072727 315.799391 
L 359.454545 320.651841 
L 362.836364 317.750932 
L 366.218182 318.406883 
L 369.6 317.08989 
L 372.981818 319.496617 
L 376.363636 319.222619 
L 379.745455 320.726172 
L 383.127273 317.849161 
L 386.509091 324.598455 
L 389.890909 322.803395 
L 393.272727 320.587136 
L 396.654545 316.615384 
L 400.036364 322.633304 
L 403.418182 321.927325 
L 406.8 326.274627 
L 410.181818 318.140884 
L 413.563636 318.126398 
L 416.945455 325.722682 
L 420.327273 321.845457 
L 423.709091 322.471147 
L 427.090909 321.116662 
L 430.472727 316.699433 
L 433.854545 319.062024 
L 437.236364 325.779908 
L 440.618182 318.304546 
L 444 318.509798 
L 447.381818 319.682855 
L 450.763636 322.137759 
L 454.145455 322.662756 
L 457.527273 321.084244 
L 460.909091 322.656475 
L 464.290909 318.609656 
L 467.672727 323.631453 
L 471.054545 318.383497 
L 474.436364 320.401981 
L 477.818182 319.061264 
L 481.2 317.695177 
L 484.581818 316.237661 
L 487.963636 319.562296 
L 491.345455 318.119457 
L 494.727273 318.538936 
L 498.109091 318.716058 
" clip-path="url(#p0c0309ff47)" style="fill: none; stroke: #1f77b4; stroke-linecap: square"/>
   </g>
   <g id="line2d_33">
    <path d="M 92.290909 306.224494 
L 95.672727 312.62046 
L 99.054545 329.376351 
L 102.436364 346.923163 
L 105.818182 355.177786 
L 109.2 353.240806 
L 112.581818 351.804966 
L 115.963636 354.727467 
L 119.345455 348.293531 
L 122.727273 349.198713 
L 126.109091 346.518484 
L 129.490909 344.41181 
L 132.872727 349.432119 
L 136.254545 344.871574 
L 139.636364 345.431188 
L 143.018182 343.897845 
L 146.4 342.335819 
L 149.781818 338.347489 
L 153.163636 335.803652 
L 156.545455 336.218437 
L 159.927273 331.30163 
L 163.309091 332.520054 
L 166.690909 324.972856 
L 170.072727 330.788937 
L 173.454545 319.547802 
L 176.836364 317.854458 
L 180.218182 309.96703 
L 183.6 312.15744 
L 186.981818 303.215455 
L 190.363636 301.084354 
L 193.745455 296.457609 
L 197.127273 298.017552 
L 200.509091 294.878626 
L 203.890909 292.609017 
L 207.272727 286.360153 
L 210.654545 281.971565 
L 214.036364 283.975316 
L 217.418182 280.991333 
L 220.8 285.990338 
L 224.181818 275.343995 
L 227.563636 280.764628 
L 230.945455 282.312936 
L 234.327273 274.464909 
L 237.709091 277.696455 
L 241.090909 274.751905 
L 244.472727 276.11286 
L 247.854545 279.870519 
L 251.236364 280.006637 
L 254.618182 275.522176 
L 258 280.466492 
L 261.381818 270.583032 
L 264.763636 279.177745 
L 268.145455 276.607869 
L 271.527273 283.059292 
L 274.909091 275.647072 
L 278.290909 276.908996 
L 281.672727 272.387596 
L 285.054545 276.196819 
L 288.436364 278.352373 
L 291.818182 266.843388 
L 295.2 276.720387 
L 298.581818 277.065278 
L 301.963636 274.479717 
L 305.345455 277.544618 
L 308.727273 279.605537 
L 312.109091 278.133287 
L 315.490909 285.492917 
L 318.872727 280.540799 
L 322.254545 277.356059 
L 325.636364 275.253459 
L 329.018182 274.240122 
L 332.4 276.043231 
L 335.781818 278.403392 
L 339.163636 281.345595 
L 342.545455 272.804942 
L 345.927273 278.374486 
L 349.309091 279.328705 
L 352.690909 277.398831 
L 356.072727 277.929836 
L 359.454545 283.054499 
L 362.836364 279.131353 
L 366.218182 280.534849 
L 369.6 273.399346 
L 372.981818 276.783207 
L 376.363636 277.41397 
L 379.745455 275.910104 
L 383.127273 277.322541 
L 386.509091 283.464144 
L 389.890909 277.057808 
L 393.272727 277.42316 
L 396.654545 277.484988 
L 400.036364 280.454742 
L 403.418182 280.290328 
L 406.8 283.66543 
L 410.181818 280.318689 
L 413.563636 275.73508 
L 416.945455 277.257093 
L 420.327273 279.584812 
L 423.709091 279.289106 
L 427.090909 277.403988 
L 430.472727 275.306974 
L 433.854545 279.453089 
L 437.236364 275.586929 
L 440.618182 274.84307 
L 444 278.0448 
L 447.381818 279.376535 
L 450.763636 278.415672 
L 454.145455 286.558877 
L 457.527273 277.977716 
L 460.909091 278.517183 
L 464.290909 279.862867 
L 467.672727 278.308906 
L 471.054545 279.264034 
L 474.436364 281.859147 
L 477.818182 276.721775 
L 481.2 280.034089 
L 484.581818 280.244019 
L 487.963636 273.991055 
L 491.345455 277.827301 
L 494.727273 277.538487 
L 498.109091 280.293964 
" clip-path="url(#p0c0309ff47)" style="fill: none; stroke: #ff7f0e; stroke-linecap: square"/>
   </g>
   <g id="line2d_34">
    <path d="M 92.290909 348.347699 
L 95.672727 354.600439 
L 99.054545 357.748315 
L 102.436364 372.568296 
L 105.818182 377.607273 
L 109.2 376.262427 
L 112.581818 373.050182 
L 115.963636 374.652336 
L 119.345455 373.537278 
L 122.727273 367.346441 
L 126.109091 365.290497 
L 129.490909 358.742158 
L 132.872727 359.161852 
L 136.254545 351.445158 
L 139.636364 351.624074 
L 143.018182 346.341766 
L 146.4 345.183717 
L 149.781818 342.635111 
L 153.163636 338.617082 
L 156.545455 331.0028 
L 159.927273 334.696647 
L 163.309091 330.844882 
L 166.690909 320.663021 
L 170.072727 324.216188 
L 173.454545 320.039108 
L 176.836364 313.523287 
L 180.218182 305.953248 
L 183.6 308.689298 
L 186.981818 303.416063 
L 190.363636 296.527833 
L 193.745455 299.167504 
L 197.127273 291.175077 
L 200.509091 290.944621 
L 203.890909 283.982423 
L 207.272727 287.277764 
L 210.654545 284.607947 
L 214.036364 284.509808 
L 217.418182 279.144971 
L 220.8 273.487535 
L 224.181818 280.047113 
L 227.563636 282.660373 
L 230.945455 277.527744 
L 234.327273 283.077654 
L 237.709091 275.4778 
L 241.090909 275.569444 
L 244.472727 269.255395 
L 247.854545 278.014803 
L 251.236364 277.958742 
L 254.618182 280.01624 
L 258 275.493088 
L 261.381818 276.275538 
L 264.763636 276.792413 
L 268.145455 277.727741 
L 271.527273 278.05703 
L 274.909091 276.775241 
L 278.290909 273.029284 
L 281.672727 273.431739 
L 285.054545 279.248333 
L 288.436364 277.923457 
L 291.818182 274.839103 
L 295.2 272.646066 
L 298.581818 274.802066 
L 301.963636 278.213477 
L 305.345455 274.629141 
L 308.727273 278.154905 
L 312.109091 276.739178 
L 315.490909 281.206716 
L 318.872727 276.493153 
L 322.254545 279.230963 
L 325.636364 278.190736 
L 329.018182 276.873611 
L 332.4 282.872203 
L 335.781818 276.175168 
L 339.163636 281.09324 
L 342.545455 277.165351 
L 345.927273 276.161533 
L 349.309091 282.406084 
L 352.690909 278.918184 
L 356.072727 276.421805 
L 359.454545 282.018569 
L 362.836364 279.571441 
L 366.218182 277.716667 
L 369.6 278.192785 
L 372.981818 276.598415 
L 376.363636 273.974561 
L 379.745455 278.083953 
L 383.127273 279.549047 
L 386.509091 279.664919 
L 389.890909 278.006044 
L 393.272727 275.99431 
L 396.654545 274.845797 
L 400.036364 275.934035 
L 403.418182 276.188787 
L 406.8 273.427244 
L 410.181818 282.530865 
L 413.563636 275.527828 
L 416.945455 277.851216 
L 420.327273 281.008009 
L 423.709091 273.151453 
L 427.090909 277.205181 
L 430.472727 276.910533 
L 433.854545 275.972395 
L 437.236364 276.711197 
L 440.618182 280.8984 
L 444 279.710436 
L 447.381818 276.775075 
L 450.763636 274.891627 
L 454.145455 282.768428 
L 457.527273 281.153746 
L 460.909091 278.200371 
L 464.290909 277.519348 
L 467.672727 280.5387 
L 471.054545 275.540802 
L 474.436364 274.964479 
L 477.818182 282.397953 
L 481.2 275.285455 
L 484.581818 276.177978 
L 487.963636 276.028142 
L 491.345455 277.892468 
L 494.727273 276.195464 
L 498.109091 276.042223 
" clip-path="url(#p0c0309ff47)" style="fill: none; stroke: #2ca02c; stroke-linecap: square"/>
   </g>
   <g id="line2d_35">
    <path d="M 92.290909 325.550584 
L 95.672727 333.179277 
L 99.054545 341.871187 
L 102.436364 340.349116 
L 105.818182 343.226085 
L 109.2 344.499355 
L 112.581818 346.107914 
L 115.963636 336.95343 
L 119.345455 333.886422 
L 122.727273 326.167431 
L 126.109091 320.104763 
L 129.490909 314.832809 
L 132.872727 309.121346 
L 136.254545 303.776449 
L 139.636364 302.004345 
L 143.018182 297.401498 
L 146.4 286.165693 
L 149.781818 281.059194 
L 153.163636 282.946063 
L 156.545455 273.668079 
L 159.927273 273.921542 
L 163.309091 269.073 
L 166.690909 269.973373 
L 170.072727 265.572854 
L 173.454545 263.950883 
L 176.836364 257.618143 
L 180.218182 263.439447 
L 183.6 256.000816 
L 186.981818 260.32179 
L 190.363636 254.018898 
L 193.745455 253.354039 
L 197.127273 252.534402 
L 200.509091 249.817102 
L 203.890909 250.809086 
L 207.272727 245.471056 
L 210.654545 253.234117 
L 214.036364 252.667347 
L 217.418182 254.385258 
L 220.8 249.422084 
L 224.181818 250.870931 
L 227.563636 247.14046 
L 230.945455 248.857099 
L 234.327273 244.637073 
L 237.709091 246.705694 
L 241.090909 246.454115 
L 244.472727 240.152727 
L 247.854545 245.505565 
L 251.236364 250.17943 
L 254.618182 241.885794 
L 258 246.859216 
L 261.381818 249.00563 
L 264.763636 249.776396 
L 268.145455 248.187083 
L 271.527273 246.434117 
L 274.909091 243.785737 
L 278.290909 247.731459 
L 281.672727 250.301401 
L 285.054545 247.719857 
L 288.436364 248.222286 
L 291.818182 246.414136 
L 295.2 257.13505 
L 298.581818 246.388948 
L 301.963636 248.972575 
L 305.345455 249.780065 
L 308.727273 251.023742 
L 312.109091 248.812872 
L 315.490909 253.571191 
L 318.872727 246.798874 
L 322.254545 248.356223 
L 325.636364 250.500985 
L 329.018182 248.97431 
L 332.4 251.105552 
L 335.781818 249.76605 
L 339.163636 248.124693 
L 342.545455 249.095521 
L 345.927273 249.074019 
L 349.309091 252.162687 
L 352.690909 247.85472 
L 356.072727 248.246747 
L 359.454545 250.074878 
L 362.836364 253.184519 
L 366.218182 256.049506 
L 369.6 252.484473 
L 372.981818 251.332439 
L 376.363636 253.916231 
L 379.745455 247.355513 
L 383.127273 246.565278 
L 386.509091 251.575753 
L 389.890909 251.959996 
L 393.272727 250.349578 
L 396.654545 251.604048 
L 400.036364 246.14965 
L 403.418182 248.650376 
L 406.8 252.940973 
L 410.181818 250.51224 
L 413.563636 250.789088 
L 416.945455 252.546252 
L 420.327273 251.564647 
L 423.709091 255.835825 
L 427.090909 248.612842 
L 430.472727 252.741307 
L 433.854545 251.063755 
L 437.236364 252.48834 
L 440.618182 252.70774 
L 444 250.189941 
L 447.381818 255.631928 
L 450.763636 249.152491 
L 454.145455 254.604592 
L 457.527273 259.447679 
L 460.909091 252.575869 
L 464.290909 253.36098 
L 467.672727 248.710932 
L 471.054545 248.817086 
L 474.436364 254.699971 
L 477.818182 249.861478 
L 481.2 245.858258 
L 484.581818 248.275835 
L 487.963636 251.207708 
L 491.345455 253.995661 
L 494.727273 247.377362 
L 498.109091 257.186682 
" clip-path="url(#p0c0309ff47)" style="fill: none; stroke: #d62728; stroke-linecap: square"/>
   </g>
   <g id="line2d_36">
    <path d="M 92.290909 350.898767 
L 95.672727 351.269911 
L 99.054545 356.941395 
L 102.436364 357.667992 
L 105.818182 360.246306 
L 109.2 362.811438 
L 112.581818 362.617325 
L 115.963636 362.389662 
L 119.345455 366.418169 
L 122.727273 367.142998 
L 126.109091 366.901931 
L 129.490909 369.749457 
L 132.872727 366.102713 
L 136.254545 367.229419 
L 139.636364 361.484248 
L 143.018182 360.83366 
L 146.4 362.660619 
L 149.781818 358.261553 
L 153.163636 354.952908 
L 156.545455 348.26141 
L 159.927273 347.851657 
L 163.309091 346.810497 
L 166.690909 345.140457 
L 170.072727 340.412771 
L 173.454545 336.15508 
L 176.836364 331.586271 
L 180.218182 329.639341 
L 183.6 323.819872 
L 186.981818 321.046198 
L 190.363636 316.350584 
L 193.745455 316.804406 
L 197.127273 314.867393 
L 200.509091 311.163977 
L 203.890909 307.734972 
L 207.272727 305.053793 
L 210.654545 306.492724 
L 214.036364 303.862267 
L 217.418182 306.530563 
L 220.8 301.137638 
L 224.181818 299.13906 
L 227.563636 294.240722 
L 230.945455 300.041301 
L 234.327273 295.294749 
L 237.709091 297.752141 
L 241.090909 289.59264 
L 244.472727 296.576225 
L 247.854545 293.48645 
L 251.236364 299.752553 
L 254.618182 291.848795 
L 258 295.658944 
L 261.381818 300.775178 
L 264.763636 289.565106 
L 268.145455 292.909219 
L 271.527273 290.366381 
L 274.909091 295.978863 
L 278.290909 295.222145 
L 281.672727 287.3782 
L 285.054545 293.429811 
L 288.436364 297.145342 
L 291.818182 295.706295 
L 295.2 294.79275 
L 298.581818 292.872131 
L 301.963636 293.832796 
L 305.345455 294.373106 
L 308.727273 297.828282 
L 312.109091 293.567649 
L 315.490909 290.844036 
L 318.872727 294.785329 
L 322.254545 295.90611 
L 325.636364 289.888578 
L 329.018182 298.111989 
L 332.4 293.568475 
L 335.781818 292.55408 
L 339.163636 292.941562 
L 342.545455 290.763912 
L 345.927273 293.823144 
L 349.309091 296.399631 
L 352.690909 290.463859 
L 356.072727 290.957926 
L 359.454545 288.536531 
L 362.836364 293.203834 
L 366.218182 293.579086 
L 369.6 291.819046 
L 372.981818 293.221518 
L 376.363636 290.861191 
L 379.745455 288.914179 
L 383.127273 292.369239 
L 386.509091 295.794418 
L 389.890909 295.399747 
L 393.272727 295.583183 
L 396.654545 295.230623 
L 400.036364 293.769844 
L 403.418182 294.272471 
L 406.8 290.07365 
L 410.181818 297.701914 
L 413.563636 289.367473 
L 416.945455 294.317062 
L 420.327273 293.985558 
L 423.709091 293.501292 
L 427.090909 295.110189 
L 430.472727 290.580823 
L 433.854545 291.628024 
L 437.236364 294.686248 
L 440.618182 298.910521 
L 444 292.383816 
L 447.381818 294.922307 
L 450.763636 293.54018 
L 454.145455 293.082193 
L 457.527273 294.674745 
L 460.909091 295.796022 
L 464.290909 289.952323 
L 467.672727 293.184249 
L 471.054545 292.601415 
L 474.436364 292.527025 
L 477.818182 294.177621 
L 481.2 288.320635 
L 484.581818 294.767314 
L 487.963636 289.113448 
L 491.345455 290.567816 
L 494.727273 299.092189 
L 498.109091 293.441099 
" clip-path="url(#p0c0309ff47)" style="fill: none; stroke: #9467bd; stroke-linecap: square"/>
   </g>
   <g id="line2d_37">
    <path d="M 92.290909 341.593769 
L 95.672727 343.673504 
L 99.054545 339.915292 
L 102.436364 343.974804 
L 105.818182 344.366963 
L 109.2 357.878385 
L 112.581818 361.401265 
L 115.963636 357.748736 
L 119.345455 363.236826 
L 122.727273 357.6355 
L 126.109091 361.088841 
L 129.490909 353.838333 
L 132.872727 356.94485 
L 136.254545 354.17287 
L 139.636364 350.624199 
L 143.018182 349.106565 
L 146.4 342.723152 
L 149.781818 339.143559 
L 153.163636 332.1727 
L 156.545455 333.920964 
L 159.927273 330.826867 
L 163.309091 324.355653 
L 166.690909 318.0047 
L 170.072727 319.436383 
L 173.454545 313.682296 
L 176.836364 304.556768 
L 180.218182 304.915567 
L 183.6 302.593146 
L 186.981818 297.990365 
L 190.363636 300.514774 
L 193.745455 290.78034 
L 197.127273 293.254391 
L 200.509091 284.638424 
L 203.890909 284.608294 
L 207.272727 282.228664 
L 210.654545 276.078996 
L 214.036364 278.894087 
L 217.418182 275.223329 
L 220.8 277.296164 
L 224.181818 278.139468 
L 227.563636 270.334147 
L 230.945455 279.266629 
L 234.327273 270.901909 
L 237.709091 277.768018 
L 241.090909 272.15585 
L 244.472727 268.907463 
L 247.854545 276.049214 
L 251.236364 273.926202 
L 254.618182 277.171036 
L 258 272.245081 
L 261.381818 278.671531 
L 264.763636 271.66223 
L 268.145455 269.40234 
L 271.527273 270.809769 
L 274.909091 274.648081 
L 278.290909 273.653568 
L 281.672727 272.553827 
L 285.054545 270.039929 
L 288.436364 267.662579 
L 291.818182 273.853449 
L 295.2 274.930846 
L 298.581818 266.244241 
L 301.963636 269.361286 
L 305.345455 269.264155 
L 308.727273 275.717809 
L 312.109091 275.494195 
L 315.490909 273.81742 
L 318.872727 268.957987 
L 322.254545 274.130909 
L 325.636364 275.324708 
L 329.018182 273.424451 
L 332.4 272.724669 
L 335.781818 273.71586 
L 339.163636 274.23951 
L 342.545455 272.701465 
L 345.927273 272.585691 
L 349.309091 275.215462 
L 352.690909 274.58374 
L 356.072727 278.408962 
L 359.454545 272.999601 
L 362.836364 277.755077 
L 366.218182 279.10719 
L 369.6 272.916171 
L 372.981818 276.187217 
L 376.363636 275.917095 
L 379.745455 279.452313 
L 383.127273 272.360458 
L 386.509091 270.89786 
L 389.890909 277.417689 
L 393.272727 276.562386 
L 396.654545 272.500741 
L 400.036364 277.957139 
L 403.418182 276.594928 
L 406.8 277.546866 
L 410.181818 273.882075 
L 413.563636 275.406964 
L 416.945455 275.030803 
L 420.327273 272.647437 
L 423.709091 273.135488 
L 427.090909 275.336839 
L 430.472727 277.900434 
L 433.854545 273.955737 
L 437.236364 277.378866 
L 440.618182 275.762945 
L 444 278.047825 
L 447.381818 273.670658 
L 450.763636 274.706968 
L 454.145455 278.81474 
L 457.527273 277.094531 
L 460.909091 278.102712 
L 464.290909 274.088368 
L 467.672727 275.440085 
L 471.054545 278.58463 
L 474.436364 278.926662 
L 477.818182 277.057262 
L 481.2 270.643637 
L 484.581818 282.205294 
L 487.963636 276.065146 
L 491.345455 274.119373 
L 494.727273 277.741541 
L 498.109091 281.189941 
" clip-path="url(#p0c0309ff47)" style="fill: none; stroke: #8c564b; stroke-linecap: square"/>
   </g>
   <g id="patch_8">
    <path d="M 72 384.48 
L 72 233.28 
" style="fill: none; stroke: #000000; stroke-width: 0.8; stroke-linejoin: miter; stroke-linecap: square"/>
   </g>
   <g id="patch_9">
    <path d="M 518.4 384.48 
L 518.4 233.28 
" style="fill: none; stroke: #000000; stroke-width: 0.8; stroke-linejoin: miter; stroke-linecap: square"/>
   </g>
   <g id="patch_10">
    <path d="M 72 384.48 
L 518.4 384.48 
" style="fill: none; stroke: #000000; stroke-width: 0.8; stroke-linejoin: miter; stroke-linecap: square"/>
   </g>
   <g id="patch_11">
    <path d="M 72 233.28 
L 518.4 233.28 
" style="fill: none; stroke: #000000; stroke-width: 0.8; stroke-linejoin: miter; stroke-linecap: square"/>
   </g>
  </g>
  <g id="text_22">
   <!-- Variable 5 -->
   <g transform="translate(257.98125 17.758125)scale(0.12 -0.12)">
    <defs>
     <path id="DejaVuSans-56" d="M 1831 0 
L 50 4666 
L 709 4666 
L 2188 738 
L 3669 4666 
L 4325 4666 
L 2547 0 
L 1831 0 
z
" transform="scale(0.015625)"/>
     <path id="DejaVuSans-61" d="M 2194 1759 
Q 1497 1759 1228 1600 
Q 959 1441 959 1056 
Q 959 750 1161 570 
Q 1363 391 1709 391 
Q 2188 391 2477 730 
Q 2766 1069 2766 1631 
L 2766 1759 
L 2194 1759 
z
M 3341 1997 
L 3341 0 
L 2766 0 
L 2766 531 
Q 2569 213 2275 61 
Q 1981 -91 1556 -91 
Q 1019 -91 701 211 
Q 384 513 384 1019 
Q 384 1609 779 1909 
Q 1175 2209 1959 2209 
L 2766 2209 
L 2766 2266 
Q 2766 2663 2505 2880 
Q 2244 3097 1772 3097 
Q 1472 3097 1187 3025 
Q 903 2953 641 2809 
L 641 3341 
Q 956 3463 1253 3523 
Q 1550 3584 1831 3584 
Q 2591 3584 2966 3190 
Q 3341 2797 3341 1997 
z
" transform="scale(0.015625)"/>
     <path id="DejaVuSans-72" d="M 2631 2963 
Q 2534 3019 2420 3045 
Q 2306 3072 2169 3072 
Q 1681 3072 1420 2755 
Q 1159 2438 1159 1844 
L 1159 0 
L 581 0 
L 581 3500 
L 1159 3500 
L 1159 2956 
Q 1341 3275 1631 3429 
Q 1922 3584 2338 3584 
Q 2397 3584 2469 3576 
Q 2541 3569 2628 3553 
L 2631 2963 
z
" transform="scale(0.015625)"/>
     <path id="DejaVuSans-62" d="M 3116 1747 
Q 3116 2381 2855 2742 
Q 2594 3103 2138 3103 
Q 1681 3103 1420 2742 
Q 1159 2381 1159 1747 
Q 1159 1113 1420 752 
Q 1681 391 2138 391 
Q 2594 391 2855 752 
Q 3116 1113 3116 1747 
z
M 1159 2969 
Q 1341 3281 1617 3432 
Q 1894 3584 2278 3584 
Q 2916 3584 3314 3078 
Q 3713 2572 3713 1747 
Q 3713 922 3314 415 
Q 2916 -91 2278 -91 
Q 1894 -91 1617 61 
Q 1341 213 1159 525 
L 1159 0 
L 581 0 
L 581 4863 
L 1159 4863 
L 1159 2969 
z
" transform="scale(0.015625)"/>
     <path id="DejaVuSans-6c" d="M 603 4863 
L 1178 4863 
L 1178 0 
L 603 0 
L 603 4863 
z
" transform="scale(0.015625)"/>
     <path id="DejaVuSans-20" transform="scale(0.015625)"/>
    </defs>
    <use xlink:href="#DejaVuSans-56"/>
    <use xlink:href="#DejaVuSans-61" x="60.658203"/>
    <use xlink:href="#DejaVuSans-72" x="121.9375"/>
    <use xlink:href="#DejaVuSans-69" x="163.050781"/>
    <use xlink:href="#DejaVuSans-61" x="190.833984"/>
    <use xlink:href="#DejaVuSans-62" x="252.113281"/>
    <use xlink:href="#DejaVuSans-6c" x="315.589844"/>
    <use xlink:href="#DejaVuSans-65" x="343.373047"/>
    <use xlink:href="#DejaVuSans-20" x="404.896484"/>
    <use xlink:href="#DejaVuSans-35" x="436.683594"/>
   </g>
  </g>
  <g id="legend_1">
   <g id="patch_12">
    <path d="M 530.6375 96.06875 
L 569 96.06875 
Q 571 96.06875 571 94.06875 
L 571 7 
Q 571 5 569 5 
L 530.6375 5 
Q 528.6375 5 528.6375 7 
L 528.6375 94.06875 
Q 528.6375 96.06875 530.6375 96.06875 
z
" style="fill: #ffffff; opacity: 0.8; stroke: #cccccc; stroke-linejoin: miter"/>
   </g>
   <g id="line2d_38">
    <path d="M 532.6375 13.098438 
L 542.6375 13.098438 
L 552.6375 13.098438 
" style="fill: none; stroke: #1f77b4; stroke-linecap: square"/>
   </g>
   <g id="text_23">
    <!-- 0 -->
    <g transform="translate(560.6375 16.598438)scale(0.1 -0.1)">
     <use xlink:href="#DejaVuSans-30"/>
    </g>
   </g>
   <g id="line2d_39">
    <path d="M 532.6375 27.776563 
L 542.6375 27.776563 
L 552.6375 27.776563 
" style="fill: none; stroke: #ff7f0e; stroke-linecap: square"/>
   </g>
   <g id="text_24">
    <!-- 1 -->
    <g transform="translate(560.6375 31.276563)scale(0.1 -0.1)">
     <use xlink:href="#DejaVuSans-31"/>
    </g>
   </g>
   <g id="line2d_40">
    <path d="M 532.6375 42.454688 
L 542.6375 42.454688 
L 552.6375 42.454688 
" style="fill: none; stroke: #2ca02c; stroke-linecap: square"/>
   </g>
   <g id="text_25">
    <!-- 2 -->
    <g transform="translate(560.6375 45.954688)scale(0.1 -0.1)">
     <use xlink:href="#DejaVuSans-32"/>
    </g>
   </g>
   <g id="line2d_41">
    <path d="M 532.6375 57.132813 
L 542.6375 57.132813 
L 552.6375 57.132813 
" style="fill: none; stroke: #d62728; stroke-linecap: square"/>
   </g>
   <g id="text_26">
    <!-- 3 -->
    <g transform="translate(560.6375 60.632813)scale(0.1 -0.1)">
     <use xlink:href="#DejaVuSans-33"/>
    </g>
   </g>
   <g id="line2d_42">
    <path d="M 532.6375 71.810938 
L 542.6375 71.810938 
L 552.6375 71.810938 
" style="fill: none; stroke: #9467bd; stroke-linecap: square"/>
   </g>
   <g id="text_27">
    <!-- 4 -->
    <g transform="translate(560.6375 75.310938)scale(0.1 -0.1)">
     <use xlink:href="#DejaVuSans-34"/>
    </g>
   </g>
   <g id="line2d_43">
    <path d="M 532.6375 86.489063 
L 542.6375 86.489063 
L 552.6375 86.489063 
" style="fill: none; stroke: #8c564b; stroke-linecap: square"/>
   </g>
   <g id="text_28">
    <!-- 5 -->
    <g transform="translate(560.6375 89.989063)scale(0.1 -0.1)">
     <use xlink:href="#DejaVuSans-35"/>
    </g>
   </g>
  </g>
 </g>
 <defs>
  <clipPath id="p4b4bcbd6a1">
   <rect x="72" y="51.84" width="446.4" height="151.2"/>
  </clipPath>
  <clipPath id="p0c0309ff47">
   <rect x="72" y="233.28" width="446.4" height="151.2"/>
  </clipPath>
 </defs>
</svg>
