<?xml version="1.0" encoding="utf-8" standalone="no"?>
<!DOCTYPE svg PUBLIC "-//W3C//DTD SVG 1.1//EN"
  "http://www.w3.org/Graphics/SVG/1.1/DTD/svg11.dtd">
<svg xmlns:xlink="http://www.w3.org/1999/xlink" width="576pt" height="432pt" viewBox="0 0 576 432" xmlns="http://www.w3.org/2000/svg" version="1.1">
 <metadata>
  <rdf:RDF xmlns:dc="http://purl.org/dc/elements/1.1/" xmlns:cc="http://creativecommons.org/ns#" xmlns:rdf="http://www.w3.org/1999/02/22-rdf-syntax-ns#">
   <cc:Work>
    <dc:type rdf:resource="http://purl.org/dc/dcmitype/StillImage"/>
    <dc:date>2023-07-12T09:27:14.401709</dc:date>
    <dc:format>image/svg+xml</dc:format>
    <dc:creator>
     <cc:Agent>
      <dc:title>Matplotlib v3.5.1, https://matplotlib.org/</dc:title>
     </cc:Agent>
    </dc:creator>
   </cc:Work>
  </rdf:RDF>
 </metadata>
 <defs>
  <style type="text/css">*{stroke-linejoin: round; stroke-linecap: butt}</style>
 </defs>
 <g id="figure_1">
  <g id="patch_1">
   <path d="M 0 432 
L 576 432 
L 576 0 
L 0 0 
z
" style="fill: #ffffff"/>
  </g>
  <g id="axes_1">
   <g id="patch_2">
    <path d="M 72 384.48 
L 518.4 384.48 
L 518.4 51.84 
L 72 51.84 
z
" style="fill: #ffffff"/>
   </g>
   <g id="matplotlib.axis_1">
    <g id="xtick_1">
     <g id="line2d_1">
      <defs>
       <path id="m22100275af" d="M 0 0 
L 0 3.5 
" style="stroke: #000000; stroke-width: 0.8"/>
      </defs>
      <g>
       <use xlink:href="#m22100275af" x="92.290909" y="384.48" style="stroke: #000000; stroke-width: 0.8"/>
      </g>
     </g>
     <g id="text_1">
      <!-- 0 -->
      <g transform="translate(89.109659 399.078438)scale(0.1 -0.1)">
       <defs>
        <path id="DejaVuSans-30" d="M 2034 4250 
Q 1547 4250 1301 3770 
Q 1056 3291 1056 2328 
Q 1056 1369 1301 889 
Q 1547 409 2034 409 
Q 2525 409 2770 889 
Q 3016 1369 3016 2328 
Q 3016 3291 2770 3770 
Q 2525 4250 2034 4250 
z
M 2034 4750 
Q 2819 4750 3233 4129 
Q 3647 3509 3647 2328 
Q 3647 1150 3233 529 
Q 2819 -91 2034 -91 
Q 1250 -91 836 529 
Q 422 1150 422 2328 
Q 422 3509 836 4129 
Q 1250 4750 2034 4750 
z
" transform="scale(0.015625)"/>
       </defs>
       <use xlink:href="#DejaVuSans-30"/>
      </g>
     </g>
    </g>
    <g id="xtick_2">
     <g id="line2d_2">
      <g>
       <use xlink:href="#m22100275af" x="159.949826" y="384.48" style="stroke: #000000; stroke-width: 0.8"/>
      </g>
     </g>
     <g id="text_2">
      <!-- 500 -->
      <g transform="translate(150.406076 399.078438)scale(0.1 -0.1)">
       <defs>
        <path id="DejaVuSans-35" d="M 691 4666 
L 3169 4666 
L 3169 4134 
L 1269 4134 
L 1269 2991 
Q 1406 3038 1543 3061 
Q 1681 3084 1819 3084 
Q 2600 3084 3056 2656 
Q 3513 2228 3513 1497 
Q 3513 744 3044 326 
Q 2575 -91 1722 -91 
Q 1428 -91 1123 -41 
Q 819 9 494 109 
L 494 744 
Q 775 591 1075 516 
Q 1375 441 1709 441 
Q 2250 441 2565 725 
Q 2881 1009 2881 1497 
Q 2881 1984 2565 2268 
Q 2250 2553 1709 2553 
Q 1456 2553 1204 2497 
Q 953 2441 691 2322 
L 691 4666 
z
" transform="scale(0.015625)"/>
       </defs>
       <use xlink:href="#DejaVuSans-35"/>
       <use xlink:href="#DejaVuSans-30" x="63.623047"/>
       <use xlink:href="#DejaVuSans-30" x="127.246094"/>
      </g>
     </g>
    </g>
    <g id="xtick_3">
     <g id="line2d_3">
      <g>
       <use xlink:href="#m22100275af" x="227.608742" y="384.48" style="stroke: #000000; stroke-width: 0.8"/>
      </g>
     </g>
     <g id="text_3">
      <!-- 1000 -->
      <g transform="translate(214.883742 399.078438)scale(0.1 -0.1)">
       <defs>
        <path id="DejaVuSans-31" d="M 794 531 
L 1825 531 
L 1825 4091 
L 703 3866 
L 703 4441 
L 1819 4666 
L 2450 4666 
L 2450 531 
L 3481 531 
L 3481 0 
L 794 0 
L 794 531 
z
" transform="scale(0.015625)"/>
       </defs>
       <use xlink:href="#DejaVuSans-31"/>
       <use xlink:href="#DejaVuSans-30" x="63.623047"/>
       <use xlink:href="#DejaVuSans-30" x="127.246094"/>
       <use xlink:href="#DejaVuSans-30" x="190.869141"/>
      </g>
     </g>
    </g>
    <g id="xtick_4">
     <g id="line2d_4">
      <g>
       <use xlink:href="#m22100275af" x="295.267659" y="384.48" style="stroke: #000000; stroke-width: 0.8"/>
      </g>
     </g>
     <g id="text_4">
      <!-- 1500 -->
      <g transform="translate(282.542659 399.078438)scale(0.1 -0.1)">
       <use xlink:href="#DejaVuSans-31"/>
       <use xlink:href="#DejaVuSans-35" x="63.623047"/>
       <use xlink:href="#DejaVuSans-30" x="127.246094"/>
       <use xlink:href="#DejaVuSans-30" x="190.869141"/>
      </g>
     </g>
    </g>
    <g id="xtick_5">
     <g id="line2d_5">
      <g>
       <use xlink:href="#m22100275af" x="362.926576" y="384.48" style="stroke: #000000; stroke-width: 0.8"/>
      </g>
     </g>
     <g id="text_5">
      <!-- 2000 -->
      <g transform="translate(350.201576 399.078438)scale(0.1 -0.1)">
       <defs>
        <path id="DejaVuSans-32" d="M 1228 531 
L 3431 531 
L 3431 0 
L 469 0 
L 469 531 
Q 828 903 1448 1529 
Q 2069 2156 2228 2338 
Q 2531 2678 2651 2914 
Q 2772 3150 2772 3378 
Q 2772 3750 2511 3984 
Q 2250 4219 1831 4219 
Q 1534 4219 1204 4116 
Q 875 4013 500 3803 
L 500 4441 
Q 881 4594 1212 4672 
Q 1544 4750 1819 4750 
Q 2544 4750 2975 4387 
Q 3406 4025 3406 3419 
Q 3406 3131 3298 2873 
Q 3191 2616 2906 2266 
Q 2828 2175 2409 1742 
Q 1991 1309 1228 531 
z
" transform="scale(0.015625)"/>
       </defs>
       <use xlink:href="#DejaVuSans-32"/>
       <use xlink:href="#DejaVuSans-30" x="63.623047"/>
       <use xlink:href="#DejaVuSans-30" x="127.246094"/>
       <use xlink:href="#DejaVuSans-30" x="190.869141"/>
      </g>
     </g>
    </g>
    <g id="xtick_6">
     <g id="line2d_6">
      <g>
       <use xlink:href="#m22100275af" x="430.585492" y="384.48" style="stroke: #000000; stroke-width: 0.8"/>
      </g>
     </g>
     <g id="text_6">
      <!-- 2500 -->
      <g transform="translate(417.860492 399.078438)scale(0.1 -0.1)">
       <use xlink:href="#DejaVuSans-32"/>
       <use xlink:href="#DejaVuSans-35" x="63.623047"/>
       <use xlink:href="#DejaVuSans-30" x="127.246094"/>
       <use xlink:href="#DejaVuSans-30" x="190.869141"/>
      </g>
     </g>
    </g>
    <g id="xtick_7">
     <g id="line2d_7">
      <g>
       <use xlink:href="#m22100275af" x="498.244409" y="384.48" style="stroke: #000000; stroke-width: 0.8"/>
      </g>
     </g>
     <g id="text_7">
      <!-- 3000 -->
      <g transform="translate(485.519409 399.078438)scale(0.1 -0.1)">
       <defs>
        <path id="DejaVuSans-33" d="M 2597 2516 
Q 3050 2419 3304 2112 
Q 3559 1806 3559 1356 
Q 3559 666 3084 287 
Q 2609 -91 1734 -91 
Q 1441 -91 1130 -33 
Q 819 25 488 141 
L 488 750 
Q 750 597 1062 519 
Q 1375 441 1716 441 
Q 2309 441 2620 675 
Q 2931 909 2931 1356 
Q 2931 1769 2642 2001 
Q 2353 2234 1838 2234 
L 1294 2234 
L 1294 2753 
L 1863 2753 
Q 2328 2753 2575 2939 
Q 2822 3125 2822 3475 
Q 2822 3834 2567 4026 
Q 2313 4219 1838 4219 
Q 1578 4219 1281 4162 
Q 984 4106 628 3988 
L 628 4550 
Q 988 4650 1302 4700 
Q 1616 4750 1894 4750 
Q 2613 4750 3031 4423 
Q 3450 4097 3450 3541 
Q 3450 3153 3228 2886 
Q 3006 2619 2597 2516 
z
" transform="scale(0.015625)"/>
       </defs>
       <use xlink:href="#DejaVuSans-33"/>
       <use xlink:href="#DejaVuSans-30" x="63.623047"/>
       <use xlink:href="#DejaVuSans-30" x="127.246094"/>
       <use xlink:href="#DejaVuSans-30" x="190.869141"/>
      </g>
     </g>
    </g>
    <g id="text_8">
     <!-- Epochs -->
     <g transform="translate(277.284375 412.756563)scale(0.1 -0.1)">
      <defs>
       <path id="DejaVuSans-45" d="M 628 4666 
L 3578 4666 
L 3578 4134 
L 1259 4134 
L 1259 2753 
L 3481 2753 
L 3481 2222 
L 1259 2222 
L 1259 531 
L 3634 531 
L 3634 0 
L 628 0 
L 628 4666 
z
" transform="scale(0.015625)"/>
       <path id="DejaVuSans-70" d="M 1159 525 
L 1159 -1331 
L 581 -1331 
L 581 3500 
L 1159 3500 
L 1159 2969 
Q 1341 3281 1617 3432 
Q 1894 3584 2278 3584 
Q 2916 3584 3314 3078 
Q 3713 2572 3713 1747 
Q 3713 922 3314 415 
Q 2916 -91 2278 -91 
Q 1894 -91 1617 61 
Q 1341 213 1159 525 
z
M 3116 1747 
Q 3116 2381 2855 2742 
Q 2594 3103 2138 3103 
Q 1681 3103 1420 2742 
Q 1159 2381 1159 1747 
Q 1159 1113 1420 752 
Q 1681 391 2138 391 
Q 2594 391 2855 752 
Q 3116 1113 3116 1747 
z
" transform="scale(0.015625)"/>
       <path id="DejaVuSans-6f" d="M 1959 3097 
Q 1497 3097 1228 2736 
Q 959 2375 959 1747 
Q 959 1119 1226 758 
Q 1494 397 1959 397 
Q 2419 397 2687 759 
Q 2956 1122 2956 1747 
Q 2956 2369 2687 2733 
Q 2419 3097 1959 3097 
z
M 1959 3584 
Q 2709 3584 3137 3096 
Q 3566 2609 3566 1747 
Q 3566 888 3137 398 
Q 2709 -91 1959 -91 
Q 1206 -91 779 398 
Q 353 888 353 1747 
Q 353 2609 779 3096 
Q 1206 3584 1959 3584 
z
" transform="scale(0.015625)"/>
       <path id="DejaVuSans-63" d="M 3122 3366 
L 3122 2828 
Q 2878 2963 2633 3030 
Q 2388 3097 2138 3097 
Q 1578 3097 1268 2742 
Q 959 2388 959 1747 
Q 959 1106 1268 751 
Q 1578 397 2138 397 
Q 2388 397 2633 464 
Q 2878 531 3122 666 
L 3122 134 
Q 2881 22 2623 -34 
Q 2366 -91 2075 -91 
Q 1284 -91 818 406 
Q 353 903 353 1747 
Q 353 2603 823 3093 
Q 1294 3584 2113 3584 
Q 2378 3584 2631 3529 
Q 2884 3475 3122 3366 
z
" transform="scale(0.015625)"/>
       <path id="DejaVuSans-68" d="M 3513 2113 
L 3513 0 
L 2938 0 
L 2938 2094 
Q 2938 2591 2744 2837 
Q 2550 3084 2163 3084 
Q 1697 3084 1428 2787 
Q 1159 2491 1159 1978 
L 1159 0 
L 581 0 
L 581 4863 
L 1159 4863 
L 1159 2956 
Q 1366 3272 1645 3428 
Q 1925 3584 2291 3584 
Q 2894 3584 3203 3211 
Q 3513 2838 3513 2113 
z
" transform="scale(0.015625)"/>
       <path id="DejaVuSans-73" d="M 2834 3397 
L 2834 2853 
Q 2591 2978 2328 3040 
Q 2066 3103 1784 3103 
Q 1356 3103 1142 2972 
Q 928 2841 928 2578 
Q 928 2378 1081 2264 
Q 1234 2150 1697 2047 
L 1894 2003 
Q 2506 1872 2764 1633 
Q 3022 1394 3022 966 
Q 3022 478 2636 193 
Q 2250 -91 1575 -91 
Q 1294 -91 989 -36 
Q 684 19 347 128 
L 347 722 
Q 666 556 975 473 
Q 1284 391 1588 391 
Q 1994 391 2212 530 
Q 2431 669 2431 922 
Q 2431 1156 2273 1281 
Q 2116 1406 1581 1522 
L 1381 1569 
Q 847 1681 609 1914 
Q 372 2147 372 2553 
Q 372 3047 722 3315 
Q 1072 3584 1716 3584 
Q 2034 3584 2315 3537 
Q 2597 3491 2834 3397 
z
" transform="scale(0.015625)"/>
      </defs>
      <use xlink:href="#DejaVuSans-45"/>
      <use xlink:href="#DejaVuSans-70" x="63.183594"/>
      <use xlink:href="#DejaVuSans-6f" x="126.660156"/>
      <use xlink:href="#DejaVuSans-63" x="187.841797"/>
      <use xlink:href="#DejaVuSans-68" x="242.822266"/>
      <use xlink:href="#DejaVuSans-73" x="306.201172"/>
     </g>
    </g>
   </g>
   <g id="matplotlib.axis_2">
    <g id="ytick_1">
     <g id="line2d_8">
      <defs>
       <path id="mba67fb162b" d="M 0 0 
L -3.5 0 
" style="stroke: #000000; stroke-width: 0.8"/>
      </defs>
      <g>
       <use xlink:href="#mba67fb162b" x="72" y="384.48" style="stroke: #000000; stroke-width: 0.8"/>
      </g>
     </g>
     <g id="text_9">
      <!-- 0.0 -->
      <g transform="translate(49.096875 388.279219)scale(0.1 -0.1)">
       <defs>
        <path id="DejaVuSans-2e" d="M 684 794 
L 1344 794 
L 1344 0 
L 684 0 
L 684 794 
z
" transform="scale(0.015625)"/>
       </defs>
       <use xlink:href="#DejaVuSans-30"/>
       <use xlink:href="#DejaVuSans-2e" x="63.623047"/>
       <use xlink:href="#DejaVuSans-30" x="95.410156"/>
      </g>
     </g>
    </g>
    <g id="ytick_2">
     <g id="line2d_9">
      <g>
       <use xlink:href="#mba67fb162b" x="72" y="317.952" style="stroke: #000000; stroke-width: 0.8"/>
      </g>
     </g>
     <g id="text_10">
      <!-- 0.2 -->
      <g transform="translate(49.096875 321.751219)scale(0.1 -0.1)">
       <use xlink:href="#DejaVuSans-30"/>
       <use xlink:href="#DejaVuSans-2e" x="63.623047"/>
       <use xlink:href="#DejaVuSans-32" x="95.410156"/>
      </g>
     </g>
    </g>
    <g id="ytick_3">
     <g id="line2d_10">
      <g>
       <use xlink:href="#mba67fb162b" x="72" y="251.424" style="stroke: #000000; stroke-width: 0.8"/>
      </g>
     </g>
     <g id="text_11">
      <!-- 0.4 -->
      <g transform="translate(49.096875 255.223219)scale(0.1 -0.1)">
       <defs>
        <path id="DejaVuSans-34" d="M 2419 4116 
L 825 1625 
L 2419 1625 
L 2419 4116 
z
M 2253 4666 
L 3047 4666 
L 3047 1625 
L 3713 1625 
L 3713 1100 
L 3047 1100 
L 3047 0 
L 2419 0 
L 2419 1100 
L 313 1100 
L 313 1709 
L 2253 4666 
z
" transform="scale(0.015625)"/>
       </defs>
       <use xlink:href="#DejaVuSans-30"/>
       <use xlink:href="#DejaVuSans-2e" x="63.623047"/>
       <use xlink:href="#DejaVuSans-34" x="95.410156"/>
      </g>
     </g>
    </g>
    <g id="ytick_4">
     <g id="line2d_11">
      <g>
       <use xlink:href="#mba67fb162b" x="72" y="184.896" style="stroke: #000000; stroke-width: 0.8"/>
      </g>
     </g>
     <g id="text_12">
      <!-- 0.6 -->
      <g transform="translate(49.096875 188.695219)scale(0.1 -0.1)">
       <defs>
        <path id="DejaVuSans-36" d="M 2113 2584 
Q 1688 2584 1439 2293 
Q 1191 2003 1191 1497 
Q 1191 994 1439 701 
Q 1688 409 2113 409 
Q 2538 409 2786 701 
Q 3034 994 3034 1497 
Q 3034 2003 2786 2293 
Q 2538 2584 2113 2584 
z
M 3366 4563 
L 3366 3988 
Q 3128 4100 2886 4159 
Q 2644 4219 2406 4219 
Q 1781 4219 1451 3797 
Q 1122 3375 1075 2522 
Q 1259 2794 1537 2939 
Q 1816 3084 2150 3084 
Q 2853 3084 3261 2657 
Q 3669 2231 3669 1497 
Q 3669 778 3244 343 
Q 2819 -91 2113 -91 
Q 1303 -91 875 529 
Q 447 1150 447 2328 
Q 447 3434 972 4092 
Q 1497 4750 2381 4750 
Q 2619 4750 2861 4703 
Q 3103 4656 3366 4563 
z
" transform="scale(0.015625)"/>
       </defs>
       <use xlink:href="#DejaVuSans-30"/>
       <use xlink:href="#DejaVuSans-2e" x="63.623047"/>
       <use xlink:href="#DejaVuSans-36" x="95.410156"/>
      </g>
     </g>
    </g>
    <g id="ytick_5">
     <g id="line2d_12">
      <g>
       <use xlink:href="#mba67fb162b" x="72" y="118.368" style="stroke: #000000; stroke-width: 0.8"/>
      </g>
     </g>
     <g id="text_13">
      <!-- 0.8 -->
      <g transform="translate(49.096875 122.167219)scale(0.1 -0.1)">
       <defs>
        <path id="DejaVuSans-38" d="M 2034 2216 
Q 1584 2216 1326 1975 
Q 1069 1734 1069 1313 
Q 1069 891 1326 650 
Q 1584 409 2034 409 
Q 2484 409 2743 651 
Q 3003 894 3003 1313 
Q 3003 1734 2745 1975 
Q 2488 2216 2034 2216 
z
M 1403 2484 
Q 997 2584 770 2862 
Q 544 3141 544 3541 
Q 544 4100 942 4425 
Q 1341 4750 2034 4750 
Q 2731 4750 3128 4425 
Q 3525 4100 3525 3541 
Q 3525 3141 3298 2862 
Q 3072 2584 2669 2484 
Q 3125 2378 3379 2068 
Q 3634 1759 3634 1313 
Q 3634 634 3220 271 
Q 2806 -91 2034 -91 
Q 1263 -91 848 271 
Q 434 634 434 1313 
Q 434 1759 690 2068 
Q 947 2378 1403 2484 
z
M 1172 3481 
Q 1172 3119 1398 2916 
Q 1625 2713 2034 2713 
Q 2441 2713 2670 2916 
Q 2900 3119 2900 3481 
Q 2900 3844 2670 4047 
Q 2441 4250 2034 4250 
Q 1625 4250 1398 4047 
Q 1172 3844 1172 3481 
z
" transform="scale(0.015625)"/>
       </defs>
       <use xlink:href="#DejaVuSans-30"/>
       <use xlink:href="#DejaVuSans-2e" x="63.623047"/>
       <use xlink:href="#DejaVuSans-38" x="95.410156"/>
      </g>
     </g>
    </g>
    <g id="ytick_6">
     <g id="line2d_13">
      <g>
       <use xlink:href="#mba67fb162b" x="72" y="51.84" style="stroke: #000000; stroke-width: 0.8"/>
      </g>
     </g>
     <g id="text_14">
      <!-- 1.0 -->
      <g transform="translate(49.096875 55.639219)scale(0.1 -0.1)">
       <use xlink:href="#DejaVuSans-31"/>
       <use xlink:href="#DejaVuSans-2e" x="63.623047"/>
       <use xlink:href="#DejaVuSans-30" x="95.410156"/>
      </g>
     </g>
    </g>
    <g id="text_15">
     <!-- AUCROC -->
     <g transform="translate(43.017187 239.632656)rotate(-90)scale(0.1 -0.1)">
      <defs>
       <path id="DejaVuSans-41" d="M 2188 4044 
L 1331 1722 
L 3047 1722 
L 2188 4044 
z
M 1831 4666 
L 2547 4666 
L 4325 0 
L 3669 0 
L 3244 1197 
L 1141 1197 
L 716 0 
L 50 0 
L 1831 4666 
z
" transform="scale(0.015625)"/>
       <path id="DejaVuSans-55" d="M 556 4666 
L 1191 4666 
L 1191 1831 
Q 1191 1081 1462 751 
Q 1734 422 2344 422 
Q 2950 422 3222 751 
Q 3494 1081 3494 1831 
L 3494 4666 
L 4128 4666 
L 4128 1753 
Q 4128 841 3676 375 
Q 3225 -91 2344 -91 
Q 1459 -91 1007 375 
Q 556 841 556 1753 
L 556 4666 
z
" transform="scale(0.015625)"/>
       <path id="DejaVuSans-43" d="M 4122 4306 
L 4122 3641 
Q 3803 3938 3442 4084 
Q 3081 4231 2675 4231 
Q 1875 4231 1450 3742 
Q 1025 3253 1025 2328 
Q 1025 1406 1450 917 
Q 1875 428 2675 428 
Q 3081 428 3442 575 
Q 3803 722 4122 1019 
L 4122 359 
Q 3791 134 3420 21 
Q 3050 -91 2638 -91 
Q 1578 -91 968 557 
Q 359 1206 359 2328 
Q 359 3453 968 4101 
Q 1578 4750 2638 4750 
Q 3056 4750 3426 4639 
Q 3797 4528 4122 4306 
z
" transform="scale(0.015625)"/>
       <path id="DejaVuSans-52" d="M 2841 2188 
Q 3044 2119 3236 1894 
Q 3428 1669 3622 1275 
L 4263 0 
L 3584 0 
L 2988 1197 
Q 2756 1666 2539 1819 
Q 2322 1972 1947 1972 
L 1259 1972 
L 1259 0 
L 628 0 
L 628 4666 
L 2053 4666 
Q 2853 4666 3247 4331 
Q 3641 3997 3641 3322 
Q 3641 2881 3436 2590 
Q 3231 2300 2841 2188 
z
M 1259 4147 
L 1259 2491 
L 2053 2491 
Q 2509 2491 2742 2702 
Q 2975 2913 2975 3322 
Q 2975 3731 2742 3939 
Q 2509 4147 2053 4147 
L 1259 4147 
z
" transform="scale(0.015625)"/>
       <path id="DejaVuSans-4f" d="M 2522 4238 
Q 1834 4238 1429 3725 
Q 1025 3213 1025 2328 
Q 1025 1447 1429 934 
Q 1834 422 2522 422 
Q 3209 422 3611 934 
Q 4013 1447 4013 2328 
Q 4013 3213 3611 3725 
Q 3209 4238 2522 4238 
z
M 2522 4750 
Q 3503 4750 4090 4092 
Q 4678 3434 4678 2328 
Q 4678 1225 4090 567 
Q 3503 -91 2522 -91 
Q 1538 -91 948 565 
Q 359 1222 359 2328 
Q 359 3434 948 4092 
Q 1538 4750 2522 4750 
z
" transform="scale(0.015625)"/>
      </defs>
      <use xlink:href="#DejaVuSans-41"/>
      <use xlink:href="#DejaVuSans-55" x="68.408203"/>
      <use xlink:href="#DejaVuSans-43" x="141.601562"/>
      <use xlink:href="#DejaVuSans-52" x="211.425781"/>
      <use xlink:href="#DejaVuSans-4f" x="280.908203"/>
      <use xlink:href="#DejaVuSans-43" x="359.619141"/>
     </g>
    </g>
   </g>
   <g id="line2d_14">
    <path d="M 92.290909 185.174827 
L 92.83218 185.359273 
L 93.914723 186.124423 
L 95.809173 187.666484 
L 97.297669 189.297329 
L 98.515529 190.796315 
L 99.056801 191.861494 
L 99.598072 193.457435 
L 101.086568 198.964621 
L 102.033793 202.233311 
L 102.439747 203.112075 
L 102.8457 203.46152 
L 103.251654 203.402447 
L 104.063561 202.857204 
L 105.010785 202.019225 
L 105.416739 201.278208 
L 105.822692 199.822286 
L 106.228646 197.440054 
L 107.040553 190.917354 
L 109.340956 171.909398 
L 110.288181 166.385564 
L 112.317948 156.064785 
L 112.85922 154.324822 
L 113.400491 153.333978 
L 114.483034 152.040647 
L 115.565576 150.680612 
L 116.106848 149.652268 
L 116.918755 147.470744 
L 119.08384 140.695742 
L 119.895747 137.151006 
L 123.008057 121.912853 
L 123.819964 119.763116 
L 125.714414 115.610102 
L 126.255685 114.878979 
L 126.661639 114.630558 
L 127.338228 114.534801 
L 128.962042 114.395564 
L 129.367995 114.064335 
L 129.773949 113.390237 
L 130.450538 111.638344 
L 133.021577 104.432188 
L 133.698166 103.402869 
L 136.810476 99.399537 
L 141.275965 91.603418 
L 142.899779 89.321422 
L 143.576368 88.787808 
L 144.658911 88.328331 
L 146.012089 87.895845 
L 146.55336 87.939687 
L 147.229949 88.294428 
L 149.936306 90.105161 
L 150.748213 90.215118 
L 152.507345 90.150489 
L 152.913298 89.940835 
L 153.319252 89.455989 
L 153.860523 88.359351 
L 155.484337 84.143375 
L 156.296244 82.263005 
L 156.837516 81.546549 
L 157.243469 81.336895 
L 158.055376 81.267059 
L 159.408554 81.332987 
L 159.949826 81.590744 
L 160.491097 82.151793 
L 161.708958 83.926312 
L 162.7915 85.379941 
L 163.197454 85.538605 
L 163.468089 85.385079 
L 163.874043 84.765836 
L 164.68595 82.796887 
L 166.309764 78.741023 
L 166.715717 78.158713 
L 167.121671 77.973392 
L 167.527624 78.09446 
L 168.474849 78.758412 
L 170.369299 80.048712 
L 171.857795 80.651442 
L 173.075656 81.006254 
L 173.481609 80.940948 
L 174.02288 80.584601 
L 175.105423 79.423359 
L 176.593919 77.895146 
L 177.135191 77.690445 
L 177.676462 77.75815 
L 180.518136 78.524525 
L 181.465361 78.244847 
L 183.630447 77.346468 
L 184.848307 76.50571 
L 186.742757 75.193926 
L 187.284028 75.091575 
L 187.960617 75.236781 
L 191.614199 76.608886 
L 193.238013 77.122279 
L 193.643966 77.027384 
L 194.04992 76.675336 
L 194.591191 75.857322 
L 197.16223 71.518116 
L 197.568183 71.343394 
L 198.109455 71.408257 
L 200.003904 72.105452 
L 203.522168 73.329947 
L 203.928121 73.264641 
L 204.469393 72.908293 
L 205.551935 71.747026 
L 207.040432 70.178738 
L 207.581703 69.871686 
L 208.258292 69.761015 
L 210.017424 69.791984 
L 210.558695 69.98414 
L 211.099967 70.471555 
L 212.047191 71.79993 
L 213.671005 74.09572 
L 214.076959 74.381576 
L 214.482912 74.402772 
L 215.024184 74.133207 
L 218.271812 72.008953 
L 220.166261 71.347546 
L 220.572215 71.373723 
L 220.978168 71.635779 
L 221.51944 72.371053 
L 223.007936 75.11902 
L 223.819843 76.474447 
L 224.225796 76.859121 
L 224.63175 76.935025 
L 225.173021 76.688767 
L 227.879378 74.949124 
L 228.826603 74.870575 
L 230.585735 74.762857 
L 231.127006 74.431466 
L 231.803595 73.617308 
L 233.96868 70.683686 
L 234.239316 70.654353 
L 234.509952 70.859054 
L 234.915905 71.59042 
L 235.727812 73.850013 
L 237.351626 78.387023 
L 237.75758 78.849319 
L 238.028215 78.810951 
L 238.298851 78.523259 
L 238.840122 77.506628 
L 241.140526 72.716276 
L 241.681797 72.189378 
L 242.493704 71.800327 
L 244.523471 71.111994 
L 245.606014 71.032442 
L 251.154045 70.914391 
L 251.830634 70.587796 
L 253.589766 69.297496 
L 254.401673 68.837103 
L 254.807627 68.807106 
L 255.348898 69.024353 
L 256.566759 69.905449 
L 257.784619 70.946369 
L 258.461208 71.877949 
L 259.814387 74.35649 
L 260.896929 76.219547 
L 261.302883 76.531738 
L 261.573518 76.480562 
L 261.979472 76.014846 
L 262.656061 74.655138 
L 264.956464 69.772425 
L 265.768371 68.686332 
L 267.527503 66.782361 
L 267.933457 66.621287 
L 268.204092 66.725476 
L 268.610046 67.253078 
L 269.286635 68.795778 
L 271.316402 73.831664 
L 271.722356 74.352237 
L 272.128309 74.52994 
L 272.669581 74.44614 
L 275.511255 73.606324 
L 279.029519 73.323512 
L 281.46524 72.372404 
L 282.412465 71.78825 
L 284.983504 70.028302 
L 285.524775 69.98446 
L 286.336682 70.21444 
L 288.231132 70.808117 
L 288.772403 70.705766 
L 289.448992 70.304684 
L 291.47876 68.964667 
L 291.884713 69.040571 
L 292.290667 69.425246 
L 292.967256 70.530723 
L 295.132341 74.322102 
L 295.673612 74.736341 
L 296.214884 74.852873 
L 297.838698 74.851369 
L 298.515287 74.694356 
L 299.056558 74.328795 
L 300.003783 73.332515 
L 301.627597 71.62393 
L 302.033551 71.436892 
L 302.439504 71.470404 
L 303.116093 71.857938 
L 305.145861 73.224435 
L 305.551814 73.254432 
L 306.093086 73.037185 
L 307.446264 72.056581 
L 308.258171 71.540884 
L 308.664124 71.482253 
L 309.070078 71.680775 
L 309.611349 72.294087 
L 312.04707 75.594473 
L 312.453024 75.703004 
L 312.858977 75.575654 
L 313.806202 74.919686 
L 318.677644 71.355772 
L 319.218915 71.253421 
L 319.895505 71.398627 
L 321.925272 72.209661 
L 322.601861 72.697407 
L 323.684404 73.846175 
L 325.308218 75.528631 
L 325.714171 75.660961 
L 326.120125 75.528631 
L 326.661396 75.054364 
L 328.961799 72.696436 
L 329.503071 72.569746 
L 330.17966 72.726247 
L 332.07411 73.30343 
L 332.480063 73.183416 
L 332.886017 72.842852 
L 333.697924 71.743096 
L 335.592373 69.041805 
L 336.133645 68.632402 
L 336.674916 68.495406 
L 338.29873 68.472 
L 342.764218 68.581364 
L 343.982079 68.984146 
L 345.605893 69.703924 
L 346.147164 70.240017 
L 346.823753 71.310052 
L 348.988839 75.115513 
L 349.394792 75.336063 
L 349.665428 75.235549 
L 350.071381 74.767424 
L 351.018606 73.07725 
L 352.507102 70.503741 
L 352.913056 70.151693 
L 353.319009 70.056798 
L 353.995599 70.216918 
L 356.43132 70.990669 
L 357.919816 71.030881 
L 359.272994 71.11097 
L 359.949583 71.390854 
L 361.167444 72.259065 
L 362.791258 73.37081 
L 363.467847 73.555968 
L 364.821025 73.589185 
L 366.038886 73.509338 
L 366.715475 73.229453 
L 367.933335 72.361344 
L 369.151196 71.540884 
L 369.557149 71.482253 
L 369.963103 71.680775 
L 370.504374 72.294087 
L 373.075413 75.742185 
L 373.481367 75.862199 
L 374.022638 75.77403 
L 375.78177 75.1045 
L 376.593677 74.599019 
L 377.540902 73.637369 
L 379.841305 71.193218 
L 380.653212 70.73542 
L 382.547661 70.058011 
L 383.088933 70.093504 
L 383.494886 70.36129 
L 384.171475 71.200346 
L 386.471879 74.431466 
L 387.01315 74.762857 
L 387.689739 74.862233 
L 389.448871 74.818567 
L 389.990142 74.62525 
L 390.531414 74.204463 
L 391.884592 72.720039 
L 393.23777 71.358862 
L 393.779041 71.110318 
L 394.590948 71.033247 
L 399.597708 71.081125 
L 400.13898 71.274443 
L 400.680251 71.69523 
L 402.033429 73.179147 
L 403.115972 74.249246 
L 403.521925 74.381576 
L 403.927879 74.249246 
L 404.46915 73.77498 
L 406.769553 71.417051 
L 407.310825 71.290361 
L 407.987414 71.446862 
L 414.347352 73.579389 
L 416.512437 73.555968 
L 417.189027 73.37081 
L 418.000934 72.866663 
L 420.301337 71.307687 
L 420.842608 71.263845 
L 421.654515 71.493825 
L 423.548965 72.087502 
L 424.090236 71.985151 
L 424.766825 71.584068 
L 427.202546 69.913834 
L 427.879135 69.771684 
L 429.908903 69.751385 
L 437.080748 69.831585 
L 437.757337 70.11147 
L 438.975198 70.979782 
L 440.599012 72.324181 
L 441.410919 73.353961 
L 443.981958 76.932046 
L 444.387911 77.124839 
L 444.929182 77.091383 
L 446.282361 76.608886 
L 451.018485 74.708383 
L 452.371663 73.742896 
L 457.107787 70.278284 
L 457.513741 70.261058 
L 457.919694 70.543842 
L 458.460966 71.327606 
L 460.896687 75.42692 
L 461.30264 75.520452 
L 461.708594 75.299478 
L 462.520501 74.458202 
L 464.144315 72.777608 
L 464.685586 72.572906 
L 465.226857 72.640612 
L 468.068532 73.406987 
L 469.015757 73.127308 
L 470.910206 72.532806 
L 471.451478 72.635157 
L 472.128067 73.036239 
L 474.293152 74.463719 
L 474.699106 74.424452 
L 475.240377 74.050543 
L 476.458238 72.72053 
L 477.54078 71.650446 
L 477.946734 71.518116 
L 478.352687 71.650446 
L 478.893959 72.124713 
L 481.194362 74.424452 
L 481.600315 74.463719 
L 482.141587 74.225561 
L 484.847943 72.535896 
L 485.389215 72.59648 
L 486.877711 73.12896 
L 491.072564 74.609331 
L 491.478517 74.544025 
L 492.019788 74.187678 
L 493.102331 73.026461 
L 494.455509 71.62393 
L 494.861463 71.436892 
L 495.267416 71.470404 
L 495.944006 71.857938 
L 497.838455 73.149252 
L 498.109091 73.208361 
L 498.109091 73.208361 
" clip-path="url(#p78cf0006fe)" style="fill: none; stroke: #ff0000; stroke-linecap: square"/>
   </g>
   <g id="line2d_15">
    <path d="M 92.290909 235.234904 
L 92.561545 235.057579 
L 92.967498 234.440115 
L 94.050041 232.077857 
L 94.997266 229.686741 
L 95.403219 228.046771 
L 95.809173 225.463282 
L 96.350444 220.475172 
L 99.327436 189.934491 
L 99.868708 187.372948 
L 101.221886 182.643457 
L 103.386971 174.91359 
L 105.552057 167.049542 
L 106.093328 165.821333 
L 106.634599 165.137938 
L 107.85246 164.172679 
L 108.664367 163.673361 
L 109.07032 163.656135 
L 109.476274 163.938918 
L 110.017545 164.722683 
L 112.182631 168.378008 
L 112.453266 168.414674 
L 112.723902 168.158797 
L 113.129855 167.244591 
L 113.941762 164.420074 
L 116.242166 156.153384 
L 117.730662 152.093135 
L 119.08384 148.791005 
L 119.625111 148.074549 
L 120.031065 147.864895 
L 120.842972 147.795011 
L 122.602104 147.677468 
L 123.278693 147.350873 
L 124.902507 146.15706 
L 126.391003 145.172827 
L 128.014817 144.516605 
L 128.826724 144.08977 
L 129.232678 143.576838 
L 129.638631 142.592146 
L 130.179902 140.507494 
L 131.939034 132.022383 
L 132.750941 128.745428 
L 133.156895 127.844998 
L 133.562848 127.455641 
L 134.10412 127.334427 
L 135.863251 127.19111 
L 136.269205 126.91757 
L 136.810476 126.216258 
L 137.893019 124.252902 
L 139.516833 121.357213 
L 140.193422 120.567722 
L 141.5466 119.494388 
L 142.764461 118.693003 
L 143.305732 118.590652 
L 143.982321 118.735858 
L 147.635903 120.107963 
L 149.936306 120.86858 
L 151.154167 120.926386 
L 153.319252 121.036134 
L 154.537112 121.438884 
L 155.754973 121.817181 
L 156.160926 121.681398 
L 156.431562 121.340334 
L 156.837516 120.314188 
L 157.378787 118.132554 
L 159.67919 107.907225 
L 159.949826 107.604766 
L 160.085144 107.642981 
L 160.355779 108.079378 
L 160.761733 109.405067 
L 161.979593 114.778449 
L 162.926818 118.580644 
L 163.332772 119.383504 
L 163.603407 119.448406 
L 163.874043 119.174939 
L 164.415314 118.02917 
L 166.715717 112.458424 
L 167.256989 111.867087 
L 167.933578 111.515453 
L 169.828028 110.874244 
L 170.504617 110.898251 
L 171.587159 111.254935 
L 173.210973 111.748425 
L 173.752245 111.646074 
L 174.428834 111.244991 
L 176.864555 109.574757 
L 177.541144 109.432607 
L 179.706229 109.261241 
L 180.112183 108.888608 
L 180.518136 108.130247 
L 181.194726 106.159368 
L 183.224493 99.730361 
L 183.495129 99.347636 
L 183.765764 99.29646 
L 184.0364 99.576834 
L 184.442354 100.453739 
L 185.660214 104.035455 
L 186.742757 106.953213 
L 187.14871 107.558048 
L 187.554664 107.777154 
L 188.095935 107.708467 
L 189.584431 107.137185 
L 190.26102 106.671958 
L 190.802292 105.979842 
L 191.884834 104.038313 
L 193.238013 101.681546 
L 193.643966 101.410759 
L 193.914602 101.51311 
L 194.320555 102.090949 
L 194.997145 103.690574 
L 196.620959 107.727618 
L 197.026912 108.181247 
L 197.297548 108.130071 
L 197.568183 107.786352 
L 198.109455 106.498335 
L 200.27454 100.517343 
L 200.545176 100.233149 
L 200.815811 100.21029 
L 201.086447 100.418946 
L 201.627718 101.245989 
L 203.657486 104.741597 
L 204.063439 104.955117 
L 204.469393 104.825767 
L 205.145982 104.185812 
L 207.175749 102.064093 
L 207.717021 101.815549 
L 208.528928 101.738477 
L 210.152742 101.618503 
L 210.558695 101.328678 
L 210.964649 100.738842 
L 211.641238 99.205936 
L 213.671005 94.279253 
L 213.941641 94.069558 
L 214.212277 94.171908 
L 214.482912 94.586306 
L 215.024184 96.055718 
L 217.595223 104.099162 
L 218.271812 105.180818 
L 219.760308 106.881298 
L 220.301579 107.283825 
L 220.572215 107.264465 
L 220.842851 106.99578 
L 221.248804 106.072906 
L 221.925393 103.606074 
L 224.496432 93.503639 
L 225.714293 90.11995 
L 227.202789 86.470364 
L 227.608742 85.997469 
L 227.879378 85.954508 
L 228.285331 86.239157 
L 228.961921 87.155229 
L 230.450417 89.184524 
L 230.721052 89.29083 
L 230.991688 89.16562 
L 231.262324 88.779076 
L 231.668277 87.786697 
L 232.75082 84.234788 
L 233.833363 80.817954 
L 234.239316 80.098678 
L 234.509952 79.996327 
L 234.780587 80.206023 
L 235.186541 80.950066 
L 236.269084 83.721211 
L 237.486944 86.665611 
L 238.028215 87.382066 
L 238.434169 87.59172 
L 239.246076 87.66162 
L 240.734572 87.768835 
L 241.275843 88.100226 
L 241.952433 88.914384 
L 243.9822 91.743294 
L 244.252836 91.849599 
L 244.523471 91.724389 
L 244.794107 91.337845 
L 245.200061 90.345467 
L 246.282603 86.793214 
L 247.500464 82.939262 
L 247.906417 82.159315 
L 248.312371 81.864579 
L 248.718324 81.944317 
L 249.530231 82.494836 
L 251.424681 84.03633 
L 252.913177 85.666922 
L 254.401673 87.235416 
L 254.942945 87.542468 
L 255.619534 87.653139 
L 257.784619 87.622669 
L 258.731844 87.396742 
L 260.490976 86.699882 
L 260.896929 86.369878 
L 261.302883 85.678104 
L 261.708836 84.429168 
L 262.385425 81.326466 
L 264.415193 71.25776 
L 264.821146 70.421388 
L 264.956464 70.380287 
L 265.2271 70.643655 
L 265.633053 71.682957 
L 266.715596 75.633539 
L 267.662821 78.899911 
L 268.068774 79.648503 
L 268.33941 79.699679 
L 268.610046 79.380299 
L 269.015999 78.391198 
L 270.23386 74.36638 
L 271.045767 71.996544 
L 271.316402 71.634952 
L 271.45172 71.608496 
L 271.722356 71.915549 
L 271.992992 72.690671 
L 272.534263 75.201841 
L 274.699348 86.604884 
L 275.105302 87.522499 
L 275.375937 87.644195 
L 275.646573 87.459771 
L 276.187844 86.622746 
L 278.082294 83.377788 
L 278.488248 83.164268 
L 278.894201 83.293617 
L 279.57079 83.933572 
L 281.329922 85.737191 
L 281.735876 85.814813 
L 282.141829 85.583665 
L 282.6831 84.928003 
L 284.712868 82.171631 
L 284.983504 82.110625 
L 285.254139 82.264152 
L 285.660093 82.883394 
L 286.472 84.852335 
L 287.960496 88.553634 
L 288.366449 89.048666 
L 288.637085 89.048666 
L 288.907721 88.775626 
L 289.313674 87.990252 
L 290.666853 84.494024 
L 291.749395 81.915018 
L 292.290667 81.091376 
L 293.102574 80.348818 
L 294.455752 79.408953 
L 294.726388 79.368258 
L 294.997023 79.513285 
L 295.267659 79.925444 
L 295.673612 81.100663 
L 296.350202 84.054405 
L 298.244651 92.680327 
L 298.515287 93.219075 
L 298.785923 93.27025 
L 299.056558 92.833853 
L 299.462512 91.508163 
L 300.680372 86.131316 
L 301.762915 81.615675 
L 302.304186 80.182764 
L 302.845458 79.430871 
L 303.928 78.553293 
L 305.281179 77.413665 
L 306.093086 76.383885 
L 309.881985 71.083617 
L 311.641117 69.220386 
L 312.04707 69.091037 
L 312.317706 69.193388 
L 312.723659 69.62979 
L 313.535566 71.033843 
L 315.430016 74.380291 
L 315.971287 74.916384 
L 316.783194 75.326198 
L 318.812962 76.21351 
L 319.489551 76.795983 
L 322.872497 80.157593 
L 324.360993 80.754474 
L 325.849489 81.426386 
L 327.202668 82.391897 
L 328.826482 83.740215 
L 329.503071 84.671795 
L 330.856249 87.150199 
L 331.938792 88.979823 
L 332.209427 89.188479 
L 332.480063 89.16562 
L 332.750699 88.881427 
L 333.156652 88.042574 
L 334.103877 85.307859 
L 336.268962 79.118337 
L 338.163412 74.793333 
L 338.704683 73.806927 
L 338.975319 73.565865 
L 339.245955 73.609746 
L 339.51659 73.975269 
L 339.922544 75.031321 
L 340.869769 78.45197 
L 342.222947 83.224025 
L 342.628901 84.048082 
L 342.899536 84.275642 
L 343.170172 84.271687 
L 343.576125 83.987586 
L 344.793986 82.646756 
L 346.282482 80.816343 
L 349.124157 76.958715 
L 349.394792 76.960553 
L 349.665428 77.163417 
L 350.071381 77.785068 
L 351.153924 80.139554 
L 352.371785 82.638294 
L 352.777738 83.012371 
L 353.048374 83.014208 
L 353.454327 82.699609 
L 354.266234 81.571275 
L 355.619413 79.660165 
L 356.025366 79.37729 
L 356.296002 79.37729 
L 356.701955 79.660165 
L 357.378544 80.555997 
L 359.54363 83.580942 
L 360.220219 84.050043 
L 361.708715 84.642596 
L 363.061893 85.045811 
L 364.279754 85.10361 
L 365.903568 85.024451 
L 366.444839 84.775907 
L 367.121428 84.165289 
L 369.421832 81.532798 
L 370.639692 79.829725 
L 372.534142 77.118181 
L 372.940095 76.876709 
L 373.210731 76.927885 
L 373.616684 77.322882 
L 374.293274 78.458632 
L 376.187723 81.792874 
L 376.593677 82.144922 
L 376.99963 82.239818 
L 377.676219 82.079698 
L 379.435351 81.525438 
L 379.841305 81.590744 
L 380.382576 81.947092 
L 381.465119 83.108055 
L 382.547661 84.184121 
L 382.818297 84.245675 
L 383.088933 84.077641 
L 383.359568 83.617062 
L 383.765522 82.395803 
L 384.577429 78.95722 
L 386.065925 72.627434 
L 386.471879 71.820211 
L 386.607196 71.781997 
L 386.877832 72.084456 
L 387.283786 73.331532 
L 388.095693 77.07358 
L 389.719507 84.531519 
L 390.12546 85.626929 
L 390.531414 86.165177 
L 390.937367 86.341654 
L 391.884592 86.382944 
L 393.102452 86.303184 
L 393.779041 86.023299 
L 394.996902 85.155013 
L 396.891352 83.6129 
L 398.379848 81.98241 
L 399.597708 80.718063 
L 400.003662 80.54731 
L 400.409615 80.676568 
L 400.950887 81.255631 
L 403.25129 84.293593 
L 403.521925 84.291755 
L 403.792561 84.088891 
L 404.198515 83.467239 
L 405.281057 81.11241 
L 406.634236 78.242299 
L 407.175507 77.525844 
L 407.716778 77.149897 
L 409.205274 76.561056 
L 410.152499 76.315861 
L 410.829088 76.38658 
L 412.317585 76.917867 
L 413.264809 77.406748 
L 413.806081 78.025689 
L 414.48267 79.299263 
L 416.783073 84.048791 
L 417.053709 84.210531 
L 417.324344 84.151141 
L 417.730298 83.712966 
L 418.542205 82.287585 
L 419.895383 79.915222 
L 420.301337 79.603032 
L 420.571972 79.654207 
L 420.977926 80.119924 
L 421.654515 81.479631 
L 423.548965 85.448477 
L 423.954918 85.815523 
L 424.360872 85.8397 
L 424.902143 85.551198 
L 427.879135 83.578888 
L 429.908903 82.851857 
L 430.450174 82.887351 
L 430.856128 83.155136 
L 431.532717 83.994192 
L 433.83312 87.225312 
L 434.374391 87.556704 
L 435.050981 87.656079 
L 436.539477 87.615958 
L 436.94543 87.450638 
L 437.351384 87.012973 
L 437.757337 86.222429 
L 438.569244 83.971535 
L 440.193058 79.317083 
L 440.599012 78.709929 
L 440.869647 78.658753 
L 441.140283 78.900122 
L 441.546237 79.66483 
L 442.764097 82.796897 
L 443.711322 85.017021 
L 444.117275 85.489915 
L 444.387911 85.532877 
L 444.793865 85.248228 
L 445.470454 84.332133 
L 450.612531 76.758213 
L 451.018485 76.490428 
L 451.424438 76.436935 
L 452.101028 76.613015 
L 457.243105 78.367936 
L 457.649059 78.138506 
L 458.055012 77.600305 
L 458.731601 76.238951 
L 460.490733 72.527542 
L 460.761369 72.286481 
L 461.032005 72.330361 
L 461.30264 72.695884 
L 461.708594 73.751937 
L 462.655819 77.172636 
L 464.144315 82.360003 
L 464.550268 83.133362 
L 464.956222 83.435276 
L 465.362175 83.431077 
L 466.444718 83.055425 
L 467.391943 82.592691 
L 467.933214 82.056598 
L 468.609803 80.986564 
L 470.910206 77.020965 
L 471.180842 76.879328 
L 471.451478 76.918615 
L 471.857431 77.263164 
L 472.669338 78.401511 
L 474.293152 80.696041 
L 474.834424 81.105444 
L 475.375695 81.24244 
L 478.217369 81.550749 
L 479.164594 82.188655 
L 480.788408 83.314501 
L 481.194362 83.373131 
L 481.600315 83.17461 
L 482.141587 82.561298 
L 484.306672 79.639378 
L 484.577308 79.610045 
L 484.847943 79.814747 
L 485.253897 80.546112 
L 486.065804 82.805697 
L 487.5543 86.985622 
L 487.824936 87.361439 
L 488.095571 87.398889 
L 488.366207 87.054387 
L 488.77216 85.93466 
L 489.719385 82.185926 
L 491.207881 76.355685 
L 491.749153 75.025125 
L 492.290424 74.307481 
L 493.372967 73.437602 
L 494.320192 72.870624 
L 494.726145 72.936205 
L 495.132099 73.387513 
L 495.67337 74.512183 
L 497.838455 79.724845 
L 498.109091 79.931725 
L 498.109091 79.931725 
" clip-path="url(#p78cf0006fe)" style="fill: none; stroke: #0000ff; stroke-linecap: square"/>
   </g>
   <g id="line2d_16">
    <path d="M 92.290909 223.138125 
L 92.967498 223.00566 
L 94.591312 222.369089 
L 94.997266 222.020583 
L 95.267901 221.541802 
L 95.538537 220.710985 
L 95.944491 218.619425 
L 96.62108 213.326858 
L 99.462754 189.228678 
L 100.815933 181.313814 
L 103.251654 166.870562 
L 105.552057 152.854487 
L 105.95801 151.560555 
L 106.228646 151.16348 
L 106.499282 151.057217 
L 106.905235 151.2032 
L 108.258413 152.191719 
L 109.476274 152.973635 
L 110.96477 153.575541 
L 111.776677 153.790094 
L 112.047313 153.717504 
L 112.317948 153.446811 
L 112.588584 152.891177 
L 112.994538 151.463614 
L 113.671127 148.022963 
L 115.97153 135.73102 
L 116.648119 133.556088 
L 118.001297 130.39115 
L 118.948522 128.032718 
L 119.489794 126.141726 
L 120.301701 122.282824 
L 122.466786 111.406625 
L 122.872739 110.226952 
L 123.278693 109.647301 
L 123.684646 109.457248 
L 124.631871 109.412588 
L 126.255685 109.521672 
L 127.473546 109.924424 
L 128.691406 110.308571 
L 129.09736 110.193453 
L 129.367995 109.884061 
L 129.773949 108.942177 
L 130.31522 106.930996 
L 132.886259 96.313771 
L 133.292213 95.657274 
L 133.698166 95.409294 
L 134.374755 95.341078 
L 135.998569 95.218776 
L 136.539841 94.911723 
L 137.351748 94.10585 
L 142.899779 88.049051 
L 143.44105 87.922361 
L 144.117639 88.078862 
L 146.418042 88.779705 
L 147.094632 88.665977 
L 149.800988 87.906443 
L 150.34226 88.122528 
L 151.56012 88.992993 
L 152.642663 89.711424 
L 153.048616 89.770054 
L 153.45457 89.571533 
L 153.995841 88.958221 
L 155.619655 86.51765 
L 156.296244 85.2728 
L 156.837516 83.83989 
L 157.78474 80.493261 
L 159.408554 74.726444 
L 159.67919 74.215871 
L 159.949826 74.097093 
L 160.220461 74.420573 
L 160.626415 75.603975 
L 161.57364 79.680439 
L 162.926818 85.316644 
L 163.332772 86.119504 
L 163.603407 86.184406 
L 163.874043 85.910939 
L 164.415314 84.76517 
L 166.445082 79.824537 
L 166.851035 79.442492 
L 167.121671 79.43282 
L 167.527624 79.686748 
L 168.610167 80.855848 
L 169.828028 82.077777 
L 170.369299 82.282478 
L 170.91057 82.214773 
L 172.80502 81.531873 
L 173.887563 81.292363 
L 175.91733 81.256216 
L 176.593919 81.145545 
L 177.135191 80.838493 
L 177.947098 80.032619 
L 180.653454 77.147156 
L 182.683222 75.598219 
L 183.359811 75.234026 
L 183.765764 75.204029 
L 184.307036 75.421277 
L 185.660214 76.402651 
L 186.607439 77.014574 
L 187.14871 77.092586 
L 187.689982 76.875339 
L 189.04316 75.893194 
L 190.26102 75.087652 
L 190.93761 74.902494 
L 192.290788 74.869276 
L 193.508648 74.949124 
L 194.185238 75.229008 
L 195.403098 76.097042 
L 196.485641 76.824589 
L 196.891594 76.862087 
L 197.16223 76.696672 
L 197.568183 76.114362 
L 198.244772 74.546818 
L 200.139222 69.838364 
L 200.545176 69.365469 
L 200.815811 69.322508 
L 201.221765 69.607157 
L 201.898354 70.523235 
L 203.38685 72.60288 
L 203.792804 72.802948 
L 204.063439 72.700597 
L 204.469393 72.193477 
L 205.145982 70.81781 
L 206.905114 67.099552 
L 207.311067 66.725476 
L 207.581703 66.723638 
L 207.987656 67.038237 
L 208.799563 68.166619 
L 210.694013 70.86832 
L 211.50592 71.633171 
L 213.535688 73.112994 
L 214.076959 73.264641 
L 214.61823 73.112994 
L 215.565455 72.463013 
L 217.73054 70.968519 
L 219.219037 70.365652 
L 220.707533 69.918938 
L 221.384122 69.989657 
L 222.872618 70.518249 
L 224.090479 70.863216 
L 224.767068 70.792497 
L 226.255564 70.26352 
L 227.74406 69.809574 
L 228.961921 69.751759 
L 230.450417 69.650673 
L 230.85637 69.402251 
L 231.262324 68.896677 
L 231.938913 67.582758 
L 233.96868 63.314431 
L 234.239316 63.080396 
L 234.509952 63.080396 
L 234.780587 63.314431 
L 235.321859 64.262964 
L 237.486944 68.736276 
L 237.892898 68.964794 
L 238.163533 68.872116 
L 238.569487 68.464661 
L 239.787347 66.684311 
L 240.599254 65.603719 
L 241.005208 65.362248 
L 241.275843 65.413423 
L 241.681797 65.808421 
L 242.358386 66.94417 
L 244.117518 69.997974 
L 244.523471 70.218524 
L 244.794107 70.118011 
L 245.200061 69.649886 
L 246.147285 67.959686 
L 247.635782 65.346102 
L 248.177053 64.834348 
L 248.718324 64.663103 
L 250.071503 64.635498 
L 251.154045 64.750224 
L 251.830634 65.07682 
L 253.454448 66.271458 
L 257.649301 69.338267 
L 258.190573 69.416278 
L 258.731844 69.199031 
L 259.949704 68.317767 
L 261.032247 67.393602 
L 261.573518 66.652808 
L 262.385425 65.030409 
L 264.415193 60.702629 
L 264.821146 60.328553 
L 265.091782 60.326715 
L 265.497736 60.641314 
L 266.309643 61.769672 
L 267.933457 64.023941 
L 268.33941 64.291726 
L 268.745364 64.345218 
L 269.421953 64.169139 
L 271.181085 63.614053 
L 271.587038 63.679359 
L 272.128309 64.035707 
L 273.210852 65.196974 
L 274.699348 66.765262 
L 275.24062 67.072314 
L 275.917209 67.182985 
L 278.758883 67.372658 
L 281.600558 68.12988 
L 282.006511 67.862095 
L 282.6831 67.023039 
L 284.848186 64.004467 
L 285.254139 63.805946 
L 285.660093 63.864576 
L 286.336682 64.280573 
L 288.501767 65.750782 
L 289.178356 65.892931 
L 290.937488 65.906811 
L 291.749395 65.796853 
L 292.425984 65.470257 
L 294.997023 63.839866 
L 295.402977 64.017661 
L 295.80893 64.495466 
L 296.620837 65.915906 
L 298.109333 68.526454 
L 298.515287 68.797241 
L 298.785923 68.69489 
L 299.191876 68.117051 
L 299.868465 66.517426 
L 301.762915 61.832951 
L 302.168868 61.312379 
L 302.574822 61.134676 
L 303.116093 61.218476 
L 305.010543 61.948067 
L 305.957768 62.501265 
L 308.528807 64.188542 
L 308.93476 64.080011 
L 309.340714 63.714329 
L 310.152621 62.584529 
L 311.911752 60.126213 
L 312.317706 59.858428 
L 312.723659 59.804935 
L 313.400249 59.981015 
L 315.83597 60.755592 
L 317.324466 60.795667 
L 321.925272 60.875242 
L 322.466543 61.123785 
L 323.143133 61.734404 
L 325.714171 64.390173 
L 326.255443 64.58349 
L 327.337985 64.633691 
L 328.826482 64.714047 
L 329.503071 64.993931 
L 330.720931 65.862015 
L 331.938792 66.665716 
L 332.344745 66.682942 
L 332.750699 66.400158 
L 333.29197 65.616394 
L 335.727691 61.51708 
L 336.133645 61.423548 
L 336.539598 61.644522 
L 337.351505 62.48579 
L 338.840001 64.040686 
L 339.245955 64.227724 
L 339.651908 64.194212 
L 340.328497 63.806677 
L 342.493583 62.119239 
L 343.711443 60.845195 
L 345.470575 59.002095 
L 345.876529 58.914149 
L 346.147164 59.067675 
L 346.553118 59.616199 
L 347.365025 61.310902 
L 349.124157 65.058524 
L 349.665428 65.672628 
L 350.206699 65.878122 
L 351.42456 65.911295 
L 352.236467 65.829305 
L 352.64242 65.622286 
L 353.048374 65.200975 
L 353.724963 64.106042 
L 355.75473 60.522586 
L 356.160684 60.247328 
L 356.43132 60.286615 
L 356.837273 60.631164 
L 357.64918 61.769519 
L 359.408312 64.254578 
L 360.084901 64.788192 
L 361.167444 65.247745 
L 365.903568 66.933024 
L 366.309521 66.867717 
L 366.850793 66.51137 
L 367.933335 65.350153 
L 369.286514 63.947622 
L 369.692467 63.760584 
L 370.098421 63.794096 
L 370.77501 64.18163 
L 373.075413 65.750782 
L 373.752002 65.892931 
L 377.270266 66.226135 
L 379.300033 66.887202 
L 379.705987 66.792307 
L 380.11194 66.440259 
L 380.653212 65.622245 
L 383.224251 61.201815 
L 383.765522 60.879618 
L 384.442111 60.799821 
L 386.065925 60.879618 
L 386.471879 61.086637 
L 386.877832 61.507948 
L 387.554421 62.602881 
L 389.854824 66.645794 
L 390.396096 67.060033 
L 390.937367 67.176565 
L 392.831817 67.17583 
L 393.779041 67.012573 
L 395.673491 66.322634 
L 399.597708 64.922474 
L 400.003662 64.975966 
L 400.409615 65.243751 
L 401.086204 66.082807 
L 403.115972 68.872116 
L 403.386608 68.964794 
L 403.657243 68.862443 
L 404.063197 68.355323 
L 404.739786 66.979656 
L 406.634236 62.969885 
L 407.040189 62.533575 
L 407.446143 62.397275 
L 407.987414 62.496188 
L 410.829088 63.337676 
L 413.400127 63.354462 
L 416.647755 63.274912 
L 417.189027 63.026369 
L 417.865616 62.41575 
L 420.030701 60.189017 
L 420.436655 60.166104 
L 420.842608 60.49607 
L 421.383879 61.333127 
L 424.090236 65.997631 
L 424.902143 66.727019 
L 426.661275 67.978671 
L 427.067228 68.078705 
L 427.473182 67.964446 
L 428.014453 67.521586 
L 430.450174 65.078317 
L 430.856128 65.03905 
L 431.397399 65.277208 
L 433.697802 66.747311 
L 434.103756 66.638781 
L 434.509709 66.273098 
L 435.321616 65.143298 
L 437.080748 62.684982 
L 437.486702 62.417197 
L 437.892655 62.363705 
L 438.569244 62.539784 
L 440.73433 63.435686 
L 441.95219 64.276444 
L 444.252593 66.124946 
L 445.741089 67.755411 
L 446.95895 69.002998 
L 447.364903 69.132347 
L 447.635539 69.029997 
L 448.041493 68.593595 
L 448.8534 67.189546 
L 450.477214 64.307707 
L 450.883167 63.923033 
L 451.289121 63.847129 
L 451.830392 64.093387 
L 454.130795 65.578124 
L 454.536749 65.548127 
L 455.07802 65.27572 
L 456.97247 63.866215 
L 460.626051 61.20881 
L 461.167322 61.130799 
L 461.708594 61.348046 
L 462.926454 62.228635 
L 467.391943 65.473596 
L 467.797896 65.507108 
L 468.20385 65.32007 
L 468.880439 64.676659 
L 470.910206 62.542531 
L 471.451478 62.337829 
L 471.992749 62.405535 
L 473.616563 62.999444 
L 474.834424 63.599264 
L 476.458238 64.786874 
L 477.676098 65.588228 
L 478.217369 65.690579 
L 478.893959 65.545373 
L 481.735633 64.660363 
L 483.494765 64.636323 
L 484.44199 64.754147 
L 484.983261 65.0612 
L 485.795168 65.867073 
L 487.5543 67.723614 
L 487.960253 67.852963 
L 488.230889 67.750612 
L 488.636843 67.31421 
L 489.44875 65.910162 
L 491.072564 63.028323 
L 491.478517 62.643648 
L 491.884471 62.567744 
L 492.425742 62.814003 
L 494.184874 64.132242 
L 495.267416 65.120941 
L 497.973773 67.87008 
L 498.109091 67.900234 
L 498.109091 67.900234 
" clip-path="url(#p78cf0006fe)" style="fill: none; stroke: #008000; stroke-linecap: square"/>
   </g>
   <g id="patch_3">
    <path d="M 72 384.48 
L 72 51.84 
" style="fill: none; stroke: #000000; stroke-width: 0.8; stroke-linejoin: miter; stroke-linecap: square"/>
   </g>
   <g id="patch_4">
    <path d="M 518.4 384.48 
L 518.4 51.84 
" style="fill: none; stroke: #000000; stroke-width: 0.8; stroke-linejoin: miter; stroke-linecap: square"/>
   </g>
   <g id="patch_5">
    <path d="M 72 384.48 
L 518.4 384.48 
" style="fill: none; stroke: #000000; stroke-width: 0.8; stroke-linejoin: miter; stroke-linecap: square"/>
   </g>
   <g id="patch_6">
    <path d="M 72 51.84 
L 518.4 51.84 
" style="fill: none; stroke: #000000; stroke-width: 0.8; stroke-linejoin: miter; stroke-linecap: square"/>
   </g>
  </g>
  <g id="legend_1">
   <g id="patch_7">
    <path d="M 486.192187 52.034375 
L 569 52.034375 
Q 571 52.034375 571 50.034375 
L 571 7 
Q 571 5 569 5 
L 486.192187 5 
Q 484.192187 5 484.192187 7 
L 484.192187 50.034375 
Q 484.192187 52.034375 486.192187 52.034375 
z
" style="fill: #ffffff; opacity: 0.8; stroke: #cccccc; stroke-linejoin: miter"/>
   </g>
   <g id="line2d_17">
    <path d="M 488.192187 13.098437 
L 498.192187 13.098437 
L 508.192187 13.098437 
" style="fill: none; stroke: #ff0000; stroke-linecap: square"/>
   </g>
   <g id="text_16">
    <!-- Attention -->
    <g transform="translate(516.192188 16.598437)scale(0.1 -0.1)">
     <defs>
      <path id="DejaVuSans-74" d="M 1172 4494 
L 1172 3500 
L 2356 3500 
L 2356 3053 
L 1172 3053 
L 1172 1153 
Q 1172 725 1289 603 
Q 1406 481 1766 481 
L 2356 481 
L 2356 0 
L 1766 0 
Q 1100 0 847 248 
Q 594 497 594 1153 
L 594 3053 
L 172 3053 
L 172 3500 
L 594 3500 
L 594 4494 
L 1172 4494 
z
" transform="scale(0.015625)"/>
      <path id="DejaVuSans-65" d="M 3597 1894 
L 3597 1613 
L 953 1613 
Q 991 1019 1311 708 
Q 1631 397 2203 397 
Q 2534 397 2845 478 
Q 3156 559 3463 722 
L 3463 178 
Q 3153 47 2828 -22 
Q 2503 -91 2169 -91 
Q 1331 -91 842 396 
Q 353 884 353 1716 
Q 353 2575 817 3079 
Q 1281 3584 2069 3584 
Q 2775 3584 3186 3129 
Q 3597 2675 3597 1894 
z
M 3022 2063 
Q 3016 2534 2758 2815 
Q 2500 3097 2075 3097 
Q 1594 3097 1305 2825 
Q 1016 2553 972 2059 
L 3022 2063 
z
" transform="scale(0.015625)"/>
      <path id="DejaVuSans-6e" d="M 3513 2113 
L 3513 0 
L 2938 0 
L 2938 2094 
Q 2938 2591 2744 2837 
Q 2550 3084 2163 3084 
Q 1697 3084 1428 2787 
Q 1159 2491 1159 1978 
L 1159 0 
L 581 0 
L 581 3500 
L 1159 3500 
L 1159 2956 
Q 1366 3272 1645 3428 
Q 1925 3584 2291 3584 
Q 2894 3584 3203 3211 
Q 3513 2838 3513 2113 
z
" transform="scale(0.015625)"/>
      <path id="DejaVuSans-69" d="M 603 3500 
L 1178 3500 
L 1178 0 
L 603 0 
L 603 3500 
z
M 603 4863 
L 1178 4863 
L 1178 4134 
L 603 4134 
L 603 4863 
z
" transform="scale(0.015625)"/>
     </defs>
     <use xlink:href="#DejaVuSans-41"/>
     <use xlink:href="#DejaVuSans-74" x="66.658203"/>
     <use xlink:href="#DejaVuSans-74" x="105.867188"/>
     <use xlink:href="#DejaVuSans-65" x="145.076172"/>
     <use xlink:href="#DejaVuSans-6e" x="206.599609"/>
     <use xlink:href="#DejaVuSans-74" x="269.978516"/>
     <use xlink:href="#DejaVuSans-69" x="309.1875"/>
     <use xlink:href="#DejaVuSans-6f" x="336.970703"/>
     <use xlink:href="#DejaVuSans-6e" x="398.152344"/>
    </g>
   </g>
   <g id="line2d_18">
    <path d="M 488.192187 27.776563 
L 498.192187 27.776563 
L 508.192187 27.776563 
" style="fill: none; stroke: #0000ff; stroke-linecap: square"/>
   </g>
   <g id="text_17">
    <!-- Additive -->
    <g transform="translate(516.192188 31.276563)scale(0.1 -0.1)">
     <defs>
      <path id="DejaVuSans-64" d="M 2906 2969 
L 2906 4863 
L 3481 4863 
L 3481 0 
L 2906 0 
L 2906 525 
Q 2725 213 2448 61 
Q 2172 -91 1784 -91 
Q 1150 -91 751 415 
Q 353 922 353 1747 
Q 353 2572 751 3078 
Q 1150 3584 1784 3584 
Q 2172 3584 2448 3432 
Q 2725 3281 2906 2969 
z
M 947 1747 
Q 947 1113 1208 752 
Q 1469 391 1925 391 
Q 2381 391 2643 752 
Q 2906 1113 2906 1747 
Q 2906 2381 2643 2742 
Q 2381 3103 1925 3103 
Q 1469 3103 1208 2742 
Q 947 2381 947 1747 
z
" transform="scale(0.015625)"/>
      <path id="DejaVuSans-76" d="M 191 3500 
L 800 3500 
L 1894 563 
L 2988 3500 
L 3597 3500 
L 2284 0 
L 1503 0 
L 191 3500 
z
" transform="scale(0.015625)"/>
     </defs>
     <use xlink:href="#DejaVuSans-41"/>
     <use xlink:href="#DejaVuSans-64" x="66.658203"/>
     <use xlink:href="#DejaVuSans-64" x="130.134766"/>
     <use xlink:href="#DejaVuSans-69" x="193.611328"/>
     <use xlink:href="#DejaVuSans-74" x="221.394531"/>
     <use xlink:href="#DejaVuSans-69" x="260.603516"/>
     <use xlink:href="#DejaVuSans-76" x="288.386719"/>
     <use xlink:href="#DejaVuSans-65" x="347.566406"/>
    </g>
   </g>
   <g id="line2d_19">
    <path d="M 488.192187 42.454687 
L 498.192187 42.454687 
L 508.192187 42.454687 
" style="fill: none; stroke: #008000; stroke-linecap: square"/>
   </g>
   <g id="text_18">
    <!-- Combined -->
    <g transform="translate(516.192188 45.954687)scale(0.1 -0.1)">
     <defs>
      <path id="DejaVuSans-6d" d="M 3328 2828 
Q 3544 3216 3844 3400 
Q 4144 3584 4550 3584 
Q 5097 3584 5394 3201 
Q 5691 2819 5691 2113 
L 5691 0 
L 5113 0 
L 5113 2094 
Q 5113 2597 4934 2840 
Q 4756 3084 4391 3084 
Q 3944 3084 3684 2787 
Q 3425 2491 3425 1978 
L 3425 0 
L 2847 0 
L 2847 2094 
Q 2847 2600 2669 2842 
Q 2491 3084 2119 3084 
Q 1678 3084 1418 2786 
Q 1159 2488 1159 1978 
L 1159 0 
L 581 0 
L 581 3500 
L 1159 3500 
L 1159 2956 
Q 1356 3278 1631 3431 
Q 1906 3584 2284 3584 
Q 2666 3584 2933 3390 
Q 3200 3197 3328 2828 
z
" transform="scale(0.015625)"/>
      <path id="DejaVuSans-62" d="M 3116 1747 
Q 3116 2381 2855 2742 
Q 2594 3103 2138 3103 
Q 1681 3103 1420 2742 
Q 1159 2381 1159 1747 
Q 1159 1113 1420 752 
Q 1681 391 2138 391 
Q 2594 391 2855 752 
Q 3116 1113 3116 1747 
z
M 1159 2969 
Q 1341 3281 1617 3432 
Q 1894 3584 2278 3584 
Q 2916 3584 3314 3078 
Q 3713 2572 3713 1747 
Q 3713 922 3314 415 
Q 2916 -91 2278 -91 
Q 1894 -91 1617 61 
Q 1341 213 1159 525 
L 1159 0 
L 581 0 
L 581 4863 
L 1159 4863 
L 1159 2969 
z
" transform="scale(0.015625)"/>
     </defs>
     <use xlink:href="#DejaVuSans-43"/>
     <use xlink:href="#DejaVuSans-6f" x="69.824219"/>
     <use xlink:href="#DejaVuSans-6d" x="131.005859"/>
     <use xlink:href="#DejaVuSans-62" x="228.417969"/>
     <use xlink:href="#DejaVuSans-69" x="291.894531"/>
     <use xlink:href="#DejaVuSans-6e" x="319.677734"/>
     <use xlink:href="#DejaVuSans-65" x="383.056641"/>
     <use xlink:href="#DejaVuSans-64" x="444.580078"/>
    </g>
   </g>
  </g>
 </g>
 <defs>
  <clipPath id="p78cf0006fe">
   <rect x="72" y="51.84" width="446.4" height="332.64"/>
  </clipPath>
 </defs>
</svg>
