<?xml version="1.0" encoding="utf-8" standalone="no"?>
<!DOCTYPE svg PUBLIC "-//W3C//DTD SVG 1.1//EN"
  "http://www.w3.org/Graphics/SVG/1.1/DTD/svg11.dtd">
<svg xmlns:xlink="http://www.w3.org/1999/xlink" width="576pt" height="432pt" viewBox="0 0 576 432" xmlns="http://www.w3.org/2000/svg" version="1.1">
 <metadata>
  <rdf:RDF xmlns:dc="http://purl.org/dc/elements/1.1/" xmlns:cc="http://creativecommons.org/ns#" xmlns:rdf="http://www.w3.org/1999/02/22-rdf-syntax-ns#">
   <cc:Work>
    <dc:type rdf:resource="http://purl.org/dc/dcmitype/StillImage"/>
    <dc:date>2023-07-12T09:27:06.000492</dc:date>
    <dc:format>image/svg+xml</dc:format>
    <dc:creator>
     <cc:Agent>
      <dc:title>Matplotlib v3.5.1, https://matplotlib.org/</dc:title>
     </cc:Agent>
    </dc:creator>
   </cc:Work>
  </rdf:RDF>
 </metadata>
 <defs>
  <style type="text/css">*{stroke-linejoin: round; stroke-linecap: butt}</style>
 </defs>
 <g id="figure_1">
  <g id="patch_1">
   <path d="M 0 432 
L 576 432 
L 576 0 
L 0 0 
z
" style="fill: #ffffff"/>
  </g>
  <g id="axes_1">
   <g id="patch_2">
    <path d="M 72 384.48 
L 518.4 384.48 
L 518.4 51.84 
L 72 51.84 
z
" style="fill: #ffffff"/>
   </g>
   <g id="matplotlib.axis_1">
    <g id="xtick_1">
     <g id="line2d_1">
      <defs>
       <path id="m3bfe263a48" d="M 0 0 
L 0 3.5 
" style="stroke: #000000; stroke-width: 0.8"/>
      </defs>
      <g>
       <use xlink:href="#m3bfe263a48" x="92.290909" y="384.48" style="stroke: #000000; stroke-width: 0.8"/>
      </g>
     </g>
     <g id="text_1">
      <!-- 0 -->
      <g transform="translate(89.109659 399.078438)scale(0.1 -0.1)">
       <defs>
        <path id="DejaVuSans-30" d="M 2034 4250 
Q 1547 4250 1301 3770 
Q 1056 3291 1056 2328 
Q 1056 1369 1301 889 
Q 1547 409 2034 409 
Q 2525 409 2770 889 
Q 3016 1369 3016 2328 
Q 3016 3291 2770 3770 
Q 2525 4250 2034 4250 
z
M 2034 4750 
Q 2819 4750 3233 4129 
Q 3647 3509 3647 2328 
Q 3647 1150 3233 529 
Q 2819 -91 2034 -91 
Q 1250 -91 836 529 
Q 422 1150 422 2328 
Q 422 3509 836 4129 
Q 1250 4750 2034 4750 
z
" transform="scale(0.015625)"/>
       </defs>
       <use xlink:href="#DejaVuSans-30"/>
      </g>
     </g>
    </g>
    <g id="xtick_2">
     <g id="line2d_2">
      <g>
       <use xlink:href="#m3bfe263a48" x="159.949826" y="384.48" style="stroke: #000000; stroke-width: 0.8"/>
      </g>
     </g>
     <g id="text_2">
      <!-- 500 -->
      <g transform="translate(150.406076 399.078438)scale(0.1 -0.1)">
       <defs>
        <path id="DejaVuSans-35" d="M 691 4666 
L 3169 4666 
L 3169 4134 
L 1269 4134 
L 1269 2991 
Q 1406 3038 1543 3061 
Q 1681 3084 1819 3084 
Q 2600 3084 3056 2656 
Q 3513 2228 3513 1497 
Q 3513 744 3044 326 
Q 2575 -91 1722 -91 
Q 1428 -91 1123 -41 
Q 819 9 494 109 
L 494 744 
Q 775 591 1075 516 
Q 1375 441 1709 441 
Q 2250 441 2565 725 
Q 2881 1009 2881 1497 
Q 2881 1984 2565 2268 
Q 2250 2553 1709 2553 
Q 1456 2553 1204 2497 
Q 953 2441 691 2322 
L 691 4666 
z
" transform="scale(0.015625)"/>
       </defs>
       <use xlink:href="#DejaVuSans-35"/>
       <use xlink:href="#DejaVuSans-30" x="63.623047"/>
       <use xlink:href="#DejaVuSans-30" x="127.246094"/>
      </g>
     </g>
    </g>
    <g id="xtick_3">
     <g id="line2d_3">
      <g>
       <use xlink:href="#m3bfe263a48" x="227.608742" y="384.48" style="stroke: #000000; stroke-width: 0.8"/>
      </g>
     </g>
     <g id="text_3">
      <!-- 1000 -->
      <g transform="translate(214.883742 399.078438)scale(0.1 -0.1)">
       <defs>
        <path id="DejaVuSans-31" d="M 794 531 
L 1825 531 
L 1825 4091 
L 703 3866 
L 703 4441 
L 1819 4666 
L 2450 4666 
L 2450 531 
L 3481 531 
L 3481 0 
L 794 0 
L 794 531 
z
" transform="scale(0.015625)"/>
       </defs>
       <use xlink:href="#DejaVuSans-31"/>
       <use xlink:href="#DejaVuSans-30" x="63.623047"/>
       <use xlink:href="#DejaVuSans-30" x="127.246094"/>
       <use xlink:href="#DejaVuSans-30" x="190.869141"/>
      </g>
     </g>
    </g>
    <g id="xtick_4">
     <g id="line2d_4">
      <g>
       <use xlink:href="#m3bfe263a48" x="295.267659" y="384.48" style="stroke: #000000; stroke-width: 0.8"/>
      </g>
     </g>
     <g id="text_4">
      <!-- 1500 -->
      <g transform="translate(282.542659 399.078438)scale(0.1 -0.1)">
       <use xlink:href="#DejaVuSans-31"/>
       <use xlink:href="#DejaVuSans-35" x="63.623047"/>
       <use xlink:href="#DejaVuSans-30" x="127.246094"/>
       <use xlink:href="#DejaVuSans-30" x="190.869141"/>
      </g>
     </g>
    </g>
    <g id="xtick_5">
     <g id="line2d_5">
      <g>
       <use xlink:href="#m3bfe263a48" x="362.926576" y="384.48" style="stroke: #000000; stroke-width: 0.8"/>
      </g>
     </g>
     <g id="text_5">
      <!-- 2000 -->
      <g transform="translate(350.201576 399.078438)scale(0.1 -0.1)">
       <defs>
        <path id="DejaVuSans-32" d="M 1228 531 
L 3431 531 
L 3431 0 
L 469 0 
L 469 531 
Q 828 903 1448 1529 
Q 2069 2156 2228 2338 
Q 2531 2678 2651 2914 
Q 2772 3150 2772 3378 
Q 2772 3750 2511 3984 
Q 2250 4219 1831 4219 
Q 1534 4219 1204 4116 
Q 875 4013 500 3803 
L 500 4441 
Q 881 4594 1212 4672 
Q 1544 4750 1819 4750 
Q 2544 4750 2975 4387 
Q 3406 4025 3406 3419 
Q 3406 3131 3298 2873 
Q 3191 2616 2906 2266 
Q 2828 2175 2409 1742 
Q 1991 1309 1228 531 
z
" transform="scale(0.015625)"/>
       </defs>
       <use xlink:href="#DejaVuSans-32"/>
       <use xlink:href="#DejaVuSans-30" x="63.623047"/>
       <use xlink:href="#DejaVuSans-30" x="127.246094"/>
       <use xlink:href="#DejaVuSans-30" x="190.869141"/>
      </g>
     </g>
    </g>
    <g id="xtick_6">
     <g id="line2d_6">
      <g>
       <use xlink:href="#m3bfe263a48" x="430.585492" y="384.48" style="stroke: #000000; stroke-width: 0.8"/>
      </g>
     </g>
     <g id="text_6">
      <!-- 2500 -->
      <g transform="translate(417.860492 399.078438)scale(0.1 -0.1)">
       <use xlink:href="#DejaVuSans-32"/>
       <use xlink:href="#DejaVuSans-35" x="63.623047"/>
       <use xlink:href="#DejaVuSans-30" x="127.246094"/>
       <use xlink:href="#DejaVuSans-30" x="190.869141"/>
      </g>
     </g>
    </g>
    <g id="xtick_7">
     <g id="line2d_7">
      <g>
       <use xlink:href="#m3bfe263a48" x="498.244409" y="384.48" style="stroke: #000000; stroke-width: 0.8"/>
      </g>
     </g>
     <g id="text_7">
      <!-- 3000 -->
      <g transform="translate(485.519409 399.078438)scale(0.1 -0.1)">
       <defs>
        <path id="DejaVuSans-33" d="M 2597 2516 
Q 3050 2419 3304 2112 
Q 3559 1806 3559 1356 
Q 3559 666 3084 287 
Q 2609 -91 1734 -91 
Q 1441 -91 1130 -33 
Q 819 25 488 141 
L 488 750 
Q 750 597 1062 519 
Q 1375 441 1716 441 
Q 2309 441 2620 675 
Q 2931 909 2931 1356 
Q 2931 1769 2642 2001 
Q 2353 2234 1838 2234 
L 1294 2234 
L 1294 2753 
L 1863 2753 
Q 2328 2753 2575 2939 
Q 2822 3125 2822 3475 
Q 2822 3834 2567 4026 
Q 2313 4219 1838 4219 
Q 1578 4219 1281 4162 
Q 984 4106 628 3988 
L 628 4550 
Q 988 4650 1302 4700 
Q 1616 4750 1894 4750 
Q 2613 4750 3031 4423 
Q 3450 4097 3450 3541 
Q 3450 3153 3228 2886 
Q 3006 2619 2597 2516 
z
" transform="scale(0.015625)"/>
       </defs>
       <use xlink:href="#DejaVuSans-33"/>
       <use xlink:href="#DejaVuSans-30" x="63.623047"/>
       <use xlink:href="#DejaVuSans-30" x="127.246094"/>
       <use xlink:href="#DejaVuSans-30" x="190.869141"/>
      </g>
     </g>
    </g>
    <g id="text_8">
     <!-- Epochs -->
     <g transform="translate(277.284375 412.756563)scale(0.1 -0.1)">
      <defs>
       <path id="DejaVuSans-45" d="M 628 4666 
L 3578 4666 
L 3578 4134 
L 1259 4134 
L 1259 2753 
L 3481 2753 
L 3481 2222 
L 1259 2222 
L 1259 531 
L 3634 531 
L 3634 0 
L 628 0 
L 628 4666 
z
" transform="scale(0.015625)"/>
       <path id="DejaVuSans-70" d="M 1159 525 
L 1159 -1331 
L 581 -1331 
L 581 3500 
L 1159 3500 
L 1159 2969 
Q 1341 3281 1617 3432 
Q 1894 3584 2278 3584 
Q 2916 3584 3314 3078 
Q 3713 2572 3713 1747 
Q 3713 922 3314 415 
Q 2916 -91 2278 -91 
Q 1894 -91 1617 61 
Q 1341 213 1159 525 
z
M 3116 1747 
Q 3116 2381 2855 2742 
Q 2594 3103 2138 3103 
Q 1681 3103 1420 2742 
Q 1159 2381 1159 1747 
Q 1159 1113 1420 752 
Q 1681 391 2138 391 
Q 2594 391 2855 752 
Q 3116 1113 3116 1747 
z
" transform="scale(0.015625)"/>
       <path id="DejaVuSans-6f" d="M 1959 3097 
Q 1497 3097 1228 2736 
Q 959 2375 959 1747 
Q 959 1119 1226 758 
Q 1494 397 1959 397 
Q 2419 397 2687 759 
Q 2956 1122 2956 1747 
Q 2956 2369 2687 2733 
Q 2419 3097 1959 3097 
z
M 1959 3584 
Q 2709 3584 3137 3096 
Q 3566 2609 3566 1747 
Q 3566 888 3137 398 
Q 2709 -91 1959 -91 
Q 1206 -91 779 398 
Q 353 888 353 1747 
Q 353 2609 779 3096 
Q 1206 3584 1959 3584 
z
" transform="scale(0.015625)"/>
       <path id="DejaVuSans-63" d="M 3122 3366 
L 3122 2828 
Q 2878 2963 2633 3030 
Q 2388 3097 2138 3097 
Q 1578 3097 1268 2742 
Q 959 2388 959 1747 
Q 959 1106 1268 751 
Q 1578 397 2138 397 
Q 2388 397 2633 464 
Q 2878 531 3122 666 
L 3122 134 
Q 2881 22 2623 -34 
Q 2366 -91 2075 -91 
Q 1284 -91 818 406 
Q 353 903 353 1747 
Q 353 2603 823 3093 
Q 1294 3584 2113 3584 
Q 2378 3584 2631 3529 
Q 2884 3475 3122 3366 
z
" transform="scale(0.015625)"/>
       <path id="DejaVuSans-68" d="M 3513 2113 
L 3513 0 
L 2938 0 
L 2938 2094 
Q 2938 2591 2744 2837 
Q 2550 3084 2163 3084 
Q 1697 3084 1428 2787 
Q 1159 2491 1159 1978 
L 1159 0 
L 581 0 
L 581 4863 
L 1159 4863 
L 1159 2956 
Q 1366 3272 1645 3428 
Q 1925 3584 2291 3584 
Q 2894 3584 3203 3211 
Q 3513 2838 3513 2113 
z
" transform="scale(0.015625)"/>
       <path id="DejaVuSans-73" d="M 2834 3397 
L 2834 2853 
Q 2591 2978 2328 3040 
Q 2066 3103 1784 3103 
Q 1356 3103 1142 2972 
Q 928 2841 928 2578 
Q 928 2378 1081 2264 
Q 1234 2150 1697 2047 
L 1894 2003 
Q 2506 1872 2764 1633 
Q 3022 1394 3022 966 
Q 3022 478 2636 193 
Q 2250 -91 1575 -91 
Q 1294 -91 989 -36 
Q 684 19 347 128 
L 347 722 
Q 666 556 975 473 
Q 1284 391 1588 391 
Q 1994 391 2212 530 
Q 2431 669 2431 922 
Q 2431 1156 2273 1281 
Q 2116 1406 1581 1522 
L 1381 1569 
Q 847 1681 609 1914 
Q 372 2147 372 2553 
Q 372 3047 722 3315 
Q 1072 3584 1716 3584 
Q 2034 3584 2315 3537 
Q 2597 3491 2834 3397 
z
" transform="scale(0.015625)"/>
      </defs>
      <use xlink:href="#DejaVuSans-45"/>
      <use xlink:href="#DejaVuSans-70" x="63.183594"/>
      <use xlink:href="#DejaVuSans-6f" x="126.660156"/>
      <use xlink:href="#DejaVuSans-63" x="187.841797"/>
      <use xlink:href="#DejaVuSans-68" x="242.822266"/>
      <use xlink:href="#DejaVuSans-73" x="306.201172"/>
     </g>
    </g>
   </g>
   <g id="matplotlib.axis_2">
    <g id="ytick_1">
     <g id="line2d_8">
      <defs>
       <path id="m3768ba73d7" d="M 0 0 
L -3.5 0 
" style="stroke: #000000; stroke-width: 0.8"/>
      </defs>
      <g>
       <use xlink:href="#m3768ba73d7" x="72" y="384.48" style="stroke: #000000; stroke-width: 0.8"/>
      </g>
     </g>
     <g id="text_9">
      <!-- 0.0 -->
      <g transform="translate(49.096875 388.279219)scale(0.1 -0.1)">
       <defs>
        <path id="DejaVuSans-2e" d="M 684 794 
L 1344 794 
L 1344 0 
L 684 0 
L 684 794 
z
" transform="scale(0.015625)"/>
       </defs>
       <use xlink:href="#DejaVuSans-30"/>
       <use xlink:href="#DejaVuSans-2e" x="63.623047"/>
       <use xlink:href="#DejaVuSans-30" x="95.410156"/>
      </g>
     </g>
    </g>
    <g id="ytick_2">
     <g id="line2d_9">
      <g>
       <use xlink:href="#m3768ba73d7" x="72" y="331.2576" style="stroke: #000000; stroke-width: 0.8"/>
      </g>
     </g>
     <g id="text_10">
      <!-- 0.2 -->
      <g transform="translate(49.096875 335.056819)scale(0.1 -0.1)">
       <use xlink:href="#DejaVuSans-30"/>
       <use xlink:href="#DejaVuSans-2e" x="63.623047"/>
       <use xlink:href="#DejaVuSans-32" x="95.410156"/>
      </g>
     </g>
    </g>
    <g id="ytick_3">
     <g id="line2d_10">
      <g>
       <use xlink:href="#m3768ba73d7" x="72" y="278.0352" style="stroke: #000000; stroke-width: 0.8"/>
      </g>
     </g>
     <g id="text_11">
      <!-- 0.4 -->
      <g transform="translate(49.096875 281.834419)scale(0.1 -0.1)">
       <defs>
        <path id="DejaVuSans-34" d="M 2419 4116 
L 825 1625 
L 2419 1625 
L 2419 4116 
z
M 2253 4666 
L 3047 4666 
L 3047 1625 
L 3713 1625 
L 3713 1100 
L 3047 1100 
L 3047 0 
L 2419 0 
L 2419 1100 
L 313 1100 
L 313 1709 
L 2253 4666 
z
" transform="scale(0.015625)"/>
       </defs>
       <use xlink:href="#DejaVuSans-30"/>
       <use xlink:href="#DejaVuSans-2e" x="63.623047"/>
       <use xlink:href="#DejaVuSans-34" x="95.410156"/>
      </g>
     </g>
    </g>
    <g id="ytick_4">
     <g id="line2d_11">
      <g>
       <use xlink:href="#m3768ba73d7" x="72" y="224.8128" style="stroke: #000000; stroke-width: 0.8"/>
      </g>
     </g>
     <g id="text_12">
      <!-- 0.6 -->
      <g transform="translate(49.096875 228.612019)scale(0.1 -0.1)">
       <defs>
        <path id="DejaVuSans-36" d="M 2113 2584 
Q 1688 2584 1439 2293 
Q 1191 2003 1191 1497 
Q 1191 994 1439 701 
Q 1688 409 2113 409 
Q 2538 409 2786 701 
Q 3034 994 3034 1497 
Q 3034 2003 2786 2293 
Q 2538 2584 2113 2584 
z
M 3366 4563 
L 3366 3988 
Q 3128 4100 2886 4159 
Q 2644 4219 2406 4219 
Q 1781 4219 1451 3797 
Q 1122 3375 1075 2522 
Q 1259 2794 1537 2939 
Q 1816 3084 2150 3084 
Q 2853 3084 3261 2657 
Q 3669 2231 3669 1497 
Q 3669 778 3244 343 
Q 2819 -91 2113 -91 
Q 1303 -91 875 529 
Q 447 1150 447 2328 
Q 447 3434 972 4092 
Q 1497 4750 2381 4750 
Q 2619 4750 2861 4703 
Q 3103 4656 3366 4563 
z
" transform="scale(0.015625)"/>
       </defs>
       <use xlink:href="#DejaVuSans-30"/>
       <use xlink:href="#DejaVuSans-2e" x="63.623047"/>
       <use xlink:href="#DejaVuSans-36" x="95.410156"/>
      </g>
     </g>
    </g>
    <g id="ytick_5">
     <g id="line2d_12">
      <g>
       <use xlink:href="#m3768ba73d7" x="72" y="171.5904" style="stroke: #000000; stroke-width: 0.8"/>
      </g>
     </g>
     <g id="text_13">
      <!-- 0.8 -->
      <g transform="translate(49.096875 175.389619)scale(0.1 -0.1)">
       <defs>
        <path id="DejaVuSans-38" d="M 2034 2216 
Q 1584 2216 1326 1975 
Q 1069 1734 1069 1313 
Q 1069 891 1326 650 
Q 1584 409 2034 409 
Q 2484 409 2743 651 
Q 3003 894 3003 1313 
Q 3003 1734 2745 1975 
Q 2488 2216 2034 2216 
z
M 1403 2484 
Q 997 2584 770 2862 
Q 544 3141 544 3541 
Q 544 4100 942 4425 
Q 1341 4750 2034 4750 
Q 2731 4750 3128 4425 
Q 3525 4100 3525 3541 
Q 3525 3141 3298 2862 
Q 3072 2584 2669 2484 
Q 3125 2378 3379 2068 
Q 3634 1759 3634 1313 
Q 3634 634 3220 271 
Q 2806 -91 2034 -91 
Q 1263 -91 848 271 
Q 434 634 434 1313 
Q 434 1759 690 2068 
Q 947 2378 1403 2484 
z
M 1172 3481 
Q 1172 3119 1398 2916 
Q 1625 2713 2034 2713 
Q 2441 2713 2670 2916 
Q 2900 3119 2900 3481 
Q 2900 3844 2670 4047 
Q 2441 4250 2034 4250 
Q 1625 4250 1398 4047 
Q 1172 3844 1172 3481 
z
" transform="scale(0.015625)"/>
       </defs>
       <use xlink:href="#DejaVuSans-30"/>
       <use xlink:href="#DejaVuSans-2e" x="63.623047"/>
       <use xlink:href="#DejaVuSans-38" x="95.410156"/>
      </g>
     </g>
    </g>
    <g id="ytick_6">
     <g id="line2d_13">
      <g>
       <use xlink:href="#m3768ba73d7" x="72" y="118.368" style="stroke: #000000; stroke-width: 0.8"/>
      </g>
     </g>
     <g id="text_14">
      <!-- 1.0 -->
      <g transform="translate(49.096875 122.167219)scale(0.1 -0.1)">
       <use xlink:href="#DejaVuSans-31"/>
       <use xlink:href="#DejaVuSans-2e" x="63.623047"/>
       <use xlink:href="#DejaVuSans-30" x="95.410156"/>
      </g>
     </g>
    </g>
    <g id="ytick_7">
     <g id="line2d_14">
      <g>
       <use xlink:href="#m3768ba73d7" x="72" y="65.1456" style="stroke: #000000; stroke-width: 0.8"/>
      </g>
     </g>
     <g id="text_15">
      <!-- 1.2 -->
      <g transform="translate(49.096875 68.944819)scale(0.1 -0.1)">
       <use xlink:href="#DejaVuSans-31"/>
       <use xlink:href="#DejaVuSans-2e" x="63.623047"/>
       <use xlink:href="#DejaVuSans-32" x="95.410156"/>
      </g>
     </g>
    </g>
    <g id="text_16">
     <!-- Train loss -->
     <g transform="translate(43.017187 241.400625)rotate(-90)scale(0.1 -0.1)">
      <defs>
       <path id="DejaVuSans-54" d="M -19 4666 
L 3928 4666 
L 3928 4134 
L 2272 4134 
L 2272 0 
L 1638 0 
L 1638 4134 
L -19 4134 
L -19 4666 
z
" transform="scale(0.015625)"/>
       <path id="DejaVuSans-72" d="M 2631 2963 
Q 2534 3019 2420 3045 
Q 2306 3072 2169 3072 
Q 1681 3072 1420 2755 
Q 1159 2438 1159 1844 
L 1159 0 
L 581 0 
L 581 3500 
L 1159 3500 
L 1159 2956 
Q 1341 3275 1631 3429 
Q 1922 3584 2338 3584 
Q 2397 3584 2469 3576 
Q 2541 3569 2628 3553 
L 2631 2963 
z
" transform="scale(0.015625)"/>
       <path id="DejaVuSans-61" d="M 2194 1759 
Q 1497 1759 1228 1600 
Q 959 1441 959 1056 
Q 959 750 1161 570 
Q 1363 391 1709 391 
Q 2188 391 2477 730 
Q 2766 1069 2766 1631 
L 2766 1759 
L 2194 1759 
z
M 3341 1997 
L 3341 0 
L 2766 0 
L 2766 531 
Q 2569 213 2275 61 
Q 1981 -91 1556 -91 
Q 1019 -91 701 211 
Q 384 513 384 1019 
Q 384 1609 779 1909 
Q 1175 2209 1959 2209 
L 2766 2209 
L 2766 2266 
Q 2766 2663 2505 2880 
Q 2244 3097 1772 3097 
Q 1472 3097 1187 3025 
Q 903 2953 641 2809 
L 641 3341 
Q 956 3463 1253 3523 
Q 1550 3584 1831 3584 
Q 2591 3584 2966 3190 
Q 3341 2797 3341 1997 
z
" transform="scale(0.015625)"/>
       <path id="DejaVuSans-69" d="M 603 3500 
L 1178 3500 
L 1178 0 
L 603 0 
L 603 3500 
z
M 603 4863 
L 1178 4863 
L 1178 4134 
L 603 4134 
L 603 4863 
z
" transform="scale(0.015625)"/>
       <path id="DejaVuSans-6e" d="M 3513 2113 
L 3513 0 
L 2938 0 
L 2938 2094 
Q 2938 2591 2744 2837 
Q 2550 3084 2163 3084 
Q 1697 3084 1428 2787 
Q 1159 2491 1159 1978 
L 1159 0 
L 581 0 
L 581 3500 
L 1159 3500 
L 1159 2956 
Q 1366 3272 1645 3428 
Q 1925 3584 2291 3584 
Q 2894 3584 3203 3211 
Q 3513 2838 3513 2113 
z
" transform="scale(0.015625)"/>
       <path id="DejaVuSans-20" transform="scale(0.015625)"/>
       <path id="DejaVuSans-6c" d="M 603 4863 
L 1178 4863 
L 1178 0 
L 603 0 
L 603 4863 
z
" transform="scale(0.015625)"/>
      </defs>
      <use xlink:href="#DejaVuSans-54"/>
      <use xlink:href="#DejaVuSans-72" x="46.333984"/>
      <use xlink:href="#DejaVuSans-61" x="87.447266"/>
      <use xlink:href="#DejaVuSans-69" x="148.726562"/>
      <use xlink:href="#DejaVuSans-6e" x="176.509766"/>
      <use xlink:href="#DejaVuSans-20" x="239.888672"/>
      <use xlink:href="#DejaVuSans-6c" x="271.675781"/>
      <use xlink:href="#DejaVuSans-6f" x="299.458984"/>
      <use xlink:href="#DejaVuSans-73" x="360.640625"/>
      <use xlink:href="#DejaVuSans-73" x="412.740234"/>
     </g>
    </g>
   </g>
   <g id="line2d_15">
    <path d="M 92.290909 114.367322 
L 93.102816 114.499776 
L 93.914723 114.966996 
L 95.673855 116.249332 
L 97.297669 117.699147 
L 99.462754 119.321689 
L 103.928243 122.020656 
L 105.552057 123.394889 
L 108.664367 126.74832 
L 110.288181 129.044085 
L 112.182631 132.13469 
L 113.806445 135.408268 
L 115.024305 138.117643 
L 116.783437 143.011268 
L 119.354476 151.189996 
L 123.143375 166.351768 
L 124.496553 171.903689 
L 126.120367 178.113428 
L 128.285453 187.333957 
L 129.503313 191.982508 
L 130.585856 196.143406 
L 132.20967 202.788401 
L 133.698166 208.34364 
L 137.487065 221.923122 
L 138.43429 224.698271 
L 140.058104 230.086896 
L 141.005329 232.620772 
L 141.952554 235.858406 
L 142.629143 237.964599 
L 143.847004 241.061271 
L 146.147407 248.111785 
L 147.365267 251.183107 
L 148.312492 253.289234 
L 149.530353 255.346882 
L 150.071624 256.451765 
L 152.101391 261.518548 
L 152.913298 262.660385 
L 153.725205 264.606137 
L 154.537112 266.18578 
L 156.702198 270.363826 
L 157.649423 272.464648 
L 158.326012 273.830181 
L 159.949826 276.31145 
L 160.761733 277.633921 
L 162.520865 279.730791 
L 165.091903 284.092068 
L 165.90381 284.643288 
L 166.5804 285.255781 
L 167.121671 286.010832 
L 168.204214 287.660707 
L 169.151438 288.56219 
L 170.369299 289.77212 
L 171.587159 291.412396 
L 172.128431 291.884589 
L 172.534384 292.539588 
L 173.481609 294.325361 
L 173.887563 294.630524 
L 174.970105 295.0445 
L 176.458601 296.545915 
L 177.81178 297.457662 
L 179.706229 299.790005 
L 180.247501 300.397792 
L 180.788772 300.698229 
L 181.735997 301.02829 
L 182.547904 301.607729 
L 183.224493 302.457139 
L 183.901082 303.238214 
L 186.336803 305.2777 
L 187.013392 305.77654 
L 187.960617 306.307961 
L 189.855067 307.530779 
L 190.531656 307.699223 
L 190.93761 307.866226 
L 191.343563 308.368283 
L 192.15547 309.613874 
L 192.561424 309.824588 
L 193.238013 310.098257 
L 194.04992 310.843095 
L 194.726509 311.677899 
L 195.403098 312.538194 
L 195.809052 312.769913 
L 196.215005 312.729222 
L 197.568183 312.145057 
L 197.974137 312.388142 
L 198.786044 313.318101 
L 199.462633 313.939324 
L 201.627718 315.002188 
L 202.304307 315.124509 
L 203.116214 315.652225 
L 206.49916 317.790915 
L 207.446385 317.647077 
L 207.987656 317.936513 
L 209.340835 318.953214 
L 210.152742 319.091631 
L 210.694013 319.535916 
L 211.370602 320.144292 
L 211.911874 320.289935 
L 212.317827 320.436379 
L 213.806323 321.376018 
L 214.482912 321.374783 
L 215.294819 321.261792 
L 215.836091 321.493496 
L 216.377362 321.74432 
L 216.783316 321.713864 
L 217.459905 321.565523 
L 217.865858 321.735342 
L 220.030944 323.446258 
L 221.925393 323.702476 
L 222.601982 324.05881 
L 223.549207 324.868921 
L 223.955161 324.820026 
L 224.767068 324.558681 
L 225.308339 324.664031 
L 225.714293 324.969042 
L 226.932153 326.162745 
L 227.879378 326.522157 
L 228.420649 326.482971 
L 229.097238 326.356377 
L 229.63851 326.54619 
L 231.532959 327.588506 
L 233.156773 327.780113 
L 233.833363 327.675453 
L 234.509952 327.869016 
L 235.051223 328.295114 
L 235.592494 328.692943 
L 236.675037 329.218696 
L 237.216308 329.410394 
L 237.75758 329.575746 
L 238.569487 329.934862 
L 239.110758 329.796536 
L 239.516712 329.728402 
L 241.817115 330.279551 
L 242.899657 330.791003 
L 243.9822 331.013317 
L 244.658789 331.324416 
L 246.282603 331.658705 
L 247.635782 332.072918 
L 249.665549 332.17393 
L 250.20682 332.632287 
L 250.748092 333.108507 
L 251.154045 333.19317 
L 252.10127 333.214549 
L 253.319131 333.465578 
L 254.401673 333.791133 
L 255.21358 333.90575 
L 256.160805 333.909529 
L 258.32589 334.377715 
L 259.00248 334.51275 
L 260.22034 334.978905 
L 260.896929 334.92351 
L 261.438201 334.914908 
L 262.791379 335.314693 
L 264.009239 335.744156 
L 264.956464 335.911355 
L 266.850914 336.433893 
L 267.527503 336.627716 
L 269.827906 336.876295 
L 271.181085 337.495837 
L 271.857674 337.323436 
L 272.398945 337.235353 
L 272.940216 337.404157 
L 273.752123 337.745974 
L 274.293395 337.65149 
L 274.834666 337.591089 
L 275.24062 337.773283 
L 275.917209 338.104171 
L 276.45848 337.964783 
L 276.864434 337.908809 
L 277.676341 338.139376 
L 278.758883 338.555869 
L 279.435472 338.797363 
L 280.382697 339.049676 
L 281.059286 339.197444 
L 282.006511 339.192688 
L 283.765643 339.736702 
L 284.442232 339.537052 
L 284.848186 339.432601 
L 285.254139 339.565378 
L 286.066046 339.974325 
L 286.607318 339.953726 
L 287.825178 339.75849 
L 288.501767 339.819914 
L 289.043039 339.798337 
L 289.448992 340.076645 
L 289.990263 340.577381 
L 290.396217 340.634372 
L 291.614077 340.457865 
L 292.155349 340.633748 
L 293.102574 341.144216 
L 293.643845 341.101109 
L 294.59107 340.966226 
L 296.214884 341.03366 
L 297.297426 341.455151 
L 298.244651 341.737593 
L 301.492279 341.911055 
L 302.71014 342.35642 
L 304.333954 342.332971 
L 304.875225 342.580729 
L 305.551814 342.875082 
L 306.228403 342.812485 
L 309.070078 342.739003 
L 309.881985 342.80414 
L 310.423256 342.890933 
L 311.505799 343.301677 
L 312.994295 343.253354 
L 313.806202 343.441441 
L 314.618109 343.606545 
L 317.05383 343.476639 
L 318.136373 343.909514 
L 318.812962 343.952832 
L 319.624869 344.35172 
L 320.16614 344.47953 
L 320.707412 344.272927 
L 321.384001 343.947429 
L 321.925272 343.989733 
L 323.007815 344.376063 
L 323.95504 344.882039 
L 324.360993 344.767927 
L 325.443536 344.000195 
L 327.879257 344.464263 
L 328.555846 344.667997 
L 328.961799 344.607985 
L 329.773706 344.382689 
L 332.886017 344.826456 
L 334.509831 344.564857 
L 336.539598 344.682766 
L 337.622141 344.633854 
L 338.29873 344.832161 
L 339.922544 345.54528 
L 340.463815 345.42943 
L 341.41104 345.08826 
L 343.170172 345.063247 
L 344.252715 345.348071 
L 345.741211 345.688731 
L 347.094389 345.605919 
L 347.906296 345.456754 
L 349.665428 345.535343 
L 350.612653 345.367874 
L 352.371785 345.238474 
L 352.913056 345.202499 
L 354.266234 345.443181 
L 355.484095 346.007493 
L 356.43132 345.995166 
L 357.243227 345.944929 
L 359.002358 345.672673 
L 359.949583 345.728907 
L 360.626172 345.766841 
L 361.844033 346.144194 
L 362.520622 346.20239 
L 363.197211 346.3329 
L 363.603165 346.197855 
L 364.415072 345.834916 
L 364.956343 345.923431 
L 365.76825 346.109972 
L 366.580157 346.252098 
L 367.392064 346.463525 
L 367.798018 346.378559 
L 368.745242 346.021456 
L 369.421832 346.234741 
L 370.098421 346.318533 
L 370.77501 346.467371 
L 371.451599 346.654837 
L 372.398824 346.632133 
L 374.293274 346.318581 
L 375.511134 346.45234 
L 377.676219 346.409509 
L 378.352809 346.818262 
L 378.623444 346.78051 
L 379.029398 346.458192 
L 379.570669 346.040941 
L 379.841305 346.058635 
L 381.059165 346.615178 
L 383.088933 346.44347 
L 384.306793 346.517341 
L 385.930607 346.800132 
L 387.01315 346.55137 
L 387.825057 346.186572 
L 388.23101 346.252048 
L 389.854824 346.857973 
L 390.396096 346.842885 
L 391.208003 346.528868 
L 392.01991 346.183369 
L 392.831817 346.188978 
L 393.779041 346.393565 
L 394.590948 346.588102 
L 396.079445 346.473472 
L 399.868344 346.729756 
L 400.815569 346.475386 
L 401.35684 346.422154 
L 402.033429 346.715087 
L 402.574701 346.874017 
L 403.115972 346.777519 
L 404.198515 346.454976 
L 405.010422 346.491648 
L 406.498918 346.916414 
L 407.58146 347.442482 
L 408.25805 347.482668 
L 408.664003 347.328231 
L 409.746546 346.671564 
L 410.423135 346.826831 
L 411.37036 346.990751 
L 411.911631 346.844926 
L 412.58822 346.686608 
L 413.941399 346.810587 
L 414.753306 347.257539 
L 415.159259 347.122742 
L 415.971166 346.714225 
L 416.647755 346.795568 
L 418.677523 347.074376 
L 419.760065 347.035336 
L 420.571972 346.854952 
L 423.278329 346.349772 
L 423.8196 346.651543 
L 424.49619 347.056576 
L 425.037461 347.102517 
L 425.849368 346.914474 
L 426.525957 346.763104 
L 428.420407 346.913241 
L 429.232314 347.063957 
L 429.908903 346.800625 
L 430.450174 346.700847 
L 431.668035 346.75458 
L 432.885895 347.056324 
L 435.456934 347.205712 
L 435.998205 347.419861 
L 436.404159 347.289841 
L 437.892655 346.461297 
L 438.433926 346.605201 
L 439.381151 346.868116 
L 440.193058 347.044601 
L 440.869647 347.273922 
L 441.275601 347.161531 
L 441.95219 346.849471 
L 442.358144 347.002442 
L 443.034733 347.395625 
L 443.440686 347.345634 
L 444.117275 347.228518 
L 446.011725 347.277344 
L 446.823632 347.050843 
L 447.500221 347.168471 
L 448.718082 347.432237 
L 449.259353 347.210154 
L 450.07126 346.826423 
L 451.695074 346.609222 
L 452.777617 346.738857 
L 453.724842 346.576372 
L 454.807384 346.775834 
L 455.483973 346.727955 
L 456.025245 347.027787 
L 456.701834 347.386067 
L 457.107787 347.294486 
L 457.784377 346.96464 
L 458.19033 347.036001 
L 458.866919 347.179225 
L 459.949462 346.923564 
L 460.626051 346.834133 
L 461.843912 346.983772 
L 462.385183 346.974261 
L 463.061772 347.238147 
L 463.603043 347.388611 
L 464.144315 347.232368 
L 464.820904 347.044336 
L 466.444718 346.951712 
L 466.985989 346.915651 
L 467.527261 347.139951 
L 468.068532 347.377215 
L 468.474485 347.350417 
L 469.692346 347.043062 
L 472.263385 347.345964 
L 474.157834 347.347295 
L 474.699106 347.326952 
L 476.32292 346.892303 
L 478.352687 346.914373 
L 479.164594 346.853342 
L 480.111819 346.822561 
L 481.464997 346.656791 
L 482.141587 346.797966 
L 482.818176 346.901396 
L 483.494765 347.000537 
L 484.712625 347.338955 
L 486.336439 347.336489 
L 487.689618 347.088926 
L 488.366207 346.849124 
L 488.907478 347.023761 
L 489.44875 347.182164 
L 489.990021 347.083172 
L 490.801928 346.943 
L 491.343199 347.08654 
L 492.425742 347.564063 
L 493.102331 347.485797 
L 494.996781 347.141214 
L 497.161866 346.849505 
L 497.973773 346.747539 
L 498.109091 346.7482 
L 498.109091 346.7482 
" clip-path="url(#pd40fd8751f)" style="fill: none; stroke: #ff0000; stroke-linecap: square"/>
   </g>
   <g id="line2d_16">
    <path d="M 131.580314 -1 
L 133.42753 12.18845 
L 134.10412 17.331956 
L 134.916027 25.477155 
L 135.863251 34.488114 
L 136.539841 39.057379 
L 138.704926 51.370411 
L 139.516833 58.251595 
L 139.922786 59.551227 
L 140.32874 60.753651 
L 140.734693 63.054143 
L 141.952554 71.38385 
L 142.764461 75.009523 
L 144.658911 85.925945 
L 145.606135 92.760588 
L 146.012089 94.334461 
L 147.094632 96.992794 
L 147.500585 99.05467 
L 148.583128 105.491637 
L 149.124399 106.680675 
L 149.530353 107.81262 
L 151.018849 113.319307 
L 154.537112 128.044826 
L 154.943066 129.623543 
L 155.484337 132.909567 
L 156.025609 136.02876 
L 156.431562 137.364293 
L 157.378787 139.694615 
L 158.46133 143.339806 
L 159.408554 144.788934 
L 159.949826 146.717105 
L 160.491097 149.473492 
L 161.438322 154.61072 
L 161.844275 155.685326 
L 162.656182 157.485453 
L 163.332772 159.046667 
L 163.738725 159.311452 
L 164.009361 159.502901 
L 164.279996 160.02925 
L 164.68595 161.523227 
L 165.90381 166.439471 
L 166.715717 169.015018 
L 167.662942 171.615524 
L 168.880803 175.910854 
L 169.69271 177.148633 
L 170.098663 178.759904 
L 170.91057 182.215579 
L 171.451842 184.127756 
L 172.669702 189.271278 
L 172.940338 189.580325 
L 173.752245 190.022091 
L 174.158198 191.068674 
L 174.834787 193.16285 
L 175.240741 193.728811 
L 175.646694 194.172421 
L 175.91733 194.723819 
L 176.323284 196.154681 
L 177.270508 200.138591 
L 178.759005 204.073484 
L 179.570912 205.529409 
L 180.382819 207.706817 
L 181.194726 210.284732 
L 182.412586 214.837386 
L 182.81854 215.285663 
L 183.224493 215.785353 
L 183.765764 217.109563 
L 185.389578 221.912363 
L 185.93085 223.331964 
L 186.607439 224.318939 
L 187.14871 225.276204 
L 189.178478 230.211482 
L 190.396338 233.445003 
L 191.478881 234.727063 
L 192.15547 236.16327 
L 193.643966 239.699608 
L 194.726509 241.408164 
L 195.673734 243.540214 
L 196.756276 245.504129 
L 197.838819 248.447919 
L 198.38009 249.738756 
L 198.921362 250.395605 
L 200.409858 251.871413 
L 201.221765 253.486636 
L 202.304307 255.782951 
L 202.980897 256.656074 
L 203.38685 257.261527 
L 205.551935 261.583797 
L 206.363842 262.779705 
L 207.040432 263.94592 
L 208.528928 266.831885 
L 209.882106 268.570584 
L 211.370602 270.821217 
L 212.047191 271.921336 
L 212.723781 273.058416 
L 213.265052 273.517315 
L 214.212277 274.212342 
L 214.61823 274.980087 
L 215.430137 276.876547 
L 215.836091 277.261682 
L 217.189269 277.786939 
L 217.73054 278.362737 
L 218.271812 279.295583 
L 219.354354 281.345747 
L 220.030944 282.090829 
L 220.978168 282.84331 
L 221.248804 282.814139 
L 221.790075 282.61052 
L 222.060711 282.846594 
L 222.466665 283.759227 
L 223.143254 285.412648 
L 223.684525 286.10781 
L 224.225796 286.391122 
L 224.767068 286.679922 
L 225.173021 287.170354 
L 225.84961 288.496024 
L 226.390882 289.38102 
L 226.796835 289.606538 
L 227.202789 289.810312 
L 228.826603 291.294782 
L 230.179781 293.827349 
L 230.721052 294.204503 
L 231.127006 294.204734 
L 231.803595 294.154984 
L 232.209549 294.320791 
L 232.615502 294.694339 
L 234.103998 296.458286 
L 234.64527 296.983456 
L 235.592494 298.135367 
L 235.998448 298.215542 
L 236.539719 298.270538 
L 236.945673 298.513589 
L 237.75758 299.419535 
L 238.434169 300.021507 
L 239.381394 300.542529 
L 240.463936 301.882859 
L 241.411161 301.905882 
L 241.817115 302.410197 
L 242.493704 303.375313 
L 243.034975 303.714615 
L 243.711564 304.165032 
L 245.200061 305.678914 
L 245.606014 305.997436 
L 246.011968 306.043888 
L 246.688557 306.027989 
L 248.718324 306.566528 
L 249.665549 307.323103 
L 250.20682 307.641995 
L 251.424681 308.871777 
L 252.10127 309.105275 
L 253.048495 309.881847 
L 253.589766 310.674842 
L 253.99572 311.175196 
L 254.266355 311.23282 
L 255.21358 310.947097 
L 255.619534 311.464425 
L 256.160805 312.202121 
L 256.566759 312.366816 
L 257.513983 312.316136 
L 258.055255 312.800602 
L 259.273115 313.857857 
L 259.814387 314.079828 
L 260.626294 314.115481 
L 261.438201 314.138824 
L 261.844154 314.475066 
L 262.791379 315.447183 
L 264.009239 316.16094 
L 264.685829 316.151448 
L 265.2271 316.520468 
L 265.768371 316.824447 
L 267.256867 317.409734 
L 268.204092 318.177802 
L 268.880681 318.318151 
L 269.827906 318.556475 
L 270.23386 318.802707 
L 271.45172 319.870796 
L 271.992992 319.612032 
L 272.398945 319.489646 
L 272.940216 319.639798 
L 274.56403 320.352212 
L 275.105302 320.668538 
L 277.405705 321.374234 
L 278.488248 322.093677 
L 279.57079 322.438437 
L 280.653333 323.953435 
L 280.923969 323.956861 
L 281.46524 323.581609 
L 281.871193 323.390168 
L 282.277147 323.427942 
L 283.495007 323.949352 
L 284.57755 324.403554 
L 286.201364 324.546199 
L 287.013271 324.923094 
L 289.043039 326.201371 
L 289.854946 326.319767 
L 290.937488 326.51921 
L 291.884713 326.980631 
L 293.237891 327.108599 
L 293.779163 327.333337 
L 294.59107 327.826597 
L 295.538295 327.963553 
L 296.214884 328.264134 
L 297.162109 328.334356 
L 298.244651 329.113141 
L 299.056558 329.077278 
L 299.868465 329.156917 
L 300.680372 329.491023 
L 301.221644 329.602006 
L 302.033551 329.530264 
L 302.574822 329.813455 
L 303.386729 330.239133 
L 303.928 330.294069 
L 304.875225 330.286885 
L 305.551814 330.614678 
L 306.093086 330.847917 
L 308.799442 331.373149 
L 309.746667 331.63748 
L 310.82921 331.58273 
L 311.641117 331.824821 
L 312.182388 331.631318 
L 312.723659 331.502774 
L 313.264931 331.670857 
L 315.024063 332.555108 
L 315.565334 332.844087 
L 316.512559 332.86344 
L 317.595101 333.00104 
L 318.94828 333.509494 
L 319.354233 333.275192 
L 320.030822 332.783969 
L 320.436776 332.832586 
L 320.978047 333.275508 
L 321.519319 333.661412 
L 321.925272 333.646572 
L 323.143133 333.207881 
L 323.95504 333.542905 
L 325.1729 333.963702 
L 325.714171 333.819021 
L 326.120125 333.734457 
L 326.526078 333.875905 
L 327.202668 334.185963 
L 327.608621 334.043229 
L 328.28521 333.665949 
L 328.691164 333.762372 
L 329.638389 334.094045 
L 330.314978 334.392217 
L 330.856249 334.533054 
L 331.668156 334.566647 
L 332.886017 334.9856 
L 333.697924 334.850182 
L 334.374513 334.884883 
L 335.18642 335.119583 
L 335.998327 335.407525 
L 336.539598 335.315316 
L 337.486823 334.976355 
L 339.110637 335.240285 
L 340.19318 335.396082 
L 341.140404 335.336535 
L 342.222947 335.755632 
L 343.711443 335.658212 
L 344.388032 335.866631 
L 344.793986 335.718295 
L 345.741211 335.197233 
L 346.147164 335.324475 
L 347.229707 336.097285 
L 347.770978 335.818839 
L 348.31225 335.638731 
L 348.853521 335.795905 
L 349.936064 336.201932 
L 350.612653 336.170192 
L 351.830513 335.956857 
L 352.64242 336.222586 
L 354.130916 336.718658 
L 355.213459 336.67009 
L 357.784498 336.477194 
L 358.325769 336.582487 
L 359.002358 336.793947 
L 359.408312 336.667933 
L 360.220219 336.248479 
L 360.626172 336.326154 
L 361.573397 336.623916 
L 362.249986 336.564009 
L 363.061893 336.462018 
L 363.738483 336.69709 
L 364.279754 336.812291 
L 365.091661 336.713142 
L 365.76825 336.667728 
L 367.121428 336.880154 
L 367.6627 336.684299 
L 368.068653 336.778806 
L 369.015878 337.161556 
L 369.692467 337.014776 
L 370.233739 337.028808 
L 371.99287 337.587159 
L 373.481367 337.560403 
L 374.157956 337.351694 
L 374.699227 337.550725 
L 375.646452 337.872798 
L 376.187723 337.852432 
L 377.134948 337.647672 
L 378.082173 337.691926 
L 378.623444 337.343511 
L 379.164716 337.053881 
L 379.570669 337.121793 
L 380.382576 337.439402 
L 382.277026 337.503103 
L 382.818297 337.451837 
L 384.171475 337.810505 
L 385.254018 337.667249 
L 387.01315 337.792214 
L 387.689739 337.91038 
L 389.178235 337.809928 
L 389.990142 338.001972 
L 391.208003 338.024349 
L 392.290545 338.275805 
L 394.455631 338.081754 
L 395.538173 338.144419 
L 396.214762 338.254001 
L 396.756034 338.330919 
L 397.432623 338.138898 
L 398.109212 338.043809 
L 398.921119 338.110048 
L 400.13898 338.304411 
L 402.168747 338.330019 
L 402.845336 338.32869 
L 404.333832 338.147219 
L 405.281057 338.484397 
L 405.822329 338.420319 
L 407.175507 338.01156 
L 407.58146 338.217565 
L 408.393367 338.712504 
L 408.799321 338.652522 
L 409.746546 338.320236 
L 410.287817 338.57181 
L 410.693771 338.686378 
L 411.099724 338.507086 
L 411.776313 338.13348 
L 412.182267 338.190058 
L 412.994174 338.400305 
L 413.806081 338.277983 
L 414.48267 338.239207 
L 417.324344 338.603976 
L 419.218794 338.904022 
L 419.760065 339.018892 
L 420.301337 338.899636 
L 421.519197 338.513917 
L 422.60174 338.727512 
L 423.8196 338.269613 
L 424.360872 338.421978 
L 425.849368 339.069333 
L 427.473182 338.979738 
L 427.879135 338.688444 
L 428.691042 337.866742 
L 429.096996 337.831757 
L 429.773585 338.143983 
L 430.450174 338.394207 
L 432.344624 338.421111 
L 433.562484 338.503287 
L 434.374391 338.686214 
L 436.268841 338.454202 
L 437.757337 338.633199 
L 438.298609 338.71519 
L 439.110516 338.915406 
L 439.516469 338.744451 
L 440.05774 338.476243 
L 440.463694 338.498927 
L 441.816872 338.769923 
L 443.170051 338.803915 
L 443.711322 338.971992 
L 444.252593 338.850362 
L 444.793865 338.709327 
L 445.199818 338.800636 
L 445.876407 339.027325 
L 448.718082 338.883692 
L 449.529989 338.845455 
L 450.747849 338.977037 
L 452.371663 338.832274 
L 453.454206 339.125073 
L 453.995477 338.98213 
L 454.942702 338.608635 
L 456.29588 338.583473 
L 456.97247 338.694902 
L 457.784377 338.7588 
L 460.220098 338.82913 
L 461.573276 338.731207 
L 463.467726 338.820972 
L 464.41495 338.876153 
L 464.956222 338.933489 
L 465.362175 338.720894 
L 465.903447 338.382173 
L 466.3094 338.44523 
L 467.391943 338.996127 
L 467.933214 338.982862 
L 468.745121 338.850584 
L 470.098299 339.210419 
L 471.992749 338.598408 
L 472.53402 338.641686 
L 474.293152 339.136094 
L 474.834424 339.062887 
L 475.511013 338.897834 
L 476.187602 339.049305 
L 476.728873 339.046275 
L 477.811416 338.842356 
L 479.299912 338.732488 
L 480.382455 339.19646 
L 480.788408 339.039639 
L 481.600315 338.616264 
L 482.006269 338.674606 
L 482.953494 338.953417 
L 483.900718 338.923875 
L 485.253897 339.153153 
L 486.201122 339.046349 
L 486.877711 339.015061 
L 487.960253 339.015294 
L 488.636843 338.728508 
L 489.178114 338.54216 
L 489.584067 338.643875 
L 490.395974 339.048051 
L 490.937246 338.918842 
L 491.613835 338.757388 
L 492.290424 338.794051 
L 493.77892 339.124866 
L 495.402734 339.138284 
L 496.755913 338.936604 
L 497.161866 338.893644 
L 498.109091 338.493217 
L 498.109091 338.493217 
" clip-path="url(#pd40fd8751f)" style="fill: none; stroke: #0000ff; stroke-linecap: square"/>
   </g>
   <g id="patch_3">
    <path d="M 72 384.48 
L 72 51.84 
" style="fill: none; stroke: #000000; stroke-width: 0.8; stroke-linejoin: miter; stroke-linecap: square"/>
   </g>
   <g id="patch_4">
    <path d="M 518.4 384.48 
L 518.4 51.84 
" style="fill: none; stroke: #000000; stroke-width: 0.8; stroke-linejoin: miter; stroke-linecap: square"/>
   </g>
   <g id="patch_5">
    <path d="M 72 384.48 
L 518.4 384.48 
" style="fill: none; stroke: #000000; stroke-width: 0.8; stroke-linejoin: miter; stroke-linecap: square"/>
   </g>
   <g id="patch_6">
    <path d="M 72 51.84 
L 518.4 51.84 
" style="fill: none; stroke: #000000; stroke-width: 0.8; stroke-linejoin: miter; stroke-linecap: square"/>
   </g>
  </g>
  <g id="legend_1">
   <g id="patch_7">
    <path d="M 490.848437 37.35625 
L 569 37.35625 
Q 571 37.35625 571 35.35625 
L 571 7 
Q 571 5 569 5 
L 490.848437 5 
Q 488.848437 5 488.848437 7 
L 488.848437 35.35625 
Q 488.848437 37.35625 490.848437 37.35625 
z
" style="fill: #ffffff; opacity: 0.8; stroke: #cccccc; stroke-linejoin: miter"/>
   </g>
   <g id="line2d_17">
    <path d="M 492.848437 13.098437 
L 502.848437 13.098437 
L 512.848438 13.098437 
" style="fill: none; stroke: #ff0000; stroke-linecap: square"/>
   </g>
   <g id="text_17">
    <!-- Attention -->
    <g transform="translate(520.848438 16.598437)scale(0.1 -0.1)">
     <defs>
      <path id="DejaVuSans-41" d="M 2188 4044 
L 1331 1722 
L 3047 1722 
L 2188 4044 
z
M 1831 4666 
L 2547 4666 
L 4325 0 
L 3669 0 
L 3244 1197 
L 1141 1197 
L 716 0 
L 50 0 
L 1831 4666 
z
" transform="scale(0.015625)"/>
      <path id="DejaVuSans-74" d="M 1172 4494 
L 1172 3500 
L 2356 3500 
L 2356 3053 
L 1172 3053 
L 1172 1153 
Q 1172 725 1289 603 
Q 1406 481 1766 481 
L 2356 481 
L 2356 0 
L 1766 0 
Q 1100 0 847 248 
Q 594 497 594 1153 
L 594 3053 
L 172 3053 
L 172 3500 
L 594 3500 
L 594 4494 
L 1172 4494 
z
" transform="scale(0.015625)"/>
      <path id="DejaVuSans-65" d="M 3597 1894 
L 3597 1613 
L 953 1613 
Q 991 1019 1311 708 
Q 1631 397 2203 397 
Q 2534 397 2845 478 
Q 3156 559 3463 722 
L 3463 178 
Q 3153 47 2828 -22 
Q 2503 -91 2169 -91 
Q 1331 -91 842 396 
Q 353 884 353 1716 
Q 353 2575 817 3079 
Q 1281 3584 2069 3584 
Q 2775 3584 3186 3129 
Q 3597 2675 3597 1894 
z
M 3022 2063 
Q 3016 2534 2758 2815 
Q 2500 3097 2075 3097 
Q 1594 3097 1305 2825 
Q 1016 2553 972 2059 
L 3022 2063 
z
" transform="scale(0.015625)"/>
     </defs>
     <use xlink:href="#DejaVuSans-41"/>
     <use xlink:href="#DejaVuSans-74" x="66.658203"/>
     <use xlink:href="#DejaVuSans-74" x="105.867188"/>
     <use xlink:href="#DejaVuSans-65" x="145.076172"/>
     <use xlink:href="#DejaVuSans-6e" x="206.599609"/>
     <use xlink:href="#DejaVuSans-74" x="269.978516"/>
     <use xlink:href="#DejaVuSans-69" x="309.1875"/>
     <use xlink:href="#DejaVuSans-6f" x="336.970703"/>
     <use xlink:href="#DejaVuSans-6e" x="398.152344"/>
    </g>
   </g>
   <g id="line2d_18">
    <path d="M 492.848437 27.776563 
L 502.848437 27.776563 
L 512.848438 27.776563 
" style="fill: none; stroke: #0000ff; stroke-linecap: square"/>
   </g>
   <g id="text_18">
    <!-- Additive -->
    <g transform="translate(520.848438 31.276563)scale(0.1 -0.1)">
     <defs>
      <path id="DejaVuSans-64" d="M 2906 2969 
L 2906 4863 
L 3481 4863 
L 3481 0 
L 2906 0 
L 2906 525 
Q 2725 213 2448 61 
Q 2172 -91 1784 -91 
Q 1150 -91 751 415 
Q 353 922 353 1747 
Q 353 2572 751 3078 
Q 1150 3584 1784 3584 
Q 2172 3584 2448 3432 
Q 2725 3281 2906 2969 
z
M 947 1747 
Q 947 1113 1208 752 
Q 1469 391 1925 391 
Q 2381 391 2643 752 
Q 2906 1113 2906 1747 
Q 2906 2381 2643 2742 
Q 2381 3103 1925 3103 
Q 1469 3103 1208 2742 
Q 947 2381 947 1747 
z
" transform="scale(0.015625)"/>
      <path id="DejaVuSans-76" d="M 191 3500 
L 800 3500 
L 1894 563 
L 2988 3500 
L 3597 3500 
L 2284 0 
L 1503 0 
L 191 3500 
z
" transform="scale(0.015625)"/>
     </defs>
     <use xlink:href="#DejaVuSans-41"/>
     <use xlink:href="#DejaVuSans-64" x="66.658203"/>
     <use xlink:href="#DejaVuSans-64" x="130.134766"/>
     <use xlink:href="#DejaVuSans-69" x="193.611328"/>
     <use xlink:href="#DejaVuSans-74" x="221.394531"/>
     <use xlink:href="#DejaVuSans-69" x="260.603516"/>
     <use xlink:href="#DejaVuSans-76" x="288.386719"/>
     <use xlink:href="#DejaVuSans-65" x="347.566406"/>
    </g>
   </g>
  </g>
 </g>
 <defs>
  <clipPath id="pd40fd8751f">
   <rect x="72" y="51.84" width="446.4" height="332.64"/>
  </clipPath>
 </defs>
</svg>
