<?xml version="1.0" encoding="UTF-8" standalone="no"?>
<!DOCTYPE svg PUBLIC "-//W3C//DTD SVG 1.1//EN"
 "http://www.w3.org/Graphics/SVG/1.1/DTD/svg11.dtd">
<!-- Generated by graphviz version 8.0.5 (20230430.1635)
 -->
<!-- Pages: 1 -->
<svg width="351pt" height="395pt"
 viewBox="0.00 0.00 351.00 395.00" xmlns="http://www.w3.org/2000/svg" xmlns:xlink="http://www.w3.org/1999/xlink">
<g id="graph0" class="graph" transform="scale(1 1) rotate(0) translate(4 391)">
<polygon fill="white" stroke="none" points="-4,4 -4,-391 347,-391 347,4 -4,4"/>
<!-- N0 -->
<g id="node1" class="node">
<title>N0</title>
<ellipse fill="none" stroke="black" cx="152" cy="-193.5" rx="27" ry="18"/>
<text text-anchor="middle" x="152" y="-188.07" font-family="Times New Roman,serif" font-size="14.00">N0</text>
</g>
<!-- N2 -->
<g id="node3" class="node">
<title>N2</title>
<ellipse fill="none" stroke="black" cx="92" cy="-105.75" rx="27" ry="18"/>
<text text-anchor="middle" x="92" y="-100.33" font-family="Times New Roman,serif" font-size="14.00">N2</text>
</g>
<!-- N0&#45;&gt;N2 -->
<g id="edge6" class="edge">
<title>N0&#45;&gt;N2</title>
<path fill="none" stroke="black" d="M136.2,-178.83C129.74,-172.73 122.5,-165.18 117,-157.5 111.69,-150.09 106.95,-141.38 103.05,-133.29"/>
<polygon fill="black" stroke="black" points="105.93,-132.17 98.6,-124.52 99.56,-135.07 105.93,-132.17"/>
<text text-anchor="middle" x="129" y="-144.2" font-family="Times New Roman,serif" font-size="14.00">0.50</text>
</g>
<!-- N1 -->
<g id="node2" class="node">
<title>N1</title>
<ellipse fill="none" stroke="black" cx="129" cy="-18" rx="27" ry="18"/>
<text text-anchor="middle" x="129" y="-12.57" font-family="Times New Roman,serif" font-size="14.00">N1</text>
</g>
<!-- N1&#45;&gt;N0 -->
<g id="edge1" class="edge">
<title>N1&#45;&gt;N0</title>
<path fill="none" stroke="black" d="M135.73,-35.85C137.75,-41.53 139.75,-47.96 141,-54 148.85,-91.78 151.18,-136.42 151.83,-164.6"/>
<polygon fill="black" stroke="black" points="148.34,-164.31 152.01,-174.25 155.34,-164.19 148.34,-164.31"/>
<text text-anchor="middle" x="161" y="-100.33" font-family="Times New Roman,serif" font-size="14.00">0.50</text>
</g>
<!-- N2&#45;&gt;N1 -->
<g id="edge3" class="edge">
<title>N2&#45;&gt;N1</title>
<path fill="none" stroke="black" d="M99.13,-88.22C104.32,-76.19 111.46,-59.66 117.45,-45.77"/>
<polygon fill="black" stroke="black" points="121.01,-47.34 121.76,-36.78 114.59,-44.57 121.01,-47.34"/>
<text text-anchor="middle" x="125" y="-56.45" font-family="Times New Roman,serif" font-size="14.00">0.33</text>
</g>
<!-- N3 -->
<g id="node4" class="node">
<title>N3</title>
<ellipse fill="none" stroke="black" cx="274" cy="-193.5" rx="27" ry="18"/>
<text text-anchor="middle" x="274" y="-188.07" font-family="Times New Roman,serif" font-size="14.00">N3</text>
</g>
<!-- N3&#45;&gt;N3 -->
<g id="edge8" class="edge">
<title>N3&#45;&gt;N3</title>
<path fill="none" stroke="black" d="M298.53,-201.6C309.51,-202.37 319,-199.67 319,-193.5 319,-189.55 315.1,-187.02 309.42,-185.92"/>
<polygon fill="black" stroke="black" points="309.69,-182.38 299.53,-185.4 309.36,-189.37 309.69,-182.38"/>
<text text-anchor="middle" x="331" y="-188.07" font-family="Times New Roman,serif" font-size="14.00">0.50</text>
</g>
<!-- N5 -->
<g id="node6" class="node">
<title>N5</title>
<ellipse fill="none" stroke="black" cx="187" cy="-281.25" rx="27" ry="18"/>
<text text-anchor="middle" x="187" y="-275.82" font-family="Times New Roman,serif" font-size="14.00">N5</text>
</g>
<!-- N3&#45;&gt;N5 -->
<g id="edge12" class="edge">
<title>N3&#45;&gt;N5</title>
<path fill="none" stroke="black" d="M274.84,-211.65C274.49,-222.33 272.37,-235.79 265,-245.25 254.62,-258.56 238.06,-266.96 222.87,-272.17"/>
<polygon fill="black" stroke="black" points="222.2,-269.02 213.66,-275.3 224.25,-275.72 222.2,-269.02"/>
<text text-anchor="middle" x="284" y="-231.95" font-family="Times New Roman,serif" font-size="14.00">0.50</text>
</g>
<!-- N4 -->
<g id="node5" class="node">
<title>N4</title>
<ellipse fill="none" stroke="black" cx="80" cy="-193.5" rx="27" ry="18"/>
<text text-anchor="middle" x="80" y="-188.07" font-family="Times New Roman,serif" font-size="14.00">N4</text>
</g>
<!-- N4&#45;&gt;N2 -->
<g id="edge7" class="edge">
<title>N4&#45;&gt;N2</title>
<path fill="none" stroke="black" d="M72.77,-175.87C69.4,-165.88 66.77,-152.97 70,-141.75 70.99,-138.3 72.44,-134.87 74.12,-131.57"/>
<polygon fill="black" stroke="black" points="77.57,-133.6 79.66,-123.22 71.55,-130.04 77.57,-133.6"/>
<text text-anchor="middle" x="82" y="-144.2" font-family="Times New Roman,serif" font-size="14.00">0.50</text>
</g>
<!-- N5&#45;&gt;N0 -->
<g id="edge2" class="edge">
<title>N5&#45;&gt;N0</title>
<path fill="none" stroke="black" d="M178.05,-264.11C174.98,-258.26 171.66,-251.55 169,-245.25 165.86,-237.8 162.89,-229.55 160.34,-221.91"/>
<polygon fill="black" stroke="black" points="163.43,-221.1 157.03,-212.66 156.77,-223.25 163.43,-221.1"/>
<text text-anchor="middle" x="181" y="-231.95" font-family="Times New Roman,serif" font-size="14.00">0.50</text>
</g>
<!-- N5&#45;&gt;N1 -->
<g id="edge4" class="edge">
<title>N5&#45;&gt;N1</title>
<path fill="none" stroke="black" d="M190.51,-263.23C191.53,-257.54 192.5,-251.15 193,-245.25 193.59,-238.28 193.32,-236.49 193,-229.5 190.07,-166.17 198.18,-147.51 177,-87.75 171.09,-71.08 159.98,-54.74 149.93,-42.18"/>
<polygon fill="black" stroke="black" points="151.99,-40.19 142.89,-34.75 146.62,-44.67 151.99,-40.19"/>
<text text-anchor="middle" x="203" y="-144.2" font-family="Times New Roman,serif" font-size="14.00">0.33</text>
</g>
<!-- N5&#45;&gt;N3 -->
<g id="edge9" class="edge">
<title>N5&#45;&gt;N3</title>
<path fill="none" stroke="black" d="M201.76,-265.7C215.46,-252.19 236.06,-231.89 251.76,-216.42"/>
<polygon fill="black" stroke="black" points="253.79,-219.34 258.46,-209.83 248.88,-214.36 253.79,-219.34"/>
<text text-anchor="middle" x="250" y="-231.95" font-family="Times New Roman,serif" font-size="14.00">0.50</text>
</g>
<!-- N5&#45;&gt;N4 -->
<g id="edge10" class="edge">
<title>N5&#45;&gt;N4</title>
<path fill="none" stroke="black" d="M167.73,-268.29C157.71,-261.82 145.42,-253.48 135,-245.25 123.69,-236.31 111.86,-225.59 102.07,-216.31"/>
<polygon fill="black" stroke="black" points="105.03,-214.33 95.4,-209.92 100.18,-219.38 105.03,-214.33"/>
<text text-anchor="middle" x="147" y="-231.95" font-family="Times New Roman,serif" font-size="14.00">0.33</text>
</g>
<!-- E0 -->
<g id="node7" class="node">
<title>E0</title>
<ellipse fill="none" stroke="black" cx="27" cy="-369" rx="27" ry="18"/>
<text text-anchor="middle" x="27" y="-363.57" font-family="Times New Roman,serif" font-size="14.00">E0</text>
</g>
<!-- E0&#45;&gt;N1 -->
<g id="edge5" class="edge">
<title>E0&#45;&gt;N1</title>
<path fill="none" stroke="black" d="M21.94,-351.09C17.25,-333.92 11,-306.48 11,-282.25 11,-282.25 11,-282.25 11,-104.75 11,-63.55 58.65,-40.09 93.39,-28.46"/>
<polygon fill="black" stroke="black" points="94.2,-31.56 102.69,-25.22 92.1,-24.88 94.2,-31.56"/>
<text text-anchor="middle" x="23" y="-188.07" font-family="Times New Roman,serif" font-size="14.00">0.33</text>
</g>
<!-- E0&#45;&gt;N5 -->
<g id="edge13" class="edge">
<title>E0&#45;&gt;N5</title>
<path fill="none" stroke="black" d="M47.59,-356.97C75.36,-342.08 124.99,-315.48 156.94,-298.36"/>
<polygon fill="black" stroke="black" points="158.08,-301.19 165.24,-293.38 154.77,-295.02 158.08,-301.19"/>
<text text-anchor="middle" x="133" y="-319.7" font-family="Times New Roman,serif" font-size="14.00">0.50</text>
</g>
<!-- E1 -->
<g id="node8" class="node">
<title>E1</title>
<ellipse fill="none" stroke="black" cx="74" cy="-281.25" rx="27" ry="18"/>
<text text-anchor="middle" x="74" y="-275.82" font-family="Times New Roman,serif" font-size="14.00">E1</text>
</g>
<!-- E1&#45;&gt;N4 -->
<g id="edge11" class="edge">
<title>E1&#45;&gt;N4</title>
<path fill="none" stroke="black" d="M73.82,-262.84C73.85,-253.03 74.1,-240.57 75,-229.5 75.19,-227.11 75.44,-224.64 75.73,-222.17"/>
<polygon fill="black" stroke="black" points="79.29,-222.92 77.14,-212.54 72.35,-222 79.29,-222.92"/>
<text text-anchor="middle" x="87" y="-231.95" font-family="Times New Roman,serif" font-size="14.00">0.67</text>
</g>
</g>
</svg>
